G04 Layer: BottomSolderMaskLayer*
G04 EasyEDA v6.4.0, 2020-07-06T20:42:06--4:00*
G04 ceb930e8192849dcbdd75014d79c76d5,10*
G04 Gerber Generator version 0.2*
G04 Scale: 100 percent, Rotated: No, Reflected: No *
G04 Dimensions in millimeters *
G04 leading zeros omitted , absolute positions ,3 integer and 3 decimal *
%FSLAX33Y33*%
%MOMM*%
G90*
G71D02*

%ADD34C,1.203198*%
%ADD35C,4.013200*%
%ADD36C,2.153158*%
%ADD39R,3.860800X2.235200*%
%ADD41C,2.703195*%
%ADD42C,2.235200*%
%ADD44C,2.082800*%

%LPD*%
G54D34*
G01X34171Y86169D02*
G01X35170Y86169D01*
G01X34171Y84167D02*
G01X35170Y84167D01*
G01X34171Y82169D02*
G01X35170Y82169D01*
G01X34552Y66611D02*
G01X35551Y66611D01*
G01X34552Y64609D02*
G01X35551Y64609D01*
G01X34552Y62611D02*
G01X35551Y62611D01*
G01X34425Y47942D02*
G01X35424Y47942D01*
G01X34425Y45940D02*
G01X35424Y45940D01*
G01X34425Y43942D02*
G01X35424Y43942D01*
G01X34323Y29845D02*
G01X35323Y29845D01*
G01X34323Y27843D02*
G01X35323Y27843D01*
G01X34323Y25844D02*
G01X35323Y25844D01*
G01X34704Y10287D02*
G01X35704Y10287D01*
G01X34704Y8285D02*
G01X35704Y8285D01*
G01X34704Y6286D02*
G01X35704Y6286D01*
G01X50571Y33282D02*
G01X50571Y34281D01*
G01X52572Y33282D02*
G01X52572Y34281D01*
G01X54571Y33282D02*
G01X54571Y34281D01*
G01X76979Y16256D02*
G01X75979Y16256D01*
G01X76979Y18257D02*
G01X75979Y18257D01*
G01X76979Y20256D02*
G01X75979Y20256D01*
G01X76598Y34544D02*
G01X75598Y34544D01*
G01X76598Y36545D02*
G01X75598Y36545D01*
G01X76598Y38544D02*
G01X75598Y38544D01*
G01X76471Y53213D02*
G01X75471Y53213D01*
G01X76471Y55214D02*
G01X75471Y55214D01*
G01X76471Y57213D02*
G01X75471Y57213D01*
G01X76217Y71628D02*
G01X75217Y71628D01*
G01X76217Y73629D02*
G01X75217Y73629D01*
G01X76217Y75628D02*
G01X75217Y75628D01*
G01X76217Y90170D02*
G01X75217Y90170D01*
G01X76217Y92171D02*
G01X75217Y92171D01*
G01X76217Y94170D02*
G01X75217Y94170D01*
G01X90576Y103242D02*
G01X90576Y102243D01*
G01X88574Y103242D02*
G01X88574Y102243D01*
G01X86575Y103242D02*
G01X86575Y102243D01*
G01X71018Y102861D02*
G01X71018Y101862D01*
G01X69016Y102861D02*
G01X69016Y101862D01*
G01X67017Y102861D02*
G01X67017Y101862D01*
G01X52349Y102988D02*
G01X52349Y101989D01*
G01X50347Y102988D02*
G01X50347Y101989D01*
G01X48348Y102988D02*
G01X48348Y101989D01*
G01X34251Y103090D02*
G01X34251Y102090D01*
G01X32250Y103090D02*
G01X32250Y102090D01*
G01X30251Y103090D02*
G01X30251Y102090D01*
G01X14693Y102709D02*
G01X14693Y101709D01*
G01X12692Y102709D02*
G01X12692Y101709D01*
G01X10693Y102709D02*
G01X10693Y101709D01*
G54D35*
G01X3302Y91376D03*
G01X3302Y86042D03*
G01X2921Y72834D03*
G01X2921Y67500D03*
G01X3048Y54673D03*
G01X3048Y49339D03*
G01X2921Y37020D03*
G01X2921Y31686D03*
G01X2794Y19113D03*
G01X2794Y13779D03*
G01X108864Y16637D03*
G01X108864Y11303D03*
G01X108991Y33909D03*
G01X108991Y28575D03*
G01X108737Y52197D03*
G01X108737Y46863D03*
G01X108864Y71247D03*
G01X108864Y65913D03*
G01X108610Y89154D03*
G01X108610Y83820D03*
G01X50444Y2667D03*
G01X45110Y2667D03*
G01X95656Y134493D03*
G01X90322Y134493D03*
G01X77114Y134874D03*
G01X71780Y134874D03*
G01X58953Y134747D03*
G01X53619Y134747D03*
G01X41300Y134874D03*
G01X35966Y134874D03*
G01X23393Y135001D03*
G01X18059Y135001D03*
G54D36*
G01X68351Y86487D03*
G01X68351Y84201D03*
G01X68351Y81661D03*
G01X68351Y79121D03*
G01X68351Y76581D03*
G01X68351Y74041D03*
G01X68351Y71501D03*
G01X68351Y68961D03*
G01X68351Y66421D03*
G01X68351Y63881D03*
G01X68351Y61341D03*
G01X68351Y58801D03*
G01X68351Y56261D03*
G01X68351Y53721D03*
G01X68351Y51181D03*
G01X42951Y84201D03*
G01X42951Y81661D03*
G01X42951Y79121D03*
G01X42951Y76581D03*
G01X42951Y74041D03*
G01X42951Y71501D03*
G01X42951Y68961D03*
G01X42951Y66421D03*
G01X42951Y63881D03*
G01X42951Y61341D03*
G01X42951Y58801D03*
G01X42951Y56261D03*
G01X42951Y53721D03*
G36*
G01X41950Y50104D02*
G01X41950Y52257D01*
G01X43952Y52257D01*
G01X43952Y50104D01*
G01X41950Y50104D01*
G37*
G01X42951Y86741D03*
G36*
G01X62186Y3581D02*
G01X62186Y5816D01*
G01X66387Y5816D01*
G01X66387Y3581D01*
G01X62186Y3581D01*
G37*
G54D39*
G01X64287Y10795D03*
G36*
G01X67741Y5816D02*
G01X67741Y9677D01*
G01X69976Y9677D01*
G01X69976Y5816D01*
G01X67741Y5816D01*
G37*
G54D41*
G01X28956Y82105D03*
G01X14757Y88104D03*
G01X28956Y94104D03*
G01X16756Y94104D03*
G01X16756Y82105D03*
G54D42*
G01X9398Y93408D03*
G01X9398Y83248D03*
G54D41*
G01X28956Y64071D03*
G01X14757Y70070D03*
G01X28956Y76070D03*
G01X16756Y76070D03*
G01X16756Y64071D03*
G54D42*
G01X8382Y75247D03*
G01X8382Y65087D03*
G54D41*
G01X28956Y45910D03*
G01X14757Y51909D03*
G01X28956Y57909D03*
G01X16756Y57909D03*
G01X16756Y45910D03*
G54D42*
G01X8255Y57086D03*
G01X8255Y46926D03*
G54D41*
G01X28854Y28194D03*
G01X14655Y34193D03*
G01X28854Y40192D03*
G01X16654Y40192D03*
G01X16654Y28194D03*
G54D42*
G01X8890Y39052D03*
G01X8890Y28892D03*
G54D41*
G01X28829Y10223D03*
G01X14630Y16222D03*
G01X28829Y22222D03*
G01X16629Y22222D03*
G01X16629Y10223D03*
G54D42*
G01X8255Y21272D03*
G01X8255Y11112D03*
G54D41*
G01X83464Y92329D03*
G01X97662Y86329D03*
G01X83464Y80330D03*
G01X95664Y80330D03*
G01X95664Y92329D03*
G54D42*
G01X103149Y81026D03*
G01X103149Y91186D03*
G54D41*
G01X83845Y74295D03*
G01X98043Y68295D03*
G01X83845Y62296D03*
G01X96045Y62296D03*
G01X96045Y74295D03*
G54D42*
G01X103530Y63246D03*
G01X103530Y73406D03*
G54D41*
G01X83718Y55245D03*
G01X97916Y49245D03*
G01X83718Y43246D03*
G01X95918Y43246D03*
G01X95918Y55245D03*
G54D42*
G01X103403Y44069D03*
G01X103403Y54229D03*
G54D41*
G01X83718Y37211D03*
G01X97916Y31211D03*
G01X83718Y25212D03*
G01X95918Y25212D03*
G01X95918Y37211D03*
G54D42*
G01X103530Y25908D03*
G01X103530Y36068D03*
G54D41*
G01X83337Y19304D03*
G01X97535Y13304D03*
G01X83337Y7305D03*
G01X95537Y7305D03*
G01X95537Y19304D03*
G54D42*
G01X103276Y8255D03*
G01X103276Y18415D03*
G54D41*
G01X53238Y27559D03*
G01X47238Y13360D03*
G01X41239Y27559D03*
G01X41239Y15359D03*
G01X53238Y15359D03*
G54D42*
G01X42189Y7874D03*
G01X52349Y7874D03*
G36*
G01X33187Y96370D02*
G01X33187Y98574D01*
G01X35392Y98574D01*
G01X35392Y96370D01*
G01X33187Y96370D01*
G37*
G36*
G01X33187Y87871D02*
G01X33187Y90073D01*
G01X35392Y90073D01*
G01X35392Y87871D01*
G01X33187Y87871D01*
G37*
G36*
G01X33568Y76812D02*
G01X33568Y79016D01*
G01X35773Y79016D01*
G01X35773Y76812D01*
G01X33568Y76812D01*
G37*
G36*
G01X33568Y68313D02*
G01X33568Y70515D01*
G01X35773Y70515D01*
G01X35773Y68313D01*
G01X33568Y68313D01*
G37*
G36*
G01X33441Y58143D02*
G01X33441Y60347D01*
G01X35646Y60347D01*
G01X35646Y58143D01*
G01X33441Y58143D01*
G37*
G36*
G01X33441Y49644D02*
G01X33441Y51846D01*
G01X35646Y51846D01*
G01X35646Y49644D01*
G01X33441Y49644D01*
G37*
G36*
G01X33340Y40045D02*
G01X33340Y42250D01*
G01X35544Y42250D01*
G01X35544Y40045D01*
G01X33340Y40045D01*
G37*
G36*
G01X33340Y31546D02*
G01X33340Y33748D01*
G01X35544Y33748D01*
G01X35544Y31546D01*
G01X33340Y31546D01*
G37*
G36*
G01X33721Y20487D02*
G01X33721Y22692D01*
G01X35925Y22692D01*
G01X35925Y20487D01*
G01X33721Y20487D01*
G37*
G36*
G01X33721Y11988D02*
G01X33721Y14190D01*
G01X35925Y14190D01*
G01X35925Y11988D01*
G01X33721Y11988D01*
G37*
G36*
G01X38293Y32552D02*
G01X38293Y34757D01*
G01X40497Y34757D01*
G01X40497Y32552D01*
G01X38293Y32552D01*
G37*
G36*
G01X46794Y32552D02*
G01X46794Y34757D01*
G01X48996Y34757D01*
G01X48996Y32552D01*
G01X46794Y32552D01*
G37*
G36*
G01X75758Y3850D02*
G01X75758Y6055D01*
G01X77962Y6055D01*
G01X77962Y3850D01*
G01X75758Y3850D01*
G37*
G36*
G01X75758Y12352D02*
G01X75758Y14554D01*
G01X77962Y14554D01*
G01X77962Y12352D01*
G01X75758Y12352D01*
G37*
G36*
G01X75377Y22138D02*
G01X75377Y24343D01*
G01X77581Y24343D01*
G01X77581Y22138D01*
G01X75377Y22138D01*
G37*
G36*
G01X75377Y30640D02*
G01X75377Y32842D01*
G01X77581Y32842D01*
G01X77581Y30640D01*
G01X75377Y30640D01*
G37*
G36*
G01X75250Y40807D02*
G01X75250Y43012D01*
G01X77454Y43012D01*
G01X77454Y40807D01*
G01X75250Y40807D01*
G37*
G36*
G01X75250Y49309D02*
G01X75250Y51511D01*
G01X77454Y51511D01*
G01X77454Y49309D01*
G01X75250Y49309D01*
G37*
G36*
G01X74996Y59222D02*
G01X74996Y61427D01*
G01X77200Y61427D01*
G01X77200Y59222D01*
G01X74996Y59222D01*
G37*
G36*
G01X74996Y67724D02*
G01X74996Y69926D01*
G01X77200Y69926D01*
G01X77200Y67724D01*
G01X74996Y67724D01*
G37*
G36*
G01X74996Y77764D02*
G01X74996Y79969D01*
G01X77200Y79969D01*
G01X77200Y77764D01*
G01X74996Y77764D01*
G37*
G36*
G01X74996Y86266D02*
G01X74996Y88468D01*
G01X77200Y88468D01*
G01X77200Y86266D01*
G01X74996Y86266D01*
G37*
G54D41*
G01X86512Y108458D03*
G01X92511Y122656D03*
G01X98511Y108458D03*
G01X98511Y120657D03*
G01X86512Y120657D03*
G54D42*
G01X97688Y128397D03*
G01X87528Y128397D03*
G54D41*
G01X68478Y108458D03*
G01X74477Y122656D03*
G01X80477Y108458D03*
G01X80477Y120657D03*
G01X68478Y120657D03*
G54D42*
G01X79527Y129413D03*
G01X69367Y129413D03*
G54D41*
G01X50317Y108458D03*
G01X56316Y122656D03*
G01X62316Y108458D03*
G01X62316Y120657D03*
G01X50317Y120657D03*
G54D42*
G01X61366Y129540D03*
G01X51206Y129540D03*
G54D41*
G01X32537Y108585D03*
G01X38536Y122783D03*
G01X44536Y108585D03*
G01X44536Y120784D03*
G01X32537Y120784D03*
G54D42*
G01X43332Y128905D03*
G01X33172Y128905D03*
G54D41*
G01X14630Y108585D03*
G01X20629Y122783D03*
G01X26629Y108585D03*
G01X26629Y120784D03*
G01X14630Y120784D03*
G54D42*
G01X25552Y129540D03*
G01X15392Y129540D03*
G36*
G01X100777Y102021D02*
G01X100777Y104226D01*
G01X102981Y104226D01*
G01X102981Y102021D01*
G01X100777Y102021D01*
G37*
G36*
G01X92278Y102021D02*
G01X92278Y104226D01*
G01X94480Y104226D01*
G01X94480Y102021D01*
G01X92278Y102021D01*
G37*
G36*
G01X81219Y101640D02*
G01X81219Y103845D01*
G01X83423Y103845D01*
G01X83423Y101640D01*
G01X81219Y101640D01*
G37*
G36*
G01X72720Y101640D02*
G01X72720Y103845D01*
G01X74922Y103845D01*
G01X74922Y101640D01*
G01X72720Y101640D01*
G37*
G36*
G01X62550Y101767D02*
G01X62550Y103972D01*
G01X64754Y103972D01*
G01X64754Y101767D01*
G01X62550Y101767D01*
G37*
G36*
G01X54051Y101767D02*
G01X54051Y103972D01*
G01X56253Y103972D01*
G01X56253Y101767D01*
G01X54051Y101767D01*
G37*
G36*
G01X44452Y101869D02*
G01X44452Y104073D01*
G01X46657Y104073D01*
G01X46657Y101869D01*
G01X44452Y101869D01*
G37*
G36*
G01X35953Y101869D02*
G01X35953Y104073D01*
G01X38155Y104073D01*
G01X38155Y101869D01*
G01X35953Y101869D01*
G37*
G36*
G01X24894Y101488D02*
G01X24894Y103692D01*
G01X27099Y103692D01*
G01X27099Y101488D01*
G01X24894Y101488D01*
G37*
G36*
G01X16395Y101488D02*
G01X16395Y103692D01*
G01X18597Y103692D01*
G01X18597Y101488D01*
G01X16395Y101488D01*
G37*
G54D44*
G01X51968Y64262D03*
G01X58470Y64262D03*
M00*
M02*
