G04 Layer: BottomSilkLayer*
G04 EasyEDA v6.4.0, 2020-07-06T20:42:06--4:00*
G04 ceb930e8192849dcbdd75014d79c76d5,10*
G04 Gerber Generator version 0.2*
G04 Scale: 100 percent, Rotated: No, Reflected: No *
G04 Dimensions in millimeters *
G04 leading zeros omitted , absolute positions ,3 integer and 3 decimal *
%FSLAX33Y33*%
%MOMM*%
G90*
G71D02*

%ADD10C,0.254000*%
%ADD31C,0.299999*%
%ADD32C,0.399999*%
%ADD33C,0.100000*%

%LPD*%

%LPD*%
G36*
G01X105321Y122084D02*
G01X105252Y122091D01*
G01X105180Y122086D01*
G01X105138Y122066D01*
G01X105118Y122022D01*
G01X105113Y121946D01*
G01X105111Y121860D01*
G01X105102Y121810D01*
G01X105083Y121786D01*
G01X105049Y121780D01*
G01X105003Y121772D01*
G01X104973Y121744D01*
G01X104959Y121694D01*
G01X104960Y121619D01*
G01X104966Y121578D01*
G01X104973Y121542D01*
G01X104981Y121516D01*
G01X104990Y121502D01*
G01X105023Y121494D01*
G01X105087Y121489D01*
G01X105173Y121487D01*
G01X105269Y121487D01*
G01X105363Y121489D01*
G01X105445Y121493D01*
G01X105503Y121500D01*
G01X105528Y121508D01*
G01X105531Y121525D01*
G01X105534Y121555D01*
G01X105536Y121593D01*
G01X105537Y121636D01*
G01X105535Y121707D01*
G01X105523Y121750D01*
G01X105496Y121773D01*
G01X105452Y121783D01*
G01X105425Y121789D01*
G01X105409Y121805D01*
G01X105402Y121844D01*
G01X105397Y121918D01*
G01X105386Y122006D01*
G01X105364Y122059D01*
G01X105321Y122084D01*
G37*

%LPD*%
G36*
G01X108317Y122084D02*
G01X108245Y122091D01*
G01X108171Y122087D01*
G01X108129Y122067D01*
G01X108111Y122023D01*
G01X108106Y121945D01*
G01X108104Y121860D01*
G01X108095Y121810D01*
G01X108075Y121786D01*
G01X108042Y121780D01*
G01X107996Y121772D01*
G01X107966Y121744D01*
G01X107953Y121694D01*
G01X107953Y121619D01*
G01X107958Y121578D01*
G01X107965Y121542D01*
G01X107974Y121516D01*
G01X107983Y121502D01*
G01X108015Y121494D01*
G01X108077Y121489D01*
G01X108159Y121487D01*
G01X108252Y121487D01*
G01X108344Y121489D01*
G01X108425Y121493D01*
G01X108485Y121499D01*
G01X108512Y121508D01*
G01X108527Y121555D01*
G01X108531Y121635D01*
G01X108526Y121714D01*
G01X108512Y121759D01*
G01X108500Y121767D01*
G01X108484Y121774D01*
G01X108465Y121780D01*
G01X108445Y121783D01*
G01X108417Y121788D01*
G01X108403Y121804D01*
G01X108397Y121840D01*
G01X108393Y121910D01*
G01X108384Y122001D01*
G01X108361Y122057D01*
G01X108317Y122084D01*
G37*

%LPD*%
G36*
G01X106236Y122066D02*
G01X106160Y122074D01*
G01X106079Y122069D01*
G01X106034Y122049D01*
G01X106015Y122000D01*
G01X106011Y121911D01*
G01X106011Y121785D01*
G01X105950Y121774D01*
G01X105907Y121762D01*
G01X105883Y121738D01*
G01X105872Y121692D01*
G01X105869Y121616D01*
G01X105870Y121569D01*
G01X105875Y121533D01*
G01X105887Y121506D01*
G01X105908Y121489D01*
G01X105944Y121478D01*
G01X105996Y121472D01*
G01X106068Y121470D01*
G01X106164Y121469D01*
G01X106294Y121470D01*
G01X106371Y121474D01*
G01X106411Y121484D01*
G01X106430Y121500D01*
G01X106438Y121519D01*
G01X106445Y121550D01*
G01X106450Y121588D01*
G01X106451Y121628D01*
G01X106446Y121697D01*
G01X106427Y121745D01*
G01X106395Y121772D01*
G01X106346Y121780D01*
G01X106326Y121783D01*
G01X106316Y121797D01*
G01X106311Y121831D01*
G01X106310Y121893D01*
G01X106304Y121984D01*
G01X106281Y122039D01*
G01X106236Y122066D01*
G37*

%LPD*%
G36*
G01X107263Y122069D02*
G01X107183Y122074D01*
G01X107112Y122069D01*
G01X107073Y122049D01*
G01X107054Y122000D01*
G01X107048Y121909D01*
G01X107043Y121790D01*
G01X106988Y121778D01*
G01X106940Y121760D01*
G01X106911Y121730D01*
G01X106897Y121681D01*
G01X106898Y121611D01*
G01X106904Y121564D01*
G01X106910Y121529D01*
G01X106922Y121503D01*
G01X106944Y121487D01*
G01X106978Y121477D01*
G01X107028Y121471D01*
G01X107098Y121469D01*
G01X107191Y121469D01*
G01X107303Y121470D01*
G01X107384Y121474D01*
G01X107434Y121481D01*
G01X107457Y121490D01*
G01X107471Y121541D01*
G01X107476Y121627D01*
G01X107471Y121711D01*
G01X107458Y121756D01*
G01X107447Y121762D01*
G01X107430Y121768D01*
G01X107411Y121774D01*
G01X107391Y121779D01*
G01X107363Y121788D01*
G01X107348Y121804D01*
G01X107341Y121841D01*
G01X107338Y121910D01*
G01X107330Y121998D01*
G01X107308Y122047D01*
G01X107263Y122069D01*
G37*

%LPD*%
G36*
G01X107575Y121315D02*
G01X106772Y121315D01*
G01X106680Y121314D01*
G01X106496Y121314D01*
G01X106405Y121313D01*
G01X106226Y121313D01*
G01X106139Y121312D01*
G01X106053Y121312D01*
G01X105969Y121311D01*
G01X105888Y121310D01*
G01X105808Y121310D01*
G01X105731Y121309D01*
G01X105657Y121308D01*
G01X105586Y121308D01*
G01X105518Y121307D01*
G01X105453Y121306D01*
G01X105393Y121305D01*
G01X105336Y121304D01*
G01X105284Y121303D01*
G01X105235Y121302D01*
G01X105192Y121301D01*
G01X105153Y121300D01*
G01X105120Y121299D01*
G01X105092Y121298D01*
G01X105069Y121297D01*
G01X105052Y121296D01*
G01X105042Y121295D01*
G01X105038Y121293D01*
G01X105030Y121287D01*
G01X105024Y121283D01*
G01X105020Y121283D01*
G01X105019Y121287D01*
G01X105014Y121289D01*
G01X105003Y121283D01*
G01X104985Y121272D01*
G01X104964Y121256D01*
G01X104942Y121238D01*
G01X104921Y121224D01*
G01X104904Y121214D01*
G01X104893Y121211D01*
G01X104885Y121208D01*
G01X104877Y121199D01*
G01X104868Y121187D01*
G01X104862Y121172D01*
G01X104853Y121152D01*
G01X104842Y121129D01*
G01X104828Y121104D01*
G01X104810Y121074D01*
G01X104806Y121066D01*
G01X104802Y121056D01*
G01X104799Y121044D01*
G01X104796Y121028D01*
G01X104794Y121008D01*
G01X104792Y120983D01*
G01X104790Y120951D01*
G01X104788Y120912D01*
G01X104787Y120864D01*
G01X104786Y120807D01*
G01X104785Y120739D01*
G01X104784Y120661D01*
G01X104784Y120569D01*
G01X104783Y120465D01*
G01X104783Y119706D01*
G01X104782Y118384D01*
G01X104830Y118313D01*
G01X104848Y118284D01*
G01X104863Y118258D01*
G01X104873Y118239D01*
G01X104877Y118228D01*
G01X104885Y118219D01*
G01X104908Y118202D01*
G01X104942Y118182D01*
G01X104983Y118158D01*
G01X105089Y118102D01*
G01X107186Y118102D01*
G01X107281Y118103D01*
G01X107462Y118103D01*
G01X107549Y118104D01*
G01X107713Y118104D01*
G01X107790Y118105D01*
G01X107864Y118105D01*
G01X107934Y118106D01*
G01X108001Y118107D01*
G01X108065Y118107D01*
G01X108124Y118108D01*
G01X108180Y118108D01*
G01X108231Y118110D01*
G01X108278Y118110D01*
G01X108321Y118111D01*
G01X108359Y118112D01*
G01X108393Y118113D01*
G01X108422Y118114D01*
G01X108446Y118115D01*
G01X108465Y118115D01*
G01X108479Y118116D01*
G01X108488Y118117D01*
G01X108491Y118118D01*
G01X108498Y118125D01*
G01X108509Y118132D01*
G01X108525Y118139D01*
G01X108541Y118145D01*
G01X108593Y118168D01*
G01X108642Y118208D01*
G01X108686Y118261D01*
G01X108721Y118323D01*
G01X108736Y118357D01*
G01X108750Y118388D01*
G01X108762Y118414D01*
G01X108769Y118431D01*
G01X108770Y118438D01*
G01X108771Y118453D01*
G01X108773Y118478D01*
G01X108774Y118509D01*
G01X108775Y118549D01*
G01X108776Y118595D01*
G01X108777Y118647D01*
G01X108778Y118706D01*
G01X108778Y118770D01*
G01X108779Y118838D01*
G01X108780Y118912D01*
G01X108780Y118990D01*
G01X108781Y119071D01*
G01X108781Y119156D01*
G01X108782Y119243D01*
G01X108782Y120255D01*
G01X108781Y120340D01*
G01X108781Y120421D01*
G01X108780Y120499D01*
G01X108780Y120572D01*
G01X108779Y120641D01*
G01X108778Y120705D01*
G01X108778Y120764D01*
G01X108777Y120817D01*
G01X108776Y120863D01*
G01X108775Y120902D01*
G01X108774Y120934D01*
G01X108772Y120959D01*
G01X108771Y120975D01*
G01X108770Y120982D01*
G01X108762Y121001D01*
G01X108750Y121028D01*
G01X108735Y121062D01*
G01X108719Y121098D01*
G01X108682Y121160D01*
G01X108628Y121222D01*
G01X108573Y121269D01*
G01X108532Y121289D01*
G01X108526Y121290D01*
G01X108519Y121292D01*
G01X108512Y121296D01*
G01X108507Y121301D01*
G01X108502Y121303D01*
G01X108492Y121304D01*
G01X108475Y121305D01*
G01X108452Y121306D01*
G01X108424Y121307D01*
G01X108391Y121308D01*
G01X108352Y121309D01*
G01X108309Y121309D01*
G01X108261Y121310D01*
G01X108208Y121311D01*
G01X108151Y121311D01*
G01X108091Y121312D01*
G01X108026Y121312D01*
G01X107959Y121313D01*
G01X107888Y121313D01*
G01X107813Y121314D01*
G01X107657Y121314D01*
G01X107575Y121315D01*
G37*

%LPC*%
G36*
G01X108310Y118929D02*
G01X108272Y118931D01*
G01X108201Y118919D01*
G01X108149Y118883D01*
G01X108117Y118825D01*
G01X108106Y118746D01*
G01X108118Y118668D01*
G01X108151Y118609D01*
G01X108203Y118573D01*
G01X108274Y118560D01*
G01X108326Y118569D01*
G01X108370Y118594D01*
G01X108404Y118631D01*
G01X108428Y118677D01*
G01X108440Y118728D01*
G01X108438Y118782D01*
G01X108422Y118833D01*
G01X108391Y118881D01*
G01X108365Y118906D01*
G01X108340Y118921D01*
G01X108310Y118929D01*
G37*
G36*
G01X106073Y120477D02*
G01X106030Y120478D01*
G01X105966Y120474D01*
G01X105883Y120465D01*
G01X105771Y120451D01*
G01X105709Y120438D01*
G01X105678Y120418D01*
G01X105654Y120385D01*
G01X105635Y120348D01*
G01X105616Y120305D01*
G01X105598Y120256D01*
G01X105582Y120203D01*
G01X105568Y120147D01*
G01X105555Y120088D01*
G01X105545Y120028D01*
G01X105537Y119968D01*
G01X105532Y119908D01*
G01X105529Y119850D01*
G01X105529Y119795D01*
G01X105532Y119743D01*
G01X105539Y119684D01*
G01X105549Y119630D01*
G01X105561Y119580D01*
G01X105577Y119533D01*
G01X105594Y119492D01*
G01X105615Y119454D01*
G01X105639Y119420D01*
G01X105665Y119391D01*
G01X105699Y119360D01*
G01X105734Y119336D01*
G01X105774Y119318D01*
G01X105826Y119307D01*
G01X105892Y119300D01*
G01X105979Y119298D01*
G01X106092Y119299D01*
G01X106234Y119303D01*
G01X106372Y119307D01*
G01X106476Y119309D01*
G01X106551Y119308D01*
G01X106602Y119302D01*
G01X106633Y119290D01*
G01X106650Y119271D01*
G01X106656Y119245D01*
G01X106657Y119209D01*
G01X106662Y119148D01*
G01X106689Y119117D01*
G01X106762Y119107D01*
G01X106902Y119108D01*
G01X107121Y119113D01*
G01X107132Y119186D01*
G01X107137Y119216D01*
G01X107143Y119243D01*
G01X107148Y119265D01*
G01X107153Y119277D01*
G01X107178Y119283D01*
G01X107239Y119289D01*
G01X107330Y119293D01*
G01X107447Y119294D01*
G01X107602Y119296D01*
G01X107709Y119304D01*
G01X107771Y119316D01*
G01X107791Y119334D01*
G01X107789Y119351D01*
G01X107782Y119391D01*
G01X107773Y119449D01*
G01X107761Y119519D01*
G01X107748Y119598D01*
G01X107737Y119680D01*
G01X107726Y119755D01*
G01X107720Y119814D01*
G01X107715Y119860D01*
G01X107709Y119900D01*
G01X107703Y119932D01*
G01X107698Y119949D01*
G01X107681Y119958D01*
G01X107642Y119962D01*
G01X107573Y119961D01*
G01X107466Y119954D01*
G01X107375Y119948D01*
G01X107298Y119946D01*
G01X107241Y119948D01*
G01X107210Y119953D01*
G01X107172Y119968D01*
G01X107182Y120193D01*
G01X107186Y120301D01*
G01X107186Y120372D01*
G01X107182Y120411D01*
G01X107173Y120425D01*
G01X107145Y120428D01*
G01X107085Y120427D01*
G01X107001Y120425D01*
G01X106901Y120420D01*
G01X106649Y120408D01*
G01X106649Y119959D01*
G01X106452Y119954D01*
G01X106372Y119953D01*
G01X106298Y119953D01*
G01X106240Y119955D01*
G01X106205Y119959D01*
G01X106163Y119971D01*
G01X106128Y119992D01*
G01X106102Y120022D01*
G01X106084Y120060D01*
G01X106072Y120107D01*
G01X106069Y120164D01*
G01X106072Y120232D01*
G01X106083Y120311D01*
G01X106092Y120373D01*
G01X106097Y120422D01*
G01X106097Y120455D01*
G01X106092Y120472D01*
G01X106073Y120477D01*
G37*

%LPD*%
G36*
G01X105254Y117947D02*
G01X105160Y117947D01*
G01X105089Y117945D01*
G01X105039Y117940D01*
G01X105005Y117929D01*
G01X104983Y117911D01*
G01X104971Y117883D01*
G01X104964Y117845D01*
G01X104960Y117795D01*
G01X104961Y117718D01*
G01X104977Y117663D01*
G01X105009Y117630D01*
G01X105056Y117619D01*
G01X105085Y117613D01*
G01X105103Y117588D01*
G01X105111Y117539D01*
G01X105113Y117457D01*
G01X105117Y117377D01*
G01X105135Y117332D01*
G01X105175Y117313D01*
G01X105247Y117308D01*
G01X105327Y117313D01*
G01X105372Y117336D01*
G01X105393Y117388D01*
G01X105400Y117480D01*
G01X105403Y117555D01*
G01X105410Y117594D01*
G01X105425Y117612D01*
G01X105453Y117620D01*
G01X105474Y117625D01*
G01X105493Y117631D01*
G01X105509Y117638D01*
G01X105520Y117643D01*
G01X105534Y117691D01*
G01X105539Y117781D01*
G01X105533Y117873D01*
G01X105520Y117927D01*
G01X105496Y117936D01*
G01X105446Y117942D01*
G01X105365Y117946D01*
G01X105254Y117947D01*
G37*

%LPD*%
G36*
G01X106259Y117947D02*
G01X106068Y117947D01*
G01X105995Y117944D01*
G01X105943Y117938D01*
G01X105907Y117927D01*
G01X105886Y117908D01*
G01X105874Y117881D01*
G01X105870Y117842D01*
G01X105869Y117791D01*
G01X105872Y117710D01*
G01X105882Y117662D01*
G01X105907Y117638D01*
G01X105950Y117625D01*
G01X106011Y117615D01*
G01X106011Y117479D01*
G01X106015Y117385D01*
G01X106034Y117334D01*
G01X106081Y117312D01*
G01X106167Y117308D01*
G01X106241Y117315D01*
G01X106284Y117343D01*
G01X106305Y117402D01*
G01X106310Y117502D01*
G01X106311Y117566D01*
G01X106316Y117602D01*
G01X106326Y117616D01*
G01X106346Y117619D01*
G01X106363Y117621D01*
G01X106382Y117627D01*
G01X106401Y117636D01*
G01X106417Y117646D01*
G01X106435Y117663D01*
G01X106446Y117687D01*
G01X106450Y117723D01*
G01X106451Y117780D01*
G01X106451Y117835D01*
G01X106447Y117876D01*
G01X106436Y117906D01*
G01X106415Y117926D01*
G01X106381Y117938D01*
G01X106330Y117944D01*
G01X106259Y117947D01*
G37*

%LPD*%
G36*
G01X108247Y117930D02*
G01X108153Y117930D01*
G01X108083Y117928D01*
G01X108032Y117922D01*
G01X107997Y117912D01*
G01X107975Y117895D01*
G01X107963Y117869D01*
G01X107956Y117833D01*
G01X107952Y117784D01*
G01X107952Y117711D01*
G01X107964Y117660D01*
G01X107993Y117627D01*
G01X108039Y117608D01*
G01X108098Y117592D01*
G01X108103Y117459D01*
G01X108111Y117364D01*
G01X108133Y117312D01*
G01X108182Y117293D01*
G01X108267Y117294D01*
G01X108335Y117304D01*
G01X108371Y117328D01*
G01X108386Y117382D01*
G01X108389Y117477D01*
G01X108390Y117544D01*
G01X108395Y117581D01*
G01X108404Y117598D01*
G01X108420Y117602D01*
G01X108435Y117603D01*
G01X108453Y117607D01*
G01X108473Y117612D01*
G01X108491Y117618D01*
G01X108513Y117631D01*
G01X108526Y117651D01*
G01X108531Y117691D01*
G01X108532Y117762D01*
G01X108530Y117815D01*
G01X108526Y117859D01*
G01X108520Y117892D01*
G01X108512Y117909D01*
G01X108490Y117918D01*
G01X108439Y117925D01*
G01X108358Y117929D01*
G01X108247Y117930D01*
G37*

%LPD*%
G36*
G01X107337Y117946D02*
G01X107209Y117947D01*
G01X107116Y117946D01*
G01X107045Y117944D01*
G01X106992Y117937D01*
G01X106955Y117925D01*
G01X106930Y117907D01*
G01X106914Y117880D01*
G01X106905Y117844D01*
G01X106898Y117797D01*
G01X106897Y117721D01*
G01X106912Y117667D01*
G01X106944Y117631D01*
G01X106991Y117616D01*
G01X107043Y117610D01*
G01X107047Y117467D01*
G01X107054Y117372D01*
G01X107074Y117319D01*
G01X107116Y117296D01*
G01X107190Y117291D01*
G01X107260Y117298D01*
G01X107302Y117324D01*
G01X107324Y117379D01*
G01X107334Y117472D01*
G01X107342Y117610D01*
G01X107390Y117616D01*
G01X107409Y117620D01*
G01X107429Y117625D01*
G01X107445Y117632D01*
G01X107456Y117640D01*
G01X107470Y117685D01*
G01X107476Y117767D01*
G01X107472Y117854D01*
G01X107460Y117913D01*
G01X107445Y117932D01*
G01X107409Y117942D01*
G01X107337Y117946D01*
G37*

%LPD*%
G54D10*
G01X18534Y89278D02*
G01X18534Y92326D01*
G01X18026Y92834D01*
G01X18534Y86738D02*
G01X18534Y83944D01*
G01X18026Y83436D01*
G01X28948Y92326D02*
G01X28948Y89532D01*
G01X28948Y83944D02*
G01X28948Y86992D01*
G01X16502Y88008D02*
G01X26916Y88008D01*
G01X28186Y89278D01*
G01X17772Y89278D02*
G01X19042Y89278D01*
G01X19042Y86738D01*
G01X17772Y86738D01*
G01X17772Y89278D01*
G01X18534Y71244D02*
G01X18534Y74292D01*
G01X18026Y74800D01*
G01X18534Y68704D02*
G01X18534Y65910D01*
G01X18026Y65402D01*
G01X28948Y74292D02*
G01X28948Y71498D01*
G01X28948Y65910D02*
G01X28948Y68958D01*
G01X16502Y69974D02*
G01X26916Y69974D01*
G01X28186Y71244D01*
G01X17772Y71244D02*
G01X19042Y71244D01*
G01X19042Y68704D01*
G01X17772Y68704D01*
G01X17772Y71244D01*
G01X18534Y53083D02*
G01X18534Y56131D01*
G01X18026Y56639D01*
G01X18534Y50543D02*
G01X18534Y47749D01*
G01X18026Y47241D01*
G01X28948Y56131D02*
G01X28948Y53337D01*
G01X28948Y47749D02*
G01X28948Y50797D01*
G01X16502Y51813D02*
G01X26916Y51813D01*
G01X28186Y53083D01*
G01X17772Y53083D02*
G01X19042Y53083D01*
G01X19042Y50543D01*
G01X17772Y50543D01*
G01X17772Y53083D01*
G01X18432Y35366D02*
G01X18432Y38414D01*
G01X17924Y38922D01*
G01X18432Y32826D02*
G01X18432Y30032D01*
G01X17924Y29524D01*
G01X28846Y38414D02*
G01X28846Y35620D01*
G01X28846Y30032D02*
G01X28846Y33080D01*
G01X16400Y34096D02*
G01X26814Y34096D01*
G01X28084Y35366D01*
G01X17670Y35366D02*
G01X18940Y35366D01*
G01X18940Y32826D01*
G01X17670Y32826D01*
G01X17670Y35366D01*
G01X18407Y17396D02*
G01X18407Y20444D01*
G01X17899Y20952D01*
G01X18407Y14856D02*
G01X18407Y12062D01*
G01X17899Y11554D01*
G01X28821Y20444D02*
G01X28821Y17650D01*
G01X28821Y12062D02*
G01X28821Y15110D01*
G01X16375Y16126D02*
G01X26789Y16126D01*
G01X28059Y17396D01*
G01X17645Y17396D02*
G01X18915Y17396D01*
G01X18915Y14856D01*
G01X17645Y14856D01*
G01X17645Y17396D01*
G01X93886Y85156D02*
G01X93886Y82108D01*
G01X94394Y81600D01*
G01X93886Y87696D02*
G01X93886Y90490D01*
G01X94394Y90998D01*
G01X83472Y82108D02*
G01X83472Y84902D01*
G01X83472Y90490D02*
G01X83472Y87442D01*
G01X95918Y86426D02*
G01X85504Y86426D01*
G01X84234Y85156D01*
G01X94648Y85156D02*
G01X93378Y85156D01*
G01X93378Y87696D01*
G01X94648Y87696D01*
G01X94648Y85156D01*
G01X94267Y67122D02*
G01X94267Y64074D01*
G01X94775Y63566D01*
G01X94267Y69662D02*
G01X94267Y72456D01*
G01X94775Y72964D01*
G01X83853Y64074D02*
G01X83853Y66868D01*
G01X83853Y72456D02*
G01X83853Y69408D01*
G01X96299Y68392D02*
G01X85885Y68392D01*
G01X84615Y67122D01*
G01X95029Y67122D02*
G01X93759Y67122D01*
G01X93759Y69662D01*
G01X95029Y69662D01*
G01X95029Y67122D01*
G01X94140Y48072D02*
G01X94140Y45024D01*
G01X94648Y44516D01*
G01X94140Y50612D02*
G01X94140Y53406D01*
G01X94648Y53914D01*
G01X83726Y45024D02*
G01X83726Y47818D01*
G01X83726Y53406D02*
G01X83726Y50358D01*
G01X96172Y49342D02*
G01X85758Y49342D01*
G01X84488Y48072D01*
G01X94902Y48072D02*
G01X93632Y48072D01*
G01X93632Y50612D01*
G01X94902Y50612D01*
G01X94902Y48072D01*
G01X94140Y30038D02*
G01X94140Y26990D01*
G01X94648Y26482D01*
G01X94140Y32578D02*
G01X94140Y35372D01*
G01X94648Y35880D01*
G01X83726Y26990D02*
G01X83726Y29784D01*
G01X83726Y35372D02*
G01X83726Y32324D01*
G01X96172Y31308D02*
G01X85758Y31308D01*
G01X84488Y30038D01*
G01X94902Y30038D02*
G01X93632Y30038D01*
G01X93632Y32578D01*
G01X94902Y32578D01*
G01X94902Y30038D01*
G01X93759Y12131D02*
G01X93759Y9083D01*
G01X94267Y8575D01*
G01X93759Y14671D02*
G01X93759Y17465D01*
G01X94267Y17973D01*
G01X83345Y9083D02*
G01X83345Y11877D01*
G01X83345Y17465D02*
G01X83345Y14417D01*
G01X95791Y13401D02*
G01X85377Y13401D01*
G01X84107Y12131D01*
G01X94521Y12131D02*
G01X93251Y12131D01*
G01X93251Y14671D01*
G01X94521Y14671D01*
G01X94521Y12131D01*
G01X46065Y17137D02*
G01X43017Y17137D01*
G01X42509Y16629D01*
G01X48605Y17137D02*
G01X51399Y17137D01*
G01X51907Y16629D01*
G01X43017Y27551D02*
G01X45811Y27551D01*
G01X51399Y27551D02*
G01X48351Y27551D01*
G01X47335Y15105D02*
G01X47335Y25519D01*
G01X46065Y26789D01*
G01X46065Y16375D02*
G01X46065Y17645D01*
G01X48605Y17645D01*
G01X48605Y16375D01*
G01X46065Y16375D01*
G01X93685Y118879D02*
G01X96733Y118879D01*
G01X97241Y119387D01*
G01X91145Y118879D02*
G01X88351Y118879D01*
G01X87843Y119387D01*
G01X96733Y108465D02*
G01X93939Y108465D01*
G01X88351Y108465D02*
G01X91399Y108465D01*
G01X92415Y120911D02*
G01X92415Y110497D01*
G01X93685Y109227D01*
G01X93685Y119641D02*
G01X93685Y118371D01*
G01X91145Y118371D01*
G01X91145Y119641D01*
G01X93685Y119641D01*
G01X75651Y118879D02*
G01X78699Y118879D01*
G01X79207Y119387D01*
G01X73111Y118879D02*
G01X70317Y118879D01*
G01X69809Y119387D01*
G01X78699Y108465D02*
G01X75905Y108465D01*
G01X70317Y108465D02*
G01X73365Y108465D01*
G01X74381Y120911D02*
G01X74381Y110497D01*
G01X75651Y109227D01*
G01X75651Y119641D02*
G01X75651Y118371D01*
G01X73111Y118371D01*
G01X73111Y119641D01*
G01X75651Y119641D01*
G01X57490Y118879D02*
G01X60538Y118879D01*
G01X61046Y119387D01*
G01X54950Y118879D02*
G01X52156Y118879D01*
G01X51648Y119387D01*
G01X60538Y108465D02*
G01X57744Y108465D01*
G01X52156Y108465D02*
G01X55204Y108465D01*
G01X56220Y120911D02*
G01X56220Y110497D01*
G01X57490Y109227D01*
G01X57490Y119641D02*
G01X57490Y118371D01*
G01X54950Y118371D01*
G01X54950Y119641D01*
G01X57490Y119641D01*
G01X39710Y119006D02*
G01X42758Y119006D01*
G01X43266Y119514D01*
G01X37170Y119006D02*
G01X34376Y119006D01*
G01X33868Y119514D01*
G01X42758Y108592D02*
G01X39964Y108592D01*
G01X34376Y108592D02*
G01X37424Y108592D01*
G01X38440Y121038D02*
G01X38440Y110624D01*
G01X39710Y109354D01*
G01X39710Y119768D02*
G01X39710Y118498D01*
G01X37170Y118498D01*
G01X37170Y119768D01*
G01X39710Y119768D01*
G01X21803Y119006D02*
G01X24851Y119006D01*
G01X25359Y119514D01*
G01X19263Y119006D02*
G01X16469Y119006D01*
G01X15961Y119514D01*
G01X24851Y108592D02*
G01X22057Y108592D01*
G01X16469Y108592D02*
G01X19517Y108592D01*
G01X20533Y121038D02*
G01X20533Y110624D01*
G01X21803Y109354D01*
G01X21803Y119768D02*
G01X21803Y118498D01*
G01X19263Y118498D01*
G01X19263Y119768D01*
G01X21803Y119768D01*
G54D31*
G01X106343Y122849D02*
G01X106343Y123831D01*
G01X106507Y123831D01*
G01X106671Y123749D01*
G01X106752Y123668D01*
G01X106834Y123504D01*
G01X106834Y123259D01*
G01X106752Y123095D01*
G01X106589Y122931D01*
G01X106343Y122849D01*
G01X106180Y122849D01*
G01X105934Y122931D01*
G01X105771Y123095D01*
G01X105689Y123259D01*
G01X105689Y123504D01*
G01X105771Y123668D01*
G01X105934Y123831D01*
G01X106589Y125353D02*
G01X106752Y125189D01*
G01X106834Y125026D01*
G01X106834Y124780D01*
G01X106752Y124617D01*
G01X106589Y124453D01*
G01X106343Y124371D01*
G01X106180Y124371D01*
G01X105934Y124453D01*
G01X105771Y124617D01*
G01X105689Y124780D01*
G01X105689Y125026D01*
G01X105771Y125189D01*
G01X105934Y125353D01*
G01X107407Y125893D02*
G01X105689Y125893D01*
G01X106507Y125893D02*
G01X106752Y126139D01*
G01X106834Y126302D01*
G01X106834Y126548D01*
G01X106752Y126711D01*
G01X106507Y126793D01*
G01X105689Y126793D01*
G01X107407Y127333D02*
G01X107325Y127415D01*
G01X107407Y127497D01*
G01X107489Y127415D01*
G01X107407Y127333D01*
G01X106834Y127415D02*
G01X105689Y127415D01*
G01X106343Y128037D02*
G01X106343Y129019D01*
G01X106507Y129019D01*
G01X106671Y128937D01*
G01X106752Y128855D01*
G01X106834Y128691D01*
G01X106834Y128446D01*
G01X106752Y128282D01*
G01X106589Y128119D01*
G01X106343Y128037D01*
G01X106180Y128037D01*
G01X105934Y128119D01*
G01X105771Y128282D01*
G01X105689Y128446D01*
G01X105689Y128691D01*
G01X105771Y128855D01*
G01X105934Y129019D01*
G01X106589Y130459D02*
G01X106752Y130377D01*
G01X106834Y130131D01*
G01X106834Y129886D01*
G01X106752Y129640D01*
G01X106589Y129559D01*
G01X106425Y129640D01*
G01X106343Y129804D01*
G01X106262Y130213D01*
G01X106180Y130377D01*
G01X106016Y130459D01*
G01X105934Y130459D01*
G01X105771Y130377D01*
G01X105689Y130131D01*
G01X105689Y129886D01*
G01X105771Y129640D01*
G01X105934Y129559D01*
G01X106834Y130999D02*
G01X105689Y130999D01*
G01X106507Y130999D02*
G01X106752Y131244D01*
G01X106834Y131408D01*
G01X106834Y131653D01*
G01X106752Y131817D01*
G01X106507Y131899D01*
G01X105689Y131899D01*
G01X106507Y131899D02*
G01X106752Y132144D01*
G01X106834Y132308D01*
G01X106834Y132553D01*
G01X106752Y132717D01*
G01X106507Y132799D01*
G01X105689Y132799D01*
G01X106589Y134239D02*
G01X106752Y134157D01*
G01X106834Y133911D01*
G01X106834Y133666D01*
G01X106752Y133420D01*
G01X106589Y133339D01*
G01X106425Y133420D01*
G01X106343Y133584D01*
G01X106262Y133993D01*
G01X106180Y134157D01*
G01X106016Y134239D01*
G01X105934Y134239D01*
G01X105771Y134157D01*
G01X105689Y133911D01*
G01X105689Y133666D01*
G01X105771Y133420D01*
G01X105934Y133339D01*
G54D32*
G01X106036Y89154D02*
G01X104318Y89154D01*
G01X106036Y90299D02*
G01X104318Y90299D01*
G01X105218Y89154D02*
G01X105218Y90299D01*
G01X105463Y91248D02*
G01X105381Y91084D01*
G01X105218Y90921D01*
G01X104972Y90839D01*
G01X104808Y90839D01*
G01X104563Y90921D01*
G01X104399Y91084D01*
G01X104318Y91248D01*
G01X104318Y91494D01*
G01X104399Y91657D01*
G01X104563Y91821D01*
G01X104808Y91903D01*
G01X104972Y91903D01*
G01X105218Y91821D01*
G01X105381Y91657D01*
G01X105463Y91494D01*
G01X105463Y91248D01*
G01X105463Y92443D02*
G01X104318Y92443D01*
G01X105136Y92443D02*
G01X105381Y92688D01*
G01X105463Y92852D01*
G01X105463Y93097D01*
G01X105381Y93261D01*
G01X105136Y93343D01*
G01X104318Y93343D01*
G01X105136Y93343D02*
G01X105381Y93588D01*
G01X105463Y93752D01*
G01X105463Y93997D01*
G01X105381Y94161D01*
G01X105136Y94243D01*
G01X104318Y94243D01*
G01X104972Y94783D02*
G01X104972Y95764D01*
G01X105136Y95764D01*
G01X105299Y95683D01*
G01X105381Y95601D01*
G01X105463Y95437D01*
G01X105463Y95192D01*
G01X105381Y95028D01*
G01X105218Y94864D01*
G01X104972Y94783D01*
G01X104808Y94783D01*
G01X104563Y94864D01*
G01X104399Y95028D01*
G01X104318Y95192D01*
G01X104318Y95437D01*
G01X104399Y95601D01*
G01X104563Y95764D01*
G01X106036Y98219D02*
G01X104318Y97564D01*
G01X106036Y98219D02*
G01X104318Y98874D01*
G01X104890Y97810D02*
G01X104890Y98628D01*
G01X105463Y99413D02*
G01X104645Y99413D01*
G01X104399Y99495D01*
G01X104318Y99659D01*
G01X104318Y99904D01*
G01X104399Y100068D01*
G01X104645Y100314D01*
G01X105463Y100314D02*
G01X104318Y100314D01*
G01X106036Y101099D02*
G01X104645Y101099D01*
G01X104399Y101181D01*
G01X104318Y101344D01*
G01X104318Y101508D01*
G01X105463Y100854D02*
G01X105463Y101426D01*
G01X105463Y102457D02*
G01X105381Y102294D01*
G01X105218Y102130D01*
G01X104972Y102048D01*
G01X104808Y102048D01*
G01X104563Y102130D01*
G01X104399Y102294D01*
G01X104318Y102457D01*
G01X104318Y102703D01*
G01X104399Y102866D01*
G01X104563Y103030D01*
G01X104808Y103112D01*
G01X104972Y103112D01*
G01X105218Y103030D01*
G01X105381Y102866D01*
G01X105463Y102703D01*
G01X105463Y102457D01*
G01X105463Y103652D02*
G01X104318Y103652D01*
G01X105136Y103652D02*
G01X105381Y103897D01*
G01X105463Y104061D01*
G01X105463Y104306D01*
G01X105381Y104470D01*
G01X105136Y104552D01*
G01X104318Y104552D01*
G01X105136Y104552D02*
G01X105381Y104797D01*
G01X105463Y104961D01*
G01X105463Y105206D01*
G01X105381Y105370D01*
G01X105136Y105452D01*
G01X104318Y105452D01*
G01X105463Y106974D02*
G01X104318Y106974D01*
G01X105218Y106974D02*
G01X105381Y106810D01*
G01X105463Y106646D01*
G01X105463Y106401D01*
G01X105381Y106237D01*
G01X105218Y106074D01*
G01X104972Y105992D01*
G01X104808Y105992D01*
G01X104563Y106074D01*
G01X104399Y106237D01*
G01X104318Y106401D01*
G01X104318Y106646D01*
G01X104399Y106810D01*
G01X104563Y106974D01*
G01X106036Y107759D02*
G01X104645Y107759D01*
G01X104399Y107841D01*
G01X104318Y108004D01*
G01X104318Y108168D01*
G01X105463Y107514D02*
G01X105463Y108086D01*
G01X106036Y108708D02*
G01X105954Y108790D01*
G01X106036Y108872D01*
G01X106118Y108790D01*
G01X106036Y108708D01*
G01X105463Y108790D02*
G01X104318Y108790D01*
G01X105463Y109821D02*
G01X105381Y109657D01*
G01X105218Y109494D01*
G01X104972Y109412D01*
G01X104808Y109412D01*
G01X104563Y109494D01*
G01X104399Y109657D01*
G01X104318Y109821D01*
G01X104318Y110066D01*
G01X104399Y110230D01*
G01X104563Y110394D01*
G01X104808Y110475D01*
G01X104972Y110475D01*
G01X105218Y110394D01*
G01X105381Y110230D01*
G01X105463Y110066D01*
G01X105463Y109821D01*
G01X105463Y111015D02*
G01X104318Y111015D01*
G01X105136Y111015D02*
G01X105381Y111261D01*
G01X105463Y111424D01*
G01X105463Y111670D01*
G01X105381Y111834D01*
G01X105136Y111915D01*
G01X104318Y111915D01*
G01X109304Y91349D02*
G01X109385Y91513D01*
G01X109631Y91758D01*
G01X107913Y91758D01*
G01X109385Y93280D02*
G01X109549Y93198D01*
G01X109631Y92953D01*
G01X109631Y92789D01*
G01X109549Y92544D01*
G01X109304Y92380D01*
G01X108894Y92298D01*
G01X108485Y92298D01*
G01X108158Y92380D01*
G01X107994Y92544D01*
G01X107913Y92789D01*
G01X107913Y92871D01*
G01X107994Y93116D01*
G01X108158Y93280D01*
G01X108404Y93362D01*
G01X108485Y93362D01*
G01X108731Y93280D01*
G01X108894Y93116D01*
G01X108976Y92871D01*
G01X108976Y92789D01*
G01X108894Y92544D01*
G01X108731Y92380D01*
G01X108485Y92298D01*
G01X109631Y95816D02*
G01X107913Y95162D01*
G01X109631Y95816D02*
G01X107913Y96471D01*
G01X108485Y95407D02*
G01X108485Y96225D01*
G01X109058Y97011D02*
G01X107340Y97011D01*
G01X108813Y97011D02*
G01X108976Y97174D01*
G01X109058Y97338D01*
G01X109058Y97584D01*
G01X108976Y97747D01*
G01X108813Y97911D01*
G01X108567Y97993D01*
G01X108404Y97993D01*
G01X108158Y97911D01*
G01X107994Y97747D01*
G01X107913Y97584D01*
G01X107913Y97338D01*
G01X107994Y97174D01*
G01X108158Y97011D01*
G01X109058Y98533D02*
G01X107340Y98533D01*
G01X108813Y98533D02*
G01X108976Y98696D01*
G01X109058Y98860D01*
G01X109058Y99105D01*
G01X108976Y99269D01*
G01X108813Y99433D01*
G01X108567Y99514D01*
G01X108404Y99514D01*
G01X108158Y99433D01*
G01X107994Y99269D01*
G01X107913Y99105D01*
G01X107913Y98860D01*
G01X107994Y98696D01*
G01X108158Y98533D01*
G01X109631Y100054D02*
G01X107913Y100054D01*
G01X109631Y100594D02*
G01X109549Y100676D01*
G01X109631Y100758D01*
G01X109713Y100676D01*
G01X109631Y100594D01*
G01X109058Y100676D02*
G01X107913Y100676D01*
G01X109058Y102280D02*
G01X107913Y102280D01*
G01X108813Y102280D02*
G01X108976Y102116D01*
G01X109058Y101953D01*
G01X109058Y101707D01*
G01X108976Y101543D01*
G01X108813Y101380D01*
G01X108567Y101298D01*
G01X108404Y101298D01*
G01X108158Y101380D01*
G01X107994Y101543D01*
G01X107913Y101707D01*
G01X107913Y101953D01*
G01X107994Y102116D01*
G01X108158Y102280D01*
G01X109058Y102820D02*
G01X107913Y102820D01*
G01X108731Y102820D02*
G01X108976Y103065D01*
G01X109058Y103229D01*
G01X109058Y103474D01*
G01X108976Y103638D01*
G01X108731Y103720D01*
G01X107913Y103720D01*
G01X108813Y105242D02*
G01X108976Y105078D01*
G01X109058Y104914D01*
G01X109058Y104669D01*
G01X108976Y104505D01*
G01X108813Y104342D01*
G01X108567Y104260D01*
G01X108404Y104260D01*
G01X108158Y104342D01*
G01X107994Y104505D01*
G01X107913Y104669D01*
G01X107913Y104914D01*
G01X107994Y105078D01*
G01X108158Y105242D01*
G01X108567Y105782D02*
G01X108567Y106763D01*
G01X108731Y106763D01*
G01X108894Y106682D01*
G01X108976Y106600D01*
G01X109058Y106436D01*
G01X109058Y106191D01*
G01X108976Y106027D01*
G01X108813Y105863D01*
G01X108567Y105782D01*
G01X108404Y105782D01*
G01X108158Y105863D01*
G01X107994Y106027D01*
G01X107913Y106191D01*
G01X107913Y106436D01*
G01X107994Y106600D01*
G01X108158Y106763D01*
G01X108813Y108204D02*
G01X108976Y108122D01*
G01X109058Y107876D01*
G01X109058Y107631D01*
G01X108976Y107385D01*
G01X108813Y107304D01*
G01X108649Y107385D01*
G01X108567Y107549D01*
G01X108485Y107958D01*
G01X108404Y108122D01*
G01X108240Y108204D01*
G01X108158Y108204D01*
G01X107994Y108122D01*
G01X107913Y107876D01*
G01X107913Y107631D01*
G01X107994Y107385D01*
G01X108158Y107304D01*
G54D31*
G01X107325Y113542D02*
G01X106371Y113542D01*
G01X106871Y113542D02*
G01X106962Y113633D01*
G01X107007Y113724D01*
G01X107007Y113860D01*
G01X106962Y113951D01*
G01X106871Y114042D01*
G01X106734Y114087D01*
G01X106643Y114087D01*
G01X106507Y114042D01*
G01X106416Y113951D01*
G01X106371Y113860D01*
G01X106371Y113724D01*
G01X106416Y113633D01*
G01X106507Y113542D01*
G01X107007Y114433D02*
G01X106371Y114706D01*
G01X107007Y114978D02*
G01X106371Y114706D01*
G01X106189Y114615D01*
G01X106098Y114524D01*
G01X106053Y114433D01*
G01X106053Y114387D01*
G54D33*
G01X109595Y121247D02*
G01X109118Y121247D01*
G01X109595Y121088D02*
G01X109595Y121406D01*
G01X109595Y121556D02*
G01X109118Y121556D01*
G01X109595Y121556D02*
G01X109118Y121738D01*
G01X109595Y121920D02*
G01X109118Y121738D01*
G01X109595Y121920D02*
G01X109118Y121920D01*
M00*
M02*
