G04 Layer: TopLayer*
G04 EasyEDA v6.4.0, 2020-07-06T20:42:06--4:00*
G04 ceb930e8192849dcbdd75014d79c76d5,10*
G04 Gerber Generator version 0.2*
G04 Scale: 100 percent, Rotated: No, Reflected: No *
G04 Dimensions in millimeters *
G04 leading zeros omitted , absolute positions ,3 integer and 3 decimal *
%FSLAX33Y33*%
%MOMM*%
G90*
G71D02*

%ADD11C,0.499999*%
%ADD12C,0.999998*%
%ADD13C,0.609600*%
%ADD14C,3.810000*%
%ADD15C,1.949958*%
%ADD18R,3.657600X2.032000*%
%ADD20C,2.499995*%
%ADD21C,2.032000*%
%ADD22R,1.999996X1.999996*%
%ADD23C,1.879600*%

%LPD*%
G54D11*
G01X101879Y103124D02*
G01X101879Y98933D01*
G01X100990Y98044D01*
G01X97307Y98044D01*
G01X68351Y84201D02*
G01X87401Y84201D01*
G01X89052Y85852D01*
G01X89052Y97155D01*
G01X90068Y98171D01*
G01X94132Y98171D01*
G01X94259Y98044D01*
G01X68351Y68961D02*
G01X59969Y68961D01*
G01X58445Y67437D01*
G01X58445Y64287D01*
G01X58470Y64262D01*
G54D12*
G01X42951Y51181D02*
G01X64795Y51181D01*
G01X64922Y51054D01*
G01X67208Y48768D01*
G01X67208Y16383D01*
G01X67208Y16383D01*
G01X64287Y13462D01*
G01X64287Y10795D01*
G01X96045Y74295D02*
G01X91338Y74295D01*
G01X95918Y55245D02*
G01X91338Y55245D01*
G01X95918Y37211D02*
G01X91338Y37211D01*
G01X95664Y92329D02*
G01X94005Y92329D01*
G01X91338Y89662D01*
G01X91338Y21209D01*
G01X93624Y18923D01*
G01X95156Y18923D01*
G01X95537Y19304D01*
G01X86512Y120657D02*
G01X93362Y120657D01*
G01X95656Y118364D01*
G01X95656Y92336D01*
G01X95664Y92329D01*
G01X86512Y120657D02*
G01X86512Y120650D01*
G01X83718Y117856D01*
G01X64668Y117856D01*
G01X68478Y120657D02*
G01X68105Y120657D01*
G01X65303Y117856D01*
G01X47800Y117856D01*
G01X50317Y120657D02*
G01X50317Y120650D01*
G01X47523Y117856D01*
G01X30251Y117856D01*
G01X32537Y120784D02*
G01X32537Y119888D01*
G01X30251Y117602D01*
G01X20599Y117602D01*
G01X14630Y120784D02*
G01X17289Y120784D01*
G01X20599Y117475D01*
G01X20599Y76077D01*
G01X16756Y82105D02*
G01X18503Y82105D01*
G01X20599Y80010D01*
G01X20599Y60634D01*
G01X16756Y64071D02*
G01X17487Y64071D01*
G01X20599Y60960D01*
G01X20599Y42854D01*
G01X16756Y45910D02*
G01X17741Y45910D01*
G01X20472Y43180D01*
G01X20472Y24667D01*
G01X16629Y28130D02*
G01X18376Y28130D01*
G01X20472Y26035D01*
G01X20472Y17399D01*
G01X16629Y10223D02*
G01X16629Y13428D01*
G01X20599Y17399D01*
G01X53238Y17399D01*
G01X53238Y15359D02*
G01X53238Y18288D01*
G01X55524Y20574D01*
G01X67208Y20574D01*
G54D11*
G01X34823Y21590D02*
G01X34823Y21844D01*
G01X37871Y24892D01*
G01X37871Y32131D01*
G01X36220Y33782D01*
G01X36220Y40132D01*
G01X38760Y42672D01*
G01X38760Y50673D01*
G01X37363Y52070D01*
G01X37363Y54483D01*
G01X39395Y56515D01*
G01X42697Y56515D01*
G01X42951Y56261D01*
G01X34569Y41148D02*
G01X35966Y41148D01*
G01X37871Y43180D01*
G01X37871Y50165D01*
G01X36474Y51689D01*
G01X36474Y55499D01*
G01X39903Y58928D01*
G01X42951Y58928D01*
G01X43078Y58801D01*
G01X34543Y59245D02*
G01X37934Y59245D01*
G01X39903Y61214D01*
G01X42824Y61214D01*
G01X42951Y61341D01*
G01X34670Y77914D02*
G01X36791Y77914D01*
G01X37998Y76708D01*
G01X37998Y68834D01*
G01X42951Y63881D01*
G01X34289Y97472D02*
G01X34289Y93243D01*
G01X35585Y91948D01*
G01X37490Y91948D01*
G01X38760Y90678D01*
G01X38760Y70612D01*
G01X42951Y66421D01*
G01X25996Y102590D02*
G01X25996Y101282D01*
G01X27457Y99822D01*
G01X43205Y99822D01*
G01X44729Y98298D01*
G01X44729Y94996D01*
G01X43713Y93980D01*
G01X40792Y93980D01*
G01X39522Y92710D01*
G01X39522Y72390D01*
G01X42951Y68961D01*
G01X45554Y102971D02*
G01X45554Y94170D01*
G01X44348Y92964D01*
G01X41681Y92964D01*
G01X40284Y91567D01*
G01X40284Y74168D01*
G01X42951Y71501D01*
G01X63652Y102870D02*
G01X63652Y93472D01*
G01X62382Y92202D01*
G01X42189Y92202D01*
G01X41046Y91059D01*
G01X41046Y75946D01*
G01X42951Y74041D01*
G01X82321Y102743D02*
G01X82321Y97536D01*
G01X81178Y96393D01*
G01X74447Y96393D01*
G01X72669Y94615D01*
G01X72669Y87503D01*
G01X71653Y86487D01*
G01X68351Y86487D01*
G01X68351Y76581D02*
G01X72415Y76581D01*
G01X74701Y78867D01*
G01X76098Y78867D01*
G01X68351Y74041D02*
G01X69367Y74041D01*
G01X71399Y72009D01*
G01X71399Y62611D01*
G01X73685Y60325D01*
G01X76098Y60325D01*
G01X68351Y71501D02*
G01X69240Y71501D01*
G01X70383Y70358D01*
G01X70383Y62484D01*
G01X73050Y59817D01*
G01X73050Y42926D01*
G01X74193Y41783D01*
G01X74320Y41910D01*
G01X76352Y41910D01*
G01X68478Y61341D02*
G01X68986Y61341D01*
G01X70510Y59817D01*
G01X71526Y59817D01*
G01X72415Y58928D01*
G01X72415Y41402D01*
G01X70637Y39624D01*
G01X70637Y36957D01*
G01X71399Y36195D01*
G01X71399Y23749D01*
G01X72034Y23114D01*
G01X72161Y23241D01*
G01X76606Y23241D01*
G01X68351Y58801D02*
G01X71145Y58801D01*
G01X71653Y57955D01*
G01X71653Y41910D01*
G01X69748Y40005D01*
G01X69748Y36830D01*
G01X70637Y35941D01*
G01X70637Y19050D01*
G01X73177Y16510D01*
G01X73177Y13462D01*
G01X76860Y9779D01*
G01X76860Y4953D01*
G01X39268Y33401D02*
G01X44856Y33401D01*
G01X45999Y34544D01*
G01X45999Y36576D01*
G01X47269Y37846D01*
G01X53111Y37846D01*
G01X53746Y37211D01*
G01X65049Y37211D01*
G01X65684Y36576D01*
G01X65684Y36449D01*
G01X68351Y56261D02*
G01X70002Y56261D01*
G01X70891Y55372D01*
G01X70891Y42545D01*
G01X68732Y40386D01*
G01X68732Y36449D01*
G01X52572Y33782D02*
G01X52572Y36352D01*
G01X51841Y37084D01*
G01X48285Y37084D01*
G01X47777Y36576D01*
G01X47768Y36567D01*
G01X47768Y33401D01*
G54D12*
G01X53238Y15359D02*
G01X53238Y8763D01*
G01X52349Y7874D01*
G01X86512Y120657D02*
G01X86512Y127381D01*
G01X87528Y128397D01*
G01X68478Y120657D02*
G01X68478Y128524D01*
G01X69367Y129413D01*
G01X50317Y120657D02*
G01X50317Y128651D01*
G01X51206Y129540D01*
G01X32537Y120784D02*
G01X32537Y128270D01*
G01X33172Y128905D01*
G01X14630Y120784D02*
G01X14630Y128778D01*
G01X15392Y129540D01*
G01X16756Y82105D02*
G01X10541Y82105D01*
G01X9398Y83248D01*
G01X16756Y64071D02*
G01X9398Y64071D01*
G01X8382Y65087D01*
G01X16756Y45910D02*
G01X9271Y45910D01*
G01X8255Y46926D01*
G01X16629Y28130D02*
G01X9652Y28130D01*
G01X8890Y28892D01*
G01X16629Y10223D02*
G01X9144Y10223D01*
G01X8255Y11112D01*
G01X95537Y19304D02*
G01X102387Y19304D01*
G01X103276Y18415D01*
G01X95918Y37211D02*
G01X102387Y37211D01*
G01X103530Y36068D01*
G01X95918Y55245D02*
G01X102387Y55245D01*
G01X103403Y54229D01*
G01X96045Y74295D02*
G01X102641Y74295D01*
G01X103530Y73406D01*
G01X95664Y92329D02*
G01X102006Y92329D01*
G01X103149Y91186D01*
G54D11*
G01X34289Y88972D02*
G01X35513Y88972D01*
G01X36728Y87757D01*
G01X36728Y85217D01*
G01X35712Y84201D01*
G01X35679Y84167D01*
G01X34670Y84167D01*
G01X34670Y69414D02*
G01X36021Y69414D01*
G01X37363Y68072D01*
G01X37363Y65786D01*
G01X36220Y64643D01*
G01X36187Y64609D01*
G01X35051Y64609D01*
G01X34543Y50745D02*
G01X36021Y50745D01*
G01X37109Y49657D01*
G01X37109Y47117D01*
G01X35966Y45974D01*
G01X35933Y45940D01*
G01X34924Y45940D01*
G01X34442Y32647D02*
G01X35957Y32647D01*
G01X37109Y31496D01*
G01X37109Y28956D01*
G01X35966Y27813D01*
G01X35935Y27843D01*
G01X34823Y27843D01*
G01X34823Y13089D02*
G01X35957Y13089D01*
G01X37363Y11684D01*
G01X37363Y9398D01*
G01X36220Y8255D01*
G01X36189Y8285D01*
G01X35204Y8285D01*
G01X76479Y18257D02*
G01X75178Y18257D01*
G01X73939Y17018D01*
G01X73939Y14351D01*
G01X74828Y13589D01*
G01X75073Y13453D01*
G01X76860Y13453D01*
G01X76098Y36545D02*
G01X74797Y36545D01*
G01X73431Y35179D01*
G01X73431Y32766D01*
G01X74447Y31750D01*
G01X74456Y31741D01*
G01X76479Y31741D01*
G01X76225Y55214D02*
G01X75051Y55214D01*
G01X73812Y54102D01*
G01X73812Y51308D01*
G01X74838Y50411D01*
G01X76606Y50411D01*
G01X75717Y73629D02*
G01X74670Y73629D01*
G01X73304Y72263D01*
G01X73304Y69977D01*
G01X74447Y68834D01*
G01X74456Y68825D01*
G01X76098Y68825D01*
G01X75717Y92171D02*
G01X74416Y92171D01*
G01X73304Y91059D01*
G01X73304Y88646D01*
G01X74447Y87503D01*
G01X74583Y87367D01*
G01X76098Y87367D01*
G01X88574Y102742D02*
G01X88574Y101696D01*
G01X89941Y100330D01*
G01X92227Y100330D01*
G01X93370Y101473D01*
G01X93379Y101481D01*
G01X93379Y103123D01*
G01X69016Y102361D02*
G01X69016Y100934D01*
G01X70256Y99695D01*
G01X72669Y99695D01*
G01X73812Y100838D01*
G01X73821Y100846D01*
G01X73821Y102742D01*
G01X50347Y102488D02*
G01X50347Y101442D01*
G01X51714Y100076D01*
G01X54000Y100076D01*
G01X55143Y101219D01*
G01X55152Y101227D01*
G01X55152Y102869D01*
G01X32250Y102590D02*
G01X32250Y101760D01*
G01X33553Y100457D01*
G01X35839Y100457D01*
G01X36982Y101600D01*
G01X37054Y101672D01*
G01X37054Y102971D01*
G01X12692Y102209D02*
G01X12692Y100744D01*
G01X13868Y99568D01*
G01X16408Y99568D01*
G01X17551Y100711D01*
G01X17496Y100765D01*
G01X17496Y102590D01*
G54D14*
G01X3302Y91376D03*
G01X3302Y86042D03*
G01X2921Y72834D03*
G01X2921Y67500D03*
G01X3048Y54673D03*
G01X3048Y49339D03*
G01X2921Y37020D03*
G01X2921Y31686D03*
G01X2794Y19113D03*
G01X2794Y13779D03*
G01X108864Y16637D03*
G01X108864Y11303D03*
G01X108991Y33909D03*
G01X108991Y28575D03*
G01X108737Y52197D03*
G01X108737Y46863D03*
G01X108864Y71247D03*
G01X108864Y65913D03*
G01X108610Y89154D03*
G01X108610Y83820D03*
G01X50444Y2667D03*
G01X45110Y2667D03*
G01X95656Y134493D03*
G01X90322Y134493D03*
G01X77114Y134874D03*
G01X71780Y134874D03*
G01X58953Y134747D03*
G01X53619Y134747D03*
G01X41300Y134874D03*
G01X35966Y134874D03*
G01X23393Y135001D03*
G01X18059Y135001D03*
G54D15*
G01X68351Y86487D03*
G01X68351Y84201D03*
G01X68351Y81661D03*
G01X68351Y79121D03*
G01X68351Y76581D03*
G01X68351Y74041D03*
G01X68351Y71501D03*
G01X68351Y68961D03*
G01X68351Y66421D03*
G01X68351Y63881D03*
G01X68351Y61341D03*
G01X68351Y58801D03*
G01X68351Y56261D03*
G01X68351Y53721D03*
G01X68351Y51181D03*
G01X42951Y84201D03*
G01X42951Y81661D03*
G01X42951Y79121D03*
G01X42951Y76581D03*
G01X42951Y74041D03*
G01X42951Y71501D03*
G01X42951Y68961D03*
G01X42951Y66421D03*
G01X42951Y63881D03*
G01X42951Y61341D03*
G01X42951Y58801D03*
G01X42951Y56261D03*
G01X42951Y53721D03*
G36*
G01X42052Y50205D02*
G01X42052Y52156D01*
G01X43850Y52156D01*
G01X43850Y50205D01*
G01X42052Y50205D01*
G37*
G01X42951Y86741D03*
G36*
G01X62288Y3683D02*
G01X62288Y5715D01*
G01X66286Y5715D01*
G01X66286Y3683D01*
G01X62288Y3683D01*
G37*
G54D18*
G01X64287Y10795D03*
G36*
G01X67843Y5918D02*
G01X67843Y9575D01*
G01X69875Y9575D01*
G01X69875Y5918D01*
G01X67843Y5918D01*
G37*
G54D20*
G01X28956Y82105D03*
G01X14757Y88104D03*
G01X28956Y94104D03*
G01X16756Y94104D03*
G01X16756Y82105D03*
G54D21*
G01X9398Y93408D03*
G01X9398Y83248D03*
G54D20*
G01X28956Y64071D03*
G01X14757Y70070D03*
G01X28956Y76070D03*
G01X16756Y76070D03*
G01X16756Y64071D03*
G54D21*
G01X8382Y75247D03*
G01X8382Y65087D03*
G54D20*
G01X28956Y45910D03*
G01X14757Y51909D03*
G01X28956Y57909D03*
G01X16756Y57909D03*
G01X16756Y45910D03*
G54D21*
G01X8255Y57086D03*
G01X8255Y46926D03*
G54D20*
G01X28854Y28194D03*
G01X14655Y34193D03*
G01X28854Y40192D03*
G01X16654Y40192D03*
G01X16654Y28194D03*
G54D21*
G01X8890Y39052D03*
G01X8890Y28892D03*
G54D20*
G01X28829Y10223D03*
G01X14630Y16222D03*
G01X28829Y22222D03*
G01X16629Y22222D03*
G01X16629Y10223D03*
G54D21*
G01X8255Y21272D03*
G01X8255Y11112D03*
G54D20*
G01X83464Y92329D03*
G01X97662Y86329D03*
G01X83464Y80330D03*
G01X95664Y80330D03*
G01X95664Y92329D03*
G54D21*
G01X103149Y81026D03*
G01X103149Y91186D03*
G54D20*
G01X83845Y74295D03*
G01X98043Y68295D03*
G01X83845Y62296D03*
G01X96045Y62296D03*
G01X96045Y74295D03*
G54D21*
G01X103530Y63246D03*
G01X103530Y73406D03*
G54D20*
G01X83718Y55245D03*
G01X97916Y49245D03*
G01X83718Y43246D03*
G01X95918Y43246D03*
G01X95918Y55245D03*
G54D21*
G01X103403Y44069D03*
G01X103403Y54229D03*
G54D20*
G01X83718Y37211D03*
G01X97916Y31211D03*
G01X83718Y25212D03*
G01X95918Y25212D03*
G01X95918Y37211D03*
G54D21*
G01X103530Y25908D03*
G01X103530Y36068D03*
G54D20*
G01X83337Y19304D03*
G01X97535Y13304D03*
G01X83337Y7305D03*
G01X95537Y7305D03*
G01X95537Y19304D03*
G54D21*
G01X103276Y8255D03*
G01X103276Y18415D03*
G54D20*
G01X53238Y27559D03*
G01X47238Y13360D03*
G01X41239Y27559D03*
G01X41239Y15359D03*
G01X53238Y15359D03*
G54D21*
G01X42189Y7874D03*
G01X52349Y7874D03*
G54D22*
G01X34289Y97472D03*
G01X34289Y88972D03*
G01X34670Y77914D03*
G01X34670Y69414D03*
G01X34543Y59245D03*
G01X34543Y50745D03*
G01X34442Y41148D03*
G01X34442Y32647D03*
G01X34823Y21590D03*
G01X34823Y13089D03*
G01X39395Y33655D03*
G01X47895Y33655D03*
G01X76860Y4953D03*
G01X76860Y13453D03*
G01X76479Y23241D03*
G01X76479Y31741D03*
G01X76352Y41910D03*
G01X76352Y50410D03*
G01X76098Y60325D03*
G01X76098Y68825D03*
G01X76098Y78867D03*
G01X76098Y87367D03*
G54D20*
G01X86512Y108458D03*
G01X92511Y122656D03*
G01X98511Y108458D03*
G01X98511Y120657D03*
G01X86512Y120657D03*
G54D21*
G01X97688Y128397D03*
G01X87528Y128397D03*
G54D20*
G01X68478Y108458D03*
G01X74477Y122656D03*
G01X80477Y108458D03*
G01X80477Y120657D03*
G01X68478Y120657D03*
G54D21*
G01X79527Y129413D03*
G01X69367Y129413D03*
G54D20*
G01X50317Y108458D03*
G01X56316Y122656D03*
G01X62316Y108458D03*
G01X62316Y120657D03*
G01X50317Y120657D03*
G54D21*
G01X61366Y129540D03*
G01X51206Y129540D03*
G54D20*
G01X32537Y108585D03*
G01X38536Y122783D03*
G01X44536Y108585D03*
G01X44536Y120784D03*
G01X32537Y120784D03*
G54D21*
G01X43332Y128905D03*
G01X33172Y128905D03*
G54D20*
G01X14630Y108585D03*
G01X20629Y122783D03*
G01X26629Y108585D03*
G01X26629Y120784D03*
G01X14630Y120784D03*
G54D21*
G01X25552Y129540D03*
G01X15392Y129540D03*
G54D22*
G01X101879Y103124D03*
G01X93379Y103124D03*
G01X82321Y102743D03*
G01X73821Y102743D03*
G01X63652Y102870D03*
G01X55152Y102870D03*
G01X45554Y102971D03*
G01X37054Y102971D03*
G01X25996Y102590D03*
G01X17496Y102590D03*
G54D23*
G01X51968Y64262D03*
G01X58470Y64262D03*
G54D13*
G01X68732Y36449D03*
G01X65684Y36449D03*
G01X94259Y98044D03*
G01X97307Y98044D03*
G54D12*
G01X34171Y86169D02*
G01X35170Y86169D01*
G01X34171Y84167D02*
G01X35170Y84167D01*
G01X34171Y82169D02*
G01X35170Y82169D01*
G01X34552Y66611D02*
G01X35551Y66611D01*
G01X34552Y64609D02*
G01X35551Y64609D01*
G01X34552Y62611D02*
G01X35551Y62611D01*
G01X34425Y47942D02*
G01X35424Y47942D01*
G01X34425Y45940D02*
G01X35424Y45940D01*
G01X34425Y43942D02*
G01X35424Y43942D01*
G01X34323Y29845D02*
G01X35323Y29845D01*
G01X34323Y27843D02*
G01X35323Y27843D01*
G01X34323Y25844D02*
G01X35323Y25844D01*
G01X34704Y10287D02*
G01X35704Y10287D01*
G01X34704Y8285D02*
G01X35704Y8285D01*
G01X34704Y6286D02*
G01X35704Y6286D01*
G01X50571Y33282D02*
G01X50571Y34281D01*
G01X52572Y33282D02*
G01X52572Y34281D01*
G01X54571Y33282D02*
G01X54571Y34281D01*
G01X76979Y16256D02*
G01X75979Y16256D01*
G01X76979Y18257D02*
G01X75979Y18257D01*
G01X76979Y20256D02*
G01X75979Y20256D01*
G01X76598Y34544D02*
G01X75598Y34544D01*
G01X76598Y36545D02*
G01X75598Y36545D01*
G01X76598Y38544D02*
G01X75598Y38544D01*
G01X76471Y53213D02*
G01X75471Y53213D01*
G01X76471Y55214D02*
G01X75471Y55214D01*
G01X76471Y57213D02*
G01X75471Y57213D01*
G01X76217Y71628D02*
G01X75217Y71628D01*
G01X76217Y73629D02*
G01X75217Y73629D01*
G01X76217Y75628D02*
G01X75217Y75628D01*
G01X76217Y90170D02*
G01X75217Y90170D01*
G01X76217Y92171D02*
G01X75217Y92171D01*
G01X76217Y94170D02*
G01X75217Y94170D01*
G01X90576Y103242D02*
G01X90576Y102243D01*
G01X88574Y103242D02*
G01X88574Y102243D01*
G01X86575Y103242D02*
G01X86575Y102243D01*
G01X71018Y102861D02*
G01X71018Y101862D01*
G01X69016Y102861D02*
G01X69016Y101862D01*
G01X67017Y102861D02*
G01X67017Y101862D01*
G01X52349Y102988D02*
G01X52349Y101989D01*
G01X50347Y102988D02*
G01X50347Y101989D01*
G01X48348Y102988D02*
G01X48348Y101989D01*
G01X34251Y103090D02*
G01X34251Y102090D01*
G01X32250Y103090D02*
G01X32250Y102090D01*
G01X30251Y103090D02*
G01X30251Y102090D01*
G01X14693Y102709D02*
G01X14693Y101709D01*
G01X12692Y102709D02*
G01X12692Y101709D01*
G01X10693Y102709D02*
G01X10693Y101709D01*
M00*
M02*
