%TF.GenerationSoftware,KiCad,Pcbnew,(5.1.6)-1*%
%TF.CreationDate,2020-09-18T13:03:01-04:00*%
%TF.ProjectId,8_SOIC_DIP,385f534f-4943-45f4-9449-502e6b696361,rev?*%
%TF.SameCoordinates,Original*%
%TF.FileFunction,Copper,L1,Top*%
%TF.FilePolarity,Positive*%
%FSLAX46Y46*%
G04 Gerber Fmt 4.6, Leading zero omitted, Abs format (unit mm)*
G04 Created by KiCad (PCBNEW (5.1.6)-1) date 2020-09-18 13:03:01*
%MOMM*%
%LPD*%
G01*
G04 APERTURE LIST*
%TA.AperFunction,SMDPad,CuDef*%
%ADD10R,2.290000X3.000000*%
%TD*%
%TA.AperFunction,ComponentPad*%
%ADD11O,1.600000X1.600000*%
%TD*%
%TA.AperFunction,ComponentPad*%
%ADD12R,1.600000X1.600000*%
%TD*%
%TA.AperFunction,Conductor*%
%ADD13C,0.250000*%
%TD*%
G04 APERTURE END LIST*
D10*
%TO.P,REF\u002A\u002A,9*%
%TO.N,N/C*%
X64135000Y-44450000D03*
%TO.P,REF\u002A\u002A,8*%
%TA.AperFunction,SMDPad,CuDef*%
G36*
G01*
X65635000Y-42695000D02*
X65635000Y-42395000D01*
G75*
G02*
X65785000Y-42245000I150000J0D01*
G01*
X67435000Y-42245000D01*
G75*
G02*
X67585000Y-42395000I0J-150000D01*
G01*
X67585000Y-42695000D01*
G75*
G02*
X67435000Y-42845000I-150000J0D01*
G01*
X65785000Y-42845000D01*
G75*
G02*
X65635000Y-42695000I0J150000D01*
G01*
G37*
%TD.AperFunction*%
%TO.P,REF\u002A\u002A,7*%
%TA.AperFunction,SMDPad,CuDef*%
G36*
G01*
X65635000Y-43965000D02*
X65635000Y-43665000D01*
G75*
G02*
X65785000Y-43515000I150000J0D01*
G01*
X67435000Y-43515000D01*
G75*
G02*
X67585000Y-43665000I0J-150000D01*
G01*
X67585000Y-43965000D01*
G75*
G02*
X67435000Y-44115000I-150000J0D01*
G01*
X65785000Y-44115000D01*
G75*
G02*
X65635000Y-43965000I0J150000D01*
G01*
G37*
%TD.AperFunction*%
%TO.P,REF\u002A\u002A,6*%
%TA.AperFunction,SMDPad,CuDef*%
G36*
G01*
X65635000Y-45235000D02*
X65635000Y-44935000D01*
G75*
G02*
X65785000Y-44785000I150000J0D01*
G01*
X67435000Y-44785000D01*
G75*
G02*
X67585000Y-44935000I0J-150000D01*
G01*
X67585000Y-45235000D01*
G75*
G02*
X67435000Y-45385000I-150000J0D01*
G01*
X65785000Y-45385000D01*
G75*
G02*
X65635000Y-45235000I0J150000D01*
G01*
G37*
%TD.AperFunction*%
%TO.P,REF\u002A\u002A,5*%
%TA.AperFunction,SMDPad,CuDef*%
G36*
G01*
X65635000Y-46505000D02*
X65635000Y-46205000D01*
G75*
G02*
X65785000Y-46055000I150000J0D01*
G01*
X67435000Y-46055000D01*
G75*
G02*
X67585000Y-46205000I0J-150000D01*
G01*
X67585000Y-46505000D01*
G75*
G02*
X67435000Y-46655000I-150000J0D01*
G01*
X65785000Y-46655000D01*
G75*
G02*
X65635000Y-46505000I0J150000D01*
G01*
G37*
%TD.AperFunction*%
%TO.P,REF\u002A\u002A,4*%
%TA.AperFunction,SMDPad,CuDef*%
G36*
G01*
X60685000Y-46505000D02*
X60685000Y-46205000D01*
G75*
G02*
X60835000Y-46055000I150000J0D01*
G01*
X62485000Y-46055000D01*
G75*
G02*
X62635000Y-46205000I0J-150000D01*
G01*
X62635000Y-46505000D01*
G75*
G02*
X62485000Y-46655000I-150000J0D01*
G01*
X60835000Y-46655000D01*
G75*
G02*
X60685000Y-46505000I0J150000D01*
G01*
G37*
%TD.AperFunction*%
%TO.P,REF\u002A\u002A,3*%
%TA.AperFunction,SMDPad,CuDef*%
G36*
G01*
X60685000Y-45235000D02*
X60685000Y-44935000D01*
G75*
G02*
X60835000Y-44785000I150000J0D01*
G01*
X62485000Y-44785000D01*
G75*
G02*
X62635000Y-44935000I0J-150000D01*
G01*
X62635000Y-45235000D01*
G75*
G02*
X62485000Y-45385000I-150000J0D01*
G01*
X60835000Y-45385000D01*
G75*
G02*
X60685000Y-45235000I0J150000D01*
G01*
G37*
%TD.AperFunction*%
%TO.P,REF\u002A\u002A,2*%
%TA.AperFunction,SMDPad,CuDef*%
G36*
G01*
X60685000Y-43965000D02*
X60685000Y-43665000D01*
G75*
G02*
X60835000Y-43515000I150000J0D01*
G01*
X62485000Y-43515000D01*
G75*
G02*
X62635000Y-43665000I0J-150000D01*
G01*
X62635000Y-43965000D01*
G75*
G02*
X62485000Y-44115000I-150000J0D01*
G01*
X60835000Y-44115000D01*
G75*
G02*
X60685000Y-43965000I0J150000D01*
G01*
G37*
%TD.AperFunction*%
%TO.P,REF\u002A\u002A,1*%
%TA.AperFunction,SMDPad,CuDef*%
G36*
G01*
X60685000Y-42695000D02*
X60685000Y-42395000D01*
G75*
G02*
X60835000Y-42245000I150000J0D01*
G01*
X62485000Y-42245000D01*
G75*
G02*
X62635000Y-42395000I0J-150000D01*
G01*
X62635000Y-42695000D01*
G75*
G02*
X62485000Y-42845000I-150000J0D01*
G01*
X60835000Y-42845000D01*
G75*
G02*
X60685000Y-42695000I0J150000D01*
G01*
G37*
%TD.AperFunction*%
%TD*%
D11*
%TO.P,,8*%
%TO.N,N/C*%
X60325000Y-39370000D03*
%TO.P,,4*%
X67945000Y-49530000D03*
%TO.P,,7*%
X62865000Y-39370000D03*
%TO.P,,3*%
X65405000Y-49530000D03*
%TO.P,,6*%
X65405000Y-39370000D03*
%TO.P,,2*%
X62865000Y-49530000D03*
%TO.P,,5*%
X67945000Y-39370000D03*
D12*
%TO.P,,1*%
X60325000Y-49530000D03*
%TD*%
D13*
%TO.N,*%
X61660000Y-42545000D02*
X59690000Y-42545000D01*
X59690000Y-42545000D02*
X59055000Y-43180000D01*
X59055000Y-48260000D02*
X60325000Y-49530000D01*
X59055000Y-43180000D02*
X59055000Y-48260000D01*
X61660000Y-43815000D02*
X60325000Y-43815000D01*
X60325000Y-43815000D02*
X59690000Y-44450000D01*
X59690000Y-44450000D02*
X59690000Y-47625000D01*
X59690000Y-47625000D02*
X60325000Y-48260000D01*
X61595000Y-48260000D02*
X62865000Y-49530000D01*
X60325000Y-48260000D02*
X61595000Y-48260000D01*
X63500000Y-47625000D02*
X65405000Y-49530000D01*
X61660000Y-45085000D02*
X60960000Y-45085000D01*
X60325000Y-45720000D02*
X60325000Y-46990000D01*
X60960000Y-45085000D02*
X60325000Y-45720000D01*
X60325000Y-46990000D02*
X60960000Y-47625000D01*
X60960000Y-47625000D02*
X63500000Y-47625000D01*
X61660000Y-46355000D02*
X63500000Y-46355000D01*
X63500000Y-46355000D02*
X64770000Y-47625000D01*
X66040000Y-47625000D02*
X67945000Y-49530000D01*
X64770000Y-47625000D02*
X66040000Y-47625000D01*
X66610000Y-46355000D02*
X68580000Y-46355000D01*
X68580000Y-46355000D02*
X69215000Y-45720000D01*
X69215000Y-40640000D02*
X67945000Y-39370000D01*
X69215000Y-45720000D02*
X69215000Y-40640000D01*
X67945000Y-45085000D02*
X68580000Y-44450000D01*
X66610000Y-45085000D02*
X67945000Y-45085000D01*
X68580000Y-44450000D02*
X68580000Y-41275000D01*
X67945000Y-40640000D02*
X66675000Y-40640000D01*
X66675000Y-40640000D02*
X65405000Y-39370000D01*
X68580000Y-41275000D02*
X67945000Y-40640000D01*
X66610000Y-43815000D02*
X67310000Y-43815000D01*
X67310000Y-43815000D02*
X67945000Y-43180000D01*
X67945000Y-43180000D02*
X67945000Y-41910000D01*
X67945000Y-41910000D02*
X67310000Y-41275000D01*
X67310000Y-41275000D02*
X64770000Y-41275000D01*
X64770000Y-41275000D02*
X62865000Y-39370000D01*
X66610000Y-42545000D02*
X64135000Y-42545000D01*
X64135000Y-42545000D02*
X62865000Y-41275000D01*
X62230000Y-41275000D02*
X60325000Y-39370000D01*
X62865000Y-41275000D02*
X62230000Y-41275000D01*
%TD*%
M02*
