%TF.GenerationSoftware,KiCad,Pcbnew,(5.1.6)-1*%
%TF.CreationDate,2020-09-18T13:03:01-04:00*%
%TF.ProjectId,8_SOIC_DIP,385f534f-4943-45f4-9449-502e6b696361,rev?*%
%TF.SameCoordinates,Original*%
%TF.FileFunction,Copper,L2,Bot*%
%TF.FilePolarity,Positive*%
%FSLAX46Y46*%
G04 Gerber Fmt 4.6, Leading zero omitted, Abs format (unit mm)*
G04 Created by KiCad (PCBNEW (5.1.6)-1) date 2020-09-18 13:03:01*
%MOMM*%
%LPD*%
G01*
G04 APERTURE LIST*
%TA.AperFunction,ComponentPad*%
%ADD10O,1.600000X1.600000*%
%TD*%
%TA.AperFunction,ComponentPad*%
%ADD11R,1.600000X1.600000*%
%TD*%
%TA.AperFunction,NonConductor*%
%ADD12C,0.254000*%
%TD*%
G04 APERTURE END LIST*
D10*
%TO.P,,8*%
%TO.N,N/C*%
X60325000Y-39370000D03*
%TO.P,,4*%
X67945000Y-49530000D03*
%TO.P,,7*%
X62865000Y-39370000D03*
%TO.P,,3*%
X65405000Y-49530000D03*
%TO.P,,6*%
X65405000Y-39370000D03*
%TO.P,,2*%
X62865000Y-49530000D03*
%TO.P,,5*%
X67945000Y-39370000D03*
D11*
%TO.P,,1*%
X60325000Y-49530000D03*
%TD*%
D12*
G36*
X66830363Y-40284759D02*
G01*
X67030241Y-40484637D01*
X67265273Y-40641680D01*
X67526426Y-40749853D01*
X67803665Y-40805000D01*
X68086335Y-40805000D01*
X68363574Y-40749853D01*
X68624727Y-40641680D01*
X68784000Y-40535257D01*
X68784001Y-48364743D01*
X68624727Y-48258320D01*
X68363574Y-48150147D01*
X68086335Y-48095000D01*
X67803665Y-48095000D01*
X67526426Y-48150147D01*
X67265273Y-48258320D01*
X67030241Y-48415363D01*
X66830363Y-48615241D01*
X66675000Y-48847759D01*
X66519637Y-48615241D01*
X66319759Y-48415363D01*
X66084727Y-48258320D01*
X65823574Y-48150147D01*
X65546335Y-48095000D01*
X65263665Y-48095000D01*
X64986426Y-48150147D01*
X64725273Y-48258320D01*
X64490241Y-48415363D01*
X64290363Y-48615241D01*
X64135000Y-48847759D01*
X63979637Y-48615241D01*
X63779759Y-48415363D01*
X63544727Y-48258320D01*
X63283574Y-48150147D01*
X63006335Y-48095000D01*
X62723665Y-48095000D01*
X62446426Y-48150147D01*
X62185273Y-48258320D01*
X61950241Y-48415363D01*
X61751643Y-48613961D01*
X61750812Y-48605518D01*
X61714502Y-48485820D01*
X61655537Y-48375506D01*
X61576185Y-48278815D01*
X61479494Y-48199463D01*
X61369180Y-48140498D01*
X61249482Y-48104188D01*
X61125000Y-48091928D01*
X59525000Y-48091928D01*
X59486000Y-48095769D01*
X59486000Y-40535257D01*
X59645273Y-40641680D01*
X59906426Y-40749853D01*
X60183665Y-40805000D01*
X60466335Y-40805000D01*
X60743574Y-40749853D01*
X61004727Y-40641680D01*
X61239759Y-40484637D01*
X61439637Y-40284759D01*
X61595000Y-40052241D01*
X61750363Y-40284759D01*
X61950241Y-40484637D01*
X62185273Y-40641680D01*
X62446426Y-40749853D01*
X62723665Y-40805000D01*
X63006335Y-40805000D01*
X63283574Y-40749853D01*
X63544727Y-40641680D01*
X63779759Y-40484637D01*
X63979637Y-40284759D01*
X64135000Y-40052241D01*
X64290363Y-40284759D01*
X64490241Y-40484637D01*
X64725273Y-40641680D01*
X64986426Y-40749853D01*
X65263665Y-40805000D01*
X65546335Y-40805000D01*
X65823574Y-40749853D01*
X66084727Y-40641680D01*
X66319759Y-40484637D01*
X66519637Y-40284759D01*
X66675000Y-40052241D01*
X66830363Y-40284759D01*
G37*
X66830363Y-40284759D02*
X67030241Y-40484637D01*
X67265273Y-40641680D01*
X67526426Y-40749853D01*
X67803665Y-40805000D01*
X68086335Y-40805000D01*
X68363574Y-40749853D01*
X68624727Y-40641680D01*
X68784000Y-40535257D01*
X68784001Y-48364743D01*
X68624727Y-48258320D01*
X68363574Y-48150147D01*
X68086335Y-48095000D01*
X67803665Y-48095000D01*
X67526426Y-48150147D01*
X67265273Y-48258320D01*
X67030241Y-48415363D01*
X66830363Y-48615241D01*
X66675000Y-48847759D01*
X66519637Y-48615241D01*
X66319759Y-48415363D01*
X66084727Y-48258320D01*
X65823574Y-48150147D01*
X65546335Y-48095000D01*
X65263665Y-48095000D01*
X64986426Y-48150147D01*
X64725273Y-48258320D01*
X64490241Y-48415363D01*
X64290363Y-48615241D01*
X64135000Y-48847759D01*
X63979637Y-48615241D01*
X63779759Y-48415363D01*
X63544727Y-48258320D01*
X63283574Y-48150147D01*
X63006335Y-48095000D01*
X62723665Y-48095000D01*
X62446426Y-48150147D01*
X62185273Y-48258320D01*
X61950241Y-48415363D01*
X61751643Y-48613961D01*
X61750812Y-48605518D01*
X61714502Y-48485820D01*
X61655537Y-48375506D01*
X61576185Y-48278815D01*
X61479494Y-48199463D01*
X61369180Y-48140498D01*
X61249482Y-48104188D01*
X61125000Y-48091928D01*
X59525000Y-48091928D01*
X59486000Y-48095769D01*
X59486000Y-40535257D01*
X59645273Y-40641680D01*
X59906426Y-40749853D01*
X60183665Y-40805000D01*
X60466335Y-40805000D01*
X60743574Y-40749853D01*
X61004727Y-40641680D01*
X61239759Y-40484637D01*
X61439637Y-40284759D01*
X61595000Y-40052241D01*
X61750363Y-40284759D01*
X61950241Y-40484637D01*
X62185273Y-40641680D01*
X62446426Y-40749853D01*
X62723665Y-40805000D01*
X63006335Y-40805000D01*
X63283574Y-40749853D01*
X63544727Y-40641680D01*
X63779759Y-40484637D01*
X63979637Y-40284759D01*
X64135000Y-40052241D01*
X64290363Y-40284759D01*
X64490241Y-40484637D01*
X64725273Y-40641680D01*
X64986426Y-40749853D01*
X65263665Y-40805000D01*
X65546335Y-40805000D01*
X65823574Y-40749853D01*
X66084727Y-40641680D01*
X66319759Y-40484637D01*
X66519637Y-40284759D01*
X66675000Y-40052241D01*
X66830363Y-40284759D01*
M02*
