<?xml version="1.0" encoding="utf-8" ?>
<svg baseProfile="full" height="100%" version="1.1" width="100%" xmlns="http://www.w3.org/2000/svg" xmlns:ev="http://www.w3.org/2001/xml-events" xmlns:xlink="http://www.w3.org/1999/xlink"><defs /><rect fill="#2ea64e" height="102.75235969299999" width="113.385824" x="0" y="0" /><circle cx="65.88779366499999" cy="62.390549656000005" fill="darkgreen" r="0.449999989" /><circle cx="58.957085172999996" cy="68.690549502" fill="darkgreen" r="0.449999989" /><circle cx="8.737795062" cy="68.690549502" fill="darkgreen" r="0.449999989" /><circle cx="19.799999516" cy="75.752360353" fill="darkgreen" r="0.449999989" /><circle cx="16.061810631" cy="79.490549238" fill="darkgreen" r="0.449999989" /><circle cx="8.737795062" cy="79.490549238" fill="darkgreen" r="0.449999989" /><circle cx="65.88779366499999" cy="57.89054976600001" fill="darkgreen" r="0.449999989" /><circle cx="65.746061385" cy="57.752360793" fill="darkgreen" r="0.449999989" /><circle cx="18.141731840000002" cy="57.752360793" fill="darkgreen" r="0.449999989" /><circle cx="17.553542878" cy="58.340549755" fill="darkgreen" r="0.449999989" /><circle cx="8.737795062" cy="58.340549755" fill="darkgreen" r="0.449999989" /><path d="M65.88779366499999,62.390549656000005L58.957085172999996,68.690549502L8.737795062,68.690549502M19.799999516,75.752360353L16.061810631,79.490549238L8.737795062,79.490549238M65.88779366499999,57.89054976600001L65.746061385,57.752360793L18.141731840000002,57.752360793L17.553542878,58.340549755L8.737795062,58.340549755" fill="none" stroke="darkgreen" stroke-width="0.899999978" /><circle cx="94.949997679" cy="59.552360748999995" fill="darkgreen" r="1.0629903283464999" /><circle cx="94.949997679" cy="68.042124321" fill="darkgreen" r="1.0629903283464999" /><circle cx="77.952754" cy="85.039368" fill="darkgreen" r="1.0629903283464999" /><circle cx="80.489761812" cy="65.459053518" fill="darkgreen" r="1.0629903283464999" /><circle cx="80.489761812" cy="61.915746518" fill="darkgreen" r="1.0629903283464999" /><circle cx="105.292910812" cy="37.112597518" fill="darkgreen" r="1.0629903283464999" /><circle cx="105.289367505" cy="26.482676518" fill="darkgreen" r="1.0629903283464999" /><circle cx="19.087794809" cy="52.940549887" fill="darkgreen" r="1.0629903283464999" /><circle cx="19.087794809" cy="52.940549887" fill="darkgreen" r="1.0629903283464999" /><circle cx="19.087794809" cy="46.580313822" fill="darkgreen" r="1.0629903283464999" /><circle cx="16.710235812" cy="44.202754825" fill="darkgreen" r="1.0629903283464999" /><path d="M94.949997679,59.552360748999995L94.949997679,68.042124321L77.952754,85.039368M80.489761812,65.459053518L80.489761812,61.915746518L105.292910812,37.112597518L105.289367505,26.482676518M19.087794809,52.940549887L19.087794809,46.580313822L16.710235812,44.202754825" fill="none" stroke="darkgreen" stroke-width="2.1259806566929997" /><circle cx="65.88779366499999" cy="62.390549656000005" fill="darkgreen" r="1.080719264921" /><circle cx="19.799999516" cy="75.752360353" fill="darkgreen" r="1.0799999736" /><circle cx="65.88779366499999" cy="57.89054976600001" fill="darkgreen" r="1.0799999736" /><circle cx="80.486218505" cy="65.459053518" fill="darkgreen" r="1.0799999736" /><circle cx="94.949997679" cy="59.552360748999995" fill="darkgreen" r="1.0799999736" /><circle cx="77.949210693" cy="85.039368" fill="darkgreen" r="1.0799999736" /><circle cx="16.710235812" cy="44.202754825" fill="darkgreen" r="1.0799999736" /><circle cx="19.087794809" cy="52.940549887" fill="darkgreen" r="1.0799999736" /><circle cx="6.966141562" cy="90.290548974" fill="darkgreen" r="3.5432999133860004" /><circle cx="10.509448562000001" cy="90.290548974" fill="darkgreen" r="3.5432999133860004" /><circle cx="6.966141562" cy="79.490549238" fill="darkgreen" r="3.5432999133860004" /><circle cx="10.509448562000001" cy="79.490549238" fill="darkgreen" r="3.5432999133860004" /><circle cx="6.966141562" cy="68.690549502" fill="darkgreen" r="3.5432999133860004" /><circle cx="10.509448562000001" cy="68.690549502" fill="darkgreen" r="3.5432999133860004" /><circle cx="6.966141562" cy="58.340549755" fill="darkgreen" r="3.5432999133860004" /><circle cx="10.509448562000001" cy="58.340549755" fill="darkgreen" r="3.5432999133860004" /><circle cx="6.966141562" cy="47.540550019" fill="darkgreen" r="3.5432999133860004" /><circle cx="10.509448562000001" cy="47.540550019" fill="darkgreen" r="3.5432999133860004" /><path d="M6.966141562,90.290548974L10.509448562000001,90.290548974M6.966141562,79.490549238L10.509448562000001,79.490549238M6.966141562,68.690549502L10.509448562000001,68.690549502M6.966141562,58.340549755L10.509448562000001,58.340549755M6.966141562,47.540550019L10.509448562000001,47.540550019" fill="none" stroke="darkgreen" stroke-width="7.086599826772001" /><circle cx="45.056691812" cy="10.537795018" fill="darkgreen" r="5.314949870079" /><circle cx="45.056691812" cy="6.994488018" fill="darkgreen" r="5.314949870079" /><circle cx="59.226376505" cy="10.537795018" fill="darkgreen" r="5.314949870079" /><circle cx="59.226376505" cy="6.994488018" fill="darkgreen" r="5.314949870079" /><circle cx="105.289367505" cy="28.254330018" fill="darkgreen" r="5.314949870079" /><circle cx="105.289367505" cy="24.711023018000002" fill="darkgreen" r="5.314949870079" /><circle cx="91.11613950499999" cy="28.254330018" fill="darkgreen" r="5.314949870079" /><circle cx="91.11613950499999" cy="24.711023018000002" fill="darkgreen" r="5.314949870079" /><circle cx="76.942911505" cy="28.254330018" fill="darkgreen" r="5.314949870079" /><circle cx="76.942911505" cy="24.711023018000002" fill="darkgreen" r="5.314949870079" /><path d="M45.056691812,10.537795018L45.056691812,6.994488018M59.226376505,10.537795018L59.226376505,6.994488018M105.289367505,28.254330018L105.289367505,24.711023018000002M91.11613950499999,28.254330018L91.11613950499999,24.711023018000002M76.942911505,28.254330018L76.942911505,24.711023018000002" fill="none" stroke="darkgreen" stroke-width="10.629899740158" /><circle cx="6.966141562" cy="90.290548974" fill="grey" r="3.9032999045860004" /><circle cx="10.509448562000001" cy="90.290548974" fill="grey" r="3.9032999045860004" /><circle cx="6.966141562" cy="79.490549238" fill="grey" r="3.9032999045860004" /><circle cx="10.509448562000001" cy="79.490549238" fill="grey" r="3.9032999045860004" /><circle cx="6.966141562" cy="68.690549502" fill="grey" r="3.9032999045860004" /><circle cx="10.509448562000001" cy="68.690549502" fill="grey" r="3.9032999045860004" /><circle cx="6.966141562" cy="58.340549755" fill="grey" r="3.9032999045860004" /><circle cx="10.509448562000001" cy="58.340549755" fill="grey" r="3.9032999045860004" /><circle cx="6.966141562" cy="47.540550019" fill="grey" r="3.9032999045860004" /><circle cx="10.509448562000001" cy="47.540550019" fill="grey" r="3.9032999045860004" /><path d="M6.966141562,90.290548974L10.509448562000001,90.290548974M6.966141562,79.490549238L10.509448562000001,79.490549238M6.966141562,68.690549502L10.509448562000001,68.690549502M6.966141562,58.340549755L10.509448562000001,58.340549755M6.966141562,47.540550019L10.509448562000001,47.540550019" fill="none" stroke="grey" stroke-width="7.806599809172001" /><circle cx="45.056691812" cy="10.537795018" fill="grey" r="5.674949861279" /><circle cx="45.056691812" cy="6.994488018" fill="grey" r="5.674949861279" /><circle cx="59.226376505" cy="10.537795018" fill="grey" r="5.674949861279" /><circle cx="59.226376505" cy="6.994488018" fill="grey" r="5.674949861279" /><circle cx="105.289367505" cy="28.254330018" fill="grey" r="5.674949861279" /><circle cx="105.289367505" cy="24.711023018000002" fill="grey" r="5.674949861279" /><circle cx="91.11613950499999" cy="28.254330018" fill="grey" r="5.674949861279" /><circle cx="91.11613950499999" cy="24.711023018000002" fill="grey" r="5.674949861279" /><circle cx="76.942911505" cy="28.254330018" fill="grey" r="5.674949861279" /><circle cx="76.942911505" cy="24.711023018000002" fill="grey" r="5.674949861279" /><path d="M45.056691812,10.537795018L45.056691812,6.994488018M59.226376505,10.537795018L59.226376505,6.994488018M105.289367505,28.254330018L105.289367505,24.711023018000002M91.11613950499999,28.254330018L91.11613950499999,24.711023018000002M76.942911505,28.254330018L76.942911505,24.711023018000002" fill="none" stroke="grey" stroke-width="11.349899722558" /><circle cx="29.519290617" cy="49.829526341000005" fill="white" r="0.3599999912" /><circle cx="29.841731554000003" cy="50.485038136" fill="white" r="0.3599999912" /><circle cx="30.500786656000002" cy="51.144093237999996" fill="white" r="0.3599999912" /><circle cx="31.156298450999998" cy="51.466534175" fill="white" r="0.3599999912" /><circle cx="32.460235427" cy="51.466534175" fill="white" r="0.3599999912" /><circle cx="33.119290529" cy="51.144093237999996" fill="white" r="0.3599999912" /><circle cx="33.76771571" cy="50.485038136" fill="white" r="0.3599999912" /><circle cx="34.100786568000004" cy="49.829526341000005" fill="white" r="0.3599999912" /><circle cx="34.423227505" cy="48.848030302" fill="white" r="0.3599999912" /><circle cx="34.423227505" cy="47.211022467999996" fill="white" r="0.3599999912" /><circle cx="34.100786568000004" cy="46.229526429" fill="white" r="0.3599999912" /><circle cx="33.76771571" cy="45.570471327" fill="white" r="0.3599999912" /><circle cx="33.119290529" cy="44.922046146" fill="white" r="0.3599999912" /><circle cx="32.460235427" cy="44.588975288" fill="white" r="0.3599999912" /><circle cx="31.156298450999998" cy="44.588975288" fill="white" r="0.3599999912" /><circle cx="30.500786656000002" cy="44.922046146" fill="white" r="0.3599999912" /><circle cx="29.841731554000003" cy="45.570471327" fill="white" r="0.3599999912" /><circle cx="29.519290617" cy="46.229526429" fill="white" r="0.3599999912" /><circle cx="29.519290617" cy="47.211022467999996" fill="white" r="0.3599999912" /><circle cx="31.156298450999998" cy="47.211022467999996" fill="white" r="0.3599999912" /><circle cx="29.519290617" cy="47.211022467999996" fill="white" r="0.3599999912" /><circle cx="27.357873347" cy="51.466534175" fill="white" r="0.3599999912" /><circle cx="27.357873347" cy="44.588975288" fill="white" r="0.3599999912" /><circle cx="27.357873347" cy="51.466534175" fill="white" r="0.3599999912" /><circle cx="22.776377396" cy="44.588975288" fill="white" r="0.3599999912" /><circle cx="22.776377396" cy="51.466534175" fill="white" r="0.3599999912" /><circle cx="22.776377396" cy="44.588975288" fill="white" r="0.3599999912" /><circle cx="20.618503433" cy="51.466534175" fill="white" r="0.3599999912" /><circle cx="20.618503433" cy="44.588975288" fill="white" r="0.3599999912" /><circle cx="20.618503433" cy="51.466534175" fill="white" r="0.3599999912" /><circle cx="18.322440497000002" cy="51.466534175" fill="white" r="0.3599999912" /><circle cx="17.340944458" cy="51.144093237999996" fill="white" r="0.3599999912" /><circle cx="16.685432663" cy="50.485038136" fill="white" r="0.3599999912" /><circle cx="16.359448419" cy="49.829526341000005" fill="white" r="0.3599999912" /><circle cx="16.037007482" cy="48.848030302" fill="white" r="0.3599999912" /><circle cx="16.037007482" cy="47.211022467999996" fill="white" r="0.3599999912" /><circle cx="16.359448419" cy="46.229526429" fill="white" r="0.3599999912" /><circle cx="16.685432663" cy="45.570471327" fill="white" r="0.3599999912" /><circle cx="17.340944458" cy="44.922046146" fill="white" r="0.3599999912" /><circle cx="18.322440497000002" cy="44.588975288" fill="white" r="0.3599999912" /><circle cx="20.618503433" cy="44.588975288" fill="white" r="0.3599999912" /><circle cx="23.414172655999998" cy="62.096455174999996" fill="white" r="0.3599999912" /><circle cx="26.68110171" cy="62.096455174999996" fill="white" r="0.3599999912" /><circle cx="27.014172568" cy="59.151967058" fill="white" r="0.3599999912" /><circle cx="26.68110171" cy="59.477951302" fill="white" r="0.3599999912" /><circle cx="25.699605671" cy="59.81102215999999" fill="white" r="0.3599999912" /><circle cx="24.718109632" cy="59.81102215999999" fill="white" r="0.3599999912" /><circle cx="23.736613592999998" cy="59.477951302" fill="white" r="0.3599999912" /><circle cx="23.081101798000002" cy="58.818896200000005" fill="white" r="0.3599999912" /><circle cx="22.755117553999998" cy="57.837400161" fill="white" r="0.3599999912" /><circle cx="22.755117553999998" cy="57.188974980000005" fill="white" r="0.3599999912" /><circle cx="23.081101798000002" cy="56.211022248" fill="white" r="0.3599999912" /><circle cx="23.736613592999998" cy="55.551967146" fill="white" r="0.3599999912" /><circle cx="24.718109632" cy="55.218896287999996" fill="white" r="0.3599999912" /><circle cx="25.699605671" cy="55.218896287999996" fill="white" r="0.3599999912" /><circle cx="26.68110171" cy="55.551967146" fill="white" r="0.3599999912" /><circle cx="27.014172568" cy="55.87795139" fill="white" r="0.3599999912" /><circle cx="27.336613505" cy="56.533463185" fill="white" r="0.3599999912" /><circle cx="20.597243590999998" cy="62.096455174999996" fill="white" r="0.3599999912" /><circle cx="17.975196411000002" cy="55.218896287999996" fill="white" r="0.3599999912" /><circle cx="15.356692537999999" cy="62.096455174999996" fill="white" r="0.3599999912" /><circle cx="17.975196411000002" cy="55.218896287999996" fill="white" r="0.3599999912" /><circle cx="41.509841505" cy="72.726376175" fill="white" r="0.3599999912" /><circle cx="41.509841505" cy="65.859447209" fill="white" r="0.3599999912" /><circle cx="41.509841505" cy="72.726376175" fill="white" r="0.3599999912" /><circle cx="38.565353388" cy="72.726376175" fill="white" r="0.3599999912" /><circle cx="37.587400656" cy="72.400391931" fill="white" r="0.3599999912" /><circle cx="37.254329798" cy="72.06732107299999" fill="white" r="0.3599999912" /><circle cx="36.928345554" cy="71.418895892" fill="white" r="0.3599999912" /><circle cx="36.928345554" cy="70.437399853" fill="white" r="0.3599999912" /><circle cx="37.254329798" cy="69.78188805799999" fill="white" r="0.3599999912" /><circle cx="37.587400656" cy="69.45944712100001" fill="white" r="0.3599999912" /><circle cx="38.565353388" cy="69.126376263" fill="white" r="0.3599999912" /><circle cx="41.509841505" cy="69.126376263" fill="white" r="0.3599999912" /><circle cx="34.770471591" cy="72.726376175" fill="white" r="0.3599999912" /><circle cx="33.12992045" cy="65.859447209" fill="white" r="0.3599999912" /><circle cx="31.492912615999998" cy="72.726376175" fill="white" r="0.3599999912" /><circle cx="33.12992045" cy="65.859447209" fill="white" r="0.3599999912" /><circle cx="31.492912615999998" cy="72.726376175" fill="white" r="0.3599999912" /><circle cx="29.862991396" cy="65.859447209" fill="white" r="0.3599999912" /><circle cx="28.225983562" cy="72.726376175" fill="white" r="0.3599999912" /><circle cx="29.862991396" cy="65.859447209" fill="white" r="0.3599999912" /><circle cx="26.064566292" cy="72.726376175" fill="white" r="0.3599999912" /><circle cx="26.064566292" cy="65.859447209" fill="white" r="0.3599999912" /><circle cx="26.064566292" cy="72.726376175" fill="white" r="0.3599999912" /><circle cx="23.446062419" cy="65.859447209" fill="white" r="0.3599999912" /><circle cx="20.827558546" cy="72.726376175" fill="white" r="0.3599999912" /><circle cx="23.446062419" cy="65.859447209" fill="white" r="0.3599999912" /><circle cx="20.827558546" cy="72.726376175" fill="white" r="0.3599999912" /><circle cx="20.827558546" cy="65.859447209" fill="white" r="0.3599999912" /><circle cx="18.010629481000002" cy="72.726376175" fill="white" r="0.3599999912" /><circle cx="14.410629569000001" cy="72.726376175" fill="white" r="0.3599999912" /><circle cx="16.373621647" cy="70.104328995" fill="white" r="0.3599999912" /><circle cx="15.392125608" cy="70.104328995" fill="white" r="0.3599999912" /><circle cx="14.743700426999998" cy="69.78188805799999" fill="white" r="0.3599999912" /><circle cx="14.410629569000001" cy="69.45944712100001" fill="white" r="0.3599999912" /><circle cx="14.088188632" cy="68.467321161" fill="white" r="0.3599999912" /><circle cx="14.088188632" cy="67.81889598000001" fill="white" r="0.3599999912" /><circle cx="14.410629569000001" cy="66.837399941" fill="white" r="0.3599999912" /><circle cx="15.066141364" cy="66.181888146" fill="white" r="0.3599999912" /><circle cx="16.047637403" cy="65.859447209" fill="white" r="0.3599999912" /><circle cx="17.029133442" cy="65.859447209" fill="white" r="0.3599999912" /><circle cx="18.010629481000002" cy="66.181888146" fill="white" r="0.3599999912" /><circle cx="18.343700338999998" cy="66.50432908299999" fill="white" r="0.3599999912" /><circle cx="18.666141275999998" cy="67.163384185" fill="white" r="0.3599999912" /><circle cx="41.509841505" cy="83.35275386800001" fill="white" r="0.3599999912" /><circle cx="41.509841505" cy="76.48582490199999" fill="white" r="0.3599999912" /><circle cx="41.509841505" cy="83.35275386800001" fill="white" r="0.3599999912" /><circle cx="38.565353388" cy="83.35275386800001" fill="white" r="0.3599999912" /><circle cx="37.587400656" cy="83.030312931" fill="white" r="0.3599999912" /><circle cx="37.254329798" cy="82.704328687" fill="white" r="0.3599999912" /><circle cx="36.928345554" cy="82.04881689199999" fill="white" r="0.3599999912" /><circle cx="36.928345554" cy="81.067320853" fill="white" r="0.3599999912" /><circle cx="37.254329798" cy="80.411809058" fill="white" r="0.3599999912" /><circle cx="37.587400656" cy="80.085824814" fill="white" r="0.3599999912" /><circle cx="38.565353388" cy="79.75275395599999" fill="white" r="0.3599999912" /><circle cx="41.509841505" cy="79.75275395599999" fill="white" r="0.3599999912" /><circle cx="34.770471591" cy="83.35275386800001" fill="white" r="0.3599999912" /><circle cx="33.12992045" cy="76.48582490199999" fill="white" r="0.3599999912" /><circle cx="31.492912615999998" cy="83.35275386800001" fill="white" r="0.3599999912" /><circle cx="33.12992045" cy="76.48582490199999" fill="white" r="0.3599999912" /><circle cx="31.492912615999998" cy="83.35275386800001" fill="white" r="0.3599999912" /><circle cx="29.862991396" cy="76.48582490199999" fill="white" r="0.3599999912" /><circle cx="28.225983562" cy="83.35275386800001" fill="white" r="0.3599999912" /><circle cx="29.862991396" cy="76.48582490199999" fill="white" r="0.3599999912" /><circle cx="26.064566292" cy="83.35275386800001" fill="white" r="0.3599999912" /><circle cx="26.064566292" cy="76.48582490199999" fill="white" r="0.3599999912" /><circle cx="26.064566292" cy="83.35275386800001" fill="white" r="0.3599999912" /><circle cx="23.446062419" cy="76.48582490199999" fill="white" r="0.3599999912" /><circle cx="20.827558546" cy="83.35275386800001" fill="white" r="0.3599999912" /><circle cx="23.446062419" cy="76.48582490199999" fill="white" r="0.3599999912" /><circle cx="20.827558546" cy="83.35275386800001" fill="white" r="0.3599999912" /><circle cx="20.827558546" cy="76.48582490199999" fill="white" r="0.3599999912" /><circle cx="18.343700338999998" cy="81.72637595500001" fill="white" r="0.3599999912" /><circle cx="18.343700338999998" cy="82.04881689199999" fill="white" r="0.3599999912" /><circle cx="18.010629481000002" cy="82.704328687" fill="white" r="0.3599999912" /><circle cx="17.688188544" cy="83.030312931" fill="white" r="0.3599999912" /><circle cx="17.029133442" cy="83.35275386800001" fill="white" r="0.3599999912" /><circle cx="15.725196465999998" cy="83.35275386800001" fill="white" r="0.3599999912" /><circle cx="15.066141364" cy="83.030312931" fill="white" r="0.3599999912" /><circle cx="14.743700426999998" cy="82.704328687" fill="white" r="0.3599999912" /><circle cx="14.410629569000001" cy="82.04881689199999" fill="white" r="0.3599999912" /><circle cx="14.410629569000001" cy="81.393305097" fill="white" r="0.3599999912" /><circle cx="14.743700426999998" cy="80.734249995" fill="white" r="0.3599999912" /><circle cx="15.392125608" cy="79.75275395599999" fill="white" r="0.3599999912" /><circle cx="18.666141275999998" cy="76.48582490199999" fill="white" r="0.3599999912" /><circle cx="14.088188632" cy="76.48582490199999" fill="white" r="0.3599999912" /><circle cx="41.509841505" cy="93.982674868" fill="white" r="0.3599999912" /><circle cx="41.509841505" cy="87.115745902" fill="white" r="0.3599999912" /><circle cx="41.509841505" cy="93.982674868" fill="white" r="0.3599999912" /><circle cx="38.565353388" cy="93.982674868" fill="white" r="0.3599999912" /><circle cx="37.587400656" cy="93.660233931" fill="white" r="0.3599999912" /><circle cx="37.254329798" cy="93.33424968700001" fill="white" r="0.3599999912" /><circle cx="36.928345554" cy="92.678737892" fill="white" r="0.3599999912" /><circle cx="36.928345554" cy="91.69724185300001" fill="white" r="0.3599999912" /><circle cx="37.254329798" cy="91.038186751" fill="white" r="0.3599999912" /><circle cx="37.587400656" cy="90.715745814" fill="white" r="0.3599999912" /><circle cx="38.565353388" cy="90.382674956" fill="white" r="0.3599999912" /><circle cx="41.509841505" cy="90.382674956" fill="white" r="0.3599999912" /><circle cx="34.770471591" cy="93.982674868" fill="white" r="0.3599999912" /><circle cx="33.12992045" cy="87.115745902" fill="white" r="0.3599999912" /><circle cx="31.492912615999998" cy="93.982674868" fill="white" r="0.3599999912" /><circle cx="33.12992045" cy="87.115745902" fill="white" r="0.3599999912" /><circle cx="31.492912615999998" cy="93.982674868" fill="white" r="0.3599999912" /><circle cx="29.862991396" cy="87.115745902" fill="white" r="0.3599999912" /><circle cx="28.225983562" cy="93.982674868" fill="white" r="0.3599999912" /><circle cx="29.862991396" cy="87.115745902" fill="white" r="0.3599999912" /><circle cx="26.064566292" cy="93.982674868" fill="white" r="0.3599999912" /><circle cx="26.064566292" cy="87.115745902" fill="white" r="0.3599999912" /><circle cx="26.064566292" cy="93.982674868" fill="white" r="0.3599999912" /><circle cx="23.446062419" cy="87.115745902" fill="white" r="0.3599999912" /><circle cx="20.827558546" cy="93.982674868" fill="white" r="0.3599999912" /><circle cx="23.446062419" cy="87.115745902" fill="white" r="0.3599999912" /><circle cx="20.827558546" cy="93.982674868" fill="white" r="0.3599999912" /><circle cx="20.827558546" cy="87.115745902" fill="white" r="0.3599999912" /><circle cx="18.666141275999998" cy="92.678737892" fill="white" r="0.3599999912" /><circle cx="18.010629481000002" cy="93.001178829" fill="white" r="0.3599999912" /><circle cx="17.029133442" cy="93.982674868" fill="white" r="0.3599999912" /><circle cx="17.029133442" cy="87.115745902" fill="white" r="0.3599999912" /><path d="M29.519290617,49.829526341000005L29.841731554000003,50.485038136L30.500786656000002,51.144093237999996L31.156298450999998,51.466534175L32.460235427,51.466534175L33.119290529,51.144093237999996L33.76771571,50.485038136L34.100786568000004,49.829526341000005L34.423227505,48.848030302L34.423227505,47.211022467999996L34.100786568000004,46.229526429L33.76771571,45.570471327L33.119290529,44.922046146L32.460235427,44.588975288L31.156298450999998,44.588975288L30.500786656000002,44.922046146L29.841731554000003,45.570471327L29.519290617,46.229526429L29.519290617,47.211022467999996M31.156298450999998,47.211022467999996L29.519290617,47.211022467999996M27.357873347,51.466534175L27.357873347,44.588975288M27.357873347,51.466534175L22.776377396,44.588975288M22.776377396,51.466534175L22.776377396,44.588975288M20.618503433,51.466534175L20.618503433,44.588975288M20.618503433,51.466534175L18.322440497000002,51.466534175L17.340944458,51.144093237999996L16.685432663,50.485038136L16.359448419,49.829526341000005L16.037007482,48.848030302L16.037007482,47.211022467999996L16.359448419,46.229526429L16.685432663,45.570471327L17.340944458,44.922046146L18.322440497000002,44.588975288L20.618503433,44.588975288M23.414172655999998,62.096455174999996L26.68110171,62.096455174999996L27.014172568,59.151967058L26.68110171,59.477951302L25.699605671,59.81102215999999L24.718109632,59.81102215999999L23.736613592999998,59.477951302L23.081101798000002,58.818896200000005L22.755117553999998,57.837400161L22.755117553999998,57.188974980000005L23.081101798000002,56.211022248L23.736613592999998,55.551967146L24.718109632,55.218896287999996L25.699605671,55.218896287999996L26.68110171,55.551967146L27.014172568,55.87795139L27.336613505,56.533463185M20.597243590999998,62.096455174999996L17.975196411000002,55.218896287999996M15.356692537999999,62.096455174999996L17.975196411000002,55.218896287999996M41.509841505,72.726376175L41.509841505,65.859447209M41.509841505,72.726376175L38.565353388,72.726376175L37.587400656,72.400391931L37.254329798,72.06732107299999L36.928345554,71.418895892L36.928345554,70.437399853L37.254329798,69.78188805799999L37.587400656,69.45944712100001L38.565353388,69.126376263L41.509841505,69.126376263M34.770471591,72.726376175L33.12992045,65.859447209M31.492912615999998,72.726376175L33.12992045,65.859447209M31.492912615999998,72.726376175L29.862991396,65.859447209M28.225983562,72.726376175L29.862991396,65.859447209M26.064566292,72.726376175L26.064566292,65.859447209M26.064566292,72.726376175L23.446062419,65.859447209M20.827558546,72.726376175L23.446062419,65.859447209M20.827558546,72.726376175L20.827558546,65.859447209M18.010629481000002,72.726376175L14.410629569000001,72.726376175L16.373621647,70.104328995L15.392125608,70.104328995L14.743700426999998,69.78188805799999L14.410629569000001,69.45944712100001L14.088188632,68.467321161L14.088188632,67.81889598000001L14.410629569000001,66.837399941L15.066141364,66.181888146L16.047637403,65.859447209L17.029133442,65.859447209L18.010629481000002,66.181888146L18.343700338999998,66.50432908299999L18.666141275999998,67.163384185M41.509841505,83.35275386800001L41.509841505,76.48582490199999M41.509841505,83.35275386800001L38.565353388,83.35275386800001L37.587400656,83.030312931L37.254329798,82.704328687L36.928345554,82.04881689199999L36.928345554,81.067320853L37.254329798,80.411809058L37.587400656,80.085824814L38.565353388,79.75275395599999L41.509841505,79.75275395599999M34.770471591,83.35275386800001L33.12992045,76.48582490199999M31.492912615999998,83.35275386800001L33.12992045,76.48582490199999M31.492912615999998,83.35275386800001L29.862991396,76.48582490199999M28.225983562,83.35275386800001L29.862991396,76.48582490199999M26.064566292,83.35275386800001L26.064566292,76.48582490199999M26.064566292,83.35275386800001L23.446062419,76.48582490199999M20.827558546,83.35275386800001L23.446062419,76.48582490199999M20.827558546,83.35275386800001L20.827558546,76.48582490199999M18.343700338999998,81.72637595500001L18.343700338999998,82.04881689199999L18.010629481000002,82.704328687L17.688188544,83.030312931L17.029133442,83.35275386800001L15.725196465999998,83.35275386800001L15.066141364,83.030312931L14.743700426999998,82.704328687L14.410629569000001,82.04881689199999L14.410629569000001,81.393305097L14.743700426999998,80.734249995L15.392125608,79.75275395599999L18.666141275999998,76.48582490199999L14.088188632,76.48582490199999M41.509841505,93.982674868L41.509841505,87.115745902M41.509841505,93.982674868L38.565353388,93.982674868L37.587400656,93.660233931L37.254329798,93.33424968700001L36.928345554,92.678737892L36.928345554,91.69724185300001L37.254329798,91.038186751L37.587400656,90.715745814L38.565353388,90.382674956L41.509841505,90.382674956M34.770471591,93.982674868L33.12992045,87.115745902M31.492912615999998,93.982674868L33.12992045,87.115745902M31.492912615999998,93.982674868L29.862991396,87.115745902M28.225983562,93.982674868L29.862991396,87.115745902M26.064566292,93.982674868L26.064566292,87.115745902M26.064566292,93.982674868L23.446062419,87.115745902M20.827558546,93.982674868L23.446062419,87.115745902M20.827558546,93.982674868L20.827558546,87.115745902M18.666141275999998,92.678737892L18.010629481000002,93.001178829L17.029133442,93.982674868L17.029133442,87.115745902" fill="none" stroke="white" stroke-width="0.7199999824" /><circle cx="65.88779366499999" cy="62.390549656000005" fill="black" r="0.5403543175" /><circle cx="19.799999516" cy="75.752360353" fill="black" r="0.5403543175" /><circle cx="65.88779366499999" cy="57.89054976600001" fill="black" r="0.5403543175" /><circle cx="80.486218505" cy="65.459053518" fill="black" r="0.5403543175" /><circle cx="94.949997679" cy="59.552360748999995" fill="black" r="0.5403543175" /><circle cx="77.949210693" cy="85.039368" fill="black" r="0.5403543175" /><circle cx="16.710235812" cy="44.202754825" fill="black" r="0.5403543175" /><circle cx="19.087794809" cy="52.940549887" fill="black" r="0.5403543175" /><circle cx="8.737795062" cy="90.294092281" fill="black" r="2.1242125465" /><circle cx="8.737795062" cy="79.494092545" fill="black" r="2.1242125465" /><circle cx="8.737795062" cy="68.694092809" fill="black" r="2.1242125465" /><circle cx="8.737795062" cy="58.344093062000006" fill="black" r="2.1242125465" /><circle cx="8.737795062" cy="47.544093325999995" fill="black" r="2.1242125465" /><circle cx="45.056691812" cy="8.766141518000001" fill="black" r="2.9055117399999997" /><circle cx="59.229919812000006" cy="8.766141518000001" fill="black" r="2.9055117399999997" /><circle cx="105.292910812" cy="26.482676518" fill="black" r="2.9055117399999997" /><circle cx="91.11968281200001" cy="26.482676518" fill="black" r="2.9055117399999997" /><circle cx="76.946454812" cy="26.482676518" fill="black" r="2.9055117399999997" /></svg>