<?xml version="1.0" encoding="utf-8" ?>
<svg baseProfile="full" height="100%" version="1.1" width="100%" xmlns="http://www.w3.org/2000/svg" xmlns:ev="http://www.w3.org/2001/xml-events" xmlns:xlink="http://www.w3.org/1999/xlink"><defs /><rect fill="#2ea64e" height="102.75235969299999" width="113.385824" x="0" y="0" /><circle cx="8.737795062" cy="90.290548974" fill="darkgreen" r="0.449999989" /><circle cx="17.549999571" cy="81.478344465" fill="darkgreen" r="0.449999989" /><circle cx="17.549999571" cy="65.72834485" fill="darkgreen" r="0.449999989" /><circle cx="20.887794765" cy="62.390549656000005" fill="darkgreen" r="0.449999989" /><circle cx="25.217715919" cy="62.252360683" fill="darkgreen" r="0.449999989" /><circle cx="71.98582501199999" cy="89.252360023" fill="darkgreen" r="0.449999989" /><circle cx="71.98582501199999" cy="89.252360023" fill="darkgreen" r="0.449999989" /><circle cx="71.98582501199999" cy="84.752360133" fill="darkgreen" r="0.449999989" /><circle cx="25.214172612" cy="89.252360023" fill="darkgreen" r="0.449999989" /><circle cx="25.210629305" cy="84.752360133" fill="darkgreen" r="0.449999989" /><circle cx="8.737795062" cy="47.540550019" fill="darkgreen" r="0.449999989" /><circle cx="9.946062749" cy="48.752361013" fill="darkgreen" r="0.449999989" /><circle cx="25.214172612" cy="48.752361013" fill="darkgreen" r="0.449999989" /><circle cx="18.141731840000002" cy="57.752360793" fill="darkgreen" r="0.449999989" /><circle cx="18.141731840000002" cy="57.752360793" fill="darkgreen" r="0.449999989" /><circle cx="25.214172612" cy="57.752360793" fill="darkgreen" r="0.449999989" /><circle cx="65.88779366499999" cy="62.390549656000005" fill="darkgreen" r="0.449999989" /><circle cx="66.025982638" cy="62.252360683" fill="darkgreen" r="0.449999989" /><circle cx="71.98582501199999" cy="62.252360683" fill="darkgreen" r="0.449999989" /><circle cx="19.799999516" cy="75.752360353" fill="darkgreen" r="0.449999989" /><circle cx="19.799999516" cy="75.752360353" fill="darkgreen" r="0.449999989" /><circle cx="25.214172612" cy="75.752360353" fill="darkgreen" r="0.449999989" /><circle cx="18.141731840000002" cy="57.752360793" fill="darkgreen" r="0.449999989" /><circle cx="17.553542878" cy="58.340549755" fill="darkgreen" r="0.449999989" /><circle cx="8.737795062" cy="58.340549755" fill="darkgreen" r="0.449999989" /><circle cx="65.88779366499999" cy="57.89054976600001" fill="darkgreen" r="0.449999989" /><circle cx="66.022439331" cy="57.7559041" fill="darkgreen" r="0.449999989" /><circle cx="71.989368319" cy="57.7559041" fill="darkgreen" r="0.449999989" /><circle cx="25.214172612" cy="57.752360793" fill="darkgreen" r="0.449999989" /><circle cx="25.214172612" cy="57.752360793" fill="darkgreen" r="0.449999989" /><circle cx="24.594093887" cy="58.372439518" fill="darkgreen" r="0.449999989" /><circle cx="65.88779366499999" cy="57.89054976600001" fill="darkgreen" r="0.449999989" /><circle cx="65.88779366499999" cy="57.89054976600001" fill="darkgreen" r="0.449999989" /><circle cx="62.549998470999995" cy="61.22834496" fill="darkgreen" r="0.449999989" /><circle cx="62.549998470999995" cy="99.20905269299999" fill="darkgreen" r="0.449999989" /><circle cx="30.337794533999997" cy="99.20905269299999" fill="darkgreen" r="0.449999989" /><circle cx="30.337794533999997" cy="80.390549216" fill="darkgreen" r="0.449999989" /><circle cx="25.217715919" cy="80.252360243" fill="darkgreen" r="0.449999989" /><path d="M8.737795062,90.290548974L17.549999571,81.478344465L17.549999571,65.72834485L20.887794765,62.390549656000005L25.217715919,62.252360683M71.98582501199999,89.252360023L71.98582501199999,84.752360133M25.214172612,89.252360023L25.210629305,84.752360133M8.737795062,47.540550019L9.946062749,48.752361013L25.214172612,48.752361013M18.141731840000002,57.752360793L25.214172612,57.752360793M65.88779366499999,62.390549656000005L66.025982638,62.252360683L71.98582501199999,62.252360683M19.799999516,75.752360353L19.799999516,75.752360353L25.214172612,75.752360353M18.141731840000002,57.752360793L17.553542878,58.340549755L8.737795062,58.340549755M65.88779366499999,57.89054976600001L66.022439331,57.7559041L71.989368319,57.7559041M25.214172612,57.752360793L24.594093887,58.372439518M65.88779366499999,57.89054976600001L62.549998470999995,61.22834496L62.549998470999995,99.20905269299999L30.337794533999997,99.20905269299999L30.337794533999997,80.390549216L25.217715919,80.252360243" fill="none" stroke="darkgreen" stroke-width="0.899999978" /><circle cx="25.214172612" cy="66.75236057299999" fill="darkgreen" r="1.0629903283464999" /><circle cx="29.249999285" cy="66.75236057299999" fill="darkgreen" r="1.0629903283464999" /><circle cx="31.049999241" cy="64.952360617" fill="darkgreen" r="1.0629903283464999" /><circle cx="31.049999241" cy="33.452361387" fill="darkgreen" r="1.0629903283464999" /><circle cx="38.01968411" cy="26.482676518" fill="darkgreen" r="1.0629903283464999" /><circle cx="76.942911505" cy="26.482676518" fill="darkgreen" r="1.0629903283464999" /><circle cx="98.493304679" cy="47.746061825" fill="darkgreen" r="1.0629903283464999" /><circle cx="105.72873757299999" cy="47.79921143" fill="darkgreen" r="1.0629903283464999" /><circle cx="108.836217812" cy="50.906691669000004" fill="darkgreen" r="1.0629903283464999" /><circle cx="108.836217812" cy="79.632281518" fill="darkgreen" r="1.0629903283464999" /><circle cx="102.309446318" cy="83.179131825" fill="darkgreen" r="1.0629903283464999" /><circle cx="25.217715919" cy="71.252360463" fill="darkgreen" r="1.0629903283464999" /><circle cx="32.407085822000006" cy="71.252360463" fill="darkgreen" r="1.0629903283464999" /><circle cx="34.387794435" cy="69.275195157" fill="darkgreen" r="1.0629903283464999" /><circle cx="34.387794435" cy="40.411416335" fill="darkgreen" r="1.0629903283464999" /><circle cx="37.690156559" cy="37.109054211" fill="darkgreen" r="1.0629903283464999" /><circle cx="80.493305119" cy="37.109054211" fill="darkgreen" r="1.0629903283464999" /><circle cx="91.11259619799999" cy="26.489763132" fill="darkgreen" r="1.0629903283464999" /><circle cx="71.98582501199999" cy="53.252360902999996" fill="darkgreen" r="1.0629903283464999" /><circle cx="71.98582501199999" cy="53.252360902999996" fill="darkgreen" r="1.0629903283464999" /><circle cx="77.952754" cy="53.146061693" fill="darkgreen" r="1.0629903283464999" /><circle cx="83.466139692" cy="47.742518518" fill="darkgreen" r="1.0629903283464999" /><circle cx="77.952754" cy="85.039368" fill="darkgreen" r="1.0629903283464999" /><circle cx="77.665746133" cy="84.752360133" fill="darkgreen" r="1.0629903283464999" /><circle cx="71.98582501199999" cy="84.752360133" fill="darkgreen" r="1.0629903283464999" /><circle cx="71.98582501199999" cy="66.75236057299999" fill="darkgreen" r="1.0629903283464999" /><circle cx="71.98582501199999" cy="66.75236057299999" fill="darkgreen" r="1.0629903283464999" /><circle cx="79.196454757" cy="66.75236057299999" fill="darkgreen" r="1.0629903283464999" /><circle cx="80.489761812" cy="65.459053518" fill="darkgreen" r="1.0629903283464999" /><circle cx="71.98582501199999" cy="71.21338408599999" fill="darkgreen" r="1.0629903283464999" /><circle cx="72.124013985" cy="71.071651806" fill="darkgreen" r="1.0629903283464999" /><circle cx="89.099997822" cy="71.071651806" fill="darkgreen" r="1.0629903283464999" /><circle cx="84.03306881200001" cy="97.348816518" fill="darkgreen" r="1.0629903283464999" /><circle cx="87.278738024" cy="94.099603999" fill="darkgreen" r="1.0629903283464999" /><circle cx="87.278738024" cy="83.175588518" fill="darkgreen" r="1.0629903283464999" /><circle cx="71.989368319" cy="80.25590355" fill="darkgreen" r="1.0629903283464999" /><circle cx="87.278738024" cy="80.25590355" fill="darkgreen" r="1.0629903283464999" /><circle cx="87.278738024" cy="83.172045211" fill="darkgreen" r="1.0629903283464999" /><circle cx="71.98582501199999" cy="89.252360023" fill="darkgreen" r="1.0629903283464999" /><circle cx="76.946454812" cy="94.212989823" fill="darkgreen" r="1.0629903283464999" /><circle cx="76.946454812" cy="97.348816518" fill="darkgreen" r="1.0629903283464999" /><circle cx="89.099997822" cy="59.733069406" fill="darkgreen" r="1.0629903283464999" /><circle cx="89.277163172" cy="59.552360748999995" fill="darkgreen" r="1.0629903283464999" /><circle cx="94.949997679" cy="59.552360748999995" fill="darkgreen" r="1.0629903283464999" /><circle cx="26.627952105" cy="15.849212211" fill="darkgreen" r="1.0629903283464999" /><circle cx="34.423227505" cy="15.849212211" fill="darkgreen" r="1.0629903283464999" /><circle cx="37.970077812" cy="19.396062518" fill="darkgreen" r="1.0629903283464999" /><circle cx="53.656297901" cy="19.396062518" fill="darkgreen" r="1.0629903283464999" /><circle cx="59.226376505" cy="13.825983914" fill="darkgreen" r="1.0629903283464999" /><circle cx="59.226376505" cy="8.766141518000001" fill="darkgreen" r="1.0629903283464999" /><circle cx="20.253542812" cy="37.112597518" fill="darkgreen" r="1.0629903283464999" /><circle cx="26.631495412" cy="30.734644917999997" fill="darkgreen" r="1.0629903283464999" /><circle cx="26.631495412" cy="15.852755518" fill="darkgreen" r="1.0629903283464999" /><circle cx="20.253542812" cy="37.112597518" fill="darkgreen" r="1.0629903283464999" /><circle cx="25.214172612" cy="42.073227318" fill="darkgreen" r="1.0629903283464999" /><circle cx="25.214172612" cy="48.752361013" fill="darkgreen" r="1.0629903283464999" /><circle cx="71.978738398" cy="75.752360353" fill="darkgreen" r="1.0629903283464999" /><circle cx="71.978738398" cy="75.752360353" fill="darkgreen" r="1.0629903283464999" /><circle cx="95.074013424" cy="75.752360353" fill="darkgreen" r="1.0629903283464999" /><circle cx="101.75314711899999" cy="68.651573125" fill="darkgreen" r="1.0629903283464999" /><circle cx="98.49684798599999" cy="47.742518518" fill="darkgreen" r="1.0629903283464999" /><circle cx="98.49684798599999" cy="47.742518518" fill="darkgreen" r="1.0629903283464999" /><circle cx="101.749603812" cy="50.991731037" fill="darkgreen" r="1.0629903283464999" /><circle cx="101.749603812" cy="62.270077218000004" fill="darkgreen" r="1.0629903283464999" /><circle cx="6.785432905" cy="15.852755518" fill="darkgreen" r="1.0629903283464999" /><circle cx="13.872046905" cy="8.766141518000001" fill="darkgreen" r="1.0629903283464999" /><circle cx="45.053148504999996" cy="8.766141518000001" fill="darkgreen" r="1.0629903283464999" /><circle cx="19.087794809" cy="52.940549887" fill="darkgreen" r="1.0629903283464999" /><circle cx="19.396062518" cy="53.252360902999996" fill="darkgreen" r="1.0629903283464999" /><circle cx="25.214172612" cy="53.252360902999996" fill="darkgreen" r="1.0629903283464999" /><circle cx="13.166928812" cy="37.112597518" fill="darkgreen" r="1.0629903283464999" /><circle cx="13.166928812" cy="40.655904518" fill="darkgreen" r="1.0629903283464999" /><circle cx="16.710235812" cy="44.202754825" fill="darkgreen" r="1.0629903283464999" /><circle cx="13.166928812" cy="37.112597518" fill="darkgreen" r="1.0629903283464999" /><circle cx="6.785432905" cy="30.734644917999997" fill="darkgreen" r="1.0629903283464999" /><circle cx="6.785432905" cy="15.852755518" fill="darkgreen" r="1.0629903283464999" /><path d="M25.214172612,66.75236057299999L29.249999285,66.75236057299999L31.049999241,64.952360617L31.049999241,33.452361387L38.01968411,26.482676518L76.942911505,26.482676518M98.493304679,47.746061825L105.72873757299999,47.79921143L108.836217812,50.906691669000004L108.836217812,79.632281518L102.309446318,83.179131825M25.217715919,71.252360463L32.407085822000006,71.252360463L34.387794435,69.275195157L34.387794435,40.411416335L37.690156559,37.109054211L80.493305119,37.109054211L91.11259619799999,26.489763132M71.98582501199999,53.252360902999996L77.952754,53.146061693L83.466139692,47.742518518M77.952754,85.039368L77.665746133,84.752360133L71.98582501199999,84.752360133M71.98582501199999,66.75236057299999L79.196454757,66.75236057299999L80.489761812,65.459053518M71.98582501199999,71.21338408599999L72.124013985,71.071651806L89.099997822,71.071651806M84.03306881200001,97.348816518L87.278738024,94.099603999L87.278738024,83.175588518M71.989368319,80.25590355L87.278738024,80.25590355L87.278738024,83.172045211M71.98582501199999,89.252360023L76.946454812,94.212989823L76.946454812,97.348816518M89.099997822,59.733069406L89.277163172,59.552360748999995L94.949997679,59.552360748999995M26.627952105,15.849212211L34.423227505,15.849212211L37.970077812,19.396062518L53.656297901,19.396062518L59.226376505,13.825983914L59.226376505,8.766141518000001M20.253542812,37.112597518L26.631495412,30.734644917999997L26.631495412,15.852755518M20.253542812,37.112597518L25.214172612,42.073227318L25.214172612,48.752361013M71.978738398,75.752360353L95.074013424,75.752360353L101.75314711899999,68.651573125M98.49684798599999,47.742518518L101.749603812,50.991731037L101.749603812,62.270077218000004M6.785432905,15.852755518L13.872046905,8.766141518000001L45.053148504999996,8.766141518000001M19.087794809,52.940549887L19.396062518,53.252360902999996L25.214172612,53.252360902999996M13.166928812,37.112597518L13.166928812,40.655904518L16.710235812,44.202754825M13.166928812,37.112597518L6.785432905,30.734644917999997L6.785432905,15.852755518" fill="none" stroke="darkgreen" stroke-width="2.1259806566929997" /><circle cx="65.88779366499999" cy="62.390549656000005" fill="darkgreen" r="1.080719264921" /><circle cx="19.799999516" cy="75.752360353" fill="darkgreen" r="1.0799999736" /><circle cx="65.88779366499999" cy="57.89054976600001" fill="darkgreen" r="1.0799999736" /><circle cx="80.486218505" cy="65.459053518" fill="darkgreen" r="1.0799999736" /><circle cx="94.949997679" cy="59.552360748999995" fill="darkgreen" r="1.0799999736" /><circle cx="77.949210693" cy="85.039368" fill="darkgreen" r="1.0799999736" /><circle cx="16.710235812" cy="44.202754825" fill="darkgreen" r="1.0799999736" /><circle cx="19.087794809" cy="52.940549887" fill="darkgreen" r="1.0799999736" /><rect fill="darkgreen" height="2.249999945" width="7.086599826772001" x="21.670872698613998" y="88.12736005049999" /><rect fill="darkgreen" height="2.249999945" width="7.086599826772001" x="21.670872698613998" y="83.62736016049999" /><rect fill="darkgreen" height="2.249999945" width="7.086599826772001" x="21.670872698613998" y="79.12736027049999" /><rect fill="darkgreen" height="2.249999945" width="7.086599826772001" x="21.670872698613998" y="74.6273603805" /><rect fill="darkgreen" height="2.249999945" width="7.086599826772001" x="21.670872698613998" y="70.1273604905" /><rect fill="darkgreen" height="2.249999945" width="7.086599826772001" x="21.670872698613998" y="65.62736060049998" /><rect fill="darkgreen" height="2.249999945" width="7.086599826772001" x="21.670872698613998" y="61.1273607105" /><rect fill="darkgreen" height="2.249999945" width="7.086599826772001" x="21.670872698613998" y="56.6273608205" /><rect fill="darkgreen" height="2.249999945" width="7.086599826772001" x="21.670872698613998" y="52.1273609305" /><rect fill="darkgreen" height="2.249999945" width="7.086599826772001" x="21.670872698613998" y="47.6273610405" /><rect fill="darkgreen" height="2.249999945" width="7.086599826772001" x="68.43898179161401" y="47.6273610405" /><rect fill="darkgreen" height="2.249999945" width="7.086599826772001" x="68.43898179161401" y="52.1273609305" /><rect fill="darkgreen" height="2.249999945" width="7.086599826772001" x="68.43898179161401" y="56.6273608205" /><rect fill="darkgreen" height="2.249999945" width="7.086599826772001" x="68.43898179161401" y="61.1273607105" /><rect fill="darkgreen" height="2.249999945" width="7.086599826772001" x="68.43898179161401" y="65.62736060049998" /><rect fill="darkgreen" height="2.249999945" width="7.086599826772001" x="68.43898179161401" y="70.1273604905" /><rect fill="darkgreen" height="2.249999945" width="7.086599826772001" x="68.43898179161401" y="74.6273603805" /><rect fill="darkgreen" height="2.249999945" width="7.086599826772001" x="68.43898179161401" y="79.12736027049999" /><rect fill="darkgreen" height="2.249999945" width="7.086599826772001" x="68.43898179161401" y="83.62736016049999" /><rect fill="darkgreen" height="2.249999945" width="7.086599826772001" x="68.43898179161401" y="88.12736005049999" /><rect fill="darkgreen" height="56.338560040158" width="21.259799480316" x="37.97009907184199" y="40.833080497921" /><rect fill="darkgreen" height="3.5432999133860004" width="3.897630613386" x="99.797245198307" y="66.876379861307" /><rect fill="darkgreen" height="3.5432999133860004" width="3.897630613386" x="99.797245198307" y="60.49842726130701" /><rect fill="darkgreen" height="3.5432999133860004" width="10.629899740158" x="1.470483034921" y="14.084648868306997" /><rect fill="darkgreen" height="3.5432999133860004" width="10.629899740158" x="21.316545541921" y="14.084648868306997" /><rect fill="darkgreen" height="5.849999857" width="4.49999989" x="81.216139747" y="44.8210618965" /><rect fill="darkgreen" height="5.849999857" width="4.49999989" x="96.250391348" y="44.8210618965" /><rect fill="darkgreen" height="5.849999857" width="4.49999989" x="100.059446373" y="80.2505885895" /><rect fill="darkgreen" height="5.849999857" width="4.49999989" x="85.02873807900001" y="80.2505885895" /><rect fill="darkgreen" height="4.2519613133859995" width="6.732269126772" x="85.73386325861401" y="68.945671149307" /><rect fill="darkgreen" height="4.2519613133859995" width="6.732269126772" x="85.73386325861401" y="57.607088749306996" /><rect fill="darkgreen" height="5.492161283070001" width="3.5432999133860004" x="75.171261548307" y="94.602735876465" /><rect fill="darkgreen" height="5.492161283070001" width="3.5432999133860004" x="82.257875548307" y="94.602735876465" /><rect fill="darkgreen" height="5.492161283070001" width="3.5432999133860004" x="11.395278855307" y="34.37006018346499" /><rect fill="darkgreen" height="5.492161283070001" width="3.5432999133860004" x="18.481892855307" y="34.37006018346499" /><circle cx="6.966141562" cy="90.290548974" fill="darkgreen" r="3.5432999133860004" /><circle cx="10.509448562000001" cy="90.290548974" fill="darkgreen" r="3.5432999133860004" /><circle cx="6.966141562" cy="79.490549238" fill="darkgreen" r="3.5432999133860004" /><circle cx="10.509448562000001" cy="79.490549238" fill="darkgreen" r="3.5432999133860004" /><circle cx="6.966141562" cy="68.690549502" fill="darkgreen" r="3.5432999133860004" /><circle cx="10.509448562000001" cy="68.690549502" fill="darkgreen" r="3.5432999133860004" /><circle cx="6.966141562" cy="58.340549755" fill="darkgreen" r="3.5432999133860004" /><circle cx="10.509448562000001" cy="58.340549755" fill="darkgreen" r="3.5432999133860004" /><circle cx="6.966141562" cy="47.540550019" fill="darkgreen" r="3.5432999133860004" /><circle cx="10.509448562000001" cy="47.540550019" fill="darkgreen" r="3.5432999133860004" /><path d="M6.966141562,90.290548974L10.509448562000001,90.290548974M6.966141562,79.490549238L10.509448562000001,79.490549238M6.966141562,68.690549502L10.509448562000001,68.690549502M6.966141562,58.340549755L10.509448562000001,58.340549755M6.966141562,47.540550019L10.509448562000001,47.540550019" fill="none" stroke="darkgreen" stroke-width="7.086599826772001" /><circle cx="45.056691812" cy="10.537795018" fill="darkgreen" r="5.314949870079" /><circle cx="45.056691812" cy="6.994488018" fill="darkgreen" r="5.314949870079" /><circle cx="59.226376505" cy="10.537795018" fill="darkgreen" r="5.314949870079" /><circle cx="59.226376505" cy="6.994488018" fill="darkgreen" r="5.314949870079" /><circle cx="105.289367505" cy="28.254330018" fill="darkgreen" r="5.314949870079" /><circle cx="105.289367505" cy="24.711023018000002" fill="darkgreen" r="5.314949870079" /><circle cx="91.11613950499999" cy="28.254330018" fill="darkgreen" r="5.314949870079" /><circle cx="91.11613950499999" cy="24.711023018000002" fill="darkgreen" r="5.314949870079" /><circle cx="76.942911505" cy="28.254330018" fill="darkgreen" r="5.314949870079" /><circle cx="76.942911505" cy="24.711023018000002" fill="darkgreen" r="5.314949870079" /><path d="M45.056691812,10.537795018L45.056691812,6.994488018M59.226376505,10.537795018L59.226376505,6.994488018M105.289367505,28.254330018L105.289367505,24.711023018000002M91.11613950499999,28.254330018L91.11613950499999,24.711023018000002M76.942911505,28.254330018L76.942911505,24.711023018000002" fill="none" stroke="darkgreen" stroke-width="10.629899740158" /><path d="M21.309448298,87.76771439L21.309448298,90.74054896300001L29.111810311999996,90.74054896300001L29.111810311999996,87.76771439L21.309448298,87.76771439" fill="grey" stroke="none" /><path d="M21.309448298,83.2677145L21.309448298,86.240549073L29.111810311999996,86.240549073L29.111810311999996,83.2677145L21.309448298,83.2677145" fill="grey" stroke="none" /><path d="M21.309448298,78.76771461L21.309448298,81.740549183L29.111810311999996,81.740549183L29.111810311999996,78.76771461L21.309448298,78.76771461" fill="grey" stroke="none" /><path d="M21.309448298,74.26771472L21.309448298,77.240549293L29.111810311999996,77.240549293L29.111810311999996,74.26771472L21.309448298,74.26771472" fill="grey" stroke="none" /><path d="M21.309448298,69.76771483L21.309448298,72.740549403L29.111810311999996,72.740549403L29.111810311999996,69.76771483L21.309448298,69.76771483" fill="grey" stroke="none" /><path d="M21.309448298,65.26771494L21.309448298,68.240549513L29.111810311999996,68.240549513L29.111810311999996,65.26771494L21.309448298,65.26771494" fill="grey" stroke="none" /><path d="M21.309448298,60.76771504999999L21.309448298,63.740549623L29.111810311999996,63.740549623L29.111810311999996,60.76771504999999L21.309448298,60.76771504999999" fill="grey" stroke="none" /><path d="M21.309448298,56.26771516L21.309448298,59.240549733L29.111810311999996,59.240549733L29.111810311999996,56.26771516L21.309448298,56.26771516" fill="grey" stroke="none" /><path d="M21.309448298,51.76771527L21.309448298,54.740549843L29.111810311999996,54.740549843L29.111810311999996,51.76771527L21.309448298,51.76771527" fill="grey" stroke="none" /><path d="M21.309448298,47.26771538L21.309448298,50.240549953L29.111810311999996,50.240549953L29.111810311999996,47.26771538L21.309448298,47.26771538" fill="grey" stroke="none" /><path d="M68.084644005,47.26771538L68.084644005,50.240549953L75.88700601900001,50.240549953L75.88700601900001,47.26771538L68.084644005,47.26771538" fill="grey" stroke="none" /><path d="M68.084644005,51.76771527L68.084644005,54.740549843L75.88700601900001,54.740549843L75.88700601900001,51.76771527L68.084644005,51.76771527" fill="grey" stroke="none" /><path d="M68.084644005,56.26771516L68.084644005,59.240549733L75.88700601900001,59.240549733L75.88700601900001,56.26771516L68.084644005,56.26771516" fill="grey" stroke="none" /><path d="M68.084644005,60.76771504999999L68.084644005,63.740549623L75.88700601900001,63.740549623L75.88700601900001,60.76771504999999L68.084644005,60.76771504999999" fill="grey" stroke="none" /><path d="M68.084644005,65.26771494L68.084644005,68.240549513L75.88700601900001,68.240549513L75.88700601900001,65.26771494L68.084644005,65.26771494" fill="grey" stroke="none" /><path d="M68.084644005,69.76771483L68.084644005,72.740549403L75.88700601900001,72.740549403L75.88700601900001,69.76771483L68.084644005,69.76771483" fill="grey" stroke="none" /><path d="M68.084644005,74.26771472L68.084644005,77.240549293L75.88700601900001,77.240549293L75.88700601900001,74.26771472L68.084644005,74.26771472" fill="grey" stroke="none" /><path d="M68.084644005,78.76771461L68.084644005,81.740549183L75.88700601900001,81.740549183L75.88700601900001,78.76771461L68.084644005,78.76771461" fill="grey" stroke="none" /><path d="M68.084644005,83.2677145L68.084644005,86.240549073L75.88700601900001,86.240549073L75.88700601900001,83.2677145L68.084644005,83.2677145" fill="grey" stroke="none" /><path d="M68.084644005,87.76771439L68.084644005,90.74054896300001L75.88700601900001,90.74054896300001L75.88700601900001,87.76771439L68.084644005,87.76771439" fill="grey" stroke="none" /><path d="M99.439367648,66.51850231099999L99.439367648,70.777557325L104.056296669,70.777557325L104.056296669,66.51850231099999L99.439367648,66.51850231099999" fill="grey" stroke="none" /><path d="M99.439367648,60.140549711L99.439367648,64.406691339L104.056296669,64.406691339L104.056296669,60.140549711L99.439367648,60.140549711" fill="grey" stroke="none" /><path d="M1.112598398,13.726771318L1.112598398,17.982283025L12.461810718999999,17.982283025L12.461810718999999,13.726771318L1.112598398,13.726771318" fill="grey" stroke="none" /><path d="M20.958660905,13.726771318L20.958660905,17.982283025L32.307873226,17.982283025L32.307873226,13.726771318L20.958660905,13.726771318" fill="grey" stroke="none" /><path d="M80.85472243299999,44.461416236L80.85472243299999,51.030707414L86.074013644,51.030707414L86.074013644,44.461416236L80.85472243299999,44.461416236" fill="grey" stroke="none" /><path d="M95.885430727,44.461416236L95.885430727,51.030707414L101.104721938,51.030707414L101.104721938,44.461416236L95.885430727,44.461416236" fill="grey" stroke="none" /><path d="M99.70157236600001,79.89448623599999L99.70157236600001,86.463777414L104.920863577,86.463777414L104.920863577,79.89448623599999L99.70157236600001,79.89448623599999" fill="grey" stroke="none" /><path d="M84.670864072,79.89448623599999L84.670864072,86.463777414L89.890155283,86.463777414L89.890155283,79.89448623599999L84.670864072,79.89448623599999" fill="grey" stroke="none" /><path d="M85.37243885800001,68.591336906L85.37243885800001,73.55905332L92.824013479,73.55905332L92.824013479,68.591336906L85.37243885800001,68.591336906" fill="grey" stroke="none" /><path d="M85.37243885800001,57.249211199L85.37243885800001,62.216927613L92.824013479,62.216927613L92.824013479,57.249211199L85.37243885800001,57.249211199" fill="grey" stroke="none" /><path d="M74.816927305,94.24133627900001L74.816927305,100.459840064L79.07243901199999,100.459840064L79.07243901199999,94.24133627900001L74.816927305,94.24133627900001" fill="grey" stroke="none" /><path d="M81.899997998,94.24133627900001L81.899997998,100.459840064L86.162596319,100.459840064L86.162596319,94.24133627900001L81.899997998,94.24133627900001" fill="grey" stroke="none" /><path d="M11.033857998,34.012203893L11.033857998,40.223621064L15.299999625999998,40.223621064L15.299999625999998,34.012203893L11.033857998,34.012203893" fill="grey" stroke="none" /><path d="M18.124015305,34.012203893L18.124015305,40.223621064L22.379527012,40.223621064L22.379527012,34.012203893L18.124015305,34.012203893" fill="grey" stroke="none" /><circle cx="6.966141562" cy="90.290548974" fill="grey" r="3.9032999045860004" /><circle cx="10.509448562000001" cy="90.290548974" fill="grey" r="3.9032999045860004" /><circle cx="6.966141562" cy="79.490549238" fill="grey" r="3.9032999045860004" /><circle cx="10.509448562000001" cy="79.490549238" fill="grey" r="3.9032999045860004" /><circle cx="6.966141562" cy="68.690549502" fill="grey" r="3.9032999045860004" /><circle cx="10.509448562000001" cy="68.690549502" fill="grey" r="3.9032999045860004" /><circle cx="6.966141562" cy="58.340549755" fill="grey" r="3.9032999045860004" /><circle cx="10.509448562000001" cy="58.340549755" fill="grey" r="3.9032999045860004" /><circle cx="6.966141562" cy="47.540550019" fill="grey" r="3.9032999045860004" /><circle cx="10.509448562000001" cy="47.540550019" fill="grey" r="3.9032999045860004" /><path d="M6.966141562,90.290548974L10.509448562000001,90.290548974M6.966141562,79.490549238L10.509448562000001,79.490549238M6.966141562,68.690549502L10.509448562000001,68.690549502M6.966141562,58.340549755L10.509448562000001,58.340549755M6.966141562,47.540550019L10.509448562000001,47.540550019" fill="none" stroke="grey" stroke-width="7.806599809172001" /><circle cx="45.056691812" cy="10.537795018" fill="grey" r="5.674949861279" /><circle cx="45.056691812" cy="6.994488018" fill="grey" r="5.674949861279" /><circle cx="59.226376505" cy="10.537795018" fill="grey" r="5.674949861279" /><circle cx="59.226376505" cy="6.994488018" fill="grey" r="5.674949861279" /><circle cx="105.289367505" cy="28.254330018" fill="grey" r="5.674949861279" /><circle cx="105.289367505" cy="24.711023018000002" fill="grey" r="5.674949861279" /><circle cx="91.11613950499999" cy="28.254330018" fill="grey" r="5.674949861279" /><circle cx="91.11613950499999" cy="24.711023018000002" fill="grey" r="5.674949861279" /><circle cx="76.942911505" cy="28.254330018" fill="grey" r="5.674949861279" /><circle cx="76.942911505" cy="24.711023018000002" fill="grey" r="5.674949861279" /><path d="M45.056691812,10.537795018L45.056691812,6.994488018M59.226376505,10.537795018L59.226376505,6.994488018M105.289367505,28.254330018L105.289367505,24.711023018000002M91.11613950499999,28.254330018L91.11613950499999,24.711023018000002M76.942911505,28.254330018L76.942911505,24.711023018000002" fill="none" stroke="grey" stroke-width="11.349899722558" /><rect fill="grey" height="57.05856002255799" width="21.979799462716" x="37.610099080641994" y="40.473080506721004" /><circle cx="68.084644005" cy="97.171651168" fill="white" r="0.449999989" /><circle cx="68.084644005" cy="91.11613950499999" fill="white" r="0.449999989" /><circle cx="68.084644005" cy="87.39212384800001" fill="white" r="0.449999989" /><circle cx="68.084644005" cy="86.616139615" fill="white" r="0.449999989" /><circle cx="68.084644005" cy="82.892123958" fill="white" r="0.449999989" /><circle cx="68.084644005" cy="82.116139725" fill="white" r="0.449999989" /><circle cx="68.084644005" cy="78.392124068" fill="white" r="0.449999989" /><circle cx="68.084644005" cy="77.616139835" fill="white" r="0.449999989" /><circle cx="68.084644005" cy="73.892124178" fill="white" r="0.449999989" /><circle cx="68.084644005" cy="73.116139945" fill="white" r="0.449999989" /><circle cx="68.084644005" cy="69.392124288" fill="white" r="0.449999989" /><circle cx="68.084644005" cy="68.61614005499999" fill="white" r="0.449999989" /><circle cx="68.084644005" cy="64.89212439799999" fill="white" r="0.449999989" /><circle cx="68.084644005" cy="64.11614016499999" fill="white" r="0.449999989" /><circle cx="68.084644005" cy="60.392124508" fill="white" r="0.449999989" /><circle cx="68.084644005" cy="59.616140275" fill="white" r="0.449999989" /><circle cx="68.084644005" cy="55.892124618" fill="white" r="0.449999989" /><circle cx="68.084644005" cy="55.116140385" fill="white" r="0.449999989" /><circle cx="68.084644005" cy="51.392124728" fill="white" r="0.449999989" /><circle cx="68.084644005" cy="50.616140495" fill="white" r="0.449999989" /><circle cx="68.084644005" cy="46.892124838" fill="white" r="0.449999989" /><circle cx="68.084644005" cy="40.833069867999995" fill="white" r="0.449999989" /><circle cx="29.111810311999996" cy="97.171651168" fill="white" r="0.449999989" /><circle cx="29.111810311999996" cy="91.11613950499999" fill="white" r="0.449999989" /><circle cx="29.111810311999996" cy="87.39212384800001" fill="white" r="0.449999989" /><circle cx="29.111810311999996" cy="86.616139615" fill="white" r="0.449999989" /><circle cx="29.111810311999996" cy="82.892123958" fill="white" r="0.449999989" /><circle cx="29.111810311999996" cy="82.116139725" fill="white" r="0.449999989" /><circle cx="29.111810311999996" cy="78.392124068" fill="white" r="0.449999989" /><circle cx="29.111810311999996" cy="77.616139835" fill="white" r="0.449999989" /><circle cx="29.111810311999996" cy="73.892124178" fill="white" r="0.449999989" /><circle cx="29.111810311999996" cy="73.116139945" fill="white" r="0.449999989" /><circle cx="29.111810311999996" cy="69.392124288" fill="white" r="0.449999989" /><circle cx="29.111810311999996" cy="68.61614005499999" fill="white" r="0.449999989" /><circle cx="29.111810311999996" cy="64.89212439799999" fill="white" r="0.449999989" /><circle cx="29.111810311999996" cy="64.11614016499999" fill="white" r="0.449999989" /><circle cx="29.111810311999996" cy="60.392124508" fill="white" r="0.449999989" /><circle cx="29.111810311999996" cy="59.616140275" fill="white" r="0.449999989" /><circle cx="29.111810311999996" cy="55.892124618" fill="white" r="0.449999989" /><circle cx="29.111810311999996" cy="55.116140385" fill="white" r="0.449999989" /><circle cx="29.111810311999996" cy="51.392124728" fill="white" r="0.449999989" /><circle cx="29.111810311999996" cy="50.616140495" fill="white" r="0.449999989" /><circle cx="29.111810311999996" cy="46.892124838" fill="white" r="0.449999989" /><circle cx="29.111810311999996" cy="40.833069867999995" fill="white" r="0.449999989" /><circle cx="29.111810311999996" cy="40.833069867999995" fill="white" r="0.449999989" /><circle cx="37.148030588" cy="40.833069867999995" fill="white" r="0.449999989" /><circle cx="60.048423729" cy="40.833069867999995" fill="white" r="0.449999989" /><circle cx="68.084644005" cy="40.833069867999995" fill="white" r="0.449999989" /><circle cx="29.111810311999996" cy="97.171651168" fill="white" r="0.449999989" /><circle cx="37.148030588" cy="97.171651168" fill="white" r="0.449999989" /><circle cx="60.048423729" cy="97.171651168" fill="white" r="0.449999989" /><circle cx="68.084644005" cy="97.171651168" fill="white" r="0.449999989" /><circle cx="103.875588012" cy="59.612596968000005" fill="white" r="0.449999989" /><circle cx="99.623619612" cy="59.612596968000005" fill="white" r="0.449999989" /><circle cx="104.58424941199999" cy="66.876376318" fill="white" r="0.449999989" /><circle cx="104.58424941199999" cy="70.419683318" fill="white" r="0.449999989" /><circle cx="98.911414905" cy="66.876376318" fill="white" r="0.449999989" /><circle cx="98.911414905" cy="70.419683318" fill="white" r="0.449999989" /><circle cx="104.58424941199999" cy="64.04173071800001" fill="white" r="0.449999989" /><circle cx="104.58424941199999" cy="60.498423718000005" fill="white" r="0.449999989" /><circle cx="98.911414905" cy="64.04173071800001" fill="white" r="0.449999989" /><circle cx="98.911414905" cy="60.498423718000005" fill="white" r="0.449999989" /><circle cx="103.875588012" cy="71.309053375" fill="white" r="0.449999989" /><circle cx="99.623619612" cy="71.309053375" fill="white" r="0.449999989" /><circle cx="104.58424941199999" cy="70.60039197500001" fill="white" r="0.449999989" /><circle cx="104.58424941199999" cy="70.419683318" fill="white" r="0.449999989" /><circle cx="98.911414905" cy="70.59684866799999" fill="white" r="0.449999989" /><circle cx="98.911414905" cy="70.419683318" fill="white" r="0.449999989" /><circle cx="104.58424941199999" cy="60.321258368" fill="white" r="0.449999989" /><circle cx="104.58424941199999" cy="60.498423718000005" fill="white" r="0.449999989" /><circle cx="98.911414905" cy="60.324801674999996" fill="white" r="0.449999989" /><circle cx="98.911414905" cy="60.498423718000005" fill="white" r="0.449999989" /><circle cx="28.410235526" cy="4.163385725" fill="white" r="0.449999989" /><circle cx="9.634251733" cy="4.163385725" fill="white" r="0.449999989" /><circle cx="9.634251733" cy="27.545668618" fill="white" r="0.449999989" /><circle cx="28.410235526" cy="27.545668618" fill="white" r="0.449999989" /><circle cx="5.027952633" cy="8.769684825" fill="white" r="0.449999989" /><circle cx="9.634251733" cy="4.163385725" fill="white" r="0.449999989" /><circle cx="5.027952633" cy="22.935826211" fill="white" r="0.449999989" /><circle cx="9.634251733" cy="27.545668618" fill="white" r="0.449999989" /><circle cx="5.027952633" cy="22.935826211" fill="white" r="0.449999989" /><circle cx="5.027952633" cy="18.446456242" fill="white" r="0.449999989" /><circle cx="5.027952633" cy="13.262598101" fill="white" r="0.449999989" /><circle cx="5.027952633" cy="8.769684825" fill="white" r="0.449999989" /><circle cx="28.410235526" cy="27.545668618" fill="white" r="0.449999989" /><circle cx="28.410235526" cy="18.446456242" fill="white" r="0.449999989" /><circle cx="28.410235526" cy="13.262598101" fill="white" r="0.449999989" /><circle cx="28.410235526" cy="4.163385725" fill="white" r="0.449999989" /><circle cx="98.02204484800001" cy="52.171652268" fill="white" r="0.449999989" /><circle cx="98.02204484800001" cy="52.171652268" fill="white" r="0.449999989" /><circle cx="98.02204484800001" cy="43.316928075" fill="white" r="0.449999989" /><circle cx="98.02204484800001" cy="43.316928075" fill="white" r="0.449999989" /><circle cx="83.855903462" cy="43.316928075" fill="white" r="0.449999989" /><circle cx="83.855903462" cy="43.316928075" fill="white" r="0.449999989" /><circle cx="83.855903462" cy="52.171652268" fill="white" r="0.449999989" /><circle cx="83.855903462" cy="52.171652268" fill="white" r="0.449999989" /><circle cx="98.02204484800001" cy="52.171652268" fill="white" r="0.449999989" /><circle cx="93.972044947" cy="52.153935733" fill="white" r="0.449999989" /><circle cx="93.972044947" cy="43.33464461" fill="white" r="0.449999989" /><circle cx="87.75708446899999" cy="78.74999807500001" fill="white" r="0.449999989" /><circle cx="87.75708446899999" cy="78.74999807500001" fill="white" r="0.449999989" /><circle cx="87.75708446899999" cy="87.604722268" fill="white" r="0.449999989" /><circle cx="87.75708446899999" cy="87.604722268" fill="white" r="0.449999989" /><circle cx="101.923225855" cy="87.604722268" fill="white" r="0.449999989" /><circle cx="101.923225855" cy="87.604722268" fill="white" r="0.449999989" /><circle cx="101.923225855" cy="78.74999807500001" fill="white" r="0.449999989" /><circle cx="101.923225855" cy="78.74999807500001" fill="white" r="0.449999989" /><circle cx="87.75708446899999" cy="78.74999807500001" fill="white" r="0.449999989" /><circle cx="91.80708437" cy="78.76771461" fill="white" r="0.449999989" /><circle cx="91.80708437" cy="87.587005733" fill="white" r="0.449999989" /><circle cx="92.639761515" cy="56.544093106" fill="white" r="0.449999989" /><circle cx="85.55669082200001" cy="56.544093106" fill="white" r="0.449999989" /><circle cx="93.348422915" cy="68.945667606" fill="white" r="0.449999989" /><circle cx="93.348422915" cy="73.19763600600001" fill="white" r="0.449999989" /><circle cx="84.84802942200001" cy="68.945667606" fill="white" r="0.449999989" /><circle cx="84.84802942200001" cy="73.19763600600001" fill="white" r="0.449999989" /><circle cx="93.348422915" cy="61.859053605999996" fill="white" r="0.449999989" /><circle cx="93.348422915" cy="57.607085205999994" fill="white" r="0.449999989" /><circle cx="84.84802942200001" cy="61.859053605999996" fill="white" r="0.449999989" /><circle cx="84.84802942200001" cy="57.607085205999994" fill="white" r="0.449999989" /><circle cx="92.639761515" cy="74.260628106" fill="white" r="0.449999989" /><circle cx="85.55669082200001" cy="74.260628106" fill="white" r="0.449999989" /><circle cx="93.348422915" cy="73.551966706" fill="white" r="0.449999989" /><circle cx="93.348422915" cy="73.19763600600001" fill="white" r="0.449999989" /><circle cx="84.84802942200001" cy="73.551966706" fill="white" r="0.449999989" /><circle cx="84.84802942200001" cy="73.19763600600001" fill="white" r="0.449999989" /><circle cx="93.348422915" cy="57.252754506" fill="white" r="0.449999989" /><circle cx="93.348422915" cy="57.607085205999994" fill="white" r="0.449999989" /><circle cx="84.84802942200001" cy="57.252754506" fill="white" r="0.449999989" /><circle cx="84.84802942200001" cy="57.607085205999994" fill="white" r="0.449999989" /><circle cx="86.690549062" cy="100.187005425" fill="white" r="0.449999989" /><circle cx="86.690549062" cy="94.51417091799999" fill="white" r="0.449999989" /><circle cx="74.285431255" cy="100.187005425" fill="white" r="0.449999989" /><circle cx="74.285431255" cy="94.51417091799999" fill="white" r="0.449999989" /><circle cx="82.261415312" cy="93.66377723800001" fill="white" r="0.449999989" /><circle cx="85.978344355" cy="93.66377723800001" fill="white" r="0.449999989" /><circle cx="82.261415312" cy="101.03385579799999" fill="white" r="0.449999989" /><circle cx="85.978344355" cy="101.03385579799999" fill="white" r="0.449999989" /><circle cx="78.718108312" cy="93.66377723800001" fill="white" r="0.449999989" /><circle cx="74.997635962" cy="93.66377723800001" fill="white" r="0.449999989" /><circle cx="78.718108312" cy="101.03385579799999" fill="white" r="0.449999989" /><circle cx="74.997635962" cy="101.03385579799999" fill="white" r="0.449999989" /><circle cx="74.285431255" cy="100.254328258" fill="white" r="0.449999989" /><circle cx="74.285431255" cy="100.187005425" fill="white" r="0.449999989" /><circle cx="74.285431255" cy="100.325194398" fill="white" r="0.449999989" /><circle cx="74.285431255" cy="100.187005425" fill="white" r="0.449999989" /><circle cx="74.285431255" cy="94.372438638" fill="white" r="0.449999989" /><circle cx="74.285431255" cy="94.51417091799999" fill="white" r="0.449999989" /><circle cx="86.690549062" cy="100.325194398" fill="white" r="0.449999989" /><circle cx="86.690549062" cy="100.187005425" fill="white" r="0.449999989" /><circle cx="86.690549062" cy="94.375981945" fill="white" r="0.449999989" /><circle cx="86.690549062" cy="94.51417091799999" fill="white" r="0.449999989" /><circle cx="22.911023062" cy="39.950786425000004" fill="white" r="0.449999989" /><circle cx="22.911023062" cy="34.277951918" fill="white" r="0.449999989" /><circle cx="10.505905255" cy="39.950786425000004" fill="white" r="0.449999989" /><circle cx="10.509448562000001" cy="34.277951918" fill="white" r="0.449999989" /><circle cx="18.481889312" cy="33.427558237999996" fill="white" r="0.449999989" /><circle cx="22.202361662" cy="33.427558237999996" fill="white" r="0.449999989" /><circle cx="18.481889312" cy="40.797636798" fill="white" r="0.449999989" /><circle cx="22.202361662" cy="40.797636798" fill="white" r="0.449999989" /><circle cx="14.938582312000001" cy="33.427558237999996" fill="white" r="0.449999989" /><circle cx="11.218109962" cy="33.427558237999996" fill="white" r="0.449999989" /><circle cx="14.938582312000001" cy="40.797636798" fill="white" r="0.449999989" /><circle cx="11.218109962" cy="40.797636798" fill="white" r="0.449999989" /><circle cx="10.505905255" cy="40.018109258" fill="white" r="0.449999989" /><circle cx="10.505905255" cy="39.950786425000004" fill="white" r="0.449999989" /><circle cx="10.505905255" cy="40.088975398" fill="white" r="0.449999989" /><circle cx="10.505905255" cy="39.950786425000004" fill="white" r="0.449999989" /><circle cx="10.509448562000001" cy="34.139762945" fill="white" r="0.449999989" /><circle cx="10.509448562000001" cy="34.277951918" fill="white" r="0.449999989" /><circle cx="22.911023062" cy="40.088975398" fill="white" r="0.449999989" /><circle cx="22.911023062" cy="39.950786425000004" fill="white" r="0.449999989" /><circle cx="22.911023062" cy="34.139762945" fill="white" r="0.449999989" /><circle cx="22.911023062" cy="34.277951918" fill="white" r="0.449999989" /><circle cx="103.875588012" cy="71.309053375" fill="white" r="0.449999989" /><path d="M68.084644005,97.171651168L68.084644005,91.11613950499999M68.084644005,87.39212384800001L68.084644005,86.616139615M68.084644005,82.892123958L68.084644005,82.116139725M68.084644005,78.392124068L68.084644005,77.616139835M68.084644005,73.892124178L68.084644005,73.116139945M68.084644005,69.392124288L68.084644005,68.61614005499999M68.084644005,64.89212439799999L68.084644005,64.11614016499999M68.084644005,60.392124508L68.084644005,59.616140275M68.084644005,55.892124618L68.084644005,55.116140385M68.084644005,51.392124728L68.084644005,50.616140495M68.084644005,46.892124838L68.084644005,40.833069867999995M29.111810311999996,97.171651168L29.111810311999996,91.11613950499999M29.111810311999996,87.39212384800001L29.111810311999996,86.616139615M29.111810311999996,82.892123958L29.111810311999996,82.116139725M29.111810311999996,78.392124068L29.111810311999996,77.616139835M29.111810311999996,73.892124178L29.111810311999996,73.116139945M29.111810311999996,69.392124288L29.111810311999996,68.61614005499999M29.111810311999996,64.89212439799999L29.111810311999996,64.11614016499999M29.111810311999996,60.392124508L29.111810311999996,59.616140275M29.111810311999996,55.892124618L29.111810311999996,55.116140385M29.111810311999996,51.392124728L29.111810311999996,50.616140495M29.111810311999996,46.892124838L29.111810311999996,40.833069867999995M29.111810311999996,40.833069867999995L37.148030588,40.833069867999995M60.048423729,40.833069867999995L68.084644005,40.833069867999995M29.111810311999996,97.171651168L37.148030588,97.171651168M60.048423729,97.171651168L68.084644005,97.171651168M103.875588012,59.612596968000005L99.623619612,59.612596968000005M104.58424941199999,66.876376318L104.58424941199999,70.419683318M98.911414905,66.876376318L98.911414905,70.419683318M104.58424941199999,64.04173071800001L104.58424941199999,60.498423718000005M98.911414905,64.04173071800001L98.911414905,60.498423718000005M103.875588012,71.309053375L99.623619612,71.309053375M104.58424941199999,70.60039197500001L104.58424941199999,70.419683318M98.911414905,70.59684866799999L98.911414905,70.419683318M104.58424941199999,60.321258368L104.58424941199999,60.498423718000005M98.911414905,60.324801674999996L98.911414905,60.498423718000005M28.410235526,4.163385725L9.634251733,4.163385725M9.634251733,27.545668618L28.410235526,27.545668618M5.027952633,8.769684825L9.634251733,4.163385725M5.027952633,22.935826211L9.634251733,27.545668618M5.027952633,22.935826211L5.027952633,18.446456242M5.027952633,13.262598101L5.027952633,8.769684825M28.410235526,27.545668618L28.410235526,18.446456242M28.410235526,13.262598101L28.410235526,4.163385725M98.02204484800001,52.171652268L98.02204484800001,43.316928075M98.02204484800001,43.316928075L83.855903462,43.316928075M83.855903462,43.316928075L83.855903462,52.171652268M83.855903462,52.171652268L98.02204484800001,52.171652268M93.972044947,52.153935733L93.972044947,43.33464461M87.75708446899999,78.74999807500001L87.75708446899999,87.604722268M87.75708446899999,87.604722268L101.923225855,87.604722268M101.923225855,87.604722268L101.923225855,78.74999807500001M101.923225855,78.74999807500001L87.75708446899999,78.74999807500001M91.80708437,78.76771461L91.80708437,87.587005733M92.639761515,56.544093106L85.55669082200001,56.544093106M93.348422915,68.945667606L93.348422915,73.19763600600001M84.84802942200001,68.945667606L84.84802942200001,73.19763600600001M93.348422915,61.859053605999996L93.348422915,57.607085205999994M84.84802942200001,61.859053605999996L84.84802942200001,57.607085205999994M92.639761515,74.260628106L85.55669082200001,74.260628106M93.348422915,73.551966706L93.348422915,73.19763600600001M84.84802942200001,73.551966706L84.84802942200001,73.19763600600001M93.348422915,57.252754506L93.348422915,57.607085205999994M84.84802942200001,57.252754506L84.84802942200001,57.607085205999994M86.690549062,100.187005425L86.690549062,94.51417091799999M74.285431255,100.187005425L74.285431255,94.51417091799999M82.261415312,93.66377723800001L85.978344355,93.66377723800001M82.261415312,101.03385579799999L85.978344355,101.03385579799999M78.718108312,93.66377723800001L74.997635962,93.66377723800001M78.718108312,101.03385579799999L74.997635962,101.03385579799999M74.285431255,100.254328258L74.285431255,100.187005425M74.285431255,100.325194398L74.285431255,100.187005425M74.285431255,94.372438638L74.285431255,94.51417091799999M86.690549062,100.325194398L86.690549062,100.187005425M86.690549062,94.375981945L86.690549062,94.51417091799999M22.911023062,39.950786425000004L22.911023062,34.277951918M10.505905255,39.950786425000004L10.509448562000001,34.277951918M18.481889312,33.427558237999996L22.202361662,33.427558237999996M18.481889312,40.797636798L22.202361662,40.797636798M14.938582312000001,33.427558237999996L11.218109962,33.427558237999996M14.938582312000001,40.797636798L11.218109962,40.797636798M10.505905255,40.018109258L10.505905255,39.950786425000004M10.505905255,40.088975398L10.505905255,39.950786425000004M10.509448562000001,34.139762945L10.509448562000001,34.277951918M22.911023062,40.088975398L22.911023062,39.950786425000004M22.911023062,34.139762945L22.911023062,34.277951918" fill="none" stroke="white" stroke-width="0.899999978" /><circle cx="88.68897421" cy="47.742518518" fill="white" r="0.2249999945" /><circle cx="93.1889741" cy="47.742518518" fill="white" r="0.2249999945" /><circle cx="89.588974188" cy="47.742518518" fill="white" r="0.2249999945" /><circle cx="89.588974188" cy="46.392518551" fill="white" r="0.2249999945" /><circle cx="89.588974188" cy="46.392518551" fill="white" r="0.2249999945" /><circle cx="92.288974122" cy="47.742518518" fill="white" r="0.2249999945" /><circle cx="92.288974122" cy="47.742518518" fill="white" r="0.2249999945" /><circle cx="92.288974122" cy="46.392518551" fill="white" r="0.2249999945" /><circle cx="89.588974188" cy="47.742518518" fill="white" r="0.2249999945" /><circle cx="89.588974188" cy="49.092518485" fill="white" r="0.2249999945" /><circle cx="89.588974188" cy="49.092518485" fill="white" r="0.2249999945" /><circle cx="92.288974122" cy="47.742518518" fill="white" r="0.2249999945" /><circle cx="92.288974122" cy="47.742518518" fill="white" r="0.2249999945" /><circle cx="92.288974122" cy="49.092518485" fill="white" r="0.2249999945" /><circle cx="97.090155107" cy="83.175588518" fill="white" r="0.2249999945" /><circle cx="97.090155107" cy="83.175588518" fill="white" r="0.2249999945" /><circle cx="92.590155217" cy="83.175588518" fill="white" r="0.2249999945" /><circle cx="96.19015512899999" cy="83.175588518" fill="white" r="0.2249999945" /><circle cx="96.19015512899999" cy="84.525588485" fill="white" r="0.2249999945" /><circle cx="96.19015512899999" cy="84.525588485" fill="white" r="0.2249999945" /><circle cx="93.490155195" cy="83.175588518" fill="white" r="0.2249999945" /><circle cx="93.490155195" cy="83.175588518" fill="white" r="0.2249999945" /><circle cx="93.490155195" cy="84.525588485" fill="white" r="0.2249999945" /><circle cx="96.19015512899999" cy="83.175588518" fill="white" r="0.2249999945" /><circle cx="96.19015512899999" cy="81.825588551" fill="white" r="0.2249999945" /><circle cx="96.19015512899999" cy="81.825588551" fill="white" r="0.2249999945" /><circle cx="93.490155195" cy="83.175588518" fill="white" r="0.2249999945" /><circle cx="93.490155195" cy="83.175588518" fill="white" r="0.2249999945" /><circle cx="93.490155195" cy="81.825588551" fill="white" r="0.2249999945" /><path d="M88.68897421,47.742518518L93.1889741,47.742518518M89.588974188,47.742518518L89.588974188,46.392518551M89.588974188,46.392518551L92.288974122,47.742518518M92.288974122,47.742518518L92.288974122,46.392518551M89.588974188,47.742518518L89.588974188,49.092518485M89.588974188,49.092518485L92.288974122,47.742518518M92.288974122,47.742518518L92.288974122,49.092518485M97.090155107,83.175588518L92.590155217,83.175588518M96.19015512899999,83.175588518L96.19015512899999,84.525588485M96.19015512899999,84.525588485L93.490155195,83.175588518M93.490155195,83.175588518L93.490155195,84.525588485M96.19015512899999,83.175588518L96.19015512899999,81.825588551M96.19015512899999,81.825588551L93.490155195,83.175588518M93.490155195,83.175588518L93.490155195,81.825588551" fill="none" stroke="white" stroke-width="0.449999989" /><circle cx="57.823226932999994" cy="22.609841967" fill="white" r="0.3599999912" /><circle cx="57.167715138" cy="22.28740103" fill="white" r="0.3599999912" /><circle cx="56.508660036" cy="21.631889235000003" fill="white" r="0.3599999912" /><circle cx="56.186219099" cy="20.972834133" fill="white" r="0.3599999912" /><circle cx="56.186219099" cy="19.668897157" fill="white" r="0.3599999912" /><circle cx="56.508660036" cy="19.009842055" fill="white" r="0.3599999912" /><circle cx="57.167715138" cy="18.364960181" fill="white" r="0.3599999912" /><circle cx="57.823226932999994" cy="18.031889323" fill="white" r="0.3599999912" /><circle cx="58.804722972" cy="17.705905079" fill="white" r="0.3599999912" /><circle cx="60.434644192" cy="17.705905079" fill="white" r="0.3599999912" /><circle cx="61.423226845" cy="18.031889323" fill="white" r="0.3599999912" /><circle cx="62.071652026" cy="18.364960181" fill="white" r="0.3599999912" /><circle cx="62.727163821" cy="19.009842055" fill="white" r="0.3599999912" /><circle cx="63.05314806500001" cy="19.668897157" fill="white" r="0.3599999912" /><circle cx="63.05314806500001" cy="20.972834133" fill="white" r="0.3599999912" /><circle cx="62.727163821" cy="21.631889235000003" fill="white" r="0.3599999912" /><circle cx="62.071652026" cy="22.28740103" fill="white" r="0.3599999912" /><circle cx="61.423226845" cy="22.609841967" fill="white" r="0.3599999912" /><circle cx="60.434644192" cy="22.609841967" fill="white" r="0.3599999912" /><circle cx="60.434644192" cy="20.972834133" fill="white" r="0.3599999912" /><circle cx="60.434644192" cy="22.609841967" fill="white" r="0.3599999912" /><circle cx="56.186219099" cy="24.771259237" fill="white" r="0.3599999912" /><circle cx="63.05314806500001" cy="24.771259237" fill="white" r="0.3599999912" /><circle cx="56.186219099" cy="24.771259237" fill="white" r="0.3599999912" /><circle cx="63.05314806500001" cy="29.352755188000003" fill="white" r="0.3599999912" /><circle cx="56.186219099" cy="29.352755188000003" fill="white" r="0.3599999912" /><circle cx="63.05314806500001" cy="29.352755188000003" fill="white" r="0.3599999912" /><circle cx="56.186219099" cy="31.510629151000003" fill="white" r="0.3599999912" /><circle cx="63.05314806500001" cy="31.510629151000003" fill="white" r="0.3599999912" /><circle cx="56.186219099" cy="31.510629151000003" fill="white" r="0.3599999912" /><circle cx="56.186219099" cy="33.806692087" fill="white" r="0.3599999912" /><circle cx="56.508660036" cy="34.788188126" fill="white" r="0.3599999912" /><circle cx="57.167715138" cy="35.443699921" fill="white" r="0.3599999912" /><circle cx="57.823226932999994" cy="35.769684165" fill="white" r="0.3599999912" /><circle cx="58.804722972" cy="36.092125102" fill="white" r="0.3599999912" /><circle cx="60.434644192" cy="36.092125102" fill="white" r="0.3599999912" /><circle cx="61.423226845" cy="35.769684165" fill="white" r="0.3599999912" /><circle cx="62.071652026" cy="35.443699921" fill="white" r="0.3599999912" /><circle cx="62.727163821" cy="34.788188126" fill="white" r="0.3599999912" /><circle cx="63.05314806500001" cy="33.806692087" fill="white" r="0.3599999912" /><circle cx="63.05314806500001" cy="31.510629151000003" fill="white" r="0.3599999912" /><circle cx="43.136219417999996" cy="17.252361782999998" fill="white" r="0.3599999912" /><circle cx="50.003148384" cy="19.870865656" fill="white" r="0.3599999912" /><circle cx="43.136219417999996" cy="22.489369529" fill="white" r="0.3599999912" /><circle cx="50.003148384" cy="19.870865656" fill="white" r="0.3599999912" /><circle cx="44.773227252" cy="29.565353608" fill="white" r="0.3599999912" /><circle cx="44.117715457" cy="29.23228275" fill="white" r="0.3599999912" /><circle cx="43.458660355" cy="28.583857569" fill="white" r="0.3599999912" /><circle cx="43.136219417999996" cy="27.924802467" fill="white" r="0.3599999912" /><circle cx="43.136219417999996" cy="26.61023557" fill="white" r="0.3599999912" /><circle cx="43.458660355" cy="25.965353696" fill="white" r="0.3599999912" /><circle cx="44.117715457" cy="25.306298594" fill="white" r="0.3599999912" /><circle cx="44.773227252" cy="24.983857657" fill="white" r="0.3599999912" /><circle cx="45.754723291" cy="24.650786799" fill="white" r="0.3599999912" /><circle cx="47.384644511" cy="24.650786799" fill="white" r="0.3599999912" /><circle cx="48.373227164" cy="24.983857657" fill="white" r="0.3599999912" /><circle cx="49.021652345" cy="25.306298594" fill="white" r="0.3599999912" /><circle cx="49.677164139999995" cy="25.965353696" fill="white" r="0.3599999912" /><circle cx="50.003148384" cy="26.61023557" fill="white" r="0.3599999912" /><circle cx="50.003148384" cy="27.924802467" fill="white" r="0.3599999912" /><circle cx="49.677164139999995" cy="28.583857569" fill="white" r="0.3599999912" /><circle cx="49.021652345" cy="29.23228275" fill="white" r="0.3599999912" /><circle cx="48.373227164" cy="29.565353608" fill="white" r="0.3599999912" /><circle cx="44.773227252" cy="36.630707766" fill="white" r="0.3599999912" /><circle cx="44.117715457" cy="36.304723522" fill="white" r="0.3599999912" /><circle cx="43.458660355" cy="35.649211727" fill="white" r="0.3599999912" /><circle cx="43.136219417999996" cy="34.990156625" fill="white" r="0.3599999912" /><circle cx="43.136219417999996" cy="33.686219649" fill="white" r="0.3599999912" /><circle cx="43.458660355" cy="33.030707854" fill="white" r="0.3599999912" /><circle cx="44.117715457" cy="32.371652751999996" fill="white" r="0.3599999912" /><circle cx="44.773227252" cy="32.049211815" fill="white" r="0.3599999912" /><circle cx="45.754723291" cy="31.723227571" fill="white" r="0.3599999912" /><circle cx="47.384644511" cy="31.723227571" fill="white" r="0.3599999912" /><circle cx="48.373227164" cy="32.049211815" fill="white" r="0.3599999912" /><circle cx="49.021652345" cy="32.371652751999996" fill="white" r="0.3599999912" /><circle cx="49.677164139999995" cy="33.030707854" fill="white" r="0.3599999912" /><circle cx="50.003148384" cy="33.686219649" fill="white" r="0.3599999912" /><circle cx="50.003148384" cy="34.990156625" fill="white" r="0.3599999912" /><circle cx="49.677164139999995" cy="35.649211727" fill="white" r="0.3599999912" /><circle cx="49.021652345" cy="36.304723522" fill="white" r="0.3599999912" /><circle cx="48.373227164" cy="36.630707766" fill="white" r="0.3599999912" /><circle cx="101.572438462" cy="5.222834518" fill="white" r="0.3599999912" /><circle cx="108.439367428" cy="5.222834518" fill="white" r="0.3599999912" /><circle cx="101.572438462" cy="5.222834518" fill="white" r="0.3599999912" /><circle cx="108.439367428" cy="7.841338391" fill="white" r="0.3599999912" /><circle cx="101.572438462" cy="10.463385571" fill="white" r="0.3599999912" /><circle cx="108.439367428" cy="7.841338391" fill="white" r="0.3599999912" /><circle cx="101.572438462" cy="10.463385571" fill="white" r="0.3599999912" /><circle cx="108.439367428" cy="10.463385571" fill="white" r="0.3599999912" /><circle cx="103.209446296" cy="17.528739729" fill="white" r="0.3599999912" /><circle cx="102.553934501" cy="17.202755485" fill="white" r="0.3599999912" /><circle cx="101.894879399" cy="16.54724369" fill="white" r="0.3599999912" /><circle cx="101.572438462" cy="15.898818509" fill="white" r="0.3599999912" /><circle cx="101.572438462" cy="14.584251612" fill="white" r="0.3599999912" /><circle cx="101.894879399" cy="13.928739817" fill="white" r="0.3599999912" /><circle cx="102.553934501" cy="13.280314636" fill="white" r="0.3599999912" /><circle cx="103.209446296" cy="12.947243777999999" fill="white" r="0.3599999912" /><circle cx="104.190942335" cy="12.621259534" fill="white" r="0.3599999912" /><circle cx="105.82086355499999" cy="12.621259534" fill="white" r="0.3599999912" /><circle cx="106.809446208" cy="12.947243777999999" fill="white" r="0.3599999912" /><circle cx="107.457871389" cy="13.280314636" fill="white" r="0.3599999912" /><circle cx="108.113383184" cy="13.928739817" fill="white" r="0.3599999912" /><circle cx="108.439367428" cy="14.584251612" fill="white" r="0.3599999912" /><circle cx="108.439367428" cy="15.898818509" fill="white" r="0.3599999912" /><circle cx="108.113383184" cy="16.54724369" fill="white" r="0.3599999912" /><circle cx="107.457871389" cy="17.202755485" fill="white" r="0.3599999912" /><circle cx="106.809446208" cy="17.528739729" fill="white" r="0.3599999912" /><circle cx="87.399210462" cy="5.222834518" fill="white" r="0.3599999912" /><circle cx="94.266139428" cy="5.222834518" fill="white" r="0.3599999912" /><circle cx="87.399210462" cy="5.222834518" fill="white" r="0.3599999912" /><circle cx="94.266139428" cy="7.841338391" fill="white" r="0.3599999912" /><circle cx="87.399210462" cy="10.459842264" fill="white" r="0.3599999912" /><circle cx="94.266139428" cy="7.841338391" fill="white" r="0.3599999912" /><circle cx="87.399210462" cy="10.459842264" fill="white" r="0.3599999912" /><circle cx="94.266139428" cy="10.459842264" fill="white" r="0.3599999912" /><circle cx="87.399210462" cy="12.621259534" fill="white" r="0.3599999912" /><circle cx="94.266139428" cy="12.621259534" fill="white" r="0.3599999912" /><circle cx="87.399210462" cy="12.621259534" fill="white" r="0.3599999912" /><circle cx="87.399210462" cy="15.562204344000001" fill="white" r="0.3599999912" /><circle cx="87.72165139900001" cy="16.543700382999997" fill="white" r="0.3599999912" /><circle cx="88.047635643" cy="16.876771241" fill="white" r="0.3599999912" /><circle cx="88.703147438" cy="17.202755485" fill="white" r="0.3599999912" /><circle cx="89.36220254" cy="17.202755485" fill="white" r="0.3599999912" /><circle cx="90.01771433500001" cy="16.876771241" fill="white" r="0.3599999912" /><circle cx="90.34015527199999" cy="16.543700382999997" fill="white" r="0.3599999912" /><circle cx="90.666139516" cy="15.562204344000001" fill="white" r="0.3599999912" /><circle cx="90.666139516" cy="12.621259534" fill="white" r="0.3599999912" /><circle cx="90.666139516" cy="15.562204344000001" fill="white" r="0.3599999912" /><circle cx="90.999210374" cy="16.543700382999997" fill="white" r="0.3599999912" /><circle cx="91.321651311" cy="16.876771241" fill="white" r="0.3599999912" /><circle cx="91.980706413" cy="17.202755485" fill="white" r="0.3599999912" /><circle cx="92.962202452" cy="17.202755485" fill="white" r="0.3599999912" /><circle cx="93.617714247" cy="16.876771241" fill="white" r="0.3599999912" /><circle cx="93.940155184" cy="16.543700382999997" fill="white" r="0.3599999912" /><circle cx="94.266139428" cy="15.562204344000001" fill="white" r="0.3599999912" /><circle cx="94.266139428" cy="12.621259534" fill="white" r="0.3599999912" /><circle cx="73.225982462" cy="5.222834518" fill="white" r="0.3599999912" /><circle cx="80.092911428" cy="5.222834518" fill="white" r="0.3599999912" /><circle cx="73.225982462" cy="5.222834518" fill="white" r="0.3599999912" /><circle cx="80.092911428" cy="7.841338391" fill="white" r="0.3599999912" /><circle cx="73.225982462" cy="10.463385571" fill="white" r="0.3599999912" /><circle cx="80.092911428" cy="7.841338391" fill="white" r="0.3599999912" /><circle cx="73.225982462" cy="10.463385571" fill="white" r="0.3599999912" /><circle cx="80.092911428" cy="10.463385571" fill="white" r="0.3599999912" /><circle cx="73.225982462" cy="15.239763407" fill="white" r="0.3599999912" /><circle cx="80.092911428" cy="12.621259534" fill="white" r="0.3599999912" /><circle cx="73.225982462" cy="15.239763407" fill="white" r="0.3599999912" /><circle cx="80.092911428" cy="17.861810587" fill="white" r="0.3599999912" /><circle cx="77.807478413" cy="13.602755573" fill="white" r="0.3599999912" /><circle cx="77.807478413" cy="16.880314548" fill="white" r="0.3599999912" /><path d="M57.823226932999994,22.609841967L57.167715138,22.28740103L56.508660036,21.631889235000003L56.186219099,20.972834133L56.186219099,19.668897157L56.508660036,19.009842055L57.167715138,18.364960181L57.823226932999994,18.031889323L58.804722972,17.705905079L60.434644192,17.705905079L61.423226845,18.031889323L62.071652026,18.364960181L62.727163821,19.009842055L63.05314806500001,19.668897157L63.05314806500001,20.972834133L62.727163821,21.631889235000003L62.071652026,22.28740103L61.423226845,22.609841967L60.434644192,22.609841967M60.434644192,20.972834133L60.434644192,22.609841967M56.186219099,24.771259237L63.05314806500001,24.771259237M56.186219099,24.771259237L63.05314806500001,29.352755188000003M56.186219099,29.352755188000003L63.05314806500001,29.352755188000003M56.186219099,31.510629151000003L63.05314806500001,31.510629151000003M56.186219099,31.510629151000003L56.186219099,33.806692087L56.508660036,34.788188126L57.167715138,35.443699921L57.823226932999994,35.769684165L58.804722972,36.092125102L60.434644192,36.092125102L61.423226845,35.769684165L62.071652026,35.443699921L62.727163821,34.788188126L63.05314806500001,33.806692087L63.05314806500001,31.510629151000003M43.136219417999996,17.252361782999998L50.003148384,19.870865656M43.136219417999996,22.489369529L50.003148384,19.870865656M44.773227252,29.565353608L44.117715457,29.23228275L43.458660355,28.583857569L43.136219417999996,27.924802467L43.136219417999996,26.61023557L43.458660355,25.965353696L44.117715457,25.306298594L44.773227252,24.983857657L45.754723291,24.650786799L47.384644511,24.650786799L48.373227164,24.983857657L49.021652345,25.306298594L49.677164139999995,25.965353696L50.003148384,26.61023557L50.003148384,27.924802467L49.677164139999995,28.583857569L49.021652345,29.23228275L48.373227164,29.565353608M44.773227252,36.630707766L44.117715457,36.304723522L43.458660355,35.649211727L43.136219417999996,34.990156625L43.136219417999996,33.686219649L43.458660355,33.030707854L44.117715457,32.371652751999996L44.773227252,32.049211815L45.754723291,31.723227571L47.384644511,31.723227571L48.373227164,32.049211815L49.021652345,32.371652751999996L49.677164139999995,33.030707854L50.003148384,33.686219649L50.003148384,34.990156625L49.677164139999995,35.649211727L49.021652345,36.304723522L48.373227164,36.630707766M101.572438462,5.222834518L108.439367428,5.222834518M101.572438462,5.222834518L108.439367428,7.841338391M101.572438462,10.463385571L108.439367428,7.841338391M101.572438462,10.463385571L108.439367428,10.463385571M103.209446296,17.528739729L102.553934501,17.202755485L101.894879399,16.54724369L101.572438462,15.898818509L101.572438462,14.584251612L101.894879399,13.928739817L102.553934501,13.280314636L103.209446296,12.947243777999999L104.190942335,12.621259534L105.82086355499999,12.621259534L106.809446208,12.947243777999999L107.457871389,13.280314636L108.113383184,13.928739817L108.439367428,14.584251612L108.439367428,15.898818509L108.113383184,16.54724369L107.457871389,17.202755485L106.809446208,17.528739729M87.399210462,5.222834518L94.266139428,5.222834518M87.399210462,5.222834518L94.266139428,7.841338391M87.399210462,10.459842264L94.266139428,7.841338391M87.399210462,10.459842264L94.266139428,10.459842264M87.399210462,12.621259534L94.266139428,12.621259534M87.399210462,12.621259534L87.399210462,15.562204344000001L87.72165139900001,16.543700382999997L88.047635643,16.876771241L88.703147438,17.202755485L89.36220254,17.202755485L90.01771433500001,16.876771241L90.34015527199999,16.543700382999997L90.666139516,15.562204344000001M90.666139516,12.621259534L90.666139516,15.562204344000001L90.999210374,16.543700382999997L91.321651311,16.876771241L91.980706413,17.202755485L92.962202452,17.202755485L93.617714247,16.876771241L93.940155184,16.543700382999997L94.266139428,15.562204344000001L94.266139428,12.621259534M73.225982462,5.222834518L80.092911428,5.222834518M73.225982462,5.222834518L80.092911428,7.841338391M73.225982462,10.463385571L80.092911428,7.841338391M73.225982462,10.463385571L80.092911428,10.463385571M73.225982462,15.239763407L80.092911428,12.621259534M73.225982462,15.239763407L80.092911428,17.861810587M77.807478413,13.602755573L77.807478413,16.880314548" fill="none" stroke="white" stroke-width="0.7199999824" /><circle cx="46.34645556" cy="101.441336103" fill="white" r="0.2699999934" /><circle cx="46.34645556" cy="98.677556643" fill="white" r="0.2699999934" /><circle cx="46.527164217" cy="98.128344058" fill="white" r="0.2699999934" /><circle cx="46.895668144999995" cy="97.75984013" fill="white" r="0.2699999934" /><circle cx="47.455510651000004" cy="97.579131473" fill="white" r="0.2699999934" /><circle cx="47.824014579" cy="97.579131473" fill="white" r="0.2699999934" /><circle cx="48.373227164" cy="97.75984013" fill="white" r="0.2699999934" /><circle cx="48.741731092" cy="98.128344058" fill="white" r="0.2699999934" /><circle cx="48.922439749" cy="98.677556643" fill="white" r="0.2699999934" /><circle cx="48.922439749" cy="101.441336103" fill="white" r="0.2699999934" /><circle cx="50.134250742999996" cy="100.70078494" fill="white" r="0.2699999934" /><circle cx="50.506297978" cy="100.892123518" fill="white" r="0.2699999934" /><circle cx="51.062597177" cy="101.441336103" fill="white" r="0.2699999934" /><circle cx="51.062597177" cy="97.579131473" fill="white" r="0.2699999934" /><circle cx="109.36417055499999" cy="65.342124387" fill="white" r="0.2699999934" /><circle cx="109.73621779" cy="65.529919658" fill="white" r="0.2699999934" /><circle cx="110.10472171800001" cy="65.901966893" fill="white" r="0.2699999934" /><circle cx="110.28188706799999" cy="66.2598409" fill="white" r="0.2699999934" /><circle cx="110.28188706799999" cy="66.996848756" fill="white" r="0.2699999934" /><circle cx="110.10472171800001" cy="67.368895991" fill="white" r="0.2699999934" /><circle cx="109.73621779" cy="67.737399919" fill="white" r="0.2699999934" /><circle cx="109.36417055499999" cy="67.92519519000001" fill="white" r="0.2699999934" /><circle cx="108.80787135599999" cy="68.105903847" fill="white" r="0.2699999934" /><circle cx="107.890154843" cy="68.105903847" fill="white" r="0.2699999934" /><circle cx="107.340942258" cy="67.92519519000001" fill="white" r="0.2699999934" /><circle cx="106.97243833" cy="67.737399919" fill="white" r="0.2699999934" /><circle cx="106.603934402" cy="67.368895991" fill="white" r="0.2699999934" /><circle cx="106.423225745" cy="66.996848756" fill="white" r="0.2699999934" /><circle cx="106.423225745" cy="66.2598409" fill="white" r="0.2699999934" /><circle cx="106.603934402" cy="65.901966893" fill="white" r="0.2699999934" /><circle cx="106.97243833" cy="65.529919658" fill="white" r="0.2699999934" /><circle cx="107.340942258" cy="65.342124387" fill="white" r="0.2699999934" /><circle cx="109.36417055499999" cy="63.946061429000004" fill="white" r="0.2699999934" /><circle cx="109.544879212" cy="63.946061429000004" fill="white" r="0.2699999934" /><circle cx="109.91338314" cy="63.758266158" fill="white" r="0.2699999934" /><circle cx="110.10472171800001" cy="63.577557501" fill="white" r="0.2699999934" /><circle cx="110.28188706799999" cy="63.20905357299999" fill="white" r="0.2699999934" /><circle cx="110.28188706799999" cy="62.472045717" fill="white" r="0.2699999934" /><circle cx="110.10472171800001" cy="62.103541789000005" fill="white" r="0.2699999934" /><circle cx="109.91338314" cy="61.922833131999994" fill="white" r="0.2699999934" /><circle cx="109.544879212" cy="61.735037860999995" fill="white" r="0.2699999934" /><circle cx="109.176375284" cy="61.735037860999995" fill="white" r="0.2699999934" /><circle cx="108.80787135599999" cy="61.922833131999994" fill="white" r="0.2699999934" /><circle cx="108.258658771" cy="62.29133706" fill="white" r="0.2699999934" /><circle cx="106.423225745" cy="64.126770086" fill="white" r="0.2699999934" /><circle cx="106.423225745" cy="61.554329204" fill="white" r="0.2699999934" /><circle cx="17.610235789999997" cy="30.773621295" fill="white" r="0.2699999934" /><circle cx="17.422440519" cy="31.142125222999997" fill="white" r="0.2699999934" /><circle cx="17.053936591" cy="31.510629151000003" fill="white" r="0.2699999934" /><circle cx="16.692519277000002" cy="31.691337808000004" fill="white" r="0.2699999934" /><circle cx="15.955511421" cy="31.691337808000004" fill="white" r="0.2699999934" /><circle cx="15.587007493" cy="31.510629151000003" fill="white" r="0.2699999934" /><circle cx="15.218503564999999" cy="31.142125222999997" fill="white" r="0.2699999934" /><circle cx="15.027164986999999" cy="30.773621295" fill="white" r="0.2699999934" /><circle cx="14.849999637" cy="30.213778788999996" fill="white" r="0.2699999934" /><circle cx="14.849999637" cy="29.296062276" fill="white" r="0.2699999934" /><circle cx="15.027164986999999" cy="28.746849690999998" fill="white" r="0.2699999934" /><circle cx="15.218503564999999" cy="28.378345763000002" fill="white" r="0.2699999934" /><circle cx="15.587007493" cy="28.009841835" fill="white" r="0.2699999934" /><circle cx="15.955511421" cy="27.829133178" fill="white" r="0.2699999934" /><circle cx="16.692519277000002" cy="27.829133178" fill="white" r="0.2699999934" /><circle cx="17.053936591" cy="28.009841835" fill="white" r="0.2699999934" /><circle cx="17.422440519" cy="28.378345763000002" fill="white" r="0.2699999934" /><circle cx="17.610235789999997" cy="28.746849690999998" fill="white" r="0.2699999934" /><circle cx="20.661023117000003" cy="31.691337808000004" fill="white" r="0.2699999934" /><circle cx="18.825590091" cy="29.115353619" fill="white" r="0.2699999934" /><circle cx="21.589369551" cy="29.115353619" fill="white" r="0.2699999934" /><circle cx="20.661023117000003" cy="31.691337808000004" fill="white" r="0.2699999934" /><circle cx="20.661023117000003" cy="27.829133178" fill="white" r="0.2699999934" /><circle cx="88.199997844" cy="42.041337555" fill="white" r="0.2699999934" /><circle cx="88.199997844" cy="38.179132925" fill="white" r="0.2699999934" /><circle cx="88.199997844" cy="42.041337555" fill="white" r="0.2699999934" /><circle cx="89.48621828499999" cy="42.041337555" fill="white" r="0.2699999934" /><circle cx="90.042517484" cy="41.860628898" fill="white" r="0.2699999934" /><circle cx="90.403934798" cy="41.492124970000006" fill="white" r="0.2699999934" /><circle cx="90.591730069" cy="41.123621041999996" fill="white" r="0.2699999934" /><circle cx="90.77243872599999" cy="40.563778536" fill="white" r="0.2699999934" /><circle cx="90.77243872599999" cy="39.646062023" fill="white" r="0.2699999934" /><circle cx="90.591730069" cy="39.096849438" fill="white" r="0.2699999934" /><circle cx="90.403934798" cy="38.72834551" fill="white" r="0.2699999934" /><circle cx="90.042517484" cy="38.359841582" fill="white" r="0.2699999934" /><circle cx="89.48621828499999" cy="38.179132925" fill="white" r="0.2699999934" /><circle cx="88.199997844" cy="38.179132925" fill="white" r="0.2699999934" /><circle cx="91.987793027" cy="41.304329699" fill="white" r="0.2699999934" /><circle cx="92.356296955" cy="41.492124970000006" fill="white" r="0.2699999934" /><circle cx="92.912596154" cy="42.041337555" fill="white" r="0.2699999934" /><circle cx="92.912596154" cy="38.179132925" fill="white" r="0.2699999934" /><circle cx="92.699997734" cy="92.441336323" fill="white" r="0.2699999934" /><circle cx="92.699997734" cy="88.579131693" fill="white" r="0.2699999934" /><circle cx="92.699997734" cy="92.441336323" fill="white" r="0.2699999934" /><circle cx="93.98621817499999" cy="92.441336323" fill="white" r="0.2699999934" /><circle cx="94.542517374" cy="92.260627666" fill="white" r="0.2699999934" /><circle cx="94.90393468799999" cy="91.89212373800001" fill="white" r="0.2699999934" /><circle cx="95.091729959" cy="91.52361981" fill="white" r="0.2699999934" /><circle cx="95.272438616" cy="90.963777304" fill="white" r="0.2699999934" /><circle cx="95.272438616" cy="90.046060791" fill="white" r="0.2699999934" /><circle cx="95.091729959" cy="89.496848206" fill="white" r="0.2699999934" /><circle cx="94.90393468799999" cy="89.128344278" fill="white" r="0.2699999934" /><circle cx="94.542517374" cy="88.75984035" fill="white" r="0.2699999934" /><circle cx="93.98621817499999" cy="88.579131693" fill="white" r="0.2699999934" /><circle cx="92.699997734" cy="88.579131693" fill="white" r="0.2699999934" /><circle cx="96.67558818799999" cy="91.52361981" fill="white" r="0.2699999934" /><circle cx="96.67558818799999" cy="91.704328467" fill="white" r="0.2699999934" /><circle cx="96.856296845" cy="92.07283239499999" fill="white" r="0.2699999934" /><circle cx="97.044092116" cy="92.260627666" fill="white" r="0.2699999934" /><circle cx="97.412596044" cy="92.441336323" fill="white" r="0.2699999934" /><circle cx="98.142517286" cy="92.441336323" fill="white" r="0.2699999934" /><circle cx="98.511021214" cy="92.260627666" fill="white" r="0.2699999934" /><circle cx="98.70235979200001" cy="92.07283239499999" fill="white" r="0.2699999934" /><circle cx="98.883068449" cy="91.704328467" fill="white" r="0.2699999934" /><circle cx="98.883068449" cy="91.332281232" fill="white" r="0.2699999934" /><circle cx="98.70235979200001" cy="90.963777304" fill="white" r="0.2699999934" /><circle cx="98.333855864" cy="90.414564719" fill="white" r="0.2699999934" /><circle cx="96.48779291700001" cy="88.579131693" fill="white" r="0.2699999934" /><circle cx="99.07086372" cy="88.579131693" fill="white" r="0.2699999934" /><circle cx="96.76771416999999" cy="65.342124387" fill="white" r="0.2699999934" /><circle cx="97.136218098" cy="65.529919658" fill="white" r="0.2699999934" /><circle cx="97.504722026" cy="65.89842358599999" fill="white" r="0.2699999934" /><circle cx="97.68543068299999" cy="66.2598409" fill="white" r="0.2699999934" /><circle cx="97.68543068299999" cy="66.996848756" fill="white" r="0.2699999934" /><circle cx="97.504722026" cy="67.365352684" fill="white" r="0.2699999934" /><circle cx="97.136218098" cy="67.733856612" fill="white" r="0.2699999934" /><circle cx="96.76771416999999" cy="67.92519519000001" fill="white" r="0.2699999934" /><circle cx="96.20787166400001" cy="68.105903847" fill="white" r="0.2699999934" /><circle cx="95.29015515100001" cy="68.105903847" fill="white" r="0.2699999934" /><circle cx="94.740942566" cy="67.92519519000001" fill="white" r="0.2699999934" /><circle cx="94.372438638" cy="67.733856612" fill="white" r="0.2699999934" /><circle cx="94.00393471000001" cy="67.365352684" fill="white" r="0.2699999934" /><circle cx="93.823226053" cy="66.996848756" fill="white" r="0.2699999934" /><circle cx="93.823226053" cy="66.2598409" fill="white" r="0.2699999934" /><circle cx="94.00393471000001" cy="65.89842358599999" fill="white" r="0.2699999934" /><circle cx="94.372438638" cy="65.529919658" fill="white" r="0.2699999934" /><circle cx="94.740942566" cy="65.342124387" fill="white" r="0.2699999934" /><circle cx="96.94487952" cy="64.126770086" fill="white" r="0.2699999934" /><circle cx="97.136218098" cy="63.758266158" fill="white" r="0.2699999934" /><circle cx="97.68543068299999" cy="63.20905357299999" fill="white" r="0.2699999934" /><circle cx="93.823226053" cy="63.20905357299999" fill="white" r="0.2699999934" /><circle cx="90.510234008" cy="98.72361963399999" fill="white" r="0.2699999934" /><circle cx="90.322438737" cy="99.092123562" fill="white" r="0.2699999934" /><circle cx="89.953934809" cy="99.46062749000001" fill="white" r="0.2699999934" /><circle cx="89.592517495" cy="99.64133614699999" fill="white" r="0.2699999934" /><circle cx="88.855509639" cy="99.64133614699999" fill="white" r="0.2699999934" /><circle cx="88.487005711" cy="99.46062749000001" fill="white" r="0.2699999934" /><circle cx="88.118501783" cy="99.092123562" fill="white" r="0.2699999934" /><circle cx="87.927163205" cy="98.72361963399999" fill="white" r="0.2699999934" /><circle cx="87.749997855" cy="98.163777128" fill="white" r="0.2699999934" /><circle cx="87.749997855" cy="97.246060615" fill="white" r="0.2699999934" /><circle cx="87.927163205" cy="96.69684803" fill="white" r="0.2699999934" /><circle cx="88.118501783" cy="96.328344102" fill="white" r="0.2699999934" /><circle cx="88.487005711" cy="95.959840174" fill="white" r="0.2699999934" /><circle cx="88.855509639" cy="95.779131517" fill="white" r="0.2699999934" /><circle cx="89.592517495" cy="95.779131517" fill="white" r="0.2699999934" /><circle cx="89.953934809" cy="95.959840174" fill="white" r="0.2699999934" /><circle cx="90.322438737" cy="96.328344102" fill="white" r="0.2699999934" /><circle cx="90.510234008" cy="96.69684803" fill="white" r="0.2699999934" /><circle cx="92.094092237" cy="99.64133614699999" fill="white" r="0.2699999934" /><circle cx="94.120863841" cy="99.64133614699999" fill="white" r="0.2699999934" /><circle cx="93.015352057" cy="98.163777128" fill="white" r="0.2699999934" /><circle cx="93.561021335" cy="98.163777128" fill="white" r="0.2699999934" /><circle cx="93.93306857" cy="97.983068471" fill="white" r="0.2699999934" /><circle cx="94.120863841" cy="97.805903121" fill="white" r="0.2699999934" /><circle cx="94.301572498" cy="97.246060615" fill="white" r="0.2699999934" /><circle cx="94.301572498" cy="96.87755668700001" fill="white" r="0.2699999934" /><circle cx="94.120863841" cy="96.328344102" fill="white" r="0.2699999934" /><circle cx="93.75235991299999" cy="95.959840174" fill="white" r="0.2699999934" /><circle cx="93.192517407" cy="95.779131517" fill="white" r="0.2699999934" /><circle cx="92.643304822" cy="95.779131517" fill="white" r="0.2699999934" /><circle cx="92.094092237" cy="95.959840174" fill="white" r="0.2699999934" /><circle cx="91.906296966" cy="96.14054883099999" fill="white" r="0.2699999934" /><circle cx="91.725588309" cy="96.509052759" fill="white" r="0.2699999934" /><circle cx="16.710235812" cy="44.723620954" fill="white" r="0.2699999934" /><circle cx="16.522440541" cy="45.092124882" fill="white" r="0.2699999934" /><circle cx="16.153936613" cy="45.46062881" fill="white" r="0.2699999934" /><circle cx="15.792519299" cy="45.641337467" fill="white" r="0.2699999934" /><circle cx="15.055511442999999" cy="45.641337467" fill="white" r="0.2699999934" /><circle cx="14.687007514999998" cy="45.46062881" fill="white" r="0.2699999934" /><circle cx="14.318503587" cy="45.092124882" fill="white" r="0.2699999934" /><circle cx="14.127165009" cy="44.723620954" fill="white" r="0.2699999934" /><circle cx="13.949999659" cy="44.163778448" fill="white" r="0.2699999934" /><circle cx="13.949999659" cy="43.246061935" fill="white" r="0.2699999934" /><circle cx="14.127165009" cy="42.69684935" fill="white" r="0.2699999934" /><circle cx="14.318503587" cy="42.328345422" fill="white" r="0.2699999934" /><circle cx="14.687007514999998" cy="41.959841494" fill="white" r="0.2699999934" /><circle cx="15.055511442999999" cy="41.779132837" fill="white" r="0.2699999934" /><circle cx="15.792519299" cy="41.779132837" fill="white" r="0.2699999934" /><circle cx="16.153936613" cy="41.959841494" fill="white" r="0.2699999934" /><circle cx="16.522440541" cy="42.328345422" fill="white" r="0.2699999934" /><circle cx="16.710235812" cy="42.69684935" fill="white" r="0.2699999934" /><circle cx="20.129527067" cy="45.641337467" fill="white" r="0.2699999934" /><circle cx="18.294094041" cy="45.641337467" fill="white" r="0.2699999934" /><circle cx="18.106298770000002" cy="43.986613098" fill="white" r="0.2699999934" /><circle cx="18.294094041" cy="44.163778448" fill="white" r="0.2699999934" /><circle cx="18.843306625999997" cy="44.355117026" fill="white" r="0.2699999934" /><circle cx="19.392519211" cy="44.355117026" fill="white" r="0.2699999934" /><circle cx="19.952361717000002" cy="44.163778448" fill="white" r="0.2699999934" /><circle cx="20.320865645" cy="43.805904440999996" fill="white" r="0.2699999934" /><circle cx="20.501574301999998" cy="43.246061935" fill="white" r="0.2699999934" /><circle cx="20.501574301999998" cy="42.877558007000005" fill="white" r="0.2699999934" /><circle cx="20.320865645" cy="42.328345422" fill="white" r="0.2699999934" /><circle cx="19.952361717000002" cy="41.959841494" fill="white" r="0.2699999934" /><circle cx="19.392519211" cy="41.779132837" fill="white" r="0.2699999934" /><circle cx="18.843306625999997" cy="41.779132837" fill="white" r="0.2699999934" /><circle cx="18.294094041" cy="41.959841494" fill="white" r="0.2699999934" /><circle cx="18.106298770000002" cy="42.140550151" fill="white" r="0.2699999934" /><circle cx="17.925590113000002" cy="42.509054079" fill="white" r="0.2699999934" /><path d="M46.34645556,101.441336103L46.34645556,98.677556643L46.527164217,98.128344058L46.895668144999995,97.75984013L47.455510651000004,97.579131473L47.824014579,97.579131473L48.373227164,97.75984013L48.741731092,98.128344058L48.922439749,98.677556643L48.922439749,101.441336103M50.134250742999996,100.70078494L50.506297978,100.892123518L51.062597177,101.441336103L51.062597177,97.579131473M109.36417055499999,65.342124387L109.73621779,65.529919658L110.10472171800001,65.901966893L110.28188706799999,66.2598409L110.28188706799999,66.996848756L110.10472171800001,67.368895991L109.73621779,67.737399919L109.36417055499999,67.92519519000001L108.80787135599999,68.105903847L107.890154843,68.105903847L107.340942258,67.92519519000001L106.97243833,67.737399919L106.603934402,67.368895991L106.423225745,66.996848756L106.423225745,66.2598409L106.603934402,65.901966893L106.97243833,65.529919658L107.340942258,65.342124387M109.36417055499999,63.946061429000004L109.544879212,63.946061429000004L109.91338314,63.758266158L110.10472171800001,63.577557501L110.28188706799999,63.20905357299999L110.28188706799999,62.472045717L110.10472171800001,62.103541789000005L109.91338314,61.922833131999994L109.544879212,61.735037860999995L109.176375284,61.735037860999995L108.80787135599999,61.922833131999994L108.258658771,62.29133706L106.423225745,64.126770086L106.423225745,61.554329204M17.610235789999997,30.773621295L17.422440519,31.142125222999997L17.053936591,31.510629151000003L16.692519277000002,31.691337808000004L15.955511421,31.691337808000004L15.587007493,31.510629151000003L15.218503564999999,31.142125222999997L15.027164986999999,30.773621295L14.849999637,30.213778788999996L14.849999637,29.296062276L15.027164986999999,28.746849690999998L15.218503564999999,28.378345763000002L15.587007493,28.009841835L15.955511421,27.829133178L16.692519277000002,27.829133178L17.053936591,28.009841835L17.422440519,28.378345763000002L17.610235789999997,28.746849690999998M20.661023117000003,31.691337808000004L18.825590091,29.115353619L21.589369551,29.115353619M20.661023117000003,31.691337808000004L20.661023117000003,27.829133178M88.199997844,42.041337555L88.199997844,38.179132925M88.199997844,42.041337555L89.48621828499999,42.041337555L90.042517484,41.860628898L90.403934798,41.492124970000006L90.591730069,41.123621041999996L90.77243872599999,40.563778536L90.77243872599999,39.646062023L90.591730069,39.096849438L90.403934798,38.72834551L90.042517484,38.359841582L89.48621828499999,38.179132925L88.199997844,38.179132925M91.987793027,41.304329699L92.356296955,41.492124970000006L92.912596154,42.041337555L92.912596154,38.179132925M92.699997734,92.441336323L92.699997734,88.579131693M92.699997734,92.441336323L93.98621817499999,92.441336323L94.542517374,92.260627666L94.90393468799999,91.89212373800001L95.091729959,91.52361981L95.272438616,90.963777304L95.272438616,90.046060791L95.091729959,89.496848206L94.90393468799999,89.128344278L94.542517374,88.75984035L93.98621817499999,88.579131693L92.699997734,88.579131693M96.67558818799999,91.52361981L96.67558818799999,91.704328467L96.856296845,92.07283239499999L97.044092116,92.260627666L97.412596044,92.441336323L98.142517286,92.441336323L98.511021214,92.260627666L98.70235979200001,92.07283239499999L98.883068449,91.704328467L98.883068449,91.332281232L98.70235979200001,90.963777304L98.333855864,90.414564719L96.48779291700001,88.579131693L99.07086372,88.579131693M96.76771416999999,65.342124387L97.136218098,65.529919658L97.504722026,65.89842358599999L97.68543068299999,66.2598409L97.68543068299999,66.996848756L97.504722026,67.365352684L97.136218098,67.733856612L96.76771416999999,67.92519519000001L96.20787166400001,68.105903847L95.29015515100001,68.105903847L94.740942566,67.92519519000001L94.372438638,67.733856612L94.00393471000001,67.365352684L93.823226053,66.996848756L93.823226053,66.2598409L94.00393471000001,65.89842358599999L94.372438638,65.529919658L94.740942566,65.342124387M96.94487952,64.126770086L97.136218098,63.758266158L97.68543068299999,63.20905357299999L93.823226053,63.20905357299999M90.510234008,98.72361963399999L90.322438737,99.092123562L89.953934809,99.46062749000001L89.592517495,99.64133614699999L88.855509639,99.64133614699999L88.487005711,99.46062749000001L88.118501783,99.092123562L87.927163205,98.72361963399999L87.749997855,98.163777128L87.749997855,97.246060615L87.927163205,96.69684803L88.118501783,96.328344102L88.487005711,95.959840174L88.855509639,95.779131517L89.592517495,95.779131517L89.953934809,95.959840174L90.322438737,96.328344102L90.510234008,96.69684803M92.094092237,99.64133614699999L94.120863841,99.64133614699999L93.015352057,98.163777128L93.561021335,98.163777128L93.93306857,97.983068471L94.120863841,97.805903121L94.301572498,97.246060615L94.301572498,96.87755668700001L94.120863841,96.328344102L93.75235991299999,95.959840174L93.192517407,95.779131517L92.643304822,95.779131517L92.094092237,95.959840174L91.906296966,96.14054883099999L91.725588309,96.509052759M16.710235812,44.723620954L16.522440541,45.092124882L16.153936613,45.46062881L15.792519299,45.641337467L15.055511442999999,45.641337467L14.687007514999998,45.46062881L14.318503587,45.092124882L14.127165009,44.723620954L13.949999659,44.163778448L13.949999659,43.246061935L14.127165009,42.69684935L14.318503587,42.328345422L14.687007514999998,41.959841494L15.055511442999999,41.779132837L15.792519299,41.779132837L16.153936613,41.959841494L16.522440541,42.328345422L16.710235812,42.69684935M20.129527067,45.641337467L18.294094041,45.641337467L18.106298770000002,43.986613098L18.294094041,44.163778448L18.843306625999997,44.355117026L19.392519211,44.355117026L19.952361717000002,44.163778448L20.320865645,43.805904440999996L20.501574301999998,43.246061935L20.501574301999998,42.877558007000005L20.320865645,42.328345422L19.952361717000002,41.959841494L19.392519211,41.779132837L18.843306625999997,41.779132837L18.294094041,41.959841494L18.106298770000002,42.140550151L17.925590113000002,42.509054079" fill="none" stroke="white" stroke-width="0.5399999868" /><path d="M20.607873511999998,25.774015118L18.481889312,26.128345818L18.481889312,5.222834518L20.253542812,5.9314959179999995L23.088188412,7.3488187179999995L24.505511212000002,8.411810818000001L25.214172612,9.829133618L26.277164712,10.892125717999999L26.631495412,12.309448518L26.985826111999998,13.018109918L20.607873511999998,13.018109918L20.607873511999998,18.687401118L26.985826111999998,18.687401118L26.277164712,20.813385317999998L25.568503312,22.230708118L24.505511212000002,23.293700217999998L23.442519112,24.002361618L22.379527012,25.065353718L20.607873511999998,25.774015118" fill="white" stroke="none" /><circle cx="65.88779366499999" cy="62.390549656000005" fill="black" r="0.5403543175" /><circle cx="19.799999516" cy="75.752360353" fill="black" r="0.5403543175" /><circle cx="65.88779366499999" cy="57.89054976600001" fill="black" r="0.5403543175" /><circle cx="80.486218505" cy="65.459053518" fill="black" r="0.5403543175" /><circle cx="94.949997679" cy="59.552360748999995" fill="black" r="0.5403543175" /><circle cx="77.949210693" cy="85.039368" fill="black" r="0.5403543175" /><circle cx="16.710235812" cy="44.202754825" fill="black" r="0.5403543175" /><circle cx="19.087794809" cy="52.940549887" fill="black" r="0.5403543175" /><circle cx="8.737795062" cy="90.294092281" fill="black" r="2.1242125465" /><circle cx="8.737795062" cy="79.494092545" fill="black" r="2.1242125465" /><circle cx="8.737795062" cy="68.694092809" fill="black" r="2.1242125465" /><circle cx="8.737795062" cy="58.344093062000006" fill="black" r="2.1242125465" /><circle cx="8.737795062" cy="47.544093325999995" fill="black" r="2.1242125465" /><circle cx="45.056691812" cy="8.766141518000001" fill="black" r="2.9055117399999997" /><circle cx="59.229919812000006" cy="8.766141518000001" fill="black" r="2.9055117399999997" /><circle cx="105.292910812" cy="26.482676518" fill="black" r="2.9055117399999997" /><circle cx="91.11968281200001" cy="26.482676518" fill="black" r="2.9055117399999997" /><circle cx="76.946454812" cy="26.482676518" fill="black" r="2.9055117399999997" /></svg>