M48
; DRILL file {KiCad (5.1.6)-1} date 09/18/20 20:46:03
; FORMAT={-:-/ absolute / metric / decimal}
; #@! TF.CreationDate,2020-09-18T20:46:03-04:00
; #@! TF.GenerationSoftware,Kicad,Pcbnew,(5.1.6)-1
FMAT,2
METRIC
T1C0.762
T2C1.000
%
G90
G05
T1
X124.6Y-74.625
X125.984Y-77.47
X127.368Y-74.625
X128.753Y-77.47
X130.137Y-74.625
X131.521Y-77.47
X132.905Y-74.625
X134.29Y-77.47
X135.674Y-74.625
X137.058Y-77.47
X138.443Y-74.625
X139.827Y-77.47
X141.211Y-74.625
X142.596Y-77.47
X143.98Y-74.625
X145.364Y-77.47
X146.749Y-74.625
X148.133Y-77.47
X149.517Y-74.625
X150.901Y-77.47
X152.286Y-74.625
X153.67Y-77.47
X155.054Y-74.625
X156.439Y-77.47
X157.823Y-74.625
T2
X135.89Y-82.55
X135.89Y-85.09
X135.89Y-87.63
X135.89Y-90.17
X135.89Y-92.71
X135.89Y-95.25
X135.89Y-97.79
X135.89Y-100.33
X135.89Y-102.87
X135.89Y-105.41
X135.89Y-107.95
X135.89Y-110.49
X135.89Y-113.03
X135.89Y-115.57
X135.89Y-118.11
X151.13Y-82.55
X151.13Y-85.09
X151.13Y-87.63
X151.13Y-90.17
X151.13Y-92.71
X151.13Y-95.25
X151.13Y-97.79
X151.13Y-100.33
X151.13Y-102.87
X151.13Y-105.41
X151.13Y-107.95
X151.13Y-110.49
X151.13Y-113.03
X151.13Y-115.57
X151.13Y-118.11
T0
M30
