%TF.GenerationSoftware,KiCad,Pcbnew,(5.1.6)-1*%
%TF.CreationDate,2020-09-18T20:45:58-04:00*%
%TF.ProjectId,grbl_adapter,6772626c-5f61-4646-9170-7465722e6b69,rev?*%
%TF.SameCoordinates,Original*%
%TF.FileFunction,Legend,Top*%
%TF.FilePolarity,Positive*%
%FSLAX46Y46*%
G04 Gerber Fmt 4.6, Leading zero omitted, Abs format (unit mm)*
G04 Created by KiCad (PCBNEW (5.1.6)-1) date 2020-09-18 20:45:58*
%MOMM*%
%LPD*%
G01*
G04 APERTURE LIST*
%ADD10C,0.120000*%
%ADD11C,0.150000*%
G04 APERTURE END LIST*
D10*
%TO.C,U1*%
X160159700Y-73355200D02*
X122059700Y-73355200D01*
X157619700Y-79705200D02*
X160159700Y-73355200D01*
X124599700Y-79705200D02*
X157619700Y-79705200D01*
X122059700Y-73355200D02*
X124599700Y-79705200D01*
%TO.C,A0*%
X152530000Y-78610000D02*
X134490000Y-78610000D01*
X152530000Y-122050000D02*
X152530000Y-78610000D01*
X134490000Y-122050000D02*
X152530000Y-122050000D01*
X137160000Y-119380000D02*
X134490000Y-119380000D01*
X137160000Y-83820000D02*
X137160000Y-119380000D01*
X137160000Y-83820000D02*
X134490000Y-83820000D01*
X149860000Y-119380000D02*
X152530000Y-119380000D01*
X149860000Y-81280000D02*
X149860000Y-119380000D01*
X149860000Y-81280000D02*
X152530000Y-81280000D01*
X134490000Y-78610000D02*
X134490000Y-81280000D01*
X134490000Y-83820000D02*
X134490000Y-122050000D01*
X137160000Y-81280000D02*
X134490000Y-81280000D01*
X137160000Y-83820000D02*
X137160000Y-81280000D01*
%TO.C,U1*%
D11*
X133997795Y-77117580D02*
X133997795Y-77927104D01*
X134045414Y-78022342D01*
X134093033Y-78069961D01*
X134188271Y-78117580D01*
X134378747Y-78117580D01*
X134473985Y-78069961D01*
X134521604Y-78022342D01*
X134569223Y-77927104D01*
X134569223Y-77117580D01*
X135569223Y-78117580D02*
X134997795Y-78117580D01*
X135283509Y-78117580D02*
X135283509Y-77117580D01*
X135188271Y-77260438D01*
X135093033Y-77355676D01*
X134997795Y-77403295D01*
%TO.C,A0*%
X142795714Y-77636666D02*
X143271904Y-77636666D01*
X142700476Y-77922380D02*
X143033809Y-76922380D01*
X143367142Y-77922380D01*
X143890952Y-76922380D02*
X143986190Y-76922380D01*
X144081428Y-76970000D01*
X144129047Y-77017619D01*
X144176666Y-77112857D01*
X144224285Y-77303333D01*
X144224285Y-77541428D01*
X144176666Y-77731904D01*
X144129047Y-77827142D01*
X144081428Y-77874761D01*
X143986190Y-77922380D01*
X143890952Y-77922380D01*
X143795714Y-77874761D01*
X143748095Y-77827142D01*
X143700476Y-77731904D01*
X143652857Y-77541428D01*
X143652857Y-77303333D01*
X143700476Y-77112857D01*
X143748095Y-77017619D01*
X143795714Y-76970000D01*
X143890952Y-76922380D01*
%TD*%
M02*
