%TF.GenerationSoftware,KiCad,Pcbnew,(5.1.6)-1*%
%TF.CreationDate,2020-09-18T20:45:58-04:00*%
%TF.ProjectId,grbl_adapter,6772626c-5f61-4646-9170-7465722e6b69,rev?*%
%TF.SameCoordinates,Original*%
%TF.FileFunction,Copper,L1,Top*%
%TF.FilePolarity,Positive*%
%FSLAX46Y46*%
G04 Gerber Fmt 4.6, Leading zero omitted, Abs format (unit mm)*
G04 Created by KiCad (PCBNEW (5.1.6)-1) date 2020-09-18 20:45:58*
%MOMM*%
%LPD*%
G01*
G04 APERTURE LIST*
%TA.AperFunction,ComponentPad*%
%ADD10C,1.524000*%
%TD*%
%TA.AperFunction,ComponentPad*%
%ADD11O,1.600000X1.600000*%
%TD*%
%TA.AperFunction,ComponentPad*%
%ADD12R,1.600000X1.600000*%
%TD*%
%TA.AperFunction,Conductor*%
%ADD13C,0.250000*%
%TD*%
%TA.AperFunction,NonConductor*%
%ADD14C,0.254000*%
%TD*%
G04 APERTURE END LIST*
D10*
%TO.P,U1,1*%
%TO.N,Net-(U1-Pad1)*%
X124599700Y-74625200D03*
%TO.P,U1,2*%
%TO.N,Net-(U1-Pad2)*%
X127368300Y-74625200D03*
%TO.P,U1,3*%
%TO.N,Net-(U1-Pad3)*%
X130136900Y-74625200D03*
%TO.P,U1,4*%
%TO.N,Net-(A0-Pad19)*%
X132905500Y-74625200D03*
%TO.P,U1,5*%
%TO.N,Net-(U1-Pad5)*%
X135674100Y-74625200D03*
%TO.P,U1,6*%
%TO.N,Net-(U1-Pad6)*%
X138442700Y-74625200D03*
%TO.P,U1,7*%
%TO.N,Net-(A0-Pad9)*%
X141211300Y-74625200D03*
%TO.P,U1,8*%
%TO.N,Net-(A0-Pad6)*%
X143979900Y-74625200D03*
%TO.P,U1,9*%
%TO.N,Net-(A0-Pad10)*%
X146748500Y-74625200D03*
%TO.P,U1,10*%
%TO.N,Net-(A0-Pad7)*%
X149517100Y-74625200D03*
%TO.P,U1,11*%
%TO.N,Net-(A0-Pad8)*%
X152285700Y-74625200D03*
%TO.P,U1,12*%
%TO.N,Net-(A0-Pad5)*%
X155054300Y-74625200D03*
%TO.P,U1,13*%
%TO.N,Net-(U1-Pad13)*%
X157822900Y-74625200D03*
%TO.P,U1,14*%
%TO.N,Net-(U1-Pad14)*%
X125984000Y-77470000D03*
%TO.P,U1,15*%
%TO.N,Net-(U1-Pad15)*%
X128752600Y-77470000D03*
%TO.P,U1,16*%
%TO.N,Net-(U1-Pad16)*%
X131521200Y-77470000D03*
%TO.P,U1,17*%
%TO.N,GND*%
X134289800Y-77470000D03*
%TO.P,U1,18*%
%TO.N,Net-(U1-Pad18)*%
X137058400Y-77470000D03*
%TO.P,U1,19*%
%TO.N,Net-(U1-Pad19)*%
X139827000Y-77470000D03*
%TO.P,U1,20*%
%TO.N,Net-(U1-Pad20)*%
X142595600Y-77470000D03*
%TO.P,U1,21*%
%TO.N,Net-(U1-Pad21)*%
X145364200Y-77470000D03*
%TO.P,U1,22*%
%TO.N,Net-(U1-Pad22)*%
X148132800Y-77470000D03*
%TO.P,U1,23*%
%TO.N,Net-(U1-Pad23)*%
X150901400Y-77470000D03*
%TO.P,U1,24*%
%TO.N,Net-(U1-Pad24)*%
X153670000Y-77470000D03*
%TO.P,U1,25*%
%TO.N,Net-(U1-Pad25)*%
X156438600Y-77470000D03*
%TD*%
D11*
%TO.P,A0,16*%
%TO.N,Net-(A0-Pad16)*%
X151130000Y-118110000D03*
%TO.P,A0,15*%
%TO.N,Net-(A0-Pad15)*%
X135890000Y-118110000D03*
%TO.P,A0,30*%
%TO.N,Net-(A0-Pad30)*%
X151130000Y-82550000D03*
%TO.P,A0,14*%
%TO.N,Net-(A0-Pad14)*%
X135890000Y-115570000D03*
%TO.P,A0,29*%
%TO.N,GND*%
X151130000Y-85090000D03*
%TO.P,A0,13*%
%TO.N,Net-(A0-Pad13)*%
X135890000Y-113030000D03*
%TO.P,A0,28*%
%TO.N,Net-(A0-Pad28)*%
X151130000Y-87630000D03*
%TO.P,A0,12*%
%TO.N,Net-(A0-Pad12)*%
X135890000Y-110490000D03*
%TO.P,A0,27*%
%TO.N,Net-(A0-Pad27)*%
X151130000Y-90170000D03*
%TO.P,A0,11*%
%TO.N,Net-(A0-Pad11)*%
X135890000Y-107950000D03*
%TO.P,A0,26*%
%TO.N,Net-(A0-Pad26)*%
X151130000Y-92710000D03*
%TO.P,A0,10*%
%TO.N,Net-(A0-Pad10)*%
X135890000Y-105410000D03*
%TO.P,A0,25*%
%TO.N,Net-(A0-Pad25)*%
X151130000Y-95250000D03*
%TO.P,A0,9*%
%TO.N,Net-(A0-Pad9)*%
X135890000Y-102870000D03*
%TO.P,A0,24*%
%TO.N,Net-(A0-Pad24)*%
X151130000Y-97790000D03*
%TO.P,A0,8*%
%TO.N,Net-(A0-Pad8)*%
X135890000Y-100330000D03*
%TO.P,A0,23*%
%TO.N,Net-(A0-Pad23)*%
X151130000Y-100330000D03*
%TO.P,A0,7*%
%TO.N,Net-(A0-Pad7)*%
X135890000Y-97790000D03*
%TO.P,A0,22*%
%TO.N,Net-(A0-Pad22)*%
X151130000Y-102870000D03*
%TO.P,A0,6*%
%TO.N,Net-(A0-Pad6)*%
X135890000Y-95250000D03*
%TO.P,A0,21*%
%TO.N,Net-(A0-Pad21)*%
X151130000Y-105410000D03*
%TO.P,A0,5*%
%TO.N,Net-(A0-Pad5)*%
X135890000Y-92710000D03*
%TO.P,A0,20*%
%TO.N,Net-(A0-Pad20)*%
X151130000Y-107950000D03*
%TO.P,A0,4*%
%TO.N,GND*%
X135890000Y-90170000D03*
%TO.P,A0,19*%
%TO.N,Net-(A0-Pad19)*%
X151130000Y-110490000D03*
%TO.P,A0,3*%
%TO.N,Net-(A0-Pad3)*%
X135890000Y-87630000D03*
%TO.P,A0,18*%
%TO.N,Net-(A0-Pad18)*%
X151130000Y-113030000D03*
%TO.P,A0,2*%
%TO.N,Net-(A0-Pad2)*%
X135890000Y-85090000D03*
%TO.P,A0,17*%
%TO.N,Net-(A0-Pad17)*%
X151130000Y-115570000D03*
D12*
%TO.P,A0,1*%
%TO.N,Net-(A0-Pad1)*%
X135890000Y-82550000D03*
%TD*%
D13*
%TO.N,Net-(A0-Pad10)*%
X135349999Y-89044999D02*
X134314990Y-90080008D01*
X134314990Y-103834990D02*
X135890000Y-105410000D01*
X134314990Y-90080008D02*
X134314990Y-103834990D01*
X136140003Y-89044999D02*
X135349999Y-89044999D01*
X146748500Y-78436502D02*
X136140003Y-89044999D01*
X146748500Y-74625200D02*
X146748500Y-78436502D01*
%TO.N,Net-(A0-Pad8)*%
X150589999Y-81424999D02*
X137015001Y-94999997D01*
X151323763Y-81424999D02*
X150589999Y-81424999D01*
X137015001Y-99204999D02*
X135890000Y-100330000D01*
X154757001Y-77991761D02*
X151323763Y-81424999D01*
X154757001Y-76531261D02*
X154757001Y-77991761D01*
X156141301Y-75146961D02*
X154757001Y-76531261D01*
X156141301Y-74103439D02*
X156141301Y-75146961D01*
X137015001Y-94999997D02*
X137015001Y-99204999D01*
X155576061Y-73538199D02*
X156141301Y-74103439D01*
X153372701Y-73538199D02*
X155576061Y-73538199D01*
X152285700Y-74625200D02*
X153372701Y-73538199D01*
%TO.N,Net-(A0-Pad7)*%
X134764999Y-96664999D02*
X135890000Y-97790000D01*
X134764999Y-92169999D02*
X134764999Y-96664999D01*
X135349999Y-91584999D02*
X134764999Y-92169999D01*
X136430001Y-91584999D02*
X135349999Y-91584999D01*
X149517100Y-78497900D02*
X136430001Y-91584999D01*
X149517100Y-74625200D02*
X149517100Y-78497900D01*
%TO.N,Net-(A0-Pad5)*%
X137270162Y-92710000D02*
X135890000Y-92710000D01*
X151988401Y-77991761D02*
X137270162Y-92710000D01*
X151988401Y-76613469D02*
X151988401Y-77991761D01*
X153976670Y-74625200D02*
X151988401Y-76613469D01*
X155054300Y-74625200D02*
X153976670Y-74625200D01*
%TD*%
D14*
G36*
X158867869Y-73064722D02*
G01*
X158981246Y-73098953D01*
X159085819Y-73154555D01*
X159177596Y-73229407D01*
X159253091Y-73320664D01*
X159309419Y-73424844D01*
X159344440Y-73537976D01*
X159360001Y-73686031D01*
X159360000Y-79977721D01*
X159345278Y-80127869D01*
X159311047Y-80241246D01*
X159255446Y-80345817D01*
X159180594Y-80437595D01*
X159089335Y-80513091D01*
X158985160Y-80569419D01*
X158872024Y-80604440D01*
X158723979Y-80620000D01*
X157447581Y-80620000D01*
X157419135Y-80622802D01*
X157411318Y-80622747D01*
X157402147Y-80623646D01*
X157155644Y-80649554D01*
X157097028Y-80661586D01*
X157038284Y-80672792D01*
X157029462Y-80675456D01*
X156792686Y-80748751D01*
X156737555Y-80771926D01*
X156682080Y-80794339D01*
X156673944Y-80798666D01*
X156455914Y-80916554D01*
X156406346Y-80949988D01*
X156356265Y-80982760D01*
X156349124Y-80988584D01*
X156158144Y-81146577D01*
X156116005Y-81189012D01*
X156073255Y-81230875D01*
X156067381Y-81237976D01*
X155910727Y-81430054D01*
X155877655Y-81479831D01*
X155843826Y-81529237D01*
X155839444Y-81537343D01*
X155723081Y-81756191D01*
X155700298Y-81811468D01*
X155676721Y-81866475D01*
X155673997Y-81875278D01*
X155602357Y-82112559D01*
X155590736Y-82171246D01*
X155578300Y-82229752D01*
X155577337Y-82238917D01*
X155553150Y-82485595D01*
X155553150Y-82485608D01*
X155550001Y-82517581D01*
X155550000Y-119347721D01*
X155535278Y-119497869D01*
X155501047Y-119611246D01*
X155445446Y-119715817D01*
X155370594Y-119807595D01*
X155279335Y-119883091D01*
X155175160Y-119939419D01*
X155062024Y-119974440D01*
X154913979Y-119990000D01*
X132112279Y-119990000D01*
X131962131Y-119975278D01*
X131848754Y-119941047D01*
X131744183Y-119885446D01*
X131652405Y-119810594D01*
X131576909Y-119719335D01*
X131520581Y-119615160D01*
X131485560Y-119502024D01*
X131470000Y-119353979D01*
X131470000Y-82517581D01*
X131467198Y-82489135D01*
X131467253Y-82481318D01*
X131466354Y-82472147D01*
X131440446Y-82225644D01*
X131428414Y-82167028D01*
X131417208Y-82108284D01*
X131414544Y-82099462D01*
X131341249Y-81862686D01*
X131318074Y-81807555D01*
X131295661Y-81752080D01*
X131291334Y-81743944D01*
X131173446Y-81525914D01*
X131140012Y-81476346D01*
X131107240Y-81426265D01*
X131101416Y-81419124D01*
X130943423Y-81228144D01*
X130900988Y-81186005D01*
X130859125Y-81143255D01*
X130852024Y-81137381D01*
X130659946Y-80980727D01*
X130610169Y-80947655D01*
X130560763Y-80913826D01*
X130552657Y-80909444D01*
X130333809Y-80793081D01*
X130278532Y-80770298D01*
X130223525Y-80746721D01*
X130214722Y-80743997D01*
X129977441Y-80672357D01*
X129918754Y-80660736D01*
X129860248Y-80648300D01*
X129851085Y-80647337D01*
X129851083Y-80647337D01*
X129604405Y-80623150D01*
X129604402Y-80623150D01*
X129572419Y-80620000D01*
X124492279Y-80620000D01*
X124342131Y-80605278D01*
X124228754Y-80571047D01*
X124124183Y-80515446D01*
X124032405Y-80440594D01*
X123956909Y-80349335D01*
X123900581Y-80245160D01*
X123865560Y-80132024D01*
X123850000Y-79983979D01*
X123850000Y-75804423D01*
X123937973Y-75863205D01*
X124192210Y-75968514D01*
X124462108Y-76022200D01*
X124737292Y-76022200D01*
X125007190Y-75968514D01*
X125261427Y-75863205D01*
X125490235Y-75710320D01*
X125684820Y-75515735D01*
X125837705Y-75286927D01*
X125943014Y-75032690D01*
X125984000Y-74826639D01*
X126024986Y-75032690D01*
X126130295Y-75286927D01*
X126283180Y-75515735D01*
X126477765Y-75710320D01*
X126706573Y-75863205D01*
X126960810Y-75968514D01*
X127230708Y-76022200D01*
X127505892Y-76022200D01*
X127775790Y-75968514D01*
X128030027Y-75863205D01*
X128258835Y-75710320D01*
X128453420Y-75515735D01*
X128606305Y-75286927D01*
X128711614Y-75032690D01*
X128752600Y-74826639D01*
X128793586Y-75032690D01*
X128898895Y-75286927D01*
X129051780Y-75515735D01*
X129246365Y-75710320D01*
X129475173Y-75863205D01*
X129729410Y-75968514D01*
X129999308Y-76022200D01*
X130274492Y-76022200D01*
X130544390Y-75968514D01*
X130798627Y-75863205D01*
X131027435Y-75710320D01*
X131222020Y-75515735D01*
X131374905Y-75286927D01*
X131480214Y-75032690D01*
X131521200Y-74826639D01*
X131562186Y-75032690D01*
X131667495Y-75286927D01*
X131820380Y-75515735D01*
X132014965Y-75710320D01*
X132243773Y-75863205D01*
X132498010Y-75968514D01*
X132767908Y-76022200D01*
X133043092Y-76022200D01*
X133312990Y-75968514D01*
X133567227Y-75863205D01*
X133796035Y-75710320D01*
X133990620Y-75515735D01*
X134143505Y-75286927D01*
X134248814Y-75032690D01*
X134289800Y-74826639D01*
X134330786Y-75032690D01*
X134436095Y-75286927D01*
X134588980Y-75515735D01*
X134783565Y-75710320D01*
X135012373Y-75863205D01*
X135266610Y-75968514D01*
X135536508Y-76022200D01*
X135811692Y-76022200D01*
X136081590Y-75968514D01*
X136335827Y-75863205D01*
X136564635Y-75710320D01*
X136759220Y-75515735D01*
X136912105Y-75286927D01*
X137017414Y-75032690D01*
X137058400Y-74826639D01*
X137099386Y-75032690D01*
X137204695Y-75286927D01*
X137357580Y-75515735D01*
X137552165Y-75710320D01*
X137780973Y-75863205D01*
X138035210Y-75968514D01*
X138305108Y-76022200D01*
X138580292Y-76022200D01*
X138850190Y-75968514D01*
X139104427Y-75863205D01*
X139333235Y-75710320D01*
X139527820Y-75515735D01*
X139680705Y-75286927D01*
X139786014Y-75032690D01*
X139827000Y-74826639D01*
X139867986Y-75032690D01*
X139973295Y-75286927D01*
X140126180Y-75515735D01*
X140320765Y-75710320D01*
X140549573Y-75863205D01*
X140803810Y-75968514D01*
X141073708Y-76022200D01*
X141348892Y-76022200D01*
X141618790Y-75968514D01*
X141873027Y-75863205D01*
X142101835Y-75710320D01*
X142296420Y-75515735D01*
X142449305Y-75286927D01*
X142554614Y-75032690D01*
X142595600Y-74826639D01*
X142636586Y-75032690D01*
X142741895Y-75286927D01*
X142894780Y-75515735D01*
X143089365Y-75710320D01*
X143318173Y-75863205D01*
X143572410Y-75968514D01*
X143842308Y-76022200D01*
X144117492Y-76022200D01*
X144387390Y-75968514D01*
X144641627Y-75863205D01*
X144870435Y-75710320D01*
X145065020Y-75515735D01*
X145217905Y-75286927D01*
X145323214Y-75032690D01*
X145364200Y-74826639D01*
X145405186Y-75032690D01*
X145510495Y-75286927D01*
X145663380Y-75515735D01*
X145857965Y-75710320D01*
X145988500Y-75797541D01*
X145988500Y-76216492D01*
X145771690Y-76126686D01*
X145501792Y-76073000D01*
X145226608Y-76073000D01*
X144956710Y-76126686D01*
X144702473Y-76231995D01*
X144473665Y-76384880D01*
X144279080Y-76579465D01*
X144126195Y-76808273D01*
X144020886Y-77062510D01*
X143979900Y-77268561D01*
X143938914Y-77062510D01*
X143833605Y-76808273D01*
X143680720Y-76579465D01*
X143486135Y-76384880D01*
X143257327Y-76231995D01*
X143003090Y-76126686D01*
X142733192Y-76073000D01*
X142458008Y-76073000D01*
X142188110Y-76126686D01*
X141933873Y-76231995D01*
X141705065Y-76384880D01*
X141510480Y-76579465D01*
X141357595Y-76808273D01*
X141252286Y-77062510D01*
X141211300Y-77268561D01*
X141170314Y-77062510D01*
X141065005Y-76808273D01*
X140912120Y-76579465D01*
X140717535Y-76384880D01*
X140488727Y-76231995D01*
X140234490Y-76126686D01*
X139964592Y-76073000D01*
X139689408Y-76073000D01*
X139419510Y-76126686D01*
X139165273Y-76231995D01*
X138936465Y-76384880D01*
X138741880Y-76579465D01*
X138588995Y-76808273D01*
X138483686Y-77062510D01*
X138442700Y-77268561D01*
X138401714Y-77062510D01*
X138296405Y-76808273D01*
X138143520Y-76579465D01*
X137948935Y-76384880D01*
X137720127Y-76231995D01*
X137465890Y-76126686D01*
X137195992Y-76073000D01*
X136920808Y-76073000D01*
X136650910Y-76126686D01*
X136396673Y-76231995D01*
X136167865Y-76384880D01*
X135973280Y-76579465D01*
X135820395Y-76808273D01*
X135715086Y-77062510D01*
X135674100Y-77268561D01*
X135633114Y-77062510D01*
X135527805Y-76808273D01*
X135374920Y-76579465D01*
X135180335Y-76384880D01*
X134951527Y-76231995D01*
X134697290Y-76126686D01*
X134427392Y-76073000D01*
X134152208Y-76073000D01*
X133882310Y-76126686D01*
X133628073Y-76231995D01*
X133399265Y-76384880D01*
X133204680Y-76579465D01*
X133051795Y-76808273D01*
X132946486Y-77062510D01*
X132905500Y-77268561D01*
X132864514Y-77062510D01*
X132759205Y-76808273D01*
X132606320Y-76579465D01*
X132411735Y-76384880D01*
X132182927Y-76231995D01*
X131928690Y-76126686D01*
X131658792Y-76073000D01*
X131383608Y-76073000D01*
X131113710Y-76126686D01*
X130859473Y-76231995D01*
X130630665Y-76384880D01*
X130436080Y-76579465D01*
X130283195Y-76808273D01*
X130177886Y-77062510D01*
X130136900Y-77268561D01*
X130095914Y-77062510D01*
X129990605Y-76808273D01*
X129837720Y-76579465D01*
X129643135Y-76384880D01*
X129414327Y-76231995D01*
X129160090Y-76126686D01*
X128890192Y-76073000D01*
X128615008Y-76073000D01*
X128345110Y-76126686D01*
X128090873Y-76231995D01*
X127862065Y-76384880D01*
X127667480Y-76579465D01*
X127514595Y-76808273D01*
X127409286Y-77062510D01*
X127368300Y-77268561D01*
X127327314Y-77062510D01*
X127222005Y-76808273D01*
X127069120Y-76579465D01*
X126874535Y-76384880D01*
X126645727Y-76231995D01*
X126391490Y-76126686D01*
X126121592Y-76073000D01*
X125846408Y-76073000D01*
X125576510Y-76126686D01*
X125322273Y-76231995D01*
X125093465Y-76384880D01*
X124898880Y-76579465D01*
X124745995Y-76808273D01*
X124640686Y-77062510D01*
X124587000Y-77332408D01*
X124587000Y-77607592D01*
X124640686Y-77877490D01*
X124745995Y-78131727D01*
X124898880Y-78360535D01*
X125093465Y-78555120D01*
X125322273Y-78708005D01*
X125576510Y-78813314D01*
X125846408Y-78867000D01*
X126121592Y-78867000D01*
X126391490Y-78813314D01*
X126645727Y-78708005D01*
X126874535Y-78555120D01*
X127069120Y-78360535D01*
X127222005Y-78131727D01*
X127327314Y-77877490D01*
X127368300Y-77671439D01*
X127409286Y-77877490D01*
X127514595Y-78131727D01*
X127667480Y-78360535D01*
X127862065Y-78555120D01*
X128090873Y-78708005D01*
X128345110Y-78813314D01*
X128615008Y-78867000D01*
X128890192Y-78867000D01*
X129160090Y-78813314D01*
X129414327Y-78708005D01*
X129643135Y-78555120D01*
X129837720Y-78360535D01*
X129990605Y-78131727D01*
X130095914Y-77877490D01*
X130136900Y-77671439D01*
X130177886Y-77877490D01*
X130283195Y-78131727D01*
X130436080Y-78360535D01*
X130630665Y-78555120D01*
X130859473Y-78708005D01*
X131113710Y-78813314D01*
X131383608Y-78867000D01*
X131658792Y-78867000D01*
X131928690Y-78813314D01*
X132182927Y-78708005D01*
X132411735Y-78555120D01*
X132606320Y-78360535D01*
X132759205Y-78131727D01*
X132864514Y-77877490D01*
X132905500Y-77671439D01*
X132946486Y-77877490D01*
X133051795Y-78131727D01*
X133204680Y-78360535D01*
X133399265Y-78555120D01*
X133628073Y-78708005D01*
X133882310Y-78813314D01*
X134152208Y-78867000D01*
X134427392Y-78867000D01*
X134697290Y-78813314D01*
X134951527Y-78708005D01*
X135180335Y-78555120D01*
X135374920Y-78360535D01*
X135527805Y-78131727D01*
X135633114Y-77877490D01*
X135674100Y-77671439D01*
X135715086Y-77877490D01*
X135820395Y-78131727D01*
X135973280Y-78360535D01*
X136167865Y-78555120D01*
X136396673Y-78708005D01*
X136650910Y-78813314D01*
X136920808Y-78867000D01*
X137195992Y-78867000D01*
X137465890Y-78813314D01*
X137720127Y-78708005D01*
X137948935Y-78555120D01*
X138143520Y-78360535D01*
X138296405Y-78131727D01*
X138401714Y-77877490D01*
X138442700Y-77671439D01*
X138483686Y-77877490D01*
X138588995Y-78131727D01*
X138741880Y-78360535D01*
X138936465Y-78555120D01*
X139165273Y-78708005D01*
X139419510Y-78813314D01*
X139689408Y-78867000D01*
X139964592Y-78867000D01*
X140234490Y-78813314D01*
X140488727Y-78708005D01*
X140717535Y-78555120D01*
X140912120Y-78360535D01*
X141065005Y-78131727D01*
X141170314Y-77877490D01*
X141211300Y-77671439D01*
X141252286Y-77877490D01*
X141357595Y-78131727D01*
X141510480Y-78360535D01*
X141705065Y-78555120D01*
X141933873Y-78708005D01*
X142188110Y-78813314D01*
X142458008Y-78867000D01*
X142733192Y-78867000D01*
X143003090Y-78813314D01*
X143257327Y-78708005D01*
X143486135Y-78555120D01*
X143680720Y-78360535D01*
X143833605Y-78131727D01*
X143938914Y-77877490D01*
X143979900Y-77671439D01*
X144020886Y-77877490D01*
X144126195Y-78131727D01*
X144279080Y-78360535D01*
X144473665Y-78555120D01*
X144702473Y-78708005D01*
X144956710Y-78813314D01*
X145226608Y-78867000D01*
X145243200Y-78867000D01*
X137160978Y-86949223D01*
X137004637Y-86715241D01*
X136804759Y-86515363D01*
X136572241Y-86360000D01*
X136804759Y-86204637D01*
X137004637Y-86004759D01*
X137161680Y-85769727D01*
X137269853Y-85508574D01*
X137325000Y-85231335D01*
X137325000Y-84948665D01*
X137269853Y-84671426D01*
X137161680Y-84410273D01*
X137004637Y-84175241D01*
X136806039Y-83976643D01*
X136814482Y-83975812D01*
X136934180Y-83939502D01*
X137044494Y-83880537D01*
X137141185Y-83801185D01*
X137220537Y-83704494D01*
X137279502Y-83594180D01*
X137315812Y-83474482D01*
X137328072Y-83350000D01*
X137328072Y-81750000D01*
X137315812Y-81625518D01*
X137279502Y-81505820D01*
X137220537Y-81395506D01*
X137141185Y-81298815D01*
X137044494Y-81219463D01*
X136934180Y-81160498D01*
X136814482Y-81124188D01*
X136690000Y-81111928D01*
X135090000Y-81111928D01*
X134965518Y-81124188D01*
X134845820Y-81160498D01*
X134735506Y-81219463D01*
X134638815Y-81298815D01*
X134559463Y-81395506D01*
X134500498Y-81505820D01*
X134464188Y-81625518D01*
X134451928Y-81750000D01*
X134451928Y-83350000D01*
X134464188Y-83474482D01*
X134500498Y-83594180D01*
X134559463Y-83704494D01*
X134638815Y-83801185D01*
X134735506Y-83880537D01*
X134845820Y-83939502D01*
X134965518Y-83975812D01*
X134973961Y-83976643D01*
X134775363Y-84175241D01*
X134618320Y-84410273D01*
X134510147Y-84671426D01*
X134455000Y-84948665D01*
X134455000Y-85231335D01*
X134510147Y-85508574D01*
X134618320Y-85769727D01*
X134775363Y-86004759D01*
X134975241Y-86204637D01*
X135207759Y-86360000D01*
X134975241Y-86515363D01*
X134775363Y-86715241D01*
X134618320Y-86950273D01*
X134510147Y-87211426D01*
X134455000Y-87488665D01*
X134455000Y-87771335D01*
X134510147Y-88048574D01*
X134618320Y-88309727D01*
X134775363Y-88544759D01*
X134775400Y-88544796D01*
X133803992Y-89516204D01*
X133774989Y-89540007D01*
X133738065Y-89585000D01*
X133680016Y-89655732D01*
X133667059Y-89679973D01*
X133609444Y-89787762D01*
X133565987Y-89931023D01*
X133554990Y-90042676D01*
X133554990Y-90042686D01*
X133551314Y-90080008D01*
X133554990Y-90117330D01*
X133554991Y-103797658D01*
X133551314Y-103834990D01*
X133565988Y-103983975D01*
X133609444Y-104127236D01*
X133680016Y-104259266D01*
X133751191Y-104345992D01*
X133774990Y-104374991D01*
X133803988Y-104398789D01*
X134491312Y-105086114D01*
X134455000Y-105268665D01*
X134455000Y-105551335D01*
X134510147Y-105828574D01*
X134618320Y-106089727D01*
X134775363Y-106324759D01*
X134975241Y-106524637D01*
X135207759Y-106680000D01*
X134975241Y-106835363D01*
X134775363Y-107035241D01*
X134618320Y-107270273D01*
X134510147Y-107531426D01*
X134455000Y-107808665D01*
X134455000Y-108091335D01*
X134510147Y-108368574D01*
X134618320Y-108629727D01*
X134775363Y-108864759D01*
X134975241Y-109064637D01*
X135207759Y-109220000D01*
X134975241Y-109375363D01*
X134775363Y-109575241D01*
X134618320Y-109810273D01*
X134510147Y-110071426D01*
X134455000Y-110348665D01*
X134455000Y-110631335D01*
X134510147Y-110908574D01*
X134618320Y-111169727D01*
X134775363Y-111404759D01*
X134975241Y-111604637D01*
X135207759Y-111760000D01*
X134975241Y-111915363D01*
X134775363Y-112115241D01*
X134618320Y-112350273D01*
X134510147Y-112611426D01*
X134455000Y-112888665D01*
X134455000Y-113171335D01*
X134510147Y-113448574D01*
X134618320Y-113709727D01*
X134775363Y-113944759D01*
X134975241Y-114144637D01*
X135207759Y-114300000D01*
X134975241Y-114455363D01*
X134775363Y-114655241D01*
X134618320Y-114890273D01*
X134510147Y-115151426D01*
X134455000Y-115428665D01*
X134455000Y-115711335D01*
X134510147Y-115988574D01*
X134618320Y-116249727D01*
X134775363Y-116484759D01*
X134975241Y-116684637D01*
X135207759Y-116840000D01*
X134975241Y-116995363D01*
X134775363Y-117195241D01*
X134618320Y-117430273D01*
X134510147Y-117691426D01*
X134455000Y-117968665D01*
X134455000Y-118251335D01*
X134510147Y-118528574D01*
X134618320Y-118789727D01*
X134775363Y-119024759D01*
X134975241Y-119224637D01*
X135210273Y-119381680D01*
X135471426Y-119489853D01*
X135748665Y-119545000D01*
X136031335Y-119545000D01*
X136308574Y-119489853D01*
X136569727Y-119381680D01*
X136804759Y-119224637D01*
X137004637Y-119024759D01*
X137161680Y-118789727D01*
X137269853Y-118528574D01*
X137325000Y-118251335D01*
X137325000Y-117968665D01*
X137269853Y-117691426D01*
X137161680Y-117430273D01*
X137004637Y-117195241D01*
X136804759Y-116995363D01*
X136572241Y-116840000D01*
X136804759Y-116684637D01*
X137004637Y-116484759D01*
X137161680Y-116249727D01*
X137269853Y-115988574D01*
X137325000Y-115711335D01*
X137325000Y-115428665D01*
X137269853Y-115151426D01*
X137161680Y-114890273D01*
X137004637Y-114655241D01*
X136804759Y-114455363D01*
X136572241Y-114300000D01*
X136804759Y-114144637D01*
X137004637Y-113944759D01*
X137161680Y-113709727D01*
X137269853Y-113448574D01*
X137325000Y-113171335D01*
X137325000Y-112888665D01*
X137269853Y-112611426D01*
X137161680Y-112350273D01*
X137004637Y-112115241D01*
X136804759Y-111915363D01*
X136572241Y-111760000D01*
X136804759Y-111604637D01*
X137004637Y-111404759D01*
X137161680Y-111169727D01*
X137269853Y-110908574D01*
X137325000Y-110631335D01*
X137325000Y-110348665D01*
X137269853Y-110071426D01*
X137161680Y-109810273D01*
X137004637Y-109575241D01*
X136804759Y-109375363D01*
X136572241Y-109220000D01*
X136804759Y-109064637D01*
X137004637Y-108864759D01*
X137161680Y-108629727D01*
X137269853Y-108368574D01*
X137325000Y-108091335D01*
X137325000Y-107808665D01*
X137269853Y-107531426D01*
X137161680Y-107270273D01*
X137004637Y-107035241D01*
X136804759Y-106835363D01*
X136572241Y-106680000D01*
X136804759Y-106524637D01*
X137004637Y-106324759D01*
X137161680Y-106089727D01*
X137269853Y-105828574D01*
X137325000Y-105551335D01*
X137325000Y-105268665D01*
X137269853Y-104991426D01*
X137161680Y-104730273D01*
X137004637Y-104495241D01*
X136804759Y-104295363D01*
X136572241Y-104140000D01*
X136804759Y-103984637D01*
X137004637Y-103784759D01*
X137161680Y-103549727D01*
X137269853Y-103288574D01*
X137325000Y-103011335D01*
X137325000Y-102728665D01*
X137269853Y-102451426D01*
X137161680Y-102190273D01*
X137004637Y-101955241D01*
X136804759Y-101755363D01*
X136572241Y-101600000D01*
X136804759Y-101444637D01*
X137004637Y-101244759D01*
X137161680Y-101009727D01*
X137269853Y-100748574D01*
X137325000Y-100471335D01*
X137325000Y-100188665D01*
X137288688Y-100006114D01*
X137526004Y-99768798D01*
X137555002Y-99745000D01*
X137649975Y-99629275D01*
X137720547Y-99497246D01*
X137764004Y-99353985D01*
X137775001Y-99242332D01*
X137775001Y-99242324D01*
X137778677Y-99204999D01*
X137775001Y-99167674D01*
X137775001Y-95314798D01*
X149859022Y-83230778D01*
X150015363Y-83464759D01*
X150215241Y-83664637D01*
X150447759Y-83820000D01*
X150215241Y-83975363D01*
X150015363Y-84175241D01*
X149858320Y-84410273D01*
X149750147Y-84671426D01*
X149695000Y-84948665D01*
X149695000Y-85231335D01*
X149750147Y-85508574D01*
X149858320Y-85769727D01*
X150015363Y-86004759D01*
X150215241Y-86204637D01*
X150447759Y-86360000D01*
X150215241Y-86515363D01*
X150015363Y-86715241D01*
X149858320Y-86950273D01*
X149750147Y-87211426D01*
X149695000Y-87488665D01*
X149695000Y-87771335D01*
X149750147Y-88048574D01*
X149858320Y-88309727D01*
X150015363Y-88544759D01*
X150215241Y-88744637D01*
X150447759Y-88900000D01*
X150215241Y-89055363D01*
X150015363Y-89255241D01*
X149858320Y-89490273D01*
X149750147Y-89751426D01*
X149695000Y-90028665D01*
X149695000Y-90311335D01*
X149750147Y-90588574D01*
X149858320Y-90849727D01*
X150015363Y-91084759D01*
X150215241Y-91284637D01*
X150447759Y-91440000D01*
X150215241Y-91595363D01*
X150015363Y-91795241D01*
X149858320Y-92030273D01*
X149750147Y-92291426D01*
X149695000Y-92568665D01*
X149695000Y-92851335D01*
X149750147Y-93128574D01*
X149858320Y-93389727D01*
X150015363Y-93624759D01*
X150215241Y-93824637D01*
X150447759Y-93980000D01*
X150215241Y-94135363D01*
X150015363Y-94335241D01*
X149858320Y-94570273D01*
X149750147Y-94831426D01*
X149695000Y-95108665D01*
X149695000Y-95391335D01*
X149750147Y-95668574D01*
X149858320Y-95929727D01*
X150015363Y-96164759D01*
X150215241Y-96364637D01*
X150447759Y-96520000D01*
X150215241Y-96675363D01*
X150015363Y-96875241D01*
X149858320Y-97110273D01*
X149750147Y-97371426D01*
X149695000Y-97648665D01*
X149695000Y-97931335D01*
X149750147Y-98208574D01*
X149858320Y-98469727D01*
X150015363Y-98704759D01*
X150215241Y-98904637D01*
X150447759Y-99060000D01*
X150215241Y-99215363D01*
X150015363Y-99415241D01*
X149858320Y-99650273D01*
X149750147Y-99911426D01*
X149695000Y-100188665D01*
X149695000Y-100471335D01*
X149750147Y-100748574D01*
X149858320Y-101009727D01*
X150015363Y-101244759D01*
X150215241Y-101444637D01*
X150447759Y-101600000D01*
X150215241Y-101755363D01*
X150015363Y-101955241D01*
X149858320Y-102190273D01*
X149750147Y-102451426D01*
X149695000Y-102728665D01*
X149695000Y-103011335D01*
X149750147Y-103288574D01*
X149858320Y-103549727D01*
X150015363Y-103784759D01*
X150215241Y-103984637D01*
X150447759Y-104140000D01*
X150215241Y-104295363D01*
X150015363Y-104495241D01*
X149858320Y-104730273D01*
X149750147Y-104991426D01*
X149695000Y-105268665D01*
X149695000Y-105551335D01*
X149750147Y-105828574D01*
X149858320Y-106089727D01*
X150015363Y-106324759D01*
X150215241Y-106524637D01*
X150447759Y-106680000D01*
X150215241Y-106835363D01*
X150015363Y-107035241D01*
X149858320Y-107270273D01*
X149750147Y-107531426D01*
X149695000Y-107808665D01*
X149695000Y-108091335D01*
X149750147Y-108368574D01*
X149858320Y-108629727D01*
X150015363Y-108864759D01*
X150215241Y-109064637D01*
X150447759Y-109220000D01*
X150215241Y-109375363D01*
X150015363Y-109575241D01*
X149858320Y-109810273D01*
X149750147Y-110071426D01*
X149695000Y-110348665D01*
X149695000Y-110631335D01*
X149750147Y-110908574D01*
X149858320Y-111169727D01*
X150015363Y-111404759D01*
X150215241Y-111604637D01*
X150447759Y-111760000D01*
X150215241Y-111915363D01*
X150015363Y-112115241D01*
X149858320Y-112350273D01*
X149750147Y-112611426D01*
X149695000Y-112888665D01*
X149695000Y-113171335D01*
X149750147Y-113448574D01*
X149858320Y-113709727D01*
X150015363Y-113944759D01*
X150215241Y-114144637D01*
X150447759Y-114300000D01*
X150215241Y-114455363D01*
X150015363Y-114655241D01*
X149858320Y-114890273D01*
X149750147Y-115151426D01*
X149695000Y-115428665D01*
X149695000Y-115711335D01*
X149750147Y-115988574D01*
X149858320Y-116249727D01*
X150015363Y-116484759D01*
X150215241Y-116684637D01*
X150447759Y-116840000D01*
X150215241Y-116995363D01*
X150015363Y-117195241D01*
X149858320Y-117430273D01*
X149750147Y-117691426D01*
X149695000Y-117968665D01*
X149695000Y-118251335D01*
X149750147Y-118528574D01*
X149858320Y-118789727D01*
X150015363Y-119024759D01*
X150215241Y-119224637D01*
X150450273Y-119381680D01*
X150711426Y-119489853D01*
X150988665Y-119545000D01*
X151271335Y-119545000D01*
X151548574Y-119489853D01*
X151809727Y-119381680D01*
X152044759Y-119224637D01*
X152244637Y-119024759D01*
X152401680Y-118789727D01*
X152509853Y-118528574D01*
X152565000Y-118251335D01*
X152565000Y-117968665D01*
X152509853Y-117691426D01*
X152401680Y-117430273D01*
X152244637Y-117195241D01*
X152044759Y-116995363D01*
X151812241Y-116840000D01*
X152044759Y-116684637D01*
X152244637Y-116484759D01*
X152401680Y-116249727D01*
X152509853Y-115988574D01*
X152565000Y-115711335D01*
X152565000Y-115428665D01*
X152509853Y-115151426D01*
X152401680Y-114890273D01*
X152244637Y-114655241D01*
X152044759Y-114455363D01*
X151812241Y-114300000D01*
X152044759Y-114144637D01*
X152244637Y-113944759D01*
X152401680Y-113709727D01*
X152509853Y-113448574D01*
X152565000Y-113171335D01*
X152565000Y-112888665D01*
X152509853Y-112611426D01*
X152401680Y-112350273D01*
X152244637Y-112115241D01*
X152044759Y-111915363D01*
X151812241Y-111760000D01*
X152044759Y-111604637D01*
X152244637Y-111404759D01*
X152401680Y-111169727D01*
X152509853Y-110908574D01*
X152565000Y-110631335D01*
X152565000Y-110348665D01*
X152509853Y-110071426D01*
X152401680Y-109810273D01*
X152244637Y-109575241D01*
X152044759Y-109375363D01*
X151812241Y-109220000D01*
X152044759Y-109064637D01*
X152244637Y-108864759D01*
X152401680Y-108629727D01*
X152509853Y-108368574D01*
X152565000Y-108091335D01*
X152565000Y-107808665D01*
X152509853Y-107531426D01*
X152401680Y-107270273D01*
X152244637Y-107035241D01*
X152044759Y-106835363D01*
X151812241Y-106680000D01*
X152044759Y-106524637D01*
X152244637Y-106324759D01*
X152401680Y-106089727D01*
X152509853Y-105828574D01*
X152565000Y-105551335D01*
X152565000Y-105268665D01*
X152509853Y-104991426D01*
X152401680Y-104730273D01*
X152244637Y-104495241D01*
X152044759Y-104295363D01*
X151812241Y-104140000D01*
X152044759Y-103984637D01*
X152244637Y-103784759D01*
X152401680Y-103549727D01*
X152509853Y-103288574D01*
X152565000Y-103011335D01*
X152565000Y-102728665D01*
X152509853Y-102451426D01*
X152401680Y-102190273D01*
X152244637Y-101955241D01*
X152044759Y-101755363D01*
X151812241Y-101600000D01*
X152044759Y-101444637D01*
X152244637Y-101244759D01*
X152401680Y-101009727D01*
X152509853Y-100748574D01*
X152565000Y-100471335D01*
X152565000Y-100188665D01*
X152509853Y-99911426D01*
X152401680Y-99650273D01*
X152244637Y-99415241D01*
X152044759Y-99215363D01*
X151812241Y-99060000D01*
X152044759Y-98904637D01*
X152244637Y-98704759D01*
X152401680Y-98469727D01*
X152509853Y-98208574D01*
X152565000Y-97931335D01*
X152565000Y-97648665D01*
X152509853Y-97371426D01*
X152401680Y-97110273D01*
X152244637Y-96875241D01*
X152044759Y-96675363D01*
X151812241Y-96520000D01*
X152044759Y-96364637D01*
X152244637Y-96164759D01*
X152401680Y-95929727D01*
X152509853Y-95668574D01*
X152565000Y-95391335D01*
X152565000Y-95108665D01*
X152509853Y-94831426D01*
X152401680Y-94570273D01*
X152244637Y-94335241D01*
X152044759Y-94135363D01*
X151812241Y-93980000D01*
X152044759Y-93824637D01*
X152244637Y-93624759D01*
X152401680Y-93389727D01*
X152509853Y-93128574D01*
X152565000Y-92851335D01*
X152565000Y-92568665D01*
X152509853Y-92291426D01*
X152401680Y-92030273D01*
X152244637Y-91795241D01*
X152044759Y-91595363D01*
X151812241Y-91440000D01*
X152044759Y-91284637D01*
X152244637Y-91084759D01*
X152401680Y-90849727D01*
X152509853Y-90588574D01*
X152565000Y-90311335D01*
X152565000Y-90028665D01*
X152509853Y-89751426D01*
X152401680Y-89490273D01*
X152244637Y-89255241D01*
X152044759Y-89055363D01*
X151812241Y-88900000D01*
X152044759Y-88744637D01*
X152244637Y-88544759D01*
X152401680Y-88309727D01*
X152509853Y-88048574D01*
X152565000Y-87771335D01*
X152565000Y-87488665D01*
X152509853Y-87211426D01*
X152401680Y-86950273D01*
X152244637Y-86715241D01*
X152044759Y-86515363D01*
X151812241Y-86360000D01*
X152044759Y-86204637D01*
X152244637Y-86004759D01*
X152401680Y-85769727D01*
X152509853Y-85508574D01*
X152565000Y-85231335D01*
X152565000Y-84948665D01*
X152509853Y-84671426D01*
X152401680Y-84410273D01*
X152244637Y-84175241D01*
X152044759Y-83975363D01*
X151812241Y-83820000D01*
X152044759Y-83664637D01*
X152244637Y-83464759D01*
X152401680Y-83229727D01*
X152509853Y-82968574D01*
X152565000Y-82691335D01*
X152565000Y-82408665D01*
X152509853Y-82131426D01*
X152401680Y-81870273D01*
X152244637Y-81635241D01*
X152216480Y-81607084D01*
X155268004Y-78555560D01*
X155297002Y-78531762D01*
X155391975Y-78416037D01*
X155397899Y-78404954D01*
X155548065Y-78555120D01*
X155776873Y-78708005D01*
X156031110Y-78813314D01*
X156301008Y-78867000D01*
X156576192Y-78867000D01*
X156846090Y-78813314D01*
X157100327Y-78708005D01*
X157329135Y-78555120D01*
X157523720Y-78360535D01*
X157676605Y-78131727D01*
X157781914Y-77877490D01*
X157835600Y-77607592D01*
X157835600Y-77332408D01*
X157781914Y-77062510D01*
X157676605Y-76808273D01*
X157523720Y-76579465D01*
X157329135Y-76384880D01*
X157100327Y-76231995D01*
X156846090Y-76126686D01*
X156576192Y-76073000D01*
X156301008Y-76073000D01*
X156287346Y-76075717D01*
X156652304Y-75710760D01*
X156681302Y-75686962D01*
X156776275Y-75571237D01*
X156782199Y-75560154D01*
X156932365Y-75710320D01*
X157161173Y-75863205D01*
X157415410Y-75968514D01*
X157685308Y-76022200D01*
X157960492Y-76022200D01*
X158230390Y-75968514D01*
X158484627Y-75863205D01*
X158713435Y-75710320D01*
X158908020Y-75515735D01*
X159060905Y-75286927D01*
X159166214Y-75032690D01*
X159219900Y-74762792D01*
X159219900Y-74487608D01*
X159166214Y-74217710D01*
X159060905Y-73963473D01*
X158908020Y-73734665D01*
X158713435Y-73540080D01*
X158484627Y-73387195D01*
X158230390Y-73281886D01*
X157960492Y-73228200D01*
X157685308Y-73228200D01*
X157415410Y-73281886D01*
X157161173Y-73387195D01*
X156932365Y-73540080D01*
X156782199Y-73690246D01*
X156776275Y-73679162D01*
X156705100Y-73592436D01*
X156681302Y-73563438D01*
X156652305Y-73539641D01*
X156162663Y-73050000D01*
X158717721Y-73050000D01*
X158867869Y-73064722D01*
G37*
X158867869Y-73064722D02*
X158981246Y-73098953D01*
X159085819Y-73154555D01*
X159177596Y-73229407D01*
X159253091Y-73320664D01*
X159309419Y-73424844D01*
X159344440Y-73537976D01*
X159360001Y-73686031D01*
X159360000Y-79977721D01*
X159345278Y-80127869D01*
X159311047Y-80241246D01*
X159255446Y-80345817D01*
X159180594Y-80437595D01*
X159089335Y-80513091D01*
X158985160Y-80569419D01*
X158872024Y-80604440D01*
X158723979Y-80620000D01*
X157447581Y-80620000D01*
X157419135Y-80622802D01*
X157411318Y-80622747D01*
X157402147Y-80623646D01*
X157155644Y-80649554D01*
X157097028Y-80661586D01*
X157038284Y-80672792D01*
X157029462Y-80675456D01*
X156792686Y-80748751D01*
X156737555Y-80771926D01*
X156682080Y-80794339D01*
X156673944Y-80798666D01*
X156455914Y-80916554D01*
X156406346Y-80949988D01*
X156356265Y-80982760D01*
X156349124Y-80988584D01*
X156158144Y-81146577D01*
X156116005Y-81189012D01*
X156073255Y-81230875D01*
X156067381Y-81237976D01*
X155910727Y-81430054D01*
X155877655Y-81479831D01*
X155843826Y-81529237D01*
X155839444Y-81537343D01*
X155723081Y-81756191D01*
X155700298Y-81811468D01*
X155676721Y-81866475D01*
X155673997Y-81875278D01*
X155602357Y-82112559D01*
X155590736Y-82171246D01*
X155578300Y-82229752D01*
X155577337Y-82238917D01*
X155553150Y-82485595D01*
X155553150Y-82485608D01*
X155550001Y-82517581D01*
X155550000Y-119347721D01*
X155535278Y-119497869D01*
X155501047Y-119611246D01*
X155445446Y-119715817D01*
X155370594Y-119807595D01*
X155279335Y-119883091D01*
X155175160Y-119939419D01*
X155062024Y-119974440D01*
X154913979Y-119990000D01*
X132112279Y-119990000D01*
X131962131Y-119975278D01*
X131848754Y-119941047D01*
X131744183Y-119885446D01*
X131652405Y-119810594D01*
X131576909Y-119719335D01*
X131520581Y-119615160D01*
X131485560Y-119502024D01*
X131470000Y-119353979D01*
X131470000Y-82517581D01*
X131467198Y-82489135D01*
X131467253Y-82481318D01*
X131466354Y-82472147D01*
X131440446Y-82225644D01*
X131428414Y-82167028D01*
X131417208Y-82108284D01*
X131414544Y-82099462D01*
X131341249Y-81862686D01*
X131318074Y-81807555D01*
X131295661Y-81752080D01*
X131291334Y-81743944D01*
X131173446Y-81525914D01*
X131140012Y-81476346D01*
X131107240Y-81426265D01*
X131101416Y-81419124D01*
X130943423Y-81228144D01*
X130900988Y-81186005D01*
X130859125Y-81143255D01*
X130852024Y-81137381D01*
X130659946Y-80980727D01*
X130610169Y-80947655D01*
X130560763Y-80913826D01*
X130552657Y-80909444D01*
X130333809Y-80793081D01*
X130278532Y-80770298D01*
X130223525Y-80746721D01*
X130214722Y-80743997D01*
X129977441Y-80672357D01*
X129918754Y-80660736D01*
X129860248Y-80648300D01*
X129851085Y-80647337D01*
X129851083Y-80647337D01*
X129604405Y-80623150D01*
X129604402Y-80623150D01*
X129572419Y-80620000D01*
X124492279Y-80620000D01*
X124342131Y-80605278D01*
X124228754Y-80571047D01*
X124124183Y-80515446D01*
X124032405Y-80440594D01*
X123956909Y-80349335D01*
X123900581Y-80245160D01*
X123865560Y-80132024D01*
X123850000Y-79983979D01*
X123850000Y-75804423D01*
X123937973Y-75863205D01*
X124192210Y-75968514D01*
X124462108Y-76022200D01*
X124737292Y-76022200D01*
X125007190Y-75968514D01*
X125261427Y-75863205D01*
X125490235Y-75710320D01*
X125684820Y-75515735D01*
X125837705Y-75286927D01*
X125943014Y-75032690D01*
X125984000Y-74826639D01*
X126024986Y-75032690D01*
X126130295Y-75286927D01*
X126283180Y-75515735D01*
X126477765Y-75710320D01*
X126706573Y-75863205D01*
X126960810Y-75968514D01*
X127230708Y-76022200D01*
X127505892Y-76022200D01*
X127775790Y-75968514D01*
X128030027Y-75863205D01*
X128258835Y-75710320D01*
X128453420Y-75515735D01*
X128606305Y-75286927D01*
X128711614Y-75032690D01*
X128752600Y-74826639D01*
X128793586Y-75032690D01*
X128898895Y-75286927D01*
X129051780Y-75515735D01*
X129246365Y-75710320D01*
X129475173Y-75863205D01*
X129729410Y-75968514D01*
X129999308Y-76022200D01*
X130274492Y-76022200D01*
X130544390Y-75968514D01*
X130798627Y-75863205D01*
X131027435Y-75710320D01*
X131222020Y-75515735D01*
X131374905Y-75286927D01*
X131480214Y-75032690D01*
X131521200Y-74826639D01*
X131562186Y-75032690D01*
X131667495Y-75286927D01*
X131820380Y-75515735D01*
X132014965Y-75710320D01*
X132243773Y-75863205D01*
X132498010Y-75968514D01*
X132767908Y-76022200D01*
X133043092Y-76022200D01*
X133312990Y-75968514D01*
X133567227Y-75863205D01*
X133796035Y-75710320D01*
X133990620Y-75515735D01*
X134143505Y-75286927D01*
X134248814Y-75032690D01*
X134289800Y-74826639D01*
X134330786Y-75032690D01*
X134436095Y-75286927D01*
X134588980Y-75515735D01*
X134783565Y-75710320D01*
X135012373Y-75863205D01*
X135266610Y-75968514D01*
X135536508Y-76022200D01*
X135811692Y-76022200D01*
X136081590Y-75968514D01*
X136335827Y-75863205D01*
X136564635Y-75710320D01*
X136759220Y-75515735D01*
X136912105Y-75286927D01*
X137017414Y-75032690D01*
X137058400Y-74826639D01*
X137099386Y-75032690D01*
X137204695Y-75286927D01*
X137357580Y-75515735D01*
X137552165Y-75710320D01*
X137780973Y-75863205D01*
X138035210Y-75968514D01*
X138305108Y-76022200D01*
X138580292Y-76022200D01*
X138850190Y-75968514D01*
X139104427Y-75863205D01*
X139333235Y-75710320D01*
X139527820Y-75515735D01*
X139680705Y-75286927D01*
X139786014Y-75032690D01*
X139827000Y-74826639D01*
X139867986Y-75032690D01*
X139973295Y-75286927D01*
X140126180Y-75515735D01*
X140320765Y-75710320D01*
X140549573Y-75863205D01*
X140803810Y-75968514D01*
X141073708Y-76022200D01*
X141348892Y-76022200D01*
X141618790Y-75968514D01*
X141873027Y-75863205D01*
X142101835Y-75710320D01*
X142296420Y-75515735D01*
X142449305Y-75286927D01*
X142554614Y-75032690D01*
X142595600Y-74826639D01*
X142636586Y-75032690D01*
X142741895Y-75286927D01*
X142894780Y-75515735D01*
X143089365Y-75710320D01*
X143318173Y-75863205D01*
X143572410Y-75968514D01*
X143842308Y-76022200D01*
X144117492Y-76022200D01*
X144387390Y-75968514D01*
X144641627Y-75863205D01*
X144870435Y-75710320D01*
X145065020Y-75515735D01*
X145217905Y-75286927D01*
X145323214Y-75032690D01*
X145364200Y-74826639D01*
X145405186Y-75032690D01*
X145510495Y-75286927D01*
X145663380Y-75515735D01*
X145857965Y-75710320D01*
X145988500Y-75797541D01*
X145988500Y-76216492D01*
X145771690Y-76126686D01*
X145501792Y-76073000D01*
X145226608Y-76073000D01*
X144956710Y-76126686D01*
X144702473Y-76231995D01*
X144473665Y-76384880D01*
X144279080Y-76579465D01*
X144126195Y-76808273D01*
X144020886Y-77062510D01*
X143979900Y-77268561D01*
X143938914Y-77062510D01*
X143833605Y-76808273D01*
X143680720Y-76579465D01*
X143486135Y-76384880D01*
X143257327Y-76231995D01*
X143003090Y-76126686D01*
X142733192Y-76073000D01*
X142458008Y-76073000D01*
X142188110Y-76126686D01*
X141933873Y-76231995D01*
X141705065Y-76384880D01*
X141510480Y-76579465D01*
X141357595Y-76808273D01*
X141252286Y-77062510D01*
X141211300Y-77268561D01*
X141170314Y-77062510D01*
X141065005Y-76808273D01*
X140912120Y-76579465D01*
X140717535Y-76384880D01*
X140488727Y-76231995D01*
X140234490Y-76126686D01*
X139964592Y-76073000D01*
X139689408Y-76073000D01*
X139419510Y-76126686D01*
X139165273Y-76231995D01*
X138936465Y-76384880D01*
X138741880Y-76579465D01*
X138588995Y-76808273D01*
X138483686Y-77062510D01*
X138442700Y-77268561D01*
X138401714Y-77062510D01*
X138296405Y-76808273D01*
X138143520Y-76579465D01*
X137948935Y-76384880D01*
X137720127Y-76231995D01*
X137465890Y-76126686D01*
X137195992Y-76073000D01*
X136920808Y-76073000D01*
X136650910Y-76126686D01*
X136396673Y-76231995D01*
X136167865Y-76384880D01*
X135973280Y-76579465D01*
X135820395Y-76808273D01*
X135715086Y-77062510D01*
X135674100Y-77268561D01*
X135633114Y-77062510D01*
X135527805Y-76808273D01*
X135374920Y-76579465D01*
X135180335Y-76384880D01*
X134951527Y-76231995D01*
X134697290Y-76126686D01*
X134427392Y-76073000D01*
X134152208Y-76073000D01*
X133882310Y-76126686D01*
X133628073Y-76231995D01*
X133399265Y-76384880D01*
X133204680Y-76579465D01*
X133051795Y-76808273D01*
X132946486Y-77062510D01*
X132905500Y-77268561D01*
X132864514Y-77062510D01*
X132759205Y-76808273D01*
X132606320Y-76579465D01*
X132411735Y-76384880D01*
X132182927Y-76231995D01*
X131928690Y-76126686D01*
X131658792Y-76073000D01*
X131383608Y-76073000D01*
X131113710Y-76126686D01*
X130859473Y-76231995D01*
X130630665Y-76384880D01*
X130436080Y-76579465D01*
X130283195Y-76808273D01*
X130177886Y-77062510D01*
X130136900Y-77268561D01*
X130095914Y-77062510D01*
X129990605Y-76808273D01*
X129837720Y-76579465D01*
X129643135Y-76384880D01*
X129414327Y-76231995D01*
X129160090Y-76126686D01*
X128890192Y-76073000D01*
X128615008Y-76073000D01*
X128345110Y-76126686D01*
X128090873Y-76231995D01*
X127862065Y-76384880D01*
X127667480Y-76579465D01*
X127514595Y-76808273D01*
X127409286Y-77062510D01*
X127368300Y-77268561D01*
X127327314Y-77062510D01*
X127222005Y-76808273D01*
X127069120Y-76579465D01*
X126874535Y-76384880D01*
X126645727Y-76231995D01*
X126391490Y-76126686D01*
X126121592Y-76073000D01*
X125846408Y-76073000D01*
X125576510Y-76126686D01*
X125322273Y-76231995D01*
X125093465Y-76384880D01*
X124898880Y-76579465D01*
X124745995Y-76808273D01*
X124640686Y-77062510D01*
X124587000Y-77332408D01*
X124587000Y-77607592D01*
X124640686Y-77877490D01*
X124745995Y-78131727D01*
X124898880Y-78360535D01*
X125093465Y-78555120D01*
X125322273Y-78708005D01*
X125576510Y-78813314D01*
X125846408Y-78867000D01*
X126121592Y-78867000D01*
X126391490Y-78813314D01*
X126645727Y-78708005D01*
X126874535Y-78555120D01*
X127069120Y-78360535D01*
X127222005Y-78131727D01*
X127327314Y-77877490D01*
X127368300Y-77671439D01*
X127409286Y-77877490D01*
X127514595Y-78131727D01*
X127667480Y-78360535D01*
X127862065Y-78555120D01*
X128090873Y-78708005D01*
X128345110Y-78813314D01*
X128615008Y-78867000D01*
X128890192Y-78867000D01*
X129160090Y-78813314D01*
X129414327Y-78708005D01*
X129643135Y-78555120D01*
X129837720Y-78360535D01*
X129990605Y-78131727D01*
X130095914Y-77877490D01*
X130136900Y-77671439D01*
X130177886Y-77877490D01*
X130283195Y-78131727D01*
X130436080Y-78360535D01*
X130630665Y-78555120D01*
X130859473Y-78708005D01*
X131113710Y-78813314D01*
X131383608Y-78867000D01*
X131658792Y-78867000D01*
X131928690Y-78813314D01*
X132182927Y-78708005D01*
X132411735Y-78555120D01*
X132606320Y-78360535D01*
X132759205Y-78131727D01*
X132864514Y-77877490D01*
X132905500Y-77671439D01*
X132946486Y-77877490D01*
X133051795Y-78131727D01*
X133204680Y-78360535D01*
X133399265Y-78555120D01*
X133628073Y-78708005D01*
X133882310Y-78813314D01*
X134152208Y-78867000D01*
X134427392Y-78867000D01*
X134697290Y-78813314D01*
X134951527Y-78708005D01*
X135180335Y-78555120D01*
X135374920Y-78360535D01*
X135527805Y-78131727D01*
X135633114Y-77877490D01*
X135674100Y-77671439D01*
X135715086Y-77877490D01*
X135820395Y-78131727D01*
X135973280Y-78360535D01*
X136167865Y-78555120D01*
X136396673Y-78708005D01*
X136650910Y-78813314D01*
X136920808Y-78867000D01*
X137195992Y-78867000D01*
X137465890Y-78813314D01*
X137720127Y-78708005D01*
X137948935Y-78555120D01*
X138143520Y-78360535D01*
X138296405Y-78131727D01*
X138401714Y-77877490D01*
X138442700Y-77671439D01*
X138483686Y-77877490D01*
X138588995Y-78131727D01*
X138741880Y-78360535D01*
X138936465Y-78555120D01*
X139165273Y-78708005D01*
X139419510Y-78813314D01*
X139689408Y-78867000D01*
X139964592Y-78867000D01*
X140234490Y-78813314D01*
X140488727Y-78708005D01*
X140717535Y-78555120D01*
X140912120Y-78360535D01*
X141065005Y-78131727D01*
X141170314Y-77877490D01*
X141211300Y-77671439D01*
X141252286Y-77877490D01*
X141357595Y-78131727D01*
X141510480Y-78360535D01*
X141705065Y-78555120D01*
X141933873Y-78708005D01*
X142188110Y-78813314D01*
X142458008Y-78867000D01*
X142733192Y-78867000D01*
X143003090Y-78813314D01*
X143257327Y-78708005D01*
X143486135Y-78555120D01*
X143680720Y-78360535D01*
X143833605Y-78131727D01*
X143938914Y-77877490D01*
X143979900Y-77671439D01*
X144020886Y-77877490D01*
X144126195Y-78131727D01*
X144279080Y-78360535D01*
X144473665Y-78555120D01*
X144702473Y-78708005D01*
X144956710Y-78813314D01*
X145226608Y-78867000D01*
X145243200Y-78867000D01*
X137160978Y-86949223D01*
X137004637Y-86715241D01*
X136804759Y-86515363D01*
X136572241Y-86360000D01*
X136804759Y-86204637D01*
X137004637Y-86004759D01*
X137161680Y-85769727D01*
X137269853Y-85508574D01*
X137325000Y-85231335D01*
X137325000Y-84948665D01*
X137269853Y-84671426D01*
X137161680Y-84410273D01*
X137004637Y-84175241D01*
X136806039Y-83976643D01*
X136814482Y-83975812D01*
X136934180Y-83939502D01*
X137044494Y-83880537D01*
X137141185Y-83801185D01*
X137220537Y-83704494D01*
X137279502Y-83594180D01*
X137315812Y-83474482D01*
X137328072Y-83350000D01*
X137328072Y-81750000D01*
X137315812Y-81625518D01*
X137279502Y-81505820D01*
X137220537Y-81395506D01*
X137141185Y-81298815D01*
X137044494Y-81219463D01*
X136934180Y-81160498D01*
X136814482Y-81124188D01*
X136690000Y-81111928D01*
X135090000Y-81111928D01*
X134965518Y-81124188D01*
X134845820Y-81160498D01*
X134735506Y-81219463D01*
X134638815Y-81298815D01*
X134559463Y-81395506D01*
X134500498Y-81505820D01*
X134464188Y-81625518D01*
X134451928Y-81750000D01*
X134451928Y-83350000D01*
X134464188Y-83474482D01*
X134500498Y-83594180D01*
X134559463Y-83704494D01*
X134638815Y-83801185D01*
X134735506Y-83880537D01*
X134845820Y-83939502D01*
X134965518Y-83975812D01*
X134973961Y-83976643D01*
X134775363Y-84175241D01*
X134618320Y-84410273D01*
X134510147Y-84671426D01*
X134455000Y-84948665D01*
X134455000Y-85231335D01*
X134510147Y-85508574D01*
X134618320Y-85769727D01*
X134775363Y-86004759D01*
X134975241Y-86204637D01*
X135207759Y-86360000D01*
X134975241Y-86515363D01*
X134775363Y-86715241D01*
X134618320Y-86950273D01*
X134510147Y-87211426D01*
X134455000Y-87488665D01*
X134455000Y-87771335D01*
X134510147Y-88048574D01*
X134618320Y-88309727D01*
X134775363Y-88544759D01*
X134775400Y-88544796D01*
X133803992Y-89516204D01*
X133774989Y-89540007D01*
X133738065Y-89585000D01*
X133680016Y-89655732D01*
X133667059Y-89679973D01*
X133609444Y-89787762D01*
X133565987Y-89931023D01*
X133554990Y-90042676D01*
X133554990Y-90042686D01*
X133551314Y-90080008D01*
X133554990Y-90117330D01*
X133554991Y-103797658D01*
X133551314Y-103834990D01*
X133565988Y-103983975D01*
X133609444Y-104127236D01*
X133680016Y-104259266D01*
X133751191Y-104345992D01*
X133774990Y-104374991D01*
X133803988Y-104398789D01*
X134491312Y-105086114D01*
X134455000Y-105268665D01*
X134455000Y-105551335D01*
X134510147Y-105828574D01*
X134618320Y-106089727D01*
X134775363Y-106324759D01*
X134975241Y-106524637D01*
X135207759Y-106680000D01*
X134975241Y-106835363D01*
X134775363Y-107035241D01*
X134618320Y-107270273D01*
X134510147Y-107531426D01*
X134455000Y-107808665D01*
X134455000Y-108091335D01*
X134510147Y-108368574D01*
X134618320Y-108629727D01*
X134775363Y-108864759D01*
X134975241Y-109064637D01*
X135207759Y-109220000D01*
X134975241Y-109375363D01*
X134775363Y-109575241D01*
X134618320Y-109810273D01*
X134510147Y-110071426D01*
X134455000Y-110348665D01*
X134455000Y-110631335D01*
X134510147Y-110908574D01*
X134618320Y-111169727D01*
X134775363Y-111404759D01*
X134975241Y-111604637D01*
X135207759Y-111760000D01*
X134975241Y-111915363D01*
X134775363Y-112115241D01*
X134618320Y-112350273D01*
X134510147Y-112611426D01*
X134455000Y-112888665D01*
X134455000Y-113171335D01*
X134510147Y-113448574D01*
X134618320Y-113709727D01*
X134775363Y-113944759D01*
X134975241Y-114144637D01*
X135207759Y-114300000D01*
X134975241Y-114455363D01*
X134775363Y-114655241D01*
X134618320Y-114890273D01*
X134510147Y-115151426D01*
X134455000Y-115428665D01*
X134455000Y-115711335D01*
X134510147Y-115988574D01*
X134618320Y-116249727D01*
X134775363Y-116484759D01*
X134975241Y-116684637D01*
X135207759Y-116840000D01*
X134975241Y-116995363D01*
X134775363Y-117195241D01*
X134618320Y-117430273D01*
X134510147Y-117691426D01*
X134455000Y-117968665D01*
X134455000Y-118251335D01*
X134510147Y-118528574D01*
X134618320Y-118789727D01*
X134775363Y-119024759D01*
X134975241Y-119224637D01*
X135210273Y-119381680D01*
X135471426Y-119489853D01*
X135748665Y-119545000D01*
X136031335Y-119545000D01*
X136308574Y-119489853D01*
X136569727Y-119381680D01*
X136804759Y-119224637D01*
X137004637Y-119024759D01*
X137161680Y-118789727D01*
X137269853Y-118528574D01*
X137325000Y-118251335D01*
X137325000Y-117968665D01*
X137269853Y-117691426D01*
X137161680Y-117430273D01*
X137004637Y-117195241D01*
X136804759Y-116995363D01*
X136572241Y-116840000D01*
X136804759Y-116684637D01*
X137004637Y-116484759D01*
X137161680Y-116249727D01*
X137269853Y-115988574D01*
X137325000Y-115711335D01*
X137325000Y-115428665D01*
X137269853Y-115151426D01*
X137161680Y-114890273D01*
X137004637Y-114655241D01*
X136804759Y-114455363D01*
X136572241Y-114300000D01*
X136804759Y-114144637D01*
X137004637Y-113944759D01*
X137161680Y-113709727D01*
X137269853Y-113448574D01*
X137325000Y-113171335D01*
X137325000Y-112888665D01*
X137269853Y-112611426D01*
X137161680Y-112350273D01*
X137004637Y-112115241D01*
X136804759Y-111915363D01*
X136572241Y-111760000D01*
X136804759Y-111604637D01*
X137004637Y-111404759D01*
X137161680Y-111169727D01*
X137269853Y-110908574D01*
X137325000Y-110631335D01*
X137325000Y-110348665D01*
X137269853Y-110071426D01*
X137161680Y-109810273D01*
X137004637Y-109575241D01*
X136804759Y-109375363D01*
X136572241Y-109220000D01*
X136804759Y-109064637D01*
X137004637Y-108864759D01*
X137161680Y-108629727D01*
X137269853Y-108368574D01*
X137325000Y-108091335D01*
X137325000Y-107808665D01*
X137269853Y-107531426D01*
X137161680Y-107270273D01*
X137004637Y-107035241D01*
X136804759Y-106835363D01*
X136572241Y-106680000D01*
X136804759Y-106524637D01*
X137004637Y-106324759D01*
X137161680Y-106089727D01*
X137269853Y-105828574D01*
X137325000Y-105551335D01*
X137325000Y-105268665D01*
X137269853Y-104991426D01*
X137161680Y-104730273D01*
X137004637Y-104495241D01*
X136804759Y-104295363D01*
X136572241Y-104140000D01*
X136804759Y-103984637D01*
X137004637Y-103784759D01*
X137161680Y-103549727D01*
X137269853Y-103288574D01*
X137325000Y-103011335D01*
X137325000Y-102728665D01*
X137269853Y-102451426D01*
X137161680Y-102190273D01*
X137004637Y-101955241D01*
X136804759Y-101755363D01*
X136572241Y-101600000D01*
X136804759Y-101444637D01*
X137004637Y-101244759D01*
X137161680Y-101009727D01*
X137269853Y-100748574D01*
X137325000Y-100471335D01*
X137325000Y-100188665D01*
X137288688Y-100006114D01*
X137526004Y-99768798D01*
X137555002Y-99745000D01*
X137649975Y-99629275D01*
X137720547Y-99497246D01*
X137764004Y-99353985D01*
X137775001Y-99242332D01*
X137775001Y-99242324D01*
X137778677Y-99204999D01*
X137775001Y-99167674D01*
X137775001Y-95314798D01*
X149859022Y-83230778D01*
X150015363Y-83464759D01*
X150215241Y-83664637D01*
X150447759Y-83820000D01*
X150215241Y-83975363D01*
X150015363Y-84175241D01*
X149858320Y-84410273D01*
X149750147Y-84671426D01*
X149695000Y-84948665D01*
X149695000Y-85231335D01*
X149750147Y-85508574D01*
X149858320Y-85769727D01*
X150015363Y-86004759D01*
X150215241Y-86204637D01*
X150447759Y-86360000D01*
X150215241Y-86515363D01*
X150015363Y-86715241D01*
X149858320Y-86950273D01*
X149750147Y-87211426D01*
X149695000Y-87488665D01*
X149695000Y-87771335D01*
X149750147Y-88048574D01*
X149858320Y-88309727D01*
X150015363Y-88544759D01*
X150215241Y-88744637D01*
X150447759Y-88900000D01*
X150215241Y-89055363D01*
X150015363Y-89255241D01*
X149858320Y-89490273D01*
X149750147Y-89751426D01*
X149695000Y-90028665D01*
X149695000Y-90311335D01*
X149750147Y-90588574D01*
X149858320Y-90849727D01*
X150015363Y-91084759D01*
X150215241Y-91284637D01*
X150447759Y-91440000D01*
X150215241Y-91595363D01*
X150015363Y-91795241D01*
X149858320Y-92030273D01*
X149750147Y-92291426D01*
X149695000Y-92568665D01*
X149695000Y-92851335D01*
X149750147Y-93128574D01*
X149858320Y-93389727D01*
X150015363Y-93624759D01*
X150215241Y-93824637D01*
X150447759Y-93980000D01*
X150215241Y-94135363D01*
X150015363Y-94335241D01*
X149858320Y-94570273D01*
X149750147Y-94831426D01*
X149695000Y-95108665D01*
X149695000Y-95391335D01*
X149750147Y-95668574D01*
X149858320Y-95929727D01*
X150015363Y-96164759D01*
X150215241Y-96364637D01*
X150447759Y-96520000D01*
X150215241Y-96675363D01*
X150015363Y-96875241D01*
X149858320Y-97110273D01*
X149750147Y-97371426D01*
X149695000Y-97648665D01*
X149695000Y-97931335D01*
X149750147Y-98208574D01*
X149858320Y-98469727D01*
X150015363Y-98704759D01*
X150215241Y-98904637D01*
X150447759Y-99060000D01*
X150215241Y-99215363D01*
X150015363Y-99415241D01*
X149858320Y-99650273D01*
X149750147Y-99911426D01*
X149695000Y-100188665D01*
X149695000Y-100471335D01*
X149750147Y-100748574D01*
X149858320Y-101009727D01*
X150015363Y-101244759D01*
X150215241Y-101444637D01*
X150447759Y-101600000D01*
X150215241Y-101755363D01*
X150015363Y-101955241D01*
X149858320Y-102190273D01*
X149750147Y-102451426D01*
X149695000Y-102728665D01*
X149695000Y-103011335D01*
X149750147Y-103288574D01*
X149858320Y-103549727D01*
X150015363Y-103784759D01*
X150215241Y-103984637D01*
X150447759Y-104140000D01*
X150215241Y-104295363D01*
X150015363Y-104495241D01*
X149858320Y-104730273D01*
X149750147Y-104991426D01*
X149695000Y-105268665D01*
X149695000Y-105551335D01*
X149750147Y-105828574D01*
X149858320Y-106089727D01*
X150015363Y-106324759D01*
X150215241Y-106524637D01*
X150447759Y-106680000D01*
X150215241Y-106835363D01*
X150015363Y-107035241D01*
X149858320Y-107270273D01*
X149750147Y-107531426D01*
X149695000Y-107808665D01*
X149695000Y-108091335D01*
X149750147Y-108368574D01*
X149858320Y-108629727D01*
X150015363Y-108864759D01*
X150215241Y-109064637D01*
X150447759Y-109220000D01*
X150215241Y-109375363D01*
X150015363Y-109575241D01*
X149858320Y-109810273D01*
X149750147Y-110071426D01*
X149695000Y-110348665D01*
X149695000Y-110631335D01*
X149750147Y-110908574D01*
X149858320Y-111169727D01*
X150015363Y-111404759D01*
X150215241Y-111604637D01*
X150447759Y-111760000D01*
X150215241Y-111915363D01*
X150015363Y-112115241D01*
X149858320Y-112350273D01*
X149750147Y-112611426D01*
X149695000Y-112888665D01*
X149695000Y-113171335D01*
X149750147Y-113448574D01*
X149858320Y-113709727D01*
X150015363Y-113944759D01*
X150215241Y-114144637D01*
X150447759Y-114300000D01*
X150215241Y-114455363D01*
X150015363Y-114655241D01*
X149858320Y-114890273D01*
X149750147Y-115151426D01*
X149695000Y-115428665D01*
X149695000Y-115711335D01*
X149750147Y-115988574D01*
X149858320Y-116249727D01*
X150015363Y-116484759D01*
X150215241Y-116684637D01*
X150447759Y-116840000D01*
X150215241Y-116995363D01*
X150015363Y-117195241D01*
X149858320Y-117430273D01*
X149750147Y-117691426D01*
X149695000Y-117968665D01*
X149695000Y-118251335D01*
X149750147Y-118528574D01*
X149858320Y-118789727D01*
X150015363Y-119024759D01*
X150215241Y-119224637D01*
X150450273Y-119381680D01*
X150711426Y-119489853D01*
X150988665Y-119545000D01*
X151271335Y-119545000D01*
X151548574Y-119489853D01*
X151809727Y-119381680D01*
X152044759Y-119224637D01*
X152244637Y-119024759D01*
X152401680Y-118789727D01*
X152509853Y-118528574D01*
X152565000Y-118251335D01*
X152565000Y-117968665D01*
X152509853Y-117691426D01*
X152401680Y-117430273D01*
X152244637Y-117195241D01*
X152044759Y-116995363D01*
X151812241Y-116840000D01*
X152044759Y-116684637D01*
X152244637Y-116484759D01*
X152401680Y-116249727D01*
X152509853Y-115988574D01*
X152565000Y-115711335D01*
X152565000Y-115428665D01*
X152509853Y-115151426D01*
X152401680Y-114890273D01*
X152244637Y-114655241D01*
X152044759Y-114455363D01*
X151812241Y-114300000D01*
X152044759Y-114144637D01*
X152244637Y-113944759D01*
X152401680Y-113709727D01*
X152509853Y-113448574D01*
X152565000Y-113171335D01*
X152565000Y-112888665D01*
X152509853Y-112611426D01*
X152401680Y-112350273D01*
X152244637Y-112115241D01*
X152044759Y-111915363D01*
X151812241Y-111760000D01*
X152044759Y-111604637D01*
X152244637Y-111404759D01*
X152401680Y-111169727D01*
X152509853Y-110908574D01*
X152565000Y-110631335D01*
X152565000Y-110348665D01*
X152509853Y-110071426D01*
X152401680Y-109810273D01*
X152244637Y-109575241D01*
X152044759Y-109375363D01*
X151812241Y-109220000D01*
X152044759Y-109064637D01*
X152244637Y-108864759D01*
X152401680Y-108629727D01*
X152509853Y-108368574D01*
X152565000Y-108091335D01*
X152565000Y-107808665D01*
X152509853Y-107531426D01*
X152401680Y-107270273D01*
X152244637Y-107035241D01*
X152044759Y-106835363D01*
X151812241Y-106680000D01*
X152044759Y-106524637D01*
X152244637Y-106324759D01*
X152401680Y-106089727D01*
X152509853Y-105828574D01*
X152565000Y-105551335D01*
X152565000Y-105268665D01*
X152509853Y-104991426D01*
X152401680Y-104730273D01*
X152244637Y-104495241D01*
X152044759Y-104295363D01*
X151812241Y-104140000D01*
X152044759Y-103984637D01*
X152244637Y-103784759D01*
X152401680Y-103549727D01*
X152509853Y-103288574D01*
X152565000Y-103011335D01*
X152565000Y-102728665D01*
X152509853Y-102451426D01*
X152401680Y-102190273D01*
X152244637Y-101955241D01*
X152044759Y-101755363D01*
X151812241Y-101600000D01*
X152044759Y-101444637D01*
X152244637Y-101244759D01*
X152401680Y-101009727D01*
X152509853Y-100748574D01*
X152565000Y-100471335D01*
X152565000Y-100188665D01*
X152509853Y-99911426D01*
X152401680Y-99650273D01*
X152244637Y-99415241D01*
X152044759Y-99215363D01*
X151812241Y-99060000D01*
X152044759Y-98904637D01*
X152244637Y-98704759D01*
X152401680Y-98469727D01*
X152509853Y-98208574D01*
X152565000Y-97931335D01*
X152565000Y-97648665D01*
X152509853Y-97371426D01*
X152401680Y-97110273D01*
X152244637Y-96875241D01*
X152044759Y-96675363D01*
X151812241Y-96520000D01*
X152044759Y-96364637D01*
X152244637Y-96164759D01*
X152401680Y-95929727D01*
X152509853Y-95668574D01*
X152565000Y-95391335D01*
X152565000Y-95108665D01*
X152509853Y-94831426D01*
X152401680Y-94570273D01*
X152244637Y-94335241D01*
X152044759Y-94135363D01*
X151812241Y-93980000D01*
X152044759Y-93824637D01*
X152244637Y-93624759D01*
X152401680Y-93389727D01*
X152509853Y-93128574D01*
X152565000Y-92851335D01*
X152565000Y-92568665D01*
X152509853Y-92291426D01*
X152401680Y-92030273D01*
X152244637Y-91795241D01*
X152044759Y-91595363D01*
X151812241Y-91440000D01*
X152044759Y-91284637D01*
X152244637Y-91084759D01*
X152401680Y-90849727D01*
X152509853Y-90588574D01*
X152565000Y-90311335D01*
X152565000Y-90028665D01*
X152509853Y-89751426D01*
X152401680Y-89490273D01*
X152244637Y-89255241D01*
X152044759Y-89055363D01*
X151812241Y-88900000D01*
X152044759Y-88744637D01*
X152244637Y-88544759D01*
X152401680Y-88309727D01*
X152509853Y-88048574D01*
X152565000Y-87771335D01*
X152565000Y-87488665D01*
X152509853Y-87211426D01*
X152401680Y-86950273D01*
X152244637Y-86715241D01*
X152044759Y-86515363D01*
X151812241Y-86360000D01*
X152044759Y-86204637D01*
X152244637Y-86004759D01*
X152401680Y-85769727D01*
X152509853Y-85508574D01*
X152565000Y-85231335D01*
X152565000Y-84948665D01*
X152509853Y-84671426D01*
X152401680Y-84410273D01*
X152244637Y-84175241D01*
X152044759Y-83975363D01*
X151812241Y-83820000D01*
X152044759Y-83664637D01*
X152244637Y-83464759D01*
X152401680Y-83229727D01*
X152509853Y-82968574D01*
X152565000Y-82691335D01*
X152565000Y-82408665D01*
X152509853Y-82131426D01*
X152401680Y-81870273D01*
X152244637Y-81635241D01*
X152216480Y-81607084D01*
X155268004Y-78555560D01*
X155297002Y-78531762D01*
X155391975Y-78416037D01*
X155397899Y-78404954D01*
X155548065Y-78555120D01*
X155776873Y-78708005D01*
X156031110Y-78813314D01*
X156301008Y-78867000D01*
X156576192Y-78867000D01*
X156846090Y-78813314D01*
X157100327Y-78708005D01*
X157329135Y-78555120D01*
X157523720Y-78360535D01*
X157676605Y-78131727D01*
X157781914Y-77877490D01*
X157835600Y-77607592D01*
X157835600Y-77332408D01*
X157781914Y-77062510D01*
X157676605Y-76808273D01*
X157523720Y-76579465D01*
X157329135Y-76384880D01*
X157100327Y-76231995D01*
X156846090Y-76126686D01*
X156576192Y-76073000D01*
X156301008Y-76073000D01*
X156287346Y-76075717D01*
X156652304Y-75710760D01*
X156681302Y-75686962D01*
X156776275Y-75571237D01*
X156782199Y-75560154D01*
X156932365Y-75710320D01*
X157161173Y-75863205D01*
X157415410Y-75968514D01*
X157685308Y-76022200D01*
X157960492Y-76022200D01*
X158230390Y-75968514D01*
X158484627Y-75863205D01*
X158713435Y-75710320D01*
X158908020Y-75515735D01*
X159060905Y-75286927D01*
X159166214Y-75032690D01*
X159219900Y-74762792D01*
X159219900Y-74487608D01*
X159166214Y-74217710D01*
X159060905Y-73963473D01*
X158908020Y-73734665D01*
X158713435Y-73540080D01*
X158484627Y-73387195D01*
X158230390Y-73281886D01*
X157960492Y-73228200D01*
X157685308Y-73228200D01*
X157415410Y-73281886D01*
X157161173Y-73387195D01*
X156932365Y-73540080D01*
X156782199Y-73690246D01*
X156776275Y-73679162D01*
X156705100Y-73592436D01*
X156681302Y-73563438D01*
X156652305Y-73539641D01*
X156162663Y-73050000D01*
X158717721Y-73050000D01*
X158867869Y-73064722D01*
G36*
X135207759Y-101600000D02*
G01*
X135074990Y-101688713D01*
X135074990Y-101511287D01*
X135207759Y-101600000D01*
G37*
X135207759Y-101600000D02*
X135074990Y-101688713D01*
X135074990Y-101511287D01*
X135207759Y-101600000D01*
G36*
X135207759Y-99060000D02*
G01*
X135074990Y-99148713D01*
X135074990Y-98971287D01*
X135207759Y-99060000D01*
G37*
X135207759Y-99060000D02*
X135074990Y-99148713D01*
X135074990Y-98971287D01*
X135207759Y-99060000D01*
G36*
X136804796Y-94135400D02*
G01*
X136804759Y-94135363D01*
X136572241Y-93980000D01*
X136804759Y-93824637D01*
X137004637Y-93624759D01*
X137108043Y-93470000D01*
X137232840Y-93470000D01*
X137270162Y-93473676D01*
X137307484Y-93470000D01*
X137307495Y-93470000D01*
X137419148Y-93459003D01*
X137508210Y-93431987D01*
X136804796Y-94135400D01*
G37*
X136804796Y-94135400D02*
X136804759Y-94135363D01*
X136572241Y-93980000D01*
X136804759Y-93824637D01*
X137004637Y-93624759D01*
X137108043Y-93470000D01*
X137232840Y-93470000D01*
X137270162Y-93473676D01*
X137307484Y-93470000D01*
X137307495Y-93470000D01*
X137419148Y-93459003D01*
X137508210Y-93431987D01*
X136804796Y-94135400D01*
G36*
X147471073Y-78708005D02*
G01*
X147725310Y-78813314D01*
X147995208Y-78867000D01*
X148073198Y-78867000D01*
X137246105Y-89694094D01*
X137161680Y-89490273D01*
X137004637Y-89255241D01*
X137004600Y-89255204D01*
X147259503Y-79000301D01*
X147288501Y-78976503D01*
X147383474Y-78860778D01*
X147454046Y-78728749D01*
X147462148Y-78702041D01*
X147471073Y-78708005D01*
G37*
X147471073Y-78708005D02*
X147725310Y-78813314D01*
X147995208Y-78867000D01*
X148073198Y-78867000D01*
X137246105Y-89694094D01*
X137161680Y-89490273D01*
X137004637Y-89255241D01*
X137004600Y-89255204D01*
X147259503Y-79000301D01*
X147288501Y-78976503D01*
X147383474Y-78860778D01*
X147454046Y-78728749D01*
X147462148Y-78702041D01*
X147471073Y-78708005D01*
G36*
X152779465Y-78555120D02*
G01*
X152982905Y-78691055D01*
X151008962Y-80664999D01*
X150627321Y-80664999D01*
X150589998Y-80661323D01*
X150552675Y-80664999D01*
X150552666Y-80664999D01*
X150441013Y-80675996D01*
X150351952Y-80703012D01*
X152499404Y-78555560D01*
X152528402Y-78531762D01*
X152623375Y-78416037D01*
X152629299Y-78404954D01*
X152779465Y-78555120D01*
G37*
X152779465Y-78555120D02*
X152982905Y-78691055D01*
X151008962Y-80664999D01*
X150627321Y-80664999D01*
X150589998Y-80661323D01*
X150552675Y-80664999D01*
X150552666Y-80664999D01*
X150441013Y-80675996D01*
X150351952Y-80703012D01*
X152499404Y-78555560D01*
X152528402Y-78531762D01*
X152623375Y-78416037D01*
X152629299Y-78404954D01*
X152779465Y-78555120D01*
G36*
X150942386Y-75032690D02*
G01*
X151047695Y-75286927D01*
X151200580Y-75515735D01*
X151395165Y-75710320D01*
X151623973Y-75863205D01*
X151652180Y-75874889D01*
X151477404Y-76049665D01*
X151448400Y-76073468D01*
X151420894Y-76106985D01*
X151380412Y-76156312D01*
X151308890Y-76126686D01*
X151038992Y-76073000D01*
X150763808Y-76073000D01*
X150493910Y-76126686D01*
X150277100Y-76216492D01*
X150277100Y-75797541D01*
X150407635Y-75710320D01*
X150602220Y-75515735D01*
X150755105Y-75286927D01*
X150860414Y-75032690D01*
X150901400Y-74826639D01*
X150942386Y-75032690D01*
G37*
X150942386Y-75032690D02*
X151047695Y-75286927D01*
X151200580Y-75515735D01*
X151395165Y-75710320D01*
X151623973Y-75863205D01*
X151652180Y-75874889D01*
X151477404Y-76049665D01*
X151448400Y-76073468D01*
X151420894Y-76106985D01*
X151380412Y-76156312D01*
X151308890Y-76126686D01*
X151038992Y-76073000D01*
X150763808Y-76073000D01*
X150493910Y-76126686D01*
X150277100Y-76216492D01*
X150277100Y-75797541D01*
X150407635Y-75710320D01*
X150602220Y-75515735D01*
X150755105Y-75286927D01*
X150860414Y-75032690D01*
X150901400Y-74826639D01*
X150942386Y-75032690D01*
G36*
X148173786Y-75032690D02*
G01*
X148279095Y-75286927D01*
X148431980Y-75515735D01*
X148626565Y-75710320D01*
X148757100Y-75797541D01*
X148757100Y-76216492D01*
X148540290Y-76126686D01*
X148270392Y-76073000D01*
X147995208Y-76073000D01*
X147725310Y-76126686D01*
X147508500Y-76216492D01*
X147508500Y-75797541D01*
X147639035Y-75710320D01*
X147833620Y-75515735D01*
X147986505Y-75286927D01*
X148091814Y-75032690D01*
X148132800Y-74826639D01*
X148173786Y-75032690D01*
G37*
X148173786Y-75032690D02*
X148279095Y-75286927D01*
X148431980Y-75515735D01*
X148626565Y-75710320D01*
X148757100Y-75797541D01*
X148757100Y-76216492D01*
X148540290Y-76126686D01*
X148270392Y-76073000D01*
X147995208Y-76073000D01*
X147725310Y-76126686D01*
X147508500Y-76216492D01*
X147508500Y-75797541D01*
X147639035Y-75710320D01*
X147833620Y-75515735D01*
X147986505Y-75286927D01*
X148091814Y-75032690D01*
X148132800Y-74826639D01*
X148173786Y-75032690D01*
G36*
X154163765Y-75710320D02*
G01*
X154367206Y-75846255D01*
X154246004Y-75967457D01*
X154217000Y-75991260D01*
X154161872Y-76058435D01*
X154122027Y-76106985D01*
X154111497Y-76126686D01*
X154105332Y-76138219D01*
X154077490Y-76126686D01*
X153807592Y-76073000D01*
X153603672Y-76073000D01*
X154065058Y-75611613D01*
X154163765Y-75710320D01*
G37*
X154163765Y-75710320D02*
X154367206Y-75846255D01*
X154246004Y-75967457D01*
X154217000Y-75991260D01*
X154161872Y-76058435D01*
X154122027Y-76106985D01*
X154111497Y-76126686D01*
X154105332Y-76138219D01*
X154077490Y-76126686D01*
X153807592Y-76073000D01*
X153603672Y-76073000D01*
X154065058Y-75611613D01*
X154163765Y-75710320D01*
G36*
X152577270Y-73258828D02*
G01*
X152423292Y-73228200D01*
X152148108Y-73228200D01*
X151878210Y-73281886D01*
X151623973Y-73387195D01*
X151395165Y-73540080D01*
X151200580Y-73734665D01*
X151047695Y-73963473D01*
X150942386Y-74217710D01*
X150901400Y-74423761D01*
X150860414Y-74217710D01*
X150755105Y-73963473D01*
X150602220Y-73734665D01*
X150407635Y-73540080D01*
X150178827Y-73387195D01*
X149924590Y-73281886D01*
X149654692Y-73228200D01*
X149379508Y-73228200D01*
X149109610Y-73281886D01*
X148855373Y-73387195D01*
X148626565Y-73540080D01*
X148431980Y-73734665D01*
X148279095Y-73963473D01*
X148173786Y-74217710D01*
X148132800Y-74423761D01*
X148091814Y-74217710D01*
X147986505Y-73963473D01*
X147833620Y-73734665D01*
X147639035Y-73540080D01*
X147410227Y-73387195D01*
X147155990Y-73281886D01*
X146886092Y-73228200D01*
X146610908Y-73228200D01*
X146341010Y-73281886D01*
X146086773Y-73387195D01*
X145857965Y-73540080D01*
X145663380Y-73734665D01*
X145510495Y-73963473D01*
X145405186Y-74217710D01*
X145364200Y-74423761D01*
X145323214Y-74217710D01*
X145217905Y-73963473D01*
X145065020Y-73734665D01*
X144870435Y-73540080D01*
X144641627Y-73387195D01*
X144387390Y-73281886D01*
X144117492Y-73228200D01*
X143842308Y-73228200D01*
X143572410Y-73281886D01*
X143318173Y-73387195D01*
X143089365Y-73540080D01*
X142894780Y-73734665D01*
X142741895Y-73963473D01*
X142636586Y-74217710D01*
X142595600Y-74423761D01*
X142554614Y-74217710D01*
X142449305Y-73963473D01*
X142296420Y-73734665D01*
X142101835Y-73540080D01*
X141873027Y-73387195D01*
X141618790Y-73281886D01*
X141348892Y-73228200D01*
X141073708Y-73228200D01*
X140803810Y-73281886D01*
X140549573Y-73387195D01*
X140320765Y-73540080D01*
X140126180Y-73734665D01*
X139973295Y-73963473D01*
X139867986Y-74217710D01*
X139827000Y-74423761D01*
X139786014Y-74217710D01*
X139680705Y-73963473D01*
X139527820Y-73734665D01*
X139333235Y-73540080D01*
X139104427Y-73387195D01*
X138850190Y-73281886D01*
X138580292Y-73228200D01*
X138305108Y-73228200D01*
X138035210Y-73281886D01*
X137780973Y-73387195D01*
X137552165Y-73540080D01*
X137357580Y-73734665D01*
X137204695Y-73963473D01*
X137099386Y-74217710D01*
X137058400Y-74423761D01*
X137017414Y-74217710D01*
X136912105Y-73963473D01*
X136759220Y-73734665D01*
X136564635Y-73540080D01*
X136335827Y-73387195D01*
X136081590Y-73281886D01*
X135811692Y-73228200D01*
X135536508Y-73228200D01*
X135266610Y-73281886D01*
X135012373Y-73387195D01*
X134783565Y-73540080D01*
X134588980Y-73734665D01*
X134436095Y-73963473D01*
X134330786Y-74217710D01*
X134289800Y-74423761D01*
X134248814Y-74217710D01*
X134143505Y-73963473D01*
X133990620Y-73734665D01*
X133796035Y-73540080D01*
X133567227Y-73387195D01*
X133312990Y-73281886D01*
X133043092Y-73228200D01*
X132767908Y-73228200D01*
X132498010Y-73281886D01*
X132243773Y-73387195D01*
X132014965Y-73540080D01*
X131820380Y-73734665D01*
X131667495Y-73963473D01*
X131562186Y-74217710D01*
X131521200Y-74423761D01*
X131480214Y-74217710D01*
X131374905Y-73963473D01*
X131222020Y-73734665D01*
X131027435Y-73540080D01*
X130798627Y-73387195D01*
X130544390Y-73281886D01*
X130274492Y-73228200D01*
X129999308Y-73228200D01*
X129729410Y-73281886D01*
X129475173Y-73387195D01*
X129246365Y-73540080D01*
X129051780Y-73734665D01*
X128898895Y-73963473D01*
X128793586Y-74217710D01*
X128752600Y-74423761D01*
X128711614Y-74217710D01*
X128606305Y-73963473D01*
X128453420Y-73734665D01*
X128258835Y-73540080D01*
X128030027Y-73387195D01*
X127775790Y-73281886D01*
X127505892Y-73228200D01*
X127230708Y-73228200D01*
X126960810Y-73281886D01*
X126706573Y-73387195D01*
X126477765Y-73540080D01*
X126283180Y-73734665D01*
X126130295Y-73963473D01*
X126024986Y-74217710D01*
X125984000Y-74423761D01*
X125943014Y-74217710D01*
X125837705Y-73963473D01*
X125684820Y-73734665D01*
X125490235Y-73540080D01*
X125261427Y-73387195D01*
X125007190Y-73281886D01*
X124737292Y-73228200D01*
X124462108Y-73228200D01*
X124192210Y-73281886D01*
X123937973Y-73387195D01*
X123911725Y-73404733D01*
X123954555Y-73324181D01*
X124029407Y-73232404D01*
X124120664Y-73156909D01*
X124224844Y-73100581D01*
X124337976Y-73065560D01*
X124486022Y-73050000D01*
X152786098Y-73050000D01*
X152577270Y-73258828D01*
G37*
X152577270Y-73258828D02*
X152423292Y-73228200D01*
X152148108Y-73228200D01*
X151878210Y-73281886D01*
X151623973Y-73387195D01*
X151395165Y-73540080D01*
X151200580Y-73734665D01*
X151047695Y-73963473D01*
X150942386Y-74217710D01*
X150901400Y-74423761D01*
X150860414Y-74217710D01*
X150755105Y-73963473D01*
X150602220Y-73734665D01*
X150407635Y-73540080D01*
X150178827Y-73387195D01*
X149924590Y-73281886D01*
X149654692Y-73228200D01*
X149379508Y-73228200D01*
X149109610Y-73281886D01*
X148855373Y-73387195D01*
X148626565Y-73540080D01*
X148431980Y-73734665D01*
X148279095Y-73963473D01*
X148173786Y-74217710D01*
X148132800Y-74423761D01*
X148091814Y-74217710D01*
X147986505Y-73963473D01*
X147833620Y-73734665D01*
X147639035Y-73540080D01*
X147410227Y-73387195D01*
X147155990Y-73281886D01*
X146886092Y-73228200D01*
X146610908Y-73228200D01*
X146341010Y-73281886D01*
X146086773Y-73387195D01*
X145857965Y-73540080D01*
X145663380Y-73734665D01*
X145510495Y-73963473D01*
X145405186Y-74217710D01*
X145364200Y-74423761D01*
X145323214Y-74217710D01*
X145217905Y-73963473D01*
X145065020Y-73734665D01*
X144870435Y-73540080D01*
X144641627Y-73387195D01*
X144387390Y-73281886D01*
X144117492Y-73228200D01*
X143842308Y-73228200D01*
X143572410Y-73281886D01*
X143318173Y-73387195D01*
X143089365Y-73540080D01*
X142894780Y-73734665D01*
X142741895Y-73963473D01*
X142636586Y-74217710D01*
X142595600Y-74423761D01*
X142554614Y-74217710D01*
X142449305Y-73963473D01*
X142296420Y-73734665D01*
X142101835Y-73540080D01*
X141873027Y-73387195D01*
X141618790Y-73281886D01*
X141348892Y-73228200D01*
X141073708Y-73228200D01*
X140803810Y-73281886D01*
X140549573Y-73387195D01*
X140320765Y-73540080D01*
X140126180Y-73734665D01*
X139973295Y-73963473D01*
X139867986Y-74217710D01*
X139827000Y-74423761D01*
X139786014Y-74217710D01*
X139680705Y-73963473D01*
X139527820Y-73734665D01*
X139333235Y-73540080D01*
X139104427Y-73387195D01*
X138850190Y-73281886D01*
X138580292Y-73228200D01*
X138305108Y-73228200D01*
X138035210Y-73281886D01*
X137780973Y-73387195D01*
X137552165Y-73540080D01*
X137357580Y-73734665D01*
X137204695Y-73963473D01*
X137099386Y-74217710D01*
X137058400Y-74423761D01*
X137017414Y-74217710D01*
X136912105Y-73963473D01*
X136759220Y-73734665D01*
X136564635Y-73540080D01*
X136335827Y-73387195D01*
X136081590Y-73281886D01*
X135811692Y-73228200D01*
X135536508Y-73228200D01*
X135266610Y-73281886D01*
X135012373Y-73387195D01*
X134783565Y-73540080D01*
X134588980Y-73734665D01*
X134436095Y-73963473D01*
X134330786Y-74217710D01*
X134289800Y-74423761D01*
X134248814Y-74217710D01*
X134143505Y-73963473D01*
X133990620Y-73734665D01*
X133796035Y-73540080D01*
X133567227Y-73387195D01*
X133312990Y-73281886D01*
X133043092Y-73228200D01*
X132767908Y-73228200D01*
X132498010Y-73281886D01*
X132243773Y-73387195D01*
X132014965Y-73540080D01*
X131820380Y-73734665D01*
X131667495Y-73963473D01*
X131562186Y-74217710D01*
X131521200Y-74423761D01*
X131480214Y-74217710D01*
X131374905Y-73963473D01*
X131222020Y-73734665D01*
X131027435Y-73540080D01*
X130798627Y-73387195D01*
X130544390Y-73281886D01*
X130274492Y-73228200D01*
X129999308Y-73228200D01*
X129729410Y-73281886D01*
X129475173Y-73387195D01*
X129246365Y-73540080D01*
X129051780Y-73734665D01*
X128898895Y-73963473D01*
X128793586Y-74217710D01*
X128752600Y-74423761D01*
X128711614Y-74217710D01*
X128606305Y-73963473D01*
X128453420Y-73734665D01*
X128258835Y-73540080D01*
X128030027Y-73387195D01*
X127775790Y-73281886D01*
X127505892Y-73228200D01*
X127230708Y-73228200D01*
X126960810Y-73281886D01*
X126706573Y-73387195D01*
X126477765Y-73540080D01*
X126283180Y-73734665D01*
X126130295Y-73963473D01*
X126024986Y-74217710D01*
X125984000Y-74423761D01*
X125943014Y-74217710D01*
X125837705Y-73963473D01*
X125684820Y-73734665D01*
X125490235Y-73540080D01*
X125261427Y-73387195D01*
X125007190Y-73281886D01*
X124737292Y-73228200D01*
X124462108Y-73228200D01*
X124192210Y-73281886D01*
X123937973Y-73387195D01*
X123911725Y-73404733D01*
X123954555Y-73324181D01*
X124029407Y-73232404D01*
X124120664Y-73156909D01*
X124224844Y-73100581D01*
X124337976Y-73065560D01*
X124486022Y-73050000D01*
X152786098Y-73050000D01*
X152577270Y-73258828D01*
M02*
