%TF.GenerationSoftware,KiCad,Pcbnew,(5.1.6)-1*%
%TF.CreationDate,2020-09-18T20:45:58-04:00*%
%TF.ProjectId,grbl_adapter,6772626c-5f61-4646-9170-7465722e6b69,rev?*%
%TF.SameCoordinates,Original*%
%TF.FileFunction,Soldermask,Top*%
%TF.FilePolarity,Negative*%
%FSLAX46Y46*%
G04 Gerber Fmt 4.6, Leading zero omitted, Abs format (unit mm)*
G04 Created by KiCad (PCBNEW (5.1.6)-1) date 2020-09-18 20:45:58*
%MOMM*%
%LPD*%
G01*
G04 APERTURE LIST*
%ADD10C,1.624000*%
%ADD11O,1.700000X1.700000*%
%ADD12R,1.700000X1.700000*%
G04 APERTURE END LIST*
D10*
%TO.C,U1*%
X124599700Y-74625200D03*
X127368300Y-74625200D03*
X130136900Y-74625200D03*
X132905500Y-74625200D03*
X135674100Y-74625200D03*
X138442700Y-74625200D03*
X141211300Y-74625200D03*
X143979900Y-74625200D03*
X146748500Y-74625200D03*
X149517100Y-74625200D03*
X152285700Y-74625200D03*
X155054300Y-74625200D03*
X157822900Y-74625200D03*
X125984000Y-77470000D03*
X128752600Y-77470000D03*
X131521200Y-77470000D03*
X134289800Y-77470000D03*
X137058400Y-77470000D03*
X139827000Y-77470000D03*
X142595600Y-77470000D03*
X145364200Y-77470000D03*
X148132800Y-77470000D03*
X150901400Y-77470000D03*
X153670000Y-77470000D03*
X156438600Y-77470000D03*
%TD*%
D11*
%TO.C,A0*%
X151130000Y-118110000D03*
X135890000Y-118110000D03*
X151130000Y-82550000D03*
X135890000Y-115570000D03*
X151130000Y-85090000D03*
X135890000Y-113030000D03*
X151130000Y-87630000D03*
X135890000Y-110490000D03*
X151130000Y-90170000D03*
X135890000Y-107950000D03*
X151130000Y-92710000D03*
X135890000Y-105410000D03*
X151130000Y-95250000D03*
X135890000Y-102870000D03*
X151130000Y-97790000D03*
X135890000Y-100330000D03*
X151130000Y-100330000D03*
X135890000Y-97790000D03*
X151130000Y-102870000D03*
X135890000Y-95250000D03*
X151130000Y-105410000D03*
X135890000Y-92710000D03*
X151130000Y-107950000D03*
X135890000Y-90170000D03*
X151130000Y-110490000D03*
X135890000Y-87630000D03*
X151130000Y-113030000D03*
X135890000Y-85090000D03*
X151130000Y-115570000D03*
D12*
X135890000Y-82550000D03*
%TD*%
M02*
