%MOIN*%
%OFA0B0*%
%FSLAX46Y46*%
%IPPOS*%
%LPD*%
%ADD10O,0.066929133858267723X0.066929133858267723*%
%ADD11R,0.066929133858267723X0.066929133858267723*%
%ADD22O,0.066929133858267723X0.066929133858267723*%
%ADD23R,0.066929133858267723X0.066929133858267723*%
%ADD24O,0.066929133858267723X0.066929133858267723*%
%ADD25R,0.066929133858267723X0.066929133858267723*%
%ADD26O,0.066929133858267723X0.066929133858267723*%
%ADD27R,0.066929133858267723X0.066929133858267723*%
%ADD28O,0.066929133858267723X0.066929133858267723*%
%ADD29R,0.066929133858267723X0.066929133858267723*%
%ADD30O,0.066929133858267723X0.066929133858267723*%
%ADD31R,0.066929133858267723X0.066929133858267723*%
%ADD32O,0.066929133858267723X0.066929133858267723*%
%ADD33R,0.066929133858267723X0.066929133858267723*%
%ADD34O,0.066929133858267723X0.066929133858267723*%
%ADD35R,0.066929133858267723X0.066929133858267723*%
%ADD36O,0.066929133858267723X0.066929133858267723*%
%ADD37R,0.066929133858267723X0.066929133858267723*%
%ADD38O,0.066929133858267723X0.066929133858267723*%
%ADD39R,0.066929133858267723X0.066929133858267723*%
%ADD40O,0.066929133858267723X0.066929133858267723*%
%ADD41R,0.066929133858267723X0.066929133858267723*%
%ADD42O,0.066929133858267723X0.066929133858267723*%
%ADD43R,0.066929133858267723X0.066929133858267723*%
%ADD44O,0.066929133858267723X0.066929133858267723*%
%ADD45R,0.066929133858267723X0.066929133858267723*%
%ADD46O,0.066929133858267723X0.066929133858267723*%
%ADD47R,0.066929133858267723X0.066929133858267723*%
%ADD48O,0.066929133858267723X0.066929133858267723*%
%ADD49R,0.066929133858267723X0.066929133858267723*%
%ADD50O,0.066929133858267723X0.066929133858267723*%
%ADD51R,0.066929133858267723X0.066929133858267723*%
%ADD52O,0.066929133858267723X0.066929133858267723*%
%ADD53R,0.066929133858267723X0.066929133858267723*%
%ADD54O,0.066929133858267723X0.066929133858267723*%
%ADD55R,0.066929133858267723X0.066929133858267723*%
%ADD56O,0.066929133858267723X0.066929133858267723*%
%ADD57R,0.066929133858267723X0.066929133858267723*%
%ADD58O,0.066929133858267723X0.066929133858267723*%
%ADD59R,0.066929133858267723X0.066929133858267723*%
%ADD60C,0.082677165354330714*%
%ADD61C,0.082677165354330714*%
%ADD62C,0.082677165354330714*%
%ADD63C,0.082677165354330714*%
%ADD64C,0.082677165354330714*%
%ADD65C,0.086740000000000012*%
%ADD66C,0.12611*%
%ADD67C,0.086740000000000012*%
%ADD68C,0.12611*%
%ADD69O,0.07874015748031496X0.043307086614173235*%
%ADD70O,0.053149606299212608X0.0452755905511811*%
%ADD71C,0.063937007874015753*%
%ADD72O,0.066929133858267723X0.066929133858267723*%
%ADD73R,0.066929133858267723X0.066929133858267723*%
%ADD74O,0.066929133858267723X0.066929133858267723*%
%ADD75R,0.066929133858267723X0.066929133858267723*%
G01*
D10*
X-0000065866Y-0000110275D02*
X0001484133Y0002264724D03*
X0001884133Y0002564724D03*
X0001484133Y0002364724D03*
X0001884133Y0002464724D03*
X0001484133Y0002464724D03*
X0001884133Y0002364724D03*
X0001484133Y0002564724D03*
D11*
X0001884133Y0002264724D03*
G04 next file*
G04 Gerber Fmt 4.6, Leading zero omitted, Abs format (unit mm)*
G04 Created by KiCad (PCBNEW (5.1.6)-1) date 2020-09-18 13:03:01*
G01*
G04 APERTURE LIST*
G04 APERTURE END LIST*
D22*
X0005288464Y-0001212637D02*
X0006838464Y0001162362D03*
X0007238464Y0001462362D03*
X0006838464Y0001262362D03*
X0007238464Y0001362362D03*
X0006838464Y0001362362D03*
X0007238464Y0001262362D03*
X0006838464Y0001462362D03*
D23*
X0007238464Y0001162362D03*
G04 next file*
G04 Gerber Fmt 4.6, Leading zero omitted, Abs format (unit mm)*
G04 Created by KiCad (PCBNEW (5.1.6)-1) date 2020-09-18 13:03:01*
G01*
G04 APERTURE LIST*
G04 APERTURE END LIST*
D24*
X0005879015Y-0001212637D02*
X0007429015Y0001162362D03*
X0007829015Y0001462362D03*
X0007429015Y0001262362D03*
X0007829015Y0001362362D03*
X0007429015Y0001362362D03*
X0007829015Y0001262362D03*
X0007429015Y0001462362D03*
D25*
X0007829015Y0001162362D03*
G04 next file*
G04 Gerber Fmt 4.6, Leading zero omitted, Abs format (unit mm)*
G04 Created by KiCad (PCBNEW (5.1.6)-1) date 2020-09-18 13:03:01*
G01*
G04 APERTURE LIST*
G04 APERTURE END LIST*
D26*
X0006469566Y-0001212637D02*
X0008019566Y0001162362D03*
X0008419566Y0001462362D03*
X0008019566Y0001262362D03*
X0008419566Y0001362362D03*
X0008019566Y0001362362D03*
X0008419566Y0001262362D03*
X0008019566Y0001462362D03*
D27*
X0008419566Y0001162362D03*
G04 next file*
G04 Gerber Fmt 4.6, Leading zero omitted, Abs format (unit mm)*
G04 Created by KiCad (PCBNEW (5.1.6)-1) date 2020-09-18 13:03:01*
G01*
G04 APERTURE LIST*
G04 APERTURE END LIST*
D28*
X0005288464Y-0000700826D02*
X0006838464Y0001674173D03*
X0007238464Y0001974173D03*
X0006838464Y0001774173D03*
X0007238464Y0001874173D03*
X0006838464Y0001874173D03*
X0007238464Y0001774173D03*
X0006838464Y0001974173D03*
D29*
X0007238464Y0001674173D03*
G04 next file*
G04 Gerber Fmt 4.6, Leading zero omitted, Abs format (unit mm)*
G04 Created by KiCad (PCBNEW (5.1.6)-1) date 2020-09-18 13:03:01*
G01*
G04 APERTURE LIST*
G04 APERTURE END LIST*
D30*
X0005879015Y-0000700826D02*
X0007429015Y0001674173D03*
X0007829015Y0001974173D03*
X0007429015Y0001774173D03*
X0007829015Y0001874173D03*
X0007429015Y0001874173D03*
X0007829015Y0001774173D03*
X0007429015Y0001974173D03*
D31*
X0007829015Y0001674173D03*
G04 next file*
G04 Gerber Fmt 4.6, Leading zero omitted, Abs format (unit mm)*
G04 Created by KiCad (PCBNEW (5.1.6)-1) date 2020-09-18 13:03:01*
G01*
G04 APERTURE LIST*
G04 APERTURE END LIST*
D32*
X0006469566Y-0000700826D02*
X0008019566Y0001674173D03*
X0008419566Y0001974173D03*
X0008019566Y0001774173D03*
X0008419566Y0001874173D03*
X0008019566Y0001874173D03*
X0008419566Y0001774173D03*
X0008019566Y0001974173D03*
D33*
X0008419566Y0001674173D03*
G04 next file*
G04 Gerber Fmt 4.6, Leading zero omitted, Abs format (unit mm)*
G04 Created by KiCad (PCBNEW (5.1.6)-1) date 2020-09-18 13:03:01*
G01*
G04 APERTURE LIST*
G04 APERTURE END LIST*
D34*
X0005288464Y-0000189015D02*
X0006838464Y0002185984D03*
X0007238464Y0002485984D03*
X0006838464Y0002285984D03*
X0007238464Y0002385984D03*
X0006838464Y0002385984D03*
X0007238464Y0002285984D03*
X0006838464Y0002485984D03*
D35*
X0007238464Y0002185984D03*
G04 next file*
G04 Gerber Fmt 4.6, Leading zero omitted, Abs format (unit mm)*
G04 Created by KiCad (PCBNEW (5.1.6)-1) date 2020-09-18 13:03:01*
G01*
G04 APERTURE LIST*
G04 APERTURE END LIST*
D36*
X0005879015Y-0000189015D02*
X0007429015Y0002185984D03*
X0007829015Y0002485984D03*
X0007429015Y0002285984D03*
X0007829015Y0002385984D03*
X0007429015Y0002385984D03*
X0007829015Y0002285984D03*
X0007429015Y0002485984D03*
D37*
X0007829015Y0002185984D03*
G04 next file*
G04 Gerber Fmt 4.6, Leading zero omitted, Abs format (unit mm)*
G04 Created by KiCad (PCBNEW (5.1.6)-1) date 2020-09-18 13:03:01*
G01*
G04 APERTURE LIST*
G04 APERTURE END LIST*
D38*
X0006469566Y-0000189015D02*
X0008019566Y0002185984D03*
X0008419566Y0002485984D03*
X0008019566Y0002285984D03*
X0008419566Y0002385984D03*
X0008019566Y0002385984D03*
X0008419566Y0002285984D03*
X0008019566Y0002485984D03*
D39*
X0008419566Y0002185984D03*
G04 next file*
G04 Gerber Fmt 4.6, Leading zero omitted, Abs format (unit mm)*
G04 Created by KiCad (PCBNEW (5.1.6)-1) date 2020-09-18 13:03:01*
G01*
G04 APERTURE LIST*
G04 APERTURE END LIST*
D40*
X0002611299Y0000007834D02*
X0004161299Y0002382834D03*
X0004561299Y0002682834D03*
X0004161299Y0002482834D03*
X0004561299Y0002582834D03*
X0004161299Y0002582834D03*
X0004561299Y0002482834D03*
X0004161299Y0002682834D03*
D41*
X0004561299Y0002382834D03*
G04 next file*
G04 Gerber Fmt 4.6, Leading zero omitted, Abs format (unit mm)*
G04 Created by KiCad (PCBNEW (5.1.6)-1) date 2020-09-18 13:03:01*
G01*
G04 APERTURE LIST*
G04 APERTURE END LIST*
D42*
X0000524685Y0000322795D02*
X0002074685Y0002697795D03*
X0002474685Y0002997795D03*
X0002074685Y0002797795D03*
X0002474685Y0002897795D03*
X0002074685Y0002897795D03*
X0002474685Y0002797795D03*
X0002074685Y0002997795D03*
D43*
X0002474685Y0002697795D03*
G04 next file*
G04 Gerber Fmt 4.6, Leading zero omitted, Abs format (unit mm)*
G04 Created by KiCad (PCBNEW (5.1.6)-1) date 2020-09-18 13:03:01*
G01*
G04 APERTURE LIST*
G04 APERTURE END LIST*
D44*
X-0000065866Y0000401535D02*
X0001484133Y0002776535D03*
X0001884133Y0003076535D03*
X0001484133Y0002876535D03*
X0001884133Y0002976535D03*
X0001484133Y0002976535D03*
X0001884133Y0002876535D03*
X0001484133Y0003076535D03*
D45*
X0001884133Y0002776535D03*
G04 next file*
G04 Gerber Fmt 4.6, Leading zero omitted, Abs format (unit mm)*
G04 Created by KiCad (PCBNEW (5.1.6)-1) date 2020-09-18 13:03:01*
G01*
G04 APERTURE LIST*
G04 APERTURE END LIST*
D46*
X0001456692Y0000177165D02*
X0003006692Y0002552165D03*
X0003406692Y0002852165D03*
X0003006692Y0002652165D03*
X0003406692Y0002752165D03*
X0003006692Y0002752165D03*
X0003406692Y0002652165D03*
X0003006692Y0002852165D03*
D47*
X0003406692Y0002552165D03*
G04 next file*
G04 Gerber Fmt 4.6, Leading zero omitted, Abs format (unit mm)*
G04 Created by KiCad (PCBNEW (5.1.6)-1) date 2020-09-18 13:03:01*
G01*
G04 APERTURE LIST*
G04 APERTURE END LIST*
D48*
X0002027559Y0000177165D02*
X0003577559Y0002552165D03*
X0003977559Y0002852165D03*
X0003577559Y0002652165D03*
X0003977559Y0002752165D03*
X0003577559Y0002752165D03*
X0003977559Y0002652165D03*
X0003577559Y0002852165D03*
D49*
X0003977559Y0002552165D03*
G04 next file*
G04 Gerber Fmt 4.6, Leading zero omitted, Abs format (unit mm)*
G04 Created by KiCad (PCBNEW (5.1.6)-1) date 2020-09-18 13:03:01*
G01*
G04 APERTURE LIST*
G04 APERTURE END LIST*
D50*
X0003201850Y0000007834D02*
X0004751850Y0002382834D03*
X0005151850Y0002682834D03*
X0004751850Y0002482834D03*
X0005151850Y0002582834D03*
X0004751850Y0002582834D03*
X0005151850Y0002482834D03*
X0004751850Y0002682834D03*
D51*
X0005151850Y0002382834D03*
G04 next file*
G04 Gerber Fmt 4.6, Leading zero omitted, Abs format (unit mm)*
G04 Created by KiCad (PCBNEW (5.1.6)-1) date 2020-09-18 13:03:01*
G01*
G04 APERTURE LIST*
G04 APERTURE END LIST*
D52*
X0003792401Y0000007834D02*
X0005342401Y0002382834D03*
X0005742401Y0002682834D03*
X0005342401Y0002482834D03*
X0005742401Y0002582834D03*
X0005342401Y0002582834D03*
X0005742401Y0002482834D03*
X0005342401Y0002682834D03*
D53*
X0005742401Y0002382834D03*
G04 next file*
G04 Gerber Fmt 4.6, Leading zero omitted, Abs format (unit mm)*
G04 Created by KiCad (PCBNEW (5.1.6)-1) date 2020-09-18 13:03:01*
G01*
G04 APERTURE LIST*
G04 APERTURE END LIST*
D54*
X0004382952Y0000007834D02*
X0005932952Y0002382834D03*
X0006332952Y0002682834D03*
X0005932952Y0002482834D03*
X0006332952Y0002582834D03*
X0005932952Y0002582834D03*
X0006332952Y0002482834D03*
X0005932952Y0002682834D03*
D55*
X0006332952Y0002382834D03*
G04 next file*
G04 Gerber Fmt 4.6, Leading zero omitted, Abs format (unit mm)*
G04 Created by KiCad (PCBNEW (5.1.6)-1) date 2020-09-18 13:03:01*
G01*
G04 APERTURE LIST*
G04 APERTURE END LIST*
D56*
X0005295275Y0000314960D02*
X0006845275Y0002689960D03*
X0007245275Y0002989960D03*
X0006845275Y0002789960D03*
X0007245275Y0002889960D03*
X0006845275Y0002889960D03*
X0007245275Y0002789960D03*
X0006845275Y0002989960D03*
D57*
X0007245275Y0002689960D03*
G04 next file*
G04 Gerber Fmt 4.6, Leading zero omitted, Abs format (unit mm)*
G04 Created by KiCad (PCBNEW (5.1.6)-1) date 2020-09-18 13:03:01*
G01*
G04 APERTURE LIST*
G04 APERTURE END LIST*
D58*
X0005885826Y0000314960D02*
X0007435826Y0002689960D03*
X0007835826Y0002989960D03*
X0007435826Y0002789960D03*
X0007835826Y0002889960D03*
X0007435826Y0002889960D03*
X0007835826Y0002789960D03*
X0007435826Y0002989960D03*
D59*
X0007835826Y0002689960D03*
G04 next file*
G04 Gerber Fmt 4.6, Leading zero omitted, Abs format (unit mm)*
G04 Created by KiCad (PCBNEW (5.1.6)-1) date 2020-09-18 16:39:39*
G01*
G04 APERTURE LIST*
G04 APERTURE END LIST*
D60*
X-0001492126Y-0002600000D02*
X0001907873Y0000899999D03*
X0001907873Y0000799999D03*
X0001907873Y0000699999D03*
X0001907873Y0000599999D03*
X0001907873Y0000499999D03*
X0001907873Y0000399999D03*
X0001907873Y0000299999D03*
X0001907873Y0000199999D03*
X0001907873Y0000099999D03*
X0001807873Y0000899999D03*
X0001807873Y0000799999D03*
X0001807873Y0000699999D03*
X0001807873Y0000599999D03*
X0001807873Y0000499999D03*
X0001807873Y0000399999D03*
X0001807873Y0000299999D03*
X0001807873Y0000199999D03*
X0001807873Y0000099999D03*
X0001707873Y0000899999D03*
X0001707873Y0000799999D03*
X0001707873Y0000699999D03*
X0001707873Y0000599999D03*
X0001707873Y0000499999D03*
X0001707873Y0000399999D03*
X0001707873Y0000299999D03*
X0001707873Y0000199999D03*
X0001707873Y0000099999D03*
X0001607873Y0000899999D03*
X0001607873Y0000799999D03*
X0001607873Y0000699999D03*
X0001607873Y0000599999D03*
X0001607873Y0000499999D03*
X0001607873Y0000399999D03*
X0001607873Y0000299999D03*
X0001607873Y0000199999D03*
X0001607873Y0000099999D03*
X0001507873Y0000899999D03*
X0001507873Y0000799999D03*
X0001507873Y0000699999D03*
X0001507873Y0000599999D03*
X0001507873Y0000499999D03*
X0001507873Y0000399999D03*
X0001507873Y0000299999D03*
X0001507873Y0000199999D03*
X0001507873Y0000099999D03*
X0001407873Y0000899999D03*
X0001407873Y0000799999D03*
X0001407873Y0000699999D03*
X0001407873Y0000599999D03*
X0001407873Y0000499999D03*
X0001407873Y0000399999D03*
X0001407873Y0000299999D03*
X0001407873Y0000199999D03*
X0001407873Y0000099999D03*
X0001307873Y0000899999D03*
X0001307873Y0000799999D03*
X0001307873Y0000699999D03*
X0001307873Y0000599999D03*
X0001307873Y0000499999D03*
X0001307873Y0000399999D03*
X0001307873Y0000299999D03*
X0001307873Y0000199999D03*
X0001307873Y0000099999D03*
X0001207873Y0000899999D03*
X0001207873Y0000799999D03*
X0001207873Y0000699999D03*
X0001207873Y0000599999D03*
X0001207873Y0000499999D03*
X0001207873Y0000399999D03*
X0001207873Y0000299999D03*
X0001207873Y0000199999D03*
X0001207873Y0000099999D03*
X0001107873Y0000899999D03*
X0001107873Y0000799999D03*
X0001107873Y0000699999D03*
X0001107873Y0000599999D03*
X0001107873Y0000499999D03*
X0001107873Y0000399999D03*
X0001107873Y0000299999D03*
X0001107873Y0000199999D03*
X0001107873Y0000099999D03*
X0001007873Y0000899999D03*
X0001007873Y0000799999D03*
X0001007873Y0000699999D03*
X0001007873Y0000599999D03*
X0001007873Y0000499999D03*
X0001007873Y0000399999D03*
X0001007873Y0000299999D03*
X0001007873Y0000199999D03*
X0001007873Y0000099999D03*
X0000907873Y0000899999D03*
X0000907873Y0000799999D03*
X0000907873Y0000699999D03*
X0000907873Y0000599999D03*
X0000907873Y0000499999D03*
X0000907873Y0000399999D03*
X0000907873Y0000299999D03*
X0000907873Y0000199999D03*
X0000907873Y0000099999D03*
X0000807873Y0000899999D03*
X0000807873Y0000799999D03*
X0000807873Y0000699999D03*
X0000807873Y0000599999D03*
X0000807873Y0000499999D03*
X0000807873Y0000399999D03*
X0000807873Y0000299999D03*
X0000807873Y0000199999D03*
X0000807873Y0000099999D03*
X0000707873Y0000899999D03*
X0000707873Y0000799999D03*
X0000707873Y0000699999D03*
X0000707873Y0000599999D03*
X0000707873Y0000499999D03*
X0000707873Y0000399999D03*
X0000707873Y0000299999D03*
X0000707873Y0000199999D03*
X0000707873Y0000099999D03*
X0000607873Y0000899999D03*
X0000607873Y0000799999D03*
X0000607873Y0000699999D03*
X0000607873Y0000599999D03*
X0000607873Y0000499999D03*
X0000607873Y0000399999D03*
X0000607873Y0000299999D03*
X0000607873Y0000199999D03*
X0000607873Y0000099999D03*
X0000507873Y0000899999D03*
X0000507873Y0000799999D03*
X0000507873Y0000699999D03*
X0000507873Y0000599999D03*
X0000507873Y0000499999D03*
X0000507873Y0000399999D03*
X0000507873Y0000299999D03*
X0000507873Y0000199999D03*
X0000507873Y0000099999D03*
X0000407873Y0000899999D03*
X0000407873Y0000799999D03*
X0000407873Y0000699999D03*
X0000407873Y0000599999D03*
X0000407873Y0000499999D03*
X0000407873Y0000399999D03*
X0000407873Y0000299999D03*
X0000407873Y0000199999D03*
X0000407873Y0000099999D03*
X0000307873Y0000899999D03*
X0000307873Y0000799999D03*
X0000307873Y0000699999D03*
X0000307873Y0000599999D03*
X0000307873Y0000499999D03*
X0000307873Y0000399999D03*
X0000307873Y0000299999D03*
X0000307873Y0000199999D03*
X0000307873Y0000099999D03*
X0000207873Y0000899999D03*
X0000207873Y0000799999D03*
X0000207873Y0000699999D03*
X0000207873Y0000599999D03*
X0000207873Y0000499999D03*
X0000207873Y0000399999D03*
X0000207873Y0000299999D03*
X0000207873Y0000199999D03*
X0000207873Y0000099999D03*
X0000107873Y0000899999D03*
X0000107873Y0000799999D03*
X0000107873Y0000699999D03*
X0000107873Y0000599999D03*
X0000107873Y0000499999D03*
X0000107873Y0000399999D03*
X0000107873Y0000299999D03*
X0000107873Y0000199999D03*
X0000107873Y0000099999D03*
G04 next file*
G04 Gerber Fmt 4.6, Leading zero omitted, Abs format (unit mm)*
G04 Created by KiCad (PCBNEW (5.1.6)-1) date 2020-09-18 16:39:39*
G01*
G04 APERTURE LIST*
G04 APERTURE END LIST*
D61*
X0000594488Y-0002600000D02*
X0003994488Y0000899999D03*
X0003994488Y0000799999D03*
X0003994488Y0000699999D03*
X0003994488Y0000599999D03*
X0003994488Y0000499999D03*
X0003994488Y0000399999D03*
X0003994488Y0000299999D03*
X0003994488Y0000199999D03*
X0003994488Y0000099999D03*
X0003894488Y0000899999D03*
X0003894488Y0000799999D03*
X0003894488Y0000699999D03*
X0003894488Y0000599999D03*
X0003894488Y0000499999D03*
X0003894488Y0000399999D03*
X0003894488Y0000299999D03*
X0003894488Y0000199999D03*
X0003894488Y0000099999D03*
X0003794488Y0000899999D03*
X0003794488Y0000799999D03*
X0003794488Y0000699999D03*
X0003794488Y0000599999D03*
X0003794488Y0000499999D03*
X0003794488Y0000399999D03*
X0003794488Y0000299999D03*
X0003794488Y0000199999D03*
X0003794488Y0000099999D03*
X0003694488Y0000899999D03*
X0003694488Y0000799999D03*
X0003694488Y0000699999D03*
X0003694488Y0000599999D03*
X0003694488Y0000499999D03*
X0003694488Y0000399999D03*
X0003694488Y0000299999D03*
X0003694488Y0000199999D03*
X0003694488Y0000099999D03*
X0003594488Y0000899999D03*
X0003594488Y0000799999D03*
X0003594488Y0000699999D03*
X0003594488Y0000599999D03*
X0003594488Y0000499999D03*
X0003594488Y0000399999D03*
X0003594488Y0000299999D03*
X0003594488Y0000199999D03*
X0003594488Y0000099999D03*
X0003494488Y0000899999D03*
X0003494488Y0000799999D03*
X0003494488Y0000699999D03*
X0003494488Y0000599999D03*
X0003494488Y0000499999D03*
X0003494488Y0000399999D03*
X0003494488Y0000299999D03*
X0003494488Y0000199999D03*
X0003494488Y0000099999D03*
X0003394488Y0000899999D03*
X0003394488Y0000799999D03*
X0003394488Y0000699999D03*
X0003394488Y0000599999D03*
X0003394488Y0000499999D03*
X0003394488Y0000399999D03*
X0003394488Y0000299999D03*
X0003394488Y0000199999D03*
X0003394488Y0000099999D03*
X0003294488Y0000899999D03*
X0003294488Y0000799999D03*
X0003294488Y0000699999D03*
X0003294488Y0000599999D03*
X0003294488Y0000499999D03*
X0003294488Y0000399999D03*
X0003294488Y0000299999D03*
X0003294488Y0000199999D03*
X0003294488Y0000099999D03*
X0003194488Y0000899999D03*
X0003194488Y0000799999D03*
X0003194488Y0000699999D03*
X0003194488Y0000599999D03*
X0003194488Y0000499999D03*
X0003194488Y0000399999D03*
X0003194488Y0000299999D03*
X0003194488Y0000199999D03*
X0003194488Y0000099999D03*
X0003094488Y0000899999D03*
X0003094488Y0000799999D03*
X0003094488Y0000699999D03*
X0003094488Y0000599999D03*
X0003094488Y0000499999D03*
X0003094488Y0000399999D03*
X0003094488Y0000299999D03*
X0003094488Y0000199999D03*
X0003094488Y0000099999D03*
X0002994488Y0000899999D03*
X0002994488Y0000799999D03*
X0002994488Y0000699999D03*
X0002994488Y0000599999D03*
X0002994488Y0000499999D03*
X0002994488Y0000399999D03*
X0002994488Y0000299999D03*
X0002994488Y0000199999D03*
X0002994488Y0000099999D03*
X0002894488Y0000899999D03*
X0002894488Y0000799999D03*
X0002894488Y0000699999D03*
X0002894488Y0000599999D03*
X0002894488Y0000499999D03*
X0002894488Y0000399999D03*
X0002894488Y0000299999D03*
X0002894488Y0000199999D03*
X0002894488Y0000099999D03*
X0002794488Y0000899999D03*
X0002794488Y0000799999D03*
X0002794488Y0000699999D03*
X0002794488Y0000599999D03*
X0002794488Y0000499999D03*
X0002794488Y0000399999D03*
X0002794488Y0000299999D03*
X0002794488Y0000199999D03*
X0002794488Y0000099999D03*
X0002694488Y0000899999D03*
X0002694488Y0000799999D03*
X0002694488Y0000699999D03*
X0002694488Y0000599999D03*
X0002694488Y0000499999D03*
X0002694488Y0000399999D03*
X0002694488Y0000299999D03*
X0002694488Y0000199999D03*
X0002694488Y0000099999D03*
X0002594488Y0000899999D03*
X0002594488Y0000799999D03*
X0002594488Y0000699999D03*
X0002594488Y0000599999D03*
X0002594488Y0000499999D03*
X0002594488Y0000399999D03*
X0002594488Y0000299999D03*
X0002594488Y0000199999D03*
X0002594488Y0000099999D03*
X0002494488Y0000899999D03*
X0002494488Y0000799999D03*
X0002494488Y0000699999D03*
X0002494488Y0000599999D03*
X0002494488Y0000499999D03*
X0002494488Y0000399999D03*
X0002494488Y0000299999D03*
X0002494488Y0000199999D03*
X0002494488Y0000099999D03*
X0002394488Y0000899999D03*
X0002394488Y0000799999D03*
X0002394488Y0000699999D03*
X0002394488Y0000599999D03*
X0002394488Y0000499999D03*
X0002394488Y0000399999D03*
X0002394488Y0000299999D03*
X0002394488Y0000199999D03*
X0002394488Y0000099999D03*
X0002294488Y0000899999D03*
X0002294488Y0000799999D03*
X0002294488Y0000699999D03*
X0002294488Y0000599999D03*
X0002294488Y0000499999D03*
X0002294488Y0000399999D03*
X0002294488Y0000299999D03*
X0002294488Y0000199999D03*
X0002294488Y0000099999D03*
X0002194488Y0000899999D03*
X0002194488Y0000799999D03*
X0002194488Y0000699999D03*
X0002194488Y0000599999D03*
X0002194488Y0000499999D03*
X0002194488Y0000399999D03*
X0002194488Y0000299999D03*
X0002194488Y0000199999D03*
X0002194488Y0000099999D03*
G04 next file*
G04 Gerber Fmt 4.6, Leading zero omitted, Abs format (unit mm)*
G04 Created by KiCad (PCBNEW (5.1.6)-1) date 2020-09-18 16:39:39*
G01*
G04 APERTURE LIST*
G04 APERTURE END LIST*
D62*
X0002681102Y-0002600000D02*
X0006081102Y0000899999D03*
X0006081102Y0000799999D03*
X0006081102Y0000699999D03*
X0006081102Y0000599999D03*
X0006081102Y0000499999D03*
X0006081102Y0000399999D03*
X0006081102Y0000299999D03*
X0006081102Y0000199999D03*
X0006081102Y0000099999D03*
X0005981102Y0000899999D03*
X0005981102Y0000799999D03*
X0005981102Y0000699999D03*
X0005981102Y0000599999D03*
X0005981102Y0000499999D03*
X0005981102Y0000399999D03*
X0005981102Y0000299999D03*
X0005981102Y0000199999D03*
X0005981102Y0000099999D03*
X0005881102Y0000899999D03*
X0005881102Y0000799999D03*
X0005881102Y0000699999D03*
X0005881102Y0000599999D03*
X0005881102Y0000499999D03*
X0005881102Y0000399999D03*
X0005881102Y0000299999D03*
X0005881102Y0000199999D03*
X0005881102Y0000099999D03*
X0005781102Y0000899999D03*
X0005781102Y0000799999D03*
X0005781102Y0000699999D03*
X0005781102Y0000599999D03*
X0005781102Y0000499999D03*
X0005781102Y0000399999D03*
X0005781102Y0000299999D03*
X0005781102Y0000199999D03*
X0005781102Y0000099999D03*
X0005681102Y0000899999D03*
X0005681102Y0000799999D03*
X0005681102Y0000699999D03*
X0005681102Y0000599999D03*
X0005681102Y0000499999D03*
X0005681102Y0000399999D03*
X0005681102Y0000299999D03*
X0005681102Y0000199999D03*
X0005681102Y0000099999D03*
X0005581102Y0000899999D03*
X0005581102Y0000799999D03*
X0005581102Y0000699999D03*
X0005581102Y0000599999D03*
X0005581102Y0000499999D03*
X0005581102Y0000399999D03*
X0005581102Y0000299999D03*
X0005581102Y0000199999D03*
X0005581102Y0000099999D03*
X0005481102Y0000899999D03*
X0005481102Y0000799999D03*
X0005481102Y0000699999D03*
X0005481102Y0000599999D03*
X0005481102Y0000499999D03*
X0005481102Y0000399999D03*
X0005481102Y0000299999D03*
X0005481102Y0000199999D03*
X0005481102Y0000099999D03*
X0005381102Y0000899999D03*
X0005381102Y0000799999D03*
X0005381102Y0000699999D03*
X0005381102Y0000599999D03*
X0005381102Y0000499999D03*
X0005381102Y0000399999D03*
X0005381102Y0000299999D03*
X0005381102Y0000199999D03*
X0005381102Y0000099999D03*
X0005281102Y0000899999D03*
X0005281102Y0000799999D03*
X0005281102Y0000699999D03*
X0005281102Y0000599999D03*
X0005281102Y0000499999D03*
X0005281102Y0000399999D03*
X0005281102Y0000299999D03*
X0005281102Y0000199999D03*
X0005281102Y0000099999D03*
X0005181102Y0000899999D03*
X0005181102Y0000799999D03*
X0005181102Y0000699999D03*
X0005181102Y0000599999D03*
X0005181102Y0000499999D03*
X0005181102Y0000399999D03*
X0005181102Y0000299999D03*
X0005181102Y0000199999D03*
X0005181102Y0000099999D03*
X0005081102Y0000899999D03*
X0005081102Y0000799999D03*
X0005081102Y0000699999D03*
X0005081102Y0000599999D03*
X0005081102Y0000499999D03*
X0005081102Y0000399999D03*
X0005081102Y0000299999D03*
X0005081102Y0000199999D03*
X0005081102Y0000099999D03*
X0004981102Y0000899999D03*
X0004981102Y0000799999D03*
X0004981102Y0000699999D03*
X0004981102Y0000599999D03*
X0004981102Y0000499999D03*
X0004981102Y0000399999D03*
X0004981102Y0000299999D03*
X0004981102Y0000199999D03*
X0004981102Y0000099999D03*
X0004881102Y0000899999D03*
X0004881102Y0000799999D03*
X0004881102Y0000699999D03*
X0004881102Y0000599999D03*
X0004881102Y0000499999D03*
X0004881102Y0000399999D03*
X0004881102Y0000299999D03*
X0004881102Y0000199999D03*
X0004881102Y0000099999D03*
X0004781102Y0000899999D03*
X0004781102Y0000799999D03*
X0004781102Y0000699999D03*
X0004781102Y0000599999D03*
X0004781102Y0000499999D03*
X0004781102Y0000399999D03*
X0004781102Y0000299999D03*
X0004781102Y0000199999D03*
X0004781102Y0000099999D03*
X0004681102Y0000899999D03*
X0004681102Y0000799999D03*
X0004681102Y0000699999D03*
X0004681102Y0000599999D03*
X0004681102Y0000499999D03*
X0004681102Y0000399999D03*
X0004681102Y0000299999D03*
X0004681102Y0000199999D03*
X0004681102Y0000099999D03*
X0004581102Y0000899999D03*
X0004581102Y0000799999D03*
X0004581102Y0000699999D03*
X0004581102Y0000599999D03*
X0004581102Y0000499999D03*
X0004581102Y0000399999D03*
X0004581102Y0000299999D03*
X0004581102Y0000199999D03*
X0004581102Y0000099999D03*
X0004481102Y0000899999D03*
X0004481102Y0000799999D03*
X0004481102Y0000699999D03*
X0004481102Y0000599999D03*
X0004481102Y0000499999D03*
X0004481102Y0000399999D03*
X0004481102Y0000299999D03*
X0004481102Y0000199999D03*
X0004481102Y0000099999D03*
X0004381102Y0000899999D03*
X0004381102Y0000799999D03*
X0004381102Y0000699999D03*
X0004381102Y0000599999D03*
X0004381102Y0000499999D03*
X0004381102Y0000399999D03*
X0004381102Y0000299999D03*
X0004381102Y0000199999D03*
X0004381102Y0000099999D03*
X0004281102Y0000899999D03*
X0004281102Y0000799999D03*
X0004281102Y0000699999D03*
X0004281102Y0000599999D03*
X0004281102Y0000499999D03*
X0004281102Y0000399999D03*
X0004281102Y0000299999D03*
X0004281102Y0000199999D03*
X0004281102Y0000099999D03*
G04 next file*
G04 Gerber Fmt 4.6, Leading zero omitted, Abs format (unit mm)*
G04 Created by KiCad (PCBNEW (5.1.6)-1) date 2020-09-18 16:39:39*
G01*
G04 APERTURE LIST*
G04 APERTURE END LIST*
D63*
X0004767716Y-0002600000D02*
X0008167716Y0000899999D03*
X0008167716Y0000799999D03*
X0008167716Y0000699999D03*
X0008167716Y0000599999D03*
X0008167716Y0000499999D03*
X0008167716Y0000399999D03*
X0008167716Y0000299999D03*
X0008167716Y0000199999D03*
X0008167716Y0000099999D03*
X0008067716Y0000899999D03*
X0008067716Y0000799999D03*
X0008067716Y0000699999D03*
X0008067716Y0000599999D03*
X0008067716Y0000499999D03*
X0008067716Y0000399999D03*
X0008067716Y0000299999D03*
X0008067716Y0000199999D03*
X0008067716Y0000099999D03*
X0007967716Y0000899999D03*
X0007967716Y0000799999D03*
X0007967716Y0000699999D03*
X0007967716Y0000599999D03*
X0007967716Y0000499999D03*
X0007967716Y0000399999D03*
X0007967716Y0000299999D03*
X0007967716Y0000199999D03*
X0007967716Y0000099999D03*
X0007867716Y0000899999D03*
X0007867716Y0000799999D03*
X0007867716Y0000699999D03*
X0007867716Y0000599999D03*
X0007867716Y0000499999D03*
X0007867716Y0000399999D03*
X0007867716Y0000299999D03*
X0007867716Y0000199999D03*
X0007867716Y0000099999D03*
X0007767716Y0000899999D03*
X0007767716Y0000799999D03*
X0007767716Y0000699999D03*
X0007767716Y0000599999D03*
X0007767716Y0000499999D03*
X0007767716Y0000399999D03*
X0007767716Y0000299999D03*
X0007767716Y0000199999D03*
X0007767716Y0000099999D03*
X0007667716Y0000899999D03*
X0007667716Y0000799999D03*
X0007667716Y0000699999D03*
X0007667716Y0000599999D03*
X0007667716Y0000499999D03*
X0007667716Y0000399999D03*
X0007667716Y0000299999D03*
X0007667716Y0000199999D03*
X0007667716Y0000099999D03*
X0007567716Y0000899999D03*
X0007567716Y0000799999D03*
X0007567716Y0000699999D03*
X0007567716Y0000599999D03*
X0007567716Y0000499999D03*
X0007567716Y0000399999D03*
X0007567716Y0000299999D03*
X0007567716Y0000199999D03*
X0007567716Y0000099999D03*
X0007467716Y0000899999D03*
X0007467716Y0000799999D03*
X0007467716Y0000699999D03*
X0007467716Y0000599999D03*
X0007467716Y0000499999D03*
X0007467716Y0000399999D03*
X0007467716Y0000299999D03*
X0007467716Y0000199999D03*
X0007467716Y0000099999D03*
X0007367716Y0000899999D03*
X0007367716Y0000799999D03*
X0007367716Y0000699999D03*
X0007367716Y0000599999D03*
X0007367716Y0000499999D03*
X0007367716Y0000399999D03*
X0007367716Y0000299999D03*
X0007367716Y0000199999D03*
X0007367716Y0000099999D03*
X0007267716Y0000899999D03*
X0007267716Y0000799999D03*
X0007267716Y0000699999D03*
X0007267716Y0000599999D03*
X0007267716Y0000499999D03*
X0007267716Y0000399999D03*
X0007267716Y0000299999D03*
X0007267716Y0000199999D03*
X0007267716Y0000099999D03*
X0007167716Y0000899999D03*
X0007167716Y0000799999D03*
X0007167716Y0000699999D03*
X0007167716Y0000599999D03*
X0007167716Y0000499999D03*
X0007167716Y0000399999D03*
X0007167716Y0000299999D03*
X0007167716Y0000199999D03*
X0007167716Y0000099999D03*
X0007067716Y0000899999D03*
X0007067716Y0000799999D03*
X0007067716Y0000699999D03*
X0007067716Y0000599999D03*
X0007067716Y0000499999D03*
X0007067716Y0000399999D03*
X0007067716Y0000299999D03*
X0007067716Y0000199999D03*
X0007067716Y0000099999D03*
X0006967716Y0000899999D03*
X0006967716Y0000799999D03*
X0006967716Y0000699999D03*
X0006967716Y0000599999D03*
X0006967716Y0000499999D03*
X0006967716Y0000399999D03*
X0006967716Y0000299999D03*
X0006967716Y0000199999D03*
X0006967716Y0000099999D03*
X0006867716Y0000899999D03*
X0006867716Y0000799999D03*
X0006867716Y0000699999D03*
X0006867716Y0000599999D03*
X0006867716Y0000499999D03*
X0006867716Y0000399999D03*
X0006867716Y0000299999D03*
X0006867716Y0000199999D03*
X0006867716Y0000099999D03*
X0006767716Y0000899999D03*
X0006767716Y0000799999D03*
X0006767716Y0000699999D03*
X0006767716Y0000599999D03*
X0006767716Y0000499999D03*
X0006767716Y0000399999D03*
X0006767716Y0000299999D03*
X0006767716Y0000199999D03*
X0006767716Y0000099999D03*
X0006667716Y0000899999D03*
X0006667716Y0000799999D03*
X0006667716Y0000699999D03*
X0006667716Y0000599999D03*
X0006667716Y0000499999D03*
X0006667716Y0000399999D03*
X0006667716Y0000299999D03*
X0006667716Y0000199999D03*
X0006667716Y0000099999D03*
X0006567716Y0000899999D03*
X0006567716Y0000799999D03*
X0006567716Y0000699999D03*
X0006567716Y0000599999D03*
X0006567716Y0000499999D03*
X0006567716Y0000399999D03*
X0006567716Y0000299999D03*
X0006567716Y0000199999D03*
X0006567716Y0000099999D03*
X0006467716Y0000899999D03*
X0006467716Y0000799999D03*
X0006467716Y0000699999D03*
X0006467716Y0000599999D03*
X0006467716Y0000499999D03*
X0006467716Y0000399999D03*
X0006467716Y0000299999D03*
X0006467716Y0000199999D03*
X0006467716Y0000099999D03*
X0006367716Y0000899999D03*
X0006367716Y0000799999D03*
X0006367716Y0000699999D03*
X0006367716Y0000599999D03*
X0006367716Y0000499999D03*
X0006367716Y0000399999D03*
X0006367716Y0000299999D03*
X0006367716Y0000199999D03*
X0006367716Y0000099999D03*
G04 next file*
G04 Gerber Fmt 4.6, Leading zero omitted, Abs format (unit mm)*
G04 Created by KiCad (PCBNEW (5.1.6)-1) date 2020-09-18 16:39:39*
G01*
G04 APERTURE LIST*
G04 APERTURE END LIST*
D64*
X-0001492126Y-0001497637D02*
X0001907873Y0002002362D03*
X0001907873Y0001902362D03*
X0001907873Y0001802362D03*
X0001907873Y0001702362D03*
X0001907873Y0001602362D03*
X0001907873Y0001502362D03*
X0001907873Y0001402362D03*
X0001907873Y0001302362D03*
X0001907873Y0001202362D03*
X0001807873Y0002002362D03*
X0001807873Y0001902362D03*
X0001807873Y0001802362D03*
X0001807873Y0001702362D03*
X0001807873Y0001602362D03*
X0001807873Y0001502362D03*
X0001807873Y0001402362D03*
X0001807873Y0001302362D03*
X0001807873Y0001202362D03*
X0001707873Y0002002362D03*
X0001707873Y0001902362D03*
X0001707873Y0001802362D03*
X0001707873Y0001702362D03*
X0001707873Y0001602362D03*
X0001707873Y0001502362D03*
X0001707873Y0001402362D03*
X0001707873Y0001302362D03*
X0001707873Y0001202362D03*
X0001607873Y0002002362D03*
X0001607873Y0001902362D03*
X0001607873Y0001802362D03*
X0001607873Y0001702362D03*
X0001607873Y0001602362D03*
X0001607873Y0001502362D03*
X0001607873Y0001402362D03*
X0001607873Y0001302362D03*
X0001607873Y0001202362D03*
X0001507873Y0002002362D03*
X0001507873Y0001902362D03*
X0001507873Y0001802362D03*
X0001507873Y0001702362D03*
X0001507873Y0001602362D03*
X0001507873Y0001502362D03*
X0001507873Y0001402362D03*
X0001507873Y0001302362D03*
X0001507873Y0001202362D03*
X0001407873Y0002002362D03*
X0001407873Y0001902362D03*
X0001407873Y0001802362D03*
X0001407873Y0001702362D03*
X0001407873Y0001602362D03*
X0001407873Y0001502362D03*
X0001407873Y0001402362D03*
X0001407873Y0001302362D03*
X0001407873Y0001202362D03*
X0001307873Y0002002362D03*
X0001307873Y0001902362D03*
X0001307873Y0001802362D03*
X0001307873Y0001702362D03*
X0001307873Y0001602362D03*
X0001307873Y0001502362D03*
X0001307873Y0001402362D03*
X0001307873Y0001302362D03*
X0001307873Y0001202362D03*
X0001207873Y0002002362D03*
X0001207873Y0001902362D03*
X0001207873Y0001802362D03*
X0001207873Y0001702362D03*
X0001207873Y0001602362D03*
X0001207873Y0001502362D03*
X0001207873Y0001402362D03*
X0001207873Y0001302362D03*
X0001207873Y0001202362D03*
X0001107873Y0002002362D03*
X0001107873Y0001902362D03*
X0001107873Y0001802362D03*
X0001107873Y0001702362D03*
X0001107873Y0001602362D03*
X0001107873Y0001502362D03*
X0001107873Y0001402362D03*
X0001107873Y0001302362D03*
X0001107873Y0001202362D03*
X0001007873Y0002002362D03*
X0001007873Y0001902362D03*
X0001007873Y0001802362D03*
X0001007873Y0001702362D03*
X0001007873Y0001602362D03*
X0001007873Y0001502362D03*
X0001007873Y0001402362D03*
X0001007873Y0001302362D03*
X0001007873Y0001202362D03*
X0000907873Y0002002362D03*
X0000907873Y0001902362D03*
X0000907873Y0001802362D03*
X0000907873Y0001702362D03*
X0000907873Y0001602362D03*
X0000907873Y0001502362D03*
X0000907873Y0001402362D03*
X0000907873Y0001302362D03*
X0000907873Y0001202362D03*
X0000807873Y0002002362D03*
X0000807873Y0001902362D03*
X0000807873Y0001802362D03*
X0000807873Y0001702362D03*
X0000807873Y0001602362D03*
X0000807873Y0001502362D03*
X0000807873Y0001402362D03*
X0000807873Y0001302362D03*
X0000807873Y0001202362D03*
X0000707873Y0002002362D03*
X0000707873Y0001902362D03*
X0000707873Y0001802362D03*
X0000707873Y0001702362D03*
X0000707873Y0001602362D03*
X0000707873Y0001502362D03*
X0000707873Y0001402362D03*
X0000707873Y0001302362D03*
X0000707873Y0001202362D03*
X0000607873Y0002002362D03*
X0000607873Y0001902362D03*
X0000607873Y0001802362D03*
X0000607873Y0001702362D03*
X0000607873Y0001602362D03*
X0000607873Y0001502362D03*
X0000607873Y0001402362D03*
X0000607873Y0001302362D03*
X0000607873Y0001202362D03*
X0000507873Y0002002362D03*
X0000507873Y0001902362D03*
X0000507873Y0001802362D03*
X0000507873Y0001702362D03*
X0000507873Y0001602362D03*
X0000507873Y0001502362D03*
X0000507873Y0001402362D03*
X0000507873Y0001302362D03*
X0000507873Y0001202362D03*
X0000407873Y0002002362D03*
X0000407873Y0001902362D03*
X0000407873Y0001802362D03*
X0000407873Y0001702362D03*
X0000407873Y0001602362D03*
X0000407873Y0001502362D03*
X0000407873Y0001402362D03*
X0000407873Y0001302362D03*
X0000407873Y0001202362D03*
X0000307873Y0002002362D03*
X0000307873Y0001902362D03*
X0000307873Y0001802362D03*
X0000307873Y0001702362D03*
X0000307873Y0001602362D03*
X0000307873Y0001502362D03*
X0000307873Y0001402362D03*
X0000307873Y0001302362D03*
X0000307873Y0001202362D03*
X0000207873Y0002002362D03*
X0000207873Y0001902362D03*
X0000207873Y0001802362D03*
X0000207873Y0001702362D03*
X0000207873Y0001602362D03*
X0000207873Y0001502362D03*
X0000207873Y0001402362D03*
X0000207873Y0001302362D03*
X0000207873Y0001202362D03*
X0000107873Y0002002362D03*
X0000107873Y0001902362D03*
X0000107873Y0001802362D03*
X0000107873Y0001702362D03*
X0000107873Y0001602362D03*
X0000107873Y0001502362D03*
X0000107873Y0001402362D03*
X0000107873Y0001302362D03*
X0000107873Y0001202362D03*
G04 next file*
G04 Layer: BottomSolderMaskLayer*
G04 EasyEDA v6.3.53, 2020-06-26T16:53:54--4:00*
G04 395d111042f2402990e7a52cfaf045f1,10*
G04 Gerber Generator version 0.2*
G04 Scale: 100 percent, Rotated: No, Reflected: No *
G04 Dimensions in millimeters *
G04 leading zeros omitted , absolute positions ,3 integer and 3 decimal *
G90*
G04 skipping 71
D65*
G01X0004171889Y0002105590D02*
G01X0004211259Y0002105590D01*
G01X0004171889Y0001985590D02*
G01X0004211259Y0001985590D01*
G01X0004171889Y0001865551D02*
G01X0004211259Y0001865551D01*
G01X0004171889Y0001750590D02*
G01X0004211259Y0001750590D01*
G01X0004171889Y0001630590D02*
G01X0004211259Y0001630590D01*
D66*
G01X0004595118Y0001219448D02*
G01X0004595118Y0001180078D01*
G01X0004752559Y0001219448D02*
G01X0004752559Y0001180078D01*
G01X0005264370Y0001416299D02*
G01X0005264370Y0001376929D01*
G01X0005106889Y0001416299D02*
G01X0005106889Y0001376929D01*
G01X0004949409Y0001416299D02*
G01X0004949409Y0001376929D01*
G04 next file*
G04 Layer: BottomSolderMaskLayer*
G04 EasyEDA v6.3.53, 2020-06-26T16:53:54--4:00*
G04 395d111042f2402990e7a52cfaf045f1,10*
G04 Gerber Generator version 0.2*
G04 Scale: 100 percent, Rotated: No, Reflected: No *
G04 Dimensions in millimeters *
G04 leading zeros omitted , absolute positions ,3 integer and 3 decimal *
G90*
G04 skipping 71
D67*
G01X0005510472Y0002105590D02*
G01X0005549842Y0002105590D01*
G01X0005510472Y0001985590D02*
G01X0005549842Y0001985590D01*
G01X0005510472Y0001865551D02*
G01X0005549842Y0001865551D01*
G01X0005510472Y0001750590D02*
G01X0005549842Y0001750590D01*
G01X0005510472Y0001630590D02*
G01X0005549842Y0001630590D01*
D68*
G01X0005933700Y0001219448D02*
G01X0005933700Y0001180078D01*
G01X0006091141Y0001219448D02*
G01X0006091141Y0001180078D01*
G01X0006602952Y0001416299D02*
G01X0006602952Y0001376929D01*
G01X0006445472Y0001416299D02*
G01X0006445472Y0001376929D01*
G01X0006287992Y0001416299D02*
G01X0006287992Y0001376929D01*
G04 next file*
G04 Gerber Fmt 4.6, Leading zero omitted, Abs format (unit mm)*
G04 Created by KiCad (PCBNEW (5.1.6)-1) date 2020-08-14 16:38:12*
G01*
G04 APERTURE LIST*
G04 APERTURE END LIST*
D69*
X-0000461417Y0001704724D02*
X0000238582Y0002569094D03*
X0000238582Y0002240354D03*
D70*
X0000120472Y0002492322D03*
X0000120472Y0002317125D03*
G04 next file*
G04 Gerber Fmt 4.6, Leading zero omitted, Abs format (unit mm)*
G04 Created by KiCad (PCBNEW (5.1.6)-1) date 2020-09-18 20:45:58*
G01*
G04 APERTURE LIST*
G04 APERTURE END LIST*
D71*
X-0000734252Y-0003747637D02*
X0002203747Y0001157862D03*
X0002203747Y0001266862D03*
X0002203747Y0001375862D03*
X0002203747Y0001484862D03*
X0002203747Y0001593862D03*
X0002203747Y0001702862D03*
X0002203747Y0001811862D03*
X0002203747Y0001920862D03*
X0002203747Y0002029862D03*
X0002203747Y0002138862D03*
X0002203747Y0002247862D03*
X0002203747Y0002356862D03*
X0002203747Y0002465862D03*
X0002315747Y0001212362D03*
X0002315747Y0001321362D03*
X0002315747Y0001430362D03*
X0002315747Y0001539362D03*
X0002315747Y0001648362D03*
X0002315747Y0001757362D03*
X0002315747Y0001866362D03*
X0002315747Y0001975362D03*
X0002315747Y0002084362D03*
X0002315747Y0002193362D03*
X0002315747Y0002302362D03*
X0002315747Y0002411362D03*
D72*
X0003915747Y0002202362D03*
X0003915747Y0001602362D03*
X0002515747Y0002202362D03*
X0003815747Y0001602362D03*
X0002615747Y0002202362D03*
X0003715747Y0001602362D03*
X0002715747Y0002202362D03*
X0003615747Y0001602362D03*
X0002815747Y0002202362D03*
X0003515747Y0001602362D03*
X0002915747Y0002202362D03*
X0003415747Y0001602362D03*
X0003015747Y0002202362D03*
X0003315747Y0001602362D03*
X0003115747Y0002202362D03*
X0003215747Y0001602362D03*
X0003215747Y0002202362D03*
X0003115747Y0001602362D03*
X0003315747Y0002202362D03*
X0003015747Y0001602362D03*
X0003415747Y0002202362D03*
X0002915747Y0001602362D03*
X0003515747Y0002202362D03*
X0002815747Y0001602362D03*
X0003615747Y0002202362D03*
X0002715747Y0001602362D03*
X0003715747Y0002202362D03*
X0002615747Y0001602362D03*
X0003815747Y0002202362D03*
D73*
X0002515747Y0001602362D03*
G04 next file*
G04 Gerber Fmt 4.6, Leading zero omitted, Abs format (unit mm)*
G04 Created by KiCad (PCBNEW (5.1.6)-1) date 2020-09-18 13:03:01*
G01*
G04 APERTURE LIST*
G04 APERTURE END LIST*
D74*
X0006456692Y0000314960D02*
X0008006692Y0002689960D03*
X0008406692Y0002989960D03*
X0008006692Y0002789960D03*
X0008406692Y0002889960D03*
X0008006692Y0002889960D03*
X0008406692Y0002789960D03*
X0008006692Y0002989960D03*
D75*
X0008406692Y0002689960D03*
M02*