%MOIN*%
%OFA0B0*%
%FSLAX46Y46*%
%IPPOS*%
%LPD*%
%ADD10R,0.07874X0.025*%
%ADD11R,0.23622X0.62598401574803153*%
%ADD12R,0.04330700787401575X0.03937*%
%ADD13R,0.11811X0.03937*%
%ADD14R,0.05X0.065*%
%ADD15R,0.074802992125984263X0.047244015748031491*%
%ADD16R,0.03937X0.061024015748031506*%
%ADD17R,0.07874X0.025*%
%ADD18R,0.23622X0.62598401574803153*%
%ADD19R,0.04330700787401575X0.03937*%
%ADD20R,0.11811X0.03937*%
%ADD21R,0.05X0.065*%
%ADD22R,0.074802992125984263X0.047244015748031491*%
%ADD23R,0.03937X0.061024015748031506*%
G01*
G04 next file*
G04 Gerber Fmt 4.6, Leading zero omitted, Abs format (unit mm)*
G04 Created by KiCad (PCBNEW (5.1.6)-1) date 2020-09-18 16:39:39*
G01*
G04 APERTURE LIST*
G04 APERTURE END LIST*
G04 next file*
G04 Gerber Fmt 4.6, Leading zero omitted, Abs format (unit mm)*
G04 Created by KiCad (PCBNEW (5.1.6)-1) date 2020-09-18 16:39:39*
G01*
G04 APERTURE LIST*
G04 APERTURE END LIST*
G04 next file*
G04 Gerber Fmt 4.6, Leading zero omitted, Abs format (unit mm)*
G04 Created by KiCad (PCBNEW (5.1.6)-1) date 2020-09-18 16:39:39*
G01*
G04 APERTURE LIST*
G04 APERTURE END LIST*
G04 next file*
G04 Gerber Fmt 4.6, Leading zero omitted, Abs format (unit mm)*
G04 Created by KiCad (PCBNEW (5.1.6)-1) date 2020-09-18 16:39:39*
G01*
G04 APERTURE LIST*
G04 APERTURE END LIST*
G04 next file*
G04 Layer: TopPasteMaskLayer*
G04 EasyEDA v6.3.53, 2020-06-26T16:53:54--4:00*
G04 395d111042f2402990e7a52cfaf045f1,10*
G04 Gerber Generator version 0.2*
G04 Scale: 100 percent, Rotated: No, Reflected: No *
G04 Dimensions in millimeters *
G04 leading zeros omitted , absolute positions ,3 integer and 3 decimal *
G90*
G04 skipping 71
D10*
G01X0004374645Y0002094055D03*
G01X0004374645Y0002044055D03*
G01X0004374645Y0001994055D03*
G01X0004374645Y0001944055D03*
G01X0004374645Y0001894055D03*
G01X0004374645Y0001844055D03*
G01X0004374645Y0001794055D03*
G01X0004374645Y0001744055D03*
G01X0004374645Y0001694055D03*
G01X0004374645Y0001644055D03*
G01X0004894291Y0001644055D03*
G01X0004894291Y0001694055D03*
G01X0004894291Y0001744055D03*
G01X0004894291Y0001794055D03*
G01X0004894291Y0001844055D03*
G01X0004894291Y0001894055D03*
G01X0004894291Y0001944055D03*
G01X0004894291Y0001994055D03*
G01X0004894291Y0002044055D03*
G01X0004894291Y0002094055D03*
D11*
G01X0004634488Y0001869055D03*
D12*
G01X0005225000Y0001865078D03*
G01X0005225000Y0001794251D03*
D13*
G01X0004169881Y0001278543D03*
G01X0004390393Y0001278543D03*
D14*
G01X0005021889Y0001632874D03*
G01X0005188937Y0001632874D03*
G01X0005231259Y0002026535D03*
G01X0005064251Y0002026535D03*
D15*
G01X0005084488Y0001892047D03*
G01X0005084488Y0001766062D03*
D16*
G01X0004949409Y0002184015D03*
G01X0005028149Y0002184015D03*
G01X0004240787Y0001514763D03*
G01X0004319527Y0001514763D03*
G04 next file*
G04 Layer: TopPasteMaskLayer*
G04 EasyEDA v6.3.53, 2020-06-26T16:53:54--4:00*
G04 395d111042f2402990e7a52cfaf045f1,10*
G04 Gerber Generator version 0.2*
G04 Scale: 100 percent, Rotated: No, Reflected: No *
G04 Dimensions in millimeters *
G04 leading zeros omitted , absolute positions ,3 integer and 3 decimal *
G90*
G04 skipping 71
D17*
G01X0005713228Y0002094055D03*
G01X0005713228Y0002044055D03*
G01X0005713228Y0001994055D03*
G01X0005713228Y0001944055D03*
G01X0005713228Y0001894055D03*
G01X0005713228Y0001844055D03*
G01X0005713228Y0001794055D03*
G01X0005713228Y0001744055D03*
G01X0005713228Y0001694055D03*
G01X0005713228Y0001644055D03*
G01X0006232874Y0001644055D03*
G01X0006232874Y0001694055D03*
G01X0006232874Y0001744055D03*
G01X0006232874Y0001794055D03*
G01X0006232874Y0001844055D03*
G01X0006232874Y0001894055D03*
G01X0006232874Y0001944055D03*
G01X0006232874Y0001994055D03*
G01X0006232874Y0002044055D03*
G01X0006232874Y0002094055D03*
D18*
G01X0005973070Y0001869055D03*
D19*
G01X0006563582Y0001865078D03*
G01X0006563582Y0001794251D03*
D20*
G01X0005508464Y0001278543D03*
G01X0005728976Y0001278543D03*
D21*
G01X0006360472Y0001632874D03*
G01X0006527519Y0001632874D03*
G01X0006569842Y0002026535D03*
G01X0006402834Y0002026535D03*
D22*
G01X0006423070Y0001892047D03*
G01X0006423070Y0001766062D03*
D23*
G01X0006287992Y0002184015D03*
G01X0006366732Y0002184015D03*
G01X0005579370Y0001514763D03*
G01X0005658110Y0001514763D03*
M02*