%MOIN*%
%OFA0B0*%
%FSLAX46Y46*%
%IPPOS*%
%LPD*%
%ADD10R,0.12204724409448819X0.0940944881889764*%
%ADD11O,0.066929133858267723X0.066929133858267723*%
%ADD12R,0.066929133858267723X0.066929133858267723*%
%ADD23R,0.12204724409448819X0.0940944881889764*%
%ADD24O,0.066929133858267723X0.066929133858267723*%
%ADD25R,0.066929133858267723X0.066929133858267723*%
%ADD26R,0.12204724409448819X0.0940944881889764*%
%ADD27O,0.066929133858267723X0.066929133858267723*%
%ADD28R,0.066929133858267723X0.066929133858267723*%
%ADD29R,0.12204724409448819X0.0940944881889764*%
%ADD30O,0.066929133858267723X0.066929133858267723*%
%ADD31R,0.066929133858267723X0.066929133858267723*%
%ADD32R,0.12204724409448819X0.0940944881889764*%
%ADD33O,0.066929133858267723X0.066929133858267723*%
%ADD34R,0.066929133858267723X0.066929133858267723*%
%ADD35R,0.12204724409448819X0.0940944881889764*%
%ADD36O,0.066929133858267723X0.066929133858267723*%
%ADD37R,0.066929133858267723X0.066929133858267723*%
%ADD38R,0.12204724409448819X0.0940944881889764*%
%ADD39O,0.066929133858267723X0.066929133858267723*%
%ADD40R,0.066929133858267723X0.066929133858267723*%
%ADD41R,0.12204724409448819X0.0940944881889764*%
%ADD42O,0.066929133858267723X0.066929133858267723*%
%ADD43R,0.066929133858267723X0.066929133858267723*%
%ADD44R,0.12204724409448819X0.0940944881889764*%
%ADD45O,0.066929133858267723X0.066929133858267723*%
%ADD46R,0.066929133858267723X0.066929133858267723*%
%ADD47R,0.12204724409448819X0.0940944881889764*%
%ADD48O,0.066929133858267723X0.066929133858267723*%
%ADD49R,0.066929133858267723X0.066929133858267723*%
%ADD50R,0.12204724409448819X0.0940944881889764*%
%ADD51O,0.066929133858267723X0.066929133858267723*%
%ADD52R,0.066929133858267723X0.066929133858267723*%
%ADD53R,0.12204724409448819X0.0940944881889764*%
%ADD54O,0.066929133858267723X0.066929133858267723*%
%ADD55R,0.066929133858267723X0.066929133858267723*%
%ADD56R,0.12204724409448819X0.0940944881889764*%
%ADD57O,0.066929133858267723X0.066929133858267723*%
%ADD58R,0.066929133858267723X0.066929133858267723*%
%ADD59R,0.12204724409448819X0.0940944881889764*%
%ADD60O,0.066929133858267723X0.066929133858267723*%
%ADD61R,0.066929133858267723X0.066929133858267723*%
%ADD62R,0.12204724409448819X0.0940944881889764*%
%ADD63O,0.066929133858267723X0.066929133858267723*%
%ADD64R,0.066929133858267723X0.066929133858267723*%
%ADD65R,0.12204724409448819X0.0940944881889764*%
%ADD66O,0.066929133858267723X0.066929133858267723*%
%ADD67R,0.066929133858267723X0.066929133858267723*%
%ADD68R,0.12204724409448819X0.0940944881889764*%
%ADD69O,0.066929133858267723X0.066929133858267723*%
%ADD70R,0.066929133858267723X0.066929133858267723*%
%ADD71R,0.12204724409448819X0.0940944881889764*%
%ADD72O,0.066929133858267723X0.066929133858267723*%
%ADD73R,0.066929133858267723X0.066929133858267723*%
%ADD74R,0.12204724409448819X0.0940944881889764*%
%ADD75O,0.066929133858267723X0.066929133858267723*%
%ADD76R,0.066929133858267723X0.066929133858267723*%
%ADD77R,0.12204724409448819X0.0940944881889764*%
%ADD78O,0.066929133858267723X0.066929133858267723*%
%ADD79R,0.066929133858267723X0.066929133858267723*%
%ADD80C,0.082677165354330714*%
%ADD81C,0.082677165354330714*%
%ADD82C,0.082677165354330714*%
%ADD83C,0.082677165354330714*%
%ADD84C,0.082677165354330714*%
%ADD85C,0.086740000000000012*%
%ADD86C,0.12611*%
%ADD87R,0.24422000000000002X0.63398401574803143*%
%ADD88C,0.086740000000000012*%
%ADD89C,0.12611*%
%ADD90R,0.24422000000000002X0.63398401574803143*%
%ADD91R,0.07874015748031496X0.038385826771653545*%
%ADD92R,0.07874015748031496X0.11811023622047245*%
%ADD93R,0.057086614173228349X0.01968503937007874*%
%ADD94O,0.07874015748031496X0.043307086614173235*%
%ADD95O,0.053149606299212608X0.0452755905511811*%
%ADD96C,0.063937007874015753*%
%ADD97O,0.066929133858267723X0.066929133858267723*%
%ADD98R,0.066929133858267723X0.066929133858267723*%
%ADD99R,0.12204724409448819X0.0940944881889764*%
%ADD100O,0.066929133858267723X0.066929133858267723*%
%ADD101R,0.066929133858267723X0.066929133858267723*%
G01*
D10*
X-0000065866Y-0000110275D02*
X0001684133Y0002414724D03*
G36*
G01*
X0001616023Y0002471811D02*
X0001602244Y0002471811D01*
G75*
G02*
X0001595354Y0002478700J0000006889D01*
G01*
X0001595354Y0002545629D01*
G75*
G02*
X0001602244Y0002552519I0000006889D01*
G01*
X0001616023Y0002552519D01*
G75*
G02*
X0001622913Y0002545629J-0000006889D01*
G01*
X0001622913Y0002478700D01*
G75*
G02*
X0001616023Y0002471811I-0000006889D01*
G01*
G37*
G36*
G01*
X0001666023Y0002471811D02*
X0001652244Y0002471811D01*
G75*
G02*
X0001645354Y0002478700J0000006889D01*
G01*
X0001645354Y0002545629D01*
G75*
G02*
X0001652244Y0002552519I0000006889D01*
G01*
X0001666023Y0002552519D01*
G75*
G02*
X0001672913Y0002545629J-0000006889D01*
G01*
X0001672913Y0002478700D01*
G75*
G02*
X0001666023Y0002471811I-0000006889D01*
G01*
G37*
G36*
G01*
X0001716023Y0002471811D02*
X0001702244Y0002471811D01*
G75*
G02*
X0001695354Y0002478700J0000006889D01*
G01*
X0001695354Y0002545629D01*
G75*
G02*
X0001702244Y0002552519I0000006889D01*
G01*
X0001716023Y0002552519D01*
G75*
G02*
X0001722913Y0002545629J-0000006889D01*
G01*
X0001722913Y0002478700D01*
G75*
G02*
X0001716023Y0002471811I-0000006889D01*
G01*
G37*
G36*
G01*
X0001766023Y0002471811D02*
X0001752244Y0002471811D01*
G75*
G02*
X0001745354Y0002478700J0000006889D01*
G01*
X0001745354Y0002545629D01*
G75*
G02*
X0001752244Y0002552519I0000006889D01*
G01*
X0001766023Y0002552519D01*
G75*
G02*
X0001772913Y0002545629J-0000006889D01*
G01*
X0001772913Y0002478700D01*
G75*
G02*
X0001766023Y0002471811I-0000006889D01*
G01*
G37*
G36*
G01*
X0001766023Y0002276929D02*
X0001752244Y0002276929D01*
G75*
G02*
X0001745354Y0002283818J0000006889D01*
G01*
X0001745354Y0002350748D01*
G75*
G02*
X0001752244Y0002357637I0000006889D01*
G01*
X0001766023Y0002357637D01*
G75*
G02*
X0001772913Y0002350748J-0000006889D01*
G01*
X0001772913Y0002283818D01*
G75*
G02*
X0001766023Y0002276929I-0000006889D01*
G01*
G37*
G36*
G01*
X0001716023Y0002276929D02*
X0001702244Y0002276929D01*
G75*
G02*
X0001695354Y0002283818J0000006889D01*
G01*
X0001695354Y0002350748D01*
G75*
G02*
X0001702244Y0002357637I0000006889D01*
G01*
X0001716023Y0002357637D01*
G75*
G02*
X0001722913Y0002350748J-0000006889D01*
G01*
X0001722913Y0002283818D01*
G75*
G02*
X0001716023Y0002276929I-0000006889D01*
G01*
G37*
G36*
G01*
X0001666023Y0002276929D02*
X0001652244Y0002276929D01*
G75*
G02*
X0001645354Y0002283818J0000006889D01*
G01*
X0001645354Y0002350748D01*
G75*
G02*
X0001652244Y0002357637I0000006889D01*
G01*
X0001666023Y0002357637D01*
G75*
G02*
X0001672913Y0002350748J-0000006889D01*
G01*
X0001672913Y0002283818D01*
G75*
G02*
X0001666023Y0002276929I-0000006889D01*
G01*
G37*
G36*
G01*
X0001616023Y0002276929D02*
X0001602244Y0002276929D01*
G75*
G02*
X0001595354Y0002283818J0000006889D01*
G01*
X0001595354Y0002350748D01*
G75*
G02*
X0001602244Y0002357637I0000006889D01*
G01*
X0001616023Y0002357637D01*
G75*
G02*
X0001622913Y0002350748J-0000006889D01*
G01*
X0001622913Y0002283818D01*
G75*
G02*
X0001616023Y0002276929I-0000006889D01*
G01*
G37*
D11*
X0001484133Y0002264724D03*
X0001884133Y0002564724D03*
X0001484133Y0002364724D03*
X0001884133Y0002464724D03*
X0001484133Y0002464724D03*
X0001884133Y0002364724D03*
X0001484133Y0002564724D03*
D12*
X0001884133Y0002264724D03*
G04 next file*
G04 Gerber Fmt 4.6, Leading zero omitted, Abs format (unit mm)*
G04 Created by KiCad (PCBNEW (5.1.6)-1) date 2020-09-18 13:03:01*
G01*
G04 APERTURE LIST*
G04 APERTURE END LIST*
D23*
X0005288464Y-0001212637D02*
X0007038464Y0001312362D03*
G36*
G01*
X0006970354Y0001369448D02*
X0006956574Y0001369448D01*
G75*
G02*
X0006949684Y0001376338J0000006889D01*
G01*
X0006949684Y0001443267D01*
G75*
G02*
X0006956574Y0001450157I0000006889D01*
G01*
X0006970354Y0001450157D01*
G75*
G02*
X0006977243Y0001443267J-0000006889D01*
G01*
X0006977243Y0001376338D01*
G75*
G02*
X0006970354Y0001369448I-0000006889D01*
G01*
G37*
G36*
G01*
X0007020354Y0001369448D02*
X0007006574Y0001369448D01*
G75*
G02*
X0006999684Y0001376338J0000006889D01*
G01*
X0006999684Y0001443267D01*
G75*
G02*
X0007006574Y0001450157I0000006889D01*
G01*
X0007020354Y0001450157D01*
G75*
G02*
X0007027243Y0001443267J-0000006889D01*
G01*
X0007027243Y0001376338D01*
G75*
G02*
X0007020354Y0001369448I-0000006889D01*
G01*
G37*
G36*
G01*
X0007070354Y0001369448D02*
X0007056574Y0001369448D01*
G75*
G02*
X0007049684Y0001376338J0000006889D01*
G01*
X0007049684Y0001443267D01*
G75*
G02*
X0007056574Y0001450157I0000006889D01*
G01*
X0007070354Y0001450157D01*
G75*
G02*
X0007077243Y0001443267J-0000006889D01*
G01*
X0007077243Y0001376338D01*
G75*
G02*
X0007070354Y0001369448I-0000006889D01*
G01*
G37*
G36*
G01*
X0007120354Y0001369448D02*
X0007106574Y0001369448D01*
G75*
G02*
X0007099684Y0001376338J0000006889D01*
G01*
X0007099684Y0001443267D01*
G75*
G02*
X0007106574Y0001450157I0000006889D01*
G01*
X0007120354Y0001450157D01*
G75*
G02*
X0007127243Y0001443267J-0000006889D01*
G01*
X0007127243Y0001376338D01*
G75*
G02*
X0007120354Y0001369448I-0000006889D01*
G01*
G37*
G36*
G01*
X0007120354Y0001174566D02*
X0007106574Y0001174566D01*
G75*
G02*
X0007099684Y0001181456J0000006889D01*
G01*
X0007099684Y0001248385D01*
G75*
G02*
X0007106574Y0001255275I0000006889D01*
G01*
X0007120354Y0001255275D01*
G75*
G02*
X0007127243Y0001248385J-0000006889D01*
G01*
X0007127243Y0001181456D01*
G75*
G02*
X0007120354Y0001174566I-0000006889D01*
G01*
G37*
G36*
G01*
X0007070354Y0001174566D02*
X0007056574Y0001174566D01*
G75*
G02*
X0007049684Y0001181456J0000006889D01*
G01*
X0007049684Y0001248385D01*
G75*
G02*
X0007056574Y0001255275I0000006889D01*
G01*
X0007070354Y0001255275D01*
G75*
G02*
X0007077243Y0001248385J-0000006889D01*
G01*
X0007077243Y0001181456D01*
G75*
G02*
X0007070354Y0001174566I-0000006889D01*
G01*
G37*
G36*
G01*
X0007020354Y0001174566D02*
X0007006574Y0001174566D01*
G75*
G02*
X0006999684Y0001181456J0000006889D01*
G01*
X0006999684Y0001248385D01*
G75*
G02*
X0007006574Y0001255275I0000006889D01*
G01*
X0007020354Y0001255275D01*
G75*
G02*
X0007027243Y0001248385J-0000006889D01*
G01*
X0007027243Y0001181456D01*
G75*
G02*
X0007020354Y0001174566I-0000006889D01*
G01*
G37*
G36*
G01*
X0006970354Y0001174566D02*
X0006956574Y0001174566D01*
G75*
G02*
X0006949684Y0001181456J0000006889D01*
G01*
X0006949684Y0001248385D01*
G75*
G02*
X0006956574Y0001255275I0000006889D01*
G01*
X0006970354Y0001255275D01*
G75*
G02*
X0006977243Y0001248385J-0000006889D01*
G01*
X0006977243Y0001181456D01*
G75*
G02*
X0006970354Y0001174566I-0000006889D01*
G01*
G37*
D24*
X0006838464Y0001162362D03*
X0007238464Y0001462362D03*
X0006838464Y0001262362D03*
X0007238464Y0001362362D03*
X0006838464Y0001362362D03*
X0007238464Y0001262362D03*
X0006838464Y0001462362D03*
D25*
X0007238464Y0001162362D03*
G04 next file*
G04 Gerber Fmt 4.6, Leading zero omitted, Abs format (unit mm)*
G04 Created by KiCad (PCBNEW (5.1.6)-1) date 2020-09-18 13:03:01*
G01*
G04 APERTURE LIST*
G04 APERTURE END LIST*
D26*
X0005879015Y-0001212637D02*
X0007629015Y0001312362D03*
G36*
G01*
X0007560905Y0001369448D02*
X0007547125Y0001369448D01*
G75*
G02*
X0007540236Y0001376338J0000006889D01*
G01*
X0007540236Y0001443267D01*
G75*
G02*
X0007547125Y0001450157I0000006889D01*
G01*
X0007560905Y0001450157D01*
G75*
G02*
X0007567795Y0001443267J-0000006889D01*
G01*
X0007567795Y0001376338D01*
G75*
G02*
X0007560905Y0001369448I-0000006889D01*
G01*
G37*
G36*
G01*
X0007610905Y0001369448D02*
X0007597125Y0001369448D01*
G75*
G02*
X0007590236Y0001376338J0000006889D01*
G01*
X0007590236Y0001443267D01*
G75*
G02*
X0007597125Y0001450157I0000006889D01*
G01*
X0007610905Y0001450157D01*
G75*
G02*
X0007617795Y0001443267J-0000006889D01*
G01*
X0007617795Y0001376338D01*
G75*
G02*
X0007610905Y0001369448I-0000006889D01*
G01*
G37*
G36*
G01*
X0007660905Y0001369448D02*
X0007647125Y0001369448D01*
G75*
G02*
X0007640236Y0001376338J0000006889D01*
G01*
X0007640236Y0001443267D01*
G75*
G02*
X0007647125Y0001450157I0000006889D01*
G01*
X0007660905Y0001450157D01*
G75*
G02*
X0007667795Y0001443267J-0000006889D01*
G01*
X0007667795Y0001376338D01*
G75*
G02*
X0007660905Y0001369448I-0000006889D01*
G01*
G37*
G36*
G01*
X0007710905Y0001369448D02*
X0007697125Y0001369448D01*
G75*
G02*
X0007690236Y0001376338J0000006889D01*
G01*
X0007690236Y0001443267D01*
G75*
G02*
X0007697125Y0001450157I0000006889D01*
G01*
X0007710905Y0001450157D01*
G75*
G02*
X0007717795Y0001443267J-0000006889D01*
G01*
X0007717795Y0001376338D01*
G75*
G02*
X0007710905Y0001369448I-0000006889D01*
G01*
G37*
G36*
G01*
X0007710905Y0001174566D02*
X0007697125Y0001174566D01*
G75*
G02*
X0007690236Y0001181456J0000006889D01*
G01*
X0007690236Y0001248385D01*
G75*
G02*
X0007697125Y0001255275I0000006889D01*
G01*
X0007710905Y0001255275D01*
G75*
G02*
X0007717795Y0001248385J-0000006889D01*
G01*
X0007717795Y0001181456D01*
G75*
G02*
X0007710905Y0001174566I-0000006889D01*
G01*
G37*
G36*
G01*
X0007660905Y0001174566D02*
X0007647125Y0001174566D01*
G75*
G02*
X0007640236Y0001181456J0000006889D01*
G01*
X0007640236Y0001248385D01*
G75*
G02*
X0007647125Y0001255275I0000006889D01*
G01*
X0007660905Y0001255275D01*
G75*
G02*
X0007667795Y0001248385J-0000006889D01*
G01*
X0007667795Y0001181456D01*
G75*
G02*
X0007660905Y0001174566I-0000006889D01*
G01*
G37*
G36*
G01*
X0007610905Y0001174566D02*
X0007597125Y0001174566D01*
G75*
G02*
X0007590236Y0001181456J0000006889D01*
G01*
X0007590236Y0001248385D01*
G75*
G02*
X0007597125Y0001255275I0000006889D01*
G01*
X0007610905Y0001255275D01*
G75*
G02*
X0007617795Y0001248385J-0000006889D01*
G01*
X0007617795Y0001181456D01*
G75*
G02*
X0007610905Y0001174566I-0000006889D01*
G01*
G37*
G36*
G01*
X0007560905Y0001174566D02*
X0007547125Y0001174566D01*
G75*
G02*
X0007540236Y0001181456J0000006889D01*
G01*
X0007540236Y0001248385D01*
G75*
G02*
X0007547125Y0001255275I0000006889D01*
G01*
X0007560905Y0001255275D01*
G75*
G02*
X0007567795Y0001248385J-0000006889D01*
G01*
X0007567795Y0001181456D01*
G75*
G02*
X0007560905Y0001174566I-0000006889D01*
G01*
G37*
D27*
X0007429015Y0001162362D03*
X0007829015Y0001462362D03*
X0007429015Y0001262362D03*
X0007829015Y0001362362D03*
X0007429015Y0001362362D03*
X0007829015Y0001262362D03*
X0007429015Y0001462362D03*
D28*
X0007829015Y0001162362D03*
G04 next file*
G04 Gerber Fmt 4.6, Leading zero omitted, Abs format (unit mm)*
G04 Created by KiCad (PCBNEW (5.1.6)-1) date 2020-09-18 13:03:01*
G01*
G04 APERTURE LIST*
G04 APERTURE END LIST*
D29*
X0006469566Y-0001212637D02*
X0008219566Y0001312362D03*
G36*
G01*
X0008151456Y0001369448D02*
X0008137676Y0001369448D01*
G75*
G02*
X0008130787Y0001376338J0000006889D01*
G01*
X0008130787Y0001443267D01*
G75*
G02*
X0008137676Y0001450157I0000006889D01*
G01*
X0008151456Y0001450157D01*
G75*
G02*
X0008158346Y0001443267J-0000006889D01*
G01*
X0008158346Y0001376338D01*
G75*
G02*
X0008151456Y0001369448I-0000006889D01*
G01*
G37*
G36*
G01*
X0008201456Y0001369448D02*
X0008187676Y0001369448D01*
G75*
G02*
X0008180787Y0001376338J0000006889D01*
G01*
X0008180787Y0001443267D01*
G75*
G02*
X0008187676Y0001450157I0000006889D01*
G01*
X0008201456Y0001450157D01*
G75*
G02*
X0008208346Y0001443267J-0000006889D01*
G01*
X0008208346Y0001376338D01*
G75*
G02*
X0008201456Y0001369448I-0000006889D01*
G01*
G37*
G36*
G01*
X0008251456Y0001369448D02*
X0008237676Y0001369448D01*
G75*
G02*
X0008230787Y0001376338J0000006889D01*
G01*
X0008230787Y0001443267D01*
G75*
G02*
X0008237676Y0001450157I0000006889D01*
G01*
X0008251456Y0001450157D01*
G75*
G02*
X0008258346Y0001443267J-0000006889D01*
G01*
X0008258346Y0001376338D01*
G75*
G02*
X0008251456Y0001369448I-0000006889D01*
G01*
G37*
G36*
G01*
X0008301456Y0001369448D02*
X0008287676Y0001369448D01*
G75*
G02*
X0008280787Y0001376338J0000006889D01*
G01*
X0008280787Y0001443267D01*
G75*
G02*
X0008287676Y0001450157I0000006889D01*
G01*
X0008301456Y0001450157D01*
G75*
G02*
X0008308346Y0001443267J-0000006889D01*
G01*
X0008308346Y0001376338D01*
G75*
G02*
X0008301456Y0001369448I-0000006889D01*
G01*
G37*
G36*
G01*
X0008301456Y0001174566D02*
X0008287676Y0001174566D01*
G75*
G02*
X0008280787Y0001181456J0000006889D01*
G01*
X0008280787Y0001248385D01*
G75*
G02*
X0008287676Y0001255275I0000006889D01*
G01*
X0008301456Y0001255275D01*
G75*
G02*
X0008308346Y0001248385J-0000006889D01*
G01*
X0008308346Y0001181456D01*
G75*
G02*
X0008301456Y0001174566I-0000006889D01*
G01*
G37*
G36*
G01*
X0008251456Y0001174566D02*
X0008237676Y0001174566D01*
G75*
G02*
X0008230787Y0001181456J0000006889D01*
G01*
X0008230787Y0001248385D01*
G75*
G02*
X0008237676Y0001255275I0000006889D01*
G01*
X0008251456Y0001255275D01*
G75*
G02*
X0008258346Y0001248385J-0000006889D01*
G01*
X0008258346Y0001181456D01*
G75*
G02*
X0008251456Y0001174566I-0000006889D01*
G01*
G37*
G36*
G01*
X0008201456Y0001174566D02*
X0008187676Y0001174566D01*
G75*
G02*
X0008180787Y0001181456J0000006889D01*
G01*
X0008180787Y0001248385D01*
G75*
G02*
X0008187676Y0001255275I0000006889D01*
G01*
X0008201456Y0001255275D01*
G75*
G02*
X0008208346Y0001248385J-0000006889D01*
G01*
X0008208346Y0001181456D01*
G75*
G02*
X0008201456Y0001174566I-0000006889D01*
G01*
G37*
G36*
G01*
X0008151456Y0001174566D02*
X0008137676Y0001174566D01*
G75*
G02*
X0008130787Y0001181456J0000006889D01*
G01*
X0008130787Y0001248385D01*
G75*
G02*
X0008137676Y0001255275I0000006889D01*
G01*
X0008151456Y0001255275D01*
G75*
G02*
X0008158346Y0001248385J-0000006889D01*
G01*
X0008158346Y0001181456D01*
G75*
G02*
X0008151456Y0001174566I-0000006889D01*
G01*
G37*
D30*
X0008019566Y0001162362D03*
X0008419566Y0001462362D03*
X0008019566Y0001262362D03*
X0008419566Y0001362362D03*
X0008019566Y0001362362D03*
X0008419566Y0001262362D03*
X0008019566Y0001462362D03*
D31*
X0008419566Y0001162362D03*
G04 next file*
G04 Gerber Fmt 4.6, Leading zero omitted, Abs format (unit mm)*
G04 Created by KiCad (PCBNEW (5.1.6)-1) date 2020-09-18 13:03:01*
G01*
G04 APERTURE LIST*
G04 APERTURE END LIST*
D32*
X0005288464Y-0000700826D02*
X0007038464Y0001824173D03*
G36*
G01*
X0006970354Y0001881259D02*
X0006956574Y0001881259D01*
G75*
G02*
X0006949684Y0001888149J0000006889D01*
G01*
X0006949684Y0001955078D01*
G75*
G02*
X0006956574Y0001961968I0000006889D01*
G01*
X0006970354Y0001961968D01*
G75*
G02*
X0006977243Y0001955078J-0000006889D01*
G01*
X0006977243Y0001888149D01*
G75*
G02*
X0006970354Y0001881259I-0000006889D01*
G01*
G37*
G36*
G01*
X0007020354Y0001881259D02*
X0007006574Y0001881259D01*
G75*
G02*
X0006999684Y0001888149J0000006889D01*
G01*
X0006999684Y0001955078D01*
G75*
G02*
X0007006574Y0001961968I0000006889D01*
G01*
X0007020354Y0001961968D01*
G75*
G02*
X0007027243Y0001955078J-0000006889D01*
G01*
X0007027243Y0001888149D01*
G75*
G02*
X0007020354Y0001881259I-0000006889D01*
G01*
G37*
G36*
G01*
X0007070354Y0001881259D02*
X0007056574Y0001881259D01*
G75*
G02*
X0007049684Y0001888149J0000006889D01*
G01*
X0007049684Y0001955078D01*
G75*
G02*
X0007056574Y0001961968I0000006889D01*
G01*
X0007070354Y0001961968D01*
G75*
G02*
X0007077243Y0001955078J-0000006889D01*
G01*
X0007077243Y0001888149D01*
G75*
G02*
X0007070354Y0001881259I-0000006889D01*
G01*
G37*
G36*
G01*
X0007120354Y0001881259D02*
X0007106574Y0001881259D01*
G75*
G02*
X0007099684Y0001888149J0000006889D01*
G01*
X0007099684Y0001955078D01*
G75*
G02*
X0007106574Y0001961968I0000006889D01*
G01*
X0007120354Y0001961968D01*
G75*
G02*
X0007127243Y0001955078J-0000006889D01*
G01*
X0007127243Y0001888149D01*
G75*
G02*
X0007120354Y0001881259I-0000006889D01*
G01*
G37*
G36*
G01*
X0007120354Y0001686377D02*
X0007106574Y0001686377D01*
G75*
G02*
X0007099684Y0001693267J0000006889D01*
G01*
X0007099684Y0001760196D01*
G75*
G02*
X0007106574Y0001767086I0000006889D01*
G01*
X0007120354Y0001767086D01*
G75*
G02*
X0007127243Y0001760196J-0000006889D01*
G01*
X0007127243Y0001693267D01*
G75*
G02*
X0007120354Y0001686377I-0000006889D01*
G01*
G37*
G36*
G01*
X0007070354Y0001686377D02*
X0007056574Y0001686377D01*
G75*
G02*
X0007049684Y0001693267J0000006889D01*
G01*
X0007049684Y0001760196D01*
G75*
G02*
X0007056574Y0001767086I0000006889D01*
G01*
X0007070354Y0001767086D01*
G75*
G02*
X0007077243Y0001760196J-0000006889D01*
G01*
X0007077243Y0001693267D01*
G75*
G02*
X0007070354Y0001686377I-0000006889D01*
G01*
G37*
G36*
G01*
X0007020354Y0001686377D02*
X0007006574Y0001686377D01*
G75*
G02*
X0006999684Y0001693267J0000006889D01*
G01*
X0006999684Y0001760196D01*
G75*
G02*
X0007006574Y0001767086I0000006889D01*
G01*
X0007020354Y0001767086D01*
G75*
G02*
X0007027243Y0001760196J-0000006889D01*
G01*
X0007027243Y0001693267D01*
G75*
G02*
X0007020354Y0001686377I-0000006889D01*
G01*
G37*
G36*
G01*
X0006970354Y0001686377D02*
X0006956574Y0001686377D01*
G75*
G02*
X0006949684Y0001693267J0000006889D01*
G01*
X0006949684Y0001760196D01*
G75*
G02*
X0006956574Y0001767086I0000006889D01*
G01*
X0006970354Y0001767086D01*
G75*
G02*
X0006977243Y0001760196J-0000006889D01*
G01*
X0006977243Y0001693267D01*
G75*
G02*
X0006970354Y0001686377I-0000006889D01*
G01*
G37*
D33*
X0006838464Y0001674173D03*
X0007238464Y0001974173D03*
X0006838464Y0001774173D03*
X0007238464Y0001874173D03*
X0006838464Y0001874173D03*
X0007238464Y0001774173D03*
X0006838464Y0001974173D03*
D34*
X0007238464Y0001674173D03*
G04 next file*
G04 Gerber Fmt 4.6, Leading zero omitted, Abs format (unit mm)*
G04 Created by KiCad (PCBNEW (5.1.6)-1) date 2020-09-18 13:03:01*
G01*
G04 APERTURE LIST*
G04 APERTURE END LIST*
D35*
X0005879015Y-0000700826D02*
X0007629015Y0001824173D03*
G36*
G01*
X0007560905Y0001881259D02*
X0007547125Y0001881259D01*
G75*
G02*
X0007540236Y0001888149J0000006889D01*
G01*
X0007540236Y0001955078D01*
G75*
G02*
X0007547125Y0001961968I0000006889D01*
G01*
X0007560905Y0001961968D01*
G75*
G02*
X0007567795Y0001955078J-0000006889D01*
G01*
X0007567795Y0001888149D01*
G75*
G02*
X0007560905Y0001881259I-0000006889D01*
G01*
G37*
G36*
G01*
X0007610905Y0001881259D02*
X0007597125Y0001881259D01*
G75*
G02*
X0007590236Y0001888149J0000006889D01*
G01*
X0007590236Y0001955078D01*
G75*
G02*
X0007597125Y0001961968I0000006889D01*
G01*
X0007610905Y0001961968D01*
G75*
G02*
X0007617795Y0001955078J-0000006889D01*
G01*
X0007617795Y0001888149D01*
G75*
G02*
X0007610905Y0001881259I-0000006889D01*
G01*
G37*
G36*
G01*
X0007660905Y0001881259D02*
X0007647125Y0001881259D01*
G75*
G02*
X0007640236Y0001888149J0000006889D01*
G01*
X0007640236Y0001955078D01*
G75*
G02*
X0007647125Y0001961968I0000006889D01*
G01*
X0007660905Y0001961968D01*
G75*
G02*
X0007667795Y0001955078J-0000006889D01*
G01*
X0007667795Y0001888149D01*
G75*
G02*
X0007660905Y0001881259I-0000006889D01*
G01*
G37*
G36*
G01*
X0007710905Y0001881259D02*
X0007697125Y0001881259D01*
G75*
G02*
X0007690236Y0001888149J0000006889D01*
G01*
X0007690236Y0001955078D01*
G75*
G02*
X0007697125Y0001961968I0000006889D01*
G01*
X0007710905Y0001961968D01*
G75*
G02*
X0007717795Y0001955078J-0000006889D01*
G01*
X0007717795Y0001888149D01*
G75*
G02*
X0007710905Y0001881259I-0000006889D01*
G01*
G37*
G36*
G01*
X0007710905Y0001686377D02*
X0007697125Y0001686377D01*
G75*
G02*
X0007690236Y0001693267J0000006889D01*
G01*
X0007690236Y0001760196D01*
G75*
G02*
X0007697125Y0001767086I0000006889D01*
G01*
X0007710905Y0001767086D01*
G75*
G02*
X0007717795Y0001760196J-0000006889D01*
G01*
X0007717795Y0001693267D01*
G75*
G02*
X0007710905Y0001686377I-0000006889D01*
G01*
G37*
G36*
G01*
X0007660905Y0001686377D02*
X0007647125Y0001686377D01*
G75*
G02*
X0007640236Y0001693267J0000006889D01*
G01*
X0007640236Y0001760196D01*
G75*
G02*
X0007647125Y0001767086I0000006889D01*
G01*
X0007660905Y0001767086D01*
G75*
G02*
X0007667795Y0001760196J-0000006889D01*
G01*
X0007667795Y0001693267D01*
G75*
G02*
X0007660905Y0001686377I-0000006889D01*
G01*
G37*
G36*
G01*
X0007610905Y0001686377D02*
X0007597125Y0001686377D01*
G75*
G02*
X0007590236Y0001693267J0000006889D01*
G01*
X0007590236Y0001760196D01*
G75*
G02*
X0007597125Y0001767086I0000006889D01*
G01*
X0007610905Y0001767086D01*
G75*
G02*
X0007617795Y0001760196J-0000006889D01*
G01*
X0007617795Y0001693267D01*
G75*
G02*
X0007610905Y0001686377I-0000006889D01*
G01*
G37*
G36*
G01*
X0007560905Y0001686377D02*
X0007547125Y0001686377D01*
G75*
G02*
X0007540236Y0001693267J0000006889D01*
G01*
X0007540236Y0001760196D01*
G75*
G02*
X0007547125Y0001767086I0000006889D01*
G01*
X0007560905Y0001767086D01*
G75*
G02*
X0007567795Y0001760196J-0000006889D01*
G01*
X0007567795Y0001693267D01*
G75*
G02*
X0007560905Y0001686377I-0000006889D01*
G01*
G37*
D36*
X0007429015Y0001674173D03*
X0007829015Y0001974173D03*
X0007429015Y0001774173D03*
X0007829015Y0001874173D03*
X0007429015Y0001874173D03*
X0007829015Y0001774173D03*
X0007429015Y0001974173D03*
D37*
X0007829015Y0001674173D03*
G04 next file*
G04 Gerber Fmt 4.6, Leading zero omitted, Abs format (unit mm)*
G04 Created by KiCad (PCBNEW (5.1.6)-1) date 2020-09-18 13:03:01*
G01*
G04 APERTURE LIST*
G04 APERTURE END LIST*
D38*
X0006469566Y-0000700826D02*
X0008219566Y0001824173D03*
G36*
G01*
X0008151456Y0001881259D02*
X0008137676Y0001881259D01*
G75*
G02*
X0008130787Y0001888149J0000006889D01*
G01*
X0008130787Y0001955078D01*
G75*
G02*
X0008137676Y0001961968I0000006889D01*
G01*
X0008151456Y0001961968D01*
G75*
G02*
X0008158346Y0001955078J-0000006889D01*
G01*
X0008158346Y0001888149D01*
G75*
G02*
X0008151456Y0001881259I-0000006889D01*
G01*
G37*
G36*
G01*
X0008201456Y0001881259D02*
X0008187676Y0001881259D01*
G75*
G02*
X0008180787Y0001888149J0000006889D01*
G01*
X0008180787Y0001955078D01*
G75*
G02*
X0008187676Y0001961968I0000006889D01*
G01*
X0008201456Y0001961968D01*
G75*
G02*
X0008208346Y0001955078J-0000006889D01*
G01*
X0008208346Y0001888149D01*
G75*
G02*
X0008201456Y0001881259I-0000006889D01*
G01*
G37*
G36*
G01*
X0008251456Y0001881259D02*
X0008237676Y0001881259D01*
G75*
G02*
X0008230787Y0001888149J0000006889D01*
G01*
X0008230787Y0001955078D01*
G75*
G02*
X0008237676Y0001961968I0000006889D01*
G01*
X0008251456Y0001961968D01*
G75*
G02*
X0008258346Y0001955078J-0000006889D01*
G01*
X0008258346Y0001888149D01*
G75*
G02*
X0008251456Y0001881259I-0000006889D01*
G01*
G37*
G36*
G01*
X0008301456Y0001881259D02*
X0008287676Y0001881259D01*
G75*
G02*
X0008280787Y0001888149J0000006889D01*
G01*
X0008280787Y0001955078D01*
G75*
G02*
X0008287676Y0001961968I0000006889D01*
G01*
X0008301456Y0001961968D01*
G75*
G02*
X0008308346Y0001955078J-0000006889D01*
G01*
X0008308346Y0001888149D01*
G75*
G02*
X0008301456Y0001881259I-0000006889D01*
G01*
G37*
G36*
G01*
X0008301456Y0001686377D02*
X0008287676Y0001686377D01*
G75*
G02*
X0008280787Y0001693267J0000006889D01*
G01*
X0008280787Y0001760196D01*
G75*
G02*
X0008287676Y0001767086I0000006889D01*
G01*
X0008301456Y0001767086D01*
G75*
G02*
X0008308346Y0001760196J-0000006889D01*
G01*
X0008308346Y0001693267D01*
G75*
G02*
X0008301456Y0001686377I-0000006889D01*
G01*
G37*
G36*
G01*
X0008251456Y0001686377D02*
X0008237676Y0001686377D01*
G75*
G02*
X0008230787Y0001693267J0000006889D01*
G01*
X0008230787Y0001760196D01*
G75*
G02*
X0008237676Y0001767086I0000006889D01*
G01*
X0008251456Y0001767086D01*
G75*
G02*
X0008258346Y0001760196J-0000006889D01*
G01*
X0008258346Y0001693267D01*
G75*
G02*
X0008251456Y0001686377I-0000006889D01*
G01*
G37*
G36*
G01*
X0008201456Y0001686377D02*
X0008187676Y0001686377D01*
G75*
G02*
X0008180787Y0001693267J0000006889D01*
G01*
X0008180787Y0001760196D01*
G75*
G02*
X0008187676Y0001767086I0000006889D01*
G01*
X0008201456Y0001767086D01*
G75*
G02*
X0008208346Y0001760196J-0000006889D01*
G01*
X0008208346Y0001693267D01*
G75*
G02*
X0008201456Y0001686377I-0000006889D01*
G01*
G37*
G36*
G01*
X0008151456Y0001686377D02*
X0008137676Y0001686377D01*
G75*
G02*
X0008130787Y0001693267J0000006889D01*
G01*
X0008130787Y0001760196D01*
G75*
G02*
X0008137676Y0001767086I0000006889D01*
G01*
X0008151456Y0001767086D01*
G75*
G02*
X0008158346Y0001760196J-0000006889D01*
G01*
X0008158346Y0001693267D01*
G75*
G02*
X0008151456Y0001686377I-0000006889D01*
G01*
G37*
D39*
X0008019566Y0001674173D03*
X0008419566Y0001974173D03*
X0008019566Y0001774173D03*
X0008419566Y0001874173D03*
X0008019566Y0001874173D03*
X0008419566Y0001774173D03*
X0008019566Y0001974173D03*
D40*
X0008419566Y0001674173D03*
G04 next file*
G04 Gerber Fmt 4.6, Leading zero omitted, Abs format (unit mm)*
G04 Created by KiCad (PCBNEW (5.1.6)-1) date 2020-09-18 13:03:01*
G01*
G04 APERTURE LIST*
G04 APERTURE END LIST*
D41*
X0005288464Y-0000189015D02*
X0007038464Y0002335984D03*
G36*
G01*
X0006970354Y0002393070D02*
X0006956574Y0002393070D01*
G75*
G02*
X0006949684Y0002399960J0000006889D01*
G01*
X0006949684Y0002466889D01*
G75*
G02*
X0006956574Y0002473779I0000006889D01*
G01*
X0006970354Y0002473779D01*
G75*
G02*
X0006977243Y0002466889J-0000006889D01*
G01*
X0006977243Y0002399960D01*
G75*
G02*
X0006970354Y0002393070I-0000006889D01*
G01*
G37*
G36*
G01*
X0007020354Y0002393070D02*
X0007006574Y0002393070D01*
G75*
G02*
X0006999684Y0002399960J0000006889D01*
G01*
X0006999684Y0002466889D01*
G75*
G02*
X0007006574Y0002473779I0000006889D01*
G01*
X0007020354Y0002473779D01*
G75*
G02*
X0007027243Y0002466889J-0000006889D01*
G01*
X0007027243Y0002399960D01*
G75*
G02*
X0007020354Y0002393070I-0000006889D01*
G01*
G37*
G36*
G01*
X0007070354Y0002393070D02*
X0007056574Y0002393070D01*
G75*
G02*
X0007049684Y0002399960J0000006889D01*
G01*
X0007049684Y0002466889D01*
G75*
G02*
X0007056574Y0002473779I0000006889D01*
G01*
X0007070354Y0002473779D01*
G75*
G02*
X0007077243Y0002466889J-0000006889D01*
G01*
X0007077243Y0002399960D01*
G75*
G02*
X0007070354Y0002393070I-0000006889D01*
G01*
G37*
G36*
G01*
X0007120354Y0002393070D02*
X0007106574Y0002393070D01*
G75*
G02*
X0007099684Y0002399960J0000006889D01*
G01*
X0007099684Y0002466889D01*
G75*
G02*
X0007106574Y0002473779I0000006889D01*
G01*
X0007120354Y0002473779D01*
G75*
G02*
X0007127243Y0002466889J-0000006889D01*
G01*
X0007127243Y0002399960D01*
G75*
G02*
X0007120354Y0002393070I-0000006889D01*
G01*
G37*
G36*
G01*
X0007120354Y0002198189D02*
X0007106574Y0002198189D01*
G75*
G02*
X0007099684Y0002205078J0000006889D01*
G01*
X0007099684Y0002272007D01*
G75*
G02*
X0007106574Y0002278897I0000006889D01*
G01*
X0007120354Y0002278897D01*
G75*
G02*
X0007127243Y0002272007J-0000006889D01*
G01*
X0007127243Y0002205078D01*
G75*
G02*
X0007120354Y0002198189I-0000006889D01*
G01*
G37*
G36*
G01*
X0007070354Y0002198189D02*
X0007056574Y0002198189D01*
G75*
G02*
X0007049684Y0002205078J0000006889D01*
G01*
X0007049684Y0002272007D01*
G75*
G02*
X0007056574Y0002278897I0000006889D01*
G01*
X0007070354Y0002278897D01*
G75*
G02*
X0007077243Y0002272007J-0000006889D01*
G01*
X0007077243Y0002205078D01*
G75*
G02*
X0007070354Y0002198189I-0000006889D01*
G01*
G37*
G36*
G01*
X0007020354Y0002198189D02*
X0007006574Y0002198189D01*
G75*
G02*
X0006999684Y0002205078J0000006889D01*
G01*
X0006999684Y0002272007D01*
G75*
G02*
X0007006574Y0002278897I0000006889D01*
G01*
X0007020354Y0002278897D01*
G75*
G02*
X0007027243Y0002272007J-0000006889D01*
G01*
X0007027243Y0002205078D01*
G75*
G02*
X0007020354Y0002198189I-0000006889D01*
G01*
G37*
G36*
G01*
X0006970354Y0002198189D02*
X0006956574Y0002198189D01*
G75*
G02*
X0006949684Y0002205078J0000006889D01*
G01*
X0006949684Y0002272007D01*
G75*
G02*
X0006956574Y0002278897I0000006889D01*
G01*
X0006970354Y0002278897D01*
G75*
G02*
X0006977243Y0002272007J-0000006889D01*
G01*
X0006977243Y0002205078D01*
G75*
G02*
X0006970354Y0002198189I-0000006889D01*
G01*
G37*
D42*
X0006838464Y0002185984D03*
X0007238464Y0002485984D03*
X0006838464Y0002285984D03*
X0007238464Y0002385984D03*
X0006838464Y0002385984D03*
X0007238464Y0002285984D03*
X0006838464Y0002485984D03*
D43*
X0007238464Y0002185984D03*
G04 next file*
G04 Gerber Fmt 4.6, Leading zero omitted, Abs format (unit mm)*
G04 Created by KiCad (PCBNEW (5.1.6)-1) date 2020-09-18 13:03:01*
G01*
G04 APERTURE LIST*
G04 APERTURE END LIST*
D44*
X0005879015Y-0000189015D02*
X0007629015Y0002335984D03*
G36*
G01*
X0007560905Y0002393070D02*
X0007547125Y0002393070D01*
G75*
G02*
X0007540236Y0002399960J0000006889D01*
G01*
X0007540236Y0002466889D01*
G75*
G02*
X0007547125Y0002473779I0000006889D01*
G01*
X0007560905Y0002473779D01*
G75*
G02*
X0007567795Y0002466889J-0000006889D01*
G01*
X0007567795Y0002399960D01*
G75*
G02*
X0007560905Y0002393070I-0000006889D01*
G01*
G37*
G36*
G01*
X0007610905Y0002393070D02*
X0007597125Y0002393070D01*
G75*
G02*
X0007590236Y0002399960J0000006889D01*
G01*
X0007590236Y0002466889D01*
G75*
G02*
X0007597125Y0002473779I0000006889D01*
G01*
X0007610905Y0002473779D01*
G75*
G02*
X0007617795Y0002466889J-0000006889D01*
G01*
X0007617795Y0002399960D01*
G75*
G02*
X0007610905Y0002393070I-0000006889D01*
G01*
G37*
G36*
G01*
X0007660905Y0002393070D02*
X0007647125Y0002393070D01*
G75*
G02*
X0007640236Y0002399960J0000006889D01*
G01*
X0007640236Y0002466889D01*
G75*
G02*
X0007647125Y0002473779I0000006889D01*
G01*
X0007660905Y0002473779D01*
G75*
G02*
X0007667795Y0002466889J-0000006889D01*
G01*
X0007667795Y0002399960D01*
G75*
G02*
X0007660905Y0002393070I-0000006889D01*
G01*
G37*
G36*
G01*
X0007710905Y0002393070D02*
X0007697125Y0002393070D01*
G75*
G02*
X0007690236Y0002399960J0000006889D01*
G01*
X0007690236Y0002466889D01*
G75*
G02*
X0007697125Y0002473779I0000006889D01*
G01*
X0007710905Y0002473779D01*
G75*
G02*
X0007717795Y0002466889J-0000006889D01*
G01*
X0007717795Y0002399960D01*
G75*
G02*
X0007710905Y0002393070I-0000006889D01*
G01*
G37*
G36*
G01*
X0007710905Y0002198189D02*
X0007697125Y0002198189D01*
G75*
G02*
X0007690236Y0002205078J0000006889D01*
G01*
X0007690236Y0002272007D01*
G75*
G02*
X0007697125Y0002278897I0000006889D01*
G01*
X0007710905Y0002278897D01*
G75*
G02*
X0007717795Y0002272007J-0000006889D01*
G01*
X0007717795Y0002205078D01*
G75*
G02*
X0007710905Y0002198189I-0000006889D01*
G01*
G37*
G36*
G01*
X0007660905Y0002198189D02*
X0007647125Y0002198189D01*
G75*
G02*
X0007640236Y0002205078J0000006889D01*
G01*
X0007640236Y0002272007D01*
G75*
G02*
X0007647125Y0002278897I0000006889D01*
G01*
X0007660905Y0002278897D01*
G75*
G02*
X0007667795Y0002272007J-0000006889D01*
G01*
X0007667795Y0002205078D01*
G75*
G02*
X0007660905Y0002198189I-0000006889D01*
G01*
G37*
G36*
G01*
X0007610905Y0002198189D02*
X0007597125Y0002198189D01*
G75*
G02*
X0007590236Y0002205078J0000006889D01*
G01*
X0007590236Y0002272007D01*
G75*
G02*
X0007597125Y0002278897I0000006889D01*
G01*
X0007610905Y0002278897D01*
G75*
G02*
X0007617795Y0002272007J-0000006889D01*
G01*
X0007617795Y0002205078D01*
G75*
G02*
X0007610905Y0002198189I-0000006889D01*
G01*
G37*
G36*
G01*
X0007560905Y0002198189D02*
X0007547125Y0002198189D01*
G75*
G02*
X0007540236Y0002205078J0000006889D01*
G01*
X0007540236Y0002272007D01*
G75*
G02*
X0007547125Y0002278897I0000006889D01*
G01*
X0007560905Y0002278897D01*
G75*
G02*
X0007567795Y0002272007J-0000006889D01*
G01*
X0007567795Y0002205078D01*
G75*
G02*
X0007560905Y0002198189I-0000006889D01*
G01*
G37*
D45*
X0007429015Y0002185984D03*
X0007829015Y0002485984D03*
X0007429015Y0002285984D03*
X0007829015Y0002385984D03*
X0007429015Y0002385984D03*
X0007829015Y0002285984D03*
X0007429015Y0002485984D03*
D46*
X0007829015Y0002185984D03*
G04 next file*
G04 Gerber Fmt 4.6, Leading zero omitted, Abs format (unit mm)*
G04 Created by KiCad (PCBNEW (5.1.6)-1) date 2020-09-18 13:03:01*
G01*
G04 APERTURE LIST*
G04 APERTURE END LIST*
D47*
X0006469566Y-0000189015D02*
X0008219566Y0002335984D03*
G36*
G01*
X0008151456Y0002393070D02*
X0008137676Y0002393070D01*
G75*
G02*
X0008130787Y0002399960J0000006889D01*
G01*
X0008130787Y0002466889D01*
G75*
G02*
X0008137676Y0002473779I0000006889D01*
G01*
X0008151456Y0002473779D01*
G75*
G02*
X0008158346Y0002466889J-0000006889D01*
G01*
X0008158346Y0002399960D01*
G75*
G02*
X0008151456Y0002393070I-0000006889D01*
G01*
G37*
G36*
G01*
X0008201456Y0002393070D02*
X0008187676Y0002393070D01*
G75*
G02*
X0008180787Y0002399960J0000006889D01*
G01*
X0008180787Y0002466889D01*
G75*
G02*
X0008187676Y0002473779I0000006889D01*
G01*
X0008201456Y0002473779D01*
G75*
G02*
X0008208346Y0002466889J-0000006889D01*
G01*
X0008208346Y0002399960D01*
G75*
G02*
X0008201456Y0002393070I-0000006889D01*
G01*
G37*
G36*
G01*
X0008251456Y0002393070D02*
X0008237676Y0002393070D01*
G75*
G02*
X0008230787Y0002399960J0000006889D01*
G01*
X0008230787Y0002466889D01*
G75*
G02*
X0008237676Y0002473779I0000006889D01*
G01*
X0008251456Y0002473779D01*
G75*
G02*
X0008258346Y0002466889J-0000006889D01*
G01*
X0008258346Y0002399960D01*
G75*
G02*
X0008251456Y0002393070I-0000006889D01*
G01*
G37*
G36*
G01*
X0008301456Y0002393070D02*
X0008287676Y0002393070D01*
G75*
G02*
X0008280787Y0002399960J0000006889D01*
G01*
X0008280787Y0002466889D01*
G75*
G02*
X0008287676Y0002473779I0000006889D01*
G01*
X0008301456Y0002473779D01*
G75*
G02*
X0008308346Y0002466889J-0000006889D01*
G01*
X0008308346Y0002399960D01*
G75*
G02*
X0008301456Y0002393070I-0000006889D01*
G01*
G37*
G36*
G01*
X0008301456Y0002198189D02*
X0008287676Y0002198189D01*
G75*
G02*
X0008280787Y0002205078J0000006889D01*
G01*
X0008280787Y0002272007D01*
G75*
G02*
X0008287676Y0002278897I0000006889D01*
G01*
X0008301456Y0002278897D01*
G75*
G02*
X0008308346Y0002272007J-0000006889D01*
G01*
X0008308346Y0002205078D01*
G75*
G02*
X0008301456Y0002198189I-0000006889D01*
G01*
G37*
G36*
G01*
X0008251456Y0002198189D02*
X0008237676Y0002198189D01*
G75*
G02*
X0008230787Y0002205078J0000006889D01*
G01*
X0008230787Y0002272007D01*
G75*
G02*
X0008237676Y0002278897I0000006889D01*
G01*
X0008251456Y0002278897D01*
G75*
G02*
X0008258346Y0002272007J-0000006889D01*
G01*
X0008258346Y0002205078D01*
G75*
G02*
X0008251456Y0002198189I-0000006889D01*
G01*
G37*
G36*
G01*
X0008201456Y0002198189D02*
X0008187676Y0002198189D01*
G75*
G02*
X0008180787Y0002205078J0000006889D01*
G01*
X0008180787Y0002272007D01*
G75*
G02*
X0008187676Y0002278897I0000006889D01*
G01*
X0008201456Y0002278897D01*
G75*
G02*
X0008208346Y0002272007J-0000006889D01*
G01*
X0008208346Y0002205078D01*
G75*
G02*
X0008201456Y0002198189I-0000006889D01*
G01*
G37*
G36*
G01*
X0008151456Y0002198189D02*
X0008137676Y0002198189D01*
G75*
G02*
X0008130787Y0002205078J0000006889D01*
G01*
X0008130787Y0002272007D01*
G75*
G02*
X0008137676Y0002278897I0000006889D01*
G01*
X0008151456Y0002278897D01*
G75*
G02*
X0008158346Y0002272007J-0000006889D01*
G01*
X0008158346Y0002205078D01*
G75*
G02*
X0008151456Y0002198189I-0000006889D01*
G01*
G37*
D48*
X0008019566Y0002185984D03*
X0008419566Y0002485984D03*
X0008019566Y0002285984D03*
X0008419566Y0002385984D03*
X0008019566Y0002385984D03*
X0008419566Y0002285984D03*
X0008019566Y0002485984D03*
D49*
X0008419566Y0002185984D03*
G04 next file*
G04 Gerber Fmt 4.6, Leading zero omitted, Abs format (unit mm)*
G04 Created by KiCad (PCBNEW (5.1.6)-1) date 2020-09-18 13:03:01*
G01*
G04 APERTURE LIST*
G04 APERTURE END LIST*
D50*
X0002611299Y0000007834D02*
X0004361299Y0002532834D03*
G36*
G01*
X0004293188Y0002589921D02*
X0004279409Y0002589921D01*
G75*
G02*
X0004272519Y0002596811J0000006889D01*
G01*
X0004272519Y0002663740D01*
G75*
G02*
X0004279409Y0002670629I0000006889D01*
G01*
X0004293188Y0002670629D01*
G75*
G02*
X0004300078Y0002663740J-0000006889D01*
G01*
X0004300078Y0002596811D01*
G75*
G02*
X0004293188Y0002589921I-0000006889D01*
G01*
G37*
G36*
G01*
X0004343188Y0002589921D02*
X0004329409Y0002589921D01*
G75*
G02*
X0004322519Y0002596811J0000006889D01*
G01*
X0004322519Y0002663740D01*
G75*
G02*
X0004329409Y0002670629I0000006889D01*
G01*
X0004343188Y0002670629D01*
G75*
G02*
X0004350078Y0002663740J-0000006889D01*
G01*
X0004350078Y0002596811D01*
G75*
G02*
X0004343188Y0002589921I-0000006889D01*
G01*
G37*
G36*
G01*
X0004393188Y0002589921D02*
X0004379409Y0002589921D01*
G75*
G02*
X0004372519Y0002596811J0000006889D01*
G01*
X0004372519Y0002663740D01*
G75*
G02*
X0004379409Y0002670629I0000006889D01*
G01*
X0004393188Y0002670629D01*
G75*
G02*
X0004400078Y0002663740J-0000006889D01*
G01*
X0004400078Y0002596811D01*
G75*
G02*
X0004393188Y0002589921I-0000006889D01*
G01*
G37*
G36*
G01*
X0004443188Y0002589921D02*
X0004429409Y0002589921D01*
G75*
G02*
X0004422519Y0002596811J0000006889D01*
G01*
X0004422519Y0002663740D01*
G75*
G02*
X0004429409Y0002670629I0000006889D01*
G01*
X0004443188Y0002670629D01*
G75*
G02*
X0004450078Y0002663740J-0000006889D01*
G01*
X0004450078Y0002596811D01*
G75*
G02*
X0004443188Y0002589921I-0000006889D01*
G01*
G37*
G36*
G01*
X0004443188Y0002395039D02*
X0004429409Y0002395039D01*
G75*
G02*
X0004422519Y0002401929J0000006889D01*
G01*
X0004422519Y0002468858D01*
G75*
G02*
X0004429409Y0002475748I0000006889D01*
G01*
X0004443188Y0002475748D01*
G75*
G02*
X0004450078Y0002468858J-0000006889D01*
G01*
X0004450078Y0002401929D01*
G75*
G02*
X0004443188Y0002395039I-0000006889D01*
G01*
G37*
G36*
G01*
X0004393188Y0002395039D02*
X0004379409Y0002395039D01*
G75*
G02*
X0004372519Y0002401929J0000006889D01*
G01*
X0004372519Y0002468858D01*
G75*
G02*
X0004379409Y0002475748I0000006889D01*
G01*
X0004393188Y0002475748D01*
G75*
G02*
X0004400078Y0002468858J-0000006889D01*
G01*
X0004400078Y0002401929D01*
G75*
G02*
X0004393188Y0002395039I-0000006889D01*
G01*
G37*
G36*
G01*
X0004343188Y0002395039D02*
X0004329409Y0002395039D01*
G75*
G02*
X0004322519Y0002401929J0000006889D01*
G01*
X0004322519Y0002468858D01*
G75*
G02*
X0004329409Y0002475748I0000006889D01*
G01*
X0004343188Y0002475748D01*
G75*
G02*
X0004350078Y0002468858J-0000006889D01*
G01*
X0004350078Y0002401929D01*
G75*
G02*
X0004343188Y0002395039I-0000006889D01*
G01*
G37*
G36*
G01*
X0004293188Y0002395039D02*
X0004279409Y0002395039D01*
G75*
G02*
X0004272519Y0002401929J0000006889D01*
G01*
X0004272519Y0002468858D01*
G75*
G02*
X0004279409Y0002475748I0000006889D01*
G01*
X0004293188Y0002475748D01*
G75*
G02*
X0004300078Y0002468858J-0000006889D01*
G01*
X0004300078Y0002401929D01*
G75*
G02*
X0004293188Y0002395039I-0000006889D01*
G01*
G37*
D51*
X0004161299Y0002382834D03*
X0004561299Y0002682834D03*
X0004161299Y0002482834D03*
X0004561299Y0002582834D03*
X0004161299Y0002582834D03*
X0004561299Y0002482834D03*
X0004161299Y0002682834D03*
D52*
X0004561299Y0002382834D03*
G04 next file*
G04 Gerber Fmt 4.6, Leading zero omitted, Abs format (unit mm)*
G04 Created by KiCad (PCBNEW (5.1.6)-1) date 2020-09-18 13:03:01*
G01*
G04 APERTURE LIST*
G04 APERTURE END LIST*
D53*
X0000524685Y0000322795D02*
X0002274685Y0002847795D03*
G36*
G01*
X0002206574Y0002904881D02*
X0002192795Y0002904881D01*
G75*
G02*
X0002185905Y0002911771J0000006889D01*
G01*
X0002185905Y0002978700D01*
G75*
G02*
X0002192795Y0002985590I0000006889D01*
G01*
X0002206574Y0002985590D01*
G75*
G02*
X0002213464Y0002978700J-0000006889D01*
G01*
X0002213464Y0002911771D01*
G75*
G02*
X0002206574Y0002904881I-0000006889D01*
G01*
G37*
G36*
G01*
X0002256574Y0002904881D02*
X0002242795Y0002904881D01*
G75*
G02*
X0002235905Y0002911771J0000006889D01*
G01*
X0002235905Y0002978700D01*
G75*
G02*
X0002242795Y0002985590I0000006889D01*
G01*
X0002256574Y0002985590D01*
G75*
G02*
X0002263464Y0002978700J-0000006889D01*
G01*
X0002263464Y0002911771D01*
G75*
G02*
X0002256574Y0002904881I-0000006889D01*
G01*
G37*
G36*
G01*
X0002306574Y0002904881D02*
X0002292795Y0002904881D01*
G75*
G02*
X0002285905Y0002911771J0000006889D01*
G01*
X0002285905Y0002978700D01*
G75*
G02*
X0002292795Y0002985590I0000006889D01*
G01*
X0002306574Y0002985590D01*
G75*
G02*
X0002313464Y0002978700J-0000006889D01*
G01*
X0002313464Y0002911771D01*
G75*
G02*
X0002306574Y0002904881I-0000006889D01*
G01*
G37*
G36*
G01*
X0002356574Y0002904881D02*
X0002342795Y0002904881D01*
G75*
G02*
X0002335905Y0002911771J0000006889D01*
G01*
X0002335905Y0002978700D01*
G75*
G02*
X0002342795Y0002985590I0000006889D01*
G01*
X0002356574Y0002985590D01*
G75*
G02*
X0002363464Y0002978700J-0000006889D01*
G01*
X0002363464Y0002911771D01*
G75*
G02*
X0002356574Y0002904881I-0000006889D01*
G01*
G37*
G36*
G01*
X0002356574Y0002710000D02*
X0002342795Y0002710000D01*
G75*
G02*
X0002335905Y0002716889J0000006889D01*
G01*
X0002335905Y0002783818D01*
G75*
G02*
X0002342795Y0002790708I0000006889D01*
G01*
X0002356574Y0002790708D01*
G75*
G02*
X0002363464Y0002783818J-0000006889D01*
G01*
X0002363464Y0002716889D01*
G75*
G02*
X0002356574Y0002710000I-0000006889D01*
G01*
G37*
G36*
G01*
X0002306574Y0002710000D02*
X0002292795Y0002710000D01*
G75*
G02*
X0002285905Y0002716889J0000006889D01*
G01*
X0002285905Y0002783818D01*
G75*
G02*
X0002292795Y0002790708I0000006889D01*
G01*
X0002306574Y0002790708D01*
G75*
G02*
X0002313464Y0002783818J-0000006889D01*
G01*
X0002313464Y0002716889D01*
G75*
G02*
X0002306574Y0002710000I-0000006889D01*
G01*
G37*
G36*
G01*
X0002256574Y0002710000D02*
X0002242795Y0002710000D01*
G75*
G02*
X0002235905Y0002716889J0000006889D01*
G01*
X0002235905Y0002783818D01*
G75*
G02*
X0002242795Y0002790708I0000006889D01*
G01*
X0002256574Y0002790708D01*
G75*
G02*
X0002263464Y0002783818J-0000006889D01*
G01*
X0002263464Y0002716889D01*
G75*
G02*
X0002256574Y0002710000I-0000006889D01*
G01*
G37*
G36*
G01*
X0002206574Y0002710000D02*
X0002192795Y0002710000D01*
G75*
G02*
X0002185905Y0002716889J0000006889D01*
G01*
X0002185905Y0002783818D01*
G75*
G02*
X0002192795Y0002790708I0000006889D01*
G01*
X0002206574Y0002790708D01*
G75*
G02*
X0002213464Y0002783818J-0000006889D01*
G01*
X0002213464Y0002716889D01*
G75*
G02*
X0002206574Y0002710000I-0000006889D01*
G01*
G37*
D54*
X0002074685Y0002697795D03*
X0002474685Y0002997795D03*
X0002074685Y0002797795D03*
X0002474685Y0002897795D03*
X0002074685Y0002897795D03*
X0002474685Y0002797795D03*
X0002074685Y0002997795D03*
D55*
X0002474685Y0002697795D03*
G04 next file*
G04 Gerber Fmt 4.6, Leading zero omitted, Abs format (unit mm)*
G04 Created by KiCad (PCBNEW (5.1.6)-1) date 2020-09-18 13:03:01*
G01*
G04 APERTURE LIST*
G04 APERTURE END LIST*
D56*
X-0000065866Y0000401535D02*
X0001684133Y0002926535D03*
G36*
G01*
X0001616023Y0002983622D02*
X0001602244Y0002983622D01*
G75*
G02*
X0001595354Y0002990511J0000006889D01*
G01*
X0001595354Y0003057440D01*
G75*
G02*
X0001602244Y0003064330I0000006889D01*
G01*
X0001616023Y0003064330D01*
G75*
G02*
X0001622913Y0003057440J-0000006889D01*
G01*
X0001622913Y0002990511D01*
G75*
G02*
X0001616023Y0002983622I-0000006889D01*
G01*
G37*
G36*
G01*
X0001666023Y0002983622D02*
X0001652244Y0002983622D01*
G75*
G02*
X0001645354Y0002990511J0000006889D01*
G01*
X0001645354Y0003057440D01*
G75*
G02*
X0001652244Y0003064330I0000006889D01*
G01*
X0001666023Y0003064330D01*
G75*
G02*
X0001672913Y0003057440J-0000006889D01*
G01*
X0001672913Y0002990511D01*
G75*
G02*
X0001666023Y0002983622I-0000006889D01*
G01*
G37*
G36*
G01*
X0001716023Y0002983622D02*
X0001702244Y0002983622D01*
G75*
G02*
X0001695354Y0002990511J0000006889D01*
G01*
X0001695354Y0003057440D01*
G75*
G02*
X0001702244Y0003064330I0000006889D01*
G01*
X0001716023Y0003064330D01*
G75*
G02*
X0001722913Y0003057440J-0000006889D01*
G01*
X0001722913Y0002990511D01*
G75*
G02*
X0001716023Y0002983622I-0000006889D01*
G01*
G37*
G36*
G01*
X0001766023Y0002983622D02*
X0001752244Y0002983622D01*
G75*
G02*
X0001745354Y0002990511J0000006889D01*
G01*
X0001745354Y0003057440D01*
G75*
G02*
X0001752244Y0003064330I0000006889D01*
G01*
X0001766023Y0003064330D01*
G75*
G02*
X0001772913Y0003057440J-0000006889D01*
G01*
X0001772913Y0002990511D01*
G75*
G02*
X0001766023Y0002983622I-0000006889D01*
G01*
G37*
G36*
G01*
X0001766023Y0002788740D02*
X0001752244Y0002788740D01*
G75*
G02*
X0001745354Y0002795629J0000006889D01*
G01*
X0001745354Y0002862559D01*
G75*
G02*
X0001752244Y0002869448I0000006889D01*
G01*
X0001766023Y0002869448D01*
G75*
G02*
X0001772913Y0002862559J-0000006889D01*
G01*
X0001772913Y0002795629D01*
G75*
G02*
X0001766023Y0002788740I-0000006889D01*
G01*
G37*
G36*
G01*
X0001716023Y0002788740D02*
X0001702244Y0002788740D01*
G75*
G02*
X0001695354Y0002795629J0000006889D01*
G01*
X0001695354Y0002862559D01*
G75*
G02*
X0001702244Y0002869448I0000006889D01*
G01*
X0001716023Y0002869448D01*
G75*
G02*
X0001722913Y0002862559J-0000006889D01*
G01*
X0001722913Y0002795629D01*
G75*
G02*
X0001716023Y0002788740I-0000006889D01*
G01*
G37*
G36*
G01*
X0001666023Y0002788740D02*
X0001652244Y0002788740D01*
G75*
G02*
X0001645354Y0002795629J0000006889D01*
G01*
X0001645354Y0002862559D01*
G75*
G02*
X0001652244Y0002869448I0000006889D01*
G01*
X0001666023Y0002869448D01*
G75*
G02*
X0001672913Y0002862559J-0000006889D01*
G01*
X0001672913Y0002795629D01*
G75*
G02*
X0001666023Y0002788740I-0000006889D01*
G01*
G37*
G36*
G01*
X0001616023Y0002788740D02*
X0001602244Y0002788740D01*
G75*
G02*
X0001595354Y0002795629J0000006889D01*
G01*
X0001595354Y0002862559D01*
G75*
G02*
X0001602244Y0002869448I0000006889D01*
G01*
X0001616023Y0002869448D01*
G75*
G02*
X0001622913Y0002862559J-0000006889D01*
G01*
X0001622913Y0002795629D01*
G75*
G02*
X0001616023Y0002788740I-0000006889D01*
G01*
G37*
D57*
X0001484133Y0002776535D03*
X0001884133Y0003076535D03*
X0001484133Y0002876535D03*
X0001884133Y0002976535D03*
X0001484133Y0002976535D03*
X0001884133Y0002876535D03*
X0001484133Y0003076535D03*
D58*
X0001884133Y0002776535D03*
G04 next file*
G04 Gerber Fmt 4.6, Leading zero omitted, Abs format (unit mm)*
G04 Created by KiCad (PCBNEW (5.1.6)-1) date 2020-09-18 13:03:01*
G01*
G04 APERTURE LIST*
G04 APERTURE END LIST*
D59*
X0001456692Y0000177165D02*
X0003206692Y0002702165D03*
G36*
G01*
X0003138582Y0002759251D02*
X0003124803Y0002759251D01*
G75*
G02*
X0003117913Y0002766141J0000006889D01*
G01*
X0003117913Y0002833070D01*
G75*
G02*
X0003124803Y0002839960I0000006889D01*
G01*
X0003138582Y0002839960D01*
G75*
G02*
X0003145472Y0002833070J-0000006889D01*
G01*
X0003145472Y0002766141D01*
G75*
G02*
X0003138582Y0002759251I-0000006889D01*
G01*
G37*
G36*
G01*
X0003188582Y0002759251D02*
X0003174803Y0002759251D01*
G75*
G02*
X0003167913Y0002766141J0000006889D01*
G01*
X0003167913Y0002833070D01*
G75*
G02*
X0003174803Y0002839960I0000006889D01*
G01*
X0003188582Y0002839960D01*
G75*
G02*
X0003195472Y0002833070J-0000006889D01*
G01*
X0003195472Y0002766141D01*
G75*
G02*
X0003188582Y0002759251I-0000006889D01*
G01*
G37*
G36*
G01*
X0003238582Y0002759251D02*
X0003224803Y0002759251D01*
G75*
G02*
X0003217913Y0002766141J0000006889D01*
G01*
X0003217913Y0002833070D01*
G75*
G02*
X0003224803Y0002839960I0000006889D01*
G01*
X0003238582Y0002839960D01*
G75*
G02*
X0003245472Y0002833070J-0000006889D01*
G01*
X0003245472Y0002766141D01*
G75*
G02*
X0003238582Y0002759251I-0000006889D01*
G01*
G37*
G36*
G01*
X0003288582Y0002759251D02*
X0003274803Y0002759251D01*
G75*
G02*
X0003267913Y0002766141J0000006889D01*
G01*
X0003267913Y0002833070D01*
G75*
G02*
X0003274803Y0002839960I0000006889D01*
G01*
X0003288582Y0002839960D01*
G75*
G02*
X0003295472Y0002833070J-0000006889D01*
G01*
X0003295472Y0002766141D01*
G75*
G02*
X0003288582Y0002759251I-0000006889D01*
G01*
G37*
G36*
G01*
X0003288582Y0002564370D02*
X0003274803Y0002564370D01*
G75*
G02*
X0003267913Y0002571259J0000006889D01*
G01*
X0003267913Y0002638188D01*
G75*
G02*
X0003274803Y0002645078I0000006889D01*
G01*
X0003288582Y0002645078D01*
G75*
G02*
X0003295472Y0002638188J-0000006889D01*
G01*
X0003295472Y0002571259D01*
G75*
G02*
X0003288582Y0002564370I-0000006889D01*
G01*
G37*
G36*
G01*
X0003238582Y0002564370D02*
X0003224803Y0002564370D01*
G75*
G02*
X0003217913Y0002571259J0000006889D01*
G01*
X0003217913Y0002638188D01*
G75*
G02*
X0003224803Y0002645078I0000006889D01*
G01*
X0003238582Y0002645078D01*
G75*
G02*
X0003245472Y0002638188J-0000006889D01*
G01*
X0003245472Y0002571259D01*
G75*
G02*
X0003238582Y0002564370I-0000006889D01*
G01*
G37*
G36*
G01*
X0003188582Y0002564370D02*
X0003174803Y0002564370D01*
G75*
G02*
X0003167913Y0002571259J0000006889D01*
G01*
X0003167913Y0002638188D01*
G75*
G02*
X0003174803Y0002645078I0000006889D01*
G01*
X0003188582Y0002645078D01*
G75*
G02*
X0003195472Y0002638188J-0000006889D01*
G01*
X0003195472Y0002571259D01*
G75*
G02*
X0003188582Y0002564370I-0000006889D01*
G01*
G37*
G36*
G01*
X0003138582Y0002564370D02*
X0003124803Y0002564370D01*
G75*
G02*
X0003117913Y0002571259J0000006889D01*
G01*
X0003117913Y0002638188D01*
G75*
G02*
X0003124803Y0002645078I0000006889D01*
G01*
X0003138582Y0002645078D01*
G75*
G02*
X0003145472Y0002638188J-0000006889D01*
G01*
X0003145472Y0002571259D01*
G75*
G02*
X0003138582Y0002564370I-0000006889D01*
G01*
G37*
D60*
X0003006692Y0002552165D03*
X0003406692Y0002852165D03*
X0003006692Y0002652165D03*
X0003406692Y0002752165D03*
X0003006692Y0002752165D03*
X0003406692Y0002652165D03*
X0003006692Y0002852165D03*
D61*
X0003406692Y0002552165D03*
G04 next file*
G04 Gerber Fmt 4.6, Leading zero omitted, Abs format (unit mm)*
G04 Created by KiCad (PCBNEW (5.1.6)-1) date 2020-09-18 13:03:01*
G01*
G04 APERTURE LIST*
G04 APERTURE END LIST*
D62*
X0002027559Y0000177165D02*
X0003777559Y0002702165D03*
G36*
G01*
X0003709448Y0002759251D02*
X0003695669Y0002759251D01*
G75*
G02*
X0003688779Y0002766141J0000006889D01*
G01*
X0003688779Y0002833070D01*
G75*
G02*
X0003695669Y0002839960I0000006889D01*
G01*
X0003709448Y0002839960D01*
G75*
G02*
X0003716338Y0002833070J-0000006889D01*
G01*
X0003716338Y0002766141D01*
G75*
G02*
X0003709448Y0002759251I-0000006889D01*
G01*
G37*
G36*
G01*
X0003759448Y0002759251D02*
X0003745669Y0002759251D01*
G75*
G02*
X0003738779Y0002766141J0000006889D01*
G01*
X0003738779Y0002833070D01*
G75*
G02*
X0003745669Y0002839960I0000006889D01*
G01*
X0003759448Y0002839960D01*
G75*
G02*
X0003766338Y0002833070J-0000006889D01*
G01*
X0003766338Y0002766141D01*
G75*
G02*
X0003759448Y0002759251I-0000006889D01*
G01*
G37*
G36*
G01*
X0003809448Y0002759251D02*
X0003795669Y0002759251D01*
G75*
G02*
X0003788779Y0002766141J0000006889D01*
G01*
X0003788779Y0002833070D01*
G75*
G02*
X0003795669Y0002839960I0000006889D01*
G01*
X0003809448Y0002839960D01*
G75*
G02*
X0003816338Y0002833070J-0000006889D01*
G01*
X0003816338Y0002766141D01*
G75*
G02*
X0003809448Y0002759251I-0000006889D01*
G01*
G37*
G36*
G01*
X0003859448Y0002759251D02*
X0003845669Y0002759251D01*
G75*
G02*
X0003838779Y0002766141J0000006889D01*
G01*
X0003838779Y0002833070D01*
G75*
G02*
X0003845669Y0002839960I0000006889D01*
G01*
X0003859448Y0002839960D01*
G75*
G02*
X0003866338Y0002833070J-0000006889D01*
G01*
X0003866338Y0002766141D01*
G75*
G02*
X0003859448Y0002759251I-0000006889D01*
G01*
G37*
G36*
G01*
X0003859448Y0002564370D02*
X0003845669Y0002564370D01*
G75*
G02*
X0003838779Y0002571259J0000006889D01*
G01*
X0003838779Y0002638188D01*
G75*
G02*
X0003845669Y0002645078I0000006889D01*
G01*
X0003859448Y0002645078D01*
G75*
G02*
X0003866338Y0002638188J-0000006889D01*
G01*
X0003866338Y0002571259D01*
G75*
G02*
X0003859448Y0002564370I-0000006889D01*
G01*
G37*
G36*
G01*
X0003809448Y0002564370D02*
X0003795669Y0002564370D01*
G75*
G02*
X0003788779Y0002571259J0000006889D01*
G01*
X0003788779Y0002638188D01*
G75*
G02*
X0003795669Y0002645078I0000006889D01*
G01*
X0003809448Y0002645078D01*
G75*
G02*
X0003816338Y0002638188J-0000006889D01*
G01*
X0003816338Y0002571259D01*
G75*
G02*
X0003809448Y0002564370I-0000006889D01*
G01*
G37*
G36*
G01*
X0003759448Y0002564370D02*
X0003745669Y0002564370D01*
G75*
G02*
X0003738779Y0002571259J0000006889D01*
G01*
X0003738779Y0002638188D01*
G75*
G02*
X0003745669Y0002645078I0000006889D01*
G01*
X0003759448Y0002645078D01*
G75*
G02*
X0003766338Y0002638188J-0000006889D01*
G01*
X0003766338Y0002571259D01*
G75*
G02*
X0003759448Y0002564370I-0000006889D01*
G01*
G37*
G36*
G01*
X0003709448Y0002564370D02*
X0003695669Y0002564370D01*
G75*
G02*
X0003688779Y0002571259J0000006889D01*
G01*
X0003688779Y0002638188D01*
G75*
G02*
X0003695669Y0002645078I0000006889D01*
G01*
X0003709448Y0002645078D01*
G75*
G02*
X0003716338Y0002638188J-0000006889D01*
G01*
X0003716338Y0002571259D01*
G75*
G02*
X0003709448Y0002564370I-0000006889D01*
G01*
G37*
D63*
X0003577559Y0002552165D03*
X0003977559Y0002852165D03*
X0003577559Y0002652165D03*
X0003977559Y0002752165D03*
X0003577559Y0002752165D03*
X0003977559Y0002652165D03*
X0003577559Y0002852165D03*
D64*
X0003977559Y0002552165D03*
G04 next file*
G04 Gerber Fmt 4.6, Leading zero omitted, Abs format (unit mm)*
G04 Created by KiCad (PCBNEW (5.1.6)-1) date 2020-09-18 13:03:01*
G01*
G04 APERTURE LIST*
G04 APERTURE END LIST*
D65*
X0003201850Y0000007834D02*
X0004951850Y0002532834D03*
G36*
G01*
X0004883739Y0002589921D02*
X0004869960Y0002589921D01*
G75*
G02*
X0004863070Y0002596811J0000006889D01*
G01*
X0004863070Y0002663740D01*
G75*
G02*
X0004869960Y0002670629I0000006889D01*
G01*
X0004883739Y0002670629D01*
G75*
G02*
X0004890629Y0002663740J-0000006889D01*
G01*
X0004890629Y0002596811D01*
G75*
G02*
X0004883739Y0002589921I-0000006889D01*
G01*
G37*
G36*
G01*
X0004933739Y0002589921D02*
X0004919960Y0002589921D01*
G75*
G02*
X0004913070Y0002596811J0000006889D01*
G01*
X0004913070Y0002663740D01*
G75*
G02*
X0004919960Y0002670629I0000006889D01*
G01*
X0004933739Y0002670629D01*
G75*
G02*
X0004940629Y0002663740J-0000006889D01*
G01*
X0004940629Y0002596811D01*
G75*
G02*
X0004933739Y0002589921I-0000006889D01*
G01*
G37*
G36*
G01*
X0004983739Y0002589921D02*
X0004969960Y0002589921D01*
G75*
G02*
X0004963070Y0002596811J0000006889D01*
G01*
X0004963070Y0002663740D01*
G75*
G02*
X0004969960Y0002670629I0000006889D01*
G01*
X0004983739Y0002670629D01*
G75*
G02*
X0004990629Y0002663740J-0000006889D01*
G01*
X0004990629Y0002596811D01*
G75*
G02*
X0004983739Y0002589921I-0000006889D01*
G01*
G37*
G36*
G01*
X0005033739Y0002589921D02*
X0005019960Y0002589921D01*
G75*
G02*
X0005013070Y0002596811J0000006889D01*
G01*
X0005013070Y0002663740D01*
G75*
G02*
X0005019960Y0002670629I0000006889D01*
G01*
X0005033739Y0002670629D01*
G75*
G02*
X0005040629Y0002663740J-0000006889D01*
G01*
X0005040629Y0002596811D01*
G75*
G02*
X0005033739Y0002589921I-0000006889D01*
G01*
G37*
G36*
G01*
X0005033739Y0002395039D02*
X0005019960Y0002395039D01*
G75*
G02*
X0005013070Y0002401929J0000006889D01*
G01*
X0005013070Y0002468858D01*
G75*
G02*
X0005019960Y0002475748I0000006889D01*
G01*
X0005033739Y0002475748D01*
G75*
G02*
X0005040629Y0002468858J-0000006889D01*
G01*
X0005040629Y0002401929D01*
G75*
G02*
X0005033739Y0002395039I-0000006889D01*
G01*
G37*
G36*
G01*
X0004983739Y0002395039D02*
X0004969960Y0002395039D01*
G75*
G02*
X0004963070Y0002401929J0000006889D01*
G01*
X0004963070Y0002468858D01*
G75*
G02*
X0004969960Y0002475748I0000006889D01*
G01*
X0004983739Y0002475748D01*
G75*
G02*
X0004990629Y0002468858J-0000006889D01*
G01*
X0004990629Y0002401929D01*
G75*
G02*
X0004983739Y0002395039I-0000006889D01*
G01*
G37*
G36*
G01*
X0004933739Y0002395039D02*
X0004919960Y0002395039D01*
G75*
G02*
X0004913070Y0002401929J0000006889D01*
G01*
X0004913070Y0002468858D01*
G75*
G02*
X0004919960Y0002475748I0000006889D01*
G01*
X0004933739Y0002475748D01*
G75*
G02*
X0004940629Y0002468858J-0000006889D01*
G01*
X0004940629Y0002401929D01*
G75*
G02*
X0004933739Y0002395039I-0000006889D01*
G01*
G37*
G36*
G01*
X0004883739Y0002395039D02*
X0004869960Y0002395039D01*
G75*
G02*
X0004863070Y0002401929J0000006889D01*
G01*
X0004863070Y0002468858D01*
G75*
G02*
X0004869960Y0002475748I0000006889D01*
G01*
X0004883739Y0002475748D01*
G75*
G02*
X0004890629Y0002468858J-0000006889D01*
G01*
X0004890629Y0002401929D01*
G75*
G02*
X0004883739Y0002395039I-0000006889D01*
G01*
G37*
D66*
X0004751850Y0002382834D03*
X0005151850Y0002682834D03*
X0004751850Y0002482834D03*
X0005151850Y0002582834D03*
X0004751850Y0002582834D03*
X0005151850Y0002482834D03*
X0004751850Y0002682834D03*
D67*
X0005151850Y0002382834D03*
G04 next file*
G04 Gerber Fmt 4.6, Leading zero omitted, Abs format (unit mm)*
G04 Created by KiCad (PCBNEW (5.1.6)-1) date 2020-09-18 13:03:01*
G01*
G04 APERTURE LIST*
G04 APERTURE END LIST*
D68*
X0003792401Y0000007834D02*
X0005542401Y0002532834D03*
G36*
G01*
X0005474291Y0002589921D02*
X0005460511Y0002589921D01*
G75*
G02*
X0005453621Y0002596811J0000006889D01*
G01*
X0005453621Y0002663740D01*
G75*
G02*
X0005460511Y0002670629I0000006889D01*
G01*
X0005474291Y0002670629D01*
G75*
G02*
X0005481180Y0002663740J-0000006889D01*
G01*
X0005481180Y0002596811D01*
G75*
G02*
X0005474291Y0002589921I-0000006889D01*
G01*
G37*
G36*
G01*
X0005524291Y0002589921D02*
X0005510511Y0002589921D01*
G75*
G02*
X0005503621Y0002596811J0000006889D01*
G01*
X0005503621Y0002663740D01*
G75*
G02*
X0005510511Y0002670629I0000006889D01*
G01*
X0005524291Y0002670629D01*
G75*
G02*
X0005531180Y0002663740J-0000006889D01*
G01*
X0005531180Y0002596811D01*
G75*
G02*
X0005524291Y0002589921I-0000006889D01*
G01*
G37*
G36*
G01*
X0005574291Y0002589921D02*
X0005560511Y0002589921D01*
G75*
G02*
X0005553621Y0002596811J0000006889D01*
G01*
X0005553621Y0002663740D01*
G75*
G02*
X0005560511Y0002670629I0000006889D01*
G01*
X0005574291Y0002670629D01*
G75*
G02*
X0005581180Y0002663740J-0000006889D01*
G01*
X0005581180Y0002596811D01*
G75*
G02*
X0005574291Y0002589921I-0000006889D01*
G01*
G37*
G36*
G01*
X0005624291Y0002589921D02*
X0005610511Y0002589921D01*
G75*
G02*
X0005603621Y0002596811J0000006889D01*
G01*
X0005603621Y0002663740D01*
G75*
G02*
X0005610511Y0002670629I0000006889D01*
G01*
X0005624291Y0002670629D01*
G75*
G02*
X0005631180Y0002663740J-0000006889D01*
G01*
X0005631180Y0002596811D01*
G75*
G02*
X0005624291Y0002589921I-0000006889D01*
G01*
G37*
G36*
G01*
X0005624291Y0002395039D02*
X0005610511Y0002395039D01*
G75*
G02*
X0005603621Y0002401929J0000006889D01*
G01*
X0005603621Y0002468858D01*
G75*
G02*
X0005610511Y0002475748I0000006889D01*
G01*
X0005624291Y0002475748D01*
G75*
G02*
X0005631180Y0002468858J-0000006889D01*
G01*
X0005631180Y0002401929D01*
G75*
G02*
X0005624291Y0002395039I-0000006889D01*
G01*
G37*
G36*
G01*
X0005574291Y0002395039D02*
X0005560511Y0002395039D01*
G75*
G02*
X0005553621Y0002401929J0000006889D01*
G01*
X0005553621Y0002468858D01*
G75*
G02*
X0005560511Y0002475748I0000006889D01*
G01*
X0005574291Y0002475748D01*
G75*
G02*
X0005581180Y0002468858J-0000006889D01*
G01*
X0005581180Y0002401929D01*
G75*
G02*
X0005574291Y0002395039I-0000006889D01*
G01*
G37*
G36*
G01*
X0005524291Y0002395039D02*
X0005510511Y0002395039D01*
G75*
G02*
X0005503621Y0002401929J0000006889D01*
G01*
X0005503621Y0002468858D01*
G75*
G02*
X0005510511Y0002475748I0000006889D01*
G01*
X0005524291Y0002475748D01*
G75*
G02*
X0005531180Y0002468858J-0000006889D01*
G01*
X0005531180Y0002401929D01*
G75*
G02*
X0005524291Y0002395039I-0000006889D01*
G01*
G37*
G36*
G01*
X0005474291Y0002395039D02*
X0005460511Y0002395039D01*
G75*
G02*
X0005453621Y0002401929J0000006889D01*
G01*
X0005453621Y0002468858D01*
G75*
G02*
X0005460511Y0002475748I0000006889D01*
G01*
X0005474291Y0002475748D01*
G75*
G02*
X0005481180Y0002468858J-0000006889D01*
G01*
X0005481180Y0002401929D01*
G75*
G02*
X0005474291Y0002395039I-0000006889D01*
G01*
G37*
D69*
X0005342401Y0002382834D03*
X0005742401Y0002682834D03*
X0005342401Y0002482834D03*
X0005742401Y0002582834D03*
X0005342401Y0002582834D03*
X0005742401Y0002482834D03*
X0005342401Y0002682834D03*
D70*
X0005742401Y0002382834D03*
G04 next file*
G04 Gerber Fmt 4.6, Leading zero omitted, Abs format (unit mm)*
G04 Created by KiCad (PCBNEW (5.1.6)-1) date 2020-09-18 13:03:01*
G01*
G04 APERTURE LIST*
G04 APERTURE END LIST*
D71*
X0004382952Y0000007834D02*
X0006132952Y0002532834D03*
G36*
G01*
X0006064842Y0002589921D02*
X0006051062Y0002589921D01*
G75*
G02*
X0006044173Y0002596811J0000006889D01*
G01*
X0006044173Y0002663740D01*
G75*
G02*
X0006051062Y0002670629I0000006889D01*
G01*
X0006064842Y0002670629D01*
G75*
G02*
X0006071732Y0002663740J-0000006889D01*
G01*
X0006071732Y0002596811D01*
G75*
G02*
X0006064842Y0002589921I-0000006889D01*
G01*
G37*
G36*
G01*
X0006114842Y0002589921D02*
X0006101062Y0002589921D01*
G75*
G02*
X0006094173Y0002596811J0000006889D01*
G01*
X0006094173Y0002663740D01*
G75*
G02*
X0006101062Y0002670629I0000006889D01*
G01*
X0006114842Y0002670629D01*
G75*
G02*
X0006121732Y0002663740J-0000006889D01*
G01*
X0006121732Y0002596811D01*
G75*
G02*
X0006114842Y0002589921I-0000006889D01*
G01*
G37*
G36*
G01*
X0006164842Y0002589921D02*
X0006151062Y0002589921D01*
G75*
G02*
X0006144173Y0002596811J0000006889D01*
G01*
X0006144173Y0002663740D01*
G75*
G02*
X0006151062Y0002670629I0000006889D01*
G01*
X0006164842Y0002670629D01*
G75*
G02*
X0006171732Y0002663740J-0000006889D01*
G01*
X0006171732Y0002596811D01*
G75*
G02*
X0006164842Y0002589921I-0000006889D01*
G01*
G37*
G36*
G01*
X0006214842Y0002589921D02*
X0006201062Y0002589921D01*
G75*
G02*
X0006194173Y0002596811J0000006889D01*
G01*
X0006194173Y0002663740D01*
G75*
G02*
X0006201062Y0002670629I0000006889D01*
G01*
X0006214842Y0002670629D01*
G75*
G02*
X0006221732Y0002663740J-0000006889D01*
G01*
X0006221732Y0002596811D01*
G75*
G02*
X0006214842Y0002589921I-0000006889D01*
G01*
G37*
G36*
G01*
X0006214842Y0002395039D02*
X0006201062Y0002395039D01*
G75*
G02*
X0006194173Y0002401929J0000006889D01*
G01*
X0006194173Y0002468858D01*
G75*
G02*
X0006201062Y0002475748I0000006889D01*
G01*
X0006214842Y0002475748D01*
G75*
G02*
X0006221732Y0002468858J-0000006889D01*
G01*
X0006221732Y0002401929D01*
G75*
G02*
X0006214842Y0002395039I-0000006889D01*
G01*
G37*
G36*
G01*
X0006164842Y0002395039D02*
X0006151062Y0002395039D01*
G75*
G02*
X0006144173Y0002401929J0000006889D01*
G01*
X0006144173Y0002468858D01*
G75*
G02*
X0006151062Y0002475748I0000006889D01*
G01*
X0006164842Y0002475748D01*
G75*
G02*
X0006171732Y0002468858J-0000006889D01*
G01*
X0006171732Y0002401929D01*
G75*
G02*
X0006164842Y0002395039I-0000006889D01*
G01*
G37*
G36*
G01*
X0006114842Y0002395039D02*
X0006101062Y0002395039D01*
G75*
G02*
X0006094173Y0002401929J0000006889D01*
G01*
X0006094173Y0002468858D01*
G75*
G02*
X0006101062Y0002475748I0000006889D01*
G01*
X0006114842Y0002475748D01*
G75*
G02*
X0006121732Y0002468858J-0000006889D01*
G01*
X0006121732Y0002401929D01*
G75*
G02*
X0006114842Y0002395039I-0000006889D01*
G01*
G37*
G36*
G01*
X0006064842Y0002395039D02*
X0006051062Y0002395039D01*
G75*
G02*
X0006044173Y0002401929J0000006889D01*
G01*
X0006044173Y0002468858D01*
G75*
G02*
X0006051062Y0002475748I0000006889D01*
G01*
X0006064842Y0002475748D01*
G75*
G02*
X0006071732Y0002468858J-0000006889D01*
G01*
X0006071732Y0002401929D01*
G75*
G02*
X0006064842Y0002395039I-0000006889D01*
G01*
G37*
D72*
X0005932952Y0002382834D03*
X0006332952Y0002682834D03*
X0005932952Y0002482834D03*
X0006332952Y0002582834D03*
X0005932952Y0002582834D03*
X0006332952Y0002482834D03*
X0005932952Y0002682834D03*
D73*
X0006332952Y0002382834D03*
G04 next file*
G04 Gerber Fmt 4.6, Leading zero omitted, Abs format (unit mm)*
G04 Created by KiCad (PCBNEW (5.1.6)-1) date 2020-09-18 13:03:01*
G01*
G04 APERTURE LIST*
G04 APERTURE END LIST*
D74*
X0005295275Y0000314960D02*
X0007045275Y0002839960D03*
G36*
G01*
X0006977165Y0002897047D02*
X0006963385Y0002897047D01*
G75*
G02*
X0006956496Y0002903937J0000006889D01*
G01*
X0006956496Y0002970866D01*
G75*
G02*
X0006963385Y0002977755I0000006889D01*
G01*
X0006977165Y0002977755D01*
G75*
G02*
X0006984055Y0002970866J-0000006889D01*
G01*
X0006984055Y0002903937D01*
G75*
G02*
X0006977165Y0002897047I-0000006889D01*
G01*
G37*
G36*
G01*
X0007027165Y0002897047D02*
X0007013385Y0002897047D01*
G75*
G02*
X0007006496Y0002903937J0000006889D01*
G01*
X0007006496Y0002970866D01*
G75*
G02*
X0007013385Y0002977755I0000006889D01*
G01*
X0007027165Y0002977755D01*
G75*
G02*
X0007034055Y0002970866J-0000006889D01*
G01*
X0007034055Y0002903937D01*
G75*
G02*
X0007027165Y0002897047I-0000006889D01*
G01*
G37*
G36*
G01*
X0007077165Y0002897047D02*
X0007063385Y0002897047D01*
G75*
G02*
X0007056496Y0002903937J0000006889D01*
G01*
X0007056496Y0002970866D01*
G75*
G02*
X0007063385Y0002977755I0000006889D01*
G01*
X0007077165Y0002977755D01*
G75*
G02*
X0007084055Y0002970866J-0000006889D01*
G01*
X0007084055Y0002903937D01*
G75*
G02*
X0007077165Y0002897047I-0000006889D01*
G01*
G37*
G36*
G01*
X0007127165Y0002897047D02*
X0007113385Y0002897047D01*
G75*
G02*
X0007106496Y0002903937J0000006889D01*
G01*
X0007106496Y0002970866D01*
G75*
G02*
X0007113385Y0002977755I0000006889D01*
G01*
X0007127165Y0002977755D01*
G75*
G02*
X0007134055Y0002970866J-0000006889D01*
G01*
X0007134055Y0002903937D01*
G75*
G02*
X0007127165Y0002897047I-0000006889D01*
G01*
G37*
G36*
G01*
X0007127165Y0002702165D02*
X0007113385Y0002702165D01*
G75*
G02*
X0007106496Y0002709055J0000006889D01*
G01*
X0007106496Y0002775984D01*
G75*
G02*
X0007113385Y0002782874I0000006889D01*
G01*
X0007127165Y0002782874D01*
G75*
G02*
X0007134055Y0002775984J-0000006889D01*
G01*
X0007134055Y0002709055D01*
G75*
G02*
X0007127165Y0002702165I-0000006889D01*
G01*
G37*
G36*
G01*
X0007077165Y0002702165D02*
X0007063385Y0002702165D01*
G75*
G02*
X0007056496Y0002709055J0000006889D01*
G01*
X0007056496Y0002775984D01*
G75*
G02*
X0007063385Y0002782874I0000006889D01*
G01*
X0007077165Y0002782874D01*
G75*
G02*
X0007084055Y0002775984J-0000006889D01*
G01*
X0007084055Y0002709055D01*
G75*
G02*
X0007077165Y0002702165I-0000006889D01*
G01*
G37*
G36*
G01*
X0007027165Y0002702165D02*
X0007013385Y0002702165D01*
G75*
G02*
X0007006496Y0002709055J0000006889D01*
G01*
X0007006496Y0002775984D01*
G75*
G02*
X0007013385Y0002782874I0000006889D01*
G01*
X0007027165Y0002782874D01*
G75*
G02*
X0007034055Y0002775984J-0000006889D01*
G01*
X0007034055Y0002709055D01*
G75*
G02*
X0007027165Y0002702165I-0000006889D01*
G01*
G37*
G36*
G01*
X0006977165Y0002702165D02*
X0006963385Y0002702165D01*
G75*
G02*
X0006956496Y0002709055J0000006889D01*
G01*
X0006956496Y0002775984D01*
G75*
G02*
X0006963385Y0002782874I0000006889D01*
G01*
X0006977165Y0002782874D01*
G75*
G02*
X0006984055Y0002775984J-0000006889D01*
G01*
X0006984055Y0002709055D01*
G75*
G02*
X0006977165Y0002702165I-0000006889D01*
G01*
G37*
D75*
X0006845275Y0002689960D03*
X0007245275Y0002989960D03*
X0006845275Y0002789960D03*
X0007245275Y0002889960D03*
X0006845275Y0002889960D03*
X0007245275Y0002789960D03*
X0006845275Y0002989960D03*
D76*
X0007245275Y0002689960D03*
G04 next file*
G04 Gerber Fmt 4.6, Leading zero omitted, Abs format (unit mm)*
G04 Created by KiCad (PCBNEW (5.1.6)-1) date 2020-09-18 13:03:01*
G01*
G04 APERTURE LIST*
G04 APERTURE END LIST*
D77*
X0005885826Y0000314960D02*
X0007635826Y0002839960D03*
G36*
G01*
X0007567716Y0002897047D02*
X0007553937Y0002897047D01*
G75*
G02*
X0007547047Y0002903937J0000006889D01*
G01*
X0007547047Y0002970866D01*
G75*
G02*
X0007553937Y0002977755I0000006889D01*
G01*
X0007567716Y0002977755D01*
G75*
G02*
X0007574606Y0002970866J-0000006889D01*
G01*
X0007574606Y0002903937D01*
G75*
G02*
X0007567716Y0002897047I-0000006889D01*
G01*
G37*
G36*
G01*
X0007617716Y0002897047D02*
X0007603937Y0002897047D01*
G75*
G02*
X0007597047Y0002903937J0000006889D01*
G01*
X0007597047Y0002970866D01*
G75*
G02*
X0007603937Y0002977755I0000006889D01*
G01*
X0007617716Y0002977755D01*
G75*
G02*
X0007624606Y0002970866J-0000006889D01*
G01*
X0007624606Y0002903937D01*
G75*
G02*
X0007617716Y0002897047I-0000006889D01*
G01*
G37*
G36*
G01*
X0007667716Y0002897047D02*
X0007653937Y0002897047D01*
G75*
G02*
X0007647047Y0002903937J0000006889D01*
G01*
X0007647047Y0002970866D01*
G75*
G02*
X0007653937Y0002977755I0000006889D01*
G01*
X0007667716Y0002977755D01*
G75*
G02*
X0007674606Y0002970866J-0000006889D01*
G01*
X0007674606Y0002903937D01*
G75*
G02*
X0007667716Y0002897047I-0000006889D01*
G01*
G37*
G36*
G01*
X0007717716Y0002897047D02*
X0007703937Y0002897047D01*
G75*
G02*
X0007697047Y0002903937J0000006889D01*
G01*
X0007697047Y0002970866D01*
G75*
G02*
X0007703937Y0002977755I0000006889D01*
G01*
X0007717716Y0002977755D01*
G75*
G02*
X0007724606Y0002970866J-0000006889D01*
G01*
X0007724606Y0002903937D01*
G75*
G02*
X0007717716Y0002897047I-0000006889D01*
G01*
G37*
G36*
G01*
X0007717716Y0002702165D02*
X0007703937Y0002702165D01*
G75*
G02*
X0007697047Y0002709055J0000006889D01*
G01*
X0007697047Y0002775984D01*
G75*
G02*
X0007703937Y0002782874I0000006889D01*
G01*
X0007717716Y0002782874D01*
G75*
G02*
X0007724606Y0002775984J-0000006889D01*
G01*
X0007724606Y0002709055D01*
G75*
G02*
X0007717716Y0002702165I-0000006889D01*
G01*
G37*
G36*
G01*
X0007667716Y0002702165D02*
X0007653937Y0002702165D01*
G75*
G02*
X0007647047Y0002709055J0000006889D01*
G01*
X0007647047Y0002775984D01*
G75*
G02*
X0007653937Y0002782874I0000006889D01*
G01*
X0007667716Y0002782874D01*
G75*
G02*
X0007674606Y0002775984J-0000006889D01*
G01*
X0007674606Y0002709055D01*
G75*
G02*
X0007667716Y0002702165I-0000006889D01*
G01*
G37*
G36*
G01*
X0007617716Y0002702165D02*
X0007603937Y0002702165D01*
G75*
G02*
X0007597047Y0002709055J0000006889D01*
G01*
X0007597047Y0002775984D01*
G75*
G02*
X0007603937Y0002782874I0000006889D01*
G01*
X0007617716Y0002782874D01*
G75*
G02*
X0007624606Y0002775984J-0000006889D01*
G01*
X0007624606Y0002709055D01*
G75*
G02*
X0007617716Y0002702165I-0000006889D01*
G01*
G37*
G36*
G01*
X0007567716Y0002702165D02*
X0007553937Y0002702165D01*
G75*
G02*
X0007547047Y0002709055J0000006889D01*
G01*
X0007547047Y0002775984D01*
G75*
G02*
X0007553937Y0002782874I0000006889D01*
G01*
X0007567716Y0002782874D01*
G75*
G02*
X0007574606Y0002775984J-0000006889D01*
G01*
X0007574606Y0002709055D01*
G75*
G02*
X0007567716Y0002702165I-0000006889D01*
G01*
G37*
D78*
X0007435826Y0002689960D03*
X0007835826Y0002989960D03*
X0007435826Y0002789960D03*
X0007835826Y0002889960D03*
X0007435826Y0002889960D03*
X0007835826Y0002789960D03*
X0007435826Y0002989960D03*
D79*
X0007835826Y0002689960D03*
G04 next file*
G04 Gerber Fmt 4.6, Leading zero omitted, Abs format (unit mm)*
G04 Created by KiCad (PCBNEW (5.1.6)-1) date 2020-09-18 16:39:39*
G01*
G04 APERTURE LIST*
G04 APERTURE END LIST*
D80*
X-0001492126Y-0002600000D02*
X0001907873Y0000899999D03*
X0001907873Y0000799999D03*
X0001907873Y0000699999D03*
X0001907873Y0000599999D03*
X0001907873Y0000499999D03*
X0001907873Y0000399999D03*
X0001907873Y0000299999D03*
X0001907873Y0000199999D03*
X0001907873Y0000099999D03*
X0001807873Y0000899999D03*
X0001807873Y0000799999D03*
X0001807873Y0000699999D03*
X0001807873Y0000599999D03*
X0001807873Y0000499999D03*
X0001807873Y0000399999D03*
X0001807873Y0000299999D03*
X0001807873Y0000199999D03*
X0001807873Y0000099999D03*
X0001707873Y0000899999D03*
X0001707873Y0000799999D03*
X0001707873Y0000699999D03*
X0001707873Y0000599999D03*
X0001707873Y0000499999D03*
X0001707873Y0000399999D03*
X0001707873Y0000299999D03*
X0001707873Y0000199999D03*
X0001707873Y0000099999D03*
X0001607873Y0000899999D03*
X0001607873Y0000799999D03*
X0001607873Y0000699999D03*
X0001607873Y0000599999D03*
X0001607873Y0000499999D03*
X0001607873Y0000399999D03*
X0001607873Y0000299999D03*
X0001607873Y0000199999D03*
X0001607873Y0000099999D03*
X0001507873Y0000899999D03*
X0001507873Y0000799999D03*
X0001507873Y0000699999D03*
X0001507873Y0000599999D03*
X0001507873Y0000499999D03*
X0001507873Y0000399999D03*
X0001507873Y0000299999D03*
X0001507873Y0000199999D03*
X0001507873Y0000099999D03*
X0001407873Y0000899999D03*
X0001407873Y0000799999D03*
X0001407873Y0000699999D03*
X0001407873Y0000599999D03*
X0001407873Y0000499999D03*
X0001407873Y0000399999D03*
X0001407873Y0000299999D03*
X0001407873Y0000199999D03*
X0001407873Y0000099999D03*
X0001307873Y0000899999D03*
X0001307873Y0000799999D03*
X0001307873Y0000699999D03*
X0001307873Y0000599999D03*
X0001307873Y0000499999D03*
X0001307873Y0000399999D03*
X0001307873Y0000299999D03*
X0001307873Y0000199999D03*
X0001307873Y0000099999D03*
X0001207873Y0000899999D03*
X0001207873Y0000799999D03*
X0001207873Y0000699999D03*
X0001207873Y0000599999D03*
X0001207873Y0000499999D03*
X0001207873Y0000399999D03*
X0001207873Y0000299999D03*
X0001207873Y0000199999D03*
X0001207873Y0000099999D03*
X0001107873Y0000899999D03*
X0001107873Y0000799999D03*
X0001107873Y0000699999D03*
X0001107873Y0000599999D03*
X0001107873Y0000499999D03*
X0001107873Y0000399999D03*
X0001107873Y0000299999D03*
X0001107873Y0000199999D03*
X0001107873Y0000099999D03*
X0001007873Y0000899999D03*
X0001007873Y0000799999D03*
X0001007873Y0000699999D03*
X0001007873Y0000599999D03*
X0001007873Y0000499999D03*
X0001007873Y0000399999D03*
X0001007873Y0000299999D03*
X0001007873Y0000199999D03*
X0001007873Y0000099999D03*
X0000907873Y0000899999D03*
X0000907873Y0000799999D03*
X0000907873Y0000699999D03*
X0000907873Y0000599999D03*
X0000907873Y0000499999D03*
X0000907873Y0000399999D03*
X0000907873Y0000299999D03*
X0000907873Y0000199999D03*
X0000907873Y0000099999D03*
X0000807873Y0000899999D03*
X0000807873Y0000799999D03*
X0000807873Y0000699999D03*
X0000807873Y0000599999D03*
X0000807873Y0000499999D03*
X0000807873Y0000399999D03*
X0000807873Y0000299999D03*
X0000807873Y0000199999D03*
X0000807873Y0000099999D03*
X0000707873Y0000899999D03*
X0000707873Y0000799999D03*
X0000707873Y0000699999D03*
X0000707873Y0000599999D03*
X0000707873Y0000499999D03*
X0000707873Y0000399999D03*
X0000707873Y0000299999D03*
X0000707873Y0000199999D03*
X0000707873Y0000099999D03*
X0000607873Y0000899999D03*
X0000607873Y0000799999D03*
X0000607873Y0000699999D03*
X0000607873Y0000599999D03*
X0000607873Y0000499999D03*
X0000607873Y0000399999D03*
X0000607873Y0000299999D03*
X0000607873Y0000199999D03*
X0000607873Y0000099999D03*
X0000507873Y0000899999D03*
X0000507873Y0000799999D03*
X0000507873Y0000699999D03*
X0000507873Y0000599999D03*
X0000507873Y0000499999D03*
X0000507873Y0000399999D03*
X0000507873Y0000299999D03*
X0000507873Y0000199999D03*
X0000507873Y0000099999D03*
X0000407873Y0000899999D03*
X0000407873Y0000799999D03*
X0000407873Y0000699999D03*
X0000407873Y0000599999D03*
X0000407873Y0000499999D03*
X0000407873Y0000399999D03*
X0000407873Y0000299999D03*
X0000407873Y0000199999D03*
X0000407873Y0000099999D03*
X0000307873Y0000899999D03*
X0000307873Y0000799999D03*
X0000307873Y0000699999D03*
X0000307873Y0000599999D03*
X0000307873Y0000499999D03*
X0000307873Y0000399999D03*
X0000307873Y0000299999D03*
X0000307873Y0000199999D03*
X0000307873Y0000099999D03*
X0000207873Y0000899999D03*
X0000207873Y0000799999D03*
X0000207873Y0000699999D03*
X0000207873Y0000599999D03*
X0000207873Y0000499999D03*
X0000207873Y0000399999D03*
X0000207873Y0000299999D03*
X0000207873Y0000199999D03*
X0000207873Y0000099999D03*
X0000107873Y0000899999D03*
X0000107873Y0000799999D03*
X0000107873Y0000699999D03*
X0000107873Y0000599999D03*
X0000107873Y0000499999D03*
X0000107873Y0000399999D03*
X0000107873Y0000299999D03*
X0000107873Y0000199999D03*
X0000107873Y0000099999D03*
G04 next file*
G04 Gerber Fmt 4.6, Leading zero omitted, Abs format (unit mm)*
G04 Created by KiCad (PCBNEW (5.1.6)-1) date 2020-09-18 16:39:39*
G01*
G04 APERTURE LIST*
G04 APERTURE END LIST*
D81*
X0000594488Y-0002600000D02*
X0003994488Y0000899999D03*
X0003994488Y0000799999D03*
X0003994488Y0000699999D03*
X0003994488Y0000599999D03*
X0003994488Y0000499999D03*
X0003994488Y0000399999D03*
X0003994488Y0000299999D03*
X0003994488Y0000199999D03*
X0003994488Y0000099999D03*
X0003894488Y0000899999D03*
X0003894488Y0000799999D03*
X0003894488Y0000699999D03*
X0003894488Y0000599999D03*
X0003894488Y0000499999D03*
X0003894488Y0000399999D03*
X0003894488Y0000299999D03*
X0003894488Y0000199999D03*
X0003894488Y0000099999D03*
X0003794488Y0000899999D03*
X0003794488Y0000799999D03*
X0003794488Y0000699999D03*
X0003794488Y0000599999D03*
X0003794488Y0000499999D03*
X0003794488Y0000399999D03*
X0003794488Y0000299999D03*
X0003794488Y0000199999D03*
X0003794488Y0000099999D03*
X0003694488Y0000899999D03*
X0003694488Y0000799999D03*
X0003694488Y0000699999D03*
X0003694488Y0000599999D03*
X0003694488Y0000499999D03*
X0003694488Y0000399999D03*
X0003694488Y0000299999D03*
X0003694488Y0000199999D03*
X0003694488Y0000099999D03*
X0003594488Y0000899999D03*
X0003594488Y0000799999D03*
X0003594488Y0000699999D03*
X0003594488Y0000599999D03*
X0003594488Y0000499999D03*
X0003594488Y0000399999D03*
X0003594488Y0000299999D03*
X0003594488Y0000199999D03*
X0003594488Y0000099999D03*
X0003494488Y0000899999D03*
X0003494488Y0000799999D03*
X0003494488Y0000699999D03*
X0003494488Y0000599999D03*
X0003494488Y0000499999D03*
X0003494488Y0000399999D03*
X0003494488Y0000299999D03*
X0003494488Y0000199999D03*
X0003494488Y0000099999D03*
X0003394488Y0000899999D03*
X0003394488Y0000799999D03*
X0003394488Y0000699999D03*
X0003394488Y0000599999D03*
X0003394488Y0000499999D03*
X0003394488Y0000399999D03*
X0003394488Y0000299999D03*
X0003394488Y0000199999D03*
X0003394488Y0000099999D03*
X0003294488Y0000899999D03*
X0003294488Y0000799999D03*
X0003294488Y0000699999D03*
X0003294488Y0000599999D03*
X0003294488Y0000499999D03*
X0003294488Y0000399999D03*
X0003294488Y0000299999D03*
X0003294488Y0000199999D03*
X0003294488Y0000099999D03*
X0003194488Y0000899999D03*
X0003194488Y0000799999D03*
X0003194488Y0000699999D03*
X0003194488Y0000599999D03*
X0003194488Y0000499999D03*
X0003194488Y0000399999D03*
X0003194488Y0000299999D03*
X0003194488Y0000199999D03*
X0003194488Y0000099999D03*
X0003094488Y0000899999D03*
X0003094488Y0000799999D03*
X0003094488Y0000699999D03*
X0003094488Y0000599999D03*
X0003094488Y0000499999D03*
X0003094488Y0000399999D03*
X0003094488Y0000299999D03*
X0003094488Y0000199999D03*
X0003094488Y0000099999D03*
X0002994488Y0000899999D03*
X0002994488Y0000799999D03*
X0002994488Y0000699999D03*
X0002994488Y0000599999D03*
X0002994488Y0000499999D03*
X0002994488Y0000399999D03*
X0002994488Y0000299999D03*
X0002994488Y0000199999D03*
X0002994488Y0000099999D03*
X0002894488Y0000899999D03*
X0002894488Y0000799999D03*
X0002894488Y0000699999D03*
X0002894488Y0000599999D03*
X0002894488Y0000499999D03*
X0002894488Y0000399999D03*
X0002894488Y0000299999D03*
X0002894488Y0000199999D03*
X0002894488Y0000099999D03*
X0002794488Y0000899999D03*
X0002794488Y0000799999D03*
X0002794488Y0000699999D03*
X0002794488Y0000599999D03*
X0002794488Y0000499999D03*
X0002794488Y0000399999D03*
X0002794488Y0000299999D03*
X0002794488Y0000199999D03*
X0002794488Y0000099999D03*
X0002694488Y0000899999D03*
X0002694488Y0000799999D03*
X0002694488Y0000699999D03*
X0002694488Y0000599999D03*
X0002694488Y0000499999D03*
X0002694488Y0000399999D03*
X0002694488Y0000299999D03*
X0002694488Y0000199999D03*
X0002694488Y0000099999D03*
X0002594488Y0000899999D03*
X0002594488Y0000799999D03*
X0002594488Y0000699999D03*
X0002594488Y0000599999D03*
X0002594488Y0000499999D03*
X0002594488Y0000399999D03*
X0002594488Y0000299999D03*
X0002594488Y0000199999D03*
X0002594488Y0000099999D03*
X0002494488Y0000899999D03*
X0002494488Y0000799999D03*
X0002494488Y0000699999D03*
X0002494488Y0000599999D03*
X0002494488Y0000499999D03*
X0002494488Y0000399999D03*
X0002494488Y0000299999D03*
X0002494488Y0000199999D03*
X0002494488Y0000099999D03*
X0002394488Y0000899999D03*
X0002394488Y0000799999D03*
X0002394488Y0000699999D03*
X0002394488Y0000599999D03*
X0002394488Y0000499999D03*
X0002394488Y0000399999D03*
X0002394488Y0000299999D03*
X0002394488Y0000199999D03*
X0002394488Y0000099999D03*
X0002294488Y0000899999D03*
X0002294488Y0000799999D03*
X0002294488Y0000699999D03*
X0002294488Y0000599999D03*
X0002294488Y0000499999D03*
X0002294488Y0000399999D03*
X0002294488Y0000299999D03*
X0002294488Y0000199999D03*
X0002294488Y0000099999D03*
X0002194488Y0000899999D03*
X0002194488Y0000799999D03*
X0002194488Y0000699999D03*
X0002194488Y0000599999D03*
X0002194488Y0000499999D03*
X0002194488Y0000399999D03*
X0002194488Y0000299999D03*
X0002194488Y0000199999D03*
X0002194488Y0000099999D03*
G04 next file*
G04 Gerber Fmt 4.6, Leading zero omitted, Abs format (unit mm)*
G04 Created by KiCad (PCBNEW (5.1.6)-1) date 2020-09-18 16:39:39*
G01*
G04 APERTURE LIST*
G04 APERTURE END LIST*
D82*
X0002681102Y-0002600000D02*
X0006081102Y0000899999D03*
X0006081102Y0000799999D03*
X0006081102Y0000699999D03*
X0006081102Y0000599999D03*
X0006081102Y0000499999D03*
X0006081102Y0000399999D03*
X0006081102Y0000299999D03*
X0006081102Y0000199999D03*
X0006081102Y0000099999D03*
X0005981102Y0000899999D03*
X0005981102Y0000799999D03*
X0005981102Y0000699999D03*
X0005981102Y0000599999D03*
X0005981102Y0000499999D03*
X0005981102Y0000399999D03*
X0005981102Y0000299999D03*
X0005981102Y0000199999D03*
X0005981102Y0000099999D03*
X0005881102Y0000899999D03*
X0005881102Y0000799999D03*
X0005881102Y0000699999D03*
X0005881102Y0000599999D03*
X0005881102Y0000499999D03*
X0005881102Y0000399999D03*
X0005881102Y0000299999D03*
X0005881102Y0000199999D03*
X0005881102Y0000099999D03*
X0005781102Y0000899999D03*
X0005781102Y0000799999D03*
X0005781102Y0000699999D03*
X0005781102Y0000599999D03*
X0005781102Y0000499999D03*
X0005781102Y0000399999D03*
X0005781102Y0000299999D03*
X0005781102Y0000199999D03*
X0005781102Y0000099999D03*
X0005681102Y0000899999D03*
X0005681102Y0000799999D03*
X0005681102Y0000699999D03*
X0005681102Y0000599999D03*
X0005681102Y0000499999D03*
X0005681102Y0000399999D03*
X0005681102Y0000299999D03*
X0005681102Y0000199999D03*
X0005681102Y0000099999D03*
X0005581102Y0000899999D03*
X0005581102Y0000799999D03*
X0005581102Y0000699999D03*
X0005581102Y0000599999D03*
X0005581102Y0000499999D03*
X0005581102Y0000399999D03*
X0005581102Y0000299999D03*
X0005581102Y0000199999D03*
X0005581102Y0000099999D03*
X0005481102Y0000899999D03*
X0005481102Y0000799999D03*
X0005481102Y0000699999D03*
X0005481102Y0000599999D03*
X0005481102Y0000499999D03*
X0005481102Y0000399999D03*
X0005481102Y0000299999D03*
X0005481102Y0000199999D03*
X0005481102Y0000099999D03*
X0005381102Y0000899999D03*
X0005381102Y0000799999D03*
X0005381102Y0000699999D03*
X0005381102Y0000599999D03*
X0005381102Y0000499999D03*
X0005381102Y0000399999D03*
X0005381102Y0000299999D03*
X0005381102Y0000199999D03*
X0005381102Y0000099999D03*
X0005281102Y0000899999D03*
X0005281102Y0000799999D03*
X0005281102Y0000699999D03*
X0005281102Y0000599999D03*
X0005281102Y0000499999D03*
X0005281102Y0000399999D03*
X0005281102Y0000299999D03*
X0005281102Y0000199999D03*
X0005281102Y0000099999D03*
X0005181102Y0000899999D03*
X0005181102Y0000799999D03*
X0005181102Y0000699999D03*
X0005181102Y0000599999D03*
X0005181102Y0000499999D03*
X0005181102Y0000399999D03*
X0005181102Y0000299999D03*
X0005181102Y0000199999D03*
X0005181102Y0000099999D03*
X0005081102Y0000899999D03*
X0005081102Y0000799999D03*
X0005081102Y0000699999D03*
X0005081102Y0000599999D03*
X0005081102Y0000499999D03*
X0005081102Y0000399999D03*
X0005081102Y0000299999D03*
X0005081102Y0000199999D03*
X0005081102Y0000099999D03*
X0004981102Y0000899999D03*
X0004981102Y0000799999D03*
X0004981102Y0000699999D03*
X0004981102Y0000599999D03*
X0004981102Y0000499999D03*
X0004981102Y0000399999D03*
X0004981102Y0000299999D03*
X0004981102Y0000199999D03*
X0004981102Y0000099999D03*
X0004881102Y0000899999D03*
X0004881102Y0000799999D03*
X0004881102Y0000699999D03*
X0004881102Y0000599999D03*
X0004881102Y0000499999D03*
X0004881102Y0000399999D03*
X0004881102Y0000299999D03*
X0004881102Y0000199999D03*
X0004881102Y0000099999D03*
X0004781102Y0000899999D03*
X0004781102Y0000799999D03*
X0004781102Y0000699999D03*
X0004781102Y0000599999D03*
X0004781102Y0000499999D03*
X0004781102Y0000399999D03*
X0004781102Y0000299999D03*
X0004781102Y0000199999D03*
X0004781102Y0000099999D03*
X0004681102Y0000899999D03*
X0004681102Y0000799999D03*
X0004681102Y0000699999D03*
X0004681102Y0000599999D03*
X0004681102Y0000499999D03*
X0004681102Y0000399999D03*
X0004681102Y0000299999D03*
X0004681102Y0000199999D03*
X0004681102Y0000099999D03*
X0004581102Y0000899999D03*
X0004581102Y0000799999D03*
X0004581102Y0000699999D03*
X0004581102Y0000599999D03*
X0004581102Y0000499999D03*
X0004581102Y0000399999D03*
X0004581102Y0000299999D03*
X0004581102Y0000199999D03*
X0004581102Y0000099999D03*
X0004481102Y0000899999D03*
X0004481102Y0000799999D03*
X0004481102Y0000699999D03*
X0004481102Y0000599999D03*
X0004481102Y0000499999D03*
X0004481102Y0000399999D03*
X0004481102Y0000299999D03*
X0004481102Y0000199999D03*
X0004481102Y0000099999D03*
X0004381102Y0000899999D03*
X0004381102Y0000799999D03*
X0004381102Y0000699999D03*
X0004381102Y0000599999D03*
X0004381102Y0000499999D03*
X0004381102Y0000399999D03*
X0004381102Y0000299999D03*
X0004381102Y0000199999D03*
X0004381102Y0000099999D03*
X0004281102Y0000899999D03*
X0004281102Y0000799999D03*
X0004281102Y0000699999D03*
X0004281102Y0000599999D03*
X0004281102Y0000499999D03*
X0004281102Y0000399999D03*
X0004281102Y0000299999D03*
X0004281102Y0000199999D03*
X0004281102Y0000099999D03*
G04 next file*
G04 Gerber Fmt 4.6, Leading zero omitted, Abs format (unit mm)*
G04 Created by KiCad (PCBNEW (5.1.6)-1) date 2020-09-18 16:39:39*
G01*
G04 APERTURE LIST*
G04 APERTURE END LIST*
D83*
X0004767716Y-0002600000D02*
X0008167716Y0000899999D03*
X0008167716Y0000799999D03*
X0008167716Y0000699999D03*
X0008167716Y0000599999D03*
X0008167716Y0000499999D03*
X0008167716Y0000399999D03*
X0008167716Y0000299999D03*
X0008167716Y0000199999D03*
X0008167716Y0000099999D03*
X0008067716Y0000899999D03*
X0008067716Y0000799999D03*
X0008067716Y0000699999D03*
X0008067716Y0000599999D03*
X0008067716Y0000499999D03*
X0008067716Y0000399999D03*
X0008067716Y0000299999D03*
X0008067716Y0000199999D03*
X0008067716Y0000099999D03*
X0007967716Y0000899999D03*
X0007967716Y0000799999D03*
X0007967716Y0000699999D03*
X0007967716Y0000599999D03*
X0007967716Y0000499999D03*
X0007967716Y0000399999D03*
X0007967716Y0000299999D03*
X0007967716Y0000199999D03*
X0007967716Y0000099999D03*
X0007867716Y0000899999D03*
X0007867716Y0000799999D03*
X0007867716Y0000699999D03*
X0007867716Y0000599999D03*
X0007867716Y0000499999D03*
X0007867716Y0000399999D03*
X0007867716Y0000299999D03*
X0007867716Y0000199999D03*
X0007867716Y0000099999D03*
X0007767716Y0000899999D03*
X0007767716Y0000799999D03*
X0007767716Y0000699999D03*
X0007767716Y0000599999D03*
X0007767716Y0000499999D03*
X0007767716Y0000399999D03*
X0007767716Y0000299999D03*
X0007767716Y0000199999D03*
X0007767716Y0000099999D03*
X0007667716Y0000899999D03*
X0007667716Y0000799999D03*
X0007667716Y0000699999D03*
X0007667716Y0000599999D03*
X0007667716Y0000499999D03*
X0007667716Y0000399999D03*
X0007667716Y0000299999D03*
X0007667716Y0000199999D03*
X0007667716Y0000099999D03*
X0007567716Y0000899999D03*
X0007567716Y0000799999D03*
X0007567716Y0000699999D03*
X0007567716Y0000599999D03*
X0007567716Y0000499999D03*
X0007567716Y0000399999D03*
X0007567716Y0000299999D03*
X0007567716Y0000199999D03*
X0007567716Y0000099999D03*
X0007467716Y0000899999D03*
X0007467716Y0000799999D03*
X0007467716Y0000699999D03*
X0007467716Y0000599999D03*
X0007467716Y0000499999D03*
X0007467716Y0000399999D03*
X0007467716Y0000299999D03*
X0007467716Y0000199999D03*
X0007467716Y0000099999D03*
X0007367716Y0000899999D03*
X0007367716Y0000799999D03*
X0007367716Y0000699999D03*
X0007367716Y0000599999D03*
X0007367716Y0000499999D03*
X0007367716Y0000399999D03*
X0007367716Y0000299999D03*
X0007367716Y0000199999D03*
X0007367716Y0000099999D03*
X0007267716Y0000899999D03*
X0007267716Y0000799999D03*
X0007267716Y0000699999D03*
X0007267716Y0000599999D03*
X0007267716Y0000499999D03*
X0007267716Y0000399999D03*
X0007267716Y0000299999D03*
X0007267716Y0000199999D03*
X0007267716Y0000099999D03*
X0007167716Y0000899999D03*
X0007167716Y0000799999D03*
X0007167716Y0000699999D03*
X0007167716Y0000599999D03*
X0007167716Y0000499999D03*
X0007167716Y0000399999D03*
X0007167716Y0000299999D03*
X0007167716Y0000199999D03*
X0007167716Y0000099999D03*
X0007067716Y0000899999D03*
X0007067716Y0000799999D03*
X0007067716Y0000699999D03*
X0007067716Y0000599999D03*
X0007067716Y0000499999D03*
X0007067716Y0000399999D03*
X0007067716Y0000299999D03*
X0007067716Y0000199999D03*
X0007067716Y0000099999D03*
X0006967716Y0000899999D03*
X0006967716Y0000799999D03*
X0006967716Y0000699999D03*
X0006967716Y0000599999D03*
X0006967716Y0000499999D03*
X0006967716Y0000399999D03*
X0006967716Y0000299999D03*
X0006967716Y0000199999D03*
X0006967716Y0000099999D03*
X0006867716Y0000899999D03*
X0006867716Y0000799999D03*
X0006867716Y0000699999D03*
X0006867716Y0000599999D03*
X0006867716Y0000499999D03*
X0006867716Y0000399999D03*
X0006867716Y0000299999D03*
X0006867716Y0000199999D03*
X0006867716Y0000099999D03*
X0006767716Y0000899999D03*
X0006767716Y0000799999D03*
X0006767716Y0000699999D03*
X0006767716Y0000599999D03*
X0006767716Y0000499999D03*
X0006767716Y0000399999D03*
X0006767716Y0000299999D03*
X0006767716Y0000199999D03*
X0006767716Y0000099999D03*
X0006667716Y0000899999D03*
X0006667716Y0000799999D03*
X0006667716Y0000699999D03*
X0006667716Y0000599999D03*
X0006667716Y0000499999D03*
X0006667716Y0000399999D03*
X0006667716Y0000299999D03*
X0006667716Y0000199999D03*
X0006667716Y0000099999D03*
X0006567716Y0000899999D03*
X0006567716Y0000799999D03*
X0006567716Y0000699999D03*
X0006567716Y0000599999D03*
X0006567716Y0000499999D03*
X0006567716Y0000399999D03*
X0006567716Y0000299999D03*
X0006567716Y0000199999D03*
X0006567716Y0000099999D03*
X0006467716Y0000899999D03*
X0006467716Y0000799999D03*
X0006467716Y0000699999D03*
X0006467716Y0000599999D03*
X0006467716Y0000499999D03*
X0006467716Y0000399999D03*
X0006467716Y0000299999D03*
X0006467716Y0000199999D03*
X0006467716Y0000099999D03*
X0006367716Y0000899999D03*
X0006367716Y0000799999D03*
X0006367716Y0000699999D03*
X0006367716Y0000599999D03*
X0006367716Y0000499999D03*
X0006367716Y0000399999D03*
X0006367716Y0000299999D03*
X0006367716Y0000199999D03*
X0006367716Y0000099999D03*
G04 next file*
G04 Gerber Fmt 4.6, Leading zero omitted, Abs format (unit mm)*
G04 Created by KiCad (PCBNEW (5.1.6)-1) date 2020-09-18 16:39:39*
G01*
G04 APERTURE LIST*
G04 APERTURE END LIST*
D84*
X-0001492126Y-0001497637D02*
X0001907873Y0002002362D03*
X0001907873Y0001902362D03*
X0001907873Y0001802362D03*
X0001907873Y0001702362D03*
X0001907873Y0001602362D03*
X0001907873Y0001502362D03*
X0001907873Y0001402362D03*
X0001907873Y0001302362D03*
X0001907873Y0001202362D03*
X0001807873Y0002002362D03*
X0001807873Y0001902362D03*
X0001807873Y0001802362D03*
X0001807873Y0001702362D03*
X0001807873Y0001602362D03*
X0001807873Y0001502362D03*
X0001807873Y0001402362D03*
X0001807873Y0001302362D03*
X0001807873Y0001202362D03*
X0001707873Y0002002362D03*
X0001707873Y0001902362D03*
X0001707873Y0001802362D03*
X0001707873Y0001702362D03*
X0001707873Y0001602362D03*
X0001707873Y0001502362D03*
X0001707873Y0001402362D03*
X0001707873Y0001302362D03*
X0001707873Y0001202362D03*
X0001607873Y0002002362D03*
X0001607873Y0001902362D03*
X0001607873Y0001802362D03*
X0001607873Y0001702362D03*
X0001607873Y0001602362D03*
X0001607873Y0001502362D03*
X0001607873Y0001402362D03*
X0001607873Y0001302362D03*
X0001607873Y0001202362D03*
X0001507873Y0002002362D03*
X0001507873Y0001902362D03*
X0001507873Y0001802362D03*
X0001507873Y0001702362D03*
X0001507873Y0001602362D03*
X0001507873Y0001502362D03*
X0001507873Y0001402362D03*
X0001507873Y0001302362D03*
X0001507873Y0001202362D03*
X0001407873Y0002002362D03*
X0001407873Y0001902362D03*
X0001407873Y0001802362D03*
X0001407873Y0001702362D03*
X0001407873Y0001602362D03*
X0001407873Y0001502362D03*
X0001407873Y0001402362D03*
X0001407873Y0001302362D03*
X0001407873Y0001202362D03*
X0001307873Y0002002362D03*
X0001307873Y0001902362D03*
X0001307873Y0001802362D03*
X0001307873Y0001702362D03*
X0001307873Y0001602362D03*
X0001307873Y0001502362D03*
X0001307873Y0001402362D03*
X0001307873Y0001302362D03*
X0001307873Y0001202362D03*
X0001207873Y0002002362D03*
X0001207873Y0001902362D03*
X0001207873Y0001802362D03*
X0001207873Y0001702362D03*
X0001207873Y0001602362D03*
X0001207873Y0001502362D03*
X0001207873Y0001402362D03*
X0001207873Y0001302362D03*
X0001207873Y0001202362D03*
X0001107873Y0002002362D03*
X0001107873Y0001902362D03*
X0001107873Y0001802362D03*
X0001107873Y0001702362D03*
X0001107873Y0001602362D03*
X0001107873Y0001502362D03*
X0001107873Y0001402362D03*
X0001107873Y0001302362D03*
X0001107873Y0001202362D03*
X0001007873Y0002002362D03*
X0001007873Y0001902362D03*
X0001007873Y0001802362D03*
X0001007873Y0001702362D03*
X0001007873Y0001602362D03*
X0001007873Y0001502362D03*
X0001007873Y0001402362D03*
X0001007873Y0001302362D03*
X0001007873Y0001202362D03*
X0000907873Y0002002362D03*
X0000907873Y0001902362D03*
X0000907873Y0001802362D03*
X0000907873Y0001702362D03*
X0000907873Y0001602362D03*
X0000907873Y0001502362D03*
X0000907873Y0001402362D03*
X0000907873Y0001302362D03*
X0000907873Y0001202362D03*
X0000807873Y0002002362D03*
X0000807873Y0001902362D03*
X0000807873Y0001802362D03*
X0000807873Y0001702362D03*
X0000807873Y0001602362D03*
X0000807873Y0001502362D03*
X0000807873Y0001402362D03*
X0000807873Y0001302362D03*
X0000807873Y0001202362D03*
X0000707873Y0002002362D03*
X0000707873Y0001902362D03*
X0000707873Y0001802362D03*
X0000707873Y0001702362D03*
X0000707873Y0001602362D03*
X0000707873Y0001502362D03*
X0000707873Y0001402362D03*
X0000707873Y0001302362D03*
X0000707873Y0001202362D03*
X0000607873Y0002002362D03*
X0000607873Y0001902362D03*
X0000607873Y0001802362D03*
X0000607873Y0001702362D03*
X0000607873Y0001602362D03*
X0000607873Y0001502362D03*
X0000607873Y0001402362D03*
X0000607873Y0001302362D03*
X0000607873Y0001202362D03*
X0000507873Y0002002362D03*
X0000507873Y0001902362D03*
X0000507873Y0001802362D03*
X0000507873Y0001702362D03*
X0000507873Y0001602362D03*
X0000507873Y0001502362D03*
X0000507873Y0001402362D03*
X0000507873Y0001302362D03*
X0000507873Y0001202362D03*
X0000407873Y0002002362D03*
X0000407873Y0001902362D03*
X0000407873Y0001802362D03*
X0000407873Y0001702362D03*
X0000407873Y0001602362D03*
X0000407873Y0001502362D03*
X0000407873Y0001402362D03*
X0000407873Y0001302362D03*
X0000407873Y0001202362D03*
X0000307873Y0002002362D03*
X0000307873Y0001902362D03*
X0000307873Y0001802362D03*
X0000307873Y0001702362D03*
X0000307873Y0001602362D03*
X0000307873Y0001502362D03*
X0000307873Y0001402362D03*
X0000307873Y0001302362D03*
X0000307873Y0001202362D03*
X0000207873Y0002002362D03*
X0000207873Y0001902362D03*
X0000207873Y0001802362D03*
X0000207873Y0001702362D03*
X0000207873Y0001602362D03*
X0000207873Y0001502362D03*
X0000207873Y0001402362D03*
X0000207873Y0001302362D03*
X0000207873Y0001202362D03*
X0000107873Y0002002362D03*
X0000107873Y0001902362D03*
X0000107873Y0001802362D03*
X0000107873Y0001702362D03*
X0000107873Y0001602362D03*
X0000107873Y0001502362D03*
X0000107873Y0001402362D03*
X0000107873Y0001302362D03*
X0000107873Y0001202362D03*
G04 next file*
G04 Layer: TopSolderMaskLayer*
G04 EasyEDA v6.3.53, 2020-06-26T16:53:54--4:00*
G04 395d111042f2402990e7a52cfaf045f1,10*
G04 Gerber Generator version 0.2*
G04 Scale: 100 percent, Rotated: No, Reflected: No *
G04 Dimensions in millimeters *
G04 leading zeros omitted , absolute positions ,3 integer and 3 decimal *
G90*
G04 skipping 71
D85*
G01X0004171889Y0002105590D02*
G01X0004211259Y0002105590D01*
G01X0004171889Y0001985590D02*
G01X0004211259Y0001985590D01*
G01X0004171889Y0001865551D02*
G01X0004211259Y0001865551D01*
G01X0004171889Y0001750590D02*
G01X0004211259Y0001750590D01*
G01X0004171889Y0001630590D02*
G01X0004211259Y0001630590D01*
D86*
G01X0004595118Y0001219448D02*
G01X0004595118Y0001180078D01*
G01X0004752559Y0001219448D02*
G01X0004752559Y0001180078D01*
G01X0005264370Y0001416299D02*
G01X0005264370Y0001376929D01*
G01X0005106889Y0001416299D02*
G01X0005106889Y0001376929D01*
G01X0004949409Y0001416299D02*
G01X0004949409Y0001376929D01*
G36*
G01X0004331259Y0002077519D02*
G01X0004331259Y0002110590D01*
G01X0004417952Y0002110590D01*
G01X0004417952Y0002077519D01*
G01X0004331259Y0002077519D01*
G37*
G36*
G01X0004331259Y0002027559D02*
G01X0004331259Y0002060590D01*
G01X0004417952Y0002060590D01*
G01X0004417952Y0002027559D01*
G01X0004331259Y0002027559D01*
G37*
G36*
G01X0004331259Y0001977559D02*
G01X0004331259Y0002010590D01*
G01X0004417952Y0002010590D01*
G01X0004417952Y0001977559D01*
G01X0004331259Y0001977559D01*
G37*
G36*
G01X0004331259Y0001927559D02*
G01X0004331259Y0001960590D01*
G01X0004417952Y0001960590D01*
G01X0004417952Y0001927559D01*
G01X0004331259Y0001927559D01*
G37*
G36*
G01X0004331259Y0001877559D02*
G01X0004331259Y0001910590D01*
G01X0004417952Y0001910590D01*
G01X0004417952Y0001877559D01*
G01X0004331259Y0001877559D01*
G37*
G36*
G01X0004331259Y0001827559D02*
G01X0004331259Y0001860590D01*
G01X0004417952Y0001860590D01*
G01X0004417952Y0001827559D01*
G01X0004331259Y0001827559D01*
G37*
G36*
G01X0004331259Y0001777559D02*
G01X0004331259Y0001810590D01*
G01X0004417952Y0001810590D01*
G01X0004417952Y0001777559D01*
G01X0004331259Y0001777559D01*
G37*
G36*
G01X0004331259Y0001727559D02*
G01X0004331259Y0001760590D01*
G01X0004417952Y0001760590D01*
G01X0004417952Y0001727559D01*
G01X0004331259Y0001727559D01*
G37*
G36*
G01X0004331259Y0001677559D02*
G01X0004331259Y0001710590D01*
G01X0004417952Y0001710590D01*
G01X0004417952Y0001677559D01*
G01X0004331259Y0001677559D01*
G37*
G36*
G01X0004331259Y0001627559D02*
G01X0004331259Y0001660590D01*
G01X0004417952Y0001660590D01*
G01X0004417952Y0001627559D01*
G01X0004331259Y0001627559D01*
G37*
G36*
G01X0004850984Y0001627559D02*
G01X0004850984Y0001660590D01*
G01X0004937677Y0001660590D01*
G01X0004937677Y0001627559D01*
G01X0004850984Y0001627559D01*
G37*
G36*
G01X0004850984Y0001677559D02*
G01X0004850984Y0001710590D01*
G01X0004937677Y0001710590D01*
G01X0004937677Y0001677559D01*
G01X0004850984Y0001677559D01*
G37*
G36*
G01X0004850984Y0001727559D02*
G01X0004850984Y0001760590D01*
G01X0004937677Y0001760590D01*
G01X0004937677Y0001727559D01*
G01X0004850984Y0001727559D01*
G37*
G36*
G01X0004850984Y0001777559D02*
G01X0004850984Y0001810590D01*
G01X0004937677Y0001810590D01*
G01X0004937677Y0001777559D01*
G01X0004850984Y0001777559D01*
G37*
G36*
G01X0004850984Y0001827559D02*
G01X0004850984Y0001860590D01*
G01X0004937677Y0001860590D01*
G01X0004937677Y0001827559D01*
G01X0004850984Y0001827559D01*
G37*
G36*
G01X0004850984Y0001877559D02*
G01X0004850984Y0001910590D01*
G01X0004937677Y0001910590D01*
G01X0004937677Y0001877559D01*
G01X0004850984Y0001877559D01*
G37*
G36*
G01X0004850984Y0001927559D02*
G01X0004850984Y0001960590D01*
G01X0004937677Y0001960590D01*
G01X0004937677Y0001927559D01*
G01X0004850984Y0001927559D01*
G37*
G36*
G01X0004850984Y0001977559D02*
G01X0004850984Y0002010590D01*
G01X0004937677Y0002010590D01*
G01X0004937677Y0001977559D01*
G01X0004850984Y0001977559D01*
G37*
G36*
G01X0004850984Y0002027559D02*
G01X0004850984Y0002060590D01*
G01X0004937677Y0002060590D01*
G01X0004937677Y0002027559D01*
G01X0004850984Y0002027559D01*
G37*
G36*
G01X0004850984Y0002077519D02*
G01X0004850984Y0002110590D01*
G01X0004937677Y0002110590D01*
G01X0004937677Y0002077519D01*
G01X0004850984Y0002077519D01*
G37*
D87*
G01X0004634488Y0001869055D03*
G36*
G01X0005199370Y0001841417D02*
G01X0005199370Y0001888779D01*
G01X0005250669Y0001888779D01*
G01X0005250669Y0001841417D01*
G01X0005199370Y0001841417D01*
G37*
G36*
G01X0005199370Y0001770590D02*
G01X0005199370Y0001817992D01*
G01X0005250669Y0001817992D01*
G01X0005250669Y0001770590D01*
G01X0005199370Y0001770590D01*
G37*
G36*
G01X0004106850Y0001254881D02*
G01X0004106850Y0001302165D01*
G01X0004232952Y0001302165D01*
G01X0004232952Y0001254881D01*
G01X0004106850Y0001254881D01*
G37*
G36*
G01X0004327362Y0001254881D02*
G01X0004327362Y0001302165D01*
G01X0004453464Y0001302165D01*
G01X0004453464Y0001254881D01*
G01X0004327362Y0001254881D01*
G37*
G36*
G01X0004992874Y0001596377D02*
G01X0004992874Y0001669370D01*
G01X0005050866Y0001669370D01*
G01X0005050866Y0001596377D01*
G01X0004992874Y0001596377D01*
G37*
G36*
G01X0005159881Y0001596377D02*
G01X0005159881Y0001669370D01*
G01X0005217874Y0001669370D01*
G01X0005217874Y0001596377D01*
G01X0005159881Y0001596377D01*
G37*
G36*
G01X0005202283Y0001990078D02*
G01X0005202283Y0002063070D01*
G01X0005260275Y0002063070D01*
G01X0005260275Y0001990078D01*
G01X0005202283Y0001990078D01*
G37*
G36*
G01X0005035275Y0001990078D02*
G01X0005035275Y0002063070D01*
G01X0005093267Y0002063070D01*
G01X0005093267Y0001990078D01*
G01X0005035275Y0001990078D01*
G37*
G36*
G01X0005043070Y0001864488D02*
G01X0005043070Y0001919685D01*
G01X0005125866Y0001919685D01*
G01X0005125866Y0001864488D01*
G01X0005043070Y0001864488D01*
G37*
G36*
G01X0005043070Y0001738464D02*
G01X0005043070Y0001793661D01*
G01X0005125866Y0001793661D01*
G01X0005125866Y0001738464D01*
G01X0005043070Y0001738464D01*
G37*
G36*
G01X0004925787Y0002149488D02*
G01X0004925787Y0002218582D01*
G01X0004973070Y0002218582D01*
G01X0004973070Y0002149488D01*
G01X0004925787Y0002149488D01*
G37*
G36*
G01X0005004488Y0002149488D02*
G01X0005004488Y0002218582D01*
G01X0005051850Y0002218582D01*
G01X0005051850Y0002149488D01*
G01X0005004488Y0002149488D01*
G37*
G36*
G01X0004217086Y0001480275D02*
G01X0004217086Y0001549291D01*
G01X0004264488Y0001549291D01*
G01X0004264488Y0001480275D01*
G01X0004217086Y0001480275D01*
G37*
G36*
G01X0004295866Y0001480275D02*
G01X0004295866Y0001549291D01*
G01X0004343149Y0001549291D01*
G01X0004343149Y0001480275D01*
G01X0004295866Y0001480275D01*
G37*
G04 next file*
G04 Layer: TopSolderMaskLayer*
G04 EasyEDA v6.3.53, 2020-06-26T16:53:54--4:00*
G04 395d111042f2402990e7a52cfaf045f1,10*
G04 Gerber Generator version 0.2*
G04 Scale: 100 percent, Rotated: No, Reflected: No *
G04 Dimensions in millimeters *
G04 leading zeros omitted , absolute positions ,3 integer and 3 decimal *
G90*
G04 skipping 71
D88*
G01X0005510472Y0002105590D02*
G01X0005549842Y0002105590D01*
G01X0005510472Y0001985590D02*
G01X0005549842Y0001985590D01*
G01X0005510472Y0001865551D02*
G01X0005549842Y0001865551D01*
G01X0005510472Y0001750590D02*
G01X0005549842Y0001750590D01*
G01X0005510472Y0001630590D02*
G01X0005549842Y0001630590D01*
D89*
G01X0005933700Y0001219448D02*
G01X0005933700Y0001180078D01*
G01X0006091141Y0001219448D02*
G01X0006091141Y0001180078D01*
G01X0006602952Y0001416299D02*
G01X0006602952Y0001376929D01*
G01X0006445472Y0001416299D02*
G01X0006445472Y0001376929D01*
G01X0006287992Y0001416299D02*
G01X0006287992Y0001376929D01*
G36*
G01X0005669842Y0002077519D02*
G01X0005669842Y0002110590D01*
G01X0005756535Y0002110590D01*
G01X0005756535Y0002077519D01*
G01X0005669842Y0002077519D01*
G37*
G36*
G01X0005669842Y0002027559D02*
G01X0005669842Y0002060590D01*
G01X0005756535Y0002060590D01*
G01X0005756535Y0002027559D01*
G01X0005669842Y0002027559D01*
G37*
G36*
G01X0005669842Y0001977559D02*
G01X0005669842Y0002010590D01*
G01X0005756535Y0002010590D01*
G01X0005756535Y0001977559D01*
G01X0005669842Y0001977559D01*
G37*
G36*
G01X0005669842Y0001927559D02*
G01X0005669842Y0001960590D01*
G01X0005756535Y0001960590D01*
G01X0005756535Y0001927559D01*
G01X0005669842Y0001927559D01*
G37*
G36*
G01X0005669842Y0001877559D02*
G01X0005669842Y0001910590D01*
G01X0005756535Y0001910590D01*
G01X0005756535Y0001877559D01*
G01X0005669842Y0001877559D01*
G37*
G36*
G01X0005669842Y0001827559D02*
G01X0005669842Y0001860590D01*
G01X0005756535Y0001860590D01*
G01X0005756535Y0001827559D01*
G01X0005669842Y0001827559D01*
G37*
G36*
G01X0005669842Y0001777559D02*
G01X0005669842Y0001810590D01*
G01X0005756535Y0001810590D01*
G01X0005756535Y0001777559D01*
G01X0005669842Y0001777559D01*
G37*
G36*
G01X0005669842Y0001727559D02*
G01X0005669842Y0001760590D01*
G01X0005756535Y0001760590D01*
G01X0005756535Y0001727559D01*
G01X0005669842Y0001727559D01*
G37*
G36*
G01X0005669842Y0001677559D02*
G01X0005669842Y0001710590D01*
G01X0005756535Y0001710590D01*
G01X0005756535Y0001677559D01*
G01X0005669842Y0001677559D01*
G37*
G36*
G01X0005669842Y0001627559D02*
G01X0005669842Y0001660590D01*
G01X0005756535Y0001660590D01*
G01X0005756535Y0001627559D01*
G01X0005669842Y0001627559D01*
G37*
G36*
G01X0006189566Y0001627559D02*
G01X0006189566Y0001660590D01*
G01X0006276259Y0001660590D01*
G01X0006276259Y0001627559D01*
G01X0006189566Y0001627559D01*
G37*
G36*
G01X0006189566Y0001677559D02*
G01X0006189566Y0001710590D01*
G01X0006276259Y0001710590D01*
G01X0006276259Y0001677559D01*
G01X0006189566Y0001677559D01*
G37*
G36*
G01X0006189566Y0001727559D02*
G01X0006189566Y0001760590D01*
G01X0006276259Y0001760590D01*
G01X0006276259Y0001727559D01*
G01X0006189566Y0001727559D01*
G37*
G36*
G01X0006189566Y0001777559D02*
G01X0006189566Y0001810590D01*
G01X0006276259Y0001810590D01*
G01X0006276259Y0001777559D01*
G01X0006189566Y0001777559D01*
G37*
G36*
G01X0006189566Y0001827559D02*
G01X0006189566Y0001860590D01*
G01X0006276259Y0001860590D01*
G01X0006276259Y0001827559D01*
G01X0006189566Y0001827559D01*
G37*
G36*
G01X0006189566Y0001877559D02*
G01X0006189566Y0001910590D01*
G01X0006276259Y0001910590D01*
G01X0006276259Y0001877559D01*
G01X0006189566Y0001877559D01*
G37*
G36*
G01X0006189566Y0001927559D02*
G01X0006189566Y0001960590D01*
G01X0006276259Y0001960590D01*
G01X0006276259Y0001927559D01*
G01X0006189566Y0001927559D01*
G37*
G36*
G01X0006189566Y0001977559D02*
G01X0006189566Y0002010590D01*
G01X0006276259Y0002010590D01*
G01X0006276259Y0001977559D01*
G01X0006189566Y0001977559D01*
G37*
G36*
G01X0006189566Y0002027559D02*
G01X0006189566Y0002060590D01*
G01X0006276259Y0002060590D01*
G01X0006276259Y0002027559D01*
G01X0006189566Y0002027559D01*
G37*
G36*
G01X0006189566Y0002077519D02*
G01X0006189566Y0002110590D01*
G01X0006276259Y0002110590D01*
G01X0006276259Y0002077519D01*
G01X0006189566Y0002077519D01*
G37*
D90*
G01X0005973070Y0001869055D03*
G36*
G01X0006537952Y0001841417D02*
G01X0006537952Y0001888779D01*
G01X0006589251Y0001888779D01*
G01X0006589251Y0001841417D01*
G01X0006537952Y0001841417D01*
G37*
G36*
G01X0006537952Y0001770590D02*
G01X0006537952Y0001817992D01*
G01X0006589251Y0001817992D01*
G01X0006589251Y0001770590D01*
G01X0006537952Y0001770590D01*
G37*
G36*
G01X0005445433Y0001254881D02*
G01X0005445433Y0001302165D01*
G01X0005571535Y0001302165D01*
G01X0005571535Y0001254881D01*
G01X0005445433Y0001254881D01*
G37*
G36*
G01X0005665944Y0001254881D02*
G01X0005665944Y0001302165D01*
G01X0005792047Y0001302165D01*
G01X0005792047Y0001254881D01*
G01X0005665944Y0001254881D01*
G37*
G36*
G01X0006331456Y0001596377D02*
G01X0006331456Y0001669370D01*
G01X0006389448Y0001669370D01*
G01X0006389448Y0001596377D01*
G01X0006331456Y0001596377D01*
G37*
G36*
G01X0006498464Y0001596377D02*
G01X0006498464Y0001669370D01*
G01X0006556456Y0001669370D01*
G01X0006556456Y0001596377D01*
G01X0006498464Y0001596377D01*
G37*
G36*
G01X0006540866Y0001990078D02*
G01X0006540866Y0002063070D01*
G01X0006598858Y0002063070D01*
G01X0006598858Y0001990078D01*
G01X0006540866Y0001990078D01*
G37*
G36*
G01X0006373858Y0001990078D02*
G01X0006373858Y0002063070D01*
G01X0006431850Y0002063070D01*
G01X0006431850Y0001990078D01*
G01X0006373858Y0001990078D01*
G37*
G36*
G01X0006381653Y0001864488D02*
G01X0006381653Y0001919685D01*
G01X0006464448Y0001919685D01*
G01X0006464448Y0001864488D01*
G01X0006381653Y0001864488D01*
G37*
G36*
G01X0006381653Y0001738464D02*
G01X0006381653Y0001793661D01*
G01X0006464448Y0001793661D01*
G01X0006464448Y0001738464D01*
G01X0006381653Y0001738464D01*
G37*
G36*
G01X0006264370Y0002149488D02*
G01X0006264370Y0002218582D01*
G01X0006311653Y0002218582D01*
G01X0006311653Y0002149488D01*
G01X0006264370Y0002149488D01*
G37*
G36*
G01X0006343070Y0002149488D02*
G01X0006343070Y0002218582D01*
G01X0006390433Y0002218582D01*
G01X0006390433Y0002149488D01*
G01X0006343070Y0002149488D01*
G37*
G36*
G01X0005555669Y0001480275D02*
G01X0005555669Y0001549291D01*
G01X0005603070Y0001549291D01*
G01X0005603070Y0001480275D01*
G01X0005555669Y0001480275D01*
G37*
G36*
G01X0005634448Y0001480275D02*
G01X0005634448Y0001549291D01*
G01X0005681732Y0001549291D01*
G01X0005681732Y0001480275D01*
G01X0005634448Y0001480275D01*
G37*
G04 next file*
G04 Gerber Fmt 4.6, Leading zero omitted, Abs format (unit mm)*
G04 Created by KiCad (PCBNEW (5.1.6)-1) date 2020-08-14 16:38:12*
G01*
G04 APERTURE LIST*
G04 APERTURE END LIST*
D91*
X-0000461417Y0001704724D02*
X0000238582Y0002257578D03*
X0000238582Y0002551870D03*
D92*
X0000238582Y0002404724D03*
D93*
X0000133267Y0002430314D03*
D94*
X0000238582Y0002569094D03*
X0000238582Y0002240354D03*
D95*
X0000120472Y0002492322D03*
D93*
X0000133267Y0002455905D03*
X0000133267Y0002404724D03*
X0000133267Y0002379133D03*
X0000133267Y0002353543D03*
D95*
X0000120472Y0002317125D03*
G04 next file*
G04 Gerber Fmt 4.6, Leading zero omitted, Abs format (unit mm)*
G04 Created by KiCad (PCBNEW (5.1.6)-1) date 2020-09-18 20:45:58*
G01*
G04 APERTURE LIST*
G04 APERTURE END LIST*
D96*
X-0000734252Y-0003747637D02*
X0002203747Y0001157862D03*
X0002203747Y0001266862D03*
X0002203747Y0001375862D03*
X0002203747Y0001484862D03*
X0002203747Y0001593862D03*
X0002203747Y0001702862D03*
X0002203747Y0001811862D03*
X0002203747Y0001920862D03*
X0002203747Y0002029862D03*
X0002203747Y0002138862D03*
X0002203747Y0002247862D03*
X0002203747Y0002356862D03*
X0002203747Y0002465862D03*
X0002315747Y0001212362D03*
X0002315747Y0001321362D03*
X0002315747Y0001430362D03*
X0002315747Y0001539362D03*
X0002315747Y0001648362D03*
X0002315747Y0001757362D03*
X0002315747Y0001866362D03*
X0002315747Y0001975362D03*
X0002315747Y0002084362D03*
X0002315747Y0002193362D03*
X0002315747Y0002302362D03*
X0002315747Y0002411362D03*
D97*
X0003915747Y0002202362D03*
X0003915747Y0001602362D03*
X0002515747Y0002202362D03*
X0003815747Y0001602362D03*
X0002615747Y0002202362D03*
X0003715747Y0001602362D03*
X0002715747Y0002202362D03*
X0003615747Y0001602362D03*
X0002815747Y0002202362D03*
X0003515747Y0001602362D03*
X0002915747Y0002202362D03*
X0003415747Y0001602362D03*
X0003015747Y0002202362D03*
X0003315747Y0001602362D03*
X0003115747Y0002202362D03*
X0003215747Y0001602362D03*
X0003215747Y0002202362D03*
X0003115747Y0001602362D03*
X0003315747Y0002202362D03*
X0003015747Y0001602362D03*
X0003415747Y0002202362D03*
X0002915747Y0001602362D03*
X0003515747Y0002202362D03*
X0002815747Y0001602362D03*
X0003615747Y0002202362D03*
X0002715747Y0001602362D03*
X0003715747Y0002202362D03*
X0002615747Y0001602362D03*
X0003815747Y0002202362D03*
D98*
X0002515747Y0001602362D03*
G04 next file*
G04 Gerber Fmt 4.6, Leading zero omitted, Abs format (unit mm)*
G04 Created by KiCad (PCBNEW (5.1.6)-1) date 2020-09-18 13:03:01*
G01*
G04 APERTURE LIST*
G04 APERTURE END LIST*
D99*
X0006456692Y0000314960D02*
X0008206692Y0002839960D03*
G36*
G01*
X0008138582Y0002897047D02*
X0008124803Y0002897047D01*
G75*
G02*
X0008117913Y0002903937J0000006889D01*
G01*
X0008117913Y0002970866D01*
G75*
G02*
X0008124803Y0002977755I0000006889D01*
G01*
X0008138582Y0002977755D01*
G75*
G02*
X0008145472Y0002970866J-0000006889D01*
G01*
X0008145472Y0002903937D01*
G75*
G02*
X0008138582Y0002897047I-0000006889D01*
G01*
G37*
G36*
G01*
X0008188582Y0002897047D02*
X0008174803Y0002897047D01*
G75*
G02*
X0008167913Y0002903937J0000006889D01*
G01*
X0008167913Y0002970866D01*
G75*
G02*
X0008174803Y0002977755I0000006889D01*
G01*
X0008188582Y0002977755D01*
G75*
G02*
X0008195472Y0002970866J-0000006889D01*
G01*
X0008195472Y0002903937D01*
G75*
G02*
X0008188582Y0002897047I-0000006889D01*
G01*
G37*
G36*
G01*
X0008238582Y0002897047D02*
X0008224803Y0002897047D01*
G75*
G02*
X0008217913Y0002903937J0000006889D01*
G01*
X0008217913Y0002970866D01*
G75*
G02*
X0008224803Y0002977755I0000006889D01*
G01*
X0008238582Y0002977755D01*
G75*
G02*
X0008245472Y0002970866J-0000006889D01*
G01*
X0008245472Y0002903937D01*
G75*
G02*
X0008238582Y0002897047I-0000006889D01*
G01*
G37*
G36*
G01*
X0008288582Y0002897047D02*
X0008274803Y0002897047D01*
G75*
G02*
X0008267913Y0002903937J0000006889D01*
G01*
X0008267913Y0002970866D01*
G75*
G02*
X0008274803Y0002977755I0000006889D01*
G01*
X0008288582Y0002977755D01*
G75*
G02*
X0008295472Y0002970866J-0000006889D01*
G01*
X0008295472Y0002903937D01*
G75*
G02*
X0008288582Y0002897047I-0000006889D01*
G01*
G37*
G36*
G01*
X0008288582Y0002702165D02*
X0008274803Y0002702165D01*
G75*
G02*
X0008267913Y0002709055J0000006889D01*
G01*
X0008267913Y0002775984D01*
G75*
G02*
X0008274803Y0002782874I0000006889D01*
G01*
X0008288582Y0002782874D01*
G75*
G02*
X0008295472Y0002775984J-0000006889D01*
G01*
X0008295472Y0002709055D01*
G75*
G02*
X0008288582Y0002702165I-0000006889D01*
G01*
G37*
G36*
G01*
X0008238582Y0002702165D02*
X0008224803Y0002702165D01*
G75*
G02*
X0008217913Y0002709055J0000006889D01*
G01*
X0008217913Y0002775984D01*
G75*
G02*
X0008224803Y0002782874I0000006889D01*
G01*
X0008238582Y0002782874D01*
G75*
G02*
X0008245472Y0002775984J-0000006889D01*
G01*
X0008245472Y0002709055D01*
G75*
G02*
X0008238582Y0002702165I-0000006889D01*
G01*
G37*
G36*
G01*
X0008188582Y0002702165D02*
X0008174803Y0002702165D01*
G75*
G02*
X0008167913Y0002709055J0000006889D01*
G01*
X0008167913Y0002775984D01*
G75*
G02*
X0008174803Y0002782874I0000006889D01*
G01*
X0008188582Y0002782874D01*
G75*
G02*
X0008195472Y0002775984J-0000006889D01*
G01*
X0008195472Y0002709055D01*
G75*
G02*
X0008188582Y0002702165I-0000006889D01*
G01*
G37*
G36*
G01*
X0008138582Y0002702165D02*
X0008124803Y0002702165D01*
G75*
G02*
X0008117913Y0002709055J0000006889D01*
G01*
X0008117913Y0002775984D01*
G75*
G02*
X0008124803Y0002782874I0000006889D01*
G01*
X0008138582Y0002782874D01*
G75*
G02*
X0008145472Y0002775984J-0000006889D01*
G01*
X0008145472Y0002709055D01*
G75*
G02*
X0008138582Y0002702165I-0000006889D01*
G01*
G37*
D100*
X0008006692Y0002689960D03*
X0008406692Y0002989960D03*
X0008006692Y0002789960D03*
X0008406692Y0002889960D03*
X0008006692Y0002889960D03*
X0008406692Y0002789960D03*
X0008006692Y0002989960D03*
D101*
X0008406692Y0002689960D03*
M02*