%
M48
METRIC,000.000
T10C0.80
T11C1.00
T12C0.31
T13C1.20
T14C1.64
T15C0.40
T16C0.60
T17C0.65
T18C0.76
%
T10
X037696Y057524
X047856Y057524
X037696Y060064
X047856Y060064
X037696Y062604
X047856Y062604
X037696Y065144
X047856Y065144
X173696Y029524
X183856Y029524
X173696Y032064
X183856Y032064
X173696Y034604
X183856Y034604
X173696Y037144
X183856Y037144
X188696Y029524
X198856Y029524
X188696Y032064
X198856Y032064
X188696Y034604
X198856Y034604
X188696Y037144
X198856Y037144
X203696Y029524
X213856Y029524
X203696Y032064
X213856Y032064
X203696Y034604
X213856Y034604
X203696Y037144
X213856Y037144
X173696Y042524
X183856Y042524
X173696Y045064
X183856Y045064
X173696Y047604
X183856Y047604
X173696Y050144
X183856Y050144
X188696Y042524
X198856Y042524
X188696Y045064
X198856Y045064
X188696Y047604
X198856Y047604
X188696Y050144
X198856Y050144
X203696Y042524
X213856Y042524
X203696Y045064
X213856Y045064
X203696Y047604
X213856Y047604
X203696Y050144
X213856Y050144
X173696Y055524
X183856Y055524
X173696Y058064
X183856Y058064
X173696Y060604
X183856Y060604
X173696Y063144
X183856Y063144
X188696Y055524
X198856Y055524
X188696Y058064
X198856Y058064
X188696Y060604
X198856Y060604
X188696Y063144
X198856Y063144
X203696Y055524
X213856Y055524
X203696Y058064
X213856Y058064
X203696Y060604
X213856Y060604
X203696Y063144
X213856Y063144
X105696Y060524
X115856Y060524
X105696Y063064
X115856Y063064
X105696Y065604
X115856Y065604
X105696Y068144
X115856Y068144
X052696Y068524
X062856Y068524
X052696Y071064
X062856Y071064
X052696Y073604
X062856Y073604
X052696Y076144
X062856Y076144
X037696Y070524
X047856Y070524
X037696Y073064
X047856Y073064
X037696Y075604
X047856Y075604
X037696Y078144
X047856Y078144
X076370Y064825
X086530Y064825
X076370Y067365
X086530Y067365
X076370Y069905
X086530Y069905
X076370Y072445
X086530Y072445
X090870Y064825
X101030Y064825
X090870Y067365
X101030Y067365
X090870Y069905
X101030Y069905
X090870Y072445
X101030Y072445
X120696Y060524
X130856Y060524
X120696Y063064
X130856Y063064
X120696Y065604
X130856Y065604
X120696Y068144
X130856Y068144
X135696Y060524
X145856Y060524
X135696Y063064
X145856Y063064
X135696Y065604
X145856Y065604
X135696Y068144
X145856Y068144
X150696Y060524
X160856Y060524
X150696Y063064
X160856Y063064
X150696Y065604
X160856Y065604
X150696Y068144
X160856Y068144
X173870Y068325
X184030Y068325
X173870Y070865
X184030Y070865
X173870Y073405
X184030Y073405
X173870Y075945
X184030Y075945
X188870Y068325
X199030Y068325
X188870Y070865
X199030Y070865
X188870Y073405
X199030Y073405
X188870Y075945
X199030Y075945
X203370Y068325
X213530Y068325
X203370Y070865
X213530Y070865
X203370Y073405
X213530Y073405
X203370Y075945
X213530Y075945
T11
X035759Y017779
X002739Y010159
X028139Y017779
X038299Y007619
X023059Y012699
X025599Y022859
X017979Y022859
X017979Y010159
X045919Y017779
X017979Y005079
X045919Y007619
X012899Y012699
X012899Y015239
X043379Y022859
X012899Y017779
X040839Y007619
X007819Y010159
X040839Y010159
X017979Y007619
X038299Y002539
X007819Y012699
X030679Y022859
X030679Y010159
X002739Y022859
X033219Y007619
X002739Y007619
X033219Y015239
X035759Y007619
X023059Y002539
X025599Y020319
X017979Y020319
X020519Y007619
X045919Y010159
X017979Y002539
X015439Y015239
X012899Y007619
X043379Y020319
X010359Y012699
X043379Y010159
X007819Y015239
X038299Y017779
X010359Y002539
X035759Y022859
X010359Y020319
X030679Y002539
X028139Y022859
X002739Y015239
X030679Y005079
X002739Y005079
X033219Y010159
X035759Y012699
X023059Y022859
X023059Y005079
X048459Y017779
X025599Y017779
X045919Y020319
X020519Y022859
X045919Y022859
X020519Y005079
X015439Y022859
X015439Y012699
X015439Y005079
X043379Y017779
X005279Y017779
X043379Y007619
X007819Y007619
X040839Y005079
X035759Y015239
X012899Y002539
X028139Y012699
X035759Y010159
X030679Y007619
X033219Y005079
X028139Y020319
X025599Y012699
X023059Y017779
X025599Y015239
X048459Y012699
X020519Y020319
X048459Y022859
X020519Y002539
X002739Y002539
X048459Y007619
X015439Y020319
X015439Y010159
X040839Y022859
X010359Y022859
X043379Y012699
X043379Y005079
X010359Y007619
X038299Y022859
X005279Y022859
X033219Y022859
X010359Y010159
X030679Y020319
X035759Y002539
X002739Y020319
X030679Y015239
X028139Y007619
X035759Y005079
X025599Y010159
X025599Y007619
X045919Y015239
X023059Y010159
X020519Y017779
X048459Y020319
X017979Y017779
X015439Y017779
X045919Y012699
X015439Y007619
X040839Y002539
X012899Y022859
X040839Y012699
X012899Y005079
X043379Y002539
X007819Y017779
X038299Y020319
X005279Y020319
X033219Y020319
X007819Y005079
X028139Y010159
X005279Y002539
X033219Y017779
X028139Y005079
X038299Y010159
X023059Y020319
X025599Y005079
X025599Y002539
X020519Y015239
X048459Y005079
X017979Y015239
X048459Y015239
X015439Y002539
X028139Y002539
X010359Y005079
X045919Y005079
X012899Y010159
X043379Y015239
X010359Y017779
X040839Y020319
X038299Y012699
X005279Y012699
X033219Y012699
X010359Y015239
X030679Y017779
X005279Y005079
X035759Y020319
X002739Y017779
X028139Y015239
X038299Y015239
X023059Y015239
X023059Y007619
X020519Y010159
X020519Y012699
X048459Y010159
X017979Y012699
X048459Y002539
X012899Y020319
X005279Y010159
X045919Y002539
X007819Y022859
X040839Y015239
X007819Y020319
X040839Y017779
X005279Y015239
X038299Y005079
X007819Y002539
X033219Y002539
X005279Y007619
X030679Y012699
X002739Y012699
X088759Y017779
X055739Y010159
X081139Y017779
X091299Y007619
X076059Y012699
X078599Y022859
X070979Y022859
X070979Y010159
X098919Y017779
X070979Y005079
X098919Y007619
X065899Y012699
X065899Y015239
X096379Y022859
X065899Y017779
X093839Y007619
X060819Y010159
X093839Y010159
X070979Y007619
X091299Y002539
X060819Y012699
X083679Y022859
X083679Y010159
X055739Y022859
X086219Y007619
X055739Y007619
X086219Y015239
X088759Y007619
X076059Y002539
X078599Y020319
X070979Y020319
X073519Y007619
X098919Y010159
X070979Y002539
X068439Y015239
X065899Y007619
X096379Y020319
X063359Y012699
X096379Y010159
X060819Y015239
X091299Y017779
X063359Y002539
X088759Y022859
X063359Y020319
X083679Y002539
X081139Y022859
X055739Y015239
X083679Y005079
X055739Y005079
X086219Y010159
X088759Y012699
X076059Y022859
X076059Y005079
X101459Y017779
X078599Y017779
X098919Y020319
X073519Y022859
X098919Y022859
X073519Y005079
X068439Y022859
X068439Y012699
X068439Y005079
X096379Y017779
X058279Y017779
X096379Y007619
X060819Y007619
X093839Y005079
X088759Y015239
X065899Y002539
X081139Y012699
X088759Y010159
X083679Y007619
X086219Y005079
X081139Y020319
X078599Y012699
X076059Y017779
X078599Y015239
X101459Y012699
X073519Y020319
X101459Y022859
X073519Y002539
X055739Y002539
X101459Y007619
X068439Y020319
X068439Y010159
X093839Y022859
X063359Y022859
X096379Y012699
X096379Y005079
X063359Y007619
X091299Y022859
X058279Y022859
X086219Y022859
X063359Y010159
X083679Y020319
X088759Y002539
X055739Y020319
X083679Y015239
X081139Y007619
X088759Y005079
X078599Y010159
X078599Y007619
X098919Y015239
X076059Y010159
X073519Y017779
X101459Y020319
X070979Y017779
X068439Y017779
X098919Y012699
X068439Y007619
X093839Y002539
X065899Y022859
X093839Y012699
X065899Y005079
X096379Y002539
X060819Y017779
X091299Y020319
X058279Y020319
X086219Y020319
X060819Y005079
X081139Y010159
X058279Y002539
X086219Y017779
X081139Y005079
X091299Y010159
X076059Y020319
X078599Y005079
X078599Y002539
X073519Y015239
X101459Y005079
X070979Y015239
X101459Y015239
X068439Y002539
X081139Y002539
X063359Y005079
X098919Y005079
X065899Y010159
X096379Y015239
X063359Y017779
X093839Y020319
X091299Y012699
X058279Y012699
X086219Y012699
X063359Y015239
X083679Y017779
X058279Y005079
X088759Y020319
X055739Y017779
X081139Y015239
X091299Y015239
X076059Y015239
X076059Y007619
X073519Y010159
X073519Y012699
X101459Y010159
X070979Y012699
X101459Y002539
X065899Y020319
X058279Y010159
X098919Y002539
X060819Y022859
X093839Y015239
X060819Y020319
X093839Y017779
X058279Y015239
X091299Y005079
X060819Y002539
X086219Y002539
X058279Y007619
X083679Y012699
X055739Y012699
X141759Y017779
X108739Y010159
X134139Y017779
X144299Y007619
X129059Y012699
X131599Y022859
X123979Y022859
X123979Y010159
X151919Y017779
X123979Y005079
X151919Y007619
X118899Y012699
X118899Y015239
X149379Y022859
X118899Y017779
X146839Y007619
X113819Y010159
X146839Y010159
X123979Y007619
X144299Y002539
X113819Y012699
X136679Y022859
X136679Y010159
X108739Y022859
X139219Y007619
X108739Y007619
X139219Y015239
X141759Y007619
X129059Y002539
X131599Y020319
X123979Y020319
X126519Y007619
X151919Y010159
X123979Y002539
X121439Y015239
X118899Y007619
X149379Y020319
X116359Y012699
X149379Y010159
X113819Y015239
X144299Y017779
X116359Y002539
X141759Y022859
X116359Y020319
X136679Y002539
X134139Y022859
X108739Y015239
X136679Y005079
X108739Y005079
X139219Y010159
X141759Y012699
X129059Y022859
X129059Y005079
X154459Y017779
X131599Y017779
X151919Y020319
X126519Y022859
X151919Y022859
X126519Y005079
X121439Y022859
X121439Y012699
X121439Y005079
X149379Y017779
X111279Y017779
X149379Y007619
X113819Y007619
X146839Y005079
X141759Y015239
X118899Y002539
X134139Y012699
X141759Y010159
X136679Y007619
X139219Y005079
X134139Y020319
X131599Y012699
X129059Y017779
X131599Y015239
X154459Y012699
X126519Y020319
X154459Y022859
X126519Y002539
X108739Y002539
X154459Y007619
X121439Y020319
X121439Y010159
X146839Y022859
X116359Y022859
X149379Y012699
X149379Y005079
X116359Y007619
X144299Y022859
X111279Y022859
X139219Y022859
X116359Y010159
X136679Y020319
X141759Y002539
X108739Y020319
X136679Y015239
X134139Y007619
X141759Y005079
X131599Y010159
X131599Y007619
X151919Y015239
X129059Y010159
X126519Y017779
X154459Y020319
X123979Y017779
X121439Y017779
X151919Y012699
X121439Y007619
X146839Y002539
X118899Y022859
X146839Y012699
X118899Y005079
X149379Y002539
X113819Y017779
X144299Y020319
X111279Y020319
X139219Y020319
X113819Y005079
X134139Y010159
X111279Y002539
X139219Y017779
X134139Y005079
X144299Y010159
X129059Y020319
X131599Y005079
X131599Y002539
X126519Y015239
X154459Y005079
X123979Y015239
X154459Y015239
X121439Y002539
X134139Y002539
X116359Y005079
X151919Y005079
X118899Y010159
X149379Y015239
X116359Y017779
X146839Y020319
X144299Y012699
X111279Y012699
X139219Y012699
X116359Y015239
X136679Y017779
X111279Y005079
X141759Y020319
X108739Y017779
X134139Y015239
X144299Y015239
X129059Y015239
X129059Y007619
X126519Y010159
X126519Y012699
X154459Y010159
X123979Y012699
X154459Y002539
X118899Y020319
X111279Y010159
X151919Y002539
X113819Y022859
X146839Y015239
X113819Y020319
X146839Y017779
X111279Y015239
X144299Y005079
X113819Y002539
X139219Y002539
X111279Y007619
X136679Y012699
X108739Y012699
X194759Y017779
X161739Y010159
X187139Y017779
X197299Y007619
X182059Y012699
X184599Y022859
X176979Y022859
X176979Y010159
X204919Y017779
X176979Y005079
X204919Y007619
X171899Y012699
X171899Y015239
X202379Y022859
X171899Y017779
X199839Y007619
X166819Y010159
X199839Y010159
X176979Y007619
X197299Y002539
X166819Y012699
X189679Y022859
X189679Y010159
X161739Y022859
X192219Y007619
X161739Y007619
X192219Y015239
X194759Y007619
X182059Y002539
X184599Y020319
X176979Y020319
X179519Y007619
X204919Y010159
X176979Y002539
X174439Y015239
X171899Y007619
X202379Y020319
X169359Y012699
X202379Y010159
X166819Y015239
X197299Y017779
X169359Y002539
X194759Y022859
X169359Y020319
X189679Y002539
X187139Y022859
X161739Y015239
X189679Y005079
X161739Y005079
X192219Y010159
X194759Y012699
X182059Y022859
X182059Y005079
X207459Y017779
X184599Y017779
X204919Y020319
X179519Y022859
X204919Y022859
X179519Y005079
X174439Y022859
X174439Y012699
X174439Y005079
X202379Y017779
X164279Y017779
X202379Y007619
X166819Y007619
X199839Y005079
X194759Y015239
X171899Y002539
X187139Y012699
X194759Y010159
X189679Y007619
X192219Y005079
X187139Y020319
X184599Y012699
X182059Y017779
X184599Y015239
X207459Y012699
X179519Y020319
X207459Y022859
X179519Y002539
X161739Y002539
X207459Y007619
X174439Y020319
X174439Y010159
X199839Y022859
X169359Y022859
X202379Y012699
X202379Y005079
X169359Y007619
X197299Y022859
X164279Y022859
X192219Y022859
X169359Y010159
X189679Y020319
X194759Y002539
X161739Y020319
X189679Y015239
X187139Y007619
X194759Y005079
X184599Y010159
X184599Y007619
X204919Y015239
X182059Y010159
X179519Y017779
X207459Y020319
X176979Y017779
X174439Y017779
X204919Y012699
X174439Y007619
X199839Y002539
X171899Y022859
X199839Y012699
X171899Y005079
X202379Y002539
X166819Y017779
X197299Y020319
X164279Y020319
X192219Y020319
X166819Y005079
X187139Y010159
X164279Y002539
X192219Y017779
X187139Y005079
X197299Y010159
X182059Y020319
X184599Y005079
X184599Y002539
X179519Y015239
X207459Y005079
X176979Y015239
X207459Y015239
X174439Y002539
X187139Y002539
X169359Y005079
X204919Y005079
X171899Y010159
X202379Y015239
X169359Y017779
X199839Y020319
X197299Y012699
X164279Y012699
X192219Y012699
X169359Y015239
X189679Y017779
X164279Y005079
X194759Y020319
X161739Y017779
X187139Y015239
X197299Y015239
X182059Y015239
X182059Y007619
X179519Y010159
X179519Y012699
X207459Y010159
X176979Y012699
X207459Y002539
X171899Y020319
X164279Y010159
X204919Y002539
X166819Y022859
X199839Y015239
X166819Y020319
X199839Y017779
X164279Y015239
X197299Y005079
X166819Y002539
X192219Y002539
X164279Y007619
X189679Y012699
X161739Y012699
X035759Y045779
X002739Y038159
X028139Y045779
X038299Y035619
X023059Y040699
X025599Y050859
X017979Y050859
X017979Y038159
X045919Y045779
X017979Y033079
X045919Y035619
X012899Y040699
X012899Y043239
X043379Y050859
X012899Y045779
X040839Y035619
X007819Y038159
X040839Y038159
X017979Y035619
X038299Y030539
X007819Y040699
X030679Y050859
X030679Y038159
X002739Y050859
X033219Y035619
X002739Y035619
X033219Y043239
X035759Y035619
X023059Y030539
X025599Y048319
X017979Y048319
X020519Y035619
X045919Y038159
X017979Y030539
X015439Y043239
X012899Y035619
X043379Y048319
X010359Y040699
X043379Y038159
X007819Y043239
X038299Y045779
X010359Y030539
X035759Y050859
X010359Y048319
X030679Y030539
X028139Y050859
X002739Y043239
X030679Y033079
X002739Y033079
X033219Y038159
X035759Y040699
X023059Y050859
X023059Y033079
X048459Y045779
X025599Y045779
X045919Y048319
X020519Y050859
X045919Y050859
X020519Y033079
X015439Y050859
X015439Y040699
X015439Y033079
X043379Y045779
X005279Y045779
X043379Y035619
X007819Y035619
X040839Y033079
X035759Y043239
X012899Y030539
X028139Y040699
X035759Y038159
X030679Y035619
X033219Y033079
X028139Y048319
X025599Y040699
X023059Y045779
X025599Y043239
X048459Y040699
X020519Y048319
X048459Y050859
X020519Y030539
X002739Y030539
X048459Y035619
X015439Y048319
X015439Y038159
X040839Y050859
X010359Y050859
X043379Y040699
X043379Y033079
X010359Y035619
X038299Y050859
X005279Y050859
X033219Y050859
X010359Y038159
X030679Y048319
X035759Y030539
X002739Y048319
X030679Y043239
X028139Y035619
X035759Y033079
X025599Y038159
X025599Y035619
X045919Y043239
X023059Y038159
X020519Y045779
X048459Y048319
X017979Y045779
X015439Y045779
X045919Y040699
X015439Y035619
X040839Y030539
X012899Y050859
X040839Y040699
X012899Y033079
X043379Y030539
X007819Y045779
X038299Y048319
X005279Y048319
X033219Y048319
X007819Y033079
X028139Y038159
X005279Y030539
X033219Y045779
X028139Y033079
X038299Y038159
X023059Y048319
X025599Y033079
X025599Y030539
X020519Y043239
X048459Y033079
X017979Y043239
X048459Y043239
X015439Y030539
X028139Y030539
X010359Y033079
X045919Y033079
X012899Y038159
X043379Y043239
X010359Y045779
X040839Y048319
X038299Y040699
X005279Y040699
X033219Y040699
X010359Y043239
X030679Y045779
X005279Y033079
X035759Y048319
X002739Y045779
X028139Y043239
X038299Y043239
X023059Y043239
X023059Y035619
X020519Y038159
X020519Y040699
X048459Y038159
X017979Y040699
X048459Y030539
X012899Y048319
X005279Y038159
X045919Y030539
X007819Y050859
X040839Y043239
X007819Y048319
X040839Y045779
X005279Y043239
X038299Y033079
X007819Y030539
X033219Y030539
X005279Y035619
X030679Y040699
X002739Y040699
X063899Y040699
X066439Y040699
X068979Y040699
X071519Y040699
X074059Y040699
X076599Y040699
X079139Y040699
X081679Y040699
X084219Y040699
X086759Y040699
X089299Y040699
X091839Y040699
X094379Y040699
X096919Y040699
X099459Y040699
X063899Y055939
X066439Y055939
X068979Y055939
X071519Y055939
X074059Y055939
X076599Y055939
X079139Y055939
X081679Y055939
X084219Y055939
X086759Y055939
X089299Y055939
X091839Y055939
X094379Y055939
X096919Y055939
X099459Y055939
T12
X122595Y045608
X109588Y049379
X122595Y044338
X126715Y046474
X130797Y044807
X125999Y052000
X108716Y040475
X109387Y042941
X156595Y045608
X143588Y049379
X156595Y044338
X160715Y046474
X164797Y044807
X159999Y052000
X142716Y040475
X143387Y042941
T13
X106466Y053483
X106466Y050435
X106466Y047387
X106466Y044466
X106466Y041418
X140466Y053483
X140466Y050435
X140466Y047387
X140466Y044466
X140466Y041418
T14
X116716Y030474
X120716Y030474
X133716Y035474
X129716Y035474
X125716Y035474
X150716Y030474
X154716Y030474
X167716Y035474
X163716Y035474
X159716Y035474
T15
X002279Y067269
X003479Y067269
X004789Y067429
X006059Y067429
X003479Y068269
X002279Y068669
X004789Y068699
X006059Y068699
X003479Y069169
X002279Y069969
X003479Y069969
X004789Y069969
X006059Y069969
X003479Y070669
X002279Y071169
X004789Y071239
X006059Y071239
X003479Y071269
X003479Y071769
X003479Y072169
X002279Y072269
X004789Y072509
X006059Y072509
X002279Y073269
X004789Y073779
X006059Y073779
X002279Y074169
X002279Y074969
T16
X005709Y056904
X006409Y056904
X005709Y065254
X006409Y065254
T17
X002959Y058854
X003159Y058854
X002959Y063304
X003159Y063304
T18
X055974Y029409
X058819Y030793
X055974Y032177
X058819Y033562
X055974Y034946
X058819Y036330
X055974Y037714
X058819Y039099
X055974Y040483
X058819Y041867
X055974Y043252
X058819Y044636
X055974Y046020
X058819Y047405
X055974Y048789
X058819Y050173
X055974Y051558
X058819Y052942
X055974Y054326
X058819Y055710
X055974Y057095
X058819Y058479
X055974Y059863
X058819Y061248
X055974Y062632
M30