G04 EAGLE Gerber RS-274X export*
G75*
%MOMM*%
%FSLAX34Y34*%
%LPD*%
%INSolderpaste Top*%
%IPPOS*%
%AMOC8*
5,1,8,0,0,1.08239X$1,22.5*%
G01*
%ADD10R,0.800000X0.700000*%
%ADD11R,1.473200X0.355600*%
%ADD12R,1.420019X2.340000*%
%ADD13R,1.420019X2.240000*%
%ADD14R,1.420016X2.340000*%
%ADD15R,1.420016X2.240000*%
%ADD16R,1.420009X2.340000*%
%ADD17R,1.420009X2.240000*%
%ADD18R,1.778000X4.191000*%
%ADD19R,8.200000X1.100000*%
%ADD20R,2.500000X1.250000*%


D10*
X208280Y131200D03*
X208280Y148200D03*
X187960Y131200D03*
X187960Y148200D03*
X167640Y131200D03*
X167640Y148200D03*
X147320Y131200D03*
X147320Y148200D03*
X205740Y33900D03*
X205740Y16900D03*
X185420Y33900D03*
X185420Y16900D03*
X165100Y33900D03*
X165100Y16900D03*
X144780Y33900D03*
X144780Y16900D03*
D11*
X46462Y125620D03*
X46462Y119120D03*
X46462Y112620D03*
X46462Y106120D03*
X46462Y99620D03*
X46462Y93120D03*
X46462Y86620D03*
X46462Y80120D03*
X104882Y80120D03*
X104882Y86620D03*
X104882Y93120D03*
X104882Y99620D03*
X104882Y106120D03*
X104882Y112620D03*
X104882Y119120D03*
X104882Y125620D03*
X256941Y118000D03*
X256941Y111500D03*
X256941Y105000D03*
X256941Y98500D03*
X256941Y92000D03*
X256941Y85500D03*
X256941Y79000D03*
X256941Y72500D03*
X315361Y72500D03*
X315361Y79000D03*
X315361Y85500D03*
X315361Y92000D03*
X315361Y98500D03*
X315361Y105000D03*
X315361Y111500D03*
X315361Y118000D03*
D10*
X326608Y166760D03*
X326608Y183760D03*
X25400Y171840D03*
X25400Y188840D03*
D12*
X195580Y275210D03*
D13*
X195580Y236600D03*
D12*
X220980Y275210D03*
D13*
X220980Y236600D03*
D14*
X246380Y275210D03*
D15*
X246380Y236600D03*
D14*
X271780Y275210D03*
D15*
X271780Y236600D03*
D12*
X297180Y275210D03*
D13*
X297180Y236600D03*
D12*
X322580Y275210D03*
D13*
X322580Y236600D03*
D16*
X195580Y275210D03*
D17*
X195580Y236600D03*
D16*
X220980Y275210D03*
D17*
X220980Y236600D03*
D16*
X246380Y275210D03*
D17*
X246380Y236600D03*
D16*
X271780Y275210D03*
D17*
X271780Y236600D03*
D16*
X297180Y275210D03*
D17*
X297180Y236600D03*
D16*
X322580Y275210D03*
D17*
X322580Y236600D03*
D18*
X83820Y26670D03*
X53340Y26670D03*
X114300Y26670D03*
X281940Y26670D03*
X251460Y26670D03*
X312420Y26670D03*
D19*
X44540Y323200D03*
X44540Y228200D03*
D20*
X90040Y297660D03*
X90040Y272660D03*
X90040Y247660D03*
M02*
