G04 EAGLE Gerber RS-274X export*
G75*
%MOMM*%
%FSLAX34Y34*%
%LPD*%
%INSoldermask Top*%
%IPPOS*%
%AMOC8*
5,1,8,0,0,1.08239X$1,22.5*%
G01*
%ADD10R,1.003200X0.903200*%
%ADD11R,1.676400X0.558800*%
%ADD12R,1.521991X2.442009*%
%ADD13R,1.521991X2.341991*%
%ADD14R,1.521994X2.442009*%
%ADD15R,1.521994X2.341991*%
%ADD16R,1.981200X4.394200*%
%ADD17R,8.403200X1.303200*%
%ADD18R,2.703200X1.453200*%
%ADD19C,0.990600*%


D10*
X208280Y131200D03*
X208280Y148200D03*
X187960Y131200D03*
X187960Y148200D03*
X167640Y131200D03*
X167640Y148200D03*
X147320Y131200D03*
X147320Y148200D03*
X205740Y33900D03*
X205740Y16900D03*
X185420Y33900D03*
X185420Y16900D03*
X165100Y33900D03*
X165100Y16900D03*
X144780Y33900D03*
X144780Y16900D03*
D11*
X46462Y125620D03*
X46462Y119120D03*
X46462Y112620D03*
X46462Y106120D03*
X46462Y99620D03*
X46462Y93120D03*
X46462Y86620D03*
X46462Y80120D03*
X104882Y80120D03*
X104882Y86620D03*
X104882Y93120D03*
X104882Y99620D03*
X104882Y106120D03*
X104882Y112620D03*
X104882Y119120D03*
X104882Y125620D03*
X256941Y118000D03*
X256941Y111500D03*
X256941Y105000D03*
X256941Y98500D03*
X256941Y92000D03*
X256941Y85500D03*
X256941Y79000D03*
X256941Y72500D03*
X315361Y72500D03*
X315361Y79000D03*
X315361Y85500D03*
X315361Y92000D03*
X315361Y98500D03*
X315361Y105000D03*
X315361Y111500D03*
X315361Y118000D03*
D10*
X326608Y166760D03*
X326608Y183760D03*
X25400Y171840D03*
X25400Y188840D03*
D12*
X195580Y275210D03*
D13*
X195580Y236600D03*
D12*
X220980Y275210D03*
D13*
X220980Y236600D03*
D14*
X246380Y275210D03*
D15*
X246380Y236600D03*
D12*
X271780Y275210D03*
D13*
X271780Y236600D03*
D12*
X297180Y275210D03*
D13*
X297180Y236600D03*
D12*
X322580Y275210D03*
D13*
X322580Y236600D03*
D16*
X83820Y26670D03*
X53340Y26670D03*
X114300Y26670D03*
X281940Y26670D03*
X251460Y26670D03*
X312420Y26670D03*
D17*
X44540Y323200D03*
X44540Y228200D03*
D18*
X90040Y297660D03*
X90040Y272660D03*
X90040Y247660D03*
D19*
X117348Y144526D03*
X243713Y190500D03*
X104140Y144780D03*
X228600Y190500D03*
X48260Y142240D03*
X213360Y190500D03*
X236220Y106680D03*
X147320Y172720D03*
X15240Y111737D03*
X208280Y117827D03*
X15240Y98529D03*
X199390Y105889D03*
X15240Y85321D03*
X190500Y96491D03*
X15240Y72113D03*
X180340Y87093D03*
X172212Y78567D03*
X344170Y101427D03*
X164592Y69169D03*
X344170Y86526D03*
X154432Y59771D03*
X344170Y71624D03*
X146812Y50373D03*
X344170Y56723D03*
X286173Y142875D03*
X254000Y320040D03*
X308610Y142875D03*
X281940Y322580D03*
X261620Y142240D03*
X231140Y310007D03*
X233680Y142240D03*
X205740Y302260D03*
X33020Y142240D03*
X195580Y210820D03*
M02*
