G04 Layer: TopLayer*
G04 EasyEDA v6.3.53, 2020-06-26T16:53:54--4:00*
G04 395d111042f2402990e7a52cfaf045f1,10*
G04 Gerber Generator version 0.2*
G04 Scale: 100 percent, Rotated: No, Reflected: No *
G04 Dimensions in millimeters *
G04 leading zeros omitted , absolute positions ,3 integer and 3 decimal *
%FSLAX33Y33*%
%MOMM*%
G90*
G71D02*

%ADD10C,0.254000*%
%ADD11C,0.599999*%
%ADD12C,0.610006*%
%ADD13C,0.609600*%
%ADD14R,1.999996X0.635000*%
%ADD15R,5.999988X15.899994*%
%ADD16R,1.099998X0.999998*%
%ADD17R,2.999994X0.999998*%
%ADD18R,1.270000X1.651000*%
%ADD19R,1.899996X1.199998*%
%ADD20R,0.999998X1.550010*%
%ADD21C,1.999996*%
%ADD22C,2.999994*%

%LPD*%
G54D11*
G01X7116Y18839D02*
G01X8255Y18839D01*
G01X8763Y18331D01*
G01X8763Y9441D01*
G01X10730Y7474D01*
G01X21715Y7474D01*
G01X27797Y13475D02*
G01X29839Y13490D01*
G01X30716Y14367D01*
G01X30716Y22474D01*
G01X28874Y23475D01*
G01X7117Y20109D02*
G01X9146Y20109D01*
G01X9705Y19551D01*
G01X9705Y11405D01*
G01X10637Y10473D01*
G01X22717Y10473D01*
G01X25714Y7476D01*
G54D10*
G01X2466Y25482D02*
G01X4953Y22995D01*
G01X4953Y18550D01*
G01X5895Y17608D01*
G01X7117Y17569D01*
G54D11*
G01X20316Y15029D02*
G01X22000Y14999D01*
G01X23556Y13474D01*
G01X22000Y24000D02*
G01X21919Y23919D01*
G01X20316Y23919D01*
G54D10*
G01X20316Y25189D02*
G01X20316Y23919D01*
G01X7116Y25189D02*
G01X7115Y23919D01*
G01X2466Y13417D02*
G01X2807Y13759D01*
G01X7116Y13759D01*
G54D11*
G01X20316Y18839D02*
G01X22351Y18839D01*
G01X22716Y18474D01*
G01X20316Y20098D02*
G01X20355Y20058D01*
G01X25146Y20058D01*
G01X23716Y27474D02*
G01X24632Y26557D01*
G01X24632Y23474D01*
G01X20317Y22650D02*
G01X24632Y22650D01*
G01X24632Y23473D01*
G01X20316Y25189D02*
G01X21716Y26589D01*
G01X21716Y27474D01*
G01X25146Y16858D02*
G01X25196Y16807D01*
G01X26797Y16807D01*
G01X7515Y4473D02*
G01X9715Y4473D01*
G01X10716Y5474D01*
G01X15143Y5474D01*
G01X16715Y3902D01*
G01X16715Y2474D01*
G01X5716Y10474D02*
G01X7516Y8674D01*
G01X7516Y4474D01*
G01X5716Y10474D02*
G01X7116Y11874D01*
G01X7116Y13759D01*
G54D10*
G01X5120Y16299D02*
G01X7116Y16299D01*
G01X18595Y17608D02*
G01X18634Y17569D01*
G01X20316Y17569D01*
G01X5588Y21379D02*
G01X5588Y21379D01*
G01X7116Y21379D01*
G01X5120Y16299D02*
G01X4954Y16465D01*
G01X2466Y16465D01*
G01X18595Y16338D02*
G01X18633Y16300D01*
G01X20317Y16300D01*
G54D11*
G01X20314Y21379D02*
G01X26832Y21379D01*
G01X28717Y19375D01*
G54D10*
G01X7116Y16299D02*
G01X6941Y16474D01*
G54D11*
G01X27798Y13474D02*
G01X28716Y14391D01*
G01X28716Y17574D01*
G01X1915Y4474D02*
G01X3915Y2474D01*
G01X12715Y2474D01*
G01X5387Y14941D02*
G01X5474Y15029D01*
G01X7116Y15029D01*
G01X3716Y10474D02*
G01X3716Y11474D01*
G01X4716Y12475D01*
G01X3716Y10474D02*
G01X1915Y8674D01*
G01X1915Y4474D01*
G54D10*
G01X18595Y16338D02*
G01X17653Y17280D01*
G01X17653Y27999D01*
G01X8562Y27999D01*
G01X8562Y22688D01*
G01X7117Y22649D01*
G54D14*
G01X7116Y25189D03*
G01X7116Y23919D03*
G01X7116Y22649D03*
G01X7116Y21379D03*
G01X7116Y20109D03*
G01X7116Y18839D03*
G01X7116Y17569D03*
G01X7116Y16299D03*
G01X7116Y15029D03*
G01X7116Y13759D03*
G01X20315Y13759D03*
G01X20315Y15029D03*
G01X20315Y16299D03*
G01X20315Y17569D03*
G01X20315Y18839D03*
G01X20315Y20109D03*
G01X20315Y21379D03*
G01X20315Y22649D03*
G01X20315Y23919D03*
G01X20315Y25189D03*
G54D15*
G01X13716Y19474D03*
G54D16*
G01X28715Y19374D03*
G01X28715Y17574D03*
G54D17*
G01X1915Y4475D03*
G01X7516Y4475D03*
G54D18*
G01X23556Y13475D03*
G01X27799Y13475D03*
G01X28874Y23474D03*
G01X24632Y23474D03*
G54D19*
G01X25146Y20058D03*
G01X25146Y16858D03*
G54D20*
G01X21715Y27474D03*
G01X23715Y27474D03*
G01X3716Y10475D03*
G01X5716Y10475D03*
G54D12*
G01X18595Y17608D03*
G54D13*
G01X5588Y21379D03*
G01X18595Y16338D03*
G01X22715Y18474D03*
G01X26797Y16807D03*
G01X21999Y24000D03*
G01X4716Y12475D03*
G01X5387Y14941D03*
G54D21*
G01X1966Y25482D02*
G01X2966Y25482D01*
G01X1966Y22434D02*
G01X2966Y22434D01*
G01X1966Y19386D02*
G01X2966Y19386D01*
G01X1966Y16465D02*
G01X2966Y16465D01*
G01X1966Y13417D02*
G01X2966Y13417D01*
G54D22*
G01X12716Y2974D02*
G01X12716Y1974D01*
G01X16715Y2974D02*
G01X16715Y1974D01*
G01X29715Y7974D02*
G01X29715Y6974D01*
G01X25715Y7974D02*
G01X25715Y6974D01*
G01X21715Y7974D02*
G01X21715Y6974D01*
M00*
M02*
