G04 Layer: TopSolderMaskLayer*
G04 EasyEDA v6.3.53, 2020-06-26T16:53:54--4:00*
G04 395d111042f2402990e7a52cfaf045f1,10*
G04 Gerber Generator version 0.2*
G04 Scale: 100 percent, Rotated: No, Reflected: No *
G04 Dimensions in millimeters *
G04 leading zeros omitted , absolute positions ,3 integer and 3 decimal *
%FSLAX33Y33*%
%MOMM*%
G90*
G71D02*

%ADD26C,2.203196*%
%ADD27C,3.203194*%
%ADD29R,6.203188X16.103194*%

%LPD*%
G54D26*
G01X1966Y25482D02*
G01X2966Y25482D01*
G01X1966Y22434D02*
G01X2966Y22434D01*
G01X1966Y19386D02*
G01X2966Y19386D01*
G01X1966Y16465D02*
G01X2966Y16465D01*
G01X1966Y13417D02*
G01X2966Y13417D01*
G54D27*
G01X12716Y2974D02*
G01X12716Y1974D01*
G01X16715Y2974D02*
G01X16715Y1974D01*
G01X29715Y7974D02*
G01X29715Y6974D01*
G01X25715Y7974D02*
G01X25715Y6974D01*
G01X21715Y7974D02*
G01X21715Y6974D01*
G36*
G01X6014Y24770D02*
G01X6014Y25609D01*
G01X8216Y25609D01*
G01X8216Y24770D01*
G01X6014Y24770D01*
G37*
G36*
G01X6014Y23500D02*
G01X6014Y24339D01*
G01X8216Y24339D01*
G01X8216Y23500D01*
G01X6014Y23500D01*
G37*
G36*
G01X6014Y22230D02*
G01X6014Y23069D01*
G01X8216Y23069D01*
G01X8216Y22230D01*
G01X6014Y22230D01*
G37*
G36*
G01X6014Y20960D02*
G01X6014Y21799D01*
G01X8216Y21799D01*
G01X8216Y20960D01*
G01X6014Y20960D01*
G37*
G36*
G01X6014Y19690D02*
G01X6014Y20529D01*
G01X8216Y20529D01*
G01X8216Y19690D01*
G01X6014Y19690D01*
G37*
G36*
G01X6014Y18420D02*
G01X6014Y19259D01*
G01X8216Y19259D01*
G01X8216Y18420D01*
G01X6014Y18420D01*
G37*
G36*
G01X6014Y17150D02*
G01X6014Y17989D01*
G01X8216Y17989D01*
G01X8216Y17150D01*
G01X6014Y17150D01*
G37*
G36*
G01X6014Y15880D02*
G01X6014Y16719D01*
G01X8216Y16719D01*
G01X8216Y15880D01*
G01X6014Y15880D01*
G37*
G36*
G01X6014Y14610D02*
G01X6014Y15449D01*
G01X8216Y15449D01*
G01X8216Y14610D01*
G01X6014Y14610D01*
G37*
G36*
G01X6014Y13340D02*
G01X6014Y14179D01*
G01X8216Y14179D01*
G01X8216Y13340D01*
G01X6014Y13340D01*
G37*
G36*
G01X19215Y13340D02*
G01X19215Y14179D01*
G01X21417Y14179D01*
G01X21417Y13340D01*
G01X19215Y13340D01*
G37*
G36*
G01X19215Y14610D02*
G01X19215Y15449D01*
G01X21417Y15449D01*
G01X21417Y14610D01*
G01X19215Y14610D01*
G37*
G36*
G01X19215Y15880D02*
G01X19215Y16719D01*
G01X21417Y16719D01*
G01X21417Y15880D01*
G01X19215Y15880D01*
G37*
G36*
G01X19215Y17150D02*
G01X19215Y17989D01*
G01X21417Y17989D01*
G01X21417Y17150D01*
G01X19215Y17150D01*
G37*
G36*
G01X19215Y18420D02*
G01X19215Y19259D01*
G01X21417Y19259D01*
G01X21417Y18420D01*
G01X19215Y18420D01*
G37*
G36*
G01X19215Y19690D02*
G01X19215Y20529D01*
G01X21417Y20529D01*
G01X21417Y19690D01*
G01X19215Y19690D01*
G37*
G36*
G01X19215Y20960D02*
G01X19215Y21799D01*
G01X21417Y21799D01*
G01X21417Y20960D01*
G01X19215Y20960D01*
G37*
G36*
G01X19215Y22230D02*
G01X19215Y23069D01*
G01X21417Y23069D01*
G01X21417Y22230D01*
G01X19215Y22230D01*
G37*
G36*
G01X19215Y23500D02*
G01X19215Y24339D01*
G01X21417Y24339D01*
G01X21417Y23500D01*
G01X19215Y23500D01*
G37*
G36*
G01X19215Y24770D02*
G01X19215Y25609D01*
G01X21417Y25609D01*
G01X21417Y24770D01*
G01X19215Y24770D01*
G37*
G54D29*
G01X13716Y19474D03*
G36*
G01X28064Y18773D02*
G01X28064Y19975D01*
G01X29367Y19975D01*
G01X29367Y18773D01*
G01X28064Y18773D01*
G37*
G36*
G01X28064Y16973D02*
G01X28064Y18177D01*
G01X29367Y18177D01*
G01X29367Y16973D01*
G01X28064Y16973D01*
G37*
G36*
G01X314Y3874D02*
G01X314Y5075D01*
G01X3517Y5075D01*
G01X3517Y3874D01*
G01X314Y3874D01*
G37*
G36*
G01X5915Y3874D02*
G01X5915Y5075D01*
G01X9118Y5075D01*
G01X9118Y3874D01*
G01X5915Y3874D01*
G37*
G36*
G01X22819Y12548D02*
G01X22819Y14402D01*
G01X24292Y14402D01*
G01X24292Y12548D01*
G01X22819Y12548D01*
G37*
G36*
G01X27061Y12548D02*
G01X27061Y14402D01*
G01X28534Y14402D01*
G01X28534Y12548D01*
G01X27061Y12548D01*
G37*
G36*
G01X28138Y22548D02*
G01X28138Y24402D01*
G01X29611Y24402D01*
G01X29611Y22548D01*
G01X28138Y22548D01*
G37*
G36*
G01X23896Y22548D02*
G01X23896Y24402D01*
G01X25369Y24402D01*
G01X25369Y22548D01*
G01X23896Y22548D01*
G37*
G36*
G01X24094Y19358D02*
G01X24094Y20760D01*
G01X26197Y20760D01*
G01X26197Y19358D01*
G01X24094Y19358D01*
G37*
G36*
G01X24094Y16157D02*
G01X24094Y17559D01*
G01X26197Y17559D01*
G01X26197Y16157D01*
G01X24094Y16157D01*
G37*
G36*
G01X21115Y26597D02*
G01X21115Y28352D01*
G01X22316Y28352D01*
G01X22316Y26597D01*
G01X21115Y26597D01*
G37*
G36*
G01X23114Y26597D02*
G01X23114Y28352D01*
G01X24317Y28352D01*
G01X24317Y26597D01*
G01X23114Y26597D01*
G37*
G36*
G01X3114Y9599D02*
G01X3114Y11352D01*
G01X4318Y11352D01*
G01X4318Y9599D01*
G01X3114Y9599D01*
G37*
G36*
G01X5115Y9599D02*
G01X5115Y11352D01*
G01X6316Y11352D01*
G01X6316Y9599D01*
G01X5115Y9599D01*
G37*
M00*
M02*
