G04 Layer: TopSilkLayer*
G04 EasyEDA v6.3.53, 2020-06-26T16:53:54--4:00*
G04 395d111042f2402990e7a52cfaf045f1,10*
G04 Gerber Generator version 0.2*
G04 Scale: 100 percent, Rotated: No, Reflected: No *
G04 Dimensions in millimeters *
G04 leading zeros omitted , absolute positions ,3 integer and 3 decimal *
%FSLAX33Y33*%
%MOMM*%
G90*
G71D02*

%ADD10C,0.254000*%
%ADD23C,0.127000*%
%ADD24C,0.203200*%
%ADD25C,0.152400*%

%LPD*%
G54D10*
G01X19215Y27424D02*
G01X19215Y25715D01*
G01X19215Y24664D02*
G01X19215Y24445D01*
G01X19215Y23394D02*
G01X19215Y23175D01*
G01X19215Y22124D02*
G01X19215Y21905D01*
G01X19215Y20854D02*
G01X19215Y20635D01*
G01X19215Y19584D02*
G01X19215Y19365D01*
G01X19215Y18314D02*
G01X19215Y18095D01*
G01X19215Y17044D02*
G01X19215Y16825D01*
G01X19215Y15774D02*
G01X19215Y15555D01*
G01X19215Y14504D02*
G01X19215Y14285D01*
G01X19215Y13234D02*
G01X19215Y11524D01*
G01X8216Y27424D02*
G01X8216Y25715D01*
G01X8216Y24664D02*
G01X8216Y24445D01*
G01X8216Y23394D02*
G01X8216Y23175D01*
G01X8216Y22124D02*
G01X8216Y21905D01*
G01X8216Y20854D02*
G01X8216Y20635D01*
G01X8216Y19584D02*
G01X8216Y19365D01*
G01X8216Y18314D02*
G01X8216Y18095D01*
G01X8216Y17044D02*
G01X8216Y16825D01*
G01X8216Y15774D02*
G01X8216Y15555D01*
G01X8216Y14504D02*
G01X8216Y14285D01*
G01X8216Y13234D02*
G01X8216Y11524D01*
G01X8216Y11524D02*
G01X10484Y11524D01*
G01X16947Y11524D02*
G01X19215Y11524D01*
G01X8216Y27424D02*
G01X10484Y27424D01*
G01X16947Y27424D02*
G01X19215Y27424D01*
G01X29316Y16824D02*
G01X28116Y16824D01*
G01X29516Y18874D02*
G01X29516Y19874D01*
G01X27915Y18874D02*
G01X27915Y19874D01*
G01X29516Y18074D02*
G01X29516Y17074D01*
G01X27915Y18074D02*
G01X27915Y17074D01*
G01X29316Y20125D02*
G01X28116Y20125D01*
G01X29516Y19925D02*
G01X29516Y19874D01*
G01X27915Y19924D02*
G01X27915Y19874D01*
G01X29516Y17024D02*
G01X29516Y17074D01*
G01X27915Y17025D02*
G01X27915Y17074D01*
G01X8018Y1175D02*
G01X2719Y1175D01*
G01X2719Y7774D02*
G01X8018Y7774D01*
G01X1419Y2475D02*
G01X2719Y1175D01*
G01X1419Y6473D02*
G01X2719Y7774D01*
G01X1419Y6473D02*
G01X1419Y5206D01*
G01X1419Y3743D02*
G01X1419Y2475D01*
G01X8018Y7774D02*
G01X8018Y5206D01*
G01X8018Y3743D02*
G01X8018Y1175D01*
G54D23*
G01X25030Y13474D02*
G01X26300Y13474D01*
G01X25284Y13474D02*
G01X25284Y13093D01*
G01X25284Y13093D02*
G01X26046Y13474D01*
G01X26046Y13474D02*
G01X26046Y13093D01*
G01X25284Y13474D02*
G01X25284Y13855D01*
G01X25284Y13855D02*
G01X26046Y13474D01*
G01X26046Y13474D02*
G01X26046Y13855D01*
G54D10*
G01X27664Y14724D02*
G01X27664Y12225D01*
G01X27664Y12225D02*
G01X23666Y12225D01*
G01X23666Y12225D02*
G01X23666Y14724D01*
G01X23666Y14724D02*
G01X27664Y14724D01*
G01X26521Y14719D02*
G01X26521Y12230D01*
G54D23*
G01X27401Y23474D02*
G01X26131Y23474D01*
G01X27147Y23474D02*
G01X27147Y23855D01*
G01X27147Y23855D02*
G01X26385Y23474D01*
G01X26385Y23474D02*
G01X26385Y23855D01*
G01X27147Y23474D02*
G01X27147Y23093D01*
G01X27147Y23093D02*
G01X26385Y23474D01*
G01X26385Y23474D02*
G01X26385Y23093D01*
G54D10*
G01X24767Y22225D02*
G01X24767Y24724D01*
G01X24767Y24724D02*
G01X28765Y24724D01*
G01X28765Y24724D02*
G01X28765Y22225D01*
G01X28765Y22225D02*
G01X24767Y22225D01*
G01X25910Y22230D02*
G01X25910Y24719D01*
G01X26145Y15958D02*
G01X24146Y15958D01*
G01X26345Y19458D02*
G01X26345Y20658D01*
G01X23946Y19458D02*
G01X23946Y20658D01*
G01X26345Y17458D02*
G01X26345Y16258D01*
G01X23946Y17458D02*
G01X23946Y16258D01*
G01X26145Y20958D02*
G01X24146Y20958D01*
G01X26345Y20758D02*
G01X26345Y20658D01*
G01X23946Y20758D02*
G01X23946Y20658D01*
G01X26345Y16158D02*
G01X26345Y16258D01*
G01X23946Y16158D02*
G01X23946Y16258D01*
G01X24466Y28275D02*
G01X24466Y26674D01*
G01X20965Y28275D02*
G01X20965Y26674D01*
G01X23216Y26434D02*
G01X24265Y26434D01*
G01X23216Y28514D02*
G01X24265Y28514D01*
G01X22216Y26434D02*
G01X21166Y26434D01*
G01X22216Y28514D02*
G01X21166Y28514D01*
G01X20965Y28294D02*
G01X20965Y28275D01*
G01X20965Y28314D02*
G01X20965Y28275D01*
G01X20965Y26634D02*
G01X20965Y26674D01*
G01X24466Y28314D02*
G01X24466Y28275D01*
G01X24466Y26635D02*
G01X24466Y26674D01*
G01X6466Y11275D02*
G01X6466Y9674D01*
G01X2965Y11275D02*
G01X2966Y9674D01*
G01X5216Y9434D02*
G01X6266Y9434D01*
G01X5216Y11514D02*
G01X6266Y11514D01*
G01X4216Y9434D02*
G01X3166Y9434D01*
G01X4216Y11514D02*
G01X3166Y11514D01*
G01X2965Y11294D02*
G01X2965Y11275D01*
G01X2965Y11314D02*
G01X2965Y11275D01*
G01X2966Y9635D02*
G01X2966Y9674D01*
G01X6466Y11314D02*
G01X6466Y11275D01*
G01X6466Y9635D02*
G01X6466Y9674D01*
G54D24*
G01X16319Y6381D02*
G01X16134Y6290D01*
G01X15948Y6105D01*
G01X15857Y5919D01*
G01X15857Y5551D01*
G01X15948Y5365D01*
G01X16134Y5183D01*
G01X16319Y5089D01*
G01X16596Y4997D01*
G01X17056Y4997D01*
G01X17335Y5089D01*
G01X17518Y5183D01*
G01X17703Y5365D01*
G01X17795Y5551D01*
G01X17795Y5919D01*
G01X17703Y6105D01*
G01X17518Y6290D01*
G01X17335Y6381D01*
G01X17056Y6381D01*
G01X17056Y5919D02*
G01X17056Y6381D01*
G01X15857Y6991D02*
G01X17795Y6991D01*
G01X15857Y6991D02*
G01X17795Y8284D01*
G01X15857Y8284D02*
G01X17795Y8284D01*
G01X15857Y8893D02*
G01X17795Y8893D01*
G01X15857Y8893D02*
G01X15857Y9541D01*
G01X15948Y9818D01*
G01X16134Y10003D01*
G01X16319Y10095D01*
G01X16596Y10186D01*
G01X17056Y10186D01*
G01X17335Y10095D01*
G01X17518Y10003D01*
G01X17703Y9818D01*
G01X17795Y9541D01*
G01X17795Y8893D01*
G01X12174Y4869D02*
G01X14112Y5608D01*
G01X12174Y6347D02*
G01X14112Y5608D01*
G01X12636Y8344D02*
G01X12451Y8250D01*
G01X12265Y8067D01*
G01X12174Y7881D01*
G01X12174Y7510D01*
G01X12265Y7328D01*
G01X12451Y7142D01*
G01X12636Y7051D01*
G01X12913Y6957D01*
G01X13373Y6957D01*
G01X13652Y7051D01*
G01X13835Y7142D01*
G01X14020Y7328D01*
G01X14112Y7510D01*
G01X14112Y7881D01*
G01X14020Y8067D01*
G01X13835Y8250D01*
G01X13652Y8344D01*
G01X12636Y10338D02*
G01X12451Y10246D01*
G01X12265Y10061D01*
G01X12174Y9875D01*
G01X12174Y9507D01*
G01X12265Y9322D01*
G01X12451Y9136D01*
G01X12636Y9045D01*
G01X12913Y8953D01*
G01X13373Y8953D01*
G01X13652Y9045D01*
G01X13835Y9136D01*
G01X14020Y9322D01*
G01X14112Y9507D01*
G01X14112Y9875D01*
G01X14020Y10061D01*
G01X13835Y10246D01*
G01X13652Y10338D01*
G01X28666Y1474D02*
G01X30604Y1474D01*
G01X28666Y1474D02*
G01X30604Y2213D01*
G01X28666Y2953D02*
G01X30604Y2213D01*
G01X28666Y2953D02*
G01X30604Y2953D01*
G01X29128Y4947D02*
G01X28943Y4855D01*
G01X28757Y4670D01*
G01X28666Y4487D01*
G01X28666Y4116D01*
G01X28757Y3931D01*
G01X28943Y3748D01*
G01X29128Y3654D01*
G01X29405Y3562D01*
G01X29865Y3562D01*
G01X30144Y3654D01*
G01X30327Y3748D01*
G01X30512Y3931D01*
G01X30604Y4116D01*
G01X30604Y4487D01*
G01X30512Y4670D01*
G01X30327Y4855D01*
G01X30144Y4947D01*
G01X24666Y1474D02*
G01X26604Y1474D01*
G01X24666Y1474D02*
G01X26604Y2213D01*
G01X24666Y2952D02*
G01X26604Y2213D01*
G01X24666Y2952D02*
G01X26604Y2952D01*
G01X24666Y3562D02*
G01X26604Y3562D01*
G01X24666Y3562D02*
G01X24666Y4392D01*
G01X24757Y4669D01*
G01X24849Y4763D01*
G01X25034Y4855D01*
G01X25220Y4855D01*
G01X25405Y4763D01*
G01X25496Y4669D01*
G01X25588Y4392D01*
G01X25588Y3562D02*
G01X25588Y4392D01*
G01X25682Y4669D01*
G01X25773Y4763D01*
G01X25959Y4855D01*
G01X26236Y4855D01*
G01X26421Y4763D01*
G01X26512Y4669D01*
G01X26604Y4392D01*
G01X26604Y3562D01*
G01X20666Y1474D02*
G01X22604Y1474D01*
G01X20666Y1474D02*
G01X22604Y2213D01*
G01X20666Y2953D02*
G01X22604Y2213D01*
G01X20666Y2953D02*
G01X22604Y2953D01*
G01X20666Y4301D02*
G01X22604Y3562D01*
G01X20666Y4301D02*
G01X22604Y5041D01*
G01X21959Y3839D02*
G01X21959Y4764D01*
G54D25*
G01X13080Y28629D02*
G01X13080Y27849D01*
G01X13131Y27694D01*
G01X13235Y27590D01*
G01X13393Y27539D01*
G01X13497Y27539D01*
G01X13652Y27590D01*
G01X13756Y27694D01*
G01X13807Y27849D01*
G01X13807Y28629D01*
G01X14149Y28420D02*
G01X14254Y28474D01*
G01X14411Y28629D01*
G01X14411Y27539D01*
G01X30865Y18441D02*
G01X30970Y18494D01*
G01X31074Y18599D01*
G01X31124Y18700D01*
G01X31124Y18908D01*
G01X31074Y19013D01*
G01X30970Y19117D01*
G01X30865Y19170D01*
G01X30708Y19221D01*
G01X30449Y19221D01*
G01X30294Y19170D01*
G01X30190Y19117D01*
G01X30086Y19013D01*
G01X30035Y18908D01*
G01X30035Y18700D01*
G01X30086Y18599D01*
G01X30190Y18494D01*
G01X30294Y18441D01*
G01X30865Y18047D02*
G01X30916Y18047D01*
G01X31020Y17994D01*
G01X31074Y17943D01*
G01X31124Y17839D01*
G01X31124Y17631D01*
G01X31074Y17527D01*
G01X31020Y17476D01*
G01X30916Y17423D01*
G01X30812Y17423D01*
G01X30708Y17476D01*
G01X30553Y17580D01*
G01X30035Y18098D01*
G01X30035Y17372D01*
G01X4970Y8685D02*
G01X4917Y8789D01*
G01X4813Y8893D01*
G01X4711Y8944D01*
G01X4503Y8944D01*
G01X4399Y8893D01*
G01X4295Y8789D01*
G01X4241Y8685D01*
G01X4191Y8527D01*
G01X4191Y8268D01*
G01X4241Y8113D01*
G01X4295Y8009D01*
G01X4399Y7905D01*
G01X4503Y7854D01*
G01X4711Y7854D01*
G01X4813Y7905D01*
G01X4917Y8009D01*
G01X4970Y8113D01*
G01X5831Y8944D02*
G01X5313Y8217D01*
G01X6093Y8217D01*
G01X5831Y8944D02*
G01X5831Y7854D01*
G01X24892Y11865D02*
G01X24892Y10775D01*
G01X24892Y11865D02*
G01X25255Y11865D01*
G01X25412Y11814D01*
G01X25514Y11710D01*
G01X25567Y11606D01*
G01X25618Y11448D01*
G01X25618Y11189D01*
G01X25567Y11034D01*
G01X25514Y10930D01*
G01X25412Y10826D01*
G01X25255Y10775D01*
G01X24892Y10775D01*
G01X25961Y11657D02*
G01X26065Y11710D01*
G01X26222Y11865D01*
G01X26222Y10775D01*
G01X26162Y26089D02*
G01X26162Y24999D01*
G01X26162Y26089D02*
G01X26525Y26089D01*
G01X26682Y26038D01*
G01X26784Y25934D01*
G01X26837Y25830D01*
G01X26888Y25672D01*
G01X26888Y25413D01*
G01X26837Y25258D01*
G01X26784Y25154D01*
G01X26682Y25050D01*
G01X26525Y24999D01*
G01X26162Y24999D01*
G01X27284Y25830D02*
G01X27284Y25881D01*
G01X27335Y25985D01*
G01X27388Y26038D01*
G01X27492Y26089D01*
G01X27698Y26089D01*
G01X27802Y26038D01*
G01X27856Y25985D01*
G01X27907Y25881D01*
G01X27907Y25776D01*
G01X27856Y25672D01*
G01X27752Y25517D01*
G01X27231Y24999D01*
G01X27960Y24999D01*
G01X27310Y18441D02*
G01X27414Y18494D01*
G01X27518Y18598D01*
G01X27569Y18700D01*
G01X27569Y18908D01*
G01X27518Y19012D01*
G01X27414Y19116D01*
G01X27310Y19170D01*
G01X27152Y19221D01*
G01X26893Y19221D01*
G01X26738Y19170D01*
G01X26634Y19116D01*
G01X26530Y19012D01*
G01X26479Y18908D01*
G01X26479Y18700D01*
G01X26530Y18598D01*
G01X26634Y18494D01*
G01X26738Y18441D01*
G01X27360Y18098D02*
G01X27414Y17994D01*
G01X27569Y17839D01*
G01X26479Y17839D01*
G01X25544Y27862D02*
G01X25491Y27966D01*
G01X25387Y28070D01*
G01X25285Y28121D01*
G01X25077Y28121D01*
G01X24973Y28070D01*
G01X24869Y27966D01*
G01X24815Y27862D01*
G01X24765Y27704D01*
G01X24765Y27445D01*
G01X24815Y27290D01*
G01X24869Y27186D01*
G01X24973Y27082D01*
G01X25077Y27031D01*
G01X25285Y27031D01*
G01X25387Y27082D01*
G01X25491Y27186D01*
G01X25544Y27290D01*
G01X25991Y28121D02*
G01X26563Y28121D01*
G01X26251Y27704D01*
G01X26405Y27704D01*
G01X26510Y27653D01*
G01X26563Y27603D01*
G01X26614Y27445D01*
G01X26614Y27341D01*
G01X26563Y27186D01*
G01X26459Y27082D01*
G01X26301Y27031D01*
G01X26146Y27031D01*
G01X25991Y27082D01*
G01X25938Y27133D01*
G01X25887Y27237D01*
G01X4716Y12622D02*
G01X4663Y12726D01*
G01X4559Y12830D01*
G01X4457Y12881D01*
G01X4249Y12881D01*
G01X4145Y12830D01*
G01X4041Y12726D01*
G01X3987Y12622D01*
G01X3937Y12464D01*
G01X3937Y12205D01*
G01X3987Y12050D01*
G01X4041Y11946D01*
G01X4145Y11842D01*
G01X4249Y11791D01*
G01X4457Y11791D01*
G01X4559Y11842D01*
G01X4663Y11946D01*
G01X4716Y12050D01*
G01X5681Y12881D02*
G01X5163Y12881D01*
G01X5110Y12414D01*
G01X5163Y12464D01*
G01X5318Y12518D01*
G01X5473Y12518D01*
G01X5631Y12464D01*
G01X5735Y12363D01*
G01X5786Y12205D01*
G01X5786Y12101D01*
G01X5735Y11946D01*
G01X5631Y11842D01*
G01X5473Y11791D01*
G01X5318Y11791D01*
G01X5163Y11842D01*
G01X5110Y11893D01*
G01X5059Y11997D01*
G54D10*
G75*
G01X29316Y20125D02*
G02X29516Y19925I0J-200D01*
G01*
G75*
G01X28116Y20125D02*
G03X27916Y19925I0J-200D01*
G01*
G75*
G01X29316Y16825D02*
G03X29516Y17025I0J200D01*
G01*
G75*
G01X28116Y16825D02*
G02X27916Y17025I0J200D01*
G01*
G75*
G01X7616Y5275D02*
G03X1816Y5275I-2900J-800D01*
G01*
G75*
G01X1816Y3675D02*
G03X7616Y3675I2900J800D01*
G01*
G75*
G01X26146Y20959D02*
G02X26346Y20759I0J-200D01*
G01*
G75*
G01X24146Y20959D02*
G03X23946Y20759I0J-200D01*
G01*
G75*
G01X26146Y15959D02*
G03X26346Y16159I0J200D01*
G01*
G75*
G01X24146Y15959D02*
G02X23946Y16159I0J200D01*
G01*
G75*
G01X21166Y28515D02*
G03X20966Y28315I0J-200D01*
G01*
G75*
G01X21166Y26435D02*
G02X20966Y26635I0J200D01*
G01*
G75*
G01X24266Y28515D02*
G02X24466Y28315I0J-200D01*
G01*
G75*
G01X24266Y26435D02*
G03X24466Y26635I0J200D01*
G01*
G75*
G01X3166Y11515D02*
G03X2966Y11315I0J-200D01*
G01*
G75*
G01X3166Y9435D02*
G02X2966Y9635I0J200D01*
G01*
G75*
G01X6266Y11515D02*
G02X6466Y11315I0J-200D01*
G01*
G75*
G01X6266Y9435D02*
G03X6466Y9635I0J200D01*
G01*
G75*
G01X7418Y26358D02*
G03X7418Y26358I-407J0D01*
G01*

%LPD*%
G36*
G01X5816Y7274D02*
G01X5216Y7374D01*
G01X5216Y1474D01*
G01X5716Y1674D01*
G01X6516Y2074D01*
G01X6916Y2374D01*
G01X7116Y2774D01*
G01X7416Y3074D01*
G01X7516Y3474D01*
G01X7616Y3674D01*
G01X5816Y3674D01*
G01X5816Y5274D01*
G01X7616Y5274D01*
G01X7416Y5874D01*
G01X7216Y6274D01*
G01X6916Y6574D01*
G01X6616Y6774D01*
G01X6316Y7074D01*
G01X5816Y7274D01*
G37*
M00*
M02*
