;Layer: Drill PTH
;EasyEDA v6.4.0, 2020-07-06T20:42:06--4:00
;ceb930e8192849dcbdd75014d79c76d5,,10
;Gerber Generator version 0.2
M48
METRIC,LZ,000.000
;Holesize 1 = 0.305 METRIC
T01C0.305
;Holesize 2 = 0.600 METRIC
T02C0.600
;Holesize 3 = 0.701 METRIC
T03C0.701
;Holesize 4 = 0.751 METRIC
T04C0.751
;Holesize 5 = 0.900 METRIC
T05C0.900
;Holesize 6 = 0.966 METRIC
T06C0.966
;Holesize 7 = 1.000 METRIC
T07C1.000
;Holesize 8 = 1.016 METRIC
T08C1.016
;Holesize 9 = 1.270 METRIC
T09C1.270
%
G05
G90
T01
X+068732Y+036449
X+065684Y+036449
X+094259Y+098044
X+097307Y+098044
T02
X+034289Y+097472
X+034289Y+088972
X+034670Y+077914
X+034670Y+069414
X+034543Y+059245
X+034543Y+050745
X+034442Y+041148
X+034442Y+032647
X+034823Y+021590
X+034823Y+013089
X+039395Y+033655
X+047895Y+033655
X+076860Y+004953
X+076860Y+013453
X+076479Y+023241
X+076479Y+031741
X+076352Y+041910
X+076352Y+050410
X+076098Y+060325
X+076098Y+068825
X+076098Y+078867
X+076098Y+087367
X+101879Y+103124
X+093379Y+103124
X+082321Y+102743
X+073821Y+102743
X+063652Y+102870
X+055152Y+102870
X+045554Y+102971
X+037054Y+102971
X+025996Y+102590
X+017496Y+102590
T03
X+034670Y+086169
X+034670Y+084167
X+034670Y+082169
X+035051Y+066611
X+035051Y+064609
X+035051Y+062611
X+034924Y+047942
X+034924Y+045940
X+034924Y+043942
X+034823Y+029845
X+034823Y+027843
X+034823Y+025844
X+035204Y+010287
X+035204Y+008285
X+035204Y+006286
X+050571Y+033782
X+052572Y+033782
X+054571Y+033782
X+076479Y+016256
X+076479Y+018257
X+076479Y+020256
X+076098Y+034544
X+076098Y+036545
X+076098Y+038544
X+075971Y+053213
X+075971Y+055214
X+075971Y+057213
X+075717Y+071628
X+075717Y+073629
X+075717Y+075628
X+075717Y+090170
X+075717Y+092171
X+075717Y+094170
X+090576Y+102743
X+088574Y+102743
X+086575Y+102743
X+071018Y+102362
X+069016Y+102362
X+067017Y+102362
X+052349Y+102489
X+050347Y+102489
X+048348Y+102489
X+034251Y+102590
X+032250Y+102590
X+030251Y+102590
X+014693Y+102209
X+012692Y+102209
X+010693Y+102209
T04
X+068351Y+086487
X+068351Y+084201
X+068351Y+081661
X+068351Y+079121
X+068351Y+076581
X+068351Y+074041
X+068351Y+071501
X+068351Y+068961
X+068351Y+066421
X+068351Y+063881
X+068351Y+061341
X+068351Y+058801
X+068351Y+056261
X+068351Y+053721
X+068351Y+051181
X+042951Y+084201
X+042951Y+081661
X+042951Y+079121
X+042951Y+076581
X+042951Y+074041
X+042951Y+071501
X+042951Y+068961
X+042951Y+066421
X+042951Y+063881
X+042951Y+061341
X+042951Y+058801
X+042951Y+056261
X+042951Y+053721
X+042951Y+051181
X+042951Y+086741
T05
X+051968Y+064262
X+058470Y+064262
T06
X+028955Y+082105
X+014757Y+088104
X+028955Y+094104
X+016756Y+094104
X+016756Y+082105
X+028955Y+064071
X+014757Y+070070
X+028955Y+076070
X+016756Y+076070
X+016756Y+064071
X+028955Y+045910
X+014757Y+051909
X+028955Y+057909
X+016756Y+057909
X+016756Y+045910
X+028854Y+028194
X+014655Y+034193
X+028854Y+040192
X+016654Y+040192
X+016654Y+028194
X+028828Y+010223
X+014630Y+016222
X+028828Y+022222
X+016629Y+022222
X+016629Y+010223
X+083464Y+092329
X+097662Y+086329
X+083464Y+080330
X+095664Y+080330
X+095664Y+092329
X+083845Y+074295
X+098043Y+068295
X+083845Y+062296
X+096045Y+062296
X+096045Y+074295
X+083718Y+055245
X+097916Y+049245
X+083718Y+043246
X+095918Y+043246
X+095918Y+055245
X+083718Y+037211
X+097916Y+031211
X+083718Y+025212
X+095918Y+025212
X+095918Y+037211
X+083337Y+019304
X+097535Y+013304
X+083337Y+007305
X+095537Y+007305
X+095537Y+019304
X+053238Y+027559
X+047238Y+013360
X+041239Y+027559
X+041239Y+015359
X+053238Y+015359
X+086512Y+108458
X+092511Y+122656
X+098511Y+108458
X+098511Y+120657
X+086512Y+120657
X+068478Y+108458
X+074477Y+122656
X+080477Y+108458
X+080477Y+120657
X+068478Y+120657
X+050317Y+108458
X+056316Y+122656
X+062316Y+108458
X+062316Y+120657
X+050317Y+120657
X+032537Y+108585
X+038536Y+122783
X+044536Y+108585
X+044536Y+120784
X+032537Y+120784
X+014630Y+108585
X+020629Y+122783
X+026629Y+108585
X+026629Y+120784
X+014630Y+120784
T07
X+065288Y+004699G85X+063286Y+004699
X+065288Y+010795G85X+063286Y+010795
X+068859Y+006746G85X+068859Y+008747
T08
X+009397Y+093408
X+009397Y+083248
X+008381Y+075247
X+008381Y+065087
X+008254Y+057086
X+008254Y+046926
X+008889Y+039052
X+008889Y+028892
X+008254Y+021272
X+008254Y+011112
X+103149Y+081026
X+103149Y+091186
X+103530Y+063246
X+103530Y+073406
X+103403Y+044069
X+103403Y+054229
X+103530Y+025908
X+103530Y+036068
X+103276Y+008255
X+103276Y+018415
X+042189Y+007874
X+052349Y+007874
X+097688Y+128397
X+087528Y+128397
X+079527Y+129413
X+069367Y+129413
X+061366Y+129540
X+051206Y+129540
X+043332Y+128905
X+033172Y+128905
X+025552Y+129540
X+015392Y+129540
T09
X+003301Y+091376
X+003301Y+086042
X+002920Y+072834
X+002920Y+067500
X+003047Y+054673
X+003047Y+049339
X+002920Y+037020
X+002920Y+031686
X+002793Y+019113
X+002793Y+013779
X+108864Y+016637
X+108864Y+011303
X+108991Y+033909
X+108991Y+028575
X+108737Y+052197
X+108737Y+046863
X+108864Y+071247
X+108864Y+065913
X+108610Y+089154
X+108610Y+083820
X+050444Y+002667
X+045110Y+002667
X+095656Y+134493
X+090322Y+134493
X+077114Y+134874
X+071780Y+134874
X+058953Y+134747
X+053619Y+134747
X+041300Y+134874
X+035966Y+134874
X+023393Y+135001
X+018059Y+135001
M30
