G04 Layer: BottomLayer*
G04 EasyEDA v6.4.0, 2020-07-06T20:42:06--4:00*
G04 ceb930e8192849dcbdd75014d79c76d5,10*
G04 Gerber Generator version 0.2*
G04 Scale: 100 percent, Rotated: No, Reflected: No *
G04 Dimensions in millimeters *
G04 leading zeros omitted , absolute positions ,3 integer and 3 decimal *
%FSLAX33Y33*%
%MOMM*%
G90*
G71D02*

%ADD11C,0.499999*%
%ADD12C,0.999998*%
%ADD13C,0.609600*%
%ADD14C,3.810000*%
%ADD15C,1.949958*%
%ADD18R,3.657600X2.032000*%
%ADD20C,2.499995*%
%ADD21C,2.032000*%
%ADD22R,1.999996X1.999996*%
%ADD23C,1.879600*%
%ADD24C,1.999996*%

%LPD*%
G54D11*
G01X94259Y98044D02*
G01X97307Y98044D01*
G01X42951Y53721D02*
G01X50571Y53721D01*
G01X51841Y54991D01*
G01X51841Y64135D01*
G01X51968Y64262D01*
G54D12*
G01X71018Y102362D02*
G01X71018Y105283D01*
G01X72288Y106553D01*
G01X72288Y117983D01*
G01X74447Y120142D01*
G01X79961Y120142D01*
G01X80477Y120657D01*
G01X52349Y102489D02*
G01X52349Y104394D01*
G01X53619Y105664D01*
G01X53619Y118745D01*
G01X55016Y120142D01*
G01X61800Y120142D01*
G01X62316Y120657D01*
G01X44536Y120784D02*
G01X44536Y117281D01*
G01X42570Y115316D01*
G01X37617Y115316D01*
G01X35458Y113157D01*
G01X35458Y107188D01*
G01X34188Y105918D01*
G01X34251Y105854D01*
G01X34251Y102590D01*
G54D11*
G01X35204Y6286D02*
G01X36664Y6286D01*
G01X37617Y7239D01*
G01X37617Y12573D01*
G01X36728Y13462D01*
G01X36728Y26089D01*
G01X34823Y25844D02*
G01X36410Y25844D01*
G01X37363Y26797D01*
G01X37363Y32639D01*
G01X36728Y33274D01*
G01X36728Y42545D01*
G01X37236Y43053D01*
G01X40030Y43053D01*
G01X41173Y44196D01*
G01X41173Y45593D01*
G01X34924Y43942D02*
G01X39522Y43942D01*
G01X41173Y45593D01*
G01X41173Y51943D01*
G01X42951Y53721D01*
G01X35051Y62611D02*
G01X38633Y62611D01*
G01X40284Y60960D01*
G01X40284Y55245D01*
G01X41808Y53721D01*
G01X42951Y53721D01*
G01X34670Y82169D02*
G01X39395Y82169D01*
G01X41173Y80391D01*
G01X41173Y55499D01*
G01X42951Y53721D01*
G54D12*
G01X16756Y57909D02*
G01X16756Y50833D01*
G01X19456Y48133D01*
G01X19646Y47942D01*
G01X34924Y47942D01*
G01X16756Y76070D02*
G01X16756Y69883D01*
G01X19837Y66802D01*
G01X20027Y66611D01*
G01X35051Y66611D01*
G01X16756Y94104D02*
G01X16756Y88425D01*
G01X18821Y86360D01*
G01X19011Y86169D01*
G01X34670Y86169D01*
G54D11*
G01X10693Y102209D02*
G01X10693Y101346D01*
G01X11836Y100203D01*
G01X28854Y100203D01*
G01X29870Y99187D01*
G01X31394Y99187D01*
G01X30251Y102590D02*
G01X30251Y100330D01*
G01X31394Y99187D01*
G01X67589Y99187D01*
G01X48348Y102488D02*
G01X48348Y101536D01*
G01X49301Y100584D01*
G01X66192Y100584D01*
G01X67589Y99187D01*
G01X72288Y99187D01*
G01X73050Y98425D01*
G01X73050Y92565D01*
G01X67017Y102361D02*
G01X67017Y101028D01*
G01X67970Y100076D01*
G01X74828Y100076D01*
G01X75590Y99314D01*
G01X75717Y99187D01*
G01X75717Y94170D01*
G01X75717Y94170D02*
G01X85432Y94170D01*
G01X86512Y95250D01*
G01X86575Y95313D01*
G01X86575Y102742D01*
G01X54571Y33782D02*
G01X64668Y33782D01*
G01X75717Y94170D02*
G01X74383Y94170D01*
G01X73050Y92837D01*
G01X73050Y74295D01*
G01X75717Y75628D02*
G01X74383Y75628D01*
G01X73050Y74295D01*
G01X73050Y55753D01*
G01X75971Y57213D02*
G01X74510Y57213D01*
G01X73050Y55753D01*
G01X73050Y37592D01*
G01X76098Y38544D02*
G01X74002Y38544D01*
G01X73050Y37592D01*
G01X73050Y32893D01*
G01X72288Y32131D01*
G01X69621Y32131D01*
G01X64668Y32105D01*
G01X64668Y20269D02*
G01X69303Y20256D01*
G01X76479Y20256D01*
G54D12*
G01X14693Y102209D02*
G01X14693Y104203D01*
G01X16281Y105791D01*
G01X17297Y105791D01*
G01X18313Y106807D01*
G01X18313Y118872D01*
G01X19710Y120269D01*
G01X26113Y120269D01*
G01X26629Y120784D01*
G01X90576Y102743D02*
G01X90576Y112605D01*
G01X90576Y118618D01*
G01X91973Y120015D01*
G01X97868Y120015D01*
G01X98511Y120657D01*
G01X95664Y80330D02*
G01X95664Y88638D01*
G01X94132Y90170D01*
G01X75717Y90170D01*
G01X96045Y62296D02*
G01X96045Y65171D01*
G01X96045Y70096D01*
G01X94513Y71628D01*
G01X75844Y71628D01*
G01X95918Y43246D02*
G01X95918Y51681D01*
G01X94386Y53213D01*
G01X75971Y53213D01*
G01X95918Y25212D02*
G01X95918Y33012D01*
G01X94386Y34544D01*
G01X76098Y34544D01*
G01X95910Y7366D02*
G01X95910Y11498D01*
G01X90406Y16316D01*
G01X76852Y16316D01*
G54D11*
G01X65684Y36449D02*
G01X68732Y36449D01*
G54D12*
G01X16629Y40129D02*
G01X16629Y34704D01*
G01X17805Y33528D01*
G01X22875Y33528D01*
G01X31013Y33528D01*
G01X32156Y32385D01*
G01X32156Y30861D01*
G01X33299Y29718D01*
G01X33426Y29845D01*
G01X34823Y29845D01*
G01X16629Y22222D02*
G01X16629Y17432D01*
G01X17805Y16256D01*
G01X30759Y16256D01*
G01X32410Y14605D01*
G01X32410Y11430D01*
G01X33553Y10287D01*
G01X35204Y10287D01*
G01X50571Y33782D02*
G01X50571Y17145D01*
G01X49047Y15621D01*
G01X41501Y15621D01*
G01X41239Y15359D01*
G54D24*
G01X47238Y13360D02*
G01X47238Y4795D01*
G01X45110Y2667D01*
G01X53238Y27559D02*
G01X53238Y20574D01*
G01X56159Y17653D01*
G01X56159Y5334D01*
G01X53492Y2667D01*
G01X50444Y2667D01*
G54D12*
G01X41239Y15359D02*
G01X41239Y8823D01*
G01X42189Y7874D01*
G54D24*
G01X14757Y88104D02*
G01X6573Y88104D01*
G01X3302Y91376D01*
G01X28956Y82105D02*
G01X21170Y82105D01*
G01X18440Y79375D01*
G01X5613Y79375D01*
G01X3200Y81788D01*
G01X3200Y85940D01*
G01X3302Y86042D01*
G01X14757Y70070D02*
G01X5684Y70070D01*
G01X2921Y72834D01*
G01X28956Y64071D02*
G01X20916Y64071D01*
G01X18186Y61341D01*
G01X5105Y61341D01*
G01X2692Y63754D01*
G01X2692Y67271D01*
G01X2921Y67500D01*
G01X14757Y51909D02*
G01X5811Y51909D01*
G01X3048Y54673D01*
G01X28956Y45910D02*
G01X20662Y45910D01*
G01X17678Y42926D01*
G01X5613Y42926D01*
G01X3073Y45466D01*
G01X3073Y49314D01*
G01X3048Y49339D01*
G01X14630Y34129D02*
G01X5811Y34129D01*
G01X2921Y37020D01*
G01X28829Y28130D02*
G01X21170Y28130D01*
G01X18694Y25654D01*
G01X5105Y25654D01*
G01X2692Y28067D01*
G01X2692Y31457D01*
G01X2921Y31686D01*
G01X14630Y16222D02*
G01X5684Y16222D01*
G01X2794Y19113D01*
G01X28829Y10223D02*
G01X21297Y10223D01*
G01X18440Y7366D01*
G01X5613Y7366D01*
G01X2946Y10033D01*
G01X2946Y13627D01*
G01X2794Y13779D01*
G01X97535Y13304D02*
G01X106862Y13304D01*
G01X108864Y11303D01*
G01X83337Y19304D02*
G01X90195Y19304D01*
G01X92989Y22098D01*
G01X105943Y22098D01*
G01X108483Y19558D01*
G01X108483Y17018D01*
G01X108864Y16637D01*
G01X97916Y31211D02*
G01X106354Y31211D01*
G01X108991Y28575D01*
G01X83718Y37211D02*
G01X90957Y37211D01*
G01X93878Y40132D01*
G01X105943Y40132D01*
G01X108864Y37211D01*
G01X108864Y34036D01*
G01X108991Y33909D01*
G01X97916Y49245D02*
G01X106354Y49245D01*
G01X108737Y46863D01*
G01X83718Y55245D02*
G01X90576Y55245D01*
G01X93624Y58293D01*
G01X105181Y58293D01*
G01X108737Y54737D01*
G01X108737Y52197D01*
G01X98043Y68295D02*
G01X106481Y68295D01*
G01X108864Y65913D01*
G01X83845Y74295D02*
G01X91846Y74295D01*
G01X94513Y76962D01*
G01X106705Y76962D01*
G01X108991Y74676D01*
G01X108991Y71374D01*
G01X108864Y71247D01*
G01X97662Y86329D02*
G01X106100Y86329D01*
G01X108610Y83820D01*
G01X83464Y92329D02*
G01X91338Y92329D01*
G01X94513Y95504D01*
G01X105054Y95504D01*
G01X108356Y92202D01*
G01X108356Y89408D01*
G01X108610Y89154D01*
G01X92511Y122656D02*
G01X92511Y131348D01*
G01X95656Y134493D01*
G01X86512Y108458D02*
G01X86512Y115316D01*
G01X83464Y118364D01*
G01X83464Y131445D01*
G01X86766Y134747D01*
G01X90068Y134747D01*
G01X90322Y134493D01*
G01X77114Y134874D02*
G01X77114Y134112D01*
G01X75082Y132080D01*
G01X75082Y123261D01*
G01X74477Y122656D01*
G01X68478Y108458D02*
G01X68478Y115189D01*
G01X65430Y118237D01*
G01X65430Y131953D01*
G01X68351Y134874D01*
G01X71780Y134874D01*
G01X56316Y122656D02*
G01X56316Y132110D01*
G01X58953Y134747D01*
G01X50317Y108458D02*
G01X50317Y116332D01*
G01X47523Y119126D01*
G01X47523Y131699D01*
G01X50444Y134620D01*
G01X53492Y134620D01*
G01X53619Y134747D01*
G01X38536Y122783D02*
G01X38536Y132110D01*
G01X41300Y134874D01*
G01X32537Y108585D02*
G01X32537Y116078D01*
G01X29616Y118999D01*
G01X29616Y131699D01*
G01X32918Y135001D01*
G01X35839Y135001D01*
G01X35966Y134874D01*
G01X23393Y135001D02*
G01X20599Y132207D01*
G01X20599Y122814D01*
G01X20629Y122783D01*
G01X18059Y135001D02*
G01X14630Y135001D01*
G01X11709Y132080D01*
G01X11709Y119888D01*
G01X14630Y116967D01*
G01X14630Y108585D01*
G54D12*
G01X95664Y80330D02*
G01X102453Y80330D01*
G01X103149Y81026D01*
G01X96045Y62296D02*
G01X102580Y62296D01*
G01X103530Y63246D01*
G01X95918Y43246D02*
G01X102580Y43246D01*
G01X103403Y44069D01*
G01X95918Y25212D02*
G01X102834Y25212D01*
G01X103530Y25908D01*
G01X95537Y7305D02*
G01X102326Y7305D01*
G01X103276Y8255D01*
G01X16629Y40129D02*
G01X9966Y40129D01*
G01X8890Y39052D01*
G01X16629Y22222D02*
G01X9204Y22222D01*
G01X8255Y21272D01*
G01X16756Y57909D02*
G01X9077Y57909D01*
G01X8255Y57086D01*
G01X16756Y76070D02*
G01X9204Y76070D01*
G01X8382Y75247D01*
G01X16756Y94104D02*
G01X10093Y94104D01*
G01X9398Y93408D01*
G01X26629Y120784D02*
G01X26629Y128463D01*
G01X25552Y129540D01*
G01X44536Y120784D02*
G01X44536Y127701D01*
G01X43332Y128905D01*
G01X62316Y120657D02*
G01X62316Y128590D01*
G01X61366Y129540D01*
G01X80477Y120657D02*
G01X80477Y128463D01*
G01X79527Y129413D01*
G01X98511Y120657D02*
G01X98511Y127574D01*
G01X97688Y128397D01*
G01X64668Y16383D02*
G01X64668Y52197D01*
G01X66065Y53594D01*
G01X68224Y53594D01*
G01X68351Y53721D01*
G01X64668Y16383D02*
G01X64668Y15113D01*
G01X62636Y13081D01*
G01X60350Y13081D01*
G01X58826Y11557D01*
G01X58826Y6477D01*
G01X60604Y4699D01*
G01X64287Y4699D01*
G01X68859Y7747D02*
G01X65303Y7747D01*
G01X64287Y6731D01*
G01X64287Y4699D01*
G54D14*
G01X3302Y91376D03*
G01X3302Y86042D03*
G01X2921Y72834D03*
G01X2921Y67500D03*
G01X3048Y54673D03*
G01X3048Y49339D03*
G01X2921Y37020D03*
G01X2921Y31686D03*
G01X2794Y19113D03*
G01X2794Y13779D03*
G01X108864Y16637D03*
G01X108864Y11303D03*
G01X108991Y33909D03*
G01X108991Y28575D03*
G01X108737Y52197D03*
G01X108737Y46863D03*
G01X108864Y71247D03*
G01X108864Y65913D03*
G01X108610Y89154D03*
G01X108610Y83820D03*
G01X50444Y2667D03*
G01X45110Y2667D03*
G01X95656Y134493D03*
G01X90322Y134493D03*
G01X77114Y134874D03*
G01X71780Y134874D03*
G01X58953Y134747D03*
G01X53619Y134747D03*
G01X41300Y134874D03*
G01X35966Y134874D03*
G01X23393Y135001D03*
G01X18059Y135001D03*
G54D15*
G01X68351Y86487D03*
G01X68351Y84201D03*
G01X68351Y81661D03*
G01X68351Y79121D03*
G01X68351Y76581D03*
G01X68351Y74041D03*
G01X68351Y71501D03*
G01X68351Y68961D03*
G01X68351Y66421D03*
G01X68351Y63881D03*
G01X68351Y61341D03*
G01X68351Y58801D03*
G01X68351Y56261D03*
G01X68351Y53721D03*
G01X68351Y51181D03*
G01X42951Y84201D03*
G01X42951Y81661D03*
G01X42951Y79121D03*
G01X42951Y76581D03*
G01X42951Y74041D03*
G01X42951Y71501D03*
G01X42951Y68961D03*
G01X42951Y66421D03*
G01X42951Y63881D03*
G01X42951Y61341D03*
G01X42951Y58801D03*
G01X42951Y56261D03*
G01X42951Y53721D03*
G36*
G01X42052Y50205D02*
G01X42052Y52156D01*
G01X43850Y52156D01*
G01X43850Y50205D01*
G01X42052Y50205D01*
G37*
G01X42951Y86741D03*
G36*
G01X62288Y3683D02*
G01X62288Y5715D01*
G01X66286Y5715D01*
G01X66286Y3683D01*
G01X62288Y3683D01*
G37*
G54D18*
G01X64287Y10795D03*
G36*
G01X67843Y5918D02*
G01X67843Y9575D01*
G01X69875Y9575D01*
G01X69875Y5918D01*
G01X67843Y5918D01*
G37*
G54D20*
G01X28956Y82105D03*
G01X14757Y88104D03*
G01X28956Y94104D03*
G01X16756Y94104D03*
G01X16756Y82105D03*
G54D21*
G01X9398Y93408D03*
G01X9398Y83248D03*
G54D20*
G01X28956Y64071D03*
G01X14757Y70070D03*
G01X28956Y76070D03*
G01X16756Y76070D03*
G01X16756Y64071D03*
G54D21*
G01X8382Y75247D03*
G01X8382Y65087D03*
G54D20*
G01X28956Y45910D03*
G01X14757Y51909D03*
G01X28956Y57909D03*
G01X16756Y57909D03*
G01X16756Y45910D03*
G54D21*
G01X8255Y57086D03*
G01X8255Y46926D03*
G54D20*
G01X28854Y28194D03*
G01X14655Y34193D03*
G01X28854Y40192D03*
G01X16654Y40192D03*
G01X16654Y28194D03*
G54D21*
G01X8890Y39052D03*
G01X8890Y28892D03*
G54D20*
G01X28829Y10223D03*
G01X14630Y16222D03*
G01X28829Y22222D03*
G01X16629Y22222D03*
G01X16629Y10223D03*
G54D21*
G01X8255Y21272D03*
G01X8255Y11112D03*
G54D20*
G01X83464Y92329D03*
G01X97662Y86329D03*
G01X83464Y80330D03*
G01X95664Y80330D03*
G01X95664Y92329D03*
G54D21*
G01X103149Y81026D03*
G01X103149Y91186D03*
G54D20*
G01X83845Y74295D03*
G01X98043Y68295D03*
G01X83845Y62296D03*
G01X96045Y62296D03*
G01X96045Y74295D03*
G54D21*
G01X103530Y63246D03*
G01X103530Y73406D03*
G54D20*
G01X83718Y55245D03*
G01X97916Y49245D03*
G01X83718Y43246D03*
G01X95918Y43246D03*
G01X95918Y55245D03*
G54D21*
G01X103403Y44069D03*
G01X103403Y54229D03*
G54D20*
G01X83718Y37211D03*
G01X97916Y31211D03*
G01X83718Y25212D03*
G01X95918Y25212D03*
G01X95918Y37211D03*
G54D21*
G01X103530Y25908D03*
G01X103530Y36068D03*
G54D20*
G01X83337Y19304D03*
G01X97535Y13304D03*
G01X83337Y7305D03*
G01X95537Y7305D03*
G01X95537Y19304D03*
G54D21*
G01X103276Y8255D03*
G01X103276Y18415D03*
G54D20*
G01X53238Y27559D03*
G01X47238Y13360D03*
G01X41239Y27559D03*
G01X41239Y15359D03*
G01X53238Y15359D03*
G54D21*
G01X42189Y7874D03*
G01X52349Y7874D03*
G54D22*
G01X34289Y97472D03*
G01X34289Y88972D03*
G01X34670Y77914D03*
G01X34670Y69414D03*
G01X34543Y59245D03*
G01X34543Y50745D03*
G01X34442Y41148D03*
G01X34442Y32647D03*
G01X34823Y21590D03*
G01X34823Y13089D03*
G01X39395Y33655D03*
G01X47895Y33655D03*
G01X76860Y4953D03*
G01X76860Y13453D03*
G01X76479Y23241D03*
G01X76479Y31741D03*
G01X76352Y41910D03*
G01X76352Y50410D03*
G01X76098Y60325D03*
G01X76098Y68825D03*
G01X76098Y78867D03*
G01X76098Y87367D03*
G54D20*
G01X86512Y108458D03*
G01X92511Y122656D03*
G01X98511Y108458D03*
G01X98511Y120657D03*
G01X86512Y120657D03*
G54D21*
G01X97688Y128397D03*
G01X87528Y128397D03*
G54D20*
G01X68478Y108458D03*
G01X74477Y122656D03*
G01X80477Y108458D03*
G01X80477Y120657D03*
G01X68478Y120657D03*
G54D21*
G01X79527Y129413D03*
G01X69367Y129413D03*
G54D20*
G01X50317Y108458D03*
G01X56316Y122656D03*
G01X62316Y108458D03*
G01X62316Y120657D03*
G01X50317Y120657D03*
G54D21*
G01X61366Y129540D03*
G01X51206Y129540D03*
G54D20*
G01X32537Y108585D03*
G01X38536Y122783D03*
G01X44536Y108585D03*
G01X44536Y120784D03*
G01X32537Y120784D03*
G54D21*
G01X43332Y128905D03*
G01X33172Y128905D03*
G54D20*
G01X14630Y108585D03*
G01X20629Y122783D03*
G01X26629Y108585D03*
G01X26629Y120784D03*
G01X14630Y120784D03*
G54D21*
G01X25552Y129540D03*
G01X15392Y129540D03*
G54D22*
G01X101879Y103124D03*
G01X93379Y103124D03*
G01X82321Y102743D03*
G01X73821Y102743D03*
G01X63652Y102870D03*
G01X55152Y102870D03*
G01X45554Y102971D03*
G01X37054Y102971D03*
G01X25996Y102590D03*
G01X17496Y102590D03*
G54D23*
G01X51968Y64262D03*
G01X58470Y64262D03*
G54D13*
G01X68732Y36449D03*
G01X65684Y36449D03*
G01X94259Y98044D03*
G01X97307Y98044D03*
G54D12*
G01X34171Y86169D02*
G01X35170Y86169D01*
G01X34171Y84167D02*
G01X35170Y84167D01*
G01X34171Y82169D02*
G01X35170Y82169D01*
G01X34552Y66611D02*
G01X35551Y66611D01*
G01X34552Y64609D02*
G01X35551Y64609D01*
G01X34552Y62611D02*
G01X35551Y62611D01*
G01X34425Y47942D02*
G01X35424Y47942D01*
G01X34425Y45940D02*
G01X35424Y45940D01*
G01X34425Y43942D02*
G01X35424Y43942D01*
G01X34323Y29845D02*
G01X35323Y29845D01*
G01X34323Y27843D02*
G01X35323Y27843D01*
G01X34323Y25844D02*
G01X35323Y25844D01*
G01X34704Y10287D02*
G01X35704Y10287D01*
G01X34704Y8285D02*
G01X35704Y8285D01*
G01X34704Y6286D02*
G01X35704Y6286D01*
G01X50571Y33282D02*
G01X50571Y34281D01*
G01X52572Y33282D02*
G01X52572Y34281D01*
G01X54571Y33282D02*
G01X54571Y34281D01*
G01X76979Y16256D02*
G01X75979Y16256D01*
G01X76979Y18257D02*
G01X75979Y18257D01*
G01X76979Y20256D02*
G01X75979Y20256D01*
G01X76598Y34544D02*
G01X75598Y34544D01*
G01X76598Y36545D02*
G01X75598Y36545D01*
G01X76598Y38544D02*
G01X75598Y38544D01*
G01X76471Y53213D02*
G01X75471Y53213D01*
G01X76471Y55214D02*
G01X75471Y55214D01*
G01X76471Y57213D02*
G01X75471Y57213D01*
G01X76217Y71628D02*
G01X75217Y71628D01*
G01X76217Y73629D02*
G01X75217Y73629D01*
G01X76217Y75628D02*
G01X75217Y75628D01*
G01X76217Y90170D02*
G01X75217Y90170D01*
G01X76217Y92171D02*
G01X75217Y92171D01*
G01X76217Y94170D02*
G01X75217Y94170D01*
G01X90576Y103242D02*
G01X90576Y102243D01*
G01X88574Y103242D02*
G01X88574Y102243D01*
G01X86575Y103242D02*
G01X86575Y102243D01*
G01X71018Y102861D02*
G01X71018Y101862D01*
G01X69016Y102861D02*
G01X69016Y101862D01*
G01X67017Y102861D02*
G01X67017Y101862D01*
G01X52349Y102988D02*
G01X52349Y101989D01*
G01X50347Y102988D02*
G01X50347Y101989D01*
G01X48348Y102988D02*
G01X48348Y101989D01*
G01X34251Y103090D02*
G01X34251Y102090D01*
G01X32250Y103090D02*
G01X32250Y102090D01*
G01X30251Y103090D02*
G01X30251Y102090D01*
G01X14693Y102709D02*
G01X14693Y101709D01*
G01X12692Y102709D02*
G01X12692Y101709D01*
G01X10693Y102709D02*
G01X10693Y101709D01*
M00*
M02*
