G04 Layer: TopSilkLayer*
G04 EasyEDA v6.4.0, 2020-07-06T20:42:06--4:00*
G04 ceb930e8192849dcbdd75014d79c76d5,10*
G04 Gerber Generator version 0.2*
G04 Scale: 100 percent, Rotated: No, Reflected: No *
G04 Dimensions in millimeters *
G04 leading zeros omitted , absolute positions ,3 integer and 3 decimal *
%FSLAX33Y33*%
%MOMM*%
G90*
G71D02*

%ADD10C,0.254000*%
%ADD25C,0.508000*%
%ADD26C,0.203200*%
%ADD27C,0.200000*%
%ADD28C,0.228600*%
%ADD29C,0.152400*%
%ADD30C,0.177800*%

%LPD*%

%LPD*%
G36*
G01X55862Y82135D02*
G01X55779Y82140D01*
G01X55702Y82127D01*
G01X55628Y82095D01*
G01X55557Y82044D01*
G01X55465Y81975D01*
G01X56649Y80797D01*
G01X57812Y79626D01*
G01X57104Y78900D01*
G01X56382Y78181D01*
G01X56603Y77960D01*
G01X56654Y77910D01*
G01X56688Y77877D01*
G01X56700Y77866D01*
G01X56707Y77870D01*
G01X56721Y77881D01*
G01X56743Y77901D01*
G01X56771Y77927D01*
G01X56807Y77961D01*
G01X56848Y78000D01*
G01X56895Y78046D01*
G01X56948Y78096D01*
G01X57005Y78152D01*
G01X57067Y78213D01*
G01X57275Y78421D01*
G01X57350Y78497D01*
G01X57428Y78576D01*
G01X57508Y78658D01*
G01X57704Y78855D01*
G01X57790Y78941D01*
G01X57867Y79019D01*
G01X57937Y79090D01*
G01X58000Y79154D01*
G01X58056Y79211D01*
G01X58106Y79263D01*
G01X58149Y79309D01*
G01X58186Y79350D01*
G01X58219Y79387D01*
G01X58246Y79420D01*
G01X58269Y79449D01*
G01X58287Y79476D01*
G01X58302Y79499D01*
G01X58313Y79521D01*
G01X58320Y79541D01*
G01X58326Y79560D01*
G01X58328Y79578D01*
G01X58329Y79596D01*
G01X58328Y79615D01*
G01X58325Y79634D01*
G01X58322Y79654D01*
G01X58318Y79677D01*
G01X58316Y79684D01*
G01X58313Y79693D01*
G01X58308Y79703D01*
G01X58302Y79714D01*
G01X58294Y79726D01*
G01X58284Y79740D01*
G01X58272Y79757D01*
G01X58257Y79775D01*
G01X58239Y79796D01*
G01X58219Y79819D01*
G01X58195Y79845D01*
G01X58168Y79874D01*
G01X58138Y79907D01*
G01X58104Y79943D01*
G01X58065Y79983D01*
G01X58023Y80026D01*
G01X57977Y80074D01*
G01X57925Y80126D01*
G01X57869Y80183D01*
G01X57808Y80245D01*
G01X57670Y80383D01*
G01X57592Y80460D01*
G01X57510Y80543D01*
G01X57420Y80632D01*
G01X57325Y80727D01*
G01X57223Y80828D01*
G01X56905Y81146D01*
G01X56811Y81241D01*
G01X56722Y81330D01*
G01X56426Y81627D01*
G01X56364Y81688D01*
G01X56308Y81743D01*
G01X56256Y81795D01*
G01X56209Y81841D01*
G01X56166Y81883D01*
G01X56127Y81921D01*
G01X56091Y81955D01*
G01X56059Y81985D01*
G01X56030Y82012D01*
G01X56004Y82035D01*
G01X55982Y82056D01*
G01X55961Y82074D01*
G01X55942Y82088D01*
G01X55927Y82100D01*
G01X55913Y82111D01*
G01X55900Y82119D01*
G01X55889Y82125D01*
G01X55879Y82130D01*
G01X55870Y82133D01*
G01X55862Y82135D01*
G37*

%LPD*%
G36*
G01X56382Y80708D02*
G01X55298Y81793D01*
G01X55138Y81633D01*
G01X54978Y81475D01*
G01X55907Y80548D01*
G01X56855Y79613D01*
G01X56128Y78897D01*
G01X55412Y78181D01*
G01X55811Y77772D01*
G01X56222Y77373D01*
G01X56382Y77520D01*
G01X56537Y77675D01*
G01X56286Y77929D01*
G01X56032Y78181D01*
G01X56758Y78900D01*
G01X57475Y79626D01*
G01X56382Y80708D01*
G37*

%LPD*%
G36*
G01X55651Y80457D02*
G01X54800Y81300D01*
G01X54640Y81142D01*
G01X54482Y80987D01*
G01X55171Y80294D01*
G01X55874Y79601D01*
G01X55432Y79169D01*
G01X55342Y79077D01*
G01X55265Y78999D01*
G01X55200Y78932D01*
G01X55147Y78876D01*
G01X55105Y78830D01*
G01X55071Y78791D01*
G01X55046Y78760D01*
G01X55028Y78734D01*
G01X55015Y78713D01*
G01X55008Y78695D01*
G01X55004Y78679D01*
G01X55003Y78663D01*
G01X54998Y78610D01*
G01X54982Y78562D01*
G01X54958Y78519D01*
G01X54925Y78482D01*
G01X54884Y78452D01*
G01X54837Y78431D01*
G01X54784Y78416D01*
G01X54726Y78412D01*
G01X54683Y78415D01*
G01X54646Y78426D01*
G01X54610Y78448D01*
G01X54569Y78486D01*
G01X54539Y78522D01*
G01X54519Y78556D01*
G01X54507Y78594D01*
G01X54503Y78643D01*
G01X54507Y78700D01*
G01X54520Y78751D01*
G01X54541Y78796D01*
G01X54570Y78834D01*
G01X54606Y78864D01*
G01X54650Y78886D01*
G01X54699Y78900D01*
G01X54754Y78905D01*
G01X54777Y78907D01*
G01X54802Y78916D01*
G01X54831Y78934D01*
G01X54869Y78964D01*
G01X54919Y79007D01*
G01X54983Y79069D01*
G01X55067Y79149D01*
G01X55171Y79253D01*
G01X55524Y79601D01*
G01X54914Y80205D01*
G01X54312Y80810D01*
G01X54165Y80665D01*
G01X54025Y80523D01*
G01X54269Y80279D01*
G01X54341Y80205D01*
G01X54400Y80148D01*
G01X54446Y80104D01*
G01X54484Y80072D01*
G01X54515Y80051D01*
G01X54540Y80038D01*
G01X54563Y80031D01*
G01X54587Y80030D01*
G01X54638Y80025D01*
G01X54684Y80010D01*
G01X54725Y79987D01*
G01X54760Y79958D01*
G01X54789Y79922D01*
G01X54811Y79882D01*
G01X54824Y79838D01*
G01X54830Y79793D01*
G01X54827Y79747D01*
G01X54814Y79701D01*
G01X54791Y79657D01*
G01X54757Y79616D01*
G01X54716Y79582D01*
G01X54671Y79558D01*
G01X54625Y79545D01*
G01X54579Y79541D01*
G01X54533Y79546D01*
G01X54490Y79559D01*
G01X54449Y79581D01*
G01X54413Y79609D01*
G01X54383Y79645D01*
G01X54360Y79687D01*
G01X54345Y79735D01*
G01X54340Y79789D01*
G01X54339Y79811D01*
G01X54332Y79834D01*
G01X54319Y79859D01*
G01X54298Y79889D01*
G01X54266Y79926D01*
G01X54222Y79973D01*
G01X54165Y80032D01*
G01X54091Y80106D01*
G01X53847Y80347D01*
G01X53698Y80200D01*
G01X53543Y80043D01*
G01X53781Y79804D01*
G01X53854Y79729D01*
G01X53912Y79672D01*
G01X53958Y79630D01*
G01X53994Y79599D01*
G01X54024Y79579D01*
G01X54050Y79567D01*
G01X54075Y79559D01*
G01X54101Y79555D01*
G01X54169Y79540D01*
G01X54226Y79513D01*
G01X54274Y79475D01*
G01X54309Y79428D01*
G01X54332Y79375D01*
G01X54340Y79317D01*
G01X54334Y79257D01*
G01X54310Y79197D01*
G01X54275Y79139D01*
G01X54228Y79100D01*
G01X54167Y79079D01*
G01X54089Y79072D01*
G01X54031Y79074D01*
G01X53989Y79082D01*
G01X53953Y79102D01*
G01X53911Y79138D01*
G01X53881Y79178D01*
G01X53861Y79212D01*
G01X53851Y79249D01*
G01X53847Y79296D01*
G01X53846Y79327D01*
G01X53842Y79354D01*
G01X53832Y79380D01*
G01X53813Y79409D01*
G01X53784Y79444D01*
G01X53741Y79490D01*
G01X53683Y79550D01*
G01X53606Y79629D01*
G01X53362Y79870D01*
G01X53317Y79806D01*
G01X53276Y79748D01*
G01X53250Y79680D01*
G01X53238Y79605D01*
G01X53243Y79527D01*
G01X53245Y79519D01*
G01X53249Y79510D01*
G01X53253Y79500D01*
G01X53259Y79489D01*
G01X53267Y79477D01*
G01X53277Y79463D01*
G01X53289Y79447D01*
G01X53303Y79429D01*
G01X53320Y79409D01*
G01X53340Y79386D01*
G01X53363Y79360D01*
G01X53389Y79331D01*
G01X53419Y79299D01*
G01X53452Y79264D01*
G01X53489Y79225D01*
G01X53530Y79181D01*
G01X53576Y79135D01*
G01X53626Y79083D01*
G01X53680Y79027D01*
G01X53740Y78967D01*
G01X53804Y78901D01*
G01X53874Y78830D01*
G01X53950Y78753D01*
G01X54031Y78671D01*
G01X54119Y78584D01*
G01X54212Y78490D01*
G01X54312Y78389D01*
G01X54490Y78211D01*
G01X54560Y78142D01*
G01X54761Y77941D01*
G01X54825Y77878D01*
G01X54888Y77816D01*
G01X54949Y77757D01*
G01X55008Y77699D01*
G01X55065Y77643D01*
G01X55121Y77589D01*
G01X55174Y77538D01*
G01X55225Y77488D01*
G01X55273Y77442D01*
G01X55319Y77397D01*
G01X55363Y77356D01*
G01X55404Y77317D01*
G01X55442Y77280D01*
G01X55477Y77246D01*
G01X55510Y77216D01*
G01X55539Y77189D01*
G01X55566Y77164D01*
G01X55588Y77143D01*
G01X55608Y77125D01*
G01X55624Y77111D01*
G01X55637Y77100D01*
G01X55646Y77092D01*
G01X55651Y77089D01*
G01X55714Y77071D01*
G01X55782Y77065D01*
G01X55849Y77070D01*
G01X55905Y77089D01*
G01X55930Y77097D01*
G01X55954Y77112D01*
G01X55978Y77131D01*
G01X56001Y77152D01*
G01X56052Y77198D01*
G01X55557Y77690D01*
G01X55054Y78183D01*
G01X55778Y78897D01*
G01X56507Y79613D01*
G01X55651Y80457D01*
G37*

%LPD*%
G54D25*
G01X1015Y93789D02*
G01X1015Y82613D01*
G01X5841Y82613D01*
G01X5841Y93789D01*
G01X1015Y93789D01*
G01X507Y75374D02*
G01X507Y64198D01*
G01X5333Y64198D01*
G01X5333Y75374D01*
G01X507Y75374D01*
G01X761Y57340D02*
G01X761Y46164D01*
G01X5587Y46164D01*
G01X5587Y57340D01*
G01X761Y57340D01*
G01X507Y39560D02*
G01X507Y28384D01*
G01X5333Y28384D01*
G01X5333Y39560D01*
G01X507Y39560D01*
G01X507Y21780D02*
G01X507Y10604D01*
G01X5333Y10604D01*
G01X5333Y21780D01*
G01X507Y21780D01*
G01X111531Y25400D02*
G01X111531Y36576D01*
G01X106705Y36576D01*
G01X106705Y25400D01*
G01X111531Y25400D01*
G01X111277Y8001D02*
G01X111277Y19177D01*
G01X106451Y19177D01*
G01X106451Y8001D01*
G01X111277Y8001D01*
G01X1015Y93916D02*
G01X1015Y82740D01*
G01X5841Y82740D01*
G01X5841Y93916D01*
G01X1015Y93916D01*
G01X634Y75374D02*
G01X634Y64198D01*
G01X5460Y64198D01*
G01X5460Y75374D01*
G01X634Y75374D01*
G01X761Y57213D02*
G01X761Y46037D01*
G01X5587Y46037D01*
G01X5587Y57213D01*
G01X761Y57213D01*
G01X634Y39560D02*
G01X634Y28384D01*
G01X5460Y28384D01*
G01X5460Y39560D01*
G01X634Y39560D01*
G01X507Y21653D02*
G01X507Y10477D01*
G01X5333Y10477D01*
G01X5333Y21653D01*
G01X507Y21653D01*
G01X106578Y19304D02*
G01X106578Y8128D01*
G01X111404Y8128D01*
G01X111404Y19304D01*
G01X106578Y19304D01*
G01X106578Y19177D02*
G01X106578Y8001D01*
G01X111404Y8001D01*
G01X111404Y19177D01*
G01X106578Y19177D01*
G01X106705Y36449D02*
G01X106705Y25273D01*
G01X111531Y25273D01*
G01X111531Y36449D01*
G01X106705Y36449D01*
G01X106451Y54864D02*
G01X106451Y43688D01*
G01X111277Y43688D01*
G01X111277Y54864D01*
G01X106451Y54864D01*
G01X106451Y54737D02*
G01X106451Y43561D01*
G01X111277Y43561D01*
G01X111277Y54737D01*
G01X106451Y54737D01*
G01X106578Y73914D02*
G01X106578Y62738D01*
G01X111404Y62738D01*
G01X111404Y73914D01*
G01X106578Y73914D01*
G01X106578Y73787D02*
G01X106578Y62611D01*
G01X111404Y62611D01*
G01X111404Y73787D01*
G01X106578Y73787D01*
G01X106324Y91821D02*
G01X106324Y80645D01*
G01X111150Y80645D01*
G01X111150Y91821D01*
G01X106324Y91821D01*
G01X106324Y91694D02*
G01X106324Y80518D01*
G01X111150Y80518D01*
G01X111150Y91694D01*
G01X106324Y91694D01*
G01X52984Y4953D02*
G01X41808Y4953D01*
G01X41808Y127D01*
G01X52984Y127D01*
G01X52984Y4953D01*
G01X53111Y4953D02*
G01X41935Y4953D01*
G01X41935Y127D01*
G01X53111Y127D01*
G01X53111Y4953D01*
G01X98069Y136779D02*
G01X86893Y136779D01*
G01X86893Y131953D01*
G01X98069Y131953D01*
G01X98069Y136779D01*
G01X79654Y137287D02*
G01X68478Y137287D01*
G01X68478Y132461D01*
G01X79654Y132461D01*
G01X79654Y137287D01*
G01X61620Y137033D02*
G01X50444Y137033D01*
G01X50444Y132207D01*
G01X61620Y132207D01*
G01X61620Y137033D01*
G01X43840Y137287D02*
G01X32664Y137287D01*
G01X32664Y132461D01*
G01X43840Y132461D01*
G01X43840Y137287D01*
G01X26060Y137287D02*
G01X14884Y137287D01*
G01X14884Y132461D01*
G01X26060Y132461D01*
G01X26060Y137287D01*
G01X98196Y136779D02*
G01X87020Y136779D01*
G01X87020Y131953D01*
G01X98196Y131953D01*
G01X98196Y136779D01*
G01X79654Y137160D02*
G01X68478Y137160D01*
G01X68478Y132334D01*
G01X79654Y132334D01*
G01X79654Y137160D01*
G01X61493Y137033D02*
G01X50317Y137033D01*
G01X50317Y132207D01*
G01X61493Y132207D01*
G01X61493Y137033D01*
G01X43840Y137160D02*
G01X32664Y137160D01*
G01X32664Y132334D01*
G01X43840Y132334D01*
G01X43840Y137160D01*
G01X25933Y137287D02*
G01X14757Y137287D01*
G01X14757Y132461D01*
G01X25933Y132461D01*
G01X25933Y137287D01*
G54D26*
G01X63271Y91821D02*
G01X48539Y91821D01*
G54D27*
G01X69621Y41021D02*
G01X69621Y91821D01*
G54D26*
G01X69621Y91821D02*
G01X41681Y91821D01*
G01X69621Y41021D02*
G01X59461Y41021D01*
G01X59461Y40513D01*
G01X51841Y40513D01*
G01X51841Y41021D01*
G01X41681Y41021D01*
G01X41681Y41021D02*
G01X41681Y91821D01*
G54D10*
G01X59969Y-2921D02*
G01X59969Y10795D01*
G01X59969Y10795D02*
G01X68859Y10795D01*
G01X68859Y10795D02*
G01X68859Y-2921D01*
G01X68859Y-2921D02*
G01X59969Y-2921D01*
G01X12946Y85976D02*
G01X12946Y95628D01*
G01X13454Y96136D01*
G01X31996Y96136D01*
G01X32504Y95628D01*
G01X32504Y80642D01*
G01X31996Y80134D01*
G01X13454Y80134D01*
G01X12946Y80642D01*
G01X12946Y87500D01*
G01X10921Y91579D02*
G01X10921Y89471D01*
G01X10921Y85280D01*
G01X7873Y85280D02*
G01X7873Y91579D01*
G01X10921Y91630D02*
G01X7873Y91630D01*
G01X10921Y85280D02*
G01X7873Y85280D01*
G01X10921Y86042D02*
G01X7873Y86042D01*
G01X12946Y67942D02*
G01X12946Y77594D01*
G01X13454Y78102D01*
G01X31996Y78102D01*
G01X32504Y77594D01*
G01X32504Y62608D01*
G01X31996Y62100D01*
G01X13454Y62100D01*
G01X12946Y62608D01*
G01X12946Y69466D01*
G01X9905Y73418D02*
G01X9905Y71310D01*
G01X9905Y67119D01*
G01X6857Y67119D02*
G01X6857Y73418D01*
G01X9905Y73469D02*
G01X6857Y73469D01*
G01X9905Y67119D02*
G01X6857Y67119D01*
G01X9905Y67881D02*
G01X6857Y67881D01*
G01X12946Y49781D02*
G01X12946Y59433D01*
G01X13454Y59941D01*
G01X31996Y59941D01*
G01X32504Y59433D01*
G01X32504Y44447D01*
G01X31996Y43939D01*
G01X13454Y43939D01*
G01X12946Y44447D01*
G01X12946Y51305D01*
G01X9778Y55257D02*
G01X9778Y53149D01*
G01X9778Y48958D01*
G01X6730Y48958D02*
G01X6730Y55257D01*
G01X9778Y55308D02*
G01X6730Y55308D01*
G01X9778Y48958D02*
G01X6730Y48958D01*
G01X9778Y49720D02*
G01X6730Y49720D01*
G01X12844Y32064D02*
G01X12844Y41716D01*
G01X13352Y42224D01*
G01X31894Y42224D01*
G01X32402Y41716D01*
G01X32402Y26730D01*
G01X31894Y26222D01*
G01X13352Y26222D01*
G01X12844Y26730D01*
G01X12844Y33588D01*
G01X10413Y37223D02*
G01X10413Y35115D01*
G01X10413Y30924D01*
G01X7365Y30924D02*
G01X7365Y37223D01*
G01X10413Y37274D02*
G01X7365Y37274D01*
G01X10413Y30924D02*
G01X7365Y30924D01*
G01X10413Y31686D02*
G01X7365Y31686D01*
G01X12819Y14094D02*
G01X12819Y23746D01*
G01X13327Y24254D01*
G01X31869Y24254D01*
G01X32377Y23746D01*
G01X32377Y8760D01*
G01X31869Y8252D01*
G01X13327Y8252D01*
G01X12819Y8760D01*
G01X12819Y15618D01*
G01X9778Y19443D02*
G01X9778Y17335D01*
G01X9778Y13144D01*
G01X6730Y13144D02*
G01X6730Y19443D01*
G01X9778Y19494D02*
G01X6730Y19494D01*
G01X9778Y13144D02*
G01X6730Y13144D01*
G01X9778Y13906D02*
G01X6730Y13906D01*
G01X99474Y88458D02*
G01X99474Y78806D01*
G01X98966Y78298D01*
G01X80424Y78298D01*
G01X79916Y78806D01*
G01X79916Y93792D01*
G01X80424Y94300D01*
G01X98966Y94300D01*
G01X99474Y93792D01*
G01X99474Y86934D01*
G01X101625Y82854D02*
G01X101625Y84963D01*
G01X101625Y89154D01*
G01X104673Y89154D02*
G01X104673Y82854D01*
G01X101625Y82804D02*
G01X104673Y82804D01*
G01X101625Y89154D02*
G01X104673Y89154D01*
G01X101625Y88392D02*
G01X104673Y88392D01*
G01X99855Y70424D02*
G01X99855Y60772D01*
G01X99347Y60264D01*
G01X80805Y60264D01*
G01X80297Y60772D01*
G01X80297Y75758D01*
G01X80805Y76266D01*
G01X99347Y76266D01*
G01X99855Y75758D01*
G01X99855Y68900D01*
G01X102006Y65074D02*
G01X102006Y67183D01*
G01X102006Y71374D01*
G01X105054Y71374D02*
G01X105054Y65074D01*
G01X102006Y65024D02*
G01X105054Y65024D01*
G01X102006Y71374D02*
G01X105054Y71374D01*
G01X102006Y70612D02*
G01X105054Y70612D01*
G01X99728Y51374D02*
G01X99728Y41722D01*
G01X99220Y41214D01*
G01X80678Y41214D01*
G01X80170Y41722D01*
G01X80170Y56708D01*
G01X80678Y57216D01*
G01X99220Y57216D01*
G01X99728Y56708D01*
G01X99728Y49850D01*
G01X101879Y45897D02*
G01X101879Y48006D01*
G01X101879Y52197D01*
G01X104927Y52197D02*
G01X104927Y45897D01*
G01X101879Y45847D02*
G01X104927Y45847D01*
G01X101879Y52197D02*
G01X104927Y52197D01*
G01X101879Y51435D02*
G01X104927Y51435D01*
G01X99728Y33340D02*
G01X99728Y23688D01*
G01X99220Y23180D01*
G01X80678Y23180D01*
G01X80170Y23688D01*
G01X80170Y38674D01*
G01X80678Y39182D01*
G01X99220Y39182D01*
G01X99728Y38674D01*
G01X99728Y31816D01*
G01X102006Y27736D02*
G01X102006Y29845D01*
G01X102006Y34036D01*
G01X105054Y34036D02*
G01X105054Y27736D01*
G01X102006Y27686D02*
G01X105054Y27686D01*
G01X102006Y34036D02*
G01X105054Y34036D01*
G01X102006Y33274D02*
G01X105054Y33274D01*
G01X99347Y15433D02*
G01X99347Y5781D01*
G01X98839Y5273D01*
G01X80297Y5273D01*
G01X79789Y5781D01*
G01X79789Y20767D01*
G01X80297Y21275D01*
G01X98839Y21275D01*
G01X99347Y20767D01*
G01X99347Y13909D01*
G01X101752Y10083D02*
G01X101752Y12192D01*
G01X101752Y16383D01*
G01X104800Y16383D02*
G01X104800Y10083D01*
G01X101752Y10033D02*
G01X104800Y10033D01*
G01X101752Y16383D02*
G01X104800Y16383D01*
G01X101752Y15621D02*
G01X104800Y15621D01*
G01X49367Y11549D02*
G01X39715Y11549D01*
G01X39207Y12057D01*
G01X39207Y30599D01*
G01X39715Y31107D01*
G01X54701Y31107D01*
G01X55209Y30599D01*
G01X55209Y12057D01*
G01X54701Y11549D01*
G01X47843Y11549D01*
G01X44018Y9398D02*
G01X46126Y9398D01*
G01X50317Y9398D01*
G01X50317Y6350D02*
G01X44018Y6350D01*
G01X43967Y9398D02*
G01X43967Y6350D01*
G01X50317Y9398D02*
G01X50317Y6350D01*
G01X49555Y9398D02*
G01X49555Y6350D01*
G01X33171Y81168D02*
G01X33171Y87168D01*
G54D28*
G01X35255Y95694D02*
G01X35255Y90614D01*
G01X33324Y90614D01*
G01X33324Y95694D01*
G01X35255Y95694D01*
G54D10*
G01X34289Y90614D02*
G01X34289Y89852D01*
G01X34289Y96456D02*
G01X34289Y95694D01*
G01X33552Y61610D02*
G01X33552Y67610D01*
G54D28*
G01X35636Y76136D02*
G01X35636Y71056D01*
G01X33705Y71056D01*
G01X33705Y76136D01*
G01X35636Y76136D01*
G54D10*
G01X34670Y71056D02*
G01X34670Y70294D01*
G01X34670Y76898D02*
G01X34670Y76136D01*
G01X33425Y42941D02*
G01X33425Y48941D01*
G54D28*
G01X35509Y57467D02*
G01X35509Y52387D01*
G01X33578Y52387D01*
G01X33578Y57467D01*
G01X35509Y57467D01*
G54D10*
G01X34543Y52387D02*
G01X34543Y51625D01*
G01X34543Y58229D02*
G01X34543Y57467D01*
G01X33323Y24843D02*
G01X33323Y30843D01*
G54D28*
G01X35407Y39370D02*
G01X35407Y34290D01*
G01X33477Y34290D01*
G01X33477Y39370D01*
G01X35407Y39370D01*
G54D10*
G01X34442Y34290D02*
G01X34442Y33528D01*
G01X34442Y40132D02*
G01X34442Y39370D01*
G01X33704Y5285D02*
G01X33704Y11285D01*
G54D28*
G01X35788Y19812D02*
G01X35788Y14732D01*
G01X33858Y14732D01*
G01X33858Y19812D01*
G01X35788Y19812D01*
G54D10*
G01X34823Y14732D02*
G01X34823Y13970D01*
G01X34823Y20574D02*
G01X34823Y19812D01*
G01X55572Y32282D02*
G01X49572Y32282D01*
G54D28*
G01X41173Y34620D02*
G01X46253Y34620D01*
G01X46253Y32689D01*
G01X41173Y32689D01*
G01X41173Y34620D01*
G54D10*
G01X46253Y33655D02*
G01X47015Y33655D01*
G01X40411Y33655D02*
G01X41173Y33655D01*
G01X77979Y21257D02*
G01X77979Y15257D01*
G54D28*
G01X75895Y6731D02*
G01X75895Y11811D01*
G01X77825Y11811D01*
G01X77825Y6731D01*
G01X75895Y6731D01*
G54D10*
G01X76860Y11811D02*
G01X76860Y12573D01*
G01X76860Y5969D02*
G01X76860Y6731D01*
G01X77598Y39545D02*
G01X77598Y33545D01*
G54D28*
G01X75514Y25019D02*
G01X75514Y30099D01*
G01X77444Y30099D01*
G01X77444Y25019D01*
G01X75514Y25019D01*
G54D10*
G01X76479Y30099D02*
G01X76479Y30861D01*
G01X76479Y24257D02*
G01X76479Y25019D01*
G01X77471Y58214D02*
G01X77471Y52214D01*
G54D28*
G01X75387Y43688D02*
G01X75387Y48768D01*
G01X77317Y48768D01*
G01X77317Y43688D01*
G01X75387Y43688D01*
G54D10*
G01X76352Y48768D02*
G01X76352Y49530D01*
G01X76352Y42926D02*
G01X76352Y43688D01*
G01X77217Y76629D02*
G01X77217Y70629D01*
G54D28*
G01X75133Y62103D02*
G01X75133Y67183D01*
G01X77063Y67183D01*
G01X77063Y62103D01*
G01X75133Y62103D01*
G54D10*
G01X76098Y67183D02*
G01X76098Y67945D01*
G01X76098Y61341D02*
G01X76098Y62103D01*
G01X77217Y95171D02*
G01X77217Y89171D01*
G54D28*
G01X75133Y80645D02*
G01X75133Y85725D01*
G01X77063Y85725D01*
G01X77063Y80645D01*
G01X75133Y80645D01*
G54D10*
G01X76098Y85725D02*
G01X76098Y86487D01*
G01X76098Y79883D02*
G01X76098Y80645D01*
G01X90383Y124467D02*
G01X100035Y124467D01*
G01X100543Y123959D01*
G01X100543Y105417D01*
G01X100035Y104909D01*
G01X85049Y104909D01*
G01X84541Y105417D01*
G01X84541Y123959D01*
G01X85049Y124467D01*
G01X91907Y124467D01*
G01X95859Y126873D02*
G01X93751Y126873D01*
G01X89560Y126873D01*
G01X89560Y129921D02*
G01X95859Y129921D01*
G01X95910Y126873D02*
G01X95910Y129921D01*
G01X89560Y126873D02*
G01X89560Y129921D01*
G01X90322Y126873D02*
G01X90322Y129921D01*
G01X72349Y124467D02*
G01X82001Y124467D01*
G01X82509Y123959D01*
G01X82509Y105417D01*
G01X82001Y104909D01*
G01X67015Y104909D01*
G01X66507Y105417D01*
G01X66507Y123959D01*
G01X67015Y124467D01*
G01X73873Y124467D01*
G01X77698Y127889D02*
G01X75590Y127889D01*
G01X71399Y127889D01*
G01X71399Y130937D02*
G01X77698Y130937D01*
G01X77749Y127889D02*
G01X77749Y130937D01*
G01X71399Y127889D02*
G01X71399Y130937D01*
G01X72161Y127889D02*
G01X72161Y130937D01*
G01X54188Y124467D02*
G01X63840Y124467D01*
G01X64348Y123959D01*
G01X64348Y105417D01*
G01X63840Y104909D01*
G01X48854Y104909D01*
G01X48346Y105417D01*
G01X48346Y123959D01*
G01X48854Y124467D01*
G01X55712Y124467D01*
G01X59537Y128016D02*
G01X57429Y128016D01*
G01X53238Y128016D01*
G01X53238Y131064D02*
G01X59537Y131064D01*
G01X59588Y128016D02*
G01X59588Y131064D01*
G01X53238Y128016D02*
G01X53238Y131064D01*
G01X54000Y128016D02*
G01X54000Y131064D01*
G01X36408Y124594D02*
G01X46060Y124594D01*
G01X46568Y124086D01*
G01X46568Y105544D01*
G01X46060Y105036D01*
G01X31074Y105036D01*
G01X30566Y105544D01*
G01X30566Y124086D01*
G01X31074Y124594D01*
G01X37932Y124594D01*
G01X41503Y127381D02*
G01X39395Y127381D01*
G01X35204Y127381D01*
G01X35204Y130429D02*
G01X41503Y130429D01*
G01X41554Y127381D02*
G01X41554Y130429D01*
G01X35204Y127381D02*
G01X35204Y130429D01*
G01X35966Y127381D02*
G01X35966Y130429D01*
G01X18501Y124594D02*
G01X28153Y124594D01*
G01X28661Y124086D01*
G01X28661Y105544D01*
G01X28153Y105036D01*
G01X13167Y105036D01*
G01X12659Y105544D01*
G01X12659Y124086D01*
G01X13167Y124594D01*
G01X20025Y124594D01*
G01X23723Y128016D02*
G01X21615Y128016D01*
G01X17424Y128016D01*
G01X17424Y131064D02*
G01X23723Y131064D01*
G01X23774Y128016D02*
G01X23774Y131064D01*
G01X17424Y128016D02*
G01X17424Y131064D01*
G01X18186Y128016D02*
G01X18186Y131064D01*
G01X85575Y104242D02*
G01X91575Y104242D01*
G54D28*
G01X100101Y102158D02*
G01X95021Y102158D01*
G01X95021Y104089D01*
G01X100101Y104089D01*
G01X100101Y102158D01*
G54D10*
G01X95021Y103124D02*
G01X94259Y103124D01*
G01X100863Y103124D02*
G01X100101Y103124D01*
G01X66017Y103861D02*
G01X72017Y103861D01*
G54D28*
G01X80543Y101777D02*
G01X75463Y101777D01*
G01X75463Y103708D01*
G01X80543Y103708D01*
G01X80543Y101777D01*
G54D10*
G01X75463Y102743D02*
G01X74701Y102743D01*
G01X81305Y102743D02*
G01X80543Y102743D01*
G01X47348Y103988D02*
G01X53348Y103988D01*
G54D28*
G01X61874Y101904D02*
G01X56794Y101904D01*
G01X56794Y103835D01*
G01X61874Y103835D01*
G01X61874Y101904D01*
G54D10*
G01X56794Y102870D02*
G01X56032Y102870D01*
G01X62636Y102870D02*
G01X61874Y102870D01*
G01X29250Y104090D02*
G01X35250Y104090D01*
G54D28*
G01X43776Y102006D02*
G01X38696Y102006D01*
G01X38696Y103936D01*
G01X43776Y103936D01*
G01X43776Y102006D01*
G54D10*
G01X38696Y102971D02*
G01X37934Y102971D01*
G01X44538Y102971D02*
G01X43776Y102971D01*
G01X9692Y103709D02*
G01X15692Y103709D01*
G54D28*
G01X24218Y101625D02*
G01X19138Y101625D01*
G01X19138Y103555D01*
G01X24218Y103555D01*
G01X24218Y101625D01*
G54D10*
G01X19138Y102590D02*
G01X18376Y102590D01*
G01X24980Y102590D02*
G01X24218Y102590D01*
G54D29*
G01X65808Y40165D02*
G01X65808Y39436D01*
G01X65808Y40165D02*
G01X66258Y40165D01*
G01X65808Y39817D02*
G01X66085Y39817D01*
G01X65808Y39436D02*
G01X66258Y39436D01*
G01X66972Y40060D02*
G01X66903Y40129D01*
G01X66799Y40165D01*
G01X66659Y40165D01*
G01X66558Y40129D01*
G01X66487Y40060D01*
G01X66487Y39989D01*
G01X66522Y39921D01*
G01X66558Y39888D01*
G01X66626Y39852D01*
G01X66835Y39784D01*
G01X66903Y39748D01*
G01X66939Y39712D01*
G01X66972Y39644D01*
G01X66972Y39540D01*
G01X66903Y39471D01*
G01X66799Y39436D01*
G01X66659Y39436D01*
G01X66558Y39471D01*
G01X66487Y39540D01*
G01X67200Y40165D02*
G01X67200Y39436D01*
G01X67200Y40165D02*
G01X67513Y40165D01*
G01X67617Y40129D01*
G01X67650Y40093D01*
G01X67685Y40025D01*
G01X67685Y39921D01*
G01X67650Y39852D01*
G01X67617Y39817D01*
G01X67513Y39784D01*
G01X67200Y39784D01*
G01X67983Y40165D02*
G01X68364Y40165D01*
G01X68158Y39888D01*
G01X68259Y39888D01*
G01X68331Y39852D01*
G01X68364Y39817D01*
G01X68399Y39712D01*
G01X68399Y39644D01*
G01X68364Y39540D01*
G01X68295Y39471D01*
G01X68191Y39436D01*
G01X68087Y39436D01*
G01X67983Y39471D01*
G01X67950Y39507D01*
G01X67914Y39575D01*
G01X68663Y39989D02*
G01X68663Y40025D01*
G01X68696Y40093D01*
G01X68732Y40129D01*
G01X68800Y40165D01*
G01X68940Y40165D01*
G01X69009Y40129D01*
G01X69044Y40093D01*
G01X69077Y40025D01*
G01X69077Y39956D01*
G01X69044Y39888D01*
G01X68973Y39784D01*
G01X68628Y39436D01*
G01X69113Y39436D01*
G54D26*
G01X45745Y50764D02*
G01X45468Y51493D01*
G01X45191Y50764D02*
G01X45468Y51493D01*
G01X44963Y50764D02*
G01X44963Y51493D01*
G01X44734Y50764D02*
G01X44734Y51493D01*
G01X44734Y50764D02*
G01X44249Y51493D01*
G01X44249Y50764D02*
G01X44249Y51493D01*
G01X56921Y41490D02*
G01X56921Y42174D01*
G01X56875Y42308D01*
G01X56784Y42400D01*
G01X56649Y42445D01*
G01X56558Y42445D01*
G01X56421Y42400D01*
G01X56329Y42308D01*
G01X56283Y42174D01*
G01X56283Y41490D01*
G01X55349Y41625D02*
G01X55440Y41536D01*
G01X55575Y41490D01*
G01X55758Y41490D01*
G01X55895Y41536D01*
G01X55984Y41625D01*
G01X55984Y41719D01*
G01X55938Y41810D01*
G01X55895Y41854D01*
G01X55803Y41902D01*
G01X55529Y41991D01*
G01X55440Y42037D01*
G01X55394Y42082D01*
G01X55349Y42174D01*
G01X55349Y42308D01*
G01X55440Y42400D01*
G01X55575Y42445D01*
G01X55758Y42445D01*
G01X55895Y42400D01*
G01X55984Y42308D01*
G01X55049Y41490D02*
G01X55049Y42445D01*
G01X55049Y41490D02*
G01X54640Y41490D01*
G01X54503Y41536D01*
G01X54457Y41584D01*
G01X54411Y41673D01*
G01X54411Y41765D01*
G01X54457Y41854D01*
G01X54503Y41902D01*
G01X54640Y41943D01*
G01X55049Y41943D02*
G01X54640Y41943D01*
G01X54503Y41991D01*
G01X54457Y42037D01*
G01X54411Y42128D01*
G01X54411Y42260D01*
G01X54457Y42354D01*
G01X54503Y42400D01*
G01X54640Y42445D01*
G01X55049Y42445D01*
G01X58445Y43588D02*
G01X58445Y44223D01*
G01X58445Y43771D02*
G01X58308Y43632D01*
G01X58219Y43588D01*
G01X58082Y43588D01*
G01X57990Y43632D01*
G01X57945Y43771D01*
G01X57945Y44223D01*
G01X57945Y43771D02*
G01X57807Y43632D01*
G01X57718Y43588D01*
G01X57581Y43588D01*
G01X57490Y43632D01*
G01X57444Y43771D01*
G01X57444Y44223D01*
G01X57144Y43268D02*
G01X57099Y43314D01*
G01X57053Y43268D01*
G01X57099Y43225D01*
G01X57144Y43268D01*
G01X57099Y43588D02*
G01X57099Y44223D01*
G01X56210Y43723D02*
G01X56299Y43632D01*
G01X56390Y43588D01*
G01X56527Y43588D01*
G01X56619Y43632D01*
G01X56708Y43723D01*
G01X56753Y43860D01*
G01X56753Y43954D01*
G01X56708Y44089D01*
G01X56619Y44178D01*
G01X56527Y44223D01*
G01X56390Y44223D01*
G01X56299Y44178D01*
G01X56210Y44089D01*
G01X55907Y43588D02*
G01X55907Y44223D01*
G01X55907Y43860D02*
G01X55864Y43723D01*
G01X55773Y43632D01*
G01X55681Y43588D01*
G01X55544Y43588D01*
G01X55018Y43588D02*
G01X55107Y43632D01*
G01X55199Y43723D01*
G01X55244Y43860D01*
G01X55244Y43954D01*
G01X55199Y44089D01*
G01X55107Y44178D01*
G01X55018Y44223D01*
G01X54881Y44223D01*
G01X54790Y44178D01*
G01X54698Y44089D01*
G01X54655Y43954D01*
G01X54655Y43860D01*
G01X54698Y43723D01*
G01X54790Y43632D01*
G01X54881Y43588D01*
G01X55018Y43588D01*
G01X53654Y43268D02*
G01X53654Y44223D01*
G01X53654Y43268D02*
G01X53246Y43268D01*
G01X53108Y43314D01*
G01X53063Y43360D01*
G01X53017Y43454D01*
G01X53017Y43543D01*
G01X53063Y43632D01*
G01X53108Y43677D01*
G01X53246Y43723D01*
G01X53654Y43723D02*
G01X53246Y43723D01*
G01X53108Y43771D01*
G01X53063Y43815D01*
G01X53017Y43906D01*
G01X53017Y44041D01*
G01X53063Y44132D01*
G01X53108Y44178D01*
G01X53246Y44223D01*
G01X53654Y44223D01*
G01X45986Y53479D02*
G01X46022Y53408D01*
G01X46090Y53340D01*
G01X46161Y53304D01*
G01X46299Y53304D01*
G01X46367Y53340D01*
G01X46438Y53408D01*
G01X46471Y53479D01*
G01X46507Y53581D01*
G01X46507Y53756D01*
G01X46471Y53860D01*
G01X46438Y53929D01*
G01X46367Y53997D01*
G01X46299Y54033D01*
G01X46161Y54033D01*
G01X46090Y53997D01*
G01X46022Y53929D01*
G01X45986Y53860D01*
G01X45986Y53756D01*
G01X46161Y53756D02*
G01X45986Y53756D01*
G01X45758Y53304D02*
G01X45758Y54033D01*
G01X45758Y53304D02*
G01X45275Y54033D01*
G01X45275Y53304D02*
G01X45275Y54033D01*
G01X45046Y53304D02*
G01X45046Y54033D01*
G01X45046Y53304D02*
G01X44803Y53304D01*
G01X44698Y53340D01*
G01X44630Y53408D01*
G01X44594Y53479D01*
G01X44561Y53581D01*
G01X44561Y53756D01*
G01X44594Y53860D01*
G01X44630Y53929D01*
G01X44698Y53997D01*
G01X44803Y54033D01*
G01X45046Y54033D01*
G01X46253Y56098D02*
G01X46253Y56827D01*
G01X46253Y56098D02*
G01X46012Y56098D01*
G01X45907Y56134D01*
G01X45836Y56202D01*
G01X45803Y56273D01*
G01X45768Y56375D01*
G01X45768Y56550D01*
G01X45803Y56654D01*
G01X45836Y56723D01*
G01X45907Y56791D01*
G01X46012Y56827D01*
G01X46253Y56827D01*
G01X45539Y56238D02*
G01X45471Y56202D01*
G01X45366Y56098D01*
G01X45366Y56827D01*
G01X45069Y56098D02*
G01X44688Y56098D01*
G01X44894Y56375D01*
G01X44792Y56375D01*
G01X44721Y56410D01*
G01X44688Y56446D01*
G01X44653Y56550D01*
G01X44653Y56619D01*
G01X44688Y56723D01*
G01X44757Y56791D01*
G01X44861Y56827D01*
G01X44965Y56827D01*
G01X45069Y56791D01*
G01X45102Y56756D01*
G01X45138Y56687D01*
G01X46253Y58384D02*
G01X46253Y59113D01*
G01X46253Y58384D02*
G01X46012Y58384D01*
G01X45907Y58420D01*
G01X45836Y58488D01*
G01X45803Y58559D01*
G01X45768Y58661D01*
G01X45768Y58836D01*
G01X45803Y58940D01*
G01X45836Y59009D01*
G01X45907Y59077D01*
G01X46012Y59113D01*
G01X46253Y59113D01*
G01X45539Y58524D02*
G01X45471Y58488D01*
G01X45366Y58384D01*
G01X45366Y59113D01*
G01X45102Y58559D02*
G01X45102Y58524D01*
G01X45069Y58455D01*
G01X45034Y58420D01*
G01X44965Y58384D01*
G01X44825Y58384D01*
G01X44757Y58420D01*
G01X44721Y58455D01*
G01X44688Y58524D01*
G01X44688Y58592D01*
G01X44721Y58661D01*
G01X44792Y58765D01*
G01X45138Y59113D01*
G01X44653Y59113D01*
G01X46253Y60924D02*
G01X46253Y61653D01*
G01X46253Y60924D02*
G01X46012Y60924D01*
G01X45907Y60960D01*
G01X45836Y61028D01*
G01X45803Y61099D01*
G01X45768Y61201D01*
G01X45768Y61376D01*
G01X45803Y61480D01*
G01X45836Y61549D01*
G01X45907Y61617D01*
G01X46012Y61653D01*
G01X46253Y61653D01*
G01X45539Y61064D02*
G01X45471Y61028D01*
G01X45366Y60924D01*
G01X45366Y61653D01*
G01X44792Y60924D02*
G01X45138Y61409D01*
G01X44617Y61409D01*
G01X44792Y60924D02*
G01X44792Y61653D01*
G01X46253Y63464D02*
G01X46253Y64193D01*
G01X46253Y63464D02*
G01X46012Y63464D01*
G01X45907Y63500D01*
G01X45836Y63568D01*
G01X45803Y63639D01*
G01X45768Y63741D01*
G01X45768Y63916D01*
G01X45803Y64020D01*
G01X45836Y64089D01*
G01X45907Y64157D01*
G01X46012Y64193D01*
G01X46253Y64193D01*
G01X45504Y63639D02*
G01X45504Y63604D01*
G01X45471Y63535D01*
G01X45435Y63500D01*
G01X45366Y63464D01*
G01X45227Y63464D01*
G01X45158Y63500D01*
G01X45123Y63535D01*
G01X45090Y63604D01*
G01X45090Y63672D01*
G01X45123Y63741D01*
G01X45194Y63845D01*
G01X45539Y64193D01*
G01X45054Y64193D01*
G01X44340Y63464D02*
G01X44688Y64193D01*
G01X44825Y63464D02*
G01X44340Y63464D01*
G01X46253Y66004D02*
G01X46253Y66733D01*
G01X46253Y66004D02*
G01X46012Y66004D01*
G01X45907Y66040D01*
G01X45836Y66108D01*
G01X45803Y66179D01*
G01X45768Y66281D01*
G01X45768Y66456D01*
G01X45803Y66560D01*
G01X45836Y66629D01*
G01X45907Y66697D01*
G01X46012Y66733D01*
G01X46253Y66733D01*
G01X45504Y66179D02*
G01X45504Y66144D01*
G01X45471Y66075D01*
G01X45435Y66040D01*
G01X45366Y66004D01*
G01X45227Y66004D01*
G01X45158Y66040D01*
G01X45123Y66075D01*
G01X45090Y66144D01*
G01X45090Y66212D01*
G01X45123Y66281D01*
G01X45194Y66385D01*
G01X45539Y66733D01*
G01X45054Y66733D01*
G01X44411Y66108D02*
G01X44444Y66040D01*
G01X44549Y66004D01*
G01X44617Y66004D01*
G01X44721Y66040D01*
G01X44792Y66144D01*
G01X44825Y66316D01*
G01X44825Y66489D01*
G01X44792Y66629D01*
G01X44721Y66697D01*
G01X44617Y66733D01*
G01X44584Y66733D01*
G01X44480Y66697D01*
G01X44411Y66629D01*
G01X44376Y66525D01*
G01X44376Y66489D01*
G01X44411Y66385D01*
G01X44480Y66316D01*
G01X44584Y66281D01*
G01X44617Y66281D01*
G01X44721Y66316D01*
G01X44792Y66385D01*
G01X44825Y66489D01*
G01X46253Y68544D02*
G01X46253Y69273D01*
G01X46253Y68544D02*
G01X46012Y68544D01*
G01X45907Y68580D01*
G01X45836Y68648D01*
G01X45803Y68719D01*
G01X45768Y68821D01*
G01X45768Y68996D01*
G01X45803Y69100D01*
G01X45836Y69169D01*
G01X45907Y69237D01*
G01X46012Y69273D01*
G01X46253Y69273D01*
G01X45504Y68719D02*
G01X45504Y68684D01*
G01X45471Y68615D01*
G01X45435Y68580D01*
G01X45366Y68544D01*
G01X45227Y68544D01*
G01X45158Y68580D01*
G01X45123Y68615D01*
G01X45090Y68684D01*
G01X45090Y68752D01*
G01X45123Y68821D01*
G01X45194Y68925D01*
G01X45539Y69273D01*
G01X45054Y69273D01*
G01X44411Y68544D02*
G01X44757Y68544D01*
G01X44792Y68856D01*
G01X44757Y68821D01*
G01X44653Y68788D01*
G01X44549Y68788D01*
G01X44444Y68821D01*
G01X44376Y68892D01*
G01X44340Y68996D01*
G01X44340Y69065D01*
G01X44376Y69169D01*
G01X44444Y69237D01*
G01X44549Y69273D01*
G01X44653Y69273D01*
G01X44757Y69237D01*
G01X44792Y69202D01*
G01X44825Y69133D01*
G01X46253Y71084D02*
G01X46253Y71813D01*
G01X46253Y71084D02*
G01X46012Y71084D01*
G01X45907Y71120D01*
G01X45836Y71188D01*
G01X45803Y71259D01*
G01X45768Y71361D01*
G01X45768Y71536D01*
G01X45803Y71640D01*
G01X45836Y71709D01*
G01X45907Y71777D01*
G01X46012Y71813D01*
G01X46253Y71813D01*
G01X45471Y71084D02*
G01X45090Y71084D01*
G01X45298Y71361D01*
G01X45194Y71361D01*
G01X45123Y71396D01*
G01X45090Y71432D01*
G01X45054Y71536D01*
G01X45054Y71605D01*
G01X45090Y71709D01*
G01X45158Y71777D01*
G01X45262Y71813D01*
G01X45366Y71813D01*
G01X45471Y71777D01*
G01X45504Y71742D01*
G01X45539Y71673D01*
G01X44757Y71084D02*
G01X44376Y71084D01*
G01X44584Y71361D01*
G01X44480Y71361D01*
G01X44411Y71396D01*
G01X44376Y71432D01*
G01X44340Y71536D01*
G01X44340Y71605D01*
G01X44376Y71709D01*
G01X44444Y71777D01*
G01X44549Y71813D01*
G01X44653Y71813D01*
G01X44757Y71777D01*
G01X44792Y71742D01*
G01X44825Y71673D01*
G01X46253Y73624D02*
G01X46253Y74353D01*
G01X46253Y73624D02*
G01X46012Y73624D01*
G01X45907Y73660D01*
G01X45836Y73728D01*
G01X45803Y73799D01*
G01X45768Y73901D01*
G01X45768Y74076D01*
G01X45803Y74180D01*
G01X45836Y74249D01*
G01X45907Y74317D01*
G01X46012Y74353D01*
G01X46253Y74353D01*
G01X45471Y73624D02*
G01X45090Y73624D01*
G01X45298Y73901D01*
G01X45194Y73901D01*
G01X45123Y73936D01*
G01X45090Y73972D01*
G01X45054Y74076D01*
G01X45054Y74145D01*
G01X45090Y74249D01*
G01X45158Y74317D01*
G01X45262Y74353D01*
G01X45366Y74353D01*
G01X45471Y74317D01*
G01X45504Y74282D01*
G01X45539Y74213D01*
G01X44792Y73799D02*
G01X44792Y73764D01*
G01X44757Y73695D01*
G01X44721Y73660D01*
G01X44653Y73624D01*
G01X44513Y73624D01*
G01X44444Y73660D01*
G01X44411Y73695D01*
G01X44376Y73764D01*
G01X44376Y73832D01*
G01X44411Y73901D01*
G01X44480Y74005D01*
G01X44825Y74353D01*
G01X44340Y74353D01*
G01X46253Y76164D02*
G01X46253Y76893D01*
G01X46253Y76164D02*
G01X46012Y76164D01*
G01X45907Y76200D01*
G01X45836Y76268D01*
G01X45803Y76339D01*
G01X45768Y76441D01*
G01X45768Y76616D01*
G01X45803Y76720D01*
G01X45836Y76789D01*
G01X45907Y76857D01*
G01X46012Y76893D01*
G01X46253Y76893D01*
G01X45471Y76164D02*
G01X45090Y76164D01*
G01X45298Y76441D01*
G01X45194Y76441D01*
G01X45123Y76476D01*
G01X45090Y76512D01*
G01X45054Y76616D01*
G01X45054Y76685D01*
G01X45090Y76789D01*
G01X45158Y76857D01*
G01X45262Y76893D01*
G01X45366Y76893D01*
G01X45471Y76857D01*
G01X45504Y76822D01*
G01X45539Y76753D01*
G01X44411Y76164D02*
G01X44757Y76164D01*
G01X44792Y76476D01*
G01X44757Y76441D01*
G01X44653Y76408D01*
G01X44549Y76408D01*
G01X44444Y76441D01*
G01X44376Y76512D01*
G01X44340Y76616D01*
G01X44340Y76685D01*
G01X44376Y76789D01*
G01X44444Y76857D01*
G01X44549Y76893D01*
G01X44653Y76893D01*
G01X44757Y76857D01*
G01X44792Y76822D01*
G01X44825Y76753D01*
G01X46253Y78958D02*
G01X46253Y79687D01*
G01X46253Y78958D02*
G01X46012Y78958D01*
G01X45907Y78994D01*
G01X45836Y79062D01*
G01X45803Y79133D01*
G01X45768Y79235D01*
G01X45768Y79410D01*
G01X45803Y79514D01*
G01X45836Y79583D01*
G01X45907Y79651D01*
G01X46012Y79687D01*
G01X46253Y79687D01*
G01X45471Y78958D02*
G01X45090Y78958D01*
G01X45298Y79235D01*
G01X45194Y79235D01*
G01X45123Y79270D01*
G01X45090Y79306D01*
G01X45054Y79410D01*
G01X45054Y79479D01*
G01X45090Y79583D01*
G01X45158Y79651D01*
G01X45262Y79687D01*
G01X45366Y79687D01*
G01X45471Y79651D01*
G01X45504Y79616D01*
G01X45539Y79547D01*
G01X44480Y78958D02*
G01X44825Y79443D01*
G01X44307Y79443D01*
G01X44480Y78958D02*
G01X44480Y79687D01*
G01X46253Y81244D02*
G01X45976Y81973D01*
G01X45699Y81244D02*
G01X45976Y81973D01*
G01X45471Y81244D02*
G01X45471Y81973D01*
G01X45471Y81244D02*
G01X44985Y81973D01*
G01X44985Y81244D02*
G01X44985Y81973D01*
G01X46253Y83784D02*
G01X46253Y84513D01*
G01X46024Y83784D02*
G01X45747Y84513D01*
G01X45471Y83784D02*
G01X45747Y84513D01*
G01X45242Y83784D02*
G01X45242Y84513D01*
G01X45242Y83784D02*
G01X44930Y83784D01*
G01X44825Y83820D01*
G01X44792Y83855D01*
G01X44757Y83924D01*
G01X44757Y84028D01*
G01X44792Y84096D01*
G01X44825Y84132D01*
G01X44930Y84165D01*
G01X45242Y84165D01*
G01X66827Y78704D02*
G01X66827Y79433D01*
G01X66827Y78704D02*
G01X66514Y78704D01*
G01X66410Y78740D01*
G01X66377Y78775D01*
G01X66342Y78844D01*
G01X66342Y78912D01*
G01X66377Y78981D01*
G01X66410Y79016D01*
G01X66514Y79052D01*
G01X66827Y79052D01*
G01X66586Y79052D02*
G01X66342Y79433D01*
G01X66113Y78704D02*
G01X65628Y79433D01*
G01X65628Y78704D02*
G01X66113Y79433D01*
G01X65191Y78704D02*
G01X65295Y78740D01*
G01X65366Y78844D01*
G01X65399Y79016D01*
G01X65399Y79121D01*
G01X65366Y79293D01*
G01X65295Y79397D01*
G01X65191Y79433D01*
G01X65123Y79433D01*
G01X65018Y79397D01*
G01X64950Y79293D01*
G01X64914Y79121D01*
G01X64914Y79016D01*
G01X64950Y78844D01*
G01X65018Y78740D01*
G01X65123Y78704D01*
G01X65191Y78704D01*
G01X66758Y50764D02*
G01X66377Y50764D01*
G01X66586Y51041D01*
G01X66481Y51041D01*
G01X66410Y51076D01*
G01X66377Y51112D01*
G01X66342Y51216D01*
G01X66342Y51285D01*
G01X66377Y51389D01*
G01X66446Y51457D01*
G01X66550Y51493D01*
G01X66654Y51493D01*
G01X66758Y51457D01*
G01X66791Y51422D01*
G01X66827Y51353D01*
G01X66113Y51008D02*
G01X65905Y51493D01*
G01X65697Y51008D02*
G01X65905Y51493D01*
G01X65399Y50764D02*
G01X65018Y50764D01*
G01X65227Y51041D01*
G01X65123Y51041D01*
G01X65054Y51076D01*
G01X65018Y51112D01*
G01X64985Y51216D01*
G01X64985Y51285D01*
G01X65018Y51389D01*
G01X65087Y51457D01*
G01X65191Y51493D01*
G01X65295Y51493D01*
G01X65399Y51457D01*
G01X65435Y51422D01*
G01X65468Y51353D01*
G01X66306Y53479D02*
G01X66342Y53408D01*
G01X66410Y53340D01*
G01X66481Y53304D01*
G01X66619Y53304D01*
G01X66687Y53340D01*
G01X66758Y53408D01*
G01X66791Y53479D01*
G01X66827Y53581D01*
G01X66827Y53756D01*
G01X66791Y53860D01*
G01X66758Y53929D01*
G01X66687Y53997D01*
G01X66619Y54033D01*
G01X66481Y54033D01*
G01X66410Y53997D01*
G01X66342Y53929D01*
G01X66306Y53860D01*
G01X66306Y53756D01*
G01X66481Y53756D02*
G01X66306Y53756D01*
G01X66078Y53304D02*
G01X66078Y54033D01*
G01X66078Y53304D02*
G01X65595Y54033D01*
G01X65595Y53304D02*
G01X65595Y54033D01*
G01X65366Y53304D02*
G01X65366Y54033D01*
G01X65366Y53304D02*
G01X65123Y53304D01*
G01X65018Y53340D01*
G01X64950Y53408D01*
G01X64914Y53479D01*
G01X64881Y53581D01*
G01X64881Y53756D01*
G01X64914Y53860D01*
G01X64950Y53929D01*
G01X65018Y53997D01*
G01X65123Y54033D01*
G01X65366Y54033D01*
G01X66827Y55844D02*
G01X66827Y56573D01*
G01X66827Y55844D02*
G01X66586Y55844D01*
G01X66481Y55880D01*
G01X66410Y55948D01*
G01X66377Y56019D01*
G01X66342Y56121D01*
G01X66342Y56296D01*
G01X66377Y56400D01*
G01X66410Y56469D01*
G01X66481Y56537D01*
G01X66586Y56573D01*
G01X66827Y56573D01*
G01X66113Y55984D02*
G01X66045Y55948D01*
G01X65940Y55844D01*
G01X65940Y56573D01*
G01X65295Y55844D02*
G01X65643Y55844D01*
G01X65676Y56156D01*
G01X65643Y56121D01*
G01X65539Y56088D01*
G01X65435Y56088D01*
G01X65331Y56121D01*
G01X65262Y56192D01*
G01X65227Y56296D01*
G01X65227Y56365D01*
G01X65262Y56469D01*
G01X65331Y56537D01*
G01X65435Y56573D01*
G01X65539Y56573D01*
G01X65643Y56537D01*
G01X65676Y56502D01*
G01X65712Y56433D01*
G01X66827Y58384D02*
G01X66827Y59113D01*
G01X66827Y58384D02*
G01X66586Y58384D01*
G01X66481Y58420D01*
G01X66410Y58488D01*
G01X66377Y58559D01*
G01X66342Y58661D01*
G01X66342Y58836D01*
G01X66377Y58940D01*
G01X66410Y59009D01*
G01X66481Y59077D01*
G01X66586Y59113D01*
G01X66827Y59113D01*
G01X66078Y58559D02*
G01X66078Y58524D01*
G01X66045Y58455D01*
G01X66009Y58420D01*
G01X65940Y58384D01*
G01X65801Y58384D01*
G01X65732Y58420D01*
G01X65697Y58455D01*
G01X65664Y58524D01*
G01X65664Y58592D01*
G01X65697Y58661D01*
G01X65768Y58765D01*
G01X66113Y59113D01*
G01X65628Y59113D01*
G01X66827Y60924D02*
G01X66827Y61653D01*
G01X66827Y60924D02*
G01X66586Y60924D01*
G01X66481Y60960D01*
G01X66410Y61028D01*
G01X66377Y61099D01*
G01X66342Y61201D01*
G01X66342Y61376D01*
G01X66377Y61480D01*
G01X66410Y61549D01*
G01X66481Y61617D01*
G01X66586Y61653D01*
G01X66827Y61653D01*
G01X65768Y60924D02*
G01X66113Y61409D01*
G01X65595Y61409D01*
G01X65768Y60924D02*
G01X65768Y61653D01*
G01X66827Y63464D02*
G01X66827Y64193D01*
G01X66827Y63464D02*
G01X66514Y63464D01*
G01X66410Y63500D01*
G01X66377Y63535D01*
G01X66342Y63604D01*
G01X66342Y63672D01*
G01X66377Y63741D01*
G01X66410Y63776D01*
G01X66514Y63812D01*
G01X66827Y63812D01*
G01X66586Y63812D02*
G01X66342Y64193D01*
G01X66113Y63464D02*
G01X65628Y64193D01*
G01X65628Y63464D02*
G01X66113Y64193D01*
G01X65366Y63639D02*
G01X65366Y63604D01*
G01X65331Y63535D01*
G01X65295Y63500D01*
G01X65227Y63464D01*
G01X65087Y63464D01*
G01X65018Y63500D01*
G01X64985Y63535D01*
G01X64950Y63604D01*
G01X64950Y63672D01*
G01X64985Y63741D01*
G01X65054Y63845D01*
G01X65399Y64193D01*
G01X64914Y64193D01*
G01X66586Y66004D02*
G01X66586Y66733D01*
G01X66827Y66004D02*
G01X66342Y66004D01*
G01X66113Y66004D02*
G01X65628Y66733D01*
G01X65628Y66004D02*
G01X66113Y66733D01*
G01X65366Y66179D02*
G01X65366Y66144D01*
G01X65331Y66075D01*
G01X65295Y66040D01*
G01X65227Y66004D01*
G01X65087Y66004D01*
G01X65018Y66040D01*
G01X64985Y66075D01*
G01X64950Y66144D01*
G01X64950Y66212D01*
G01X64985Y66281D01*
G01X65054Y66385D01*
G01X65399Y66733D01*
G01X64914Y66733D01*
G01X66827Y68544D02*
G01X66827Y69273D01*
G01X66827Y68544D02*
G01X66586Y68544D01*
G01X66481Y68580D01*
G01X66410Y68648D01*
G01X66377Y68719D01*
G01X66342Y68821D01*
G01X66342Y68996D01*
G01X66377Y69100D01*
G01X66410Y69169D01*
G01X66481Y69237D01*
G01X66586Y69273D01*
G01X66827Y69273D01*
G01X65697Y68544D02*
G01X66045Y68544D01*
G01X66078Y68856D01*
G01X66045Y68821D01*
G01X65940Y68788D01*
G01X65836Y68788D01*
G01X65732Y68821D01*
G01X65664Y68892D01*
G01X65628Y68996D01*
G01X65628Y69065D01*
G01X65664Y69169D01*
G01X65732Y69237D01*
G01X65836Y69273D01*
G01X65940Y69273D01*
G01X66045Y69237D01*
G01X66078Y69202D01*
G01X66113Y69133D01*
G01X64381Y68648D02*
G01X64452Y68580D01*
G01X64554Y68544D01*
G01X64693Y68544D01*
G01X64797Y68580D01*
G01X64866Y68648D01*
G01X64866Y68719D01*
G01X64833Y68788D01*
G01X64797Y68821D01*
G01X64729Y68856D01*
G01X64521Y68925D01*
G01X64452Y68961D01*
G01X64416Y68996D01*
G01X64381Y69065D01*
G01X64381Y69169D01*
G01X64452Y69237D01*
G01X64554Y69273D01*
G01X64693Y69273D01*
G01X64797Y69237D01*
G01X64866Y69169D01*
G01X63667Y68648D02*
G01X63738Y68580D01*
G01X63842Y68544D01*
G01X63980Y68544D01*
G01X64084Y68580D01*
G01X64152Y68648D01*
G01X64152Y68719D01*
G01X64119Y68788D01*
G01X64084Y68821D01*
G01X64015Y68856D01*
G01X63807Y68925D01*
G01X63738Y68961D01*
G01X63703Y68996D01*
G01X63667Y69065D01*
G01X63667Y69169D01*
G01X63738Y69237D01*
G01X63842Y69273D01*
G01X63980Y69273D01*
G01X64084Y69237D01*
G01X64152Y69169D01*
G01X66827Y71084D02*
G01X66827Y71813D01*
G01X66827Y71084D02*
G01X66586Y71084D01*
G01X66481Y71120D01*
G01X66410Y71188D01*
G01X66377Y71259D01*
G01X66342Y71361D01*
G01X66342Y71536D01*
G01X66377Y71640D01*
G01X66410Y71709D01*
G01X66481Y71777D01*
G01X66586Y71813D01*
G01X66827Y71813D01*
G01X66113Y71224D02*
G01X66045Y71188D01*
G01X65940Y71084D01*
G01X65940Y71813D01*
G01X65539Y71084D02*
G01X65643Y71120D01*
G01X65676Y71188D01*
G01X65676Y71259D01*
G01X65643Y71328D01*
G01X65572Y71361D01*
G01X65435Y71396D01*
G01X65331Y71432D01*
G01X65262Y71501D01*
G01X65227Y71569D01*
G01X65227Y71673D01*
G01X65262Y71742D01*
G01X65295Y71777D01*
G01X65399Y71813D01*
G01X65539Y71813D01*
G01X65643Y71777D01*
G01X65676Y71742D01*
G01X65712Y71673D01*
G01X65712Y71569D01*
G01X65676Y71501D01*
G01X65608Y71432D01*
G01X65504Y71396D01*
G01X65366Y71361D01*
G01X65295Y71328D01*
G01X65262Y71259D01*
G01X65262Y71188D01*
G01X65295Y71120D01*
G01X65399Y71084D01*
G01X65539Y71084D01*
G01X63980Y71188D02*
G01X64048Y71120D01*
G01X64152Y71084D01*
G01X64292Y71084D01*
G01X64396Y71120D01*
G01X64465Y71188D01*
G01X64465Y71259D01*
G01X64429Y71328D01*
G01X64396Y71361D01*
G01X64325Y71396D01*
G01X64119Y71465D01*
G01X64048Y71501D01*
G01X64015Y71536D01*
G01X63980Y71605D01*
G01X63980Y71709D01*
G01X64048Y71777D01*
G01X64152Y71813D01*
G01X64292Y71813D01*
G01X64396Y71777D01*
G01X64465Y71709D01*
G01X63233Y71259D02*
G01X63266Y71188D01*
G01X63334Y71120D01*
G01X63406Y71084D01*
G01X63543Y71084D01*
G01X63614Y71120D01*
G01X63682Y71188D01*
G01X63715Y71259D01*
G01X63751Y71361D01*
G01X63751Y71536D01*
G01X63715Y71640D01*
G01X63682Y71709D01*
G01X63614Y71777D01*
G01X63543Y71813D01*
G01X63406Y71813D01*
G01X63334Y71777D01*
G01X63266Y71709D01*
G01X63233Y71640D01*
G01X66827Y73624D02*
G01X66827Y74353D01*
G01X66827Y73624D02*
G01X66586Y73624D01*
G01X66481Y73660D01*
G01X66410Y73728D01*
G01X66377Y73799D01*
G01X66342Y73901D01*
G01X66342Y74076D01*
G01X66377Y74180D01*
G01X66410Y74249D01*
G01X66481Y74317D01*
G01X66586Y74353D01*
G01X66827Y74353D01*
G01X66113Y73764D02*
G01X66045Y73728D01*
G01X65940Y73624D01*
G01X65940Y74353D01*
G01X65262Y73868D02*
G01X65295Y73972D01*
G01X65366Y74041D01*
G01X65468Y74076D01*
G01X65504Y74076D01*
G01X65608Y74041D01*
G01X65676Y73972D01*
G01X65712Y73868D01*
G01X65712Y73832D01*
G01X65676Y73728D01*
G01X65608Y73660D01*
G01X65504Y73624D01*
G01X65468Y73624D01*
G01X65366Y73660D01*
G01X65295Y73728D01*
G01X65262Y73868D01*
G01X65262Y74041D01*
G01X65295Y74213D01*
G01X65366Y74317D01*
G01X65468Y74353D01*
G01X65539Y74353D01*
G01X65643Y74317D01*
G01X65676Y74249D01*
G01X64500Y73624D02*
G01X64500Y74353D01*
G01X64500Y73624D02*
G01X64223Y74353D01*
G01X63944Y73624D02*
G01X64223Y74353D01*
G01X63944Y73624D02*
G01X63944Y74353D01*
G01X63715Y73624D02*
G01X63715Y74353D01*
G01X66827Y76164D02*
G01X66827Y76893D01*
G01X66827Y76164D02*
G01X66586Y76164D01*
G01X66481Y76200D01*
G01X66410Y76268D01*
G01X66377Y76339D01*
G01X66342Y76441D01*
G01X66342Y76616D01*
G01X66377Y76720D01*
G01X66410Y76789D01*
G01X66481Y76857D01*
G01X66586Y76893D01*
G01X66827Y76893D01*
G01X66078Y76339D02*
G01X66078Y76304D01*
G01X66045Y76235D01*
G01X66009Y76200D01*
G01X65940Y76164D01*
G01X65801Y76164D01*
G01X65732Y76200D01*
G01X65697Y76235D01*
G01X65664Y76304D01*
G01X65664Y76372D01*
G01X65697Y76441D01*
G01X65768Y76545D01*
G01X66113Y76893D01*
G01X65628Y76893D01*
G01X65399Y76304D02*
G01X65331Y76268D01*
G01X65227Y76164D01*
G01X65227Y76893D01*
G01X66586Y81244D02*
G01X66586Y81973D01*
G01X66827Y81244D02*
G01X66342Y81244D01*
G01X66113Y81244D02*
G01X65628Y81973D01*
G01X65628Y81244D02*
G01X66113Y81973D01*
G01X65191Y81244D02*
G01X65295Y81280D01*
G01X65366Y81384D01*
G01X65399Y81556D01*
G01X65399Y81661D01*
G01X65366Y81833D01*
G01X65295Y81937D01*
G01X65191Y81973D01*
G01X65123Y81973D01*
G01X65018Y81937D01*
G01X64950Y81833D01*
G01X64914Y81661D01*
G01X64914Y81556D01*
G01X64950Y81384D01*
G01X65018Y81280D01*
G01X65123Y81244D01*
G01X65191Y81244D01*
G01X66827Y83784D02*
G01X66827Y84513D01*
G01X66827Y83784D02*
G01X66586Y83784D01*
G01X66481Y83820D01*
G01X66410Y83888D01*
G01X66377Y83959D01*
G01X66342Y84061D01*
G01X66342Y84236D01*
G01X66377Y84340D01*
G01X66410Y84409D01*
G01X66481Y84477D01*
G01X66586Y84513D01*
G01X66827Y84513D01*
G01X66078Y83959D02*
G01X66078Y83924D01*
G01X66045Y83855D01*
G01X66009Y83820D01*
G01X65940Y83784D01*
G01X65801Y83784D01*
G01X65732Y83820D01*
G01X65697Y83855D01*
G01X65664Y83924D01*
G01X65664Y83992D01*
G01X65697Y84061D01*
G01X65768Y84165D01*
G01X66113Y84513D01*
G01X65628Y84513D01*
G01X65366Y83959D02*
G01X65366Y83924D01*
G01X65331Y83855D01*
G01X65295Y83820D01*
G01X65227Y83784D01*
G01X65087Y83784D01*
G01X65018Y83820D01*
G01X64985Y83855D01*
G01X64950Y83924D01*
G01X64950Y83992D01*
G01X64985Y84061D01*
G01X65054Y84165D01*
G01X65399Y84513D01*
G01X64914Y84513D01*
G01X66827Y86070D02*
G01X66827Y86799D01*
G01X66827Y86070D02*
G01X66586Y86070D01*
G01X66481Y86106D01*
G01X66410Y86174D01*
G01X66377Y86245D01*
G01X66342Y86347D01*
G01X66342Y86522D01*
G01X66377Y86626D01*
G01X66410Y86695D01*
G01X66481Y86763D01*
G01X66586Y86799D01*
G01X66827Y86799D01*
G01X66078Y86245D02*
G01X66078Y86210D01*
G01X66045Y86141D01*
G01X66009Y86106D01*
G01X65940Y86070D01*
G01X65801Y86070D01*
G01X65732Y86106D01*
G01X65697Y86141D01*
G01X65664Y86210D01*
G01X65664Y86278D01*
G01X65697Y86347D01*
G01X65768Y86451D01*
G01X66113Y86799D01*
G01X65628Y86799D01*
G01X65331Y86070D02*
G01X64950Y86070D01*
G01X65158Y86347D01*
G01X65054Y86347D01*
G01X64985Y86382D01*
G01X64950Y86418D01*
G01X64914Y86522D01*
G01X64914Y86591D01*
G01X64950Y86695D01*
G01X65018Y86763D01*
G01X65123Y86799D01*
G01X65227Y86799D01*
G01X65331Y86763D01*
G01X65366Y86728D01*
G01X65399Y86659D01*
G01X64152Y86070D02*
G01X64152Y86799D01*
G01X64152Y86070D02*
G01X63875Y86799D01*
G01X63599Y86070D02*
G01X63875Y86799D01*
G01X63599Y86070D02*
G01X63599Y86799D01*
G01X63162Y86070D02*
G01X63233Y86106D01*
G01X63301Y86174D01*
G01X63334Y86245D01*
G01X63370Y86347D01*
G01X63370Y86522D01*
G01X63334Y86626D01*
G01X63301Y86695D01*
G01X63233Y86763D01*
G01X63162Y86799D01*
G01X63025Y86799D01*
G01X62953Y86763D01*
G01X62885Y86695D01*
G01X62852Y86626D01*
G01X62816Y86522D01*
G01X62816Y86347D01*
G01X62852Y86245D01*
G01X62885Y86174D01*
G01X62953Y86106D01*
G01X63025Y86070D01*
G01X63162Y86070D01*
G01X46507Y86324D02*
G01X46507Y87053D01*
G01X46507Y86324D02*
G01X46057Y86324D01*
G01X46507Y86672D02*
G01X46230Y86672D01*
G01X46507Y87053D02*
G01X46057Y87053D01*
G01X45829Y86324D02*
G01X45829Y87053D01*
G01X45829Y86324D02*
G01X45344Y87053D01*
G01X45344Y86324D02*
G01X45344Y87053D01*
G54D30*
G01X58907Y1701D02*
G01X58958Y1651D01*
G01X59011Y1701D01*
G01X58958Y1755D01*
G01X58907Y1701D01*
G01X22097Y89585D02*
G01X22097Y88496D01*
G01X22097Y89585D02*
G01X22565Y89585D01*
G01X22720Y89535D01*
G01X22773Y89484D01*
G01X22824Y89380D01*
G01X22824Y89275D01*
G01X22773Y89171D01*
G01X22720Y89118D01*
G01X22565Y89067D01*
G01X22097Y89067D01*
G01X22461Y89067D02*
G01X22824Y88496D01*
G01X23167Y89585D02*
G01X23167Y88496D01*
G01X23167Y89585D02*
G01X23842Y89585D01*
G01X23167Y89067D02*
G01X23583Y89067D01*
G01X23167Y88496D02*
G01X23842Y88496D01*
G01X24185Y89585D02*
G01X24185Y88496D01*
G01X24185Y88496D02*
G01X24810Y88496D01*
G01X25567Y89585D02*
G01X25153Y88496D01*
G01X25567Y89585D02*
G01X25984Y88496D01*
G01X25308Y88859D02*
G01X25829Y88859D01*
G01X26327Y89585D02*
G01X26743Y89067D01*
G01X26743Y88496D01*
G01X27157Y89585D02*
G01X26743Y89067D01*
G01X27500Y89380D02*
G01X27604Y89430D01*
G01X27762Y89585D01*
G01X27762Y88496D01*
G01X11328Y87442D02*
G01X12418Y87442D01*
G01X11328Y87442D02*
G01X11328Y87805D01*
G01X11379Y87962D01*
G01X11483Y88064D01*
G01X11587Y88117D01*
G01X11742Y88168D01*
G01X12001Y88168D01*
G01X12158Y88117D01*
G01X12263Y88064D01*
G01X12367Y87962D01*
G01X12418Y87805D01*
G01X12418Y87442D01*
G01X11534Y88511D02*
G01X11483Y88615D01*
G01X11328Y88773D01*
G01X12418Y88773D01*
G01X22097Y71551D02*
G01X22097Y70462D01*
G01X22097Y71551D02*
G01X22565Y71551D01*
G01X22720Y71501D01*
G01X22773Y71450D01*
G01X22824Y71346D01*
G01X22824Y71241D01*
G01X22773Y71137D01*
G01X22720Y71084D01*
G01X22565Y71033D01*
G01X22097Y71033D01*
G01X22461Y71033D02*
G01X22824Y70462D01*
G01X23167Y71551D02*
G01X23167Y70462D01*
G01X23167Y71551D02*
G01X23842Y71551D01*
G01X23167Y71033D02*
G01X23583Y71033D01*
G01X23167Y70462D02*
G01X23842Y70462D01*
G01X24185Y71551D02*
G01X24185Y70462D01*
G01X24185Y70462D02*
G01X24810Y70462D01*
G01X25567Y71551D02*
G01X25153Y70462D01*
G01X25567Y71551D02*
G01X25984Y70462D01*
G01X25308Y70825D02*
G01X25829Y70825D01*
G01X26327Y71551D02*
G01X26743Y71033D01*
G01X26743Y70462D01*
G01X27157Y71551D02*
G01X26743Y71033D01*
G01X27553Y71292D02*
G01X27553Y71346D01*
G01X27604Y71450D01*
G01X27658Y71501D01*
G01X27762Y71551D01*
G01X27967Y71551D01*
G01X28072Y71501D01*
G01X28125Y71450D01*
G01X28176Y71346D01*
G01X28176Y71241D01*
G01X28125Y71137D01*
G01X28021Y70980D01*
G01X27500Y70462D01*
G01X28229Y70462D01*
G01X10693Y69247D02*
G01X11783Y69247D01*
G01X10693Y69247D02*
G01X10693Y69611D01*
G01X10744Y69768D01*
G01X10848Y69870D01*
G01X10952Y69923D01*
G01X11107Y69974D01*
G01X11366Y69974D01*
G01X11523Y69923D01*
G01X11628Y69870D01*
G01X11732Y69768D01*
G01X11783Y69611D01*
G01X11783Y69247D01*
G01X10952Y70370D02*
G01X10899Y70370D01*
G01X10794Y70421D01*
G01X10744Y70474D01*
G01X10693Y70578D01*
G01X10693Y70784D01*
G01X10744Y70888D01*
G01X10794Y70942D01*
G01X10899Y70992D01*
G01X11003Y70992D01*
G01X11107Y70942D01*
G01X11264Y70838D01*
G01X11783Y70317D01*
G01X11783Y71046D01*
G01X22097Y53390D02*
G01X22097Y52301D01*
G01X22097Y53390D02*
G01X22565Y53390D01*
G01X22720Y53340D01*
G01X22773Y53289D01*
G01X22824Y53185D01*
G01X22824Y53080D01*
G01X22773Y52976D01*
G01X22720Y52923D01*
G01X22565Y52872D01*
G01X22097Y52872D01*
G01X22461Y52872D02*
G01X22824Y52301D01*
G01X23167Y53390D02*
G01X23167Y52301D01*
G01X23167Y53390D02*
G01X23842Y53390D01*
G01X23167Y52872D02*
G01X23583Y52872D01*
G01X23167Y52301D02*
G01X23842Y52301D01*
G01X24185Y53390D02*
G01X24185Y52301D01*
G01X24185Y52301D02*
G01X24810Y52301D01*
G01X25567Y53390D02*
G01X25153Y52301D01*
G01X25567Y53390D02*
G01X25984Y52301D01*
G01X25308Y52664D02*
G01X25829Y52664D01*
G01X26327Y53390D02*
G01X26743Y52872D01*
G01X26743Y52301D01*
G01X27157Y53390D02*
G01X26743Y52872D01*
G01X27604Y53390D02*
G01X28176Y53390D01*
G01X27863Y52976D01*
G01X28021Y52976D01*
G01X28125Y52923D01*
G01X28176Y52872D01*
G01X28229Y52717D01*
G01X28229Y52613D01*
G01X28176Y52456D01*
G01X28072Y52351D01*
G01X27917Y52301D01*
G01X27762Y52301D01*
G01X27604Y52351D01*
G01X27553Y52405D01*
G01X27500Y52509D01*
G01X10439Y51033D02*
G01X11529Y51033D01*
G01X10439Y51033D02*
G01X10439Y51396D01*
G01X10490Y51554D01*
G01X10594Y51655D01*
G01X10698Y51709D01*
G01X10853Y51760D01*
G01X11112Y51760D01*
G01X11269Y51709D01*
G01X11374Y51655D01*
G01X11478Y51554D01*
G01X11529Y51396D01*
G01X11529Y51033D01*
G01X10439Y52207D02*
G01X10439Y52778D01*
G01X10853Y52468D01*
G01X10853Y52623D01*
G01X10906Y52727D01*
G01X10957Y52778D01*
G01X11112Y52831D01*
G01X11216Y52831D01*
G01X11374Y52778D01*
G01X11478Y52674D01*
G01X11529Y52519D01*
G01X11529Y52364D01*
G01X11478Y52207D01*
G01X11424Y52156D01*
G01X11320Y52102D01*
G01X21996Y35674D02*
G01X21996Y34584D01*
G01X21996Y35674D02*
G01X22463Y35674D01*
G01X22618Y35623D01*
G01X22672Y35572D01*
G01X22722Y35468D01*
G01X22722Y35364D01*
G01X22672Y35260D01*
G01X22618Y35206D01*
G01X22463Y35156D01*
G01X21996Y35156D01*
G01X22359Y35156D02*
G01X22722Y34584D01*
G01X23065Y35674D02*
G01X23065Y34584D01*
G01X23065Y35674D02*
G01X23741Y35674D01*
G01X23065Y35156D02*
G01X23482Y35156D01*
G01X23065Y34584D02*
G01X23741Y34584D01*
G01X24084Y35674D02*
G01X24084Y34584D01*
G01X24084Y34584D02*
G01X24709Y34584D01*
G01X25466Y35674D02*
G01X25052Y34584D01*
G01X25466Y35674D02*
G01X25882Y34584D01*
G01X25206Y34947D02*
G01X25727Y34947D01*
G01X26225Y35674D02*
G01X26642Y35156D01*
G01X26642Y34584D01*
G01X27056Y35674D02*
G01X26642Y35156D01*
G01X27919Y35674D02*
G01X27398Y34947D01*
G01X28178Y34947D01*
G01X27919Y35674D02*
G01X27919Y34584D01*
G01X11074Y33380D02*
G01X12164Y33380D01*
G01X11074Y33380D02*
G01X11074Y33743D01*
G01X11125Y33901D01*
G01X11229Y34002D01*
G01X11333Y34056D01*
G01X11488Y34107D01*
G01X11747Y34107D01*
G01X11904Y34056D01*
G01X12009Y34002D01*
G01X12113Y33901D01*
G01X12164Y33743D01*
G01X12164Y33380D01*
G01X11074Y34970D02*
G01X11800Y34449D01*
G01X11800Y35229D01*
G01X11074Y34970D02*
G01X12164Y34970D01*
G01X21970Y17703D02*
G01X21970Y16614D01*
G01X21970Y17703D02*
G01X22438Y17703D01*
G01X22593Y17653D01*
G01X22646Y17602D01*
G01X22697Y17498D01*
G01X22697Y17393D01*
G01X22646Y17289D01*
G01X22593Y17236D01*
G01X22438Y17185D01*
G01X21970Y17185D01*
G01X22334Y17185D02*
G01X22697Y16614D01*
G01X23040Y17703D02*
G01X23040Y16614D01*
G01X23040Y17703D02*
G01X23715Y17703D01*
G01X23040Y17185D02*
G01X23456Y17185D01*
G01X23040Y16614D02*
G01X23715Y16614D01*
G01X24058Y17703D02*
G01X24058Y16614D01*
G01X24058Y16614D02*
G01X24683Y16614D01*
G01X25440Y17703D02*
G01X25026Y16614D01*
G01X25440Y17703D02*
G01X25857Y16614D01*
G01X25181Y16977D02*
G01X25702Y16977D01*
G01X26200Y17703D02*
G01X26616Y17185D01*
G01X26616Y16614D01*
G01X27030Y17703D02*
G01X26616Y17185D01*
G01X27998Y17703D02*
G01X27477Y17703D01*
G01X27426Y17236D01*
G01X27477Y17289D01*
G01X27635Y17340D01*
G01X27790Y17340D01*
G01X27945Y17289D01*
G01X28049Y17185D01*
G01X28102Y17030D01*
G01X28102Y16926D01*
G01X28049Y16769D01*
G01X27945Y16664D01*
G01X27790Y16614D01*
G01X27635Y16614D01*
G01X27477Y16664D01*
G01X27426Y16718D01*
G01X27373Y16822D01*
G01X10566Y15526D02*
G01X11656Y15526D01*
G01X10566Y15526D02*
G01X10566Y15890D01*
G01X10617Y16047D01*
G01X10721Y16149D01*
G01X10825Y16202D01*
G01X10980Y16253D01*
G01X11239Y16253D01*
G01X11396Y16202D01*
G01X11501Y16149D01*
G01X11605Y16047D01*
G01X11656Y15890D01*
G01X11656Y15526D01*
G01X10566Y17221D02*
G01X10566Y16700D01*
G01X11033Y16649D01*
G01X10980Y16700D01*
G01X10929Y16857D01*
G01X10929Y17012D01*
G01X10980Y17167D01*
G01X11084Y17271D01*
G01X11239Y17325D01*
G01X11343Y17325D01*
G01X11501Y17271D01*
G01X11605Y17167D01*
G01X11656Y17012D01*
G01X11656Y16857D01*
G01X11605Y16700D01*
G01X11551Y16649D01*
G01X11447Y16596D01*
G01X84244Y85938D02*
G01X84244Y84848D01*
G01X84244Y85938D02*
G01X84711Y85938D01*
G01X84866Y85887D01*
G01X84919Y85836D01*
G01X84970Y85732D01*
G01X84970Y85628D01*
G01X84919Y85524D01*
G01X84866Y85471D01*
G01X84711Y85420D01*
G01X84244Y85420D01*
G01X84607Y85420D02*
G01X84970Y84848D01*
G01X85313Y85938D02*
G01X85313Y84848D01*
G01X85313Y85938D02*
G01X85989Y85938D01*
G01X85313Y85420D02*
G01X85730Y85420D01*
G01X85313Y84848D02*
G01X85989Y84848D01*
G01X86332Y85938D02*
G01X86332Y84848D01*
G01X86332Y84848D02*
G01X86956Y84848D01*
G01X87713Y85938D02*
G01X87299Y84848D01*
G01X87713Y85938D02*
G01X88130Y84848D01*
G01X87454Y85211D02*
G01X87975Y85211D01*
G01X88473Y85938D02*
G01X88889Y85420D01*
G01X88889Y84848D01*
G01X89303Y85938D02*
G01X88889Y85420D01*
G01X90271Y85783D02*
G01X90218Y85887D01*
G01X90063Y85938D01*
G01X89959Y85938D01*
G01X89804Y85887D01*
G01X89700Y85732D01*
G01X89646Y85471D01*
G01X89646Y85211D01*
G01X89700Y85003D01*
G01X89804Y84899D01*
G01X89959Y84848D01*
G01X90009Y84848D01*
G01X90167Y84899D01*
G01X90271Y85003D01*
G01X90322Y85161D01*
G01X90322Y85211D01*
G01X90271Y85366D01*
G01X90167Y85471D01*
G01X90009Y85524D01*
G01X89959Y85524D01*
G01X89804Y85471D01*
G01X89700Y85366D01*
G01X89646Y85211D01*
G01X99847Y85504D02*
G01X100937Y85504D01*
G01X99847Y85504D02*
G01X99847Y85867D01*
G01X99898Y86024D01*
G01X100002Y86126D01*
G01X100106Y86179D01*
G01X100261Y86230D01*
G01X100520Y86230D01*
G01X100677Y86179D01*
G01X100782Y86126D01*
G01X100886Y86024D01*
G01X100937Y85867D01*
G01X100937Y85504D01*
G01X100002Y87198D02*
G01X99898Y87144D01*
G01X99847Y86989D01*
G01X99847Y86885D01*
G01X99898Y86730D01*
G01X100053Y86626D01*
G01X100314Y86573D01*
G01X100573Y86573D01*
G01X100782Y86626D01*
G01X100886Y86730D01*
G01X100937Y86885D01*
G01X100937Y86939D01*
G01X100886Y87094D01*
G01X100782Y87198D01*
G01X100624Y87249D01*
G01X100573Y87249D01*
G01X100418Y87198D01*
G01X100314Y87094D01*
G01X100261Y86939D01*
G01X100261Y86885D01*
G01X100314Y86730D01*
G01X100418Y86626D01*
G01X100573Y86573D01*
G01X84625Y67904D02*
G01X84625Y66814D01*
G01X84625Y67904D02*
G01X85092Y67904D01*
G01X85247Y67853D01*
G01X85300Y67802D01*
G01X85351Y67698D01*
G01X85351Y67594D01*
G01X85300Y67490D01*
G01X85247Y67437D01*
G01X85092Y67386D01*
G01X84625Y67386D01*
G01X84988Y67386D02*
G01X85351Y66814D01*
G01X85694Y67904D02*
G01X85694Y66814D01*
G01X85694Y67904D02*
G01X86370Y67904D01*
G01X85694Y67386D02*
G01X86111Y67386D01*
G01X85694Y66814D02*
G01X86370Y66814D01*
G01X86713Y67904D02*
G01X86713Y66814D01*
G01X86713Y66814D02*
G01X87337Y66814D01*
G01X88094Y67904D02*
G01X87680Y66814D01*
G01X88094Y67904D02*
G01X88511Y66814D01*
G01X87835Y67177D02*
G01X88356Y67177D01*
G01X88854Y67904D02*
G01X89270Y67386D01*
G01X89270Y66814D01*
G01X89684Y67904D02*
G01X89270Y67386D01*
G01X90756Y67904D02*
G01X90236Y66814D01*
G01X90027Y67904D02*
G01X90756Y67904D01*
G01X100355Y67543D02*
G01X101445Y67543D01*
G01X100355Y67543D02*
G01X100355Y67906D01*
G01X100406Y68064D01*
G01X100510Y68166D01*
G01X100614Y68219D01*
G01X100769Y68270D01*
G01X101028Y68270D01*
G01X101185Y68219D01*
G01X101290Y68166D01*
G01X101394Y68064D01*
G01X101445Y67906D01*
G01X101445Y67543D01*
G01X100355Y69342D02*
G01X101445Y68821D01*
G01X100355Y68613D02*
G01X100355Y69342D01*
G01X84498Y48854D02*
G01X84498Y47764D01*
G01X84498Y48854D02*
G01X84965Y48854D01*
G01X85120Y48803D01*
G01X85173Y48752D01*
G01X85224Y48648D01*
G01X85224Y48544D01*
G01X85173Y48440D01*
G01X85120Y48387D01*
G01X84965Y48336D01*
G01X84498Y48336D01*
G01X84861Y48336D02*
G01X85224Y47764D01*
G01X85567Y48854D02*
G01X85567Y47764D01*
G01X85567Y48854D02*
G01X86243Y48854D01*
G01X85567Y48336D02*
G01X85984Y48336D01*
G01X85567Y47764D02*
G01X86243Y47764D01*
G01X86586Y48854D02*
G01X86586Y47764D01*
G01X86586Y47764D02*
G01X87210Y47764D01*
G01X87967Y48854D02*
G01X87553Y47764D01*
G01X87967Y48854D02*
G01X88384Y47764D01*
G01X87708Y48127D02*
G01X88229Y48127D01*
G01X88727Y48854D02*
G01X89143Y48336D01*
G01X89143Y47764D01*
G01X89557Y48854D02*
G01X89143Y48336D01*
G01X90162Y48854D02*
G01X90004Y48803D01*
G01X89954Y48699D01*
G01X89954Y48595D01*
G01X90004Y48491D01*
G01X90109Y48440D01*
G01X90317Y48387D01*
G01X90472Y48336D01*
G01X90576Y48232D01*
G01X90629Y48127D01*
G01X90629Y47972D01*
G01X90576Y47868D01*
G01X90525Y47815D01*
G01X90368Y47764D01*
G01X90162Y47764D01*
G01X90004Y47815D01*
G01X89954Y47868D01*
G01X89900Y47972D01*
G01X89900Y48127D01*
G01X89954Y48232D01*
G01X90058Y48336D01*
G01X90213Y48387D01*
G01X90421Y48440D01*
G01X90525Y48491D01*
G01X90576Y48595D01*
G01X90576Y48699D01*
G01X90525Y48803D01*
G01X90368Y48854D01*
G01X90162Y48854D01*
G01X100228Y48493D02*
G01X101318Y48493D01*
G01X100228Y48493D02*
G01X100228Y48856D01*
G01X100279Y49014D01*
G01X100383Y49116D01*
G01X100487Y49169D01*
G01X100642Y49220D01*
G01X100901Y49220D01*
G01X101058Y49169D01*
G01X101163Y49116D01*
G01X101267Y49014D01*
G01X101318Y48856D01*
G01X101318Y48493D01*
G01X100228Y49824D02*
G01X100279Y49667D01*
G01X100383Y49616D01*
G01X100487Y49616D01*
G01X100591Y49667D01*
G01X100642Y49771D01*
G01X100695Y49979D01*
G01X100746Y50134D01*
G01X100850Y50238D01*
G01X100954Y50292D01*
G01X101109Y50292D01*
G01X101213Y50238D01*
G01X101267Y50187D01*
G01X101318Y50030D01*
G01X101318Y49824D01*
G01X101267Y49667D01*
G01X101213Y49616D01*
G01X101109Y49563D01*
G01X100954Y49563D01*
G01X100850Y49616D01*
G01X100746Y49720D01*
G01X100695Y49875D01*
G01X100642Y50083D01*
G01X100591Y50187D01*
G01X100487Y50238D01*
G01X100383Y50238D01*
G01X100279Y50187D01*
G01X100228Y50030D01*
G01X100228Y49824D01*
G01X84498Y30820D02*
G01X84498Y29730D01*
G01X84498Y30820D02*
G01X84965Y30820D01*
G01X85120Y30769D01*
G01X85173Y30718D01*
G01X85224Y30614D01*
G01X85224Y30510D01*
G01X85173Y30406D01*
G01X85120Y30353D01*
G01X84965Y30302D01*
G01X84498Y30302D01*
G01X84861Y30302D02*
G01X85224Y29730D01*
G01X85567Y30820D02*
G01X85567Y29730D01*
G01X85567Y30820D02*
G01X86243Y30820D01*
G01X85567Y30302D02*
G01X85984Y30302D01*
G01X85567Y29730D02*
G01X86243Y29730D01*
G01X86586Y30820D02*
G01X86586Y29730D01*
G01X86586Y29730D02*
G01X87210Y29730D01*
G01X87967Y30820D02*
G01X87553Y29730D01*
G01X87967Y30820D02*
G01X88384Y29730D01*
G01X87708Y30093D02*
G01X88229Y30093D01*
G01X88727Y30820D02*
G01X89143Y30302D01*
G01X89143Y29730D01*
G01X89557Y30820D02*
G01X89143Y30302D01*
G01X90576Y30457D02*
G01X90525Y30302D01*
G01X90421Y30198D01*
G01X90263Y30147D01*
G01X90213Y30147D01*
G01X90058Y30198D01*
G01X89954Y30302D01*
G01X89900Y30457D01*
G01X89900Y30510D01*
G01X89954Y30665D01*
G01X90058Y30769D01*
G01X90213Y30820D01*
G01X90263Y30820D01*
G01X90421Y30769D01*
G01X90525Y30665D01*
G01X90576Y30457D01*
G01X90576Y30198D01*
G01X90525Y29938D01*
G01X90421Y29781D01*
G01X90263Y29730D01*
G01X90162Y29730D01*
G01X90004Y29781D01*
G01X89954Y29885D01*
G01X100355Y30259D02*
G01X101445Y30259D01*
G01X100355Y30259D02*
G01X100355Y30622D01*
G01X100406Y30779D01*
G01X100510Y30881D01*
G01X100614Y30934D01*
G01X100769Y30985D01*
G01X101028Y30985D01*
G01X101185Y30934D01*
G01X101290Y30881D01*
G01X101394Y30779D01*
G01X101445Y30622D01*
G01X101445Y30259D01*
G01X100718Y32004D02*
G01X100873Y31953D01*
G01X100977Y31849D01*
G01X101028Y31694D01*
G01X101028Y31640D01*
G01X100977Y31485D01*
G01X100873Y31381D01*
G01X100718Y31328D01*
G01X100665Y31328D01*
G01X100510Y31381D01*
G01X100406Y31485D01*
G01X100355Y31640D01*
G01X100355Y31694D01*
G01X100406Y31849D01*
G01X100510Y31953D01*
G01X100718Y32004D01*
G01X100977Y32004D01*
G01X101236Y31953D01*
G01X101394Y31849D01*
G01X101445Y31694D01*
G01X101445Y31589D01*
G01X101394Y31432D01*
G01X101290Y31381D01*
G01X84117Y12913D02*
G01X84117Y11823D01*
G01X84117Y12913D02*
G01X84584Y12913D01*
G01X84739Y12862D01*
G01X84792Y12811D01*
G01X84843Y12707D01*
G01X84843Y12603D01*
G01X84792Y12499D01*
G01X84739Y12446D01*
G01X84584Y12395D01*
G01X84117Y12395D01*
G01X84480Y12395D02*
G01X84843Y11823D01*
G01X85186Y12913D02*
G01X85186Y11823D01*
G01X85186Y12913D02*
G01X85862Y12913D01*
G01X85186Y12395D02*
G01X85603Y12395D01*
G01X85186Y11823D02*
G01X85862Y11823D01*
G01X86205Y12913D02*
G01X86205Y11823D01*
G01X86205Y11823D02*
G01X86829Y11823D01*
G01X87586Y12913D02*
G01X87172Y11823D01*
G01X87586Y12913D02*
G01X88003Y11823D01*
G01X87327Y12186D02*
G01X87848Y12186D01*
G01X88346Y12913D02*
G01X88762Y12395D01*
G01X88762Y11823D01*
G01X89176Y12913D02*
G01X88762Y12395D01*
G01X89519Y12707D02*
G01X89623Y12758D01*
G01X89781Y12913D01*
G01X89781Y11823D01*
G01X90434Y12913D02*
G01X90279Y12862D01*
G01X90175Y12707D01*
G01X90124Y12446D01*
G01X90124Y12291D01*
G01X90175Y12031D01*
G01X90279Y11874D01*
G01X90434Y11823D01*
G01X90538Y11823D01*
G01X90695Y11874D01*
G01X90797Y12031D01*
G01X90850Y12291D01*
G01X90850Y12446D01*
G01X90797Y12707D01*
G01X90695Y12862D01*
G01X90538Y12913D01*
G01X90434Y12913D01*
G01X100101Y12153D02*
G01X101191Y12153D01*
G01X100101Y12153D02*
G01X100101Y12517D01*
G01X100152Y12674D01*
G01X100256Y12776D01*
G01X100360Y12829D01*
G01X100515Y12880D01*
G01X100774Y12880D01*
G01X100931Y12829D01*
G01X101036Y12776D01*
G01X101140Y12674D01*
G01X101191Y12517D01*
G01X101191Y12153D01*
G01X100307Y13223D02*
G01X100256Y13327D01*
G01X100101Y13484D01*
G01X101191Y13484D01*
G01X100101Y14137D02*
G01X100152Y13982D01*
G01X100307Y13878D01*
G01X100568Y13827D01*
G01X100723Y13827D01*
G01X100982Y13878D01*
G01X101140Y13982D01*
G01X101191Y14137D01*
G01X101191Y14241D01*
G01X101140Y14399D01*
G01X100982Y14503D01*
G01X100723Y14554D01*
G01X100568Y14554D01*
G01X100307Y14503D01*
G01X100152Y14399D01*
G01X100101Y14241D01*
G01X100101Y14137D01*
G01X45758Y20513D02*
G01X46847Y20513D01*
G01X45758Y20513D02*
G01X45758Y20980D01*
G01X45808Y21135D01*
G01X45859Y21188D01*
G01X45963Y21239D01*
G01X46067Y21239D01*
G01X46172Y21188D01*
G01X46225Y21135D01*
G01X46276Y20980D01*
G01X46276Y20513D01*
G01X46276Y20876D02*
G01X46847Y21239D01*
G01X45758Y21582D02*
G01X46847Y21582D01*
G01X45758Y21582D02*
G01X45758Y22258D01*
G01X46276Y21582D02*
G01X46276Y21998D01*
G01X46847Y21582D02*
G01X46847Y22258D01*
G01X45758Y22600D02*
G01X46847Y22600D01*
G01X46847Y22600D02*
G01X46847Y23225D01*
G01X45758Y23982D02*
G01X46847Y23568D01*
G01X45758Y23982D02*
G01X46847Y24399D01*
G01X46484Y23723D02*
G01X46484Y24244D01*
G01X45758Y24742D02*
G01X46276Y25158D01*
G01X46847Y25158D01*
G01X45758Y25572D02*
G01X46276Y25158D01*
G01X45963Y25915D02*
G01X45913Y26019D01*
G01X45758Y26177D01*
G01X46847Y26177D01*
G01X45963Y26520D02*
G01X45913Y26621D01*
G01X45758Y26779D01*
G01X46847Y26779D01*
G01X45872Y11176D02*
G01X45872Y10086D01*
G01X45872Y11176D02*
G01X46235Y11176D01*
G01X46393Y11125D01*
G01X46494Y11021D01*
G01X46548Y10916D01*
G01X46598Y10761D01*
G01X46598Y10502D01*
G01X46548Y10345D01*
G01X46494Y10241D01*
G01X46393Y10137D01*
G01X46235Y10086D01*
G01X45872Y10086D01*
G01X46941Y10970D02*
G01X47045Y11021D01*
G01X47203Y11176D01*
G01X47203Y10086D01*
G01X47546Y10970D02*
G01X47650Y11021D01*
G01X47805Y11176D01*
G01X47805Y10086D01*
G01X37853Y84569D02*
G01X37853Y83479D01*
G01X37490Y84569D02*
G01X38216Y84569D01*
G01X38559Y84363D02*
G01X38663Y84414D01*
G01X38821Y84569D01*
G01X38821Y83479D01*
G01X35979Y92837D02*
G01X37068Y92837D01*
G01X35979Y92837D02*
G01X35979Y93304D01*
G01X36029Y93459D01*
G01X36080Y93512D01*
G01X36184Y93563D01*
G01X36288Y93563D01*
G01X36393Y93512D01*
G01X36446Y93459D01*
G01X36497Y93304D01*
G01X36497Y92837D01*
G01X36497Y93200D02*
G01X37068Y93563D01*
G01X36184Y93906D02*
G01X36134Y94010D01*
G01X35979Y94167D01*
G01X37068Y94167D01*
G01X38361Y65278D02*
G01X38361Y64188D01*
G01X37998Y65278D02*
G01X38724Y65278D01*
G01X39121Y65018D02*
G01X39121Y65072D01*
G01X39171Y65176D01*
G01X39225Y65227D01*
G01X39329Y65278D01*
G01X39535Y65278D01*
G01X39639Y65227D01*
G01X39692Y65176D01*
G01X39743Y65072D01*
G01X39743Y64968D01*
G01X39692Y64863D01*
G01X39588Y64706D01*
G01X39067Y64188D01*
G01X39796Y64188D01*
G01X36220Y72750D02*
G01X37310Y72750D01*
G01X36220Y72750D02*
G01X36220Y73218D01*
G01X36271Y73372D01*
G01X36321Y73426D01*
G01X36426Y73477D01*
G01X36530Y73477D01*
G01X36634Y73426D01*
G01X36687Y73372D01*
G01X36738Y73218D01*
G01X36738Y72750D01*
G01X36738Y73113D02*
G01X37310Y73477D01*
G01X36479Y73873D02*
G01X36426Y73873D01*
G01X36321Y73924D01*
G01X36271Y73977D01*
G01X36220Y74081D01*
G01X36220Y74287D01*
G01X36271Y74391D01*
G01X36321Y74444D01*
G01X36426Y74495D01*
G01X36530Y74495D01*
G01X36634Y74444D01*
G01X36791Y74340D01*
G01X37310Y73819D01*
G01X37310Y74548D01*
G01X38361Y46609D02*
G01X38361Y45519D01*
G01X37998Y46609D02*
G01X38724Y46609D01*
G01X39171Y46609D02*
G01X39743Y46609D01*
G01X39433Y46194D01*
G01X39588Y46194D01*
G01X39692Y46141D01*
G01X39743Y46090D01*
G01X39796Y45935D01*
G01X39796Y45831D01*
G01X39743Y45674D01*
G01X39639Y45570D01*
G01X39484Y45519D01*
G01X39329Y45519D01*
G01X39171Y45570D01*
G01X39121Y45623D01*
G01X39067Y45727D01*
G01X36347Y53880D02*
G01X37437Y53880D01*
G01X36347Y53880D02*
G01X36347Y54348D01*
G01X36398Y54503D01*
G01X36449Y54556D01*
G01X36553Y54607D01*
G01X36657Y54607D01*
G01X36761Y54556D01*
G01X36814Y54503D01*
G01X36865Y54348D01*
G01X36865Y53880D01*
G01X36865Y54244D02*
G01X37437Y54607D01*
G01X36347Y55054D02*
G01X36347Y55625D01*
G01X36761Y55316D01*
G01X36761Y55470D01*
G01X36814Y55575D01*
G01X36865Y55625D01*
G01X37020Y55679D01*
G01X37124Y55679D01*
G01X37282Y55625D01*
G01X37386Y55521D01*
G01X37437Y55366D01*
G01X37437Y55211D01*
G01X37386Y55054D01*
G01X37332Y55003D01*
G01X37228Y54950D01*
G01X36583Y31750D02*
G01X36583Y30660D01*
G01X36220Y31750D02*
G01X36946Y31750D01*
G01X37810Y31750D02*
G01X37289Y31023D01*
G01X38069Y31023D01*
G01X37810Y31750D02*
G01X37810Y30660D01*
G01X36220Y35793D02*
G01X37310Y35793D01*
G01X36220Y35793D02*
G01X36220Y36260D01*
G01X36271Y36415D01*
G01X36322Y36469D01*
G01X36426Y36520D01*
G01X36530Y36520D01*
G01X36634Y36469D01*
G01X36687Y36415D01*
G01X36738Y36260D01*
G01X36738Y35793D01*
G01X36738Y36156D02*
G01X37310Y36520D01*
G01X36220Y37383D02*
G01X36946Y36862D01*
G01X36946Y37642D01*
G01X36220Y37383D02*
G01X37310Y37383D01*
G01X38615Y8763D02*
G01X38615Y7673D01*
G01X38252Y8763D02*
G01X38978Y8763D01*
G01X39946Y8763D02*
G01X39425Y8763D01*
G01X39375Y8295D01*
G01X39425Y8348D01*
G01X39583Y8399D01*
G01X39738Y8399D01*
G01X39893Y8348D01*
G01X39997Y8244D01*
G01X40050Y8089D01*
G01X40050Y7985D01*
G01X39997Y7828D01*
G01X39893Y7724D01*
G01X39738Y7673D01*
G01X39583Y7673D01*
G01X39425Y7724D01*
G01X39375Y7777D01*
G01X39321Y7881D01*
G01X36474Y16362D02*
G01X37564Y16362D01*
G01X36474Y16362D02*
G01X36474Y16830D01*
G01X36525Y16984D01*
G01X36576Y17038D01*
G01X36680Y17089D01*
G01X36784Y17089D01*
G01X36888Y17038D01*
G01X36941Y16984D01*
G01X36992Y16830D01*
G01X36992Y16362D01*
G01X36992Y16725D02*
G01X37564Y17089D01*
G01X36474Y18056D02*
G01X36474Y17536D01*
G01X36941Y17485D01*
G01X36888Y17536D01*
G01X36837Y17693D01*
G01X36837Y17848D01*
G01X36888Y18003D01*
G01X36992Y18107D01*
G01X37147Y18160D01*
G01X37251Y18160D01*
G01X37409Y18107D01*
G01X37513Y18003D01*
G01X37564Y17848D01*
G01X37564Y17693D01*
G01X37513Y17536D01*
G01X37459Y17485D01*
G01X37355Y17431D01*
G01X51823Y37973D02*
G01X51823Y36883D01*
G01X51460Y37973D02*
G01X52186Y37973D01*
G01X52529Y37767D02*
G01X52633Y37818D01*
G01X52791Y37973D01*
G01X52791Y36883D01*
G01X53134Y37767D02*
G01X53238Y37818D01*
G01X53393Y37973D01*
G01X53393Y36883D01*
G01X42824Y36322D02*
G01X42824Y35232D01*
G01X42824Y36322D02*
G01X43291Y36322D01*
G01X43446Y36271D01*
G01X43500Y36220D01*
G01X43550Y36116D01*
G01X43550Y36012D01*
G01X43500Y35907D01*
G01X43446Y35854D01*
G01X43291Y35803D01*
G01X42824Y35803D01*
G01X43187Y35803D02*
G01X43550Y35232D01*
G01X43893Y36116D02*
G01X43997Y36167D01*
G01X44155Y36322D01*
G01X44155Y35232D01*
G01X44498Y36116D02*
G01X44602Y36167D01*
G01X44757Y36322D01*
G01X44757Y35232D01*
G01X70492Y18161D02*
G01X70492Y17071D01*
G01X70129Y18161D02*
G01X70855Y18161D01*
G01X71198Y17955D02*
G01X71302Y18006D01*
G01X71460Y18161D01*
G01X71460Y17071D01*
G01X72113Y18161D02*
G01X71958Y18110D01*
G01X71854Y17955D01*
G01X71803Y17693D01*
G01X71803Y17538D01*
G01X71854Y17279D01*
G01X71958Y17122D01*
G01X72113Y17071D01*
G01X72217Y17071D01*
G01X72374Y17122D01*
G01X72478Y17279D01*
G01X72529Y17538D01*
G01X72529Y17693D01*
G01X72478Y17955D01*
G01X72374Y18110D01*
G01X72217Y18161D01*
G01X72113Y18161D01*
G01X73939Y7973D02*
G01X75029Y7973D01*
G01X73939Y7973D02*
G01X73939Y8440D01*
G01X73990Y8595D01*
G01X74040Y8648D01*
G01X74145Y8699D01*
G01X74249Y8699D01*
G01X74353Y8648D01*
G01X74406Y8595D01*
G01X74457Y8440D01*
G01X74457Y7973D01*
G01X74457Y8336D02*
G01X75029Y8699D01*
G01X74145Y9042D02*
G01X74094Y9146D01*
G01X73939Y9304D01*
G01X75029Y9304D01*
G01X73939Y9956D02*
G01X73990Y9801D01*
G01X74145Y9697D01*
G01X74406Y9646D01*
G01X74561Y9646D01*
G01X74820Y9697D01*
G01X74978Y9801D01*
G01X75029Y9956D01*
G01X75029Y10060D01*
G01X74978Y10218D01*
G01X74820Y10322D01*
G01X74561Y10373D01*
G01X74406Y10373D01*
G01X74145Y10322D01*
G01X73990Y10218D01*
G01X73939Y10060D01*
G01X73939Y9956D01*
G01X71762Y36817D02*
G01X71762Y35727D01*
G01X71399Y36817D02*
G01X72125Y36817D01*
G01X73144Y36454D02*
G01X73093Y36299D01*
G01X72989Y36195D01*
G01X72834Y36144D01*
G01X72781Y36144D01*
G01X72626Y36195D01*
G01X72522Y36299D01*
G01X72468Y36454D01*
G01X72468Y36507D01*
G01X72522Y36662D01*
G01X72626Y36766D01*
G01X72781Y36817D01*
G01X72834Y36817D01*
G01X72989Y36766D01*
G01X73093Y36662D01*
G01X73144Y36454D01*
G01X73144Y36195D01*
G01X73093Y35935D01*
G01X72989Y35778D01*
G01X72834Y35727D01*
G01X72730Y35727D01*
G01X72572Y35778D01*
G01X72522Y35882D01*
G01X73685Y26956D02*
G01X74775Y26956D01*
G01X73685Y26956D02*
G01X73685Y27424D01*
G01X73736Y27579D01*
G01X73787Y27632D01*
G01X73891Y27683D01*
G01X73995Y27683D01*
G01X74099Y27632D01*
G01X74152Y27579D01*
G01X74203Y27424D01*
G01X74203Y26956D01*
G01X74203Y27320D02*
G01X74775Y27683D01*
G01X74048Y28701D02*
G01X74203Y28651D01*
G01X74307Y28547D01*
G01X74358Y28392D01*
G01X74358Y28338D01*
G01X74307Y28183D01*
G01X74203Y28079D01*
G01X74048Y28026D01*
G01X73995Y28026D01*
G01X73840Y28079D01*
G01X73736Y28183D01*
G01X73685Y28338D01*
G01X73685Y28392D01*
G01X73736Y28547D01*
G01X73840Y28651D01*
G01X74048Y28701D01*
G01X74307Y28701D01*
G01X74566Y28651D01*
G01X74724Y28547D01*
G01X74775Y28392D01*
G01X74775Y28287D01*
G01X74724Y28130D01*
G01X74620Y28079D01*
G01X71635Y55740D02*
G01X71635Y54650D01*
G01X71272Y55740D02*
G01X71998Y55740D01*
G01X72603Y55740D02*
G01X72445Y55689D01*
G01X72395Y55585D01*
G01X72395Y55481D01*
G01X72445Y55377D01*
G01X72549Y55326D01*
G01X72758Y55272D01*
G01X72913Y55222D01*
G01X73017Y55118D01*
G01X73070Y55013D01*
G01X73070Y54858D01*
G01X73017Y54754D01*
G01X72966Y54701D01*
G01X72809Y54650D01*
G01X72603Y54650D01*
G01X72445Y54701D01*
G01X72395Y54754D01*
G01X72341Y54858D01*
G01X72341Y55013D01*
G01X72395Y55118D01*
G01X72499Y55222D01*
G01X72654Y55272D01*
G01X72862Y55326D01*
G01X72966Y55377D01*
G01X73017Y55481D01*
G01X73017Y55585D01*
G01X72966Y55689D01*
G01X72809Y55740D01*
G01X72603Y55740D01*
G01X73558Y44843D02*
G01X74647Y44843D01*
G01X73558Y44843D02*
G01X73558Y45311D01*
G01X73609Y45466D01*
G01X73659Y45519D01*
G01X73764Y45570D01*
G01X73868Y45570D01*
G01X73972Y45519D01*
G01X74025Y45466D01*
G01X74076Y45311D01*
G01X74076Y44843D01*
G01X74076Y45206D02*
G01X74647Y45570D01*
G01X73558Y46174D02*
G01X73609Y46017D01*
G01X73713Y45966D01*
G01X73817Y45966D01*
G01X73921Y46017D01*
G01X73972Y46121D01*
G01X74025Y46329D01*
G01X74076Y46484D01*
G01X74180Y46588D01*
G01X74284Y46642D01*
G01X74439Y46642D01*
G01X74543Y46588D01*
G01X74597Y46537D01*
G01X74647Y46380D01*
G01X74647Y46174D01*
G01X74597Y46017D01*
G01X74543Y45966D01*
G01X74439Y45913D01*
G01X74284Y45913D01*
G01X74180Y45966D01*
G01X74076Y46070D01*
G01X74025Y46225D01*
G01X73972Y46433D01*
G01X73921Y46537D01*
G01X73817Y46588D01*
G01X73713Y46588D01*
G01X73609Y46537D01*
G01X73558Y46380D01*
G01X73558Y46174D01*
G01X71000Y74028D02*
G01X71000Y72938D01*
G01X70637Y74028D02*
G01X71363Y74028D01*
G01X72435Y74028D02*
G01X71914Y72938D01*
G01X71706Y74028D02*
G01X72435Y74028D01*
G01X73050Y63606D02*
G01X74140Y63606D01*
G01X73050Y63606D02*
G01X73050Y64074D01*
G01X73101Y64228D01*
G01X73151Y64282D01*
G01X73256Y64333D01*
G01X73360Y64333D01*
G01X73464Y64282D01*
G01X73517Y64228D01*
G01X73568Y64074D01*
G01X73568Y63606D01*
G01X73568Y63969D02*
G01X74140Y64333D01*
G01X73050Y65405D02*
G01X74140Y64884D01*
G01X73050Y64676D02*
G01X73050Y65405D01*
G01X71254Y92570D02*
G01X71254Y91480D01*
G01X70891Y92570D02*
G01X71617Y92570D01*
G01X72585Y92415D02*
G01X72532Y92519D01*
G01X72377Y92570D01*
G01X72273Y92570D01*
G01X72118Y92519D01*
G01X72014Y92364D01*
G01X71960Y92102D01*
G01X71960Y91843D01*
G01X72014Y91635D01*
G01X72118Y91531D01*
G01X72273Y91480D01*
G01X72326Y91480D01*
G01X72481Y91531D01*
G01X72585Y91635D01*
G01X72636Y91793D01*
G01X72636Y91843D01*
G01X72585Y91998D01*
G01X72481Y92102D01*
G01X72326Y92156D01*
G01X72273Y92156D01*
G01X72118Y92102D01*
G01X72014Y91998D01*
G01X71960Y91843D01*
G01X73304Y82328D02*
G01X74394Y82328D01*
G01X73304Y82328D02*
G01X73304Y82796D01*
G01X73355Y82951D01*
G01X73406Y83004D01*
G01X73510Y83055D01*
G01X73614Y83055D01*
G01X73718Y83004D01*
G01X73771Y82951D01*
G01X73822Y82796D01*
G01X73822Y82328D01*
G01X73822Y82692D02*
G01X74394Y83055D01*
G01X73459Y84023D02*
G01X73355Y83969D01*
G01X73304Y83814D01*
G01X73304Y83710D01*
G01X73355Y83555D01*
G01X73510Y83451D01*
G01X73771Y83398D01*
G01X74030Y83398D01*
G01X74239Y83451D01*
G01X74343Y83555D01*
G01X74394Y83710D01*
G01X74394Y83764D01*
G01X74343Y83919D01*
G01X74239Y84023D01*
G01X74081Y84073D01*
G01X74030Y84073D01*
G01X73875Y84023D01*
G01X73771Y83919D01*
G01X73718Y83764D01*
G01X73718Y83710D01*
G01X73771Y83555D01*
G01X73875Y83451D01*
G01X74030Y83398D01*
G01X92903Y108582D02*
G01X93992Y108582D01*
G01X92903Y108582D02*
G01X92903Y109049D01*
G01X92953Y109204D01*
G01X93004Y109258D01*
G01X93108Y109308D01*
G01X93212Y109308D01*
G01X93317Y109258D01*
G01X93370Y109204D01*
G01X93421Y109049D01*
G01X93421Y108582D01*
G01X93421Y108945D02*
G01X93992Y109308D01*
G01X92903Y109651D02*
G01X93992Y109651D01*
G01X92903Y109651D02*
G01X92903Y110327D01*
G01X93421Y109651D02*
G01X93421Y110068D01*
G01X93992Y109651D02*
G01X93992Y110327D01*
G01X92903Y110670D02*
G01X93992Y110670D01*
G01X93992Y110670D02*
G01X93992Y111295D01*
G01X92903Y112052D02*
G01X93992Y111638D01*
G01X92903Y112052D02*
G01X93992Y112468D01*
G01X93629Y111793D02*
G01X93629Y112313D01*
G01X92903Y112811D02*
G01X93421Y113228D01*
G01X93992Y113228D01*
G01X92903Y113642D02*
G01X93421Y113228D01*
G01X93108Y113985D02*
G01X93057Y114089D01*
G01X92903Y114246D01*
G01X93992Y114246D01*
G01X93162Y114640D02*
G01X93108Y114640D01*
G01X93004Y114691D01*
G01X92953Y114744D01*
G01X92903Y114848D01*
G01X92903Y115056D01*
G01X92953Y115161D01*
G01X93004Y115211D01*
G01X93108Y115262D01*
G01X93212Y115262D01*
G01X93317Y115211D01*
G01X93474Y115107D01*
G01X93992Y114589D01*
G01X93992Y115316D01*
G01X91211Y126365D02*
G01X91211Y125275D01*
G01X91211Y126365D02*
G01X91574Y126365D01*
G01X91732Y126314D01*
G01X91833Y126210D01*
G01X91887Y126105D01*
G01X91937Y125950D01*
G01X91937Y125691D01*
G01X91887Y125534D01*
G01X91833Y125430D01*
G01X91732Y125326D01*
G01X91574Y125275D01*
G01X91211Y125275D01*
G01X92280Y126159D02*
G01X92384Y126210D01*
G01X92542Y126365D01*
G01X92542Y125275D01*
G01X92936Y126105D02*
G01X92936Y126159D01*
G01X92989Y126263D01*
G01X93040Y126314D01*
G01X93144Y126365D01*
G01X93352Y126365D01*
G01X93456Y126314D01*
G01X93507Y126263D01*
G01X93560Y126159D01*
G01X93560Y126055D01*
G01X93507Y125950D01*
G01X93403Y125793D01*
G01X92885Y125275D01*
G01X93611Y125275D01*
G01X74869Y108531D02*
G01X75958Y108531D01*
G01X74869Y108531D02*
G01X74869Y108999D01*
G01X74919Y109153D01*
G01X74970Y109207D01*
G01X75074Y109258D01*
G01X75178Y109258D01*
G01X75283Y109207D01*
G01X75336Y109153D01*
G01X75387Y108999D01*
G01X75387Y108531D01*
G01X75387Y108894D02*
G01X75958Y109258D01*
G01X74869Y109601D02*
G01X75958Y109601D01*
G01X74869Y109601D02*
G01X74869Y110276D01*
G01X75387Y109601D02*
G01X75387Y110017D01*
G01X75958Y109601D02*
G01X75958Y110276D01*
G01X74869Y110619D02*
G01X75958Y110619D01*
G01X75958Y110619D02*
G01X75958Y111244D01*
G01X74869Y112001D02*
G01X75958Y111587D01*
G01X74869Y112001D02*
G01X75958Y112417D01*
G01X75595Y111742D02*
G01X75595Y112262D01*
G01X74869Y112760D02*
G01X75387Y113177D01*
G01X75958Y113177D01*
G01X74869Y113591D02*
G01X75387Y113177D01*
G01X75074Y113934D02*
G01X75023Y114038D01*
G01X74869Y114195D01*
G01X75958Y114195D01*
G01X74869Y114640D02*
G01X74869Y115211D01*
G01X75283Y114901D01*
G01X75283Y115056D01*
G01X75336Y115161D01*
G01X75387Y115211D01*
G01X75542Y115265D01*
G01X75646Y115265D01*
G01X75803Y115211D01*
G01X75907Y115110D01*
G01X75958Y114952D01*
G01X75958Y114797D01*
G01X75907Y114640D01*
G01X75854Y114589D01*
G01X75750Y114538D01*
G01X73939Y127381D02*
G01X73939Y126291D01*
G01X73939Y127381D02*
G01X74302Y127381D01*
G01X74460Y127330D01*
G01X74561Y127226D01*
G01X74615Y127121D01*
G01X74665Y126966D01*
G01X74665Y126707D01*
G01X74615Y126550D01*
G01X74561Y126446D01*
G01X74460Y126342D01*
G01X74302Y126291D01*
G01X73939Y126291D01*
G01X75008Y127175D02*
G01X75112Y127226D01*
G01X75270Y127381D01*
G01X75270Y126291D01*
G01X75717Y127381D02*
G01X76288Y127381D01*
G01X75976Y126966D01*
G01X76131Y126966D01*
G01X76235Y126913D01*
G01X76288Y126862D01*
G01X76339Y126707D01*
G01X76339Y126603D01*
G01X76288Y126446D01*
G01X76184Y126342D01*
G01X76027Y126291D01*
G01X75872Y126291D01*
G01X75717Y126342D01*
G01X75664Y126395D01*
G01X75613Y126499D01*
G01X56708Y108582D02*
G01X57797Y108582D01*
G01X56708Y108582D02*
G01X56708Y109049D01*
G01X56758Y109204D01*
G01X56809Y109258D01*
G01X56913Y109308D01*
G01X57017Y109308D01*
G01X57122Y109258D01*
G01X57175Y109204D01*
G01X57226Y109049D01*
G01X57226Y108582D01*
G01X57226Y108945D02*
G01X57797Y109308D01*
G01X56708Y109651D02*
G01X57797Y109651D01*
G01X56708Y109651D02*
G01X56708Y110327D01*
G01X57226Y109651D02*
G01X57226Y110068D01*
G01X57797Y109651D02*
G01X57797Y110327D01*
G01X56708Y110670D02*
G01X57797Y110670D01*
G01X57797Y110670D02*
G01X57797Y111295D01*
G01X56708Y112052D02*
G01X57797Y111638D01*
G01X56708Y112052D02*
G01X57797Y112468D01*
G01X57434Y111793D02*
G01X57434Y112313D01*
G01X56708Y112811D02*
G01X57226Y113228D01*
G01X57797Y113228D01*
G01X56708Y113642D02*
G01X57226Y113228D01*
G01X56913Y113985D02*
G01X56862Y114089D01*
G01X56708Y114246D01*
G01X57797Y114246D01*
G01X56708Y115107D02*
G01X57434Y114589D01*
G01X57434Y115366D01*
G01X56708Y115107D02*
G01X57797Y115107D01*
G01X55143Y127381D02*
G01X55143Y126291D01*
G01X55143Y127381D02*
G01X55506Y127381D01*
G01X55664Y127330D01*
G01X55765Y127226D01*
G01X55819Y127121D01*
G01X55869Y126966D01*
G01X55869Y126707D01*
G01X55819Y126550D01*
G01X55765Y126446D01*
G01X55664Y126342D01*
G01X55506Y126291D01*
G01X55143Y126291D01*
G01X56212Y127175D02*
G01X56316Y127226D01*
G01X56474Y127381D01*
G01X56474Y126291D01*
G01X57335Y127381D02*
G01X56817Y126654D01*
G01X57594Y126654D01*
G01X57335Y127381D02*
G01X57335Y126291D01*
G01X38928Y108762D02*
G01X40017Y108762D01*
G01X38928Y108762D02*
G01X38928Y109230D01*
G01X38978Y109385D01*
G01X39029Y109438D01*
G01X39133Y109489D01*
G01X39237Y109489D01*
G01X39342Y109438D01*
G01X39395Y109385D01*
G01X39446Y109230D01*
G01X39446Y108762D01*
G01X39446Y109126D02*
G01X40017Y109489D01*
G01X38928Y109832D02*
G01X40017Y109832D01*
G01X38928Y109832D02*
G01X38928Y110507D01*
G01X39446Y109832D02*
G01X39446Y110248D01*
G01X40017Y109832D02*
G01X40017Y110507D01*
G01X38928Y110850D02*
G01X40017Y110850D01*
G01X40017Y110850D02*
G01X40017Y111475D01*
G01X38928Y112232D02*
G01X40017Y111818D01*
G01X38928Y112232D02*
G01X40017Y112649D01*
G01X39654Y111973D02*
G01X39654Y112494D01*
G01X38928Y112991D02*
G01X39446Y113408D01*
G01X40017Y113408D01*
G01X38928Y113822D02*
G01X39446Y113408D01*
G01X39133Y114165D02*
G01X39082Y114269D01*
G01X38928Y114427D01*
G01X40017Y114427D01*
G01X38928Y115392D02*
G01X38928Y114871D01*
G01X39395Y114820D01*
G01X39342Y114871D01*
G01X39291Y115028D01*
G01X39291Y115183D01*
G01X39342Y115341D01*
G01X39446Y115443D01*
G01X39601Y115496D01*
G01X39705Y115496D01*
G01X39862Y115443D01*
G01X39966Y115341D01*
G01X40017Y115183D01*
G01X40017Y115028D01*
G01X39966Y114871D01*
G01X39913Y114820D01*
G01X39809Y114769D01*
G01X37236Y126746D02*
G01X37236Y125656D01*
G01X37236Y126746D02*
G01X37599Y126746D01*
G01X37757Y126695D01*
G01X37858Y126591D01*
G01X37912Y126486D01*
G01X37962Y126331D01*
G01X37962Y126072D01*
G01X37912Y125915D01*
G01X37858Y125811D01*
G01X37757Y125707D01*
G01X37599Y125656D01*
G01X37236Y125656D01*
G01X38305Y126540D02*
G01X38409Y126591D01*
G01X38567Y126746D01*
G01X38567Y125656D01*
G01X39532Y126746D02*
G01X39014Y126746D01*
G01X38961Y126278D01*
G01X39014Y126331D01*
G01X39169Y126382D01*
G01X39324Y126382D01*
G01X39481Y126331D01*
G01X39585Y126227D01*
G01X39636Y126072D01*
G01X39636Y125968D01*
G01X39585Y125811D01*
G01X39481Y125707D01*
G01X39324Y125656D01*
G01X39169Y125656D01*
G01X39014Y125707D01*
G01X38961Y125760D01*
G01X38910Y125864D01*
G01X21021Y108709D02*
G01X22110Y108709D01*
G01X21021Y108709D02*
G01X21021Y109176D01*
G01X21071Y109331D01*
G01X21122Y109385D01*
G01X21226Y109435D01*
G01X21330Y109435D01*
G01X21435Y109385D01*
G01X21488Y109331D01*
G01X21539Y109176D01*
G01X21539Y108709D01*
G01X21539Y109072D02*
G01X22110Y109435D01*
G01X21021Y109778D02*
G01X22110Y109778D01*
G01X21021Y109778D02*
G01X21021Y110454D01*
G01X21539Y109778D02*
G01X21539Y110195D01*
G01X22110Y109778D02*
G01X22110Y110454D01*
G01X21021Y110797D02*
G01X22110Y110797D01*
G01X22110Y110797D02*
G01X22110Y111422D01*
G01X21021Y112179D02*
G01X22110Y111765D01*
G01X21021Y112179D02*
G01X22110Y112595D01*
G01X21747Y111920D02*
G01X21747Y112440D01*
G01X21021Y112938D02*
G01X21539Y113355D01*
G01X22110Y113355D01*
G01X21021Y113769D02*
G01X21539Y113355D01*
G01X21226Y114112D02*
G01X21175Y114216D01*
G01X21021Y114373D01*
G01X22110Y114373D01*
G01X21175Y115338D02*
G01X21071Y115288D01*
G01X21021Y115130D01*
G01X21021Y115026D01*
G01X21071Y114871D01*
G01X21226Y114767D01*
G01X21488Y114716D01*
G01X21747Y114716D01*
G01X21955Y114767D01*
G01X22059Y114871D01*
G01X22110Y115026D01*
G01X22110Y115079D01*
G01X22059Y115234D01*
G01X21955Y115338D01*
G01X21798Y115389D01*
G01X21747Y115389D01*
G01X21592Y115338D01*
G01X21488Y115234D01*
G01X21435Y115079D01*
G01X21435Y115026D01*
G01X21488Y114871D01*
G01X21592Y114767D01*
G01X21747Y114716D01*
G01X19456Y127381D02*
G01X19456Y126291D01*
G01X19456Y127381D02*
G01X19819Y127381D01*
G01X19977Y127330D01*
G01X20078Y127226D01*
G01X20132Y127121D01*
G01X20182Y126966D01*
G01X20182Y126707D01*
G01X20132Y126550D01*
G01X20078Y126446D01*
G01X19977Y126342D01*
G01X19819Y126291D01*
G01X19456Y126291D01*
G01X20525Y127175D02*
G01X20629Y127226D01*
G01X20787Y127381D01*
G01X20787Y126291D01*
G01X21752Y127226D02*
G01X21701Y127330D01*
G01X21544Y127381D01*
G01X21440Y127381D01*
G01X21285Y127330D01*
G01X21181Y127175D01*
G01X21130Y126913D01*
G01X21130Y126654D01*
G01X21181Y126446D01*
G01X21285Y126342D01*
G01X21440Y126291D01*
G01X21493Y126291D01*
G01X21648Y126342D01*
G01X21752Y126446D01*
G01X21805Y126603D01*
G01X21805Y126654D01*
G01X21752Y126809D01*
G01X21648Y126913D01*
G01X21493Y126966D01*
G01X21440Y126966D01*
G01X21285Y126913D01*
G01X21181Y126809D01*
G01X21130Y126654D01*
G01X87637Y99441D02*
G01X87637Y98351D01*
G01X87274Y99441D02*
G01X88000Y99441D01*
G01X88343Y99235D02*
G01X88447Y99286D01*
G01X88605Y99441D01*
G01X88605Y98351D01*
G01X88999Y99181D02*
G01X88999Y99235D01*
G01X89052Y99339D01*
G01X89103Y99390D01*
G01X89207Y99441D01*
G01X89415Y99441D01*
G01X89519Y99390D01*
G01X89570Y99339D01*
G01X89623Y99235D01*
G01X89623Y99131D01*
G01X89570Y99026D01*
G01X89466Y98869D01*
G01X88948Y98351D01*
G01X89674Y98351D01*
G01X96672Y101473D02*
G01X96672Y100383D01*
G01X96672Y101473D02*
G01X97139Y101473D01*
G01X97294Y101422D01*
G01X97348Y101371D01*
G01X97398Y101267D01*
G01X97398Y101163D01*
G01X97348Y101058D01*
G01X97294Y101005D01*
G01X97139Y100954D01*
G01X96672Y100954D01*
G01X97035Y100954D02*
G01X97398Y100383D01*
G01X97741Y101267D02*
G01X97845Y101318D01*
G01X98003Y101473D01*
G01X98003Y100383D01*
G01X98397Y101213D02*
G01X98397Y101267D01*
G01X98450Y101371D01*
G01X98501Y101422D01*
G01X98605Y101473D01*
G01X98813Y101473D01*
G01X98917Y101422D01*
G01X98968Y101371D01*
G01X99021Y101267D01*
G01X99021Y101163D01*
G01X98968Y101058D01*
G01X98864Y100901D01*
G01X98346Y100383D01*
G01X99072Y100383D01*
G01X68079Y99047D02*
G01X68079Y97957D01*
G01X67716Y99047D02*
G01X68442Y99047D01*
G01X68785Y98841D02*
G01X68889Y98892D01*
G01X69047Y99047D01*
G01X69047Y97957D01*
G01X69494Y99047D02*
G01X70065Y99047D01*
G01X69753Y98633D01*
G01X69908Y98633D01*
G01X70012Y98579D01*
G01X70065Y98529D01*
G01X70116Y98374D01*
G01X70116Y98270D01*
G01X70065Y98112D01*
G01X69961Y98008D01*
G01X69804Y97957D01*
G01X69649Y97957D01*
G01X69494Y98008D01*
G01X69441Y98061D01*
G01X69390Y98165D01*
G01X76860Y101092D02*
G01X76860Y100002D01*
G01X76860Y101092D02*
G01X77327Y101092D01*
G01X77482Y101041D01*
G01X77536Y100990D01*
G01X77586Y100886D01*
G01X77586Y100782D01*
G01X77536Y100677D01*
G01X77482Y100624D01*
G01X77327Y100573D01*
G01X76860Y100573D01*
G01X77223Y100573D02*
G01X77586Y100002D01*
G01X77929Y100886D02*
G01X78033Y100937D01*
G01X78191Y101092D01*
G01X78191Y100002D01*
G01X78638Y101092D02*
G01X79209Y101092D01*
G01X78897Y100677D01*
G01X79052Y100677D01*
G01X79156Y100624D01*
G01X79209Y100573D01*
G01X79260Y100418D01*
G01X79260Y100314D01*
G01X79209Y100157D01*
G01X79105Y100053D01*
G01X78948Y100002D01*
G01X78793Y100002D01*
G01X78638Y100053D01*
G01X78585Y100106D01*
G01X78534Y100210D01*
G01X49410Y99314D02*
G01X49410Y98224D01*
G01X49047Y99314D02*
G01X49773Y99314D01*
G01X50116Y99108D02*
G01X50220Y99159D01*
G01X50378Y99314D01*
G01X50378Y98224D01*
G01X51239Y99314D02*
G01X50721Y98587D01*
G01X51498Y98587D01*
G01X51239Y99314D02*
G01X51239Y98224D01*
G01X58191Y101219D02*
G01X58191Y100129D01*
G01X58191Y101219D02*
G01X58658Y101219D01*
G01X58813Y101168D01*
G01X58867Y101117D01*
G01X58917Y101013D01*
G01X58917Y100909D01*
G01X58867Y100804D01*
G01X58813Y100751D01*
G01X58658Y100700D01*
G01X58191Y100700D01*
G01X58554Y100700D02*
G01X58917Y100129D01*
G01X59260Y101013D02*
G01X59364Y101064D01*
G01X59522Y101219D01*
G01X59522Y100129D01*
G01X60383Y101219D02*
G01X59865Y100492D01*
G01X60642Y100492D01*
G01X60383Y101219D02*
G01X60383Y100129D01*
G01X31249Y99428D02*
G01X31249Y98338D01*
G01X30886Y99428D02*
G01X31612Y99428D01*
G01X31955Y99222D02*
G01X32059Y99273D01*
G01X32217Y99428D01*
G01X32217Y98338D01*
G01X33182Y99428D02*
G01X32664Y99428D01*
G01X32611Y98960D01*
G01X32664Y99014D01*
G01X32819Y99065D01*
G01X32974Y99065D01*
G01X33131Y99014D01*
G01X33235Y98910D01*
G01X33286Y98755D01*
G01X33286Y98651D01*
G01X33235Y98493D01*
G01X33131Y98389D01*
G01X32974Y98338D01*
G01X32819Y98338D01*
G01X32664Y98389D01*
G01X32611Y98442D01*
G01X32560Y98546D01*
G01X40030Y101346D02*
G01X40030Y100256D01*
G01X40030Y101346D02*
G01X40497Y101346D01*
G01X40652Y101295D01*
G01X40706Y101244D01*
G01X40756Y101140D01*
G01X40756Y101036D01*
G01X40706Y100931D01*
G01X40652Y100878D01*
G01X40497Y100827D01*
G01X40030Y100827D01*
G01X40393Y100827D02*
G01X40756Y100256D01*
G01X41099Y101140D02*
G01X41203Y101191D01*
G01X41361Y101346D01*
G01X41361Y100256D01*
G01X42326Y101346D02*
G01X41808Y101346D01*
G01X41755Y100878D01*
G01X41808Y100931D01*
G01X41963Y100982D01*
G01X42118Y100982D01*
G01X42275Y100931D01*
G01X42379Y100827D01*
G01X42430Y100672D01*
G01X42430Y100568D01*
G01X42379Y100411D01*
G01X42275Y100307D01*
G01X42118Y100256D01*
G01X41963Y100256D01*
G01X41808Y100307D01*
G01X41755Y100360D01*
G01X41704Y100464D01*
G01X11564Y98920D02*
G01X11564Y97830D01*
G01X11201Y98920D02*
G01X11927Y98920D01*
G01X12270Y98714D02*
G01X12374Y98765D01*
G01X12532Y98920D01*
G01X12532Y97830D01*
G01X13497Y98765D02*
G01X13446Y98869D01*
G01X13289Y98920D01*
G01X13185Y98920D01*
G01X13030Y98869D01*
G01X12926Y98714D01*
G01X12875Y98452D01*
G01X12875Y98193D01*
G01X12926Y97985D01*
G01X13030Y97881D01*
G01X13185Y97830D01*
G01X13238Y97830D01*
G01X13393Y97881D01*
G01X13497Y97985D01*
G01X13550Y98143D01*
G01X13550Y98193D01*
G01X13497Y98348D01*
G01X13393Y98452D01*
G01X13238Y98506D01*
G01X13185Y98506D01*
G01X13030Y98452D01*
G01X12926Y98348D01*
G01X12875Y98193D01*
G01X20091Y100965D02*
G01X20091Y99875D01*
G01X20091Y100965D02*
G01X20558Y100965D01*
G01X20713Y100914D01*
G01X20767Y100863D01*
G01X20817Y100759D01*
G01X20817Y100655D01*
G01X20767Y100550D01*
G01X20713Y100497D01*
G01X20558Y100446D01*
G01X20091Y100446D01*
G01X20454Y100446D02*
G01X20817Y99875D01*
G01X21160Y100759D02*
G01X21264Y100810D01*
G01X21422Y100965D01*
G01X21422Y99875D01*
G01X22387Y100810D02*
G01X22336Y100914D01*
G01X22179Y100965D01*
G01X22075Y100965D01*
G01X21920Y100914D01*
G01X21816Y100759D01*
G01X21765Y100497D01*
G01X21765Y100238D01*
G01X21816Y100030D01*
G01X21920Y99926D01*
G01X22075Y99875D01*
G01X22128Y99875D01*
G01X22283Y99926D01*
G01X22387Y100030D01*
G01X22440Y100187D01*
G01X22440Y100238D01*
G01X22387Y100393D01*
G01X22283Y100497D01*
G01X22128Y100550D01*
G01X22075Y100550D01*
G01X21920Y100497D01*
G01X21816Y100393D01*
G01X21765Y100238D01*
G01X52349Y72136D02*
G01X52349Y71046D01*
G01X52349Y71617D02*
G01X52453Y71721D01*
G01X52557Y71772D01*
G01X52712Y71772D01*
G01X52816Y71721D01*
G01X52920Y71617D01*
G01X52971Y71462D01*
G01X52971Y71358D01*
G01X52920Y71201D01*
G01X52816Y71097D01*
G01X52712Y71046D01*
G01X52557Y71046D01*
G01X52453Y71097D01*
G01X52349Y71201D01*
G01X53314Y71772D02*
G01X53314Y71254D01*
G01X53367Y71097D01*
G01X53472Y71046D01*
G01X53627Y71046D01*
G01X53731Y71097D01*
G01X53886Y71254D01*
G01X53886Y71772D02*
G01X53886Y71046D01*
G01X54800Y71772D02*
G01X54229Y71046D01*
G01X54229Y71772D02*
G01X54800Y71772D01*
G01X54229Y71046D02*
G01X54800Y71046D01*
G01X55714Y71772D02*
G01X55143Y71046D01*
G01X55143Y71772D02*
G01X55714Y71772D01*
G01X55143Y71046D02*
G01X55714Y71046D01*
G01X56057Y71462D02*
G01X56682Y71462D01*
G01X56682Y71564D01*
G01X56629Y71668D01*
G01X56578Y71721D01*
G01X56474Y71772D01*
G01X56319Y71772D01*
G01X56215Y71721D01*
G01X56111Y71617D01*
G01X56057Y71462D01*
G01X56057Y71358D01*
G01X56111Y71201D01*
G01X56215Y71097D01*
G01X56319Y71046D01*
G01X56474Y71046D01*
G01X56578Y71097D01*
G01X56682Y71201D01*
G01X57025Y71772D02*
G01X57025Y71046D01*
G01X57025Y71462D02*
G01X57076Y71617D01*
G01X57180Y71721D01*
G01X57284Y71772D01*
G01X57442Y71772D01*
G54D10*
G75*
G01X33171Y81168D02*
G03X33171Y87168I862J3000D01*
G01*
G75*
G01X33552Y61610D02*
G03X33552Y67610I862J3000D01*
G01*
G75*
G01X33425Y42941D02*
G03X33425Y48941I862J3000D01*
G01*
G75*
G01X33324Y24844D02*
G03X33324Y30844I861J3000D01*
G01*
G75*
G01X33705Y5286D02*
G03X33705Y11286I861J3000D01*
G01*
G75*
G01X55572Y32282D02*
G03X49573Y32282I-2999J862D01*
G01*
G75*
G01X77979Y21257D02*
G03X77979Y15257I-861J-3000D01*
G01*
G75*
G01X77598Y39545D02*
G03X77598Y33545I-861J-3000D01*
G01*
G75*
G01X77471Y58214D02*
G03X77471Y52214I-861J-3000D01*
G01*
G75*
G01X77217Y76629D02*
G03X77217Y70629I-861J-3000D01*
G01*
G75*
G01X77217Y95171D02*
G03X77217Y89171I-861J-3000D01*
G01*
G75*
G01X85575Y104243D02*
G03X91575Y104243I3000J-862D01*
G01*
G75*
G01X66017Y103862D02*
G03X72017Y103862I3000J-862D01*
G01*
G75*
G01X47348Y103989D02*
G03X53348Y103989I3000J-862D01*
G01*
G75*
G01X29251Y104090D02*
G03X35251Y104090I3000J-861D01*
G01*
G75*
G01X9693Y103709D02*
G03X15693Y103709I3000J-861D01*
G01*
G75*
G01X61112Y64262D02*
G03X61112Y64262I-5893J0D01*
G01*
M00*
M02*
