%MOIN*%
%OFA0B0*%
%FSLAX46Y46*%
%IPPOS*%
%LPD*%
%ADD10C,0.0019685039370078744*%
%ADD21C,0.0039370078740157488*%
%ADD22C,0.0039370078740157488*%
%ADD23C,0.0039370078740157488*%
%ADD24C,0.0039370078740157488*%
%ADD25C,0.0019685039370078744*%
G01*
D10*
X0001128740Y0001550000D02*
G75*
G02*
X0001078740Y0001600000J0000050000D01*
G01*
X0001328740Y0001550000D02*
G75*
G02*
X0001378740Y0001500000J-0000050000D01*
G01*
X0001428740Y0000000000D02*
G75*
G02*
X0001378740Y0000050000J0000050000D01*
G01*
X0002378740Y0000050000D02*
G75*
G02*
X0002328740Y0000000000I-0000050000D01*
G01*
X0002378740Y0001500000D02*
G75*
G02*
X0002428740Y0001550000I0000050000D01*
G01*
X0002528740Y0001600000D02*
G75*
G02*
X0002478740Y0001550000I-0000050000D01*
G01*
X0002528740Y0001600000D02*
X0002528740Y0001850000D01*
X0002428740Y0001550000D02*
X0002478740Y0001550000D01*
X0002378740Y0000050000D02*
X0002378740Y0001500000D01*
X0001428740Y0000000000D02*
X0002328740Y0000000000D01*
X0001378740Y0001500000D02*
X0001378740Y0000050000D01*
X0001128740Y0001550000D02*
X0001328740Y0001550000D01*
X0001078740Y0001850000D02*
X0001078740Y0001600000D01*
X0001078740Y0001850000D02*
G75*
G02*
X0001128740Y0001900000I0000050000D01*
G01*
X0002478740Y0001900000D02*
G75*
G02*
X0002528740Y0001850000J-0000050000D01*
G01*
X0002478740Y0001900000D02*
X0001128740Y0001900000D01*
G04 next file*
G04 Gerber Fmt 4.6, Leading zero omitted, Abs format (unit mm)*
G04 Created by KiCad (PCBNEW (5.1.6)-1) date 2020-09-18 13:03:01*
G01*
G04 APERTURE LIST*
G04 APERTURE END LIST*
D21*
X0005704645Y0000490000D02*
X0005704645Y0000000000D01*
X0005284645Y0000490000D02*
X0005704645Y0000490000D01*
X0005284645Y0000000000D02*
X0005284645Y0000490000D01*
X0005704645Y0000000000D02*
X0005284645Y0000000000D01*
G04 next file*
G04 Gerber Fmt 4.6, Leading zero omitted, Abs format (unit mm)*
G04 Created by KiCad (PCBNEW (5.1.6)-1) date 2020-09-18 13:03:01*
G01*
G04 APERTURE LIST*
G04 APERTURE END LIST*
D22*
X0005704645Y0001058740D02*
X0005704645Y0000568740D01*
X0005284645Y0001058740D02*
X0005704645Y0001058740D01*
X0005284645Y0000568740D02*
X0005284645Y0001058740D01*
X0005704645Y0000568740D02*
X0005284645Y0000568740D01*
G04 next file*
G04 Gerber Fmt 4.6, Leading zero omitted, Abs format (unit mm)*
G04 Created by KiCad (PCBNEW (5.1.6)-1) date 2020-09-18 13:03:01*
G01*
G04 APERTURE LIST*
G04 APERTURE END LIST*
D23*
X0005704645Y0001710432D02*
X0005704645Y0001220432D01*
X0005284645Y0001710432D02*
X0005704645Y0001710432D01*
X0005284645Y0001220432D02*
X0005284645Y0001710432D01*
X0005704645Y0001220432D02*
X0005284645Y0001220432D01*
G04 next file*
G04 Gerber Fmt 4.6, Leading zero omitted, Abs format (unit mm)*
G04 Created by KiCad (PCBNEW (5.1.6)-1) date 2020-09-18 13:03:01*
G01*
G04 APERTURE LIST*
G04 APERTURE END LIST*
D24*
X0005704645Y0002279173D02*
X0005704645Y0001789173D01*
X0005284645Y0002279173D02*
X0005704645Y0002279173D01*
X0005284645Y0001789173D02*
X0005284645Y0002279173D01*
X0005704645Y0001789173D02*
X0005284645Y0001789173D01*
G04 next file*
G04 Gerber Fmt 4.6, Leading zero omitted, Abs format (unit mm)*
G04 Created by KiCad (PCBNEW (5.1.6)-1) date 2020-09-18 16:39:39*
G01*
G04 APERTURE LIST*
G04 APERTURE END LIST*
D25*
X0000000000Y0000000000D02*
X0000000000Y0002000000D01*
X0000999999Y0000000000D02*
X0000000000Y0000000000D01*
X0000999999Y0002000000D02*
X0000999999Y0000000000D01*
X0000000000Y0002000000D02*
X0000999999Y0002000000D01*
M02*