%MOIN*%
%OFA0B0*%
%FSLAX46Y46*%
%IPPOS*%
%LPD*%
%ADD14R,0.07874X0.025*%
%ADD15R,0.23622X0.62598401574803153*%
%ADD16R,0.04330700787401575X0.03937*%
%ADD17R,0.11811X0.03937*%
%ADD18R,0.05X0.065*%
%ADD19R,0.074802992125984263X0.047244015748031491*%
%ADD20R,0.03937X0.061024015748031506*%
%ADD31R,0.07874X0.025*%
%ADD32R,0.23622X0.62598401574803153*%
%ADD33R,0.04330700787401575X0.03937*%
%ADD34R,0.11811X0.03937*%
%ADD35R,0.05X0.065*%
%ADD36R,0.074802992125984263X0.047244015748031491*%
%ADD37R,0.03937X0.061024015748031506*%
%ADD38R,0.07874X0.025*%
%ADD39R,0.23622X0.62598401574803153*%
%ADD40R,0.04330700787401575X0.03937*%
%ADD41R,0.11811X0.03937*%
%ADD42R,0.05X0.065*%
%ADD43R,0.074802992125984263X0.047244015748031491*%
%ADD44R,0.03937X0.061024015748031506*%
%ADD45R,0.07874X0.025*%
%ADD46R,0.23622X0.62598401574803153*%
%ADD47R,0.04330700787401575X0.03937*%
%ADD48R,0.11811X0.03937*%
%ADD49R,0.05X0.065*%
%ADD50R,0.074802992125984263X0.047244015748031491*%
%ADD51R,0.03937X0.061024015748031506*%
G90*
G54D14*
G01X0002887637Y0000991692D03*
G01X0002887637Y0000941692D03*
G01X0002887637Y0000891692D03*
G01X0002887637Y0000841692D03*
G01X0002887637Y0000791692D03*
G01X0002887637Y0000741692D03*
G01X0002887637Y0000691692D03*
G01X0002887637Y0000641692D03*
G01X0002887637Y0000591692D03*
G01X0002887637Y0000541692D03*
G01X0003407283Y0000541692D03*
G01X0003407283Y0000591692D03*
G01X0003407283Y0000641692D03*
G01X0003407283Y0000691692D03*
G01X0003407283Y0000741692D03*
G01X0003407283Y0000791692D03*
G01X0003407283Y0000841692D03*
G01X0003407283Y0000891692D03*
G01X0003407283Y0000941692D03*
G01X0003407283Y0000991692D03*
G54D15*
G01X0003147480Y0000766692D03*
G54D16*
G01X0003737992Y0000762755D03*
G01X0003737992Y0000691889D03*
G54D17*
G01X0002682874Y0000176181D03*
G01X0002903385Y0000176181D03*
G54D18*
G01X0003534881Y0000530511D03*
G01X0003701929Y0000530511D03*
G01X0003744251Y0000924173D03*
G01X0003577244Y0000924173D03*
G54D19*
G01X0003597480Y0000789685D03*
G01X0003597480Y0000663700D03*
G54D20*
G01X0003462401Y0001081653D03*
G01X0003541141Y0001081653D03*
G01X0002753779Y0000412401D03*
G01X0002832519Y0000412401D03*
G04 next file*
G04 Layer: TopPasteMaskLayer*
G04 EasyEDA v6.3.53, 2020-06-26T16:53:54--4:00*
G04 395d111042f2402990e7a52cfaf045f1,10*
G04 Gerber Generator version 0.2*
G04 Scale: 100 percent, Rotated: No, Reflected: No *
G04 Dimensions in millimeters *
G04 leading zeros omitted , absolute positions ,3 integer and 3 decimal *
G90*
G04 skipping 71
D31*
G01X0002887637Y0002212125D03*
G01X0002887637Y0002162125D03*
G01X0002887637Y0002112125D03*
G01X0002887637Y0002062125D03*
G01X0002887637Y0002012125D03*
G01X0002887637Y0001962125D03*
G01X0002887637Y0001912125D03*
G01X0002887637Y0001862125D03*
G01X0002887637Y0001812125D03*
G01X0002887637Y0001762125D03*
G01X0003407283Y0001762125D03*
G01X0003407283Y0001812125D03*
G01X0003407283Y0001862125D03*
G01X0003407283Y0001912125D03*
G01X0003407283Y0001962125D03*
G01X0003407283Y0002012125D03*
G01X0003407283Y0002062125D03*
G01X0003407283Y0002112125D03*
G01X0003407283Y0002162125D03*
G01X0003407283Y0002212125D03*
D32*
G01X0003147480Y0001987125D03*
D33*
G01X0003737992Y0001983188D03*
G01X0003737992Y0001912322D03*
D34*
G01X0002682874Y0001396614D03*
G01X0002903385Y0001396614D03*
D35*
G01X0003534881Y0001750944D03*
G01X0003701929Y0001750944D03*
G01X0003744251Y0002144606D03*
G01X0003577244Y0002144606D03*
D36*
G01X0003597480Y0002010118D03*
G01X0003597480Y0001884133D03*
D37*
G01X0003462401Y0002302086D03*
G01X0003541141Y0002302086D03*
G01X0002753779Y0001632834D03*
G01X0002832519Y0001632834D03*
G04 next file*
G04 Layer: TopPasteMaskLayer*
G04 EasyEDA v6.3.53, 2020-06-26T16:53:54--4:00*
G04 395d111042f2402990e7a52cfaf045f1,10*
G04 Gerber Generator version 0.2*
G04 Scale: 100 percent, Rotated: No, Reflected: No *
G04 Dimensions in millimeters *
G04 leading zeros omitted , absolute positions ,3 integer and 3 decimal *
G90*
G04 skipping 71
D38*
G01X0004226220Y0000991692D03*
G01X0004226220Y0000941692D03*
G01X0004226220Y0000891692D03*
G01X0004226220Y0000841692D03*
G01X0004226220Y0000791692D03*
G01X0004226220Y0000741692D03*
G01X0004226220Y0000691692D03*
G01X0004226220Y0000641692D03*
G01X0004226220Y0000591692D03*
G01X0004226220Y0000541692D03*
G01X0004745866Y0000541692D03*
G01X0004745866Y0000591692D03*
G01X0004745866Y0000641692D03*
G01X0004745866Y0000691692D03*
G01X0004745866Y0000741692D03*
G01X0004745866Y0000791692D03*
G01X0004745866Y0000841692D03*
G01X0004745866Y0000891692D03*
G01X0004745866Y0000941692D03*
G01X0004745866Y0000991692D03*
D39*
G01X0004486062Y0000766692D03*
D40*
G01X0005076574Y0000762755D03*
G01X0005076574Y0000691889D03*
D41*
G01X0004021456Y0000176181D03*
G01X0004241968Y0000176181D03*
D42*
G01X0004873464Y0000530511D03*
G01X0005040511Y0000530511D03*
G01X0005082834Y0000924173D03*
G01X0004915826Y0000924173D03*
D43*
G01X0004936062Y0000789685D03*
G01X0004936062Y0000663700D03*
D44*
G01X0004800984Y0001081653D03*
G01X0004879724Y0001081653D03*
G01X0004092362Y0000412401D03*
G01X0004171102Y0000412401D03*
G04 next file*
G04 Layer: TopPasteMaskLayer*
G04 EasyEDA v6.3.53, 2020-06-26T16:53:54--4:00*
G04 395d111042f2402990e7a52cfaf045f1,10*
G04 Gerber Generator version 0.2*
G04 Scale: 100 percent, Rotated: No, Reflected: No *
G04 Dimensions in millimeters *
G04 leading zeros omitted , absolute positions ,3 integer and 3 decimal *
G90*
G04 skipping 71
D45*
G01X0004226220Y0002212125D03*
G01X0004226220Y0002162125D03*
G01X0004226220Y0002112125D03*
G01X0004226220Y0002062125D03*
G01X0004226220Y0002012125D03*
G01X0004226220Y0001962125D03*
G01X0004226220Y0001912125D03*
G01X0004226220Y0001862125D03*
G01X0004226220Y0001812125D03*
G01X0004226220Y0001762125D03*
G01X0004745866Y0001762125D03*
G01X0004745866Y0001812125D03*
G01X0004745866Y0001862125D03*
G01X0004745866Y0001912125D03*
G01X0004745866Y0001962125D03*
G01X0004745866Y0002012125D03*
G01X0004745866Y0002062125D03*
G01X0004745866Y0002112125D03*
G01X0004745866Y0002162125D03*
G01X0004745866Y0002212125D03*
D46*
G01X0004486062Y0001987125D03*
D47*
G01X0005076574Y0001983188D03*
G01X0005076574Y0001912322D03*
D48*
G01X0004021456Y0001396614D03*
G01X0004241968Y0001396614D03*
D49*
G01X0004873464Y0001750944D03*
G01X0005040511Y0001750944D03*
G01X0005082834Y0002144606D03*
G01X0004915826Y0002144606D03*
D50*
G01X0004936062Y0002010118D03*
G01X0004936062Y0001884133D03*
D51*
G01X0004800984Y0002302086D03*
G01X0004879724Y0002302086D03*
G01X0004092362Y0001632834D03*
G01X0004171102Y0001632834D03*
G04 next file*
G04 Gerber Fmt 4.6, Leading zero omitted, Abs format (unit mm)*
G04 Created by KiCad (PCBNEW (5.1.6)-1) date 2020-09-18 16:39:39*
G01*
G04 APERTURE LIST*
G04 APERTURE END LIST*
M02*