%MOIN*%
%OFA0B0*%
%FSLAX44Y44*%
%IPPOS*%
%LPD*%
%ADD10C,0*%
D10*
X00000000Y00000000D02*
X00000000Y00000000D01*
X00010000Y00000000D01*
X00010000Y00020000D01*
X00000000Y00020000D01*
X00000000Y00000000D01*
X00052846Y00017891D02*
X00052846Y00017891D01*
X00057046Y00017891D01*
X00057046Y00022791D01*
X00052846Y00022791D01*
X00052846Y00017891D01*
X00052846Y00012204D02*
X00052846Y00012204D01*
X00057046Y00012204D01*
X00057046Y00017104D01*
X00052846Y00017104D01*
X00052846Y00012204D01*
X00052846Y00005687D02*
X00052846Y00005687D01*
X00057046Y00005687D01*
X00057046Y00010587D01*
X00052846Y00010587D01*
X00052846Y00005687D01*
X00052846Y00000000D02*
X00052846Y00000000D01*
X00057046Y00000000D01*
X00057046Y00004900D01*
X00052846Y00004900D01*
X00052846Y00000000D01*
X00014287Y00000000D02*
X00014287Y00000000D01*
X00023287Y00000000D01*
X00023365Y00000006D01*
X00023441Y00000024D01*
X00023514Y00000054D01*
X00023581Y00000095D01*
X00023640Y00000146D01*
X00023691Y00000206D01*
X00023732Y00000273D01*
X00023762Y00000345D01*
X00023781Y00000421D01*
X00023787Y00000500D01*
X00023787Y00014999D01*
X00023793Y00015078D01*
X00023811Y00015154D01*
X00023841Y00015226D01*
X00023882Y00015293D01*
X00023933Y00015353D01*
X00023993Y00015404D01*
X00024060Y00015445D01*
X00024132Y00015475D01*
X00024209Y00015493D01*
X00024287Y00015500D01*
X00024787Y00015500D01*
X00024865Y00015506D01*
X00024941Y00015524D01*
X00025014Y00015554D01*
X00025081Y00015595D01*
X00025140Y00015646D01*
X00025191Y00015706D01*
X00025232Y00015773D01*
X00025262Y00015845D01*
X00025281Y00015921D01*
X00025287Y00015999D01*
X00025287Y00018499D01*
X00025281Y00018578D01*
X00025262Y00018654D01*
X00025232Y00018726D01*
X00025191Y00018793D01*
X00025140Y00018853D01*
X00025081Y00018904D01*
X00025014Y00018945D01*
X00024941Y00018975D01*
X00024865Y00018993D01*
X00024787Y00019000D01*
X00011287Y00019000D01*
X00011209Y00018993D01*
X00011132Y00018975D01*
X00011060Y00018945D01*
X00010993Y00018904D01*
X00010933Y00018853D01*
X00010882Y00018793D01*
X00010841Y00018726D01*
X00010811Y00018654D01*
X00010793Y00018578D01*
X00010787Y00018499D01*
X00010787Y00015999D01*
X00010793Y00015921D01*
X00010811Y00015845D01*
X00010841Y00015773D01*
X00010882Y00015706D01*
X00010933Y00015646D01*
X00010993Y00015595D01*
X00011060Y00015554D01*
X00011132Y00015524D01*
X00011209Y00015506D01*
X00011287Y00015500D01*
X00013287Y00015500D01*
X00013365Y00015493D01*
X00013441Y00015475D01*
X00013514Y00015445D01*
X00013581Y00015404D01*
X00013640Y00015353D01*
X00013691Y00015293D01*
X00013732Y00015226D01*
X00013762Y00015154D01*
X00013781Y00015078D01*
X00013787Y00014999D01*
X00013787Y00000500D01*
X00013793Y00000421D01*
X00013811Y00000345D01*
X00013841Y00000273D01*
X00013882Y00000206D01*
X00013933Y00000146D01*
X00013993Y00000095D01*
X00014060Y00000054D01*
X00014132Y00000024D01*
X00014209Y00000006D01*
X00014287Y00000000D01*
X00039460Y00012204D02*
X00039460Y00012204D01*
X00052059Y00012204D01*
X00052059Y00023621D01*
X00039460Y00023621D01*
X00039460Y00012204D01*
X00039460Y00000000D02*
X00039460Y00000000D01*
X00052059Y00000000D01*
X00052059Y00011416D01*
X00039460Y00011416D01*
X00039460Y00000000D01*
X00026074Y00012204D02*
X00026074Y00012204D01*
X00038673Y00012204D01*
X00038673Y00023621D01*
X00026074Y00023621D01*
X00026074Y00012204D01*
X00026074Y00000000D02*
X00026074Y00000000D01*
X00038673Y00000000D01*
X00038673Y00011416D01*
X00026074Y00011416D01*
X00026074Y00000000D01*
M02*