%MOIN*%
%OFA0B0*%
%FSLAX46Y46*%
%IPPOS*%
%LPD*%
%ADD10C,0.01*%
%ADD11C,0.023622007874015746*%
%ADD12C,0.024015984251968506*%
%ADD13C,0.024000000000000004*%
%ADD14R,0.07874X0.025*%
%ADD15R,0.23622X0.62598401574803153*%
%ADD16R,0.04330700787401575X0.03937*%
%ADD17R,0.11811X0.03937*%
%ADD18R,0.05X0.065*%
%ADD19R,0.074802992125984263X0.047244015748031491*%
%ADD20R,0.03937X0.061024015748031506*%
%ADD21C,0.07874*%
%ADD22C,0.11811*%
%ADD33C,0.01*%
%ADD34C,0.023622007874015746*%
%ADD35C,0.024015984251968506*%
%ADD36C,0.024000000000000004*%
%ADD37R,0.07874X0.025*%
%ADD38R,0.23622X0.62598401574803153*%
%ADD39R,0.04330700787401575X0.03937*%
%ADD40R,0.11811X0.03937*%
%ADD41R,0.05X0.065*%
%ADD42R,0.074802992125984263X0.047244015748031491*%
%ADD43R,0.03937X0.061024015748031506*%
%ADD44C,0.07874*%
%ADD45C,0.11811*%
%ADD46C,0.01*%
%ADD47C,0.023622007874015746*%
%ADD48C,0.024015984251968506*%
%ADD49C,0.024000000000000004*%
%ADD50R,0.07874X0.025*%
%ADD51R,0.23622X0.62598401574803153*%
%ADD52R,0.04330700787401575X0.03937*%
%ADD53R,0.11811X0.03937*%
%ADD54R,0.05X0.065*%
%ADD55R,0.074802992125984263X0.047244015748031491*%
%ADD56R,0.03937X0.061024015748031506*%
%ADD57C,0.07874*%
%ADD58C,0.11811*%
%ADD59C,0.01*%
%ADD60C,0.023622007874015746*%
%ADD61C,0.024015984251968506*%
%ADD62C,0.024000000000000004*%
%ADD63R,0.07874X0.025*%
%ADD64R,0.23622X0.62598401574803153*%
%ADD65R,0.04330700787401575X0.03937*%
%ADD66R,0.11811X0.03937*%
%ADD67R,0.05X0.065*%
%ADD68R,0.074802992125984263X0.047244015748031491*%
%ADD69R,0.03937X0.061024015748031506*%
%ADD70C,0.07874*%
%ADD71C,0.11811*%
%ADD72C,0.060000000000000005*%
%ADD73O,0.062992125984251982X0.062992125984251982*%
%ADD74R,0.062992125984251982X0.062992125984251982*%
%ADD75C,0.00984251968503937*%
%ADD76C,0.01*%
%ADD77R,0.090157480314960639X0.11811023622047245*%
%ADD78O,0.062992125984251982X0.062992125984251982*%
%ADD79R,0.062992125984251982X0.062992125984251982*%
%ADD80C,0.00984251968503937*%
%ADD81R,0.090157480314960639X0.11811023622047245*%
%ADD82O,0.062992125984251982X0.062992125984251982*%
%ADD83R,0.062992125984251982X0.062992125984251982*%
%ADD84C,0.00984251968503937*%
%ADD85R,0.090157480314960639X0.11811023622047245*%
%ADD86O,0.062992125984251982X0.062992125984251982*%
%ADD87R,0.062992125984251982X0.062992125984251982*%
%ADD88C,0.00984251968503937*%
%ADD89R,0.090157480314960639X0.11811023622047245*%
%ADD90O,0.062992125984251982X0.062992125984251982*%
%ADD91R,0.062992125984251982X0.062992125984251982*%
%ADD92C,0.00984251968503937*%
%ADD93C,0.07874015748031496*%
G90*
G54D11*
G01X0002887637Y0000741692D02*
G01X0002932480Y0000741692D01*
G01X0002952480Y0000721692D01*
G01X0002952480Y0000371692D01*
G01X0003029921Y0000294251D01*
G01X0003462401Y0000294251D01*
G01X0003701850Y0000530511D02*
G01X0003782244Y0000531102D01*
G01X0003816771Y0000565629D01*
G01X0003816771Y0000884803D01*
G01X0003744251Y0000924212D01*
G01X0002887677Y0000791692D02*
G01X0002967559Y0000791692D01*
G01X0002989566Y0000769724D01*
G01X0002989566Y0000449015D01*
G01X0003026259Y0000412322D01*
G01X0003501850Y0000412322D01*
G01X0003619842Y0000294330D01*
G54D10*
G01X0002704566Y0001003228D02*
G01X0002802480Y0000905314D01*
G01X0002802480Y0000730314D01*
G01X0002839566Y0000693228D01*
G01X0002887677Y0000691692D01*
G54D11*
G01X0003407322Y0000591692D02*
G01X0003473622Y0000590511D01*
G01X0003534881Y0000530472D01*
G01X0003473622Y0000944881D02*
G01X0003470433Y0000941692D01*
G01X0003407322Y0000941692D01*
G54D10*
G01X0003407322Y0000991692D02*
G01X0003407322Y0000941692D01*
G01X0002887637Y0000991692D02*
G01X0002887598Y0000941692D01*
G01X0002704566Y0000528228D02*
G01X0002717992Y0000541692D01*
G01X0002887637Y0000541692D01*
G54D11*
G01X0003407322Y0000741692D02*
G01X0003487440Y0000741692D01*
G01X0003501811Y0000727322D01*
G01X0003407322Y0000791259D02*
G01X0003408858Y0000789685D01*
G01X0003597480Y0000789685D01*
G01X0003541181Y0001081653D02*
G01X0003577244Y0001045551D01*
G01X0003577244Y0000924173D01*
G01X0003407362Y0000891732D02*
G01X0003577244Y0000891732D01*
G01X0003577244Y0000924133D01*
G01X0003407322Y0000991692D02*
G01X0003462440Y0001046811D01*
G01X0003462440Y0001081653D01*
G01X0003597480Y0000663700D02*
G01X0003599448Y0000661692D01*
G01X0003662480Y0000661692D01*
G01X0002903346Y0000176102D02*
G01X0002989960Y0000176102D01*
G01X0003029370Y0000215511D01*
G01X0003203661Y0000215511D01*
G01X0003265551Y0000153622D01*
G01X0003265551Y0000097401D01*
G01X0002832519Y0000412362D02*
G01X0002903385Y0000341496D01*
G01X0002903385Y0000176141D01*
G01X0002832519Y0000412362D02*
G01X0002887637Y0000467480D01*
G01X0002887637Y0000541692D01*
G54D10*
G01X0002809055Y0000641692D02*
G01X0002887637Y0000641692D01*
G01X0003339566Y0000693228D02*
G01X0003341102Y0000691692D01*
G01X0003407322Y0000691692D01*
G01X0002827480Y0000841692D02*
G01X0002827480Y0000841692D01*
G01X0002887637Y0000841692D01*
G01X0002809055Y0000641692D02*
G01X0002802519Y0000648228D01*
G01X0002704566Y0000648228D01*
G01X0003339566Y0000643228D02*
G01X0003341062Y0000641732D01*
G01X0003407362Y0000641732D01*
G54D11*
G01X0003407244Y0000841692D02*
G01X0003663858Y0000841692D01*
G01X0003738070Y0000762795D01*
G54D10*
G01X0002887637Y0000641692D02*
G01X0002880748Y0000648582D01*
G54D11*
G01X0003701889Y0000530472D02*
G01X0003738031Y0000566574D01*
G01X0003738031Y0000691889D01*
G01X0002682874Y0000176141D02*
G01X0002761614Y0000097401D01*
G01X0003108070Y0000097401D01*
G01X0002819566Y0000588228D02*
G01X0002822992Y0000591692D01*
G01X0002887637Y0000591692D01*
G01X0002753779Y0000412362D02*
G01X0002753779Y0000451732D01*
G01X0002793149Y0000491141D01*
G01X0002753779Y0000412362D02*
G01X0002682874Y0000341496D01*
G01X0002682874Y0000176141D01*
G54D10*
G01X0003339566Y0000643228D02*
G01X0003302480Y0000680314D01*
G01X0003302480Y0001102322D01*
G01X0002944566Y0001102322D01*
G01X0002944566Y0000893228D01*
G01X0002887677Y0000891692D01*
G54D14*
G01X0002887637Y0000991692D03*
G01X0002887637Y0000941692D03*
G01X0002887637Y0000891692D03*
G01X0002887637Y0000841692D03*
G01X0002887637Y0000791692D03*
G01X0002887637Y0000741692D03*
G01X0002887637Y0000691692D03*
G01X0002887637Y0000641692D03*
G01X0002887637Y0000591692D03*
G01X0002887637Y0000541692D03*
G01X0003407283Y0000541692D03*
G01X0003407283Y0000591692D03*
G01X0003407283Y0000641692D03*
G01X0003407283Y0000691692D03*
G01X0003407283Y0000741692D03*
G01X0003407283Y0000791692D03*
G01X0003407283Y0000841692D03*
G01X0003407283Y0000891692D03*
G01X0003407283Y0000941692D03*
G01X0003407283Y0000991692D03*
G54D15*
G01X0003147480Y0000766692D03*
G54D16*
G01X0003737992Y0000762755D03*
G01X0003737992Y0000691889D03*
G54D17*
G01X0002682874Y0000176181D03*
G01X0002903385Y0000176181D03*
G54D18*
G01X0003534881Y0000530511D03*
G01X0003701929Y0000530511D03*
G01X0003744251Y0000924173D03*
G01X0003577244Y0000924173D03*
G54D19*
G01X0003597480Y0000789685D03*
G01X0003597480Y0000663700D03*
G54D20*
G01X0003462401Y0001081653D03*
G01X0003541141Y0001081653D03*
G01X0002753779Y0000412401D03*
G01X0002832519Y0000412401D03*
G54D12*
G01X0003339566Y0000693228D03*
G54D13*
G01X0002827480Y0000841692D03*
G01X0003339566Y0000643228D03*
G01X0003501771Y0000727322D03*
G01X0003662480Y0000661692D03*
G01X0003473582Y0000944881D03*
G01X0002793149Y0000491141D03*
G01X0002819566Y0000588228D03*
G54D21*
G01X0002684881Y0001003228D02*
G01X0002724251Y0001003228D01*
G01X0002684881Y0000883228D02*
G01X0002724251Y0000883228D01*
G01X0002684881Y0000763228D02*
G01X0002724251Y0000763228D01*
G01X0002684881Y0000648228D02*
G01X0002724251Y0000648228D01*
G01X0002684881Y0000528228D02*
G01X0002724251Y0000528228D01*
G54D22*
G01X0003108110Y0000117086D02*
G01X0003108110Y0000077716D01*
G01X0003265551Y0000117086D02*
G01X0003265551Y0000077716D01*
G01X0003777362Y0000313937D02*
G01X0003777362Y0000274566D01*
G01X0003619881Y0000313937D02*
G01X0003619881Y0000274566D01*
G01X0003462401Y0000313937D02*
G01X0003462401Y0000274566D01*
G04 next file*
G04 Layer: TopLayer*
G04 EasyEDA v6.3.53, 2020-06-26T16:53:54--4:00*
G04 395d111042f2402990e7a52cfaf045f1,10*
G04 Gerber Generator version 0.2*
G04 Scale: 100 percent, Rotated: No, Reflected: No *
G04 Dimensions in millimeters *
G04 leading zeros omitted , absolute positions ,3 integer and 3 decimal *
G90*
G04 skipping 71
D34*
G01X0002887637Y0001962125D02*
G01X0002932480Y0001962125D01*
G01X0002952480Y0001942125D01*
G01X0002952480Y0001592125D01*
G01X0003029921Y0001514685D01*
G01X0003462401Y0001514685D01*
G01X0003701850Y0001750944D02*
G01X0003782244Y0001751535D01*
G01X0003816771Y0001786062D01*
G01X0003816771Y0002105236D01*
G01X0003744251Y0002144645D01*
G01X0002887677Y0002012125D02*
G01X0002967559Y0002012125D01*
G01X0002989566Y0001990157D01*
G01X0002989566Y0001669448D01*
G01X0003026259Y0001632755D01*
G01X0003501850Y0001632755D01*
G01X0003619842Y0001514763D01*
D33*
G01X0002704566Y0002223661D02*
G01X0002802480Y0002125748D01*
G01X0002802480Y0001950748D01*
G01X0002839566Y0001913661D01*
G01X0002887677Y0001912125D01*
D34*
G01X0003407322Y0001812125D02*
G01X0003473622Y0001810944D01*
G01X0003534881Y0001750905D01*
G01X0003473622Y0002165314D02*
G01X0003470433Y0002162125D01*
G01X0003407322Y0002162125D01*
D33*
G01X0003407322Y0002212125D02*
G01X0003407322Y0002162125D01*
G01X0002887637Y0002212125D02*
G01X0002887598Y0002162125D01*
G01X0002704566Y0001748661D02*
G01X0002717992Y0001762125D01*
G01X0002887637Y0001762125D01*
D34*
G01X0003407322Y0001962125D02*
G01X0003487440Y0001962125D01*
G01X0003501811Y0001947755D01*
G01X0003407322Y0002011692D02*
G01X0003408858Y0002010118D01*
G01X0003597480Y0002010118D01*
G01X0003541181Y0002302086D02*
G01X0003577244Y0002265984D01*
G01X0003577244Y0002144606D01*
G01X0003407362Y0002112165D02*
G01X0003577244Y0002112165D01*
G01X0003577244Y0002144566D01*
G01X0003407322Y0002212125D02*
G01X0003462440Y0002267244D01*
G01X0003462440Y0002302086D01*
G01X0003597480Y0001884133D02*
G01X0003599448Y0001882125D01*
G01X0003662480Y0001882125D01*
G01X0002903346Y0001396535D02*
G01X0002989960Y0001396535D01*
G01X0003029370Y0001435944D01*
G01X0003203661Y0001435944D01*
G01X0003265551Y0001374055D01*
G01X0003265551Y0001317834D01*
G01X0002832519Y0001632795D02*
G01X0002903385Y0001561929D01*
G01X0002903385Y0001396574D01*
G01X0002832519Y0001632795D02*
G01X0002887637Y0001687913D01*
G01X0002887637Y0001762125D01*
D33*
G01X0002809055Y0001862125D02*
G01X0002887637Y0001862125D01*
G01X0003339566Y0001913661D02*
G01X0003341102Y0001912125D01*
G01X0003407322Y0001912125D01*
G01X0002827480Y0002062125D02*
G01X0002827480Y0002062125D01*
G01X0002887637Y0002062125D01*
G01X0002809055Y0001862125D02*
G01X0002802519Y0001868661D01*
G01X0002704566Y0001868661D01*
G01X0003339566Y0001863661D02*
G01X0003341062Y0001862165D01*
G01X0003407362Y0001862165D01*
D34*
G01X0003407244Y0002062125D02*
G01X0003663858Y0002062125D01*
G01X0003738070Y0001983228D01*
D33*
G01X0002887637Y0001862125D02*
G01X0002880748Y0001869015D01*
D34*
G01X0003701889Y0001750905D02*
G01X0003738031Y0001787007D01*
G01X0003738031Y0001912322D01*
G01X0002682874Y0001396574D02*
G01X0002761614Y0001317834D01*
G01X0003108070Y0001317834D01*
G01X0002819566Y0001808661D02*
G01X0002822992Y0001812125D01*
G01X0002887637Y0001812125D01*
G01X0002753779Y0001632795D02*
G01X0002753779Y0001672165D01*
G01X0002793149Y0001711574D01*
G01X0002753779Y0001632795D02*
G01X0002682874Y0001561929D01*
G01X0002682874Y0001396574D01*
D33*
G01X0003339566Y0001863661D02*
G01X0003302480Y0001900748D01*
G01X0003302480Y0002322755D01*
G01X0002944566Y0002322755D01*
G01X0002944566Y0002113661D01*
G01X0002887677Y0002112125D01*
D37*
G01X0002887637Y0002212125D03*
G01X0002887637Y0002162125D03*
G01X0002887637Y0002112125D03*
G01X0002887637Y0002062125D03*
G01X0002887637Y0002012125D03*
G01X0002887637Y0001962125D03*
G01X0002887637Y0001912125D03*
G01X0002887637Y0001862125D03*
G01X0002887637Y0001812125D03*
G01X0002887637Y0001762125D03*
G01X0003407283Y0001762125D03*
G01X0003407283Y0001812125D03*
G01X0003407283Y0001862125D03*
G01X0003407283Y0001912125D03*
G01X0003407283Y0001962125D03*
G01X0003407283Y0002012125D03*
G01X0003407283Y0002062125D03*
G01X0003407283Y0002112125D03*
G01X0003407283Y0002162125D03*
G01X0003407283Y0002212125D03*
D38*
G01X0003147480Y0001987125D03*
D39*
G01X0003737992Y0001983188D03*
G01X0003737992Y0001912322D03*
D40*
G01X0002682874Y0001396614D03*
G01X0002903385Y0001396614D03*
D41*
G01X0003534881Y0001750944D03*
G01X0003701929Y0001750944D03*
G01X0003744251Y0002144606D03*
G01X0003577244Y0002144606D03*
D42*
G01X0003597480Y0002010118D03*
G01X0003597480Y0001884133D03*
D43*
G01X0003462401Y0002302086D03*
G01X0003541141Y0002302086D03*
G01X0002753779Y0001632834D03*
G01X0002832519Y0001632834D03*
D35*
G01X0003339566Y0001913661D03*
D36*
G01X0002827480Y0002062125D03*
G01X0003339566Y0001863661D03*
G01X0003501771Y0001947755D03*
G01X0003662480Y0001882125D03*
G01X0003473582Y0002165314D03*
G01X0002793149Y0001711574D03*
G01X0002819566Y0001808661D03*
D44*
G01X0002684881Y0002223661D02*
G01X0002724251Y0002223661D01*
G01X0002684881Y0002103661D02*
G01X0002724251Y0002103661D01*
G01X0002684881Y0001983661D02*
G01X0002724251Y0001983661D01*
G01X0002684881Y0001868661D02*
G01X0002724251Y0001868661D01*
G01X0002684881Y0001748661D02*
G01X0002724251Y0001748661D01*
D45*
G01X0003108110Y0001337519D02*
G01X0003108110Y0001298149D01*
G01X0003265551Y0001337519D02*
G01X0003265551Y0001298149D01*
G01X0003777362Y0001534370D02*
G01X0003777362Y0001495000D01*
G01X0003619881Y0001534370D02*
G01X0003619881Y0001495000D01*
G01X0003462401Y0001534370D02*
G01X0003462401Y0001495000D01*
G04 next file*
G04 Layer: TopLayer*
G04 EasyEDA v6.3.53, 2020-06-26T16:53:54--4:00*
G04 395d111042f2402990e7a52cfaf045f1,10*
G04 Gerber Generator version 0.2*
G04 Scale: 100 percent, Rotated: No, Reflected: No *
G04 Dimensions in millimeters *
G04 leading zeros omitted , absolute positions ,3 integer and 3 decimal *
G90*
G04 skipping 71
D47*
G01X0004226220Y0000741692D02*
G01X0004271062Y0000741692D01*
G01X0004291062Y0000721692D01*
G01X0004291062Y0000371692D01*
G01X0004368503Y0000294251D01*
G01X0004800984Y0000294251D01*
G01X0005040433Y0000530511D02*
G01X0005120826Y0000531102D01*
G01X0005155354Y0000565629D01*
G01X0005155354Y0000884803D01*
G01X0005082834Y0000924212D01*
G01X0004226259Y0000791692D02*
G01X0004306141Y0000791692D01*
G01X0004328149Y0000769724D01*
G01X0004328149Y0000449015D01*
G01X0004364842Y0000412322D01*
G01X0004840433Y0000412322D01*
G01X0004958425Y0000294330D01*
D46*
G01X0004043149Y0001003228D02*
G01X0004141062Y0000905314D01*
G01X0004141062Y0000730314D01*
G01X0004178149Y0000693228D01*
G01X0004226259Y0000691692D01*
D47*
G01X0004745905Y0000591692D02*
G01X0004812204Y0000590511D01*
G01X0004873464Y0000530472D01*
G01X0004812204Y0000944881D02*
G01X0004809015Y0000941692D01*
G01X0004745905Y0000941692D01*
D46*
G01X0004745905Y0000991692D02*
G01X0004745905Y0000941692D01*
G01X0004226220Y0000991692D02*
G01X0004226181Y0000941692D01*
G01X0004043149Y0000528228D02*
G01X0004056574Y0000541692D01*
G01X0004226220Y0000541692D01*
D47*
G01X0004745905Y0000741692D02*
G01X0004826023Y0000741692D01*
G01X0004840393Y0000727322D01*
G01X0004745905Y0000791259D02*
G01X0004747440Y0000789685D01*
G01X0004936062Y0000789685D01*
G01X0004879763Y0001081653D02*
G01X0004915826Y0001045551D01*
G01X0004915826Y0000924173D01*
G01X0004745944Y0000891732D02*
G01X0004915826Y0000891732D01*
G01X0004915826Y0000924133D01*
G01X0004745905Y0000991692D02*
G01X0004801023Y0001046811D01*
G01X0004801023Y0001081653D01*
G01X0004936062Y0000663700D02*
G01X0004938031Y0000661692D01*
G01X0005001062Y0000661692D01*
G01X0004241929Y0000176102D02*
G01X0004328543Y0000176102D01*
G01X0004367952Y0000215511D01*
G01X0004542244Y0000215511D01*
G01X0004604133Y0000153622D01*
G01X0004604133Y0000097401D01*
G01X0004171102Y0000412362D02*
G01X0004241968Y0000341496D01*
G01X0004241968Y0000176141D01*
G01X0004171102Y0000412362D02*
G01X0004226220Y0000467480D01*
G01X0004226220Y0000541692D01*
D46*
G01X0004147637Y0000641692D02*
G01X0004226220Y0000641692D01*
G01X0004678149Y0000693228D02*
G01X0004679685Y0000691692D01*
G01X0004745905Y0000691692D01*
G01X0004166062Y0000841692D02*
G01X0004166062Y0000841692D01*
G01X0004226220Y0000841692D01*
G01X0004147637Y0000641692D02*
G01X0004141102Y0000648228D01*
G01X0004043149Y0000648228D01*
G01X0004678149Y0000643228D02*
G01X0004679645Y0000641732D01*
G01X0004745944Y0000641732D01*
D47*
G01X0004745826Y0000841692D02*
G01X0005002440Y0000841692D01*
G01X0005076653Y0000762795D01*
D46*
G01X0004226220Y0000641692D02*
G01X0004219330Y0000648582D01*
D47*
G01X0005040472Y0000530472D02*
G01X0005076614Y0000566574D01*
G01X0005076614Y0000691889D01*
G01X0004021456Y0000176141D02*
G01X0004100196Y0000097401D01*
G01X0004446653Y0000097401D01*
G01X0004158149Y0000588228D02*
G01X0004161574Y0000591692D01*
G01X0004226220Y0000591692D01*
G01X0004092362Y0000412362D02*
G01X0004092362Y0000451732D01*
G01X0004131732Y0000491141D01*
G01X0004092362Y0000412362D02*
G01X0004021456Y0000341496D01*
G01X0004021456Y0000176141D01*
D46*
G01X0004678149Y0000643228D02*
G01X0004641062Y0000680314D01*
G01X0004641062Y0001102322D01*
G01X0004283149Y0001102322D01*
G01X0004283149Y0000893228D01*
G01X0004226259Y0000891692D01*
D50*
G01X0004226220Y0000991692D03*
G01X0004226220Y0000941692D03*
G01X0004226220Y0000891692D03*
G01X0004226220Y0000841692D03*
G01X0004226220Y0000791692D03*
G01X0004226220Y0000741692D03*
G01X0004226220Y0000691692D03*
G01X0004226220Y0000641692D03*
G01X0004226220Y0000591692D03*
G01X0004226220Y0000541692D03*
G01X0004745866Y0000541692D03*
G01X0004745866Y0000591692D03*
G01X0004745866Y0000641692D03*
G01X0004745866Y0000691692D03*
G01X0004745866Y0000741692D03*
G01X0004745866Y0000791692D03*
G01X0004745866Y0000841692D03*
G01X0004745866Y0000891692D03*
G01X0004745866Y0000941692D03*
G01X0004745866Y0000991692D03*
D51*
G01X0004486062Y0000766692D03*
D52*
G01X0005076574Y0000762755D03*
G01X0005076574Y0000691889D03*
D53*
G01X0004021456Y0000176181D03*
G01X0004241968Y0000176181D03*
D54*
G01X0004873464Y0000530511D03*
G01X0005040511Y0000530511D03*
G01X0005082834Y0000924173D03*
G01X0004915826Y0000924173D03*
D55*
G01X0004936062Y0000789685D03*
G01X0004936062Y0000663700D03*
D56*
G01X0004800984Y0001081653D03*
G01X0004879724Y0001081653D03*
G01X0004092362Y0000412401D03*
G01X0004171102Y0000412401D03*
D48*
G01X0004678149Y0000693228D03*
D49*
G01X0004166062Y0000841692D03*
G01X0004678149Y0000643228D03*
G01X0004840354Y0000727322D03*
G01X0005001062Y0000661692D03*
G01X0004812165Y0000944881D03*
G01X0004131732Y0000491141D03*
G01X0004158149Y0000588228D03*
D57*
G01X0004023464Y0001003228D02*
G01X0004062834Y0001003228D01*
G01X0004023464Y0000883228D02*
G01X0004062834Y0000883228D01*
G01X0004023464Y0000763228D02*
G01X0004062834Y0000763228D01*
G01X0004023464Y0000648228D02*
G01X0004062834Y0000648228D01*
G01X0004023464Y0000528228D02*
G01X0004062834Y0000528228D01*
D58*
G01X0004446692Y0000117086D02*
G01X0004446692Y0000077716D01*
G01X0004604133Y0000117086D02*
G01X0004604133Y0000077716D01*
G01X0005115944Y0000313937D02*
G01X0005115944Y0000274566D01*
G01X0004958464Y0000313937D02*
G01X0004958464Y0000274566D01*
G01X0004800984Y0000313937D02*
G01X0004800984Y0000274566D01*
G04 next file*
G04 Layer: TopLayer*
G04 EasyEDA v6.3.53, 2020-06-26T16:53:54--4:00*
G04 395d111042f2402990e7a52cfaf045f1,10*
G04 Gerber Generator version 0.2*
G04 Scale: 100 percent, Rotated: No, Reflected: No *
G04 Dimensions in millimeters *
G04 leading zeros omitted , absolute positions ,3 integer and 3 decimal *
G90*
G04 skipping 71
D60*
G01X0004226220Y0001962125D02*
G01X0004271062Y0001962125D01*
G01X0004291062Y0001942125D01*
G01X0004291062Y0001592125D01*
G01X0004368503Y0001514685D01*
G01X0004800984Y0001514685D01*
G01X0005040433Y0001750944D02*
G01X0005120826Y0001751535D01*
G01X0005155354Y0001786062D01*
G01X0005155354Y0002105236D01*
G01X0005082834Y0002144645D01*
G01X0004226259Y0002012125D02*
G01X0004306141Y0002012125D01*
G01X0004328149Y0001990157D01*
G01X0004328149Y0001669448D01*
G01X0004364842Y0001632755D01*
G01X0004840433Y0001632755D01*
G01X0004958425Y0001514763D01*
D59*
G01X0004043149Y0002223661D02*
G01X0004141062Y0002125748D01*
G01X0004141062Y0001950748D01*
G01X0004178149Y0001913661D01*
G01X0004226259Y0001912125D01*
D60*
G01X0004745905Y0001812125D02*
G01X0004812204Y0001810944D01*
G01X0004873464Y0001750905D01*
G01X0004812204Y0002165314D02*
G01X0004809015Y0002162125D01*
G01X0004745905Y0002162125D01*
D59*
G01X0004745905Y0002212125D02*
G01X0004745905Y0002162125D01*
G01X0004226220Y0002212125D02*
G01X0004226181Y0002162125D01*
G01X0004043149Y0001748661D02*
G01X0004056574Y0001762125D01*
G01X0004226220Y0001762125D01*
D60*
G01X0004745905Y0001962125D02*
G01X0004826023Y0001962125D01*
G01X0004840393Y0001947755D01*
G01X0004745905Y0002011692D02*
G01X0004747440Y0002010118D01*
G01X0004936062Y0002010118D01*
G01X0004879763Y0002302086D02*
G01X0004915826Y0002265984D01*
G01X0004915826Y0002144606D01*
G01X0004745944Y0002112165D02*
G01X0004915826Y0002112165D01*
G01X0004915826Y0002144566D01*
G01X0004745905Y0002212125D02*
G01X0004801023Y0002267244D01*
G01X0004801023Y0002302086D01*
G01X0004936062Y0001884133D02*
G01X0004938031Y0001882125D01*
G01X0005001062Y0001882125D01*
G01X0004241929Y0001396535D02*
G01X0004328543Y0001396535D01*
G01X0004367952Y0001435944D01*
G01X0004542244Y0001435944D01*
G01X0004604133Y0001374055D01*
G01X0004604133Y0001317834D01*
G01X0004171102Y0001632795D02*
G01X0004241968Y0001561929D01*
G01X0004241968Y0001396574D01*
G01X0004171102Y0001632795D02*
G01X0004226220Y0001687913D01*
G01X0004226220Y0001762125D01*
D59*
G01X0004147637Y0001862125D02*
G01X0004226220Y0001862125D01*
G01X0004678149Y0001913661D02*
G01X0004679685Y0001912125D01*
G01X0004745905Y0001912125D01*
G01X0004166062Y0002062125D02*
G01X0004166062Y0002062125D01*
G01X0004226220Y0002062125D01*
G01X0004147637Y0001862125D02*
G01X0004141102Y0001868661D01*
G01X0004043149Y0001868661D01*
G01X0004678149Y0001863661D02*
G01X0004679645Y0001862165D01*
G01X0004745944Y0001862165D01*
D60*
G01X0004745826Y0002062125D02*
G01X0005002440Y0002062125D01*
G01X0005076653Y0001983228D01*
D59*
G01X0004226220Y0001862125D02*
G01X0004219330Y0001869015D01*
D60*
G01X0005040472Y0001750905D02*
G01X0005076614Y0001787007D01*
G01X0005076614Y0001912322D01*
G01X0004021456Y0001396574D02*
G01X0004100196Y0001317834D01*
G01X0004446653Y0001317834D01*
G01X0004158149Y0001808661D02*
G01X0004161574Y0001812125D01*
G01X0004226220Y0001812125D01*
G01X0004092362Y0001632795D02*
G01X0004092362Y0001672165D01*
G01X0004131732Y0001711574D01*
G01X0004092362Y0001632795D02*
G01X0004021456Y0001561929D01*
G01X0004021456Y0001396574D01*
D59*
G01X0004678149Y0001863661D02*
G01X0004641062Y0001900748D01*
G01X0004641062Y0002322755D01*
G01X0004283149Y0002322755D01*
G01X0004283149Y0002113661D01*
G01X0004226259Y0002112125D01*
D63*
G01X0004226220Y0002212125D03*
G01X0004226220Y0002162125D03*
G01X0004226220Y0002112125D03*
G01X0004226220Y0002062125D03*
G01X0004226220Y0002012125D03*
G01X0004226220Y0001962125D03*
G01X0004226220Y0001912125D03*
G01X0004226220Y0001862125D03*
G01X0004226220Y0001812125D03*
G01X0004226220Y0001762125D03*
G01X0004745866Y0001762125D03*
G01X0004745866Y0001812125D03*
G01X0004745866Y0001862125D03*
G01X0004745866Y0001912125D03*
G01X0004745866Y0001962125D03*
G01X0004745866Y0002012125D03*
G01X0004745866Y0002062125D03*
G01X0004745866Y0002112125D03*
G01X0004745866Y0002162125D03*
G01X0004745866Y0002212125D03*
D64*
G01X0004486062Y0001987125D03*
D65*
G01X0005076574Y0001983188D03*
G01X0005076574Y0001912322D03*
D66*
G01X0004021456Y0001396614D03*
G01X0004241968Y0001396614D03*
D67*
G01X0004873464Y0001750944D03*
G01X0005040511Y0001750944D03*
G01X0005082834Y0002144606D03*
G01X0004915826Y0002144606D03*
D68*
G01X0004936062Y0002010118D03*
G01X0004936062Y0001884133D03*
D69*
G01X0004800984Y0002302086D03*
G01X0004879724Y0002302086D03*
G01X0004092362Y0001632834D03*
G01X0004171102Y0001632834D03*
D61*
G01X0004678149Y0001913661D03*
D62*
G01X0004166062Y0002062125D03*
G01X0004678149Y0001863661D03*
G01X0004840354Y0001947755D03*
G01X0005001062Y0001882125D03*
G01X0004812165Y0002165314D03*
G01X0004131732Y0001711574D03*
G01X0004158149Y0001808661D03*
D70*
G01X0004023464Y0002223661D02*
G01X0004062834Y0002223661D01*
G01X0004023464Y0002103661D02*
G01X0004062834Y0002103661D01*
G01X0004023464Y0001983661D02*
G01X0004062834Y0001983661D01*
G01X0004023464Y0001868661D02*
G01X0004062834Y0001868661D01*
G01X0004023464Y0001748661D02*
G01X0004062834Y0001748661D01*
D71*
G01X0004446692Y0001337519D02*
G01X0004446692Y0001298149D01*
G01X0004604133Y0001337519D02*
G01X0004604133Y0001298149D01*
G01X0005115944Y0001534370D02*
G01X0005115944Y0001495000D01*
G01X0004958464Y0001534370D02*
G01X0004958464Y0001495000D01*
G01X0004800984Y0001534370D02*
G01X0004800984Y0001495000D01*
G04 next file*
G04 Gerber Fmt 4.6, Leading zero omitted, Abs format (unit mm)*
G04 Created by KiCad (PCBNEW (5.1.6)-1) date 2020-09-18 20:45:58*
G01*
G04 APERTURE LIST*
G04 APERTURE END LIST*
D72*
X-0003771259Y0004750000D02*
X0001134240Y0001812000D03*
X0001243240Y0001812000D03*
X0001352240Y0001812000D03*
X0001461240Y0001812000D03*
X0001570240Y0001812000D03*
X0001679240Y0001812000D03*
X0001788240Y0001812000D03*
X0001897240Y0001812000D03*
X0002006240Y0001812000D03*
X0002115240Y0001812000D03*
X0002224240Y0001812000D03*
X0002333240Y0001812000D03*
X0002442240Y0001812000D03*
X0001188740Y0001700000D03*
X0001297740Y0001700000D03*
X0001406740Y0001700000D03*
X0001515740Y0001700000D03*
X0001624740Y0001700000D03*
X0001733740Y0001700000D03*
X0001842740Y0001700000D03*
X0001951740Y0001700000D03*
X0002060740Y0001700000D03*
X0002169740Y0001700000D03*
X0002278740Y0001700000D03*
X0002387740Y0001700000D03*
D73*
X0002178740Y0000100000D03*
X0001578740Y0000100000D03*
X0002178740Y0001500000D03*
X0001578740Y0000200000D03*
X0002178740Y0001400000D03*
X0001578740Y0000300000D03*
X0002178740Y0001300000D03*
X0001578740Y0000400000D03*
X0002178740Y0001200000D03*
X0001578740Y0000500000D03*
X0002178740Y0001100000D03*
X0001578740Y0000600000D03*
X0002178740Y0001000000D03*
X0001578740Y0000700000D03*
X0002178740Y0000900000D03*
X0001578740Y0000800000D03*
X0002178740Y0000800000D03*
X0001578740Y0000900000D03*
X0002178740Y0000700000D03*
X0001578740Y0001000000D03*
X0002178740Y0000600000D03*
X0001578740Y0001100000D03*
X0002178740Y0000500000D03*
X0001578740Y0001200000D03*
X0002178740Y0000400000D03*
X0001578740Y0001300000D03*
X0002178740Y0000300000D03*
X0001578740Y0001400000D03*
X0002178740Y0000200000D03*
D74*
X0001578740Y0001500000D03*
D75*
X0001557480Y0001244291D02*
X0001516731Y0001203543D01*
X0001516731Y0000662008D02*
X0001578740Y0000600000D01*
X0001516731Y0001203543D02*
X0001516731Y0000662008D01*
X0001588582Y0001244291D02*
X0001557480Y0001244291D01*
X0002006240Y0001661948D02*
X0001588582Y0001244291D01*
X0002006240Y0001812000D02*
X0002006240Y0001661948D01*
X0002157480Y0001544291D02*
X0001623031Y0001009842D01*
X0002186368Y0001544291D02*
X0002157480Y0001544291D01*
X0001623031Y0000844291D02*
X0001578740Y0000800000D01*
X0002321535Y0001679458D02*
X0002186368Y0001544291D01*
X0002321535Y0001736958D02*
X0002321535Y0001679458D01*
X0002376035Y0001791458D02*
X0002321535Y0001736958D01*
X0002376035Y0001832541D02*
X0002376035Y0001791458D01*
X0001623031Y0001009842D02*
X0001623031Y0000844291D01*
X0002353781Y0001854795D02*
X0002376035Y0001832541D01*
X0002267035Y0001854795D02*
X0002353781Y0001854795D01*
X0002224240Y0001812000D02*
X0002267035Y0001854795D01*
X0001534448Y0000944291D02*
X0001578740Y0000900000D01*
X0001534448Y0001121259D02*
X0001534448Y0000944291D01*
X0001557480Y0001144291D02*
X0001534448Y0001121259D01*
X0001600000Y0001144291D02*
X0001557480Y0001144291D01*
X0002115240Y0001659531D02*
X0001600000Y0001144291D01*
X0002115240Y0001812000D02*
X0002115240Y0001659531D01*
X0001633077Y0001100000D02*
X0001578740Y0001100000D01*
X0002212535Y0001679458D02*
X0001633077Y0001100000D01*
X0002212535Y0001733721D02*
X0002212535Y0001679458D01*
X0002290813Y0001812000D02*
X0002212535Y0001733721D01*
X0002333240Y0001812000D02*
X0002290813Y0001812000D01*
D76*
G36*
X0002483380Y0001873436D02*
G01*
X0002487844Y0001872088D01*
X0002491961Y0001869899D01*
X0002495574Y0001866952D01*
X0002498546Y0001863359D01*
X0002500764Y0001859258D01*
X0002502143Y0001854804D01*
X0002502755Y0001848975D01*
X0002502755Y0001601270D01*
X0002502176Y0001595359D01*
X0002500828Y0001590895D01*
X0002498639Y0001586778D01*
X0002495692Y0001583165D01*
X0002492099Y0001580193D01*
X0002487998Y0001577975D01*
X0002483544Y0001576596D01*
X0002477715Y0001575984D01*
X0002427463Y0001575984D01*
X0002426343Y0001575873D01*
X0002426036Y0001575876D01*
X0002425675Y0001575840D01*
X0002415970Y0001574820D01*
X0002413662Y0001574347D01*
X0002411349Y0001573905D01*
X0002411002Y0001573800D01*
X0002401680Y0001570915D01*
X0002399510Y0001570002D01*
X0002397325Y0001569120D01*
X0002397005Y0001568950D01*
X0002388421Y0001564308D01*
X0002386470Y0001562992D01*
X0002384498Y0001561702D01*
X0002384217Y0001561473D01*
X0002376698Y0001555252D01*
X0002375039Y0001553582D01*
X0002373356Y0001551934D01*
X0002373125Y0001551654D01*
X0002366957Y0001544092D01*
X0002365655Y0001542132D01*
X0002364323Y0001540187D01*
X0002364151Y0001539868D01*
X0002359570Y0001531252D01*
X0002358673Y0001529076D01*
X0002357744Y0001526910D01*
X0002357637Y0001526563D01*
X0002354817Y0001517222D01*
X0002354359Y0001514911D01*
X0002353870Y0001512608D01*
X0002353832Y0001512247D01*
X0002352879Y0001502535D01*
X0002352879Y0001502535D01*
X0002352755Y0001501276D01*
X0002352755Y0000051270D01*
X0002352176Y0000045359D01*
X0002350828Y0000040895D01*
X0002348639Y0000036778D01*
X0002345692Y0000033165D01*
X0002342099Y0000030193D01*
X0002337998Y0000027975D01*
X0002333544Y0000026596D01*
X0002327715Y0000025984D01*
X0001430010Y0000025984D01*
X0001424099Y0000026563D01*
X0001419635Y0000027911D01*
X0001415518Y0000030100D01*
X0001411905Y0000033047D01*
X0001408933Y0000036640D01*
X0001406715Y0000040741D01*
X0001405336Y0000045195D01*
X0001404724Y0000051024D01*
X0001404724Y0001501276D01*
X0001404614Y0001502396D01*
X0001404616Y0001502704D01*
X0001404580Y0001503065D01*
X0001403560Y0001512769D01*
X0001403087Y0001515077D01*
X0001402645Y0001517390D01*
X0001402541Y0001517737D01*
X0001399655Y0001527059D01*
X0001398743Y0001529230D01*
X0001397860Y0001531414D01*
X0001397690Y0001531734D01*
X0001393049Y0001540318D01*
X0001391732Y0001542269D01*
X0001390442Y0001544241D01*
X0001390213Y0001544522D01*
X0001383992Y0001552041D01*
X0001382322Y0001553700D01*
X0001380674Y0001555383D01*
X0001380394Y0001555614D01*
X0001372832Y0001561782D01*
X0001370872Y0001563084D01*
X0001368927Y0001564416D01*
X0001368608Y0001564588D01*
X0001359992Y0001569170D01*
X0001357816Y0001570067D01*
X0001355650Y0001570995D01*
X0001355303Y0001571102D01*
X0001345962Y0001573922D01*
X0001343651Y0001574380D01*
X0001341348Y0001574870D01*
X0001340987Y0001574908D01*
X0001340987Y0001574908D01*
X0001331275Y0001575860D01*
X0001331275Y0001575860D01*
X0001330016Y0001575984D01*
X0001130010Y0001575984D01*
X0001124099Y0001576563D01*
X0001119635Y0001577911D01*
X0001115518Y0001580100D01*
X0001111905Y0001583047D01*
X0001108933Y0001586640D01*
X0001106715Y0001590741D01*
X0001105336Y0001595195D01*
X0001104724Y0001601024D01*
X0001104724Y0001765573D01*
X0001108187Y0001763259D01*
X0001118197Y0001759113D01*
X0001128823Y0001757000D01*
X0001139657Y0001757000D01*
X0001150283Y0001759113D01*
X0001160292Y0001763259D01*
X0001169300Y0001769278D01*
X0001176961Y0001776939D01*
X0001182980Y0001785947D01*
X0001187126Y0001795957D01*
X0001188740Y0001804069D01*
X0001190353Y0001795957D01*
X0001194499Y0001785947D01*
X0001200518Y0001776939D01*
X0001208179Y0001769278D01*
X0001217187Y0001763259D01*
X0001227197Y0001759113D01*
X0001237823Y0001757000D01*
X0001248657Y0001757000D01*
X0001259283Y0001759113D01*
X0001269292Y0001763259D01*
X0001278300Y0001769278D01*
X0001285961Y0001776939D01*
X0001291980Y0001785947D01*
X0001296126Y0001795957D01*
X0001297740Y0001804069D01*
X0001299353Y0001795957D01*
X0001303499Y0001785947D01*
X0001309518Y0001776939D01*
X0001317179Y0001769278D01*
X0001326187Y0001763259D01*
X0001336197Y0001759113D01*
X0001346823Y0001757000D01*
X0001357657Y0001757000D01*
X0001368283Y0001759113D01*
X0001378292Y0001763259D01*
X0001387300Y0001769278D01*
X0001394961Y0001776939D01*
X0001400980Y0001785947D01*
X0001405126Y0001795957D01*
X0001406740Y0001804069D01*
X0001408353Y0001795957D01*
X0001412499Y0001785947D01*
X0001418518Y0001776939D01*
X0001426179Y0001769278D01*
X0001435187Y0001763259D01*
X0001445197Y0001759113D01*
X0001455823Y0001757000D01*
X0001466657Y0001757000D01*
X0001477283Y0001759113D01*
X0001487292Y0001763259D01*
X0001496300Y0001769278D01*
X0001503961Y0001776939D01*
X0001509980Y0001785947D01*
X0001514126Y0001795957D01*
X0001515740Y0001804069D01*
X0001517353Y0001795957D01*
X0001521499Y0001785947D01*
X0001527518Y0001776939D01*
X0001535179Y0001769278D01*
X0001544187Y0001763259D01*
X0001554197Y0001759113D01*
X0001564823Y0001757000D01*
X0001575657Y0001757000D01*
X0001586283Y0001759113D01*
X0001596292Y0001763259D01*
X0001605300Y0001769278D01*
X0001612961Y0001776939D01*
X0001618980Y0001785947D01*
X0001623126Y0001795957D01*
X0001624740Y0001804069D01*
X0001626353Y0001795957D01*
X0001630499Y0001785947D01*
X0001636518Y0001776939D01*
X0001644179Y0001769278D01*
X0001653187Y0001763259D01*
X0001663197Y0001759113D01*
X0001673823Y0001757000D01*
X0001684657Y0001757000D01*
X0001695283Y0001759113D01*
X0001705292Y0001763259D01*
X0001714300Y0001769278D01*
X0001721961Y0001776939D01*
X0001727980Y0001785947D01*
X0001732126Y0001795957D01*
X0001733740Y0001804069D01*
X0001735353Y0001795957D01*
X0001739499Y0001785947D01*
X0001745518Y0001776939D01*
X0001753179Y0001769278D01*
X0001762187Y0001763259D01*
X0001772197Y0001759113D01*
X0001782823Y0001757000D01*
X0001793657Y0001757000D01*
X0001804283Y0001759113D01*
X0001814292Y0001763259D01*
X0001823300Y0001769278D01*
X0001830961Y0001776939D01*
X0001836980Y0001785947D01*
X0001841126Y0001795957D01*
X0001842740Y0001804069D01*
X0001844353Y0001795957D01*
X0001848499Y0001785947D01*
X0001854518Y0001776939D01*
X0001862179Y0001769278D01*
X0001871187Y0001763259D01*
X0001881197Y0001759113D01*
X0001891823Y0001757000D01*
X0001902657Y0001757000D01*
X0001913283Y0001759113D01*
X0001923292Y0001763259D01*
X0001932300Y0001769278D01*
X0001939961Y0001776939D01*
X0001945980Y0001785947D01*
X0001950126Y0001795957D01*
X0001951740Y0001804069D01*
X0001953353Y0001795957D01*
X0001957499Y0001785947D01*
X0001963518Y0001776939D01*
X0001971179Y0001769278D01*
X0001976318Y0001765844D01*
X0001976318Y0001749350D01*
X0001967783Y0001752886D01*
X0001957157Y0001755000D01*
X0001946323Y0001755000D01*
X0001935697Y0001752886D01*
X0001925687Y0001748740D01*
X0001916679Y0001742721D01*
X0001909018Y0001735060D01*
X0001902999Y0001726052D01*
X0001898853Y0001716042D01*
X0001897240Y0001707930D01*
X0001895626Y0001716042D01*
X0001891480Y0001726052D01*
X0001885461Y0001735060D01*
X0001877800Y0001742721D01*
X0001868792Y0001748740D01*
X0001858783Y0001752886D01*
X0001848157Y0001755000D01*
X0001837323Y0001755000D01*
X0001826697Y0001752886D01*
X0001816687Y0001748740D01*
X0001807679Y0001742721D01*
X0001800018Y0001735060D01*
X0001793999Y0001726052D01*
X0001789853Y0001716042D01*
X0001788240Y0001707930D01*
X0001786626Y0001716042D01*
X0001782480Y0001726052D01*
X0001776461Y0001735060D01*
X0001768800Y0001742721D01*
X0001759792Y0001748740D01*
X0001749783Y0001752886D01*
X0001739157Y0001755000D01*
X0001728323Y0001755000D01*
X0001717697Y0001752886D01*
X0001707687Y0001748740D01*
X0001698679Y0001742721D01*
X0001691018Y0001735060D01*
X0001684999Y0001726052D01*
X0001680853Y0001716042D01*
X0001679240Y0001707930D01*
X0001677626Y0001716042D01*
X0001673480Y0001726052D01*
X0001667461Y0001735060D01*
X0001659800Y0001742721D01*
X0001650792Y0001748740D01*
X0001640783Y0001752886D01*
X0001630157Y0001755000D01*
X0001619323Y0001755000D01*
X0001608697Y0001752886D01*
X0001598687Y0001748740D01*
X0001589679Y0001742721D01*
X0001582018Y0001735060D01*
X0001575999Y0001726052D01*
X0001571853Y0001716042D01*
X0001570240Y0001707930D01*
X0001568626Y0001716042D01*
X0001564480Y0001726052D01*
X0001558461Y0001735060D01*
X0001550800Y0001742721D01*
X0001541792Y0001748740D01*
X0001531783Y0001752886D01*
X0001521157Y0001755000D01*
X0001510323Y0001755000D01*
X0001499697Y0001752886D01*
X0001489687Y0001748740D01*
X0001480679Y0001742721D01*
X0001473018Y0001735060D01*
X0001466999Y0001726052D01*
X0001462853Y0001716042D01*
X0001461240Y0001707930D01*
X0001459626Y0001716042D01*
X0001455480Y0001726052D01*
X0001449461Y0001735060D01*
X0001441800Y0001742721D01*
X0001432792Y0001748740D01*
X0001422783Y0001752886D01*
X0001412157Y0001755000D01*
X0001401323Y0001755000D01*
X0001390697Y0001752886D01*
X0001380687Y0001748740D01*
X0001371679Y0001742721D01*
X0001364018Y0001735060D01*
X0001357999Y0001726052D01*
X0001353853Y0001716042D01*
X0001352240Y0001707930D01*
X0001350626Y0001716042D01*
X0001346480Y0001726052D01*
X0001340461Y0001735060D01*
X0001332800Y0001742721D01*
X0001323792Y0001748740D01*
X0001313783Y0001752886D01*
X0001303157Y0001755000D01*
X0001292323Y0001755000D01*
X0001281697Y0001752886D01*
X0001271687Y0001748740D01*
X0001262679Y0001742721D01*
X0001255018Y0001735060D01*
X0001248999Y0001726052D01*
X0001244853Y0001716042D01*
X0001243240Y0001707930D01*
X0001241626Y0001716042D01*
X0001237480Y0001726052D01*
X0001231461Y0001735060D01*
X0001223800Y0001742721D01*
X0001214792Y0001748740D01*
X0001204783Y0001752886D01*
X0001194157Y0001755000D01*
X0001183323Y0001755000D01*
X0001172697Y0001752886D01*
X0001162687Y0001748740D01*
X0001153679Y0001742721D01*
X0001146018Y0001735060D01*
X0001139999Y0001726052D01*
X0001135853Y0001716042D01*
X0001133740Y0001705417D01*
X0001133740Y0001694583D01*
X0001135853Y0001683957D01*
X0001139999Y0001673947D01*
X0001146018Y0001664939D01*
X0001153679Y0001657278D01*
X0001162687Y0001651259D01*
X0001172697Y0001647113D01*
X0001183323Y0001645000D01*
X0001194157Y0001645000D01*
X0001204783Y0001647113D01*
X0001214792Y0001651259D01*
X0001223800Y0001657278D01*
X0001231461Y0001664939D01*
X0001237480Y0001673947D01*
X0001241626Y0001683957D01*
X0001243240Y0001692069D01*
X0001244853Y0001683957D01*
X0001248999Y0001673947D01*
X0001255018Y0001664939D01*
X0001262679Y0001657278D01*
X0001271687Y0001651259D01*
X0001281697Y0001647113D01*
X0001292323Y0001645000D01*
X0001303157Y0001645000D01*
X0001313783Y0001647113D01*
X0001323792Y0001651259D01*
X0001332800Y0001657278D01*
X0001340461Y0001664939D01*
X0001346480Y0001673947D01*
X0001350626Y0001683957D01*
X0001352240Y0001692069D01*
X0001353853Y0001683957D01*
X0001357999Y0001673947D01*
X0001364018Y0001664939D01*
X0001371679Y0001657278D01*
X0001380687Y0001651259D01*
X0001390697Y0001647113D01*
X0001401323Y0001645000D01*
X0001412157Y0001645000D01*
X0001422783Y0001647113D01*
X0001432792Y0001651259D01*
X0001441800Y0001657278D01*
X0001449461Y0001664939D01*
X0001455480Y0001673947D01*
X0001459626Y0001683957D01*
X0001461240Y0001692069D01*
X0001462853Y0001683957D01*
X0001466999Y0001673947D01*
X0001473018Y0001664939D01*
X0001480679Y0001657278D01*
X0001489687Y0001651259D01*
X0001499697Y0001647113D01*
X0001510323Y0001645000D01*
X0001521157Y0001645000D01*
X0001531783Y0001647113D01*
X0001541792Y0001651259D01*
X0001550800Y0001657278D01*
X0001558461Y0001664939D01*
X0001564480Y0001673947D01*
X0001568626Y0001683957D01*
X0001570240Y0001692069D01*
X0001571853Y0001683957D01*
X0001575999Y0001673947D01*
X0001582018Y0001664939D01*
X0001589679Y0001657278D01*
X0001598687Y0001651259D01*
X0001608697Y0001647113D01*
X0001619323Y0001645000D01*
X0001630157Y0001645000D01*
X0001640783Y0001647113D01*
X0001650792Y0001651259D01*
X0001659800Y0001657278D01*
X0001667461Y0001664939D01*
X0001673480Y0001673947D01*
X0001677626Y0001683957D01*
X0001679240Y0001692069D01*
X0001680853Y0001683957D01*
X0001684999Y0001673947D01*
X0001691018Y0001664939D01*
X0001698679Y0001657278D01*
X0001707687Y0001651259D01*
X0001717697Y0001647113D01*
X0001728323Y0001645000D01*
X0001739157Y0001645000D01*
X0001749783Y0001647113D01*
X0001759792Y0001651259D01*
X0001768800Y0001657278D01*
X0001776461Y0001664939D01*
X0001782480Y0001673947D01*
X0001786626Y0001683957D01*
X0001788240Y0001692069D01*
X0001789853Y0001683957D01*
X0001793999Y0001673947D01*
X0001800018Y0001664939D01*
X0001807679Y0001657278D01*
X0001816687Y0001651259D01*
X0001826697Y0001647113D01*
X0001837323Y0001645000D01*
X0001848157Y0001645000D01*
X0001858783Y0001647113D01*
X0001868792Y0001651259D01*
X0001877800Y0001657278D01*
X0001885461Y0001664939D01*
X0001891480Y0001673947D01*
X0001895626Y0001683957D01*
X0001897240Y0001692069D01*
X0001898853Y0001683957D01*
X0001902999Y0001673947D01*
X0001909018Y0001664939D01*
X0001916679Y0001657278D01*
X0001925687Y0001651259D01*
X0001935697Y0001647113D01*
X0001946323Y0001645000D01*
X0001946976Y0001645000D01*
X0001628778Y0001326802D01*
X0001622623Y0001336014D01*
X0001614754Y0001343883D01*
X0001605600Y0001350000D01*
X0001614754Y0001356116D01*
X0001622623Y0001363985D01*
X0001628806Y0001373239D01*
X0001633065Y0001383520D01*
X0001635236Y0001394435D01*
X0001635236Y0001405564D01*
X0001633065Y0001416479D01*
X0001628806Y0001426760D01*
X0001622623Y0001436014D01*
X0001614804Y0001443832D01*
X0001615137Y0001443865D01*
X0001619849Y0001445295D01*
X0001624192Y0001447616D01*
X0001627999Y0001450740D01*
X0001631123Y0001454547D01*
X0001633444Y0001458890D01*
X0001634874Y0001463603D01*
X0001635357Y0001468503D01*
X0001635357Y0001531496D01*
X0001634874Y0001536396D01*
X0001633444Y0001541109D01*
X0001631123Y0001545452D01*
X0001627999Y0001549259D01*
X0001624192Y0001552383D01*
X0001619849Y0001554704D01*
X0001615137Y0001556134D01*
X0001610236Y0001556617D01*
X0001547244Y0001556617D01*
X0001542343Y0001556134D01*
X0001537630Y0001554704D01*
X0001533287Y0001552383D01*
X0001529480Y0001549259D01*
X0001526356Y0001545452D01*
X0001524035Y0001541109D01*
X0001522605Y0001536396D01*
X0001522123Y0001531496D01*
X0001522123Y0001468503D01*
X0001522605Y0001463603D01*
X0001524035Y0001458890D01*
X0001526356Y0001454547D01*
X0001529480Y0001450740D01*
X0001533287Y0001447616D01*
X0001537630Y0001445295D01*
X0001542343Y0001443865D01*
X0001542675Y0001443832D01*
X0001534856Y0001436014D01*
X0001528673Y0001426760D01*
X0001524415Y0001416479D01*
X0001522244Y0001405564D01*
X0001522244Y0001394435D01*
X0001524415Y0001383520D01*
X0001528673Y0001373239D01*
X0001534856Y0001363985D01*
X0001542725Y0001356116D01*
X0001551880Y0001350000D01*
X0001542725Y0001343883D01*
X0001534856Y0001336014D01*
X0001528673Y0001326760D01*
X0001524415Y0001316479D01*
X0001522244Y0001305564D01*
X0001522244Y0001294435D01*
X0001524415Y0001283520D01*
X0001528673Y0001273239D01*
X0001534856Y0001263985D01*
X0001534858Y0001263984D01*
X0001496613Y0001225740D01*
X0001495471Y0001224802D01*
X0001494018Y0001223031D01*
X0001491732Y0001220246D01*
X0001491222Y0001219292D01*
X0001488954Y0001215048D01*
X0001487243Y0001209408D01*
X0001486810Y0001205012D01*
X0001486810Y0001205012D01*
X0001486665Y0001203543D01*
X0001486810Y0001202073D01*
X0001486810Y0000663478D01*
X0001486665Y0000662008D01*
X0001487243Y0000656142D01*
X0001488954Y0000650502D01*
X0001491732Y0000645304D01*
X0001494535Y0000641890D01*
X0001495472Y0000640748D01*
X0001496613Y0000639811D01*
X0001523673Y0000612751D01*
X0001522244Y0000605564D01*
X0001522244Y0000594435D01*
X0001524415Y0000583520D01*
X0001528673Y0000573239D01*
X0001534856Y0000563985D01*
X0001542725Y0000556116D01*
X0001551880Y0000550000D01*
X0001542725Y0000543883D01*
X0001534856Y0000536014D01*
X0001528673Y0000526760D01*
X0001524415Y0000516479D01*
X0001522244Y0000505564D01*
X0001522244Y0000494435D01*
X0001524415Y0000483520D01*
X0001528673Y0000473239D01*
X0001534856Y0000463985D01*
X0001542725Y0000456116D01*
X0001551880Y0000450000D01*
X0001542725Y0000443883D01*
X0001534856Y0000436014D01*
X0001528673Y0000426760D01*
X0001524415Y0000416479D01*
X0001522244Y0000405564D01*
X0001522244Y0000394435D01*
X0001524415Y0000383520D01*
X0001528673Y0000373239D01*
X0001534856Y0000363985D01*
X0001542725Y0000356116D01*
X0001551880Y0000350000D01*
X0001542725Y0000343883D01*
X0001534856Y0000336014D01*
X0001528673Y0000326760D01*
X0001524415Y0000316479D01*
X0001522244Y0000305564D01*
X0001522244Y0000294435D01*
X0001524415Y0000283520D01*
X0001528673Y0000273239D01*
X0001534856Y0000263985D01*
X0001542725Y0000256116D01*
X0001551880Y0000250000D01*
X0001542725Y0000243883D01*
X0001534856Y0000236014D01*
X0001528673Y0000226760D01*
X0001524415Y0000216479D01*
X0001522244Y0000205564D01*
X0001522244Y0000194435D01*
X0001524415Y0000183520D01*
X0001528673Y0000173239D01*
X0001534856Y0000163985D01*
X0001542725Y0000156116D01*
X0001551880Y0000150000D01*
X0001542725Y0000143883D01*
X0001534856Y0000136014D01*
X0001528673Y0000126760D01*
X0001524415Y0000116479D01*
X0001522244Y0000105564D01*
X0001522244Y0000094435D01*
X0001524415Y0000083520D01*
X0001528673Y0000073239D01*
X0001534856Y0000063985D01*
X0001542725Y0000056116D01*
X0001551979Y0000049933D01*
X0001562260Y0000045675D01*
X0001573175Y0000043503D01*
X0001584304Y0000043503D01*
X0001595219Y0000045675D01*
X0001605501Y0000049933D01*
X0001614754Y0000056116D01*
X0001622623Y0000063985D01*
X0001628806Y0000073239D01*
X0001633065Y0000083520D01*
X0001635236Y0000094435D01*
X0001635236Y0000105564D01*
X0001633065Y0000116479D01*
X0001628806Y0000126760D01*
X0001622623Y0000136014D01*
X0001614754Y0000143883D01*
X0001605600Y0000150000D01*
X0001614754Y0000156116D01*
X0001622623Y0000163985D01*
X0001628806Y0000173239D01*
X0001633065Y0000183520D01*
X0001635236Y0000194435D01*
X0001635236Y0000205564D01*
X0001633065Y0000216479D01*
X0001628806Y0000226760D01*
X0001622623Y0000236014D01*
X0001614754Y0000243883D01*
X0001605600Y0000250000D01*
X0001614754Y0000256116D01*
X0001622623Y0000263985D01*
X0001628806Y0000273239D01*
X0001633065Y0000283520D01*
X0001635236Y0000294435D01*
X0001635236Y0000305564D01*
X0001633065Y0000316479D01*
X0001628806Y0000326760D01*
X0001622623Y0000336014D01*
X0001614754Y0000343883D01*
X0001605600Y0000350000D01*
X0001614754Y0000356116D01*
X0001622623Y0000363985D01*
X0001628806Y0000373239D01*
X0001633065Y0000383520D01*
X0001635236Y0000394435D01*
X0001635236Y0000405564D01*
X0001633065Y0000416479D01*
X0001628806Y0000426760D01*
X0001622623Y0000436014D01*
X0001614754Y0000443883D01*
X0001605600Y0000450000D01*
X0001614754Y0000456116D01*
X0001622623Y0000463985D01*
X0001628806Y0000473239D01*
X0001633065Y0000483520D01*
X0001635236Y0000494435D01*
X0001635236Y0000505564D01*
X0001633065Y0000516479D01*
X0001628806Y0000526760D01*
X0001622623Y0000536014D01*
X0001614754Y0000543883D01*
X0001605600Y0000550000D01*
X0001614754Y0000556116D01*
X0001622623Y0000563985D01*
X0001628806Y0000573239D01*
X0001633065Y0000583520D01*
X0001635236Y0000594435D01*
X0001635236Y0000605564D01*
X0001633065Y0000616479D01*
X0001628806Y0000626760D01*
X0001622623Y0000636014D01*
X0001614754Y0000643883D01*
X0001605600Y0000650000D01*
X0001614754Y0000656116D01*
X0001622623Y0000663985D01*
X0001628806Y0000673239D01*
X0001633065Y0000683520D01*
X0001635236Y0000694435D01*
X0001635236Y0000705564D01*
X0001633065Y0000716479D01*
X0001628806Y0000726760D01*
X0001622623Y0000736014D01*
X0001614754Y0000743883D01*
X0001605600Y0000750000D01*
X0001614754Y0000756116D01*
X0001622623Y0000763985D01*
X0001628806Y0000773239D01*
X0001633065Y0000783520D01*
X0001635236Y0000794435D01*
X0001635236Y0000805564D01*
X0001633806Y0000812751D01*
X0001643149Y0000822094D01*
X0001644291Y0000823031D01*
X0001648030Y0000827587D01*
X0001650808Y0000832785D01*
X0001652519Y0000838425D01*
X0001652952Y0000842821D01*
X0001652952Y0000842821D01*
X0001653097Y0000844291D01*
X0001652952Y0000845760D01*
X0001652952Y0000997448D01*
X0002128701Y0001473197D01*
X0002134856Y0001463985D01*
X0002142725Y0001456116D01*
X0002151880Y0001450000D01*
X0002142725Y0001443883D01*
X0002134856Y0001436014D01*
X0002128673Y0001426760D01*
X0002124415Y0001416479D01*
X0002122244Y0001405564D01*
X0002122244Y0001394435D01*
X0002124415Y0001383520D01*
X0002128673Y0001373239D01*
X0002134856Y0001363985D01*
X0002142725Y0001356116D01*
X0002151880Y0001350000D01*
X0002142725Y0001343883D01*
X0002134856Y0001336014D01*
X0002128673Y0001326760D01*
X0002124415Y0001316479D01*
X0002122244Y0001305564D01*
X0002122244Y0001294435D01*
X0002124415Y0001283520D01*
X0002128673Y0001273239D01*
X0002134856Y0001263985D01*
X0002142725Y0001256116D01*
X0002151880Y0001250000D01*
X0002142725Y0001243883D01*
X0002134856Y0001236014D01*
X0002128673Y0001226760D01*
X0002124415Y0001216479D01*
X0002122244Y0001205564D01*
X0002122244Y0001194435D01*
X0002124415Y0001183520D01*
X0002128673Y0001173239D01*
X0002134856Y0001163985D01*
X0002142725Y0001156116D01*
X0002151880Y0001150000D01*
X0002142725Y0001143883D01*
X0002134856Y0001136014D01*
X0002128673Y0001126760D01*
X0002124415Y0001116479D01*
X0002122244Y0001105564D01*
X0002122244Y0001094435D01*
X0002124415Y0001083520D01*
X0002128673Y0001073239D01*
X0002134856Y0001063985D01*
X0002142725Y0001056116D01*
X0002151880Y0001050000D01*
X0002142725Y0001043883D01*
X0002134856Y0001036014D01*
X0002128673Y0001026760D01*
X0002124415Y0001016479D01*
X0002122244Y0001005564D01*
X0002122244Y0000994435D01*
X0002124415Y0000983520D01*
X0002128673Y0000973239D01*
X0002134856Y0000963985D01*
X0002142725Y0000956116D01*
X0002151880Y0000950000D01*
X0002142725Y0000943883D01*
X0002134856Y0000936014D01*
X0002128673Y0000926760D01*
X0002124415Y0000916479D01*
X0002122244Y0000905564D01*
X0002122244Y0000894435D01*
X0002124415Y0000883520D01*
X0002128673Y0000873239D01*
X0002134856Y0000863985D01*
X0002142725Y0000856116D01*
X0002151880Y0000850000D01*
X0002142725Y0000843883D01*
X0002134856Y0000836014D01*
X0002128673Y0000826760D01*
X0002124415Y0000816479D01*
X0002122244Y0000805564D01*
X0002122244Y0000794435D01*
X0002124415Y0000783520D01*
X0002128673Y0000773239D01*
X0002134856Y0000763985D01*
X0002142725Y0000756116D01*
X0002151880Y0000750000D01*
X0002142725Y0000743883D01*
X0002134856Y0000736014D01*
X0002128673Y0000726760D01*
X0002124415Y0000716479D01*
X0002122244Y0000705564D01*
X0002122244Y0000694435D01*
X0002124415Y0000683520D01*
X0002128673Y0000673239D01*
X0002134856Y0000663985D01*
X0002142725Y0000656116D01*
X0002151880Y0000650000D01*
X0002142725Y0000643883D01*
X0002134856Y0000636014D01*
X0002128673Y0000626760D01*
X0002124415Y0000616479D01*
X0002122244Y0000605564D01*
X0002122244Y0000594435D01*
X0002124415Y0000583520D01*
X0002128673Y0000573239D01*
X0002134856Y0000563985D01*
X0002142725Y0000556116D01*
X0002151880Y0000550000D01*
X0002142725Y0000543883D01*
X0002134856Y0000536014D01*
X0002128673Y0000526760D01*
X0002124415Y0000516479D01*
X0002122244Y0000505564D01*
X0002122244Y0000494435D01*
X0002124415Y0000483520D01*
X0002128673Y0000473239D01*
X0002134856Y0000463985D01*
X0002142725Y0000456116D01*
X0002151880Y0000450000D01*
X0002142725Y0000443883D01*
X0002134856Y0000436014D01*
X0002128673Y0000426760D01*
X0002124415Y0000416479D01*
X0002122244Y0000405564D01*
X0002122244Y0000394435D01*
X0002124415Y0000383520D01*
X0002128673Y0000373239D01*
X0002134856Y0000363985D01*
X0002142725Y0000356116D01*
X0002151880Y0000350000D01*
X0002142725Y0000343883D01*
X0002134856Y0000336014D01*
X0002128673Y0000326760D01*
X0002124415Y0000316479D01*
X0002122244Y0000305564D01*
X0002122244Y0000294435D01*
X0002124415Y0000283520D01*
X0002128673Y0000273239D01*
X0002134856Y0000263985D01*
X0002142725Y0000256116D01*
X0002151880Y0000250000D01*
X0002142725Y0000243883D01*
X0002134856Y0000236014D01*
X0002128673Y0000226760D01*
X0002124415Y0000216479D01*
X0002122244Y0000205564D01*
X0002122244Y0000194435D01*
X0002124415Y0000183520D01*
X0002128673Y0000173239D01*
X0002134856Y0000163985D01*
X0002142725Y0000156116D01*
X0002151880Y0000150000D01*
X0002142725Y0000143883D01*
X0002134856Y0000136014D01*
X0002128673Y0000126760D01*
X0002124415Y0000116479D01*
X0002122244Y0000105564D01*
X0002122244Y0000094435D01*
X0002124415Y0000083520D01*
X0002128673Y0000073239D01*
X0002134856Y0000063985D01*
X0002142725Y0000056116D01*
X0002151979Y0000049933D01*
X0002162260Y0000045675D01*
X0002173175Y0000043503D01*
X0002184304Y0000043503D01*
X0002195219Y0000045675D01*
X0002205501Y0000049933D01*
X0002214754Y0000056116D01*
X0002222623Y0000063985D01*
X0002228806Y0000073239D01*
X0002233065Y0000083520D01*
X0002235236Y0000094435D01*
X0002235236Y0000105564D01*
X0002233065Y0000116479D01*
X0002228806Y0000126760D01*
X0002222623Y0000136014D01*
X0002214754Y0000143883D01*
X0002205600Y0000150000D01*
X0002214754Y0000156116D01*
X0002222623Y0000163985D01*
X0002228806Y0000173239D01*
X0002233065Y0000183520D01*
X0002235236Y0000194435D01*
X0002235236Y0000205564D01*
X0002233065Y0000216479D01*
X0002228806Y0000226760D01*
X0002222623Y0000236014D01*
X0002214754Y0000243883D01*
X0002205600Y0000250000D01*
X0002214754Y0000256116D01*
X0002222623Y0000263985D01*
X0002228806Y0000273239D01*
X0002233065Y0000283520D01*
X0002235236Y0000294435D01*
X0002235236Y0000305564D01*
X0002233065Y0000316479D01*
X0002228806Y0000326760D01*
X0002222623Y0000336014D01*
X0002214754Y0000343883D01*
X0002205600Y0000350000D01*
X0002214754Y0000356116D01*
X0002222623Y0000363985D01*
X0002228806Y0000373239D01*
X0002233065Y0000383520D01*
X0002235236Y0000394435D01*
X0002235236Y0000405564D01*
X0002233065Y0000416479D01*
X0002228806Y0000426760D01*
X0002222623Y0000436014D01*
X0002214754Y0000443883D01*
X0002205600Y0000450000D01*
X0002214754Y0000456116D01*
X0002222623Y0000463985D01*
X0002228806Y0000473239D01*
X0002233065Y0000483520D01*
X0002235236Y0000494435D01*
X0002235236Y0000505564D01*
X0002233065Y0000516479D01*
X0002228806Y0000526760D01*
X0002222623Y0000536014D01*
X0002214754Y0000543883D01*
X0002205600Y0000550000D01*
X0002214754Y0000556116D01*
X0002222623Y0000563985D01*
X0002228806Y0000573239D01*
X0002233065Y0000583520D01*
X0002235236Y0000594435D01*
X0002235236Y0000605564D01*
X0002233065Y0000616479D01*
X0002228806Y0000626760D01*
X0002222623Y0000636014D01*
X0002214754Y0000643883D01*
X0002205600Y0000650000D01*
X0002214754Y0000656116D01*
X0002222623Y0000663985D01*
X0002228806Y0000673239D01*
X0002233065Y0000683520D01*
X0002235236Y0000694435D01*
X0002235236Y0000705564D01*
X0002233065Y0000716479D01*
X0002228806Y0000726760D01*
X0002222623Y0000736014D01*
X0002214754Y0000743883D01*
X0002205600Y0000750000D01*
X0002214754Y0000756116D01*
X0002222623Y0000763985D01*
X0002228806Y0000773239D01*
X0002233065Y0000783520D01*
X0002235236Y0000794435D01*
X0002235236Y0000805564D01*
X0002233065Y0000816479D01*
X0002228806Y0000826760D01*
X0002222623Y0000836014D01*
X0002214754Y0000843883D01*
X0002205600Y0000850000D01*
X0002214754Y0000856116D01*
X0002222623Y0000863985D01*
X0002228806Y0000873239D01*
X0002233065Y0000883520D01*
X0002235236Y0000894435D01*
X0002235236Y0000905564D01*
X0002233065Y0000916479D01*
X0002228806Y0000926760D01*
X0002222623Y0000936014D01*
X0002214754Y0000943883D01*
X0002205600Y0000950000D01*
X0002214754Y0000956116D01*
X0002222623Y0000963985D01*
X0002228806Y0000973239D01*
X0002233065Y0000983520D01*
X0002235236Y0000994435D01*
X0002235236Y0001005564D01*
X0002233065Y0001016479D01*
X0002228806Y0001026760D01*
X0002222623Y0001036014D01*
X0002214754Y0001043883D01*
X0002205600Y0001050000D01*
X0002214754Y0001056116D01*
X0002222623Y0001063985D01*
X0002228806Y0001073239D01*
X0002233065Y0001083520D01*
X0002235236Y0001094435D01*
X0002235236Y0001105564D01*
X0002233065Y0001116479D01*
X0002228806Y0001126760D01*
X0002222623Y0001136014D01*
X0002214754Y0001143883D01*
X0002205600Y0001150000D01*
X0002214754Y0001156116D01*
X0002222623Y0001163985D01*
X0002228806Y0001173239D01*
X0002233065Y0001183520D01*
X0002235236Y0001194435D01*
X0002235236Y0001205564D01*
X0002233065Y0001216479D01*
X0002228806Y0001226760D01*
X0002222623Y0001236014D01*
X0002214754Y0001243883D01*
X0002205600Y0001250000D01*
X0002214754Y0001256116D01*
X0002222623Y0001263985D01*
X0002228806Y0001273239D01*
X0002233065Y0001283520D01*
X0002235236Y0001294435D01*
X0002235236Y0001305564D01*
X0002233065Y0001316479D01*
X0002228806Y0001326760D01*
X0002222623Y0001336014D01*
X0002214754Y0001343883D01*
X0002205600Y0001350000D01*
X0002214754Y0001356116D01*
X0002222623Y0001363985D01*
X0002228806Y0001373239D01*
X0002233065Y0001383520D01*
X0002235236Y0001394435D01*
X0002235236Y0001405564D01*
X0002233065Y0001416479D01*
X0002228806Y0001426760D01*
X0002222623Y0001436014D01*
X0002214754Y0001443883D01*
X0002205600Y0001450000D01*
X0002214754Y0001456116D01*
X0002222623Y0001463985D01*
X0002228806Y0001473239D01*
X0002233065Y0001483520D01*
X0002235236Y0001494435D01*
X0002235236Y0001505564D01*
X0002233065Y0001516479D01*
X0002228806Y0001526760D01*
X0002222623Y0001536014D01*
X0002221514Y0001537122D01*
X0002341653Y0001657261D01*
X0002342795Y0001658198D01*
X0002346534Y0001662754D01*
X0002346767Y0001663190D01*
X0002352679Y0001657278D01*
X0002361687Y0001651259D01*
X0002371697Y0001647113D01*
X0002382323Y0001645000D01*
X0002393157Y0001645000D01*
X0002403783Y0001647113D01*
X0002413792Y0001651259D01*
X0002422800Y0001657278D01*
X0002430461Y0001664939D01*
X0002436480Y0001673947D01*
X0002440626Y0001683957D01*
X0002442740Y0001694583D01*
X0002442740Y0001705417D01*
X0002440626Y0001716042D01*
X0002436480Y0001726052D01*
X0002430461Y0001735060D01*
X0002422800Y0001742721D01*
X0002413792Y0001748740D01*
X0002403783Y0001752886D01*
X0002393157Y0001755000D01*
X0002382323Y0001755000D01*
X0002381785Y0001754893D01*
X0002396153Y0001769261D01*
X0002397295Y0001770198D01*
X0002401034Y0001774754D01*
X0002401267Y0001775190D01*
X0002407179Y0001769278D01*
X0002416187Y0001763259D01*
X0002426197Y0001759113D01*
X0002436823Y0001757000D01*
X0002447657Y0001757000D01*
X0002458283Y0001759113D01*
X0002468292Y0001763259D01*
X0002477300Y0001769278D01*
X0002484961Y0001776939D01*
X0002490980Y0001785947D01*
X0002495126Y0001795957D01*
X0002497240Y0001806583D01*
X0002497240Y0001817417D01*
X0002495126Y0001828042D01*
X0002490980Y0001838052D01*
X0002484961Y0001847060D01*
X0002477300Y0001854721D01*
X0002468292Y0001860740D01*
X0002458283Y0001864886D01*
X0002447657Y0001867000D01*
X0002436823Y0001867000D01*
X0002426197Y0001864886D01*
X0002416187Y0001860740D01*
X0002407179Y0001854721D01*
X0002401267Y0001848809D01*
X0002401034Y0001849245D01*
X0002398232Y0001852660D01*
X0002397295Y0001853801D01*
X0002396153Y0001854738D01*
X0002376876Y0001874015D01*
X0002477469Y0001874015D01*
X0002483380Y0001873436D01*
G37*
X0002483380Y0001873436D02*
X0002487844Y0001872088D01*
X0002491961Y0001869899D01*
X0002495574Y0001866952D01*
X0002498546Y0001863359D01*
X0002500764Y0001859258D01*
X0002502143Y0001854804D01*
X0002502755Y0001848975D01*
X0002502755Y0001601270D01*
X0002502176Y0001595359D01*
X0002500828Y0001590895D01*
X0002498639Y0001586778D01*
X0002495692Y0001583165D01*
X0002492099Y0001580193D01*
X0002487998Y0001577975D01*
X0002483544Y0001576596D01*
X0002477715Y0001575984D01*
X0002427463Y0001575984D01*
X0002426343Y0001575873D01*
X0002426036Y0001575876D01*
X0002425675Y0001575840D01*
X0002415970Y0001574820D01*
X0002413662Y0001574347D01*
X0002411349Y0001573905D01*
X0002411002Y0001573800D01*
X0002401680Y0001570915D01*
X0002399510Y0001570002D01*
X0002397325Y0001569120D01*
X0002397005Y0001568950D01*
X0002388421Y0001564308D01*
X0002386470Y0001562992D01*
X0002384498Y0001561702D01*
X0002384217Y0001561473D01*
X0002376698Y0001555252D01*
X0002375039Y0001553582D01*
X0002373356Y0001551934D01*
X0002373125Y0001551654D01*
X0002366957Y0001544092D01*
X0002365655Y0001542132D01*
X0002364323Y0001540187D01*
X0002364151Y0001539868D01*
X0002359570Y0001531252D01*
X0002358673Y0001529076D01*
X0002357744Y0001526910D01*
X0002357637Y0001526563D01*
X0002354817Y0001517222D01*
X0002354359Y0001514911D01*
X0002353870Y0001512608D01*
X0002353832Y0001512247D01*
X0002352879Y0001502535D01*
X0002352879Y0001502535D01*
X0002352755Y0001501276D01*
X0002352755Y0000051270D01*
X0002352176Y0000045359D01*
X0002350828Y0000040895D01*
X0002348639Y0000036778D01*
X0002345692Y0000033165D01*
X0002342099Y0000030193D01*
X0002337998Y0000027975D01*
X0002333544Y0000026596D01*
X0002327715Y0000025984D01*
X0001430010Y0000025984D01*
X0001424099Y0000026563D01*
X0001419635Y0000027911D01*
X0001415518Y0000030100D01*
X0001411905Y0000033047D01*
X0001408933Y0000036640D01*
X0001406715Y0000040741D01*
X0001405336Y0000045195D01*
X0001404724Y0000051024D01*
X0001404724Y0001501276D01*
X0001404614Y0001502396D01*
X0001404616Y0001502704D01*
X0001404580Y0001503065D01*
X0001403560Y0001512769D01*
X0001403087Y0001515077D01*
X0001402645Y0001517390D01*
X0001402541Y0001517737D01*
X0001399655Y0001527059D01*
X0001398743Y0001529230D01*
X0001397860Y0001531414D01*
X0001397690Y0001531734D01*
X0001393049Y0001540318D01*
X0001391732Y0001542269D01*
X0001390442Y0001544241D01*
X0001390213Y0001544522D01*
X0001383992Y0001552041D01*
X0001382322Y0001553700D01*
X0001380674Y0001555383D01*
X0001380394Y0001555614D01*
X0001372832Y0001561782D01*
X0001370872Y0001563084D01*
X0001368927Y0001564416D01*
X0001368608Y0001564588D01*
X0001359992Y0001569170D01*
X0001357816Y0001570067D01*
X0001355650Y0001570995D01*
X0001355303Y0001571102D01*
X0001345962Y0001573922D01*
X0001343651Y0001574380D01*
X0001341348Y0001574870D01*
X0001340987Y0001574908D01*
X0001340987Y0001574908D01*
X0001331275Y0001575860D01*
X0001331275Y0001575860D01*
X0001330016Y0001575984D01*
X0001130010Y0001575984D01*
X0001124099Y0001576563D01*
X0001119635Y0001577911D01*
X0001115518Y0001580100D01*
X0001111905Y0001583047D01*
X0001108933Y0001586640D01*
X0001106715Y0001590741D01*
X0001105336Y0001595195D01*
X0001104724Y0001601024D01*
X0001104724Y0001765573D01*
X0001108187Y0001763259D01*
X0001118197Y0001759113D01*
X0001128823Y0001757000D01*
X0001139657Y0001757000D01*
X0001150283Y0001759113D01*
X0001160292Y0001763259D01*
X0001169300Y0001769278D01*
X0001176961Y0001776939D01*
X0001182980Y0001785947D01*
X0001187126Y0001795957D01*
X0001188740Y0001804069D01*
X0001190353Y0001795957D01*
X0001194499Y0001785947D01*
X0001200518Y0001776939D01*
X0001208179Y0001769278D01*
X0001217187Y0001763259D01*
X0001227197Y0001759113D01*
X0001237823Y0001757000D01*
X0001248657Y0001757000D01*
X0001259283Y0001759113D01*
X0001269292Y0001763259D01*
X0001278300Y0001769278D01*
X0001285961Y0001776939D01*
X0001291980Y0001785947D01*
X0001296126Y0001795957D01*
X0001297740Y0001804069D01*
X0001299353Y0001795957D01*
X0001303499Y0001785947D01*
X0001309518Y0001776939D01*
X0001317179Y0001769278D01*
X0001326187Y0001763259D01*
X0001336197Y0001759113D01*
X0001346823Y0001757000D01*
X0001357657Y0001757000D01*
X0001368283Y0001759113D01*
X0001378292Y0001763259D01*
X0001387300Y0001769278D01*
X0001394961Y0001776939D01*
X0001400980Y0001785947D01*
X0001405126Y0001795957D01*
X0001406740Y0001804069D01*
X0001408353Y0001795957D01*
X0001412499Y0001785947D01*
X0001418518Y0001776939D01*
X0001426179Y0001769278D01*
X0001435187Y0001763259D01*
X0001445197Y0001759113D01*
X0001455823Y0001757000D01*
X0001466657Y0001757000D01*
X0001477283Y0001759113D01*
X0001487292Y0001763259D01*
X0001496300Y0001769278D01*
X0001503961Y0001776939D01*
X0001509980Y0001785947D01*
X0001514126Y0001795957D01*
X0001515740Y0001804069D01*
X0001517353Y0001795957D01*
X0001521499Y0001785947D01*
X0001527518Y0001776939D01*
X0001535179Y0001769278D01*
X0001544187Y0001763259D01*
X0001554197Y0001759113D01*
X0001564823Y0001757000D01*
X0001575657Y0001757000D01*
X0001586283Y0001759113D01*
X0001596292Y0001763259D01*
X0001605300Y0001769278D01*
X0001612961Y0001776939D01*
X0001618980Y0001785947D01*
X0001623126Y0001795957D01*
X0001624740Y0001804069D01*
X0001626353Y0001795957D01*
X0001630499Y0001785947D01*
X0001636518Y0001776939D01*
X0001644179Y0001769278D01*
X0001653187Y0001763259D01*
X0001663197Y0001759113D01*
X0001673823Y0001757000D01*
X0001684657Y0001757000D01*
X0001695283Y0001759113D01*
X0001705292Y0001763259D01*
X0001714300Y0001769278D01*
X0001721961Y0001776939D01*
X0001727980Y0001785947D01*
X0001732126Y0001795957D01*
X0001733740Y0001804069D01*
X0001735353Y0001795957D01*
X0001739499Y0001785947D01*
X0001745518Y0001776939D01*
X0001753179Y0001769278D01*
X0001762187Y0001763259D01*
X0001772197Y0001759113D01*
X0001782823Y0001757000D01*
X0001793657Y0001757000D01*
X0001804283Y0001759113D01*
X0001814292Y0001763259D01*
X0001823300Y0001769278D01*
X0001830961Y0001776939D01*
X0001836980Y0001785947D01*
X0001841126Y0001795957D01*
X0001842740Y0001804069D01*
X0001844353Y0001795957D01*
X0001848499Y0001785947D01*
X0001854518Y0001776939D01*
X0001862179Y0001769278D01*
X0001871187Y0001763259D01*
X0001881197Y0001759113D01*
X0001891823Y0001757000D01*
X0001902657Y0001757000D01*
X0001913283Y0001759113D01*
X0001923292Y0001763259D01*
X0001932300Y0001769278D01*
X0001939961Y0001776939D01*
X0001945980Y0001785947D01*
X0001950126Y0001795957D01*
X0001951740Y0001804069D01*
X0001953353Y0001795957D01*
X0001957499Y0001785947D01*
X0001963518Y0001776939D01*
X0001971179Y0001769278D01*
X0001976318Y0001765844D01*
X0001976318Y0001749350D01*
X0001967783Y0001752886D01*
X0001957157Y0001755000D01*
X0001946323Y0001755000D01*
X0001935697Y0001752886D01*
X0001925687Y0001748740D01*
X0001916679Y0001742721D01*
X0001909018Y0001735060D01*
X0001902999Y0001726052D01*
X0001898853Y0001716042D01*
X0001897240Y0001707930D01*
X0001895626Y0001716042D01*
X0001891480Y0001726052D01*
X0001885461Y0001735060D01*
X0001877800Y0001742721D01*
X0001868792Y0001748740D01*
X0001858783Y0001752886D01*
X0001848157Y0001755000D01*
X0001837323Y0001755000D01*
X0001826697Y0001752886D01*
X0001816687Y0001748740D01*
X0001807679Y0001742721D01*
X0001800018Y0001735060D01*
X0001793999Y0001726052D01*
X0001789853Y0001716042D01*
X0001788240Y0001707930D01*
X0001786626Y0001716042D01*
X0001782480Y0001726052D01*
X0001776461Y0001735060D01*
X0001768800Y0001742721D01*
X0001759792Y0001748740D01*
X0001749783Y0001752886D01*
X0001739157Y0001755000D01*
X0001728323Y0001755000D01*
X0001717697Y0001752886D01*
X0001707687Y0001748740D01*
X0001698679Y0001742721D01*
X0001691018Y0001735060D01*
X0001684999Y0001726052D01*
X0001680853Y0001716042D01*
X0001679240Y0001707930D01*
X0001677626Y0001716042D01*
X0001673480Y0001726052D01*
X0001667461Y0001735060D01*
X0001659800Y0001742721D01*
X0001650792Y0001748740D01*
X0001640783Y0001752886D01*
X0001630157Y0001755000D01*
X0001619323Y0001755000D01*
X0001608697Y0001752886D01*
X0001598687Y0001748740D01*
X0001589679Y0001742721D01*
X0001582018Y0001735060D01*
X0001575999Y0001726052D01*
X0001571853Y0001716042D01*
X0001570240Y0001707930D01*
X0001568626Y0001716042D01*
X0001564480Y0001726052D01*
X0001558461Y0001735060D01*
X0001550800Y0001742721D01*
X0001541792Y0001748740D01*
X0001531783Y0001752886D01*
X0001521157Y0001755000D01*
X0001510323Y0001755000D01*
X0001499697Y0001752886D01*
X0001489687Y0001748740D01*
X0001480679Y0001742721D01*
X0001473018Y0001735060D01*
X0001466999Y0001726052D01*
X0001462853Y0001716042D01*
X0001461240Y0001707930D01*
X0001459626Y0001716042D01*
X0001455480Y0001726052D01*
X0001449461Y0001735060D01*
X0001441800Y0001742721D01*
X0001432792Y0001748740D01*
X0001422783Y0001752886D01*
X0001412157Y0001755000D01*
X0001401323Y0001755000D01*
X0001390697Y0001752886D01*
X0001380687Y0001748740D01*
X0001371679Y0001742721D01*
X0001364018Y0001735060D01*
X0001357999Y0001726052D01*
X0001353853Y0001716042D01*
X0001352240Y0001707930D01*
X0001350626Y0001716042D01*
X0001346480Y0001726052D01*
X0001340461Y0001735060D01*
X0001332800Y0001742721D01*
X0001323792Y0001748740D01*
X0001313783Y0001752886D01*
X0001303157Y0001755000D01*
X0001292323Y0001755000D01*
X0001281697Y0001752886D01*
X0001271687Y0001748740D01*
X0001262679Y0001742721D01*
X0001255018Y0001735060D01*
X0001248999Y0001726052D01*
X0001244853Y0001716042D01*
X0001243240Y0001707930D01*
X0001241626Y0001716042D01*
X0001237480Y0001726052D01*
X0001231461Y0001735060D01*
X0001223800Y0001742721D01*
X0001214792Y0001748740D01*
X0001204783Y0001752886D01*
X0001194157Y0001755000D01*
X0001183323Y0001755000D01*
X0001172697Y0001752886D01*
X0001162687Y0001748740D01*
X0001153679Y0001742721D01*
X0001146018Y0001735060D01*
X0001139999Y0001726052D01*
X0001135853Y0001716042D01*
X0001133740Y0001705417D01*
X0001133740Y0001694583D01*
X0001135853Y0001683957D01*
X0001139999Y0001673947D01*
X0001146018Y0001664939D01*
X0001153679Y0001657278D01*
X0001162687Y0001651259D01*
X0001172697Y0001647113D01*
X0001183323Y0001645000D01*
X0001194157Y0001645000D01*
X0001204783Y0001647113D01*
X0001214792Y0001651259D01*
X0001223800Y0001657278D01*
X0001231461Y0001664939D01*
X0001237480Y0001673947D01*
X0001241626Y0001683957D01*
X0001243240Y0001692069D01*
X0001244853Y0001683957D01*
X0001248999Y0001673947D01*
X0001255018Y0001664939D01*
X0001262679Y0001657278D01*
X0001271687Y0001651259D01*
X0001281697Y0001647113D01*
X0001292323Y0001645000D01*
X0001303157Y0001645000D01*
X0001313783Y0001647113D01*
X0001323792Y0001651259D01*
X0001332800Y0001657278D01*
X0001340461Y0001664939D01*
X0001346480Y0001673947D01*
X0001350626Y0001683957D01*
X0001352240Y0001692069D01*
X0001353853Y0001683957D01*
X0001357999Y0001673947D01*
X0001364018Y0001664939D01*
X0001371679Y0001657278D01*
X0001380687Y0001651259D01*
X0001390697Y0001647113D01*
X0001401323Y0001645000D01*
X0001412157Y0001645000D01*
X0001422783Y0001647113D01*
X0001432792Y0001651259D01*
X0001441800Y0001657278D01*
X0001449461Y0001664939D01*
X0001455480Y0001673947D01*
X0001459626Y0001683957D01*
X0001461240Y0001692069D01*
X0001462853Y0001683957D01*
X0001466999Y0001673947D01*
X0001473018Y0001664939D01*
X0001480679Y0001657278D01*
X0001489687Y0001651259D01*
X0001499697Y0001647113D01*
X0001510323Y0001645000D01*
X0001521157Y0001645000D01*
X0001531783Y0001647113D01*
X0001541792Y0001651259D01*
X0001550800Y0001657278D01*
X0001558461Y0001664939D01*
X0001564480Y0001673947D01*
X0001568626Y0001683957D01*
X0001570240Y0001692069D01*
X0001571853Y0001683957D01*
X0001575999Y0001673947D01*
X0001582018Y0001664939D01*
X0001589679Y0001657278D01*
X0001598687Y0001651259D01*
X0001608697Y0001647113D01*
X0001619323Y0001645000D01*
X0001630157Y0001645000D01*
X0001640783Y0001647113D01*
X0001650792Y0001651259D01*
X0001659800Y0001657278D01*
X0001667461Y0001664939D01*
X0001673480Y0001673947D01*
X0001677626Y0001683957D01*
X0001679240Y0001692069D01*
X0001680853Y0001683957D01*
X0001684999Y0001673947D01*
X0001691018Y0001664939D01*
X0001698679Y0001657278D01*
X0001707687Y0001651259D01*
X0001717697Y0001647113D01*
X0001728323Y0001645000D01*
X0001739157Y0001645000D01*
X0001749783Y0001647113D01*
X0001759792Y0001651259D01*
X0001768800Y0001657278D01*
X0001776461Y0001664939D01*
X0001782480Y0001673947D01*
X0001786626Y0001683957D01*
X0001788240Y0001692069D01*
X0001789853Y0001683957D01*
X0001793999Y0001673947D01*
X0001800018Y0001664939D01*
X0001807679Y0001657278D01*
X0001816687Y0001651259D01*
X0001826697Y0001647113D01*
X0001837323Y0001645000D01*
X0001848157Y0001645000D01*
X0001858783Y0001647113D01*
X0001868792Y0001651259D01*
X0001877800Y0001657278D01*
X0001885461Y0001664939D01*
X0001891480Y0001673947D01*
X0001895626Y0001683957D01*
X0001897240Y0001692069D01*
X0001898853Y0001683957D01*
X0001902999Y0001673947D01*
X0001909018Y0001664939D01*
X0001916679Y0001657278D01*
X0001925687Y0001651259D01*
X0001935697Y0001647113D01*
X0001946323Y0001645000D01*
X0001946976Y0001645000D01*
X0001628778Y0001326802D01*
X0001622623Y0001336014D01*
X0001614754Y0001343883D01*
X0001605600Y0001350000D01*
X0001614754Y0001356116D01*
X0001622623Y0001363985D01*
X0001628806Y0001373239D01*
X0001633065Y0001383520D01*
X0001635236Y0001394435D01*
X0001635236Y0001405564D01*
X0001633065Y0001416479D01*
X0001628806Y0001426760D01*
X0001622623Y0001436014D01*
X0001614804Y0001443832D01*
X0001615137Y0001443865D01*
X0001619849Y0001445295D01*
X0001624192Y0001447616D01*
X0001627999Y0001450740D01*
X0001631123Y0001454547D01*
X0001633444Y0001458890D01*
X0001634874Y0001463603D01*
X0001635357Y0001468503D01*
X0001635357Y0001531496D01*
X0001634874Y0001536396D01*
X0001633444Y0001541109D01*
X0001631123Y0001545452D01*
X0001627999Y0001549259D01*
X0001624192Y0001552383D01*
X0001619849Y0001554704D01*
X0001615137Y0001556134D01*
X0001610236Y0001556617D01*
X0001547244Y0001556617D01*
X0001542343Y0001556134D01*
X0001537630Y0001554704D01*
X0001533287Y0001552383D01*
X0001529480Y0001549259D01*
X0001526356Y0001545452D01*
X0001524035Y0001541109D01*
X0001522605Y0001536396D01*
X0001522123Y0001531496D01*
X0001522123Y0001468503D01*
X0001522605Y0001463603D01*
X0001524035Y0001458890D01*
X0001526356Y0001454547D01*
X0001529480Y0001450740D01*
X0001533287Y0001447616D01*
X0001537630Y0001445295D01*
X0001542343Y0001443865D01*
X0001542675Y0001443832D01*
X0001534856Y0001436014D01*
X0001528673Y0001426760D01*
X0001524415Y0001416479D01*
X0001522244Y0001405564D01*
X0001522244Y0001394435D01*
X0001524415Y0001383520D01*
X0001528673Y0001373239D01*
X0001534856Y0001363985D01*
X0001542725Y0001356116D01*
X0001551880Y0001350000D01*
X0001542725Y0001343883D01*
X0001534856Y0001336014D01*
X0001528673Y0001326760D01*
X0001524415Y0001316479D01*
X0001522244Y0001305564D01*
X0001522244Y0001294435D01*
X0001524415Y0001283520D01*
X0001528673Y0001273239D01*
X0001534856Y0001263985D01*
X0001534858Y0001263984D01*
X0001496613Y0001225740D01*
X0001495471Y0001224802D01*
X0001494018Y0001223031D01*
X0001491732Y0001220246D01*
X0001491222Y0001219292D01*
X0001488954Y0001215048D01*
X0001487243Y0001209408D01*
X0001486810Y0001205012D01*
X0001486810Y0001205012D01*
X0001486665Y0001203543D01*
X0001486810Y0001202073D01*
X0001486810Y0000663478D01*
X0001486665Y0000662008D01*
X0001487243Y0000656142D01*
X0001488954Y0000650502D01*
X0001491732Y0000645304D01*
X0001494535Y0000641890D01*
X0001495472Y0000640748D01*
X0001496613Y0000639811D01*
X0001523673Y0000612751D01*
X0001522244Y0000605564D01*
X0001522244Y0000594435D01*
X0001524415Y0000583520D01*
X0001528673Y0000573239D01*
X0001534856Y0000563985D01*
X0001542725Y0000556116D01*
X0001551880Y0000550000D01*
X0001542725Y0000543883D01*
X0001534856Y0000536014D01*
X0001528673Y0000526760D01*
X0001524415Y0000516479D01*
X0001522244Y0000505564D01*
X0001522244Y0000494435D01*
X0001524415Y0000483520D01*
X0001528673Y0000473239D01*
X0001534856Y0000463985D01*
X0001542725Y0000456116D01*
X0001551880Y0000450000D01*
X0001542725Y0000443883D01*
X0001534856Y0000436014D01*
X0001528673Y0000426760D01*
X0001524415Y0000416479D01*
X0001522244Y0000405564D01*
X0001522244Y0000394435D01*
X0001524415Y0000383520D01*
X0001528673Y0000373239D01*
X0001534856Y0000363985D01*
X0001542725Y0000356116D01*
X0001551880Y0000350000D01*
X0001542725Y0000343883D01*
X0001534856Y0000336014D01*
X0001528673Y0000326760D01*
X0001524415Y0000316479D01*
X0001522244Y0000305564D01*
X0001522244Y0000294435D01*
X0001524415Y0000283520D01*
X0001528673Y0000273239D01*
X0001534856Y0000263985D01*
X0001542725Y0000256116D01*
X0001551880Y0000250000D01*
X0001542725Y0000243883D01*
X0001534856Y0000236014D01*
X0001528673Y0000226760D01*
X0001524415Y0000216479D01*
X0001522244Y0000205564D01*
X0001522244Y0000194435D01*
X0001524415Y0000183520D01*
X0001528673Y0000173239D01*
X0001534856Y0000163985D01*
X0001542725Y0000156116D01*
X0001551880Y0000150000D01*
X0001542725Y0000143883D01*
X0001534856Y0000136014D01*
X0001528673Y0000126760D01*
X0001524415Y0000116479D01*
X0001522244Y0000105564D01*
X0001522244Y0000094435D01*
X0001524415Y0000083520D01*
X0001528673Y0000073239D01*
X0001534856Y0000063985D01*
X0001542725Y0000056116D01*
X0001551979Y0000049933D01*
X0001562260Y0000045675D01*
X0001573175Y0000043503D01*
X0001584304Y0000043503D01*
X0001595219Y0000045675D01*
X0001605501Y0000049933D01*
X0001614754Y0000056116D01*
X0001622623Y0000063985D01*
X0001628806Y0000073239D01*
X0001633065Y0000083520D01*
X0001635236Y0000094435D01*
X0001635236Y0000105564D01*
X0001633065Y0000116479D01*
X0001628806Y0000126760D01*
X0001622623Y0000136014D01*
X0001614754Y0000143883D01*
X0001605600Y0000150000D01*
X0001614754Y0000156116D01*
X0001622623Y0000163985D01*
X0001628806Y0000173239D01*
X0001633065Y0000183520D01*
X0001635236Y0000194435D01*
X0001635236Y0000205564D01*
X0001633065Y0000216479D01*
X0001628806Y0000226760D01*
X0001622623Y0000236014D01*
X0001614754Y0000243883D01*
X0001605600Y0000250000D01*
X0001614754Y0000256116D01*
X0001622623Y0000263985D01*
X0001628806Y0000273239D01*
X0001633065Y0000283520D01*
X0001635236Y0000294435D01*
X0001635236Y0000305564D01*
X0001633065Y0000316479D01*
X0001628806Y0000326760D01*
X0001622623Y0000336014D01*
X0001614754Y0000343883D01*
X0001605600Y0000350000D01*
X0001614754Y0000356116D01*
X0001622623Y0000363985D01*
X0001628806Y0000373239D01*
X0001633065Y0000383520D01*
X0001635236Y0000394435D01*
X0001635236Y0000405564D01*
X0001633065Y0000416479D01*
X0001628806Y0000426760D01*
X0001622623Y0000436014D01*
X0001614754Y0000443883D01*
X0001605600Y0000450000D01*
X0001614754Y0000456116D01*
X0001622623Y0000463985D01*
X0001628806Y0000473239D01*
X0001633065Y0000483520D01*
X0001635236Y0000494435D01*
X0001635236Y0000505564D01*
X0001633065Y0000516479D01*
X0001628806Y0000526760D01*
X0001622623Y0000536014D01*
X0001614754Y0000543883D01*
X0001605600Y0000550000D01*
X0001614754Y0000556116D01*
X0001622623Y0000563985D01*
X0001628806Y0000573239D01*
X0001633065Y0000583520D01*
X0001635236Y0000594435D01*
X0001635236Y0000605564D01*
X0001633065Y0000616479D01*
X0001628806Y0000626760D01*
X0001622623Y0000636014D01*
X0001614754Y0000643883D01*
X0001605600Y0000650000D01*
X0001614754Y0000656116D01*
X0001622623Y0000663985D01*
X0001628806Y0000673239D01*
X0001633065Y0000683520D01*
X0001635236Y0000694435D01*
X0001635236Y0000705564D01*
X0001633065Y0000716479D01*
X0001628806Y0000726760D01*
X0001622623Y0000736014D01*
X0001614754Y0000743883D01*
X0001605600Y0000750000D01*
X0001614754Y0000756116D01*
X0001622623Y0000763985D01*
X0001628806Y0000773239D01*
X0001633065Y0000783520D01*
X0001635236Y0000794435D01*
X0001635236Y0000805564D01*
X0001633806Y0000812751D01*
X0001643149Y0000822094D01*
X0001644291Y0000823031D01*
X0001648030Y0000827587D01*
X0001650808Y0000832785D01*
X0001652519Y0000838425D01*
X0001652952Y0000842821D01*
X0001652952Y0000842821D01*
X0001653097Y0000844291D01*
X0001652952Y0000845760D01*
X0001652952Y0000997448D01*
X0002128701Y0001473197D01*
X0002134856Y0001463985D01*
X0002142725Y0001456116D01*
X0002151880Y0001450000D01*
X0002142725Y0001443883D01*
X0002134856Y0001436014D01*
X0002128673Y0001426760D01*
X0002124415Y0001416479D01*
X0002122244Y0001405564D01*
X0002122244Y0001394435D01*
X0002124415Y0001383520D01*
X0002128673Y0001373239D01*
X0002134856Y0001363985D01*
X0002142725Y0001356116D01*
X0002151880Y0001350000D01*
X0002142725Y0001343883D01*
X0002134856Y0001336014D01*
X0002128673Y0001326760D01*
X0002124415Y0001316479D01*
X0002122244Y0001305564D01*
X0002122244Y0001294435D01*
X0002124415Y0001283520D01*
X0002128673Y0001273239D01*
X0002134856Y0001263985D01*
X0002142725Y0001256116D01*
X0002151880Y0001250000D01*
X0002142725Y0001243883D01*
X0002134856Y0001236014D01*
X0002128673Y0001226760D01*
X0002124415Y0001216479D01*
X0002122244Y0001205564D01*
X0002122244Y0001194435D01*
X0002124415Y0001183520D01*
X0002128673Y0001173239D01*
X0002134856Y0001163985D01*
X0002142725Y0001156116D01*
X0002151880Y0001150000D01*
X0002142725Y0001143883D01*
X0002134856Y0001136014D01*
X0002128673Y0001126760D01*
X0002124415Y0001116479D01*
X0002122244Y0001105564D01*
X0002122244Y0001094435D01*
X0002124415Y0001083520D01*
X0002128673Y0001073239D01*
X0002134856Y0001063985D01*
X0002142725Y0001056116D01*
X0002151880Y0001050000D01*
X0002142725Y0001043883D01*
X0002134856Y0001036014D01*
X0002128673Y0001026760D01*
X0002124415Y0001016479D01*
X0002122244Y0001005564D01*
X0002122244Y0000994435D01*
X0002124415Y0000983520D01*
X0002128673Y0000973239D01*
X0002134856Y0000963985D01*
X0002142725Y0000956116D01*
X0002151880Y0000950000D01*
X0002142725Y0000943883D01*
X0002134856Y0000936014D01*
X0002128673Y0000926760D01*
X0002124415Y0000916479D01*
X0002122244Y0000905564D01*
X0002122244Y0000894435D01*
X0002124415Y0000883520D01*
X0002128673Y0000873239D01*
X0002134856Y0000863985D01*
X0002142725Y0000856116D01*
X0002151880Y0000850000D01*
X0002142725Y0000843883D01*
X0002134856Y0000836014D01*
X0002128673Y0000826760D01*
X0002124415Y0000816479D01*
X0002122244Y0000805564D01*
X0002122244Y0000794435D01*
X0002124415Y0000783520D01*
X0002128673Y0000773239D01*
X0002134856Y0000763985D01*
X0002142725Y0000756116D01*
X0002151880Y0000750000D01*
X0002142725Y0000743883D01*
X0002134856Y0000736014D01*
X0002128673Y0000726760D01*
X0002124415Y0000716479D01*
X0002122244Y0000705564D01*
X0002122244Y0000694435D01*
X0002124415Y0000683520D01*
X0002128673Y0000673239D01*
X0002134856Y0000663985D01*
X0002142725Y0000656116D01*
X0002151880Y0000650000D01*
X0002142725Y0000643883D01*
X0002134856Y0000636014D01*
X0002128673Y0000626760D01*
X0002124415Y0000616479D01*
X0002122244Y0000605564D01*
X0002122244Y0000594435D01*
X0002124415Y0000583520D01*
X0002128673Y0000573239D01*
X0002134856Y0000563985D01*
X0002142725Y0000556116D01*
X0002151880Y0000550000D01*
X0002142725Y0000543883D01*
X0002134856Y0000536014D01*
X0002128673Y0000526760D01*
X0002124415Y0000516479D01*
X0002122244Y0000505564D01*
X0002122244Y0000494435D01*
X0002124415Y0000483520D01*
X0002128673Y0000473239D01*
X0002134856Y0000463985D01*
X0002142725Y0000456116D01*
X0002151880Y0000450000D01*
X0002142725Y0000443883D01*
X0002134856Y0000436014D01*
X0002128673Y0000426760D01*
X0002124415Y0000416479D01*
X0002122244Y0000405564D01*
X0002122244Y0000394435D01*
X0002124415Y0000383520D01*
X0002128673Y0000373239D01*
X0002134856Y0000363985D01*
X0002142725Y0000356116D01*
X0002151880Y0000350000D01*
X0002142725Y0000343883D01*
X0002134856Y0000336014D01*
X0002128673Y0000326760D01*
X0002124415Y0000316479D01*
X0002122244Y0000305564D01*
X0002122244Y0000294435D01*
X0002124415Y0000283520D01*
X0002128673Y0000273239D01*
X0002134856Y0000263985D01*
X0002142725Y0000256116D01*
X0002151880Y0000250000D01*
X0002142725Y0000243883D01*
X0002134856Y0000236014D01*
X0002128673Y0000226760D01*
X0002124415Y0000216479D01*
X0002122244Y0000205564D01*
X0002122244Y0000194435D01*
X0002124415Y0000183520D01*
X0002128673Y0000173239D01*
X0002134856Y0000163985D01*
X0002142725Y0000156116D01*
X0002151880Y0000150000D01*
X0002142725Y0000143883D01*
X0002134856Y0000136014D01*
X0002128673Y0000126760D01*
X0002124415Y0000116479D01*
X0002122244Y0000105564D01*
X0002122244Y0000094435D01*
X0002124415Y0000083520D01*
X0002128673Y0000073239D01*
X0002134856Y0000063985D01*
X0002142725Y0000056116D01*
X0002151979Y0000049933D01*
X0002162260Y0000045675D01*
X0002173175Y0000043503D01*
X0002184304Y0000043503D01*
X0002195219Y0000045675D01*
X0002205501Y0000049933D01*
X0002214754Y0000056116D01*
X0002222623Y0000063985D01*
X0002228806Y0000073239D01*
X0002233065Y0000083520D01*
X0002235236Y0000094435D01*
X0002235236Y0000105564D01*
X0002233065Y0000116479D01*
X0002228806Y0000126760D01*
X0002222623Y0000136014D01*
X0002214754Y0000143883D01*
X0002205600Y0000150000D01*
X0002214754Y0000156116D01*
X0002222623Y0000163985D01*
X0002228806Y0000173239D01*
X0002233065Y0000183520D01*
X0002235236Y0000194435D01*
X0002235236Y0000205564D01*
X0002233065Y0000216479D01*
X0002228806Y0000226760D01*
X0002222623Y0000236014D01*
X0002214754Y0000243883D01*
X0002205600Y0000250000D01*
X0002214754Y0000256116D01*
X0002222623Y0000263985D01*
X0002228806Y0000273239D01*
X0002233065Y0000283520D01*
X0002235236Y0000294435D01*
X0002235236Y0000305564D01*
X0002233065Y0000316479D01*
X0002228806Y0000326760D01*
X0002222623Y0000336014D01*
X0002214754Y0000343883D01*
X0002205600Y0000350000D01*
X0002214754Y0000356116D01*
X0002222623Y0000363985D01*
X0002228806Y0000373239D01*
X0002233065Y0000383520D01*
X0002235236Y0000394435D01*
X0002235236Y0000405564D01*
X0002233065Y0000416479D01*
X0002228806Y0000426760D01*
X0002222623Y0000436014D01*
X0002214754Y0000443883D01*
X0002205600Y0000450000D01*
X0002214754Y0000456116D01*
X0002222623Y0000463985D01*
X0002228806Y0000473239D01*
X0002233065Y0000483520D01*
X0002235236Y0000494435D01*
X0002235236Y0000505564D01*
X0002233065Y0000516479D01*
X0002228806Y0000526760D01*
X0002222623Y0000536014D01*
X0002214754Y0000543883D01*
X0002205600Y0000550000D01*
X0002214754Y0000556116D01*
X0002222623Y0000563985D01*
X0002228806Y0000573239D01*
X0002233065Y0000583520D01*
X0002235236Y0000594435D01*
X0002235236Y0000605564D01*
X0002233065Y0000616479D01*
X0002228806Y0000626760D01*
X0002222623Y0000636014D01*
X0002214754Y0000643883D01*
X0002205600Y0000650000D01*
X0002214754Y0000656116D01*
X0002222623Y0000663985D01*
X0002228806Y0000673239D01*
X0002233065Y0000683520D01*
X0002235236Y0000694435D01*
X0002235236Y0000705564D01*
X0002233065Y0000716479D01*
X0002228806Y0000726760D01*
X0002222623Y0000736014D01*
X0002214754Y0000743883D01*
X0002205600Y0000750000D01*
X0002214754Y0000756116D01*
X0002222623Y0000763985D01*
X0002228806Y0000773239D01*
X0002233065Y0000783520D01*
X0002235236Y0000794435D01*
X0002235236Y0000805564D01*
X0002233065Y0000816479D01*
X0002228806Y0000826760D01*
X0002222623Y0000836014D01*
X0002214754Y0000843883D01*
X0002205600Y0000850000D01*
X0002214754Y0000856116D01*
X0002222623Y0000863985D01*
X0002228806Y0000873239D01*
X0002233065Y0000883520D01*
X0002235236Y0000894435D01*
X0002235236Y0000905564D01*
X0002233065Y0000916479D01*
X0002228806Y0000926760D01*
X0002222623Y0000936014D01*
X0002214754Y0000943883D01*
X0002205600Y0000950000D01*
X0002214754Y0000956116D01*
X0002222623Y0000963985D01*
X0002228806Y0000973239D01*
X0002233065Y0000983520D01*
X0002235236Y0000994435D01*
X0002235236Y0001005564D01*
X0002233065Y0001016479D01*
X0002228806Y0001026760D01*
X0002222623Y0001036014D01*
X0002214754Y0001043883D01*
X0002205600Y0001050000D01*
X0002214754Y0001056116D01*
X0002222623Y0001063985D01*
X0002228806Y0001073239D01*
X0002233065Y0001083520D01*
X0002235236Y0001094435D01*
X0002235236Y0001105564D01*
X0002233065Y0001116479D01*
X0002228806Y0001126760D01*
X0002222623Y0001136014D01*
X0002214754Y0001143883D01*
X0002205600Y0001150000D01*
X0002214754Y0001156116D01*
X0002222623Y0001163985D01*
X0002228806Y0001173239D01*
X0002233065Y0001183520D01*
X0002235236Y0001194435D01*
X0002235236Y0001205564D01*
X0002233065Y0001216479D01*
X0002228806Y0001226760D01*
X0002222623Y0001236014D01*
X0002214754Y0001243883D01*
X0002205600Y0001250000D01*
X0002214754Y0001256116D01*
X0002222623Y0001263985D01*
X0002228806Y0001273239D01*
X0002233065Y0001283520D01*
X0002235236Y0001294435D01*
X0002235236Y0001305564D01*
X0002233065Y0001316479D01*
X0002228806Y0001326760D01*
X0002222623Y0001336014D01*
X0002214754Y0001343883D01*
X0002205600Y0001350000D01*
X0002214754Y0001356116D01*
X0002222623Y0001363985D01*
X0002228806Y0001373239D01*
X0002233065Y0001383520D01*
X0002235236Y0001394435D01*
X0002235236Y0001405564D01*
X0002233065Y0001416479D01*
X0002228806Y0001426760D01*
X0002222623Y0001436014D01*
X0002214754Y0001443883D01*
X0002205600Y0001450000D01*
X0002214754Y0001456116D01*
X0002222623Y0001463985D01*
X0002228806Y0001473239D01*
X0002233065Y0001483520D01*
X0002235236Y0001494435D01*
X0002235236Y0001505564D01*
X0002233065Y0001516479D01*
X0002228806Y0001526760D01*
X0002222623Y0001536014D01*
X0002221514Y0001537122D01*
X0002341653Y0001657261D01*
X0002342795Y0001658198D01*
X0002346534Y0001662754D01*
X0002346767Y0001663190D01*
X0002352679Y0001657278D01*
X0002361687Y0001651259D01*
X0002371697Y0001647113D01*
X0002382323Y0001645000D01*
X0002393157Y0001645000D01*
X0002403783Y0001647113D01*
X0002413792Y0001651259D01*
X0002422800Y0001657278D01*
X0002430461Y0001664939D01*
X0002436480Y0001673947D01*
X0002440626Y0001683957D01*
X0002442740Y0001694583D01*
X0002442740Y0001705417D01*
X0002440626Y0001716042D01*
X0002436480Y0001726052D01*
X0002430461Y0001735060D01*
X0002422800Y0001742721D01*
X0002413792Y0001748740D01*
X0002403783Y0001752886D01*
X0002393157Y0001755000D01*
X0002382323Y0001755000D01*
X0002381785Y0001754893D01*
X0002396153Y0001769261D01*
X0002397295Y0001770198D01*
X0002401034Y0001774754D01*
X0002401267Y0001775190D01*
X0002407179Y0001769278D01*
X0002416187Y0001763259D01*
X0002426197Y0001759113D01*
X0002436823Y0001757000D01*
X0002447657Y0001757000D01*
X0002458283Y0001759113D01*
X0002468292Y0001763259D01*
X0002477300Y0001769278D01*
X0002484961Y0001776939D01*
X0002490980Y0001785947D01*
X0002495126Y0001795957D01*
X0002497240Y0001806583D01*
X0002497240Y0001817417D01*
X0002495126Y0001828042D01*
X0002490980Y0001838052D01*
X0002484961Y0001847060D01*
X0002477300Y0001854721D01*
X0002468292Y0001860740D01*
X0002458283Y0001864886D01*
X0002447657Y0001867000D01*
X0002436823Y0001867000D01*
X0002426197Y0001864886D01*
X0002416187Y0001860740D01*
X0002407179Y0001854721D01*
X0002401267Y0001848809D01*
X0002401034Y0001849245D01*
X0002398232Y0001852660D01*
X0002397295Y0001853801D01*
X0002396153Y0001854738D01*
X0002376876Y0001874015D01*
X0002477469Y0001874015D01*
X0002483380Y0001873436D01*
G36*
X0001551880Y0000750000D02*
G01*
X0001546653Y0000746507D01*
X0001546653Y0000753492D01*
X0001551880Y0000750000D01*
G37*
X0001551880Y0000750000D02*
X0001546653Y0000746507D01*
X0001546653Y0000753492D01*
X0001551880Y0000750000D01*
G36*
X0001551880Y0000850000D02*
G01*
X0001546653Y0000846507D01*
X0001546653Y0000853492D01*
X0001551880Y0000850000D01*
G37*
X0001551880Y0000850000D02*
X0001546653Y0000846507D01*
X0001546653Y0000853492D01*
X0001551880Y0000850000D01*
G36*
X0001614755Y0001043881D02*
G01*
X0001614754Y0001043883D01*
X0001605600Y0001050000D01*
X0001614754Y0001056116D01*
X0001622623Y0001063985D01*
X0001626694Y0001070078D01*
X0001631607Y0001070078D01*
X0001633077Y0001069934D01*
X0001634546Y0001070078D01*
X0001634547Y0001070078D01*
X0001638942Y0001070511D01*
X0001642449Y0001071575D01*
X0001614755Y0001043881D01*
G37*
X0001614755Y0001043881D02*
X0001614754Y0001043883D01*
X0001605600Y0001050000D01*
X0001614754Y0001056116D01*
X0001622623Y0001063985D01*
X0001626694Y0001070078D01*
X0001631607Y0001070078D01*
X0001633077Y0001069934D01*
X0001634546Y0001070078D01*
X0001634547Y0001070078D01*
X0001638942Y0001070511D01*
X0001642449Y0001071575D01*
X0001614755Y0001043881D01*
G36*
X0002034687Y0001651259D02*
G01*
X0002044697Y0001647113D01*
X0002055323Y0001645000D01*
X0002058393Y0001645000D01*
X0001632130Y0001218736D01*
X0001628806Y0001226760D01*
X0001622623Y0001236014D01*
X0001622622Y0001236015D01*
X0002026358Y0001639751D01*
X0002027500Y0001640688D01*
X0002031239Y0001645245D01*
X0002034017Y0001650442D01*
X0002034336Y0001651494D01*
X0002034687Y0001651259D01*
G37*
X0002034687Y0001651259D02*
X0002044697Y0001647113D01*
X0002055323Y0001645000D01*
X0002058393Y0001645000D01*
X0001632130Y0001218736D01*
X0001628806Y0001226760D01*
X0001622623Y0001236014D01*
X0001622622Y0001236015D01*
X0002026358Y0001639751D01*
X0002027500Y0001640688D01*
X0002031239Y0001645245D01*
X0002034017Y0001650442D01*
X0002034336Y0001651494D01*
X0002034687Y0001651259D01*
G36*
X0002243679Y0001657278D02*
G01*
X0002251689Y0001651927D01*
X0002173974Y0001574212D01*
X0002158949Y0001574212D01*
X0002157480Y0001574357D01*
X0002156010Y0001574212D01*
X0002156010Y0001574212D01*
X0002151614Y0001573779D01*
X0002148108Y0001572716D01*
X0002232653Y0001657261D01*
X0002233795Y0001658198D01*
X0002237534Y0001662754D01*
X0002237767Y0001663190D01*
X0002243679Y0001657278D01*
G37*
X0002243679Y0001657278D02*
X0002251689Y0001651927D01*
X0002173974Y0001574212D01*
X0002158949Y0001574212D01*
X0002157480Y0001574357D01*
X0002156010Y0001574212D01*
X0002156010Y0001574212D01*
X0002151614Y0001573779D01*
X0002148108Y0001572716D01*
X0002232653Y0001657261D01*
X0002233795Y0001658198D01*
X0002237534Y0001662754D01*
X0002237767Y0001663190D01*
X0002243679Y0001657278D01*
G36*
X0002171353Y0001795957D02*
G01*
X0002175499Y0001785947D01*
X0002181518Y0001776939D01*
X0002189179Y0001769278D01*
X0002198187Y0001763259D01*
X0002199298Y0001762799D01*
X0002192417Y0001755918D01*
X0002191275Y0001754981D01*
X0002190192Y0001753662D01*
X0002188598Y0001751720D01*
X0002185783Y0001752886D01*
X0002175157Y0001755000D01*
X0002164323Y0001755000D01*
X0002153697Y0001752886D01*
X0002145161Y0001749350D01*
X0002145161Y0001765844D01*
X0002150300Y0001769278D01*
X0002157961Y0001776939D01*
X0002163980Y0001785947D01*
X0002168126Y0001795957D01*
X0002169740Y0001804069D01*
X0002171353Y0001795957D01*
G37*
X0002171353Y0001795957D02*
X0002175499Y0001785947D01*
X0002181518Y0001776939D01*
X0002189179Y0001769278D01*
X0002198187Y0001763259D01*
X0002199298Y0001762799D01*
X0002192417Y0001755918D01*
X0002191275Y0001754981D01*
X0002190192Y0001753662D01*
X0002188598Y0001751720D01*
X0002185783Y0001752886D01*
X0002175157Y0001755000D01*
X0002164323Y0001755000D01*
X0002153697Y0001752886D01*
X0002145161Y0001749350D01*
X0002145161Y0001765844D01*
X0002150300Y0001769278D01*
X0002157961Y0001776939D01*
X0002163980Y0001785947D01*
X0002168126Y0001795957D01*
X0002169740Y0001804069D01*
X0002171353Y0001795957D01*
G36*
X0002062353Y0001795957D02*
G01*
X0002066499Y0001785947D01*
X0002072518Y0001776939D01*
X0002080179Y0001769278D01*
X0002085318Y0001765844D01*
X0002085318Y0001749350D01*
X0002076783Y0001752886D01*
X0002066157Y0001755000D01*
X0002055323Y0001755000D01*
X0002044697Y0001752886D01*
X0002036161Y0001749350D01*
X0002036161Y0001765844D01*
X0002041300Y0001769278D01*
X0002048961Y0001776939D01*
X0002054980Y0001785947D01*
X0002059126Y0001795957D01*
X0002060740Y0001804069D01*
X0002062353Y0001795957D01*
G37*
X0002062353Y0001795957D02*
X0002066499Y0001785947D01*
X0002072518Y0001776939D01*
X0002080179Y0001769278D01*
X0002085318Y0001765844D01*
X0002085318Y0001749350D01*
X0002076783Y0001752886D01*
X0002066157Y0001755000D01*
X0002055323Y0001755000D01*
X0002044697Y0001752886D01*
X0002036161Y0001749350D01*
X0002036161Y0001765844D01*
X0002041300Y0001769278D01*
X0002048961Y0001776939D01*
X0002054980Y0001785947D01*
X0002059126Y0001795957D01*
X0002060740Y0001804069D01*
X0002062353Y0001795957D01*
G36*
X0002298179Y0001769278D02*
G01*
X0002306189Y0001763927D01*
X0002301417Y0001759155D01*
X0002300275Y0001758218D01*
X0002298105Y0001755573D01*
X0002296536Y0001753662D01*
X0002296121Y0001752886D01*
X0002295879Y0001752432D01*
X0002294783Y0001752886D01*
X0002284157Y0001755000D01*
X0002276128Y0001755000D01*
X0002294293Y0001773164D01*
X0002298179Y0001769278D01*
G37*
X0002298179Y0001769278D02*
X0002306189Y0001763927D01*
X0002301417Y0001759155D01*
X0002300275Y0001758218D01*
X0002298105Y0001755573D01*
X0002296536Y0001753662D01*
X0002296121Y0001752886D01*
X0002295879Y0001752432D01*
X0002294783Y0001752886D01*
X0002284157Y0001755000D01*
X0002276128Y0001755000D01*
X0002294293Y0001773164D01*
X0002298179Y0001769278D01*
G36*
X0002235719Y0001865794D02*
G01*
X0002229657Y0001867000D01*
X0002218823Y0001867000D01*
X0002208197Y0001864886D01*
X0002198187Y0001860740D01*
X0002189179Y0001854721D01*
X0002181518Y0001847060D01*
X0002175499Y0001838052D01*
X0002171353Y0001828042D01*
X0002169740Y0001819930D01*
X0002168126Y0001828042D01*
X0002163980Y0001838052D01*
X0002157961Y0001847060D01*
X0002150300Y0001854721D01*
X0002141292Y0001860740D01*
X0002131283Y0001864886D01*
X0002120657Y0001867000D01*
X0002109823Y0001867000D01*
X0002099197Y0001864886D01*
X0002089187Y0001860740D01*
X0002080179Y0001854721D01*
X0002072518Y0001847060D01*
X0002066499Y0001838052D01*
X0002062353Y0001828042D01*
X0002060740Y0001819930D01*
X0002059126Y0001828042D01*
X0002054980Y0001838052D01*
X0002048961Y0001847060D01*
X0002041300Y0001854721D01*
X0002032292Y0001860740D01*
X0002022283Y0001864886D01*
X0002011657Y0001867000D01*
X0002000823Y0001867000D01*
X0001990197Y0001864886D01*
X0001980187Y0001860740D01*
X0001971179Y0001854721D01*
X0001963518Y0001847060D01*
X0001957499Y0001838052D01*
X0001953353Y0001828042D01*
X0001951740Y0001819930D01*
X0001950126Y0001828042D01*
X0001945980Y0001838052D01*
X0001939961Y0001847060D01*
X0001932300Y0001854721D01*
X0001923292Y0001860740D01*
X0001913283Y0001864886D01*
X0001902657Y0001867000D01*
X0001891823Y0001867000D01*
X0001881197Y0001864886D01*
X0001871187Y0001860740D01*
X0001862179Y0001854721D01*
X0001854518Y0001847060D01*
X0001848499Y0001838052D01*
X0001844353Y0001828042D01*
X0001842740Y0001819930D01*
X0001841126Y0001828042D01*
X0001836980Y0001838052D01*
X0001830961Y0001847060D01*
X0001823300Y0001854721D01*
X0001814292Y0001860740D01*
X0001804283Y0001864886D01*
X0001793657Y0001867000D01*
X0001782823Y0001867000D01*
X0001772197Y0001864886D01*
X0001762187Y0001860740D01*
X0001753179Y0001854721D01*
X0001745518Y0001847060D01*
X0001739499Y0001838052D01*
X0001735353Y0001828042D01*
X0001733740Y0001819930D01*
X0001732126Y0001828042D01*
X0001727980Y0001838052D01*
X0001721961Y0001847060D01*
X0001714300Y0001854721D01*
X0001705292Y0001860740D01*
X0001695283Y0001864886D01*
X0001684657Y0001867000D01*
X0001673823Y0001867000D01*
X0001663197Y0001864886D01*
X0001653187Y0001860740D01*
X0001644179Y0001854721D01*
X0001636518Y0001847060D01*
X0001630499Y0001838052D01*
X0001626353Y0001828042D01*
X0001624740Y0001819930D01*
X0001623126Y0001828042D01*
X0001618980Y0001838052D01*
X0001612961Y0001847060D01*
X0001605300Y0001854721D01*
X0001596292Y0001860740D01*
X0001586283Y0001864886D01*
X0001575657Y0001867000D01*
X0001564823Y0001867000D01*
X0001554197Y0001864886D01*
X0001544187Y0001860740D01*
X0001535179Y0001854721D01*
X0001527518Y0001847060D01*
X0001521499Y0001838052D01*
X0001517353Y0001828042D01*
X0001515740Y0001819930D01*
X0001514126Y0001828042D01*
X0001509980Y0001838052D01*
X0001503961Y0001847060D01*
X0001496300Y0001854721D01*
X0001487292Y0001860740D01*
X0001477283Y0001864886D01*
X0001466657Y0001867000D01*
X0001455823Y0001867000D01*
X0001445197Y0001864886D01*
X0001435187Y0001860740D01*
X0001426179Y0001854721D01*
X0001418518Y0001847060D01*
X0001412499Y0001838052D01*
X0001408353Y0001828042D01*
X0001406740Y0001819930D01*
X0001405126Y0001828042D01*
X0001400980Y0001838052D01*
X0001394961Y0001847060D01*
X0001387300Y0001854721D01*
X0001378292Y0001860740D01*
X0001368283Y0001864886D01*
X0001357657Y0001867000D01*
X0001346823Y0001867000D01*
X0001336197Y0001864886D01*
X0001326187Y0001860740D01*
X0001317179Y0001854721D01*
X0001309518Y0001847060D01*
X0001303499Y0001838052D01*
X0001299353Y0001828042D01*
X0001297740Y0001819930D01*
X0001296126Y0001828042D01*
X0001291980Y0001838052D01*
X0001285961Y0001847060D01*
X0001278300Y0001854721D01*
X0001269292Y0001860740D01*
X0001259283Y0001864886D01*
X0001248657Y0001867000D01*
X0001237823Y0001867000D01*
X0001227197Y0001864886D01*
X0001217187Y0001860740D01*
X0001208179Y0001854721D01*
X0001200518Y0001847060D01*
X0001194499Y0001838052D01*
X0001190353Y0001828042D01*
X0001188740Y0001819930D01*
X0001187126Y0001828042D01*
X0001182980Y0001838052D01*
X0001176961Y0001847060D01*
X0001169300Y0001854721D01*
X0001160292Y0001860740D01*
X0001150283Y0001864886D01*
X0001139657Y0001867000D01*
X0001128823Y0001867000D01*
X0001118197Y0001864886D01*
X0001108187Y0001860740D01*
X0001107154Y0001860049D01*
X0001108840Y0001863221D01*
X0001111787Y0001866834D01*
X0001115380Y0001869806D01*
X0001119482Y0001872024D01*
X0001123936Y0001873403D01*
X0001129764Y0001874015D01*
X0002243940Y0001874015D01*
X0002235719Y0001865794D01*
G37*
X0002235719Y0001865794D02*
X0002229657Y0001867000D01*
X0002218823Y0001867000D01*
X0002208197Y0001864886D01*
X0002198187Y0001860740D01*
X0002189179Y0001854721D01*
X0002181518Y0001847060D01*
X0002175499Y0001838052D01*
X0002171353Y0001828042D01*
X0002169740Y0001819930D01*
X0002168126Y0001828042D01*
X0002163980Y0001838052D01*
X0002157961Y0001847060D01*
X0002150300Y0001854721D01*
X0002141292Y0001860740D01*
X0002131283Y0001864886D01*
X0002120657Y0001867000D01*
X0002109823Y0001867000D01*
X0002099197Y0001864886D01*
X0002089187Y0001860740D01*
X0002080179Y0001854721D01*
X0002072518Y0001847060D01*
X0002066499Y0001838052D01*
X0002062353Y0001828042D01*
X0002060740Y0001819930D01*
X0002059126Y0001828042D01*
X0002054980Y0001838052D01*
X0002048961Y0001847060D01*
X0002041300Y0001854721D01*
X0002032292Y0001860740D01*
X0002022283Y0001864886D01*
X0002011657Y0001867000D01*
X0002000823Y0001867000D01*
X0001990197Y0001864886D01*
X0001980187Y0001860740D01*
X0001971179Y0001854721D01*
X0001963518Y0001847060D01*
X0001957499Y0001838052D01*
X0001953353Y0001828042D01*
X0001951740Y0001819930D01*
X0001950126Y0001828042D01*
X0001945980Y0001838052D01*
X0001939961Y0001847060D01*
X0001932300Y0001854721D01*
X0001923292Y0001860740D01*
X0001913283Y0001864886D01*
X0001902657Y0001867000D01*
X0001891823Y0001867000D01*
X0001881197Y0001864886D01*
X0001871187Y0001860740D01*
X0001862179Y0001854721D01*
X0001854518Y0001847060D01*
X0001848499Y0001838052D01*
X0001844353Y0001828042D01*
X0001842740Y0001819930D01*
X0001841126Y0001828042D01*
X0001836980Y0001838052D01*
X0001830961Y0001847060D01*
X0001823300Y0001854721D01*
X0001814292Y0001860740D01*
X0001804283Y0001864886D01*
X0001793657Y0001867000D01*
X0001782823Y0001867000D01*
X0001772197Y0001864886D01*
X0001762187Y0001860740D01*
X0001753179Y0001854721D01*
X0001745518Y0001847060D01*
X0001739499Y0001838052D01*
X0001735353Y0001828042D01*
X0001733740Y0001819930D01*
X0001732126Y0001828042D01*
X0001727980Y0001838052D01*
X0001721961Y0001847060D01*
X0001714300Y0001854721D01*
X0001705292Y0001860740D01*
X0001695283Y0001864886D01*
X0001684657Y0001867000D01*
X0001673823Y0001867000D01*
X0001663197Y0001864886D01*
X0001653187Y0001860740D01*
X0001644179Y0001854721D01*
X0001636518Y0001847060D01*
X0001630499Y0001838052D01*
X0001626353Y0001828042D01*
X0001624740Y0001819930D01*
X0001623126Y0001828042D01*
X0001618980Y0001838052D01*
X0001612961Y0001847060D01*
X0001605300Y0001854721D01*
X0001596292Y0001860740D01*
X0001586283Y0001864886D01*
X0001575657Y0001867000D01*
X0001564823Y0001867000D01*
X0001554197Y0001864886D01*
X0001544187Y0001860740D01*
X0001535179Y0001854721D01*
X0001527518Y0001847060D01*
X0001521499Y0001838052D01*
X0001517353Y0001828042D01*
X0001515740Y0001819930D01*
X0001514126Y0001828042D01*
X0001509980Y0001838052D01*
X0001503961Y0001847060D01*
X0001496300Y0001854721D01*
X0001487292Y0001860740D01*
X0001477283Y0001864886D01*
X0001466657Y0001867000D01*
X0001455823Y0001867000D01*
X0001445197Y0001864886D01*
X0001435187Y0001860740D01*
X0001426179Y0001854721D01*
X0001418518Y0001847060D01*
X0001412499Y0001838052D01*
X0001408353Y0001828042D01*
X0001406740Y0001819930D01*
X0001405126Y0001828042D01*
X0001400980Y0001838052D01*
X0001394961Y0001847060D01*
X0001387300Y0001854721D01*
X0001378292Y0001860740D01*
X0001368283Y0001864886D01*
X0001357657Y0001867000D01*
X0001346823Y0001867000D01*
X0001336197Y0001864886D01*
X0001326187Y0001860740D01*
X0001317179Y0001854721D01*
X0001309518Y0001847060D01*
X0001303499Y0001838052D01*
X0001299353Y0001828042D01*
X0001297740Y0001819930D01*
X0001296126Y0001828042D01*
X0001291980Y0001838052D01*
X0001285961Y0001847060D01*
X0001278300Y0001854721D01*
X0001269292Y0001860740D01*
X0001259283Y0001864886D01*
X0001248657Y0001867000D01*
X0001237823Y0001867000D01*
X0001227197Y0001864886D01*
X0001217187Y0001860740D01*
X0001208179Y0001854721D01*
X0001200518Y0001847060D01*
X0001194499Y0001838052D01*
X0001190353Y0001828042D01*
X0001188740Y0001819930D01*
X0001187126Y0001828042D01*
X0001182980Y0001838052D01*
X0001176961Y0001847060D01*
X0001169300Y0001854721D01*
X0001160292Y0001860740D01*
X0001150283Y0001864886D01*
X0001139657Y0001867000D01*
X0001128823Y0001867000D01*
X0001118197Y0001864886D01*
X0001108187Y0001860740D01*
X0001107154Y0001860049D01*
X0001108840Y0001863221D01*
X0001111787Y0001866834D01*
X0001115380Y0001869806D01*
X0001119482Y0001872024D01*
X0001123936Y0001873403D01*
X0001129764Y0001874015D01*
X0002243940Y0001874015D01*
X0002235719Y0001865794D01*
G04 next file*
G04 Gerber Fmt 4.6, Leading zero omitted, Abs format (unit mm)*
G04 Created by KiCad (PCBNEW (5.1.6)-1) date 2020-09-18 13:03:01*
G01*
G04 APERTURE LIST*
G04 APERTURE END LIST*
D77*
X0002969645Y0001995000D02*
X0005494645Y0000245000D03*
G36*
G01*
X0005553700Y0000314094D02*
X0005553700Y0000325905D01*
G75*
G02*
X0005559606Y0000331811I0000005905D01*
G01*
X0005624566Y0000331811D01*
G75*
G02*
X0005630472Y0000325905J-0000005905D01*
G01*
X0005630472Y0000314094D01*
G75*
G02*
X0005624566Y0000308188I-0000005905D01*
G01*
X0005559606Y0000308188D01*
G75*
G02*
X0005553700Y0000314094J0000005905D01*
G01*
G37*
G36*
G01*
X0005553700Y0000264094D02*
X0005553700Y0000275905D01*
G75*
G02*
X0005559606Y0000281811I0000005905D01*
G01*
X0005624566Y0000281811D01*
G75*
G02*
X0005630472Y0000275905J-0000005905D01*
G01*
X0005630472Y0000264094D01*
G75*
G02*
X0005624566Y0000258188I-0000005905D01*
G01*
X0005559606Y0000258188D01*
G75*
G02*
X0005553700Y0000264094J0000005905D01*
G01*
G37*
G36*
G01*
X0005553700Y0000214094D02*
X0005553700Y0000225905D01*
G75*
G02*
X0005559606Y0000231811I0000005905D01*
G01*
X0005624566Y0000231811D01*
G75*
G02*
X0005630472Y0000225905J-0000005905D01*
G01*
X0005630472Y0000214094D01*
G75*
G02*
X0005624566Y0000208188I-0000005905D01*
G01*
X0005559606Y0000208188D01*
G75*
G02*
X0005553700Y0000214094J0000005905D01*
G01*
G37*
G36*
G01*
X0005553700Y0000164094D02*
X0005553700Y0000175905D01*
G75*
G02*
X0005559606Y0000181811I0000005905D01*
G01*
X0005624566Y0000181811D01*
G75*
G02*
X0005630472Y0000175905J-0000005905D01*
G01*
X0005630472Y0000164094D01*
G75*
G02*
X0005624566Y0000158188I-0000005905D01*
G01*
X0005559606Y0000158188D01*
G75*
G02*
X0005553700Y0000164094J0000005905D01*
G01*
G37*
G36*
G01*
X0005358818Y0000164094D02*
X0005358818Y0000175905D01*
G75*
G02*
X0005364724Y0000181811I0000005905D01*
G01*
X0005429685Y0000181811D01*
G75*
G02*
X0005435590Y0000175905J-0000005905D01*
G01*
X0005435590Y0000164094D01*
G75*
G02*
X0005429685Y0000158188I-0000005905D01*
G01*
X0005364724Y0000158188D01*
G75*
G02*
X0005358818Y0000164094J0000005905D01*
G01*
G37*
G36*
G01*
X0005358818Y0000214094D02*
X0005358818Y0000225905D01*
G75*
G02*
X0005364724Y0000231811I0000005905D01*
G01*
X0005429685Y0000231811D01*
G75*
G02*
X0005435590Y0000225905J-0000005905D01*
G01*
X0005435590Y0000214094D01*
G75*
G02*
X0005429685Y0000208188I-0000005905D01*
G01*
X0005364724Y0000208188D01*
G75*
G02*
X0005358818Y0000214094J0000005905D01*
G01*
G37*
G36*
G01*
X0005358818Y0000264094D02*
X0005358818Y0000275905D01*
G75*
G02*
X0005364724Y0000281811I0000005905D01*
G01*
X0005429685Y0000281811D01*
G75*
G02*
X0005435590Y0000275905J-0000005905D01*
G01*
X0005435590Y0000264094D01*
G75*
G02*
X0005429685Y0000258188I-0000005905D01*
G01*
X0005364724Y0000258188D01*
G75*
G02*
X0005358818Y0000264094J0000005905D01*
G01*
G37*
G36*
G01*
X0005358818Y0000314094D02*
X0005358818Y0000325905D01*
G75*
G02*
X0005364724Y0000331811I0000005905D01*
G01*
X0005429685Y0000331811D01*
G75*
G02*
X0005435590Y0000325905J-0000005905D01*
G01*
X0005435590Y0000314094D01*
G75*
G02*
X0005429685Y0000308188I-0000005905D01*
G01*
X0005364724Y0000308188D01*
G75*
G02*
X0005358818Y0000314094J0000005905D01*
G01*
G37*
D78*
X0005344645Y0000445000D03*
X0005644645Y0000045000D03*
X0005444645Y0000445000D03*
X0005544645Y0000045000D03*
X0005544645Y0000445000D03*
X0005444645Y0000045000D03*
X0005644645Y0000445000D03*
D79*
X0005344645Y0000045000D03*
D80*
X0005397204Y0000320000D02*
X0005319645Y0000320000D01*
X0005319645Y0000320000D02*
X0005294645Y0000295000D01*
X0005294645Y0000095000D02*
X0005344645Y0000045000D01*
X0005294645Y0000295000D02*
X0005294645Y0000095000D01*
X0005397204Y0000270000D02*
X0005344645Y0000270000D01*
X0005344645Y0000270000D02*
X0005319645Y0000245000D01*
X0005319645Y0000245000D02*
X0005319645Y0000120000D01*
X0005319645Y0000120000D02*
X0005344645Y0000095000D01*
X0005394645Y0000095000D02*
X0005444645Y0000045000D01*
X0005344645Y0000095000D02*
X0005394645Y0000095000D01*
X0005469645Y0000120000D02*
X0005544645Y0000045000D01*
X0005397204Y0000220000D02*
X0005369645Y0000220000D01*
X0005344645Y0000195000D02*
X0005344645Y0000145000D01*
X0005369645Y0000220000D02*
X0005344645Y0000195000D01*
X0005344645Y0000145000D02*
X0005369645Y0000120000D01*
X0005369645Y0000120000D02*
X0005469645Y0000120000D01*
X0005397204Y0000169999D02*
X0005469645Y0000169999D01*
X0005469645Y0000169999D02*
X0005519645Y0000120000D01*
X0005569645Y0000120000D02*
X0005644645Y0000045000D01*
X0005519645Y0000120000D02*
X0005569645Y0000120000D01*
X0005592086Y0000169999D02*
X0005669645Y0000169999D01*
X0005669645Y0000169999D02*
X0005694645Y0000195000D01*
X0005694645Y0000395000D02*
X0005644645Y0000445000D01*
X0005694645Y0000195000D02*
X0005694645Y0000395000D01*
X0005644645Y0000220000D02*
X0005669645Y0000245000D01*
X0005592086Y0000220000D02*
X0005644645Y0000220000D01*
X0005669645Y0000245000D02*
X0005669645Y0000370000D01*
X0005644645Y0000395000D02*
X0005594645Y0000395000D01*
X0005594645Y0000395000D02*
X0005544645Y0000445000D01*
X0005669645Y0000370000D02*
X0005644645Y0000395000D01*
X0005592086Y0000270000D02*
X0005619645Y0000270000D01*
X0005619645Y0000270000D02*
X0005644645Y0000295000D01*
X0005644645Y0000295000D02*
X0005644645Y0000345000D01*
X0005644645Y0000345000D02*
X0005619645Y0000370000D01*
X0005619645Y0000370000D02*
X0005519645Y0000370000D01*
X0005519645Y0000370000D02*
X0005444645Y0000445000D01*
X0005592086Y0000320000D02*
X0005494645Y0000320000D01*
X0005494645Y0000320000D02*
X0005444645Y0000370000D01*
X0005419645Y0000370000D02*
X0005344645Y0000445000D01*
X0005444645Y0000370000D02*
X0005419645Y0000370000D01*
G04 next file*
G04 Gerber Fmt 4.6, Leading zero omitted, Abs format (unit mm)*
G04 Created by KiCad (PCBNEW (5.1.6)-1) date 2020-09-18 13:03:01*
G01*
G04 APERTURE LIST*
G04 APERTURE END LIST*
D81*
X0002969645Y0002563740D02*
X0005494645Y0000813740D03*
G36*
G01*
X0005553700Y0000882834D02*
X0005553700Y0000894645D01*
G75*
G02*
X0005559606Y0000900551I0000005905D01*
G01*
X0005624566Y0000900551D01*
G75*
G02*
X0005630472Y0000894645J-0000005905D01*
G01*
X0005630472Y0000882834D01*
G75*
G02*
X0005624566Y0000876929I-0000005905D01*
G01*
X0005559606Y0000876929D01*
G75*
G02*
X0005553700Y0000882834J0000005905D01*
G01*
G37*
G36*
G01*
X0005553700Y0000832834D02*
X0005553700Y0000844645D01*
G75*
G02*
X0005559606Y0000850551I0000005905D01*
G01*
X0005624566Y0000850551D01*
G75*
G02*
X0005630472Y0000844645J-0000005905D01*
G01*
X0005630472Y0000832834D01*
G75*
G02*
X0005624566Y0000826929I-0000005905D01*
G01*
X0005559606Y0000826929D01*
G75*
G02*
X0005553700Y0000832834J0000005905D01*
G01*
G37*
G36*
G01*
X0005553700Y0000782834D02*
X0005553700Y0000794645D01*
G75*
G02*
X0005559606Y0000800551I0000005905D01*
G01*
X0005624566Y0000800551D01*
G75*
G02*
X0005630472Y0000794645J-0000005905D01*
G01*
X0005630472Y0000782834D01*
G75*
G02*
X0005624566Y0000776929I-0000005905D01*
G01*
X0005559606Y0000776929D01*
G75*
G02*
X0005553700Y0000782834J0000005905D01*
G01*
G37*
G36*
G01*
X0005553700Y0000732834D02*
X0005553700Y0000744645D01*
G75*
G02*
X0005559606Y0000750551I0000005905D01*
G01*
X0005624566Y0000750551D01*
G75*
G02*
X0005630472Y0000744645J-0000005905D01*
G01*
X0005630472Y0000732834D01*
G75*
G02*
X0005624566Y0000726929I-0000005905D01*
G01*
X0005559606Y0000726929D01*
G75*
G02*
X0005553700Y0000732834J0000005905D01*
G01*
G37*
G36*
G01*
X0005358818Y0000732834D02*
X0005358818Y0000744645D01*
G75*
G02*
X0005364724Y0000750551I0000005905D01*
G01*
X0005429685Y0000750551D01*
G75*
G02*
X0005435590Y0000744645J-0000005905D01*
G01*
X0005435590Y0000732834D01*
G75*
G02*
X0005429685Y0000726929I-0000005905D01*
G01*
X0005364724Y0000726929D01*
G75*
G02*
X0005358818Y0000732834J0000005905D01*
G01*
G37*
G36*
G01*
X0005358818Y0000782834D02*
X0005358818Y0000794645D01*
G75*
G02*
X0005364724Y0000800551I0000005905D01*
G01*
X0005429685Y0000800551D01*
G75*
G02*
X0005435590Y0000794645J-0000005905D01*
G01*
X0005435590Y0000782834D01*
G75*
G02*
X0005429685Y0000776929I-0000005905D01*
G01*
X0005364724Y0000776929D01*
G75*
G02*
X0005358818Y0000782834J0000005905D01*
G01*
G37*
G36*
G01*
X0005358818Y0000832834D02*
X0005358818Y0000844645D01*
G75*
G02*
X0005364724Y0000850551I0000005905D01*
G01*
X0005429685Y0000850551D01*
G75*
G02*
X0005435590Y0000844645J-0000005905D01*
G01*
X0005435590Y0000832834D01*
G75*
G02*
X0005429685Y0000826929I-0000005905D01*
G01*
X0005364724Y0000826929D01*
G75*
G02*
X0005358818Y0000832834J0000005905D01*
G01*
G37*
G36*
G01*
X0005358818Y0000882834D02*
X0005358818Y0000894645D01*
G75*
G02*
X0005364724Y0000900551I0000005905D01*
G01*
X0005429685Y0000900551D01*
G75*
G02*
X0005435590Y0000894645J-0000005905D01*
G01*
X0005435590Y0000882834D01*
G75*
G02*
X0005429685Y0000876929I-0000005905D01*
G01*
X0005364724Y0000876929D01*
G75*
G02*
X0005358818Y0000882834J0000005905D01*
G01*
G37*
D82*
X0005344645Y0001013740D03*
X0005644645Y0000613740D03*
X0005444645Y0001013740D03*
X0005544645Y0000613740D03*
X0005544645Y0001013740D03*
X0005444645Y0000613740D03*
X0005644645Y0001013740D03*
D83*
X0005344645Y0000613740D03*
D84*
X0005397204Y0000888740D02*
X0005319645Y0000888740D01*
X0005319645Y0000888740D02*
X0005294645Y0000863740D01*
X0005294645Y0000663740D02*
X0005344645Y0000613740D01*
X0005294645Y0000863740D02*
X0005294645Y0000663740D01*
X0005397204Y0000838740D02*
X0005344645Y0000838740D01*
X0005344645Y0000838740D02*
X0005319645Y0000813740D01*
X0005319645Y0000813740D02*
X0005319645Y0000688740D01*
X0005319645Y0000688740D02*
X0005344645Y0000663740D01*
X0005394645Y0000663740D02*
X0005444645Y0000613740D01*
X0005344645Y0000663740D02*
X0005394645Y0000663740D01*
X0005469645Y0000688740D02*
X0005544645Y0000613740D01*
X0005397204Y0000788740D02*
X0005369645Y0000788740D01*
X0005344645Y0000763740D02*
X0005344645Y0000713740D01*
X0005369645Y0000788740D02*
X0005344645Y0000763740D01*
X0005344645Y0000713740D02*
X0005369645Y0000688740D01*
X0005369645Y0000688740D02*
X0005469645Y0000688740D01*
X0005397204Y0000738740D02*
X0005469645Y0000738740D01*
X0005469645Y0000738740D02*
X0005519645Y0000688740D01*
X0005569645Y0000688740D02*
X0005644645Y0000613740D01*
X0005519645Y0000688740D02*
X0005569645Y0000688740D01*
X0005592086Y0000738740D02*
X0005669645Y0000738740D01*
X0005669645Y0000738740D02*
X0005694645Y0000763740D01*
X0005694645Y0000963740D02*
X0005644645Y0001013740D01*
X0005694645Y0000763740D02*
X0005694645Y0000963740D01*
X0005644645Y0000788740D02*
X0005669645Y0000813740D01*
X0005592086Y0000788740D02*
X0005644645Y0000788740D01*
X0005669645Y0000813740D02*
X0005669645Y0000938740D01*
X0005644645Y0000963740D02*
X0005594645Y0000963740D01*
X0005594645Y0000963740D02*
X0005544645Y0001013740D01*
X0005669645Y0000938740D02*
X0005644645Y0000963740D01*
X0005592086Y0000838740D02*
X0005619645Y0000838740D01*
X0005619645Y0000838740D02*
X0005644645Y0000863740D01*
X0005644645Y0000863740D02*
X0005644645Y0000913740D01*
X0005644645Y0000913740D02*
X0005619645Y0000938740D01*
X0005619645Y0000938740D02*
X0005519645Y0000938740D01*
X0005519645Y0000938740D02*
X0005444645Y0001013740D01*
X0005592086Y0000888740D02*
X0005494645Y0000888740D01*
X0005494645Y0000888740D02*
X0005444645Y0000938740D01*
X0005419645Y0000938740D02*
X0005344645Y0001013740D01*
X0005444645Y0000938740D02*
X0005419645Y0000938740D01*
G04 next file*
G04 Gerber Fmt 4.6, Leading zero omitted, Abs format (unit mm)*
G04 Created by KiCad (PCBNEW (5.1.6)-1) date 2020-09-18 13:03:01*
G01*
G04 APERTURE LIST*
G04 APERTURE END LIST*
D85*
X0002969645Y0003215432D02*
X0005494645Y0001465432D03*
G36*
G01*
X0005553700Y0001534527D02*
X0005553700Y0001546338D01*
G75*
G02*
X0005559606Y0001552243I0000005905D01*
G01*
X0005624566Y0001552243D01*
G75*
G02*
X0005630472Y0001546338J-0000005905D01*
G01*
X0005630472Y0001534527D01*
G75*
G02*
X0005624566Y0001528621I-0000005905D01*
G01*
X0005559606Y0001528621D01*
G75*
G02*
X0005553700Y0001534527J0000005905D01*
G01*
G37*
G36*
G01*
X0005553700Y0001484527D02*
X0005553700Y0001496338D01*
G75*
G02*
X0005559606Y0001502243I0000005905D01*
G01*
X0005624566Y0001502243D01*
G75*
G02*
X0005630472Y0001496338J-0000005905D01*
G01*
X0005630472Y0001484527D01*
G75*
G02*
X0005624566Y0001478621I-0000005905D01*
G01*
X0005559606Y0001478621D01*
G75*
G02*
X0005553700Y0001484527J0000005905D01*
G01*
G37*
G36*
G01*
X0005553700Y0001434527D02*
X0005553700Y0001446338D01*
G75*
G02*
X0005559606Y0001452243I0000005905D01*
G01*
X0005624566Y0001452243D01*
G75*
G02*
X0005630472Y0001446338J-0000005905D01*
G01*
X0005630472Y0001434527D01*
G75*
G02*
X0005624566Y0001428621I-0000005905D01*
G01*
X0005559606Y0001428621D01*
G75*
G02*
X0005553700Y0001434527J0000005905D01*
G01*
G37*
G36*
G01*
X0005553700Y0001384527D02*
X0005553700Y0001396338D01*
G75*
G02*
X0005559606Y0001402243I0000005905D01*
G01*
X0005624566Y0001402243D01*
G75*
G02*
X0005630472Y0001396338J-0000005905D01*
G01*
X0005630472Y0001384527D01*
G75*
G02*
X0005624566Y0001378621I-0000005905D01*
G01*
X0005559606Y0001378621D01*
G75*
G02*
X0005553700Y0001384527J0000005905D01*
G01*
G37*
G36*
G01*
X0005358818Y0001384527D02*
X0005358818Y0001396338D01*
G75*
G02*
X0005364724Y0001402243I0000005905D01*
G01*
X0005429685Y0001402243D01*
G75*
G02*
X0005435590Y0001396338J-0000005905D01*
G01*
X0005435590Y0001384527D01*
G75*
G02*
X0005429685Y0001378621I-0000005905D01*
G01*
X0005364724Y0001378621D01*
G75*
G02*
X0005358818Y0001384527J0000005905D01*
G01*
G37*
G36*
G01*
X0005358818Y0001434527D02*
X0005358818Y0001446338D01*
G75*
G02*
X0005364724Y0001452243I0000005905D01*
G01*
X0005429685Y0001452243D01*
G75*
G02*
X0005435590Y0001446338J-0000005905D01*
G01*
X0005435590Y0001434527D01*
G75*
G02*
X0005429685Y0001428621I-0000005905D01*
G01*
X0005364724Y0001428621D01*
G75*
G02*
X0005358818Y0001434527J0000005905D01*
G01*
G37*
G36*
G01*
X0005358818Y0001484527D02*
X0005358818Y0001496338D01*
G75*
G02*
X0005364724Y0001502243I0000005905D01*
G01*
X0005429685Y0001502243D01*
G75*
G02*
X0005435590Y0001496338J-0000005905D01*
G01*
X0005435590Y0001484527D01*
G75*
G02*
X0005429685Y0001478621I-0000005905D01*
G01*
X0005364724Y0001478621D01*
G75*
G02*
X0005358818Y0001484527J0000005905D01*
G01*
G37*
G36*
G01*
X0005358818Y0001534527D02*
X0005358818Y0001546338D01*
G75*
G02*
X0005364724Y0001552243I0000005905D01*
G01*
X0005429685Y0001552243D01*
G75*
G02*
X0005435590Y0001546338J-0000005905D01*
G01*
X0005435590Y0001534527D01*
G75*
G02*
X0005429685Y0001528621I-0000005905D01*
G01*
X0005364724Y0001528621D01*
G75*
G02*
X0005358818Y0001534527J0000005905D01*
G01*
G37*
D86*
X0005344645Y0001665432D03*
X0005644645Y0001265432D03*
X0005444645Y0001665432D03*
X0005544645Y0001265432D03*
X0005544645Y0001665432D03*
X0005444645Y0001265432D03*
X0005644645Y0001665432D03*
D87*
X0005344645Y0001265432D03*
D88*
X0005397204Y0001540432D02*
X0005319645Y0001540432D01*
X0005319645Y0001540432D02*
X0005294645Y0001515432D01*
X0005294645Y0001315432D02*
X0005344645Y0001265432D01*
X0005294645Y0001515432D02*
X0005294645Y0001315432D01*
X0005397204Y0001490432D02*
X0005344645Y0001490432D01*
X0005344645Y0001490432D02*
X0005319645Y0001465432D01*
X0005319645Y0001465432D02*
X0005319645Y0001340432D01*
X0005319645Y0001340432D02*
X0005344645Y0001315432D01*
X0005394645Y0001315432D02*
X0005444645Y0001265432D01*
X0005344645Y0001315432D02*
X0005394645Y0001315432D01*
X0005469645Y0001340432D02*
X0005544645Y0001265432D01*
X0005397204Y0001440432D02*
X0005369645Y0001440432D01*
X0005344645Y0001415432D02*
X0005344645Y0001365432D01*
X0005369645Y0001440432D02*
X0005344645Y0001415432D01*
X0005344645Y0001365432D02*
X0005369645Y0001340432D01*
X0005369645Y0001340432D02*
X0005469645Y0001340432D01*
X0005397204Y0001390432D02*
X0005469645Y0001390432D01*
X0005469645Y0001390432D02*
X0005519645Y0001340432D01*
X0005569645Y0001340432D02*
X0005644645Y0001265432D01*
X0005519645Y0001340432D02*
X0005569645Y0001340432D01*
X0005592086Y0001390432D02*
X0005669645Y0001390432D01*
X0005669645Y0001390432D02*
X0005694645Y0001415432D01*
X0005694645Y0001615432D02*
X0005644645Y0001665432D01*
X0005694645Y0001415432D02*
X0005694645Y0001615432D01*
X0005644645Y0001440432D02*
X0005669645Y0001465432D01*
X0005592086Y0001440432D02*
X0005644645Y0001440432D01*
X0005669645Y0001465432D02*
X0005669645Y0001590432D01*
X0005644645Y0001615432D02*
X0005594645Y0001615432D01*
X0005594645Y0001615432D02*
X0005544645Y0001665432D01*
X0005669645Y0001590432D02*
X0005644645Y0001615432D01*
X0005592086Y0001490432D02*
X0005619645Y0001490432D01*
X0005619645Y0001490432D02*
X0005644645Y0001515432D01*
X0005644645Y0001515432D02*
X0005644645Y0001565432D01*
X0005644645Y0001565432D02*
X0005619645Y0001590432D01*
X0005619645Y0001590432D02*
X0005519645Y0001590432D01*
X0005519645Y0001590432D02*
X0005444645Y0001665432D01*
X0005592086Y0001540432D02*
X0005494645Y0001540432D01*
X0005494645Y0001540432D02*
X0005444645Y0001590432D01*
X0005419645Y0001590432D02*
X0005344645Y0001665432D01*
X0005444645Y0001590432D02*
X0005419645Y0001590432D01*
G04 next file*
G04 Gerber Fmt 4.6, Leading zero omitted, Abs format (unit mm)*
G04 Created by KiCad (PCBNEW (5.1.6)-1) date 2020-09-18 13:03:01*
G01*
G04 APERTURE LIST*
G04 APERTURE END LIST*
D89*
X0002969645Y0003784173D02*
X0005494645Y0002034173D03*
G36*
G01*
X0005553700Y0002103267D02*
X0005553700Y0002115078D01*
G75*
G02*
X0005559606Y0002120984I0000005905D01*
G01*
X0005624566Y0002120984D01*
G75*
G02*
X0005630472Y0002115078J-0000005905D01*
G01*
X0005630472Y0002103267D01*
G75*
G02*
X0005624566Y0002097362I-0000005905D01*
G01*
X0005559606Y0002097362D01*
G75*
G02*
X0005553700Y0002103267J0000005905D01*
G01*
G37*
G36*
G01*
X0005553700Y0002053267D02*
X0005553700Y0002065078D01*
G75*
G02*
X0005559606Y0002070984I0000005905D01*
G01*
X0005624566Y0002070984D01*
G75*
G02*
X0005630472Y0002065078J-0000005905D01*
G01*
X0005630472Y0002053267D01*
G75*
G02*
X0005624566Y0002047362I-0000005905D01*
G01*
X0005559606Y0002047362D01*
G75*
G02*
X0005553700Y0002053267J0000005905D01*
G01*
G37*
G36*
G01*
X0005553700Y0002003267D02*
X0005553700Y0002015078D01*
G75*
G02*
X0005559606Y0002020984I0000005905D01*
G01*
X0005624566Y0002020984D01*
G75*
G02*
X0005630472Y0002015078J-0000005905D01*
G01*
X0005630472Y0002003267D01*
G75*
G02*
X0005624566Y0001997362I-0000005905D01*
G01*
X0005559606Y0001997362D01*
G75*
G02*
X0005553700Y0002003267J0000005905D01*
G01*
G37*
G36*
G01*
X0005553700Y0001953267D02*
X0005553700Y0001965078D01*
G75*
G02*
X0005559606Y0001970984I0000005905D01*
G01*
X0005624566Y0001970984D01*
G75*
G02*
X0005630472Y0001965078J-0000005905D01*
G01*
X0005630472Y0001953267D01*
G75*
G02*
X0005624566Y0001947362I-0000005905D01*
G01*
X0005559606Y0001947362D01*
G75*
G02*
X0005553700Y0001953267J0000005905D01*
G01*
G37*
G36*
G01*
X0005358818Y0001953267D02*
X0005358818Y0001965078D01*
G75*
G02*
X0005364724Y0001970984I0000005905D01*
G01*
X0005429685Y0001970984D01*
G75*
G02*
X0005435590Y0001965078J-0000005905D01*
G01*
X0005435590Y0001953267D01*
G75*
G02*
X0005429685Y0001947362I-0000005905D01*
G01*
X0005364724Y0001947362D01*
G75*
G02*
X0005358818Y0001953267J0000005905D01*
G01*
G37*
G36*
G01*
X0005358818Y0002003267D02*
X0005358818Y0002015078D01*
G75*
G02*
X0005364724Y0002020984I0000005905D01*
G01*
X0005429685Y0002020984D01*
G75*
G02*
X0005435590Y0002015078J-0000005905D01*
G01*
X0005435590Y0002003267D01*
G75*
G02*
X0005429685Y0001997362I-0000005905D01*
G01*
X0005364724Y0001997362D01*
G75*
G02*
X0005358818Y0002003267J0000005905D01*
G01*
G37*
G36*
G01*
X0005358818Y0002053267D02*
X0005358818Y0002065078D01*
G75*
G02*
X0005364724Y0002070984I0000005905D01*
G01*
X0005429685Y0002070984D01*
G75*
G02*
X0005435590Y0002065078J-0000005905D01*
G01*
X0005435590Y0002053267D01*
G75*
G02*
X0005429685Y0002047362I-0000005905D01*
G01*
X0005364724Y0002047362D01*
G75*
G02*
X0005358818Y0002053267J0000005905D01*
G01*
G37*
G36*
G01*
X0005358818Y0002103267D02*
X0005358818Y0002115078D01*
G75*
G02*
X0005364724Y0002120984I0000005905D01*
G01*
X0005429685Y0002120984D01*
G75*
G02*
X0005435590Y0002115078J-0000005905D01*
G01*
X0005435590Y0002103267D01*
G75*
G02*
X0005429685Y0002097362I-0000005905D01*
G01*
X0005364724Y0002097362D01*
G75*
G02*
X0005358818Y0002103267J0000005905D01*
G01*
G37*
D90*
X0005344645Y0002234173D03*
X0005644645Y0001834173D03*
X0005444645Y0002234173D03*
X0005544645Y0001834173D03*
X0005544645Y0002234173D03*
X0005444645Y0001834173D03*
X0005644645Y0002234173D03*
D91*
X0005344645Y0001834173D03*
D92*
X0005397204Y0002109173D02*
X0005319645Y0002109173D01*
X0005319645Y0002109173D02*
X0005294645Y0002084173D01*
X0005294645Y0001884173D02*
X0005344645Y0001834173D01*
X0005294645Y0002084173D02*
X0005294645Y0001884173D01*
X0005397204Y0002059173D02*
X0005344645Y0002059173D01*
X0005344645Y0002059173D02*
X0005319645Y0002034173D01*
X0005319645Y0002034173D02*
X0005319645Y0001909173D01*
X0005319645Y0001909173D02*
X0005344645Y0001884173D01*
X0005394645Y0001884173D02*
X0005444645Y0001834173D01*
X0005344645Y0001884173D02*
X0005394645Y0001884173D01*
X0005469645Y0001909173D02*
X0005544645Y0001834173D01*
X0005397204Y0002009173D02*
X0005369645Y0002009173D01*
X0005344645Y0001984173D02*
X0005344645Y0001934173D01*
X0005369645Y0002009173D02*
X0005344645Y0001984173D01*
X0005344645Y0001934173D02*
X0005369645Y0001909173D01*
X0005369645Y0001909173D02*
X0005469645Y0001909173D01*
X0005397204Y0001959173D02*
X0005469645Y0001959173D01*
X0005469645Y0001959173D02*
X0005519645Y0001909173D01*
X0005569645Y0001909173D02*
X0005644645Y0001834173D01*
X0005519645Y0001909173D02*
X0005569645Y0001909173D01*
X0005592086Y0001959173D02*
X0005669645Y0001959173D01*
X0005669645Y0001959173D02*
X0005694645Y0001984173D01*
X0005694645Y0002184173D02*
X0005644645Y0002234173D01*
X0005694645Y0001984173D02*
X0005694645Y0002184173D01*
X0005644645Y0002009173D02*
X0005669645Y0002034173D01*
X0005592086Y0002009173D02*
X0005644645Y0002009173D01*
X0005669645Y0002034173D02*
X0005669645Y0002159173D01*
X0005644645Y0002184173D02*
X0005594645Y0002184173D01*
X0005594645Y0002184173D02*
X0005544645Y0002234173D01*
X0005669645Y0002159173D02*
X0005644645Y0002184173D01*
X0005592086Y0002059173D02*
X0005619645Y0002059173D01*
X0005619645Y0002059173D02*
X0005644645Y0002084173D01*
X0005644645Y0002084173D02*
X0005644645Y0002134173D01*
X0005644645Y0002134173D02*
X0005619645Y0002159173D01*
X0005619645Y0002159173D02*
X0005519645Y0002159173D01*
X0005519645Y0002159173D02*
X0005444645Y0002234173D01*
X0005592086Y0002109173D02*
X0005494645Y0002109173D01*
X0005494645Y0002109173D02*
X0005444645Y0002159173D01*
X0005419645Y0002159173D02*
X0005344645Y0002234173D01*
X0005444645Y0002159173D02*
X0005419645Y0002159173D01*
G04 next file*
G04 Gerber Fmt 4.6, Leading zero omitted, Abs format (unit mm)*
G04 Created by KiCad (PCBNEW (5.1.6)-1) date 2020-09-18 16:39:39*
G01*
G04 APERTURE LIST*
G04 APERTURE END LIST*
D93*
X-0002600000Y0003500000D02*
X0000899999Y0000100000D03*
X0000799999Y0000100000D03*
X0000699999Y0000100000D03*
X0000599999Y0000100000D03*
X0000499999Y0000100000D03*
X0000399999Y0000100000D03*
X0000299999Y0000100000D03*
X0000199999Y0000100000D03*
X0000099999Y0000100000D03*
X0000899999Y0000200000D03*
X0000799999Y0000200000D03*
X0000699999Y0000200000D03*
X0000599999Y0000200000D03*
X0000499999Y0000200000D03*
X0000399999Y0000200000D03*
X0000299999Y0000200000D03*
X0000199999Y0000200000D03*
X0000099999Y0000200000D03*
X0000899999Y0000300000D03*
X0000799999Y0000300000D03*
X0000699999Y0000300000D03*
X0000599999Y0000300000D03*
X0000499999Y0000300000D03*
X0000399999Y0000300000D03*
X0000299999Y0000300000D03*
X0000199999Y0000300000D03*
X0000099999Y0000300000D03*
X0000899999Y0000400000D03*
X0000799999Y0000400000D03*
X0000699999Y0000400000D03*
X0000599999Y0000400000D03*
X0000499999Y0000400000D03*
X0000399999Y0000400000D03*
X0000299999Y0000400000D03*
X0000199999Y0000400000D03*
X0000099999Y0000400000D03*
X0000899999Y0000500000D03*
X0000799999Y0000500000D03*
X0000699999Y0000500000D03*
X0000599999Y0000500000D03*
X0000499999Y0000500000D03*
X0000399999Y0000500000D03*
X0000299999Y0000500000D03*
X0000199999Y0000500000D03*
X0000099999Y0000500000D03*
X0000899999Y0000600000D03*
X0000799999Y0000600000D03*
X0000699999Y0000600000D03*
X0000599999Y0000600000D03*
X0000499999Y0000600000D03*
X0000399999Y0000600000D03*
X0000299999Y0000600000D03*
X0000199999Y0000600000D03*
X0000099999Y0000600000D03*
X0000899999Y0000700000D03*
X0000799999Y0000700000D03*
X0000699999Y0000700000D03*
X0000599999Y0000700000D03*
X0000499999Y0000700000D03*
X0000399999Y0000700000D03*
X0000299999Y0000700000D03*
X0000199999Y0000700000D03*
X0000099999Y0000700000D03*
X0000899999Y0000800000D03*
X0000799999Y0000800000D03*
X0000699999Y0000800000D03*
X0000599999Y0000800000D03*
X0000499999Y0000800000D03*
X0000399999Y0000800000D03*
X0000299999Y0000800000D03*
X0000199999Y0000800000D03*
X0000099999Y0000800000D03*
X0000899999Y0000900000D03*
X0000799999Y0000900000D03*
X0000699999Y0000900000D03*
X0000599999Y0000900000D03*
X0000499999Y0000900000D03*
X0000399999Y0000900000D03*
X0000299999Y0000900000D03*
X0000199999Y0000900000D03*
X0000099999Y0000900000D03*
X0000899999Y0001000000D03*
X0000799999Y0001000000D03*
X0000699999Y0001000000D03*
X0000599999Y0001000000D03*
X0000499999Y0001000000D03*
X0000399999Y0001000000D03*
X0000299999Y0001000000D03*
X0000199999Y0001000000D03*
X0000099999Y0001000000D03*
X0000899999Y0001100000D03*
X0000799999Y0001100000D03*
X0000699999Y0001100000D03*
X0000599999Y0001100000D03*
X0000499999Y0001100000D03*
X0000399999Y0001100000D03*
X0000299999Y0001100000D03*
X0000199999Y0001100000D03*
X0000099999Y0001100000D03*
X0000899999Y0001200000D03*
X0000799999Y0001200000D03*
X0000699999Y0001200000D03*
X0000599999Y0001200000D03*
X0000499999Y0001200000D03*
X0000399999Y0001200000D03*
X0000299999Y0001200000D03*
X0000199999Y0001200000D03*
X0000099999Y0001200000D03*
X0000899999Y0001300000D03*
X0000799999Y0001300000D03*
X0000699999Y0001300000D03*
X0000599999Y0001300000D03*
X0000499999Y0001300000D03*
X0000399999Y0001300000D03*
X0000299999Y0001300000D03*
X0000199999Y0001300000D03*
X0000099999Y0001300000D03*
X0000899999Y0001400000D03*
X0000799999Y0001400000D03*
X0000699999Y0001400000D03*
X0000599999Y0001400000D03*
X0000499999Y0001400000D03*
X0000399999Y0001400000D03*
X0000299999Y0001400000D03*
X0000199999Y0001400000D03*
X0000099999Y0001400000D03*
X0000899999Y0001500000D03*
X0000799999Y0001500000D03*
X0000699999Y0001500000D03*
X0000599999Y0001500000D03*
X0000499999Y0001500000D03*
X0000399999Y0001500000D03*
X0000299999Y0001500000D03*
X0000199999Y0001500000D03*
X0000099999Y0001500000D03*
X0000899999Y0001600000D03*
X0000799999Y0001600000D03*
X0000699999Y0001600000D03*
X0000599999Y0001600000D03*
X0000499999Y0001600000D03*
X0000399999Y0001600000D03*
X0000299999Y0001600000D03*
X0000199999Y0001600000D03*
X0000099999Y0001600000D03*
X0000899999Y0001700000D03*
X0000799999Y0001700000D03*
X0000699999Y0001700000D03*
X0000599999Y0001700000D03*
X0000499999Y0001700000D03*
X0000399999Y0001700000D03*
X0000299999Y0001700000D03*
X0000199999Y0001700000D03*
X0000099999Y0001700000D03*
X0000899999Y0001800000D03*
X0000799999Y0001800000D03*
X0000699999Y0001800000D03*
X0000599999Y0001800000D03*
X0000499999Y0001800000D03*
X0000399999Y0001800000D03*
X0000299999Y0001800000D03*
X0000199999Y0001800000D03*
X0000099999Y0001800000D03*
X0000899999Y0001900000D03*
X0000799999Y0001900000D03*
X0000699999Y0001900000D03*
X0000599999Y0001900000D03*
X0000499999Y0001900000D03*
X0000399999Y0001900000D03*
X0000299999Y0001900000D03*
X0000199999Y0001900000D03*
X0000099999Y0001900000D03*
M02*