%MOIN*%
%OFA0B0*%
%FSLAX46Y46*%
%IPPOS*%
%LPD*%
%ADD26C,0.086740000000000012*%
%ADD27C,0.12611*%
%ADD29R,0.24422000000000002X0.63398401574803143*%
%ADD40C,0.086740000000000012*%
%ADD41C,0.12611*%
%ADD42R,0.24422000000000002X0.63398401574803143*%
%ADD43C,0.086740000000000012*%
%ADD44C,0.12611*%
%ADD45R,0.24422000000000002X0.63398401574803143*%
%ADD46C,0.086740000000000012*%
%ADD47C,0.12611*%
%ADD48R,0.24422000000000002X0.63398401574803143*%
%ADD49C,0.063937007874015753*%
%ADD50O,0.066929133858267723X0.066929133858267723*%
%ADD51R,0.066929133858267723X0.066929133858267723*%
%ADD52R,0.0940944881889764X0.12204724409448819*%
%ADD53O,0.066929133858267723X0.066929133858267723*%
%ADD54R,0.066929133858267723X0.066929133858267723*%
%ADD55R,0.0940944881889764X0.12204724409448819*%
%ADD56O,0.066929133858267723X0.066929133858267723*%
%ADD57R,0.066929133858267723X0.066929133858267723*%
%ADD58R,0.0940944881889764X0.12204724409448819*%
%ADD59O,0.066929133858267723X0.066929133858267723*%
%ADD60R,0.066929133858267723X0.066929133858267723*%
%ADD61R,0.0940944881889764X0.12204724409448819*%
%ADD62O,0.066929133858267723X0.066929133858267723*%
%ADD63R,0.066929133858267723X0.066929133858267723*%
%ADD64C,0.082677165354330714*%
G90*
G54D26*
G01X0002684881Y0001003228D02*
G01X0002724251Y0001003228D01*
G01X0002684881Y0000883228D02*
G01X0002724251Y0000883228D01*
G01X0002684881Y0000763228D02*
G01X0002724251Y0000763228D01*
G01X0002684881Y0000648228D02*
G01X0002724251Y0000648228D01*
G01X0002684881Y0000528228D02*
G01X0002724251Y0000528228D01*
G54D27*
G01X0003108110Y0000117086D02*
G01X0003108110Y0000077716D01*
G01X0003265551Y0000117086D02*
G01X0003265551Y0000077716D01*
G01X0003777362Y0000313937D02*
G01X0003777362Y0000274566D01*
G01X0003619881Y0000313937D02*
G01X0003619881Y0000274566D01*
G01X0003462401Y0000313937D02*
G01X0003462401Y0000274566D01*
G36*
G01X0002844251Y0000975196D02*
G01X0002844251Y0001008228D01*
G01X0002930944Y0001008228D01*
G01X0002930944Y0000975196D01*
G01X0002844251Y0000975196D01*
G37*
G36*
G01X0002844251Y0000925196D02*
G01X0002844251Y0000958228D01*
G01X0002930944Y0000958228D01*
G01X0002930944Y0000925196D01*
G01X0002844251Y0000925196D01*
G37*
G36*
G01X0002844251Y0000875196D02*
G01X0002844251Y0000908228D01*
G01X0002930944Y0000908228D01*
G01X0002930944Y0000875196D01*
G01X0002844251Y0000875196D01*
G37*
G36*
G01X0002844251Y0000825196D02*
G01X0002844251Y0000858228D01*
G01X0002930944Y0000858228D01*
G01X0002930944Y0000825196D01*
G01X0002844251Y0000825196D01*
G37*
G36*
G01X0002844251Y0000775196D02*
G01X0002844251Y0000808228D01*
G01X0002930944Y0000808228D01*
G01X0002930944Y0000775196D01*
G01X0002844251Y0000775196D01*
G37*
G36*
G01X0002844251Y0000725196D02*
G01X0002844251Y0000758228D01*
G01X0002930944Y0000758228D01*
G01X0002930944Y0000725196D01*
G01X0002844251Y0000725196D01*
G37*
G36*
G01X0002844251Y0000675196D02*
G01X0002844251Y0000708228D01*
G01X0002930944Y0000708228D01*
G01X0002930944Y0000675196D01*
G01X0002844251Y0000675196D01*
G37*
G36*
G01X0002844251Y0000625196D02*
G01X0002844251Y0000658228D01*
G01X0002930944Y0000658228D01*
G01X0002930944Y0000625196D01*
G01X0002844251Y0000625196D01*
G37*
G36*
G01X0002844251Y0000575196D02*
G01X0002844251Y0000608228D01*
G01X0002930944Y0000608228D01*
G01X0002930944Y0000575196D01*
G01X0002844251Y0000575196D01*
G37*
G36*
G01X0002844251Y0000525196D02*
G01X0002844251Y0000558228D01*
G01X0002930944Y0000558228D01*
G01X0002930944Y0000525196D01*
G01X0002844251Y0000525196D01*
G37*
G36*
G01X0003363976Y0000525196D02*
G01X0003363976Y0000558228D01*
G01X0003450669Y0000558228D01*
G01X0003450669Y0000525196D01*
G01X0003363976Y0000525196D01*
G37*
G36*
G01X0003363976Y0000575196D02*
G01X0003363976Y0000608228D01*
G01X0003450669Y0000608228D01*
G01X0003450669Y0000575196D01*
G01X0003363976Y0000575196D01*
G37*
G36*
G01X0003363976Y0000625196D02*
G01X0003363976Y0000658228D01*
G01X0003450669Y0000658228D01*
G01X0003450669Y0000625196D01*
G01X0003363976Y0000625196D01*
G37*
G36*
G01X0003363976Y0000675196D02*
G01X0003363976Y0000708228D01*
G01X0003450669Y0000708228D01*
G01X0003450669Y0000675196D01*
G01X0003363976Y0000675196D01*
G37*
G36*
G01X0003363976Y0000725196D02*
G01X0003363976Y0000758228D01*
G01X0003450669Y0000758228D01*
G01X0003450669Y0000725196D01*
G01X0003363976Y0000725196D01*
G37*
G36*
G01X0003363976Y0000775196D02*
G01X0003363976Y0000808228D01*
G01X0003450669Y0000808228D01*
G01X0003450669Y0000775196D01*
G01X0003363976Y0000775196D01*
G37*
G36*
G01X0003363976Y0000825196D02*
G01X0003363976Y0000858228D01*
G01X0003450669Y0000858228D01*
G01X0003450669Y0000825196D01*
G01X0003363976Y0000825196D01*
G37*
G36*
G01X0003363976Y0000875196D02*
G01X0003363976Y0000908228D01*
G01X0003450669Y0000908228D01*
G01X0003450669Y0000875196D01*
G01X0003363976Y0000875196D01*
G37*
G36*
G01X0003363976Y0000925196D02*
G01X0003363976Y0000958228D01*
G01X0003450669Y0000958228D01*
G01X0003450669Y0000925196D01*
G01X0003363976Y0000925196D01*
G37*
G36*
G01X0003363976Y0000975196D02*
G01X0003363976Y0001008228D01*
G01X0003450669Y0001008228D01*
G01X0003450669Y0000975196D01*
G01X0003363976Y0000975196D01*
G37*
G54D29*
G01X0003147480Y0000766692D03*
G36*
G01X0003712362Y0000739094D02*
G01X0003712362Y0000786417D01*
G01X0003763661Y0000786417D01*
G01X0003763661Y0000739094D01*
G01X0003712362Y0000739094D01*
G37*
G36*
G01X0003712362Y0000668228D02*
G01X0003712362Y0000715629D01*
G01X0003763661Y0000715629D01*
G01X0003763661Y0000668228D01*
G01X0003712362Y0000668228D01*
G37*
G36*
G01X0002619842Y0000152519D02*
G01X0002619842Y0000199803D01*
G01X0002745944Y0000199803D01*
G01X0002745944Y0000152519D01*
G01X0002619842Y0000152519D01*
G37*
G36*
G01X0002840354Y0000152519D02*
G01X0002840354Y0000199803D01*
G01X0002966456Y0000199803D01*
G01X0002966456Y0000152519D01*
G01X0002840354Y0000152519D01*
G37*
G36*
G01X0003505866Y0000494015D02*
G01X0003505866Y0000567007D01*
G01X0003563858Y0000567007D01*
G01X0003563858Y0000494015D01*
G01X0003505866Y0000494015D01*
G37*
G36*
G01X0003672874Y0000494015D02*
G01X0003672874Y0000567007D01*
G01X0003730866Y0000567007D01*
G01X0003730866Y0000494015D01*
G01X0003672874Y0000494015D01*
G37*
G36*
G01X0003715275Y0000887716D02*
G01X0003715275Y0000960708D01*
G01X0003773267Y0000960708D01*
G01X0003773267Y0000887716D01*
G01X0003715275Y0000887716D01*
G37*
G36*
G01X0003548267Y0000887716D02*
G01X0003548267Y0000960708D01*
G01X0003606259Y0000960708D01*
G01X0003606259Y0000887716D01*
G01X0003548267Y0000887716D01*
G37*
G36*
G01X0003556062Y0000762125D02*
G01X0003556062Y0000817322D01*
G01X0003638858Y0000817322D01*
G01X0003638858Y0000762125D01*
G01X0003556062Y0000762125D01*
G37*
G36*
G01X0003556062Y0000636102D02*
G01X0003556062Y0000691299D01*
G01X0003638858Y0000691299D01*
G01X0003638858Y0000636102D01*
G01X0003556062Y0000636102D01*
G37*
G36*
G01X0003438779Y0001047125D02*
G01X0003438779Y0001116220D01*
G01X0003486062Y0001116220D01*
G01X0003486062Y0001047125D01*
G01X0003438779Y0001047125D01*
G37*
G36*
G01X0003517480Y0001047125D02*
G01X0003517480Y0001116220D01*
G01X0003564842Y0001116220D01*
G01X0003564842Y0001047125D01*
G01X0003517480Y0001047125D01*
G37*
G36*
G01X0002730078Y0000377913D02*
G01X0002730078Y0000446929D01*
G01X0002777480Y0000446929D01*
G01X0002777480Y0000377913D01*
G01X0002730078Y0000377913D01*
G37*
G36*
G01X0002808858Y0000377913D02*
G01X0002808858Y0000446929D01*
G01X0002856141Y0000446929D01*
G01X0002856141Y0000377913D01*
G01X0002808858Y0000377913D01*
G37*
G04 next file*
G04 Layer: TopSolderMaskLayer*
G04 EasyEDA v6.3.53, 2020-06-26T16:53:54--4:00*
G04 395d111042f2402990e7a52cfaf045f1,10*
G04 Gerber Generator version 0.2*
G04 Scale: 100 percent, Rotated: No, Reflected: No *
G04 Dimensions in millimeters *
G04 leading zeros omitted , absolute positions ,3 integer and 3 decimal *
G90*
G04 skipping 71
D40*
G01X0002684881Y0002223661D02*
G01X0002724251Y0002223661D01*
G01X0002684881Y0002103661D02*
G01X0002724251Y0002103661D01*
G01X0002684881Y0001983661D02*
G01X0002724251Y0001983661D01*
G01X0002684881Y0001868661D02*
G01X0002724251Y0001868661D01*
G01X0002684881Y0001748661D02*
G01X0002724251Y0001748661D01*
D41*
G01X0003108110Y0001337519D02*
G01X0003108110Y0001298149D01*
G01X0003265551Y0001337519D02*
G01X0003265551Y0001298149D01*
G01X0003777362Y0001534370D02*
G01X0003777362Y0001495000D01*
G01X0003619881Y0001534370D02*
G01X0003619881Y0001495000D01*
G01X0003462401Y0001534370D02*
G01X0003462401Y0001495000D01*
G36*
G01X0002844251Y0002195629D02*
G01X0002844251Y0002228661D01*
G01X0002930944Y0002228661D01*
G01X0002930944Y0002195629D01*
G01X0002844251Y0002195629D01*
G37*
G36*
G01X0002844251Y0002145629D02*
G01X0002844251Y0002178661D01*
G01X0002930944Y0002178661D01*
G01X0002930944Y0002145629D01*
G01X0002844251Y0002145629D01*
G37*
G36*
G01X0002844251Y0002095629D02*
G01X0002844251Y0002128661D01*
G01X0002930944Y0002128661D01*
G01X0002930944Y0002095629D01*
G01X0002844251Y0002095629D01*
G37*
G36*
G01X0002844251Y0002045629D02*
G01X0002844251Y0002078661D01*
G01X0002930944Y0002078661D01*
G01X0002930944Y0002045629D01*
G01X0002844251Y0002045629D01*
G37*
G36*
G01X0002844251Y0001995629D02*
G01X0002844251Y0002028661D01*
G01X0002930944Y0002028661D01*
G01X0002930944Y0001995629D01*
G01X0002844251Y0001995629D01*
G37*
G36*
G01X0002844251Y0001945629D02*
G01X0002844251Y0001978661D01*
G01X0002930944Y0001978661D01*
G01X0002930944Y0001945629D01*
G01X0002844251Y0001945629D01*
G37*
G36*
G01X0002844251Y0001895629D02*
G01X0002844251Y0001928661D01*
G01X0002930944Y0001928661D01*
G01X0002930944Y0001895629D01*
G01X0002844251Y0001895629D01*
G37*
G36*
G01X0002844251Y0001845629D02*
G01X0002844251Y0001878661D01*
G01X0002930944Y0001878661D01*
G01X0002930944Y0001845629D01*
G01X0002844251Y0001845629D01*
G37*
G36*
G01X0002844251Y0001795629D02*
G01X0002844251Y0001828661D01*
G01X0002930944Y0001828661D01*
G01X0002930944Y0001795629D01*
G01X0002844251Y0001795629D01*
G37*
G36*
G01X0002844251Y0001745629D02*
G01X0002844251Y0001778661D01*
G01X0002930944Y0001778661D01*
G01X0002930944Y0001745629D01*
G01X0002844251Y0001745629D01*
G37*
G36*
G01X0003363976Y0001745629D02*
G01X0003363976Y0001778661D01*
G01X0003450669Y0001778661D01*
G01X0003450669Y0001745629D01*
G01X0003363976Y0001745629D01*
G37*
G36*
G01X0003363976Y0001795629D02*
G01X0003363976Y0001828661D01*
G01X0003450669Y0001828661D01*
G01X0003450669Y0001795629D01*
G01X0003363976Y0001795629D01*
G37*
G36*
G01X0003363976Y0001845629D02*
G01X0003363976Y0001878661D01*
G01X0003450669Y0001878661D01*
G01X0003450669Y0001845629D01*
G01X0003363976Y0001845629D01*
G37*
G36*
G01X0003363976Y0001895629D02*
G01X0003363976Y0001928661D01*
G01X0003450669Y0001928661D01*
G01X0003450669Y0001895629D01*
G01X0003363976Y0001895629D01*
G37*
G36*
G01X0003363976Y0001945629D02*
G01X0003363976Y0001978661D01*
G01X0003450669Y0001978661D01*
G01X0003450669Y0001945629D01*
G01X0003363976Y0001945629D01*
G37*
G36*
G01X0003363976Y0001995629D02*
G01X0003363976Y0002028661D01*
G01X0003450669Y0002028661D01*
G01X0003450669Y0001995629D01*
G01X0003363976Y0001995629D01*
G37*
G36*
G01X0003363976Y0002045629D02*
G01X0003363976Y0002078661D01*
G01X0003450669Y0002078661D01*
G01X0003450669Y0002045629D01*
G01X0003363976Y0002045629D01*
G37*
G36*
G01X0003363976Y0002095629D02*
G01X0003363976Y0002128661D01*
G01X0003450669Y0002128661D01*
G01X0003450669Y0002095629D01*
G01X0003363976Y0002095629D01*
G37*
G36*
G01X0003363976Y0002145629D02*
G01X0003363976Y0002178661D01*
G01X0003450669Y0002178661D01*
G01X0003450669Y0002145629D01*
G01X0003363976Y0002145629D01*
G37*
G36*
G01X0003363976Y0002195629D02*
G01X0003363976Y0002228661D01*
G01X0003450669Y0002228661D01*
G01X0003450669Y0002195629D01*
G01X0003363976Y0002195629D01*
G37*
D42*
G01X0003147480Y0001987125D03*
G36*
G01X0003712362Y0001959527D02*
G01X0003712362Y0002006850D01*
G01X0003763661Y0002006850D01*
G01X0003763661Y0001959527D01*
G01X0003712362Y0001959527D01*
G37*
G36*
G01X0003712362Y0001888661D02*
G01X0003712362Y0001936062D01*
G01X0003763661Y0001936062D01*
G01X0003763661Y0001888661D01*
G01X0003712362Y0001888661D01*
G37*
G36*
G01X0002619842Y0001372952D02*
G01X0002619842Y0001420236D01*
G01X0002745944Y0001420236D01*
G01X0002745944Y0001372952D01*
G01X0002619842Y0001372952D01*
G37*
G36*
G01X0002840354Y0001372952D02*
G01X0002840354Y0001420236D01*
G01X0002966456Y0001420236D01*
G01X0002966456Y0001372952D01*
G01X0002840354Y0001372952D01*
G37*
G36*
G01X0003505866Y0001714448D02*
G01X0003505866Y0001787440D01*
G01X0003563858Y0001787440D01*
G01X0003563858Y0001714448D01*
G01X0003505866Y0001714448D01*
G37*
G36*
G01X0003672874Y0001714448D02*
G01X0003672874Y0001787440D01*
G01X0003730866Y0001787440D01*
G01X0003730866Y0001714448D01*
G01X0003672874Y0001714448D01*
G37*
G36*
G01X0003715275Y0002108149D02*
G01X0003715275Y0002181141D01*
G01X0003773267Y0002181141D01*
G01X0003773267Y0002108149D01*
G01X0003715275Y0002108149D01*
G37*
G36*
G01X0003548267Y0002108149D02*
G01X0003548267Y0002181141D01*
G01X0003606259Y0002181141D01*
G01X0003606259Y0002108149D01*
G01X0003548267Y0002108149D01*
G37*
G36*
G01X0003556062Y0001982559D02*
G01X0003556062Y0002037755D01*
G01X0003638858Y0002037755D01*
G01X0003638858Y0001982559D01*
G01X0003556062Y0001982559D01*
G37*
G36*
G01X0003556062Y0001856535D02*
G01X0003556062Y0001911732D01*
G01X0003638858Y0001911732D01*
G01X0003638858Y0001856535D01*
G01X0003556062Y0001856535D01*
G37*
G36*
G01X0003438779Y0002267559D02*
G01X0003438779Y0002336653D01*
G01X0003486062Y0002336653D01*
G01X0003486062Y0002267559D01*
G01X0003438779Y0002267559D01*
G37*
G36*
G01X0003517480Y0002267559D02*
G01X0003517480Y0002336653D01*
G01X0003564842Y0002336653D01*
G01X0003564842Y0002267559D01*
G01X0003517480Y0002267559D01*
G37*
G36*
G01X0002730078Y0001598346D02*
G01X0002730078Y0001667362D01*
G01X0002777480Y0001667362D01*
G01X0002777480Y0001598346D01*
G01X0002730078Y0001598346D01*
G37*
G36*
G01X0002808858Y0001598346D02*
G01X0002808858Y0001667362D01*
G01X0002856141Y0001667362D01*
G01X0002856141Y0001598346D01*
G01X0002808858Y0001598346D01*
G37*
G04 next file*
G04 Layer: TopSolderMaskLayer*
G04 EasyEDA v6.3.53, 2020-06-26T16:53:54--4:00*
G04 395d111042f2402990e7a52cfaf045f1,10*
G04 Gerber Generator version 0.2*
G04 Scale: 100 percent, Rotated: No, Reflected: No *
G04 Dimensions in millimeters *
G04 leading zeros omitted , absolute positions ,3 integer and 3 decimal *
G90*
G04 skipping 71
D43*
G01X0004023464Y0001003228D02*
G01X0004062834Y0001003228D01*
G01X0004023464Y0000883228D02*
G01X0004062834Y0000883228D01*
G01X0004023464Y0000763228D02*
G01X0004062834Y0000763228D01*
G01X0004023464Y0000648228D02*
G01X0004062834Y0000648228D01*
G01X0004023464Y0000528228D02*
G01X0004062834Y0000528228D01*
D44*
G01X0004446692Y0000117086D02*
G01X0004446692Y0000077716D01*
G01X0004604133Y0000117086D02*
G01X0004604133Y0000077716D01*
G01X0005115944Y0000313937D02*
G01X0005115944Y0000274566D01*
G01X0004958464Y0000313937D02*
G01X0004958464Y0000274566D01*
G01X0004800984Y0000313937D02*
G01X0004800984Y0000274566D01*
G36*
G01X0004182834Y0000975196D02*
G01X0004182834Y0001008228D01*
G01X0004269527Y0001008228D01*
G01X0004269527Y0000975196D01*
G01X0004182834Y0000975196D01*
G37*
G36*
G01X0004182834Y0000925196D02*
G01X0004182834Y0000958228D01*
G01X0004269527Y0000958228D01*
G01X0004269527Y0000925196D01*
G01X0004182834Y0000925196D01*
G37*
G36*
G01X0004182834Y0000875196D02*
G01X0004182834Y0000908228D01*
G01X0004269527Y0000908228D01*
G01X0004269527Y0000875196D01*
G01X0004182834Y0000875196D01*
G37*
G36*
G01X0004182834Y0000825196D02*
G01X0004182834Y0000858228D01*
G01X0004269527Y0000858228D01*
G01X0004269527Y0000825196D01*
G01X0004182834Y0000825196D01*
G37*
G36*
G01X0004182834Y0000775196D02*
G01X0004182834Y0000808228D01*
G01X0004269527Y0000808228D01*
G01X0004269527Y0000775196D01*
G01X0004182834Y0000775196D01*
G37*
G36*
G01X0004182834Y0000725196D02*
G01X0004182834Y0000758228D01*
G01X0004269527Y0000758228D01*
G01X0004269527Y0000725196D01*
G01X0004182834Y0000725196D01*
G37*
G36*
G01X0004182834Y0000675196D02*
G01X0004182834Y0000708228D01*
G01X0004269527Y0000708228D01*
G01X0004269527Y0000675196D01*
G01X0004182834Y0000675196D01*
G37*
G36*
G01X0004182834Y0000625196D02*
G01X0004182834Y0000658228D01*
G01X0004269527Y0000658228D01*
G01X0004269527Y0000625196D01*
G01X0004182834Y0000625196D01*
G37*
G36*
G01X0004182834Y0000575196D02*
G01X0004182834Y0000608228D01*
G01X0004269527Y0000608228D01*
G01X0004269527Y0000575196D01*
G01X0004182834Y0000575196D01*
G37*
G36*
G01X0004182834Y0000525196D02*
G01X0004182834Y0000558228D01*
G01X0004269527Y0000558228D01*
G01X0004269527Y0000525196D01*
G01X0004182834Y0000525196D01*
G37*
G36*
G01X0004702559Y0000525196D02*
G01X0004702559Y0000558228D01*
G01X0004789251Y0000558228D01*
G01X0004789251Y0000525196D01*
G01X0004702559Y0000525196D01*
G37*
G36*
G01X0004702559Y0000575196D02*
G01X0004702559Y0000608228D01*
G01X0004789251Y0000608228D01*
G01X0004789251Y0000575196D01*
G01X0004702559Y0000575196D01*
G37*
G36*
G01X0004702559Y0000625196D02*
G01X0004702559Y0000658228D01*
G01X0004789251Y0000658228D01*
G01X0004789251Y0000625196D01*
G01X0004702559Y0000625196D01*
G37*
G36*
G01X0004702559Y0000675196D02*
G01X0004702559Y0000708228D01*
G01X0004789251Y0000708228D01*
G01X0004789251Y0000675196D01*
G01X0004702559Y0000675196D01*
G37*
G36*
G01X0004702559Y0000725196D02*
G01X0004702559Y0000758228D01*
G01X0004789251Y0000758228D01*
G01X0004789251Y0000725196D01*
G01X0004702559Y0000725196D01*
G37*
G36*
G01X0004702559Y0000775196D02*
G01X0004702559Y0000808228D01*
G01X0004789251Y0000808228D01*
G01X0004789251Y0000775196D01*
G01X0004702559Y0000775196D01*
G37*
G36*
G01X0004702559Y0000825196D02*
G01X0004702559Y0000858228D01*
G01X0004789251Y0000858228D01*
G01X0004789251Y0000825196D01*
G01X0004702559Y0000825196D01*
G37*
G36*
G01X0004702559Y0000875196D02*
G01X0004702559Y0000908228D01*
G01X0004789251Y0000908228D01*
G01X0004789251Y0000875196D01*
G01X0004702559Y0000875196D01*
G37*
G36*
G01X0004702559Y0000925196D02*
G01X0004702559Y0000958228D01*
G01X0004789251Y0000958228D01*
G01X0004789251Y0000925196D01*
G01X0004702559Y0000925196D01*
G37*
G36*
G01X0004702559Y0000975196D02*
G01X0004702559Y0001008228D01*
G01X0004789251Y0001008228D01*
G01X0004789251Y0000975196D01*
G01X0004702559Y0000975196D01*
G37*
D45*
G01X0004486062Y0000766692D03*
G36*
G01X0005050944Y0000739094D02*
G01X0005050944Y0000786417D01*
G01X0005102244Y0000786417D01*
G01X0005102244Y0000739094D01*
G01X0005050944Y0000739094D01*
G37*
G36*
G01X0005050944Y0000668228D02*
G01X0005050944Y0000715629D01*
G01X0005102244Y0000715629D01*
G01X0005102244Y0000668228D01*
G01X0005050944Y0000668228D01*
G37*
G36*
G01X0003958425Y0000152519D02*
G01X0003958425Y0000199803D01*
G01X0004084527Y0000199803D01*
G01X0004084527Y0000152519D01*
G01X0003958425Y0000152519D01*
G37*
G36*
G01X0004178937Y0000152519D02*
G01X0004178937Y0000199803D01*
G01X0004305039Y0000199803D01*
G01X0004305039Y0000152519D01*
G01X0004178937Y0000152519D01*
G37*
G36*
G01X0004844448Y0000494015D02*
G01X0004844448Y0000567007D01*
G01X0004902440Y0000567007D01*
G01X0004902440Y0000494015D01*
G01X0004844448Y0000494015D01*
G37*
G36*
G01X0005011456Y0000494015D02*
G01X0005011456Y0000567007D01*
G01X0005069448Y0000567007D01*
G01X0005069448Y0000494015D01*
G01X0005011456Y0000494015D01*
G37*
G36*
G01X0005053858Y0000887716D02*
G01X0005053858Y0000960708D01*
G01X0005111850Y0000960708D01*
G01X0005111850Y0000887716D01*
G01X0005053858Y0000887716D01*
G37*
G36*
G01X0004886850Y0000887716D02*
G01X0004886850Y0000960708D01*
G01X0004944842Y0000960708D01*
G01X0004944842Y0000887716D01*
G01X0004886850Y0000887716D01*
G37*
G36*
G01X0004894645Y0000762125D02*
G01X0004894645Y0000817322D01*
G01X0004977440Y0000817322D01*
G01X0004977440Y0000762125D01*
G01X0004894645Y0000762125D01*
G37*
G36*
G01X0004894645Y0000636102D02*
G01X0004894645Y0000691299D01*
G01X0004977440Y0000691299D01*
G01X0004977440Y0000636102D01*
G01X0004894645Y0000636102D01*
G37*
G36*
G01X0004777362Y0001047125D02*
G01X0004777362Y0001116220D01*
G01X0004824645Y0001116220D01*
G01X0004824645Y0001047125D01*
G01X0004777362Y0001047125D01*
G37*
G36*
G01X0004856062Y0001047125D02*
G01X0004856062Y0001116220D01*
G01X0004903425Y0001116220D01*
G01X0004903425Y0001047125D01*
G01X0004856062Y0001047125D01*
G37*
G36*
G01X0004068661Y0000377913D02*
G01X0004068661Y0000446929D01*
G01X0004116062Y0000446929D01*
G01X0004116062Y0000377913D01*
G01X0004068661Y0000377913D01*
G37*
G36*
G01X0004147440Y0000377913D02*
G01X0004147440Y0000446929D01*
G01X0004194724Y0000446929D01*
G01X0004194724Y0000377913D01*
G01X0004147440Y0000377913D01*
G37*
G04 next file*
G04 Layer: TopSolderMaskLayer*
G04 EasyEDA v6.3.53, 2020-06-26T16:53:54--4:00*
G04 395d111042f2402990e7a52cfaf045f1,10*
G04 Gerber Generator version 0.2*
G04 Scale: 100 percent, Rotated: No, Reflected: No *
G04 Dimensions in millimeters *
G04 leading zeros omitted , absolute positions ,3 integer and 3 decimal *
G90*
G04 skipping 71
D46*
G01X0004023464Y0002223661D02*
G01X0004062834Y0002223661D01*
G01X0004023464Y0002103661D02*
G01X0004062834Y0002103661D01*
G01X0004023464Y0001983661D02*
G01X0004062834Y0001983661D01*
G01X0004023464Y0001868661D02*
G01X0004062834Y0001868661D01*
G01X0004023464Y0001748661D02*
G01X0004062834Y0001748661D01*
D47*
G01X0004446692Y0001337519D02*
G01X0004446692Y0001298149D01*
G01X0004604133Y0001337519D02*
G01X0004604133Y0001298149D01*
G01X0005115944Y0001534370D02*
G01X0005115944Y0001495000D01*
G01X0004958464Y0001534370D02*
G01X0004958464Y0001495000D01*
G01X0004800984Y0001534370D02*
G01X0004800984Y0001495000D01*
G36*
G01X0004182834Y0002195629D02*
G01X0004182834Y0002228661D01*
G01X0004269527Y0002228661D01*
G01X0004269527Y0002195629D01*
G01X0004182834Y0002195629D01*
G37*
G36*
G01X0004182834Y0002145629D02*
G01X0004182834Y0002178661D01*
G01X0004269527Y0002178661D01*
G01X0004269527Y0002145629D01*
G01X0004182834Y0002145629D01*
G37*
G36*
G01X0004182834Y0002095629D02*
G01X0004182834Y0002128661D01*
G01X0004269527Y0002128661D01*
G01X0004269527Y0002095629D01*
G01X0004182834Y0002095629D01*
G37*
G36*
G01X0004182834Y0002045629D02*
G01X0004182834Y0002078661D01*
G01X0004269527Y0002078661D01*
G01X0004269527Y0002045629D01*
G01X0004182834Y0002045629D01*
G37*
G36*
G01X0004182834Y0001995629D02*
G01X0004182834Y0002028661D01*
G01X0004269527Y0002028661D01*
G01X0004269527Y0001995629D01*
G01X0004182834Y0001995629D01*
G37*
G36*
G01X0004182834Y0001945629D02*
G01X0004182834Y0001978661D01*
G01X0004269527Y0001978661D01*
G01X0004269527Y0001945629D01*
G01X0004182834Y0001945629D01*
G37*
G36*
G01X0004182834Y0001895629D02*
G01X0004182834Y0001928661D01*
G01X0004269527Y0001928661D01*
G01X0004269527Y0001895629D01*
G01X0004182834Y0001895629D01*
G37*
G36*
G01X0004182834Y0001845629D02*
G01X0004182834Y0001878661D01*
G01X0004269527Y0001878661D01*
G01X0004269527Y0001845629D01*
G01X0004182834Y0001845629D01*
G37*
G36*
G01X0004182834Y0001795629D02*
G01X0004182834Y0001828661D01*
G01X0004269527Y0001828661D01*
G01X0004269527Y0001795629D01*
G01X0004182834Y0001795629D01*
G37*
G36*
G01X0004182834Y0001745629D02*
G01X0004182834Y0001778661D01*
G01X0004269527Y0001778661D01*
G01X0004269527Y0001745629D01*
G01X0004182834Y0001745629D01*
G37*
G36*
G01X0004702559Y0001745629D02*
G01X0004702559Y0001778661D01*
G01X0004789251Y0001778661D01*
G01X0004789251Y0001745629D01*
G01X0004702559Y0001745629D01*
G37*
G36*
G01X0004702559Y0001795629D02*
G01X0004702559Y0001828661D01*
G01X0004789251Y0001828661D01*
G01X0004789251Y0001795629D01*
G01X0004702559Y0001795629D01*
G37*
G36*
G01X0004702559Y0001845629D02*
G01X0004702559Y0001878661D01*
G01X0004789251Y0001878661D01*
G01X0004789251Y0001845629D01*
G01X0004702559Y0001845629D01*
G37*
G36*
G01X0004702559Y0001895629D02*
G01X0004702559Y0001928661D01*
G01X0004789251Y0001928661D01*
G01X0004789251Y0001895629D01*
G01X0004702559Y0001895629D01*
G37*
G36*
G01X0004702559Y0001945629D02*
G01X0004702559Y0001978661D01*
G01X0004789251Y0001978661D01*
G01X0004789251Y0001945629D01*
G01X0004702559Y0001945629D01*
G37*
G36*
G01X0004702559Y0001995629D02*
G01X0004702559Y0002028661D01*
G01X0004789251Y0002028661D01*
G01X0004789251Y0001995629D01*
G01X0004702559Y0001995629D01*
G37*
G36*
G01X0004702559Y0002045629D02*
G01X0004702559Y0002078661D01*
G01X0004789251Y0002078661D01*
G01X0004789251Y0002045629D01*
G01X0004702559Y0002045629D01*
G37*
G36*
G01X0004702559Y0002095629D02*
G01X0004702559Y0002128661D01*
G01X0004789251Y0002128661D01*
G01X0004789251Y0002095629D01*
G01X0004702559Y0002095629D01*
G37*
G36*
G01X0004702559Y0002145629D02*
G01X0004702559Y0002178661D01*
G01X0004789251Y0002178661D01*
G01X0004789251Y0002145629D01*
G01X0004702559Y0002145629D01*
G37*
G36*
G01X0004702559Y0002195629D02*
G01X0004702559Y0002228661D01*
G01X0004789251Y0002228661D01*
G01X0004789251Y0002195629D01*
G01X0004702559Y0002195629D01*
G37*
D48*
G01X0004486062Y0001987125D03*
G36*
G01X0005050944Y0001959527D02*
G01X0005050944Y0002006850D01*
G01X0005102244Y0002006850D01*
G01X0005102244Y0001959527D01*
G01X0005050944Y0001959527D01*
G37*
G36*
G01X0005050944Y0001888661D02*
G01X0005050944Y0001936062D01*
G01X0005102244Y0001936062D01*
G01X0005102244Y0001888661D01*
G01X0005050944Y0001888661D01*
G37*
G36*
G01X0003958425Y0001372952D02*
G01X0003958425Y0001420236D01*
G01X0004084527Y0001420236D01*
G01X0004084527Y0001372952D01*
G01X0003958425Y0001372952D01*
G37*
G36*
G01X0004178937Y0001372952D02*
G01X0004178937Y0001420236D01*
G01X0004305039Y0001420236D01*
G01X0004305039Y0001372952D01*
G01X0004178937Y0001372952D01*
G37*
G36*
G01X0004844448Y0001714448D02*
G01X0004844448Y0001787440D01*
G01X0004902440Y0001787440D01*
G01X0004902440Y0001714448D01*
G01X0004844448Y0001714448D01*
G37*
G36*
G01X0005011456Y0001714448D02*
G01X0005011456Y0001787440D01*
G01X0005069448Y0001787440D01*
G01X0005069448Y0001714448D01*
G01X0005011456Y0001714448D01*
G37*
G36*
G01X0005053858Y0002108149D02*
G01X0005053858Y0002181141D01*
G01X0005111850Y0002181141D01*
G01X0005111850Y0002108149D01*
G01X0005053858Y0002108149D01*
G37*
G36*
G01X0004886850Y0002108149D02*
G01X0004886850Y0002181141D01*
G01X0004944842Y0002181141D01*
G01X0004944842Y0002108149D01*
G01X0004886850Y0002108149D01*
G37*
G36*
G01X0004894645Y0001982559D02*
G01X0004894645Y0002037755D01*
G01X0004977440Y0002037755D01*
G01X0004977440Y0001982559D01*
G01X0004894645Y0001982559D01*
G37*
G36*
G01X0004894645Y0001856535D02*
G01X0004894645Y0001911732D01*
G01X0004977440Y0001911732D01*
G01X0004977440Y0001856535D01*
G01X0004894645Y0001856535D01*
G37*
G36*
G01X0004777362Y0002267559D02*
G01X0004777362Y0002336653D01*
G01X0004824645Y0002336653D01*
G01X0004824645Y0002267559D01*
G01X0004777362Y0002267559D01*
G37*
G36*
G01X0004856062Y0002267559D02*
G01X0004856062Y0002336653D01*
G01X0004903425Y0002336653D01*
G01X0004903425Y0002267559D01*
G01X0004856062Y0002267559D01*
G37*
G36*
G01X0004068661Y0001598346D02*
G01X0004068661Y0001667362D01*
G01X0004116062Y0001667362D01*
G01X0004116062Y0001598346D01*
G01X0004068661Y0001598346D01*
G37*
G36*
G01X0004147440Y0001598346D02*
G01X0004147440Y0001667362D01*
G01X0004194724Y0001667362D01*
G01X0004194724Y0001598346D01*
G01X0004147440Y0001598346D01*
G37*
G04 next file*
G04 Gerber Fmt 4.6, Leading zero omitted, Abs format (unit mm)*
G04 Created by KiCad (PCBNEW (5.1.6)-1) date 2020-09-18 20:45:58*
G01*
G04 APERTURE LIST*
G04 APERTURE END LIST*
D49*
X-0003771259Y0004750000D02*
X0001134240Y0001812000D03*
X0001243240Y0001812000D03*
X0001352240Y0001812000D03*
X0001461240Y0001812000D03*
X0001570240Y0001812000D03*
X0001679240Y0001812000D03*
X0001788240Y0001812000D03*
X0001897240Y0001812000D03*
X0002006240Y0001812000D03*
X0002115240Y0001812000D03*
X0002224240Y0001812000D03*
X0002333240Y0001812000D03*
X0002442240Y0001812000D03*
X0001188740Y0001700000D03*
X0001297740Y0001700000D03*
X0001406740Y0001700000D03*
X0001515740Y0001700000D03*
X0001624740Y0001700000D03*
X0001733740Y0001700000D03*
X0001842740Y0001700000D03*
X0001951740Y0001700000D03*
X0002060740Y0001700000D03*
X0002169740Y0001700000D03*
X0002278740Y0001700000D03*
X0002387740Y0001700000D03*
D50*
X0002178740Y0000100000D03*
X0001578740Y0000100000D03*
X0002178740Y0001500000D03*
X0001578740Y0000200000D03*
X0002178740Y0001400000D03*
X0001578740Y0000300000D03*
X0002178740Y0001300000D03*
X0001578740Y0000400000D03*
X0002178740Y0001200000D03*
X0001578740Y0000500000D03*
X0002178740Y0001100000D03*
X0001578740Y0000600000D03*
X0002178740Y0001000000D03*
X0001578740Y0000700000D03*
X0002178740Y0000900000D03*
X0001578740Y0000800000D03*
X0002178740Y0000800000D03*
X0001578740Y0000900000D03*
X0002178740Y0000700000D03*
X0001578740Y0001000000D03*
X0002178740Y0000600000D03*
X0001578740Y0001100000D03*
X0002178740Y0000500000D03*
X0001578740Y0001200000D03*
X0002178740Y0000400000D03*
X0001578740Y0001300000D03*
X0002178740Y0000300000D03*
X0001578740Y0001400000D03*
X0002178740Y0000200000D03*
D51*
X0001578740Y0001500000D03*
G04 next file*
G04 Gerber Fmt 4.6, Leading zero omitted, Abs format (unit mm)*
G04 Created by KiCad (PCBNEW (5.1.6)-1) date 2020-09-18 13:03:01*
G01*
G04 APERTURE LIST*
G04 APERTURE END LIST*
D52*
X0002969645Y0001995000D02*
X0005494645Y0000245000D03*
G36*
G01*
X0005551732Y0000313110D02*
X0005551732Y0000326889D01*
G75*
G02*
X0005558622Y0000333779I0000006889D01*
G01*
X0005625551Y0000333779D01*
G75*
G02*
X0005632440Y0000326889J-0000006889D01*
G01*
X0005632440Y0000313110D01*
G75*
G02*
X0005625551Y0000306220I-0000006889D01*
G01*
X0005558622Y0000306220D01*
G75*
G02*
X0005551732Y0000313110J0000006889D01*
G01*
G37*
G36*
G01*
X0005551732Y0000263110D02*
X0005551732Y0000276889D01*
G75*
G02*
X0005558622Y0000283779I0000006889D01*
G01*
X0005625551Y0000283779D01*
G75*
G02*
X0005632440Y0000276889J-0000006889D01*
G01*
X0005632440Y0000263110D01*
G75*
G02*
X0005625551Y0000256220I-0000006889D01*
G01*
X0005558622Y0000256220D01*
G75*
G02*
X0005551732Y0000263110J0000006889D01*
G01*
G37*
G36*
G01*
X0005551732Y0000213110D02*
X0005551732Y0000226889D01*
G75*
G02*
X0005558622Y0000233779I0000006889D01*
G01*
X0005625551Y0000233779D01*
G75*
G02*
X0005632440Y0000226889J-0000006889D01*
G01*
X0005632440Y0000213110D01*
G75*
G02*
X0005625551Y0000206220I-0000006889D01*
G01*
X0005558622Y0000206220D01*
G75*
G02*
X0005551732Y0000213110J0000006889D01*
G01*
G37*
G36*
G01*
X0005551732Y0000163110D02*
X0005551732Y0000176889D01*
G75*
G02*
X0005558622Y0000183779I0000006889D01*
G01*
X0005625551Y0000183779D01*
G75*
G02*
X0005632440Y0000176889J-0000006889D01*
G01*
X0005632440Y0000163110D01*
G75*
G02*
X0005625551Y0000156220I-0000006889D01*
G01*
X0005558622Y0000156220D01*
G75*
G02*
X0005551732Y0000163110J0000006889D01*
G01*
G37*
G36*
G01*
X0005356850Y0000163110D02*
X0005356850Y0000176889D01*
G75*
G02*
X0005363740Y0000183779I0000006889D01*
G01*
X0005430669Y0000183779D01*
G75*
G02*
X0005437559Y0000176889J-0000006889D01*
G01*
X0005437559Y0000163110D01*
G75*
G02*
X0005430669Y0000156220I-0000006889D01*
G01*
X0005363740Y0000156220D01*
G75*
G02*
X0005356850Y0000163110J0000006889D01*
G01*
G37*
G36*
G01*
X0005356850Y0000213110D02*
X0005356850Y0000226889D01*
G75*
G02*
X0005363740Y0000233779I0000006889D01*
G01*
X0005430669Y0000233779D01*
G75*
G02*
X0005437559Y0000226889J-0000006889D01*
G01*
X0005437559Y0000213110D01*
G75*
G02*
X0005430669Y0000206220I-0000006889D01*
G01*
X0005363740Y0000206220D01*
G75*
G02*
X0005356850Y0000213110J0000006889D01*
G01*
G37*
G36*
G01*
X0005356850Y0000263110D02*
X0005356850Y0000276889D01*
G75*
G02*
X0005363740Y0000283779I0000006889D01*
G01*
X0005430669Y0000283779D01*
G75*
G02*
X0005437559Y0000276889J-0000006889D01*
G01*
X0005437559Y0000263110D01*
G75*
G02*
X0005430669Y0000256220I-0000006889D01*
G01*
X0005363740Y0000256220D01*
G75*
G02*
X0005356850Y0000263110J0000006889D01*
G01*
G37*
G36*
G01*
X0005356850Y0000313110D02*
X0005356850Y0000326889D01*
G75*
G02*
X0005363740Y0000333779I0000006889D01*
G01*
X0005430669Y0000333779D01*
G75*
G02*
X0005437559Y0000326889J-0000006889D01*
G01*
X0005437559Y0000313110D01*
G75*
G02*
X0005430669Y0000306220I-0000006889D01*
G01*
X0005363740Y0000306220D01*
G75*
G02*
X0005356850Y0000313110J0000006889D01*
G01*
G37*
D53*
X0005344645Y0000445000D03*
X0005644645Y0000045000D03*
X0005444645Y0000445000D03*
X0005544645Y0000045000D03*
X0005544645Y0000445000D03*
X0005444645Y0000045000D03*
X0005644645Y0000445000D03*
D54*
X0005344645Y0000045000D03*
G04 next file*
G04 Gerber Fmt 4.6, Leading zero omitted, Abs format (unit mm)*
G04 Created by KiCad (PCBNEW (5.1.6)-1) date 2020-09-18 13:03:01*
G01*
G04 APERTURE LIST*
G04 APERTURE END LIST*
D55*
X0002969645Y0002563740D02*
X0005494645Y0000813740D03*
G36*
G01*
X0005551732Y0000881850D02*
X0005551732Y0000895630D01*
G75*
G02*
X0005558622Y0000902519I0000006889D01*
G01*
X0005625551Y0000902519D01*
G75*
G02*
X0005632440Y0000895630J-0000006889D01*
G01*
X0005632440Y0000881850D01*
G75*
G02*
X0005625551Y0000874960I-0000006889D01*
G01*
X0005558622Y0000874960D01*
G75*
G02*
X0005551732Y0000881850J0000006889D01*
G01*
G37*
G36*
G01*
X0005551732Y0000831850D02*
X0005551732Y0000845630D01*
G75*
G02*
X0005558622Y0000852519I0000006889D01*
G01*
X0005625551Y0000852519D01*
G75*
G02*
X0005632440Y0000845630J-0000006889D01*
G01*
X0005632440Y0000831850D01*
G75*
G02*
X0005625551Y0000824960I-0000006889D01*
G01*
X0005558622Y0000824960D01*
G75*
G02*
X0005551732Y0000831850J0000006889D01*
G01*
G37*
G36*
G01*
X0005551732Y0000781850D02*
X0005551732Y0000795630D01*
G75*
G02*
X0005558622Y0000802519I0000006889D01*
G01*
X0005625551Y0000802519D01*
G75*
G02*
X0005632440Y0000795630J-0000006889D01*
G01*
X0005632440Y0000781850D01*
G75*
G02*
X0005625551Y0000774960I-0000006889D01*
G01*
X0005558622Y0000774960D01*
G75*
G02*
X0005551732Y0000781850J0000006889D01*
G01*
G37*
G36*
G01*
X0005551732Y0000731850D02*
X0005551732Y0000745630D01*
G75*
G02*
X0005558622Y0000752519I0000006889D01*
G01*
X0005625551Y0000752519D01*
G75*
G02*
X0005632440Y0000745630J-0000006889D01*
G01*
X0005632440Y0000731850D01*
G75*
G02*
X0005625551Y0000724960I-0000006889D01*
G01*
X0005558622Y0000724960D01*
G75*
G02*
X0005551732Y0000731850J0000006889D01*
G01*
G37*
G36*
G01*
X0005356850Y0000731850D02*
X0005356850Y0000745630D01*
G75*
G02*
X0005363740Y0000752519I0000006889D01*
G01*
X0005430669Y0000752519D01*
G75*
G02*
X0005437559Y0000745630J-0000006889D01*
G01*
X0005437559Y0000731850D01*
G75*
G02*
X0005430669Y0000724960I-0000006889D01*
G01*
X0005363740Y0000724960D01*
G75*
G02*
X0005356850Y0000731850J0000006889D01*
G01*
G37*
G36*
G01*
X0005356850Y0000781850D02*
X0005356850Y0000795630D01*
G75*
G02*
X0005363740Y0000802519I0000006889D01*
G01*
X0005430669Y0000802519D01*
G75*
G02*
X0005437559Y0000795630J-0000006889D01*
G01*
X0005437559Y0000781850D01*
G75*
G02*
X0005430669Y0000774960I-0000006889D01*
G01*
X0005363740Y0000774960D01*
G75*
G02*
X0005356850Y0000781850J0000006889D01*
G01*
G37*
G36*
G01*
X0005356850Y0000831850D02*
X0005356850Y0000845630D01*
G75*
G02*
X0005363740Y0000852519I0000006889D01*
G01*
X0005430669Y0000852519D01*
G75*
G02*
X0005437559Y0000845630J-0000006889D01*
G01*
X0005437559Y0000831850D01*
G75*
G02*
X0005430669Y0000824960I-0000006889D01*
G01*
X0005363740Y0000824960D01*
G75*
G02*
X0005356850Y0000831850J0000006889D01*
G01*
G37*
G36*
G01*
X0005356850Y0000881850D02*
X0005356850Y0000895630D01*
G75*
G02*
X0005363740Y0000902519I0000006889D01*
G01*
X0005430669Y0000902519D01*
G75*
G02*
X0005437559Y0000895630J-0000006889D01*
G01*
X0005437559Y0000881850D01*
G75*
G02*
X0005430669Y0000874960I-0000006889D01*
G01*
X0005363740Y0000874960D01*
G75*
G02*
X0005356850Y0000881850J0000006889D01*
G01*
G37*
D56*
X0005344645Y0001013740D03*
X0005644645Y0000613740D03*
X0005444645Y0001013740D03*
X0005544645Y0000613740D03*
X0005544645Y0001013740D03*
X0005444645Y0000613740D03*
X0005644645Y0001013740D03*
D57*
X0005344645Y0000613740D03*
G04 next file*
G04 Gerber Fmt 4.6, Leading zero omitted, Abs format (unit mm)*
G04 Created by KiCad (PCBNEW (5.1.6)-1) date 2020-09-18 13:03:01*
G01*
G04 APERTURE LIST*
G04 APERTURE END LIST*
D58*
X0002969645Y0003215432D02*
X0005494645Y0001465432D03*
G36*
G01*
X0005551732Y0001533543D02*
X0005551732Y0001547322D01*
G75*
G02*
X0005558622Y0001554212I0000006889D01*
G01*
X0005625551Y0001554212D01*
G75*
G02*
X0005632440Y0001547322J-0000006889D01*
G01*
X0005632440Y0001533543D01*
G75*
G02*
X0005625551Y0001526653I-0000006889D01*
G01*
X0005558622Y0001526653D01*
G75*
G02*
X0005551732Y0001533543J0000006889D01*
G01*
G37*
G36*
G01*
X0005551732Y0001483543D02*
X0005551732Y0001497322D01*
G75*
G02*
X0005558622Y0001504212I0000006889D01*
G01*
X0005625551Y0001504212D01*
G75*
G02*
X0005632440Y0001497322J-0000006889D01*
G01*
X0005632440Y0001483543D01*
G75*
G02*
X0005625551Y0001476653I-0000006889D01*
G01*
X0005558622Y0001476653D01*
G75*
G02*
X0005551732Y0001483543J0000006889D01*
G01*
G37*
G36*
G01*
X0005551732Y0001433543D02*
X0005551732Y0001447322D01*
G75*
G02*
X0005558622Y0001454212I0000006889D01*
G01*
X0005625551Y0001454212D01*
G75*
G02*
X0005632440Y0001447322J-0000006889D01*
G01*
X0005632440Y0001433543D01*
G75*
G02*
X0005625551Y0001426653I-0000006889D01*
G01*
X0005558622Y0001426653D01*
G75*
G02*
X0005551732Y0001433543J0000006889D01*
G01*
G37*
G36*
G01*
X0005551732Y0001383543D02*
X0005551732Y0001397322D01*
G75*
G02*
X0005558622Y0001404212I0000006889D01*
G01*
X0005625551Y0001404212D01*
G75*
G02*
X0005632440Y0001397322J-0000006889D01*
G01*
X0005632440Y0001383543D01*
G75*
G02*
X0005625551Y0001376653I-0000006889D01*
G01*
X0005558622Y0001376653D01*
G75*
G02*
X0005551732Y0001383543J0000006889D01*
G01*
G37*
G36*
G01*
X0005356850Y0001383543D02*
X0005356850Y0001397322D01*
G75*
G02*
X0005363740Y0001404212I0000006889D01*
G01*
X0005430669Y0001404212D01*
G75*
G02*
X0005437559Y0001397322J-0000006889D01*
G01*
X0005437559Y0001383543D01*
G75*
G02*
X0005430669Y0001376653I-0000006889D01*
G01*
X0005363740Y0001376653D01*
G75*
G02*
X0005356850Y0001383543J0000006889D01*
G01*
G37*
G36*
G01*
X0005356850Y0001433543D02*
X0005356850Y0001447322D01*
G75*
G02*
X0005363740Y0001454212I0000006889D01*
G01*
X0005430669Y0001454212D01*
G75*
G02*
X0005437559Y0001447322J-0000006889D01*
G01*
X0005437559Y0001433543D01*
G75*
G02*
X0005430669Y0001426653I-0000006889D01*
G01*
X0005363740Y0001426653D01*
G75*
G02*
X0005356850Y0001433543J0000006889D01*
G01*
G37*
G36*
G01*
X0005356850Y0001483543D02*
X0005356850Y0001497322D01*
G75*
G02*
X0005363740Y0001504212I0000006889D01*
G01*
X0005430669Y0001504212D01*
G75*
G02*
X0005437559Y0001497322J-0000006889D01*
G01*
X0005437559Y0001483543D01*
G75*
G02*
X0005430669Y0001476653I-0000006889D01*
G01*
X0005363740Y0001476653D01*
G75*
G02*
X0005356850Y0001483543J0000006889D01*
G01*
G37*
G36*
G01*
X0005356850Y0001533543D02*
X0005356850Y0001547322D01*
G75*
G02*
X0005363740Y0001554212I0000006889D01*
G01*
X0005430669Y0001554212D01*
G75*
G02*
X0005437559Y0001547322J-0000006889D01*
G01*
X0005437559Y0001533543D01*
G75*
G02*
X0005430669Y0001526653I-0000006889D01*
G01*
X0005363740Y0001526653D01*
G75*
G02*
X0005356850Y0001533543J0000006889D01*
G01*
G37*
D59*
X0005344645Y0001665432D03*
X0005644645Y0001265432D03*
X0005444645Y0001665432D03*
X0005544645Y0001265432D03*
X0005544645Y0001665432D03*
X0005444645Y0001265432D03*
X0005644645Y0001665432D03*
D60*
X0005344645Y0001265432D03*
G04 next file*
G04 Gerber Fmt 4.6, Leading zero omitted, Abs format (unit mm)*
G04 Created by KiCad (PCBNEW (5.1.6)-1) date 2020-09-18 13:03:01*
G01*
G04 APERTURE LIST*
G04 APERTURE END LIST*
D61*
X0002969645Y0003784173D02*
X0005494645Y0002034173D03*
G36*
G01*
X0005551732Y0002102283D02*
X0005551732Y0002116062D01*
G75*
G02*
X0005558622Y0002122952I0000006889D01*
G01*
X0005625551Y0002122952D01*
G75*
G02*
X0005632440Y0002116062J-0000006889D01*
G01*
X0005632440Y0002102283D01*
G75*
G02*
X0005625551Y0002095393I-0000006889D01*
G01*
X0005558622Y0002095393D01*
G75*
G02*
X0005551732Y0002102283J0000006889D01*
G01*
G37*
G36*
G01*
X0005551732Y0002052283D02*
X0005551732Y0002066062D01*
G75*
G02*
X0005558622Y0002072952I0000006889D01*
G01*
X0005625551Y0002072952D01*
G75*
G02*
X0005632440Y0002066062J-0000006889D01*
G01*
X0005632440Y0002052283D01*
G75*
G02*
X0005625551Y0002045393I-0000006889D01*
G01*
X0005558622Y0002045393D01*
G75*
G02*
X0005551732Y0002052283J0000006889D01*
G01*
G37*
G36*
G01*
X0005551732Y0002002283D02*
X0005551732Y0002016062D01*
G75*
G02*
X0005558622Y0002022952I0000006889D01*
G01*
X0005625551Y0002022952D01*
G75*
G02*
X0005632440Y0002016062J-0000006889D01*
G01*
X0005632440Y0002002283D01*
G75*
G02*
X0005625551Y0001995393I-0000006889D01*
G01*
X0005558622Y0001995393D01*
G75*
G02*
X0005551732Y0002002283J0000006889D01*
G01*
G37*
G36*
G01*
X0005551732Y0001952283D02*
X0005551732Y0001966062D01*
G75*
G02*
X0005558622Y0001972952I0000006889D01*
G01*
X0005625551Y0001972952D01*
G75*
G02*
X0005632440Y0001966062J-0000006889D01*
G01*
X0005632440Y0001952283D01*
G75*
G02*
X0005625551Y0001945393I-0000006889D01*
G01*
X0005558622Y0001945393D01*
G75*
G02*
X0005551732Y0001952283J0000006889D01*
G01*
G37*
G36*
G01*
X0005356850Y0001952283D02*
X0005356850Y0001966062D01*
G75*
G02*
X0005363740Y0001972952I0000006889D01*
G01*
X0005430669Y0001972952D01*
G75*
G02*
X0005437559Y0001966062J-0000006889D01*
G01*
X0005437559Y0001952283D01*
G75*
G02*
X0005430669Y0001945393I-0000006889D01*
G01*
X0005363740Y0001945393D01*
G75*
G02*
X0005356850Y0001952283J0000006889D01*
G01*
G37*
G36*
G01*
X0005356850Y0002002283D02*
X0005356850Y0002016062D01*
G75*
G02*
X0005363740Y0002022952I0000006889D01*
G01*
X0005430669Y0002022952D01*
G75*
G02*
X0005437559Y0002016062J-0000006889D01*
G01*
X0005437559Y0002002283D01*
G75*
G02*
X0005430669Y0001995393I-0000006889D01*
G01*
X0005363740Y0001995393D01*
G75*
G02*
X0005356850Y0002002283J0000006889D01*
G01*
G37*
G36*
G01*
X0005356850Y0002052283D02*
X0005356850Y0002066062D01*
G75*
G02*
X0005363740Y0002072952I0000006889D01*
G01*
X0005430669Y0002072952D01*
G75*
G02*
X0005437559Y0002066062J-0000006889D01*
G01*
X0005437559Y0002052283D01*
G75*
G02*
X0005430669Y0002045393I-0000006889D01*
G01*
X0005363740Y0002045393D01*
G75*
G02*
X0005356850Y0002052283J0000006889D01*
G01*
G37*
G36*
G01*
X0005356850Y0002102283D02*
X0005356850Y0002116062D01*
G75*
G02*
X0005363740Y0002122952I0000006889D01*
G01*
X0005430669Y0002122952D01*
G75*
G02*
X0005437559Y0002116062J-0000006889D01*
G01*
X0005437559Y0002102283D01*
G75*
G02*
X0005430669Y0002095393I-0000006889D01*
G01*
X0005363740Y0002095393D01*
G75*
G02*
X0005356850Y0002102283J0000006889D01*
G01*
G37*
D62*
X0005344645Y0002234173D03*
X0005644645Y0001834173D03*
X0005444645Y0002234173D03*
X0005544645Y0001834173D03*
X0005544645Y0002234173D03*
X0005444645Y0001834173D03*
X0005644645Y0002234173D03*
D63*
X0005344645Y0001834173D03*
G04 next file*
G04 Gerber Fmt 4.6, Leading zero omitted, Abs format (unit mm)*
G04 Created by KiCad (PCBNEW (5.1.6)-1) date 2020-09-18 16:39:39*
G01*
G04 APERTURE LIST*
G04 APERTURE END LIST*
D64*
X-0002600000Y0003500000D02*
X0000899999Y0000100000D03*
X0000799999Y0000100000D03*
X0000699999Y0000100000D03*
X0000599999Y0000100000D03*
X0000499999Y0000100000D03*
X0000399999Y0000100000D03*
X0000299999Y0000100000D03*
X0000199999Y0000100000D03*
X0000099999Y0000100000D03*
X0000899999Y0000200000D03*
X0000799999Y0000200000D03*
X0000699999Y0000200000D03*
X0000599999Y0000200000D03*
X0000499999Y0000200000D03*
X0000399999Y0000200000D03*
X0000299999Y0000200000D03*
X0000199999Y0000200000D03*
X0000099999Y0000200000D03*
X0000899999Y0000300000D03*
X0000799999Y0000300000D03*
X0000699999Y0000300000D03*
X0000599999Y0000300000D03*
X0000499999Y0000300000D03*
X0000399999Y0000300000D03*
X0000299999Y0000300000D03*
X0000199999Y0000300000D03*
X0000099999Y0000300000D03*
X0000899999Y0000400000D03*
X0000799999Y0000400000D03*
X0000699999Y0000400000D03*
X0000599999Y0000400000D03*
X0000499999Y0000400000D03*
X0000399999Y0000400000D03*
X0000299999Y0000400000D03*
X0000199999Y0000400000D03*
X0000099999Y0000400000D03*
X0000899999Y0000500000D03*
X0000799999Y0000500000D03*
X0000699999Y0000500000D03*
X0000599999Y0000500000D03*
X0000499999Y0000500000D03*
X0000399999Y0000500000D03*
X0000299999Y0000500000D03*
X0000199999Y0000500000D03*
X0000099999Y0000500000D03*
X0000899999Y0000600000D03*
X0000799999Y0000600000D03*
X0000699999Y0000600000D03*
X0000599999Y0000600000D03*
X0000499999Y0000600000D03*
X0000399999Y0000600000D03*
X0000299999Y0000600000D03*
X0000199999Y0000600000D03*
X0000099999Y0000600000D03*
X0000899999Y0000700000D03*
X0000799999Y0000700000D03*
X0000699999Y0000700000D03*
X0000599999Y0000700000D03*
X0000499999Y0000700000D03*
X0000399999Y0000700000D03*
X0000299999Y0000700000D03*
X0000199999Y0000700000D03*
X0000099999Y0000700000D03*
X0000899999Y0000800000D03*
X0000799999Y0000800000D03*
X0000699999Y0000800000D03*
X0000599999Y0000800000D03*
X0000499999Y0000800000D03*
X0000399999Y0000800000D03*
X0000299999Y0000800000D03*
X0000199999Y0000800000D03*
X0000099999Y0000800000D03*
X0000899999Y0000900000D03*
X0000799999Y0000900000D03*
X0000699999Y0000900000D03*
X0000599999Y0000900000D03*
X0000499999Y0000900000D03*
X0000399999Y0000900000D03*
X0000299999Y0000900000D03*
X0000199999Y0000900000D03*
X0000099999Y0000900000D03*
X0000899999Y0001000000D03*
X0000799999Y0001000000D03*
X0000699999Y0001000000D03*
X0000599999Y0001000000D03*
X0000499999Y0001000000D03*
X0000399999Y0001000000D03*
X0000299999Y0001000000D03*
X0000199999Y0001000000D03*
X0000099999Y0001000000D03*
X0000899999Y0001100000D03*
X0000799999Y0001100000D03*
X0000699999Y0001100000D03*
X0000599999Y0001100000D03*
X0000499999Y0001100000D03*
X0000399999Y0001100000D03*
X0000299999Y0001100000D03*
X0000199999Y0001100000D03*
X0000099999Y0001100000D03*
X0000899999Y0001200000D03*
X0000799999Y0001200000D03*
X0000699999Y0001200000D03*
X0000599999Y0001200000D03*
X0000499999Y0001200000D03*
X0000399999Y0001200000D03*
X0000299999Y0001200000D03*
X0000199999Y0001200000D03*
X0000099999Y0001200000D03*
X0000899999Y0001300000D03*
X0000799999Y0001300000D03*
X0000699999Y0001300000D03*
X0000599999Y0001300000D03*
X0000499999Y0001300000D03*
X0000399999Y0001300000D03*
X0000299999Y0001300000D03*
X0000199999Y0001300000D03*
X0000099999Y0001300000D03*
X0000899999Y0001400000D03*
X0000799999Y0001400000D03*
X0000699999Y0001400000D03*
X0000599999Y0001400000D03*
X0000499999Y0001400000D03*
X0000399999Y0001400000D03*
X0000299999Y0001400000D03*
X0000199999Y0001400000D03*
X0000099999Y0001400000D03*
X0000899999Y0001500000D03*
X0000799999Y0001500000D03*
X0000699999Y0001500000D03*
X0000599999Y0001500000D03*
X0000499999Y0001500000D03*
X0000399999Y0001500000D03*
X0000299999Y0001500000D03*
X0000199999Y0001500000D03*
X0000099999Y0001500000D03*
X0000899999Y0001600000D03*
X0000799999Y0001600000D03*
X0000699999Y0001600000D03*
X0000599999Y0001600000D03*
X0000499999Y0001600000D03*
X0000399999Y0001600000D03*
X0000299999Y0001600000D03*
X0000199999Y0001600000D03*
X0000099999Y0001600000D03*
X0000899999Y0001700000D03*
X0000799999Y0001700000D03*
X0000699999Y0001700000D03*
X0000599999Y0001700000D03*
X0000499999Y0001700000D03*
X0000399999Y0001700000D03*
X0000299999Y0001700000D03*
X0000199999Y0001700000D03*
X0000099999Y0001700000D03*
X0000899999Y0001800000D03*
X0000799999Y0001800000D03*
X0000699999Y0001800000D03*
X0000599999Y0001800000D03*
X0000499999Y0001800000D03*
X0000399999Y0001800000D03*
X0000299999Y0001800000D03*
X0000199999Y0001800000D03*
X0000099999Y0001800000D03*
X0000899999Y0001900000D03*
X0000799999Y0001900000D03*
X0000699999Y0001900000D03*
X0000599999Y0001900000D03*
X0000499999Y0001900000D03*
X0000399999Y0001900000D03*
X0000299999Y0001900000D03*
X0000199999Y0001900000D03*
X0000099999Y0001900000D03*
M02*