%
M48
METRIC,000.000
T01C0.31
T02C1.20
T03C1.64
T10C0.76
T11C1.00
T12C0.80
%
T01
X084825Y017608
X071818Y021379
X084825Y016338
X088945Y018474
X093027Y016807
X088229Y024000
X070946Y012475
X071617Y014941
X084825Y048607
X071818Y052378
X084825Y047337
X088945Y049473
X093027Y047806
X088229Y054999
X070946Y043474
X071617Y045940
X118825Y017608
X105818Y021379
X118825Y016338
X122945Y018474
X127027Y016807
X122229Y024000
X104946Y012475
X105617Y014941
X118825Y048607
X105818Y052378
X118825Y047337
X122945Y049473
X127027Y047806
X122229Y054999
X104946Y043474
X105617Y045940
T02
X068696Y025483
X068696Y022435
X068696Y019387
X068696Y016466
X068696Y013418
X068696Y056482
X068696Y053434
X068696Y050386
X068696Y047465
X068696Y044417
X102696Y025483
X102696Y022435
X102696Y019387
X102696Y016466
X102696Y013418
X102696Y056482
X102696Y053434
X102696Y050386
X102696Y047465
X102696Y044417
T03
X078946Y002474
X082946Y002474
X095946Y007474
X091946Y007474
X087946Y007474
X078946Y033473
X082946Y033473
X095946Y038473
X091946Y038473
X087946Y038473
X112946Y002474
X116946Y002474
X129946Y007474
X125946Y007474
X121946Y007474
X112946Y033473
X116946Y033473
X129946Y038473
X125946Y038473
X121946Y038473
T10
X028809Y046025
X030193Y043180
X031577Y046025
X032962Y043180
X034346Y046025
X035730Y043180
X037114Y046025
X038499Y043180
X039883Y046025
X041267Y043180
X042652Y046025
X044036Y043180
X045420Y046025
X046805Y043180
X048189Y046025
X049573Y043180
X050958Y046025
X052342Y043180
X053726Y046025
X055110Y043180
X056495Y046025
X057879Y043180
X059263Y046025
X060648Y043180
X062032Y046025
T11
X040099Y038100
X040099Y035560
X040099Y033020
X040099Y030480
X040099Y027940
X040099Y025400
X040099Y022860
X040099Y020320
X040099Y017780
X040099Y015240
X040099Y012700
X040099Y010160
X040099Y007620
X040099Y005080
X040099Y002540
X055339Y038100
X055339Y035560
X055339Y033020
X055339Y030480
X055339Y027940
X055339Y025400
X055339Y022860
X055339Y020320
X055339Y017780
X055339Y015240
X055339Y012700
X055339Y010160
X055339Y007620
X055339Y005080
X055339Y002540
X017779Y015240
X010159Y048260
X017779Y022860
X007619Y012700
X012699Y027940
X022859Y025400
X022859Y033020
X010159Y033020
X017779Y005080
X005079Y033020
X007619Y005080
X012699Y038100
X015239Y038100
X022859Y007620
X017779Y038100
X007619Y010160
X010159Y043180
X010159Y010160
X007619Y033020
X002539Y012700
X012699Y043180
X022859Y020320
X010159Y020320
X022859Y048260
X007619Y017780
X007619Y048260
X015239Y017780
X007619Y015240
X002539Y027940
X020319Y025400
X020319Y033020
X007619Y030480
X010159Y005080
X002539Y033020
X015239Y035560
X007619Y038100
X020319Y007620
X012699Y040640
X010159Y007620
X015239Y043180
X017779Y012700
X002539Y040640
X022859Y015240
X020319Y040640
X002539Y020320
X022859Y022860
X015239Y048260
X005079Y020320
X005079Y048260
X010159Y017780
X012699Y015240
X022859Y027940
X005079Y027940
X017779Y002540
X017779Y025400
X020319Y005080
X022859Y030480
X022859Y005080
X005079Y030480
X022859Y035560
X012699Y035560
X005079Y035560
X017779Y007620
X017779Y045720
X007619Y007620
X007619Y043180
X005079Y010160
X015239Y015240
X002539Y038100
X012699Y022860
X010159Y015240
X007619Y020320
X005079Y017780
X020319Y022860
X012699Y025400
X017779Y027940
X015239Y025400
X012699Y002540
X020319Y030480
X022859Y002540
X002539Y030480
X002539Y048260
X007619Y002540
X020319Y035560
X010159Y035560
X022859Y010160
X022859Y040640
X012699Y007620
X005079Y007620
X007619Y040640
X022859Y012700
X022859Y045720
X022859Y017780
X010159Y040640
X020319Y020320
X002539Y015240
X020319Y048260
X015239Y020320
X007619Y022860
X005079Y015240
X010159Y025400
X007619Y025400
X015239Y005080
X010159Y027940
X017779Y030480
X020319Y002540
X017779Y033020
X017779Y035560
X012699Y005080
X007619Y035560
X002539Y010160
X022859Y038100
X012699Y010160
X005079Y038100
X002539Y007620
X017779Y043180
X020319Y012700
X020319Y045720
X020319Y017780
X005079Y043180
X010159Y022860
X002539Y045720
X017779Y017780
X005079Y022860
X010159Y012700
X020319Y027940
X005079Y025400
X002539Y025400
X015239Y030480
X005079Y002540
X015239Y033020
X015239Y002540
X002539Y035560
X002539Y022860
X005079Y040640
X005079Y005080
X010159Y038100
X015239Y007620
X017779Y040640
X020319Y010160
X012699Y012700
X012699Y045720
X012699Y017780
X015239Y040640
X017779Y020320
X005079Y045720
X020319Y015240
X017779Y048260
X015239Y022860
X015239Y012700
X015239Y027940
X007619Y027940
X010159Y030480
X012699Y030480
X010159Y002540
X012699Y033020
X002539Y002540
X020319Y038100
X010159Y045720
X002539Y005080
X022859Y043180
X015239Y010160
X020319Y043180
X017779Y010160
X015239Y045720
X005079Y012700
X002539Y043180
X002539Y017780
X007619Y045720
X012699Y020320
X012699Y048260
T12
X135754Y011303
X135754Y001143
X138294Y011303
X138294Y001143
X140834Y011303
X140834Y001143
X143374Y011303
X143374Y001143
X135754Y025749
X135754Y015589
X138294Y025749
X138294Y015589
X140834Y025749
X140834Y015589
X143374Y025749
X143374Y015589
X135754Y042301
X135754Y032141
X138294Y042301
X138294Y032141
X140834Y042301
X140834Y032141
X143374Y042301
X143374Y032141
X135754Y056747
X135754Y046587
X138294Y056747
X138294Y046587
X140834Y056747
X140834Y046587
X143374Y056747
X143374Y046587
M30