<?xml version="1.0" encoding="utf-8" ?>
<svg baseProfile="full" height="499.99999999999994" version="1.1" width="551.743163557364" xmlns="http://www.w3.org/2000/svg" xmlns:ev="http://www.w3.org/2001/xml-events" xmlns:xlink="http://www.w3.org/1999/xlink"><defs /><rect fill="#f0e6aa" height="499.99999999999994" width="551.743163557364" x="0" y="0" /><path d="M0.0,499.99999999999994L551.743163557364,499.99999999999994L551.743163557364,0.0L0.0,0.0L0.0,499.99999999999994 z" fill="green" stroke="none" /><circle cx="462.0331735577089" cy="289.7858546846443" fill="darkgreen" r="5.172583537363357" /><circle cx="462.0331735577089" cy="331.0976240560019" fill="darkgreen" r="5.172583537363357" /><circle cx="379.32342494568775" cy="413.80737266802305" fill="darkgreen" r="5.172583537363357" /><circle cx="391.66867823028383" cy="318.5282251112107" fill="darkgreen" r="5.172583537363357" /><circle cx="391.66867823028383" cy="301.2862512500431" fill="darkgreen" r="5.172583537363357" /><circle cx="512.3624952584572" cy="180.59243422186972" fill="darkgreen" r="5.172583537363357" /><circle cx="512.345253284596" cy="128.86651263836683" fill="darkgreen" r="5.172583537363357" /><path d="M462.0331735577089,289.7858546846443L462.0331735577089,331.0976240560019L379.32342494568775,413.80737266802305M391.66867823028383,318.5282251112107L391.66867823028383,301.2862512500431L512.3624952584572,180.59243422186972L512.345253284596,128.86651263836683" fill="none" stroke="darkgreen" stroke-width="10.345167074726714" /><circle cx="320.614503948412" cy="303.5966757474396" fill="darkgreen" r="2.1897306803682883" /><circle cx="286.8892030759681" cy="334.25290527259557" fill="darkgreen" r="2.1897306803682883" /><circle cx="42.518707541639365" cy="334.25290527259557" fill="darkgreen" r="2.1897306803682883" /><circle cx="96.34814993620469" cy="368.6161591779027" fill="darkgreen" r="2.1897306803682883" /><circle cx="78.15786751267285" cy="386.8064416014345" fill="darkgreen" r="2.1897306803682883" /><circle cx="42.518707541639365" cy="386.8064416014345" fill="darkgreen" r="2.1897306803682883" /><circle cx="320.614503948412" cy="281.69936894375667" fill="darkgreen" r="2.1897306803682883" /><circle cx="319.9248249939653" cy="281.02693196317114" fill="darkgreen" r="2.1897306803682883" /><circle cx="88.27890616917824" cy="281.02693196317114" fill="darkgreen" r="2.1897306803682883" /><circle cx="85.41673850822441" cy="283.889099624125" fill="darkgreen" r="2.1897306803682883" /><circle cx="42.518707541639365" cy="283.889099624125" fill="darkgreen" r="2.1897306803682883" /><path d="M320.614503948412,303.5966757474396L286.8892030759681,334.25290527259557L42.518707541639365,334.25290527259557M96.34814993620469,368.6161591779027L78.15786751267285,386.8064416014345L42.518707541639365,386.8064416014345M320.614503948412,281.69936894375667L319.9248249939653,281.02693196317114L88.27890616917824,281.02693196317114L85.41673850822441,283.889099624125L42.518707541639365,283.889099624125" fill="none" stroke="darkgreen" stroke-width="4.379461360736577" /><circle cx="92.88251319010999" cy="257.6123314597055" fill="darkgreen" r="5.172583537363357" /><circle cx="92.88251319010999" cy="226.66298837890963" fill="darkgreen" r="5.172583537363357" /><circle cx="81.31314872926653" cy="215.09362391806613" fill="darkgreen" r="5.172583537363357" /><path d="M92.88251319010999,257.6123314597055L92.88251319010999,226.66298837890963L81.31314872926653,215.09362391806613" fill="none" stroke="darkgreen" stroke-width="10.345167074726714" /><circle cx="320.614503948412" cy="303.5966757474396" fill="darkgreen" r="5.25885375357771" /><path d="M320.614503948412,303.5966757474396" fill="none" stroke="darkgreen" stroke-width="10.51770750715542" /><circle cx="96.34814993620469" cy="368.6161591779027" fill="darkgreen" r="5.255353632883892" /><circle cx="320.614503948412" cy="281.69936894375667" fill="darkgreen" r="5.255353632883892" /><circle cx="391.65143625642264" cy="318.5282251112107" fill="darkgreen" r="5.255353632883892" /><circle cx="462.0331735577089" cy="289.7858546846443" fill="darkgreen" r="5.255353632883892" /><circle cx="379.30618297182656" cy="413.80737266802305" fill="darkgreen" r="5.255353632883892" /><circle cx="81.31314872926653" cy="215.09362391806613" fill="darkgreen" r="5.255353632883892" /><circle cx="92.88251319010999" cy="257.6123314597055" fill="darkgreen" r="5.255353632883892" /><path d="M96.34814993620469,368.6161591779027" fill="none" stroke="darkgreen" stroke-width="10.510707265767785" /><circle cx="33.897720611055554" cy="439.35997793027343" fill="darkgreen" r="17.241939377219904" /><circle cx="51.139694472223184" cy="439.35997793027343" fill="darkgreen" r="17.241939377219904" /><circle cx="33.897720611055554" cy="386.8064416014345" fill="darkgreen" r="17.241939377219904" /><circle cx="51.139694472223184" cy="386.8064416014345" fill="darkgreen" r="17.241939377219904" /><circle cx="33.897720611055554" cy="334.25290527259557" fill="darkgreen" r="17.241939377219904" /><circle cx="51.139694472223184" cy="334.25290527259557" fill="darkgreen" r="17.241939377219904" /><circle cx="33.897720611055554" cy="283.889099624125" fill="darkgreen" r="17.241939377219904" /><circle cx="51.139694472223184" cy="283.889099624125" fill="darkgreen" r="17.241939377219904" /><circle cx="33.897720611055554" cy="231.33556329528602" fill="darkgreen" r="17.241939377219904" /><circle cx="51.139694472223184" cy="231.33556329528602" fill="darkgreen" r="17.241939377219904" /><path d="M33.897720611055554,439.35997793027343L51.139694472223184,439.35997793027343M33.897720611055554,386.8064416014345L51.139694472223184,386.8064416014345M33.897720611055554,334.25290527259557L51.139694472223184,334.25290527259557M33.897720611055554,283.889099624125L51.139694472223184,283.889099624125M33.897720611055554,231.33556329528602L51.139694472223184,231.33556329528602" fill="none" stroke="darkgreen" stroke-width="34.48387875443981" /><circle cx="219.24893961860752" cy="51.27763026311252" fill="darkgreen" r="25.862909065829857" /><circle cx="219.24893961860752" cy="34.03565640194489" fill="darkgreen" r="25.862909065829857" /><circle cx="288.19959308941685" cy="51.27763026311252" fill="darkgreen" r="25.862909065829857" /><circle cx="288.19959308941685" cy="34.03565640194489" fill="darkgreen" r="25.862909065829857" /><circle cx="512.345253284596" cy="137.48749956895065" fill="darkgreen" r="25.862909065829857" /><circle cx="512.345253284596" cy="120.24552570778303" fill="darkgreen" r="25.862909065829857" /><circle cx="443.3773578399255" cy="137.48749956895065" fill="darkgreen" r="25.862909065829857" /><circle cx="443.3773578399255" cy="120.24552570778303" fill="darkgreen" r="25.862909065829857" /><circle cx="374.409462395255" cy="137.48749956895065" fill="darkgreen" r="25.862909065829857" /><circle cx="374.409462395255" cy="120.24552570778303" fill="darkgreen" r="25.862909065829857" /><path d="M219.24893961860752,51.27763026311252L219.24893961860752,34.03565640194489M288.19959308941685,51.27763026311252L288.19959308941685,34.03565640194489M512.345253284596,137.48749956895065L512.345253284596,120.24552570778303M443.3773578399255,137.48749956895065L443.3773578399255,120.24552570778303M374.409462395255,137.48749956895065L374.409462395255,120.24552570778303" fill="none" stroke="darkgreen" stroke-width="51.725818131659715" /><circle cx="143.64288423738748" cy="242.47387840960033" fill="white" r="1.7517845442946307" /><circle cx="145.21190385875374" cy="245.66364357391632" fill="white" r="1.7517845442946307" /><circle cx="148.41891099693092" cy="248.8706507120935" fill="white" r="1.7517845442946307" /><circle cx="151.60867616124693" cy="250.43967033345976" fill="white" r="1.7517845442946307" /><circle cx="157.9537225421566" cy="250.43967033345976" fill="white" r="1.7517845442946307" /><circle cx="161.1607296803338" cy="248.8706507120935" fill="white" r="1.7517845442946307" /><circle cx="164.31601089692745" cy="245.66364357391632" fill="white" r="1.7517845442946307" /><circle cx="165.93675643987723" cy="242.47387840960033" fill="white" r="1.7517845442946307" /><circle cx="167.5057760612435" cy="237.6978516500569" fill="white" r="1.7517845442946307" /><circle cx="167.5057760612435" cy="229.73205972619743" fill="white" r="1.7517845442946307" /><circle cx="165.93675643987723" cy="224.95603296665402" fill="white" r="1.7517845442946307" /><circle cx="164.31601089692745" cy="221.74902582847685" fill="white" r="1.7517845442946307" /><circle cx="161.1607296803338" cy="218.59374461188318" fill="white" r="1.7517845442946307" /><circle cx="157.9537225421566" cy="216.9729990689334" fill="white" r="1.7517845442946307" /><circle cx="151.60867616124693" cy="216.9729990689334" fill="white" r="1.7517845442946307" /><circle cx="148.41891099693092" cy="218.59374461188318" fill="white" r="1.7517845442946307" /><circle cx="145.21190385875374" cy="221.74902582847685" fill="white" r="1.7517845442946307" /><circle cx="143.64288423738748" cy="224.95603296665402" fill="white" r="1.7517845442946307" /><circle cx="143.64288423738748" cy="229.73205972619743" fill="white" r="1.7517845442946307" /><circle cx="151.60867616124693" cy="229.73205972619743" fill="white" r="1.7517845442946307" /><circle cx="143.64288423738748" cy="229.73205972619743" fill="white" r="1.7517845442946307" /><circle cx="133.12528018207524" cy="250.43967033345976" fill="white" r="1.7517845442946307" /><circle cx="133.12528018207524" cy="216.9729990689334" fill="white" r="1.7517845442946307" /><circle cx="133.12528018207524" cy="250.43967033345976" fill="white" r="1.7517845442946307" /><circle cx="110.83140797958549" cy="216.9729990689334" fill="white" r="1.7517845442946307" /><circle cx="110.83140797958549" cy="250.43967033345976" fill="white" r="1.7517845442946307" /><circle cx="110.83140797958549" cy="216.9729990689334" fill="white" r="1.7517845442946307" /><circle cx="100.33104589813442" cy="250.43967033345976" fill="white" r="1.7517845442946307" /><circle cx="100.33104589813442" cy="216.9729990689334" fill="white" r="1.7517845442946307" /><circle cx="100.33104589813442" cy="250.43967033345976" fill="white" r="1.7517845442946307" /><circle cx="89.1582468360978" cy="250.43967033345976" fill="white" r="1.7517845442946307" /><circle cx="84.38222007655436" cy="248.8706507120935" fill="white" r="1.7517845442946307" /><circle cx="81.19245491223835" cy="245.66364357391632" fill="white" r="1.7517845442946307" /><circle cx="79.60619331701093" cy="242.47387840960033" fill="white" r="1.7517845442946307" /><circle cx="78.03717369564467" cy="237.6978516500569" fill="white" r="1.7517845442946307" /><circle cx="78.03717369564467" cy="229.73205972619743" fill="white" r="1.7517845442946307" /><circle cx="79.60619331701093" cy="224.95603296665402" fill="white" r="1.7517845442946307" /><circle cx="81.19245491223835" cy="221.74902582847685" fill="white" r="1.7517845442946307" /><circle cx="84.38222007655436" cy="218.59374461188318" fill="white" r="1.7517845442946307" /><circle cx="89.1582468360978" cy="216.9729990689334" fill="white" r="1.7517845442946307" /><circle cx="100.33104589813442" cy="216.9729990689334" fill="white" r="1.7517845442946307" /><circle cx="113.93496327459566" cy="302.1655919169626" fill="white" r="1.7517845442946307" /><circle cx="129.83206317459224" cy="302.1655919169626" fill="white" r="1.7517845442946307" /><circle cx="131.45280871754198" cy="287.83751163833233" fill="white" r="1.7517845442946307" /><circle cx="129.83206317459224" cy="289.4237732335598" fill="white" r="1.7517845442946307" /><circle cx="125.0560364150488" cy="291.0445187765095" fill="white" r="1.7517845442946307" /><circle cx="120.28000965550535" cy="291.0445187765095" fill="white" r="1.7517845442946307" /><circle cx="115.50398289596193" cy="289.4237732335598" fill="white" r="1.7517845442946307" /><circle cx="112.31421773164593" cy="286.21676609538264" fill="white" r="1.7517845442946307" /><circle cx="110.72795613641848" cy="281.44073933583917" fill="white" r="1.7517845442946307" /><circle cx="110.72795613641848" cy="278.2854581192455" fill="white" r="1.7517845442946307" /><circle cx="112.31421773164593" cy="273.5266733335632" fill="white" r="1.7517845442946307" /><circle cx="115.50398289596193" cy="270.31966619538605" fill="white" r="1.7517845442946307" /><circle cx="120.28000965550535" cy="268.6989206524363" fill="white" r="1.7517845442946307" /><circle cx="125.0560364150488" cy="268.6989206524363" fill="white" r="1.7517845442946307" /><circle cx="129.83206317459224" cy="270.31966619538605" fill="white" r="1.7517845442946307" /><circle cx="131.45280871754198" cy="271.9059277906135" fill="white" r="1.7517845442946307" /><circle cx="133.02182833890822" cy="275.09569295492946" fill="white" r="1.7517845442946307" /><circle cx="100.2275940549674" cy="302.1655919169626" fill="white" r="1.7517845442946307" /><circle cx="87.46853339770337" cy="268.6989206524363" fill="white" r="1.7517845442946307" /><circle cx="74.72671471430048" cy="302.1655919169626" fill="white" r="1.7517845442946307" /><circle cx="87.46853339770337" cy="268.6989206524363" fill="white" r="1.7517845442946307" /><circle cx="201.98972378357874" cy="353.8915135004655" fill="white" r="1.7517845442946307" /><circle cx="201.98972378357874" cy="320.47656815752265" fill="white" r="1.7517845442946307" /><circle cx="201.98972378357874" cy="353.8915135004655" fill="white" r="1.7517845442946307" /><circle cx="187.66164350494844" cy="353.8915135004655" fill="white" r="1.7517845442946307" /><circle cx="182.9028587192662" cy="352.3052519052381" fill="white" r="1.7517845442946307" /><circle cx="181.28211317631641" cy="350.68450636228835" fill="white" r="1.7517845442946307" /><circle cx="179.69585158108902" cy="347.5292251456946" fill="white" r="1.7517845442946307" /><circle cx="179.69585158108902" cy="342.75319838615127" fill="white" r="1.7517845442946307" /><circle cx="181.28211317631641" cy="339.5634332218352" fill="white" r="1.7517845442946307" /><circle cx="182.9028587192662" cy="337.994413600469" fill="white" r="1.7517845442946307" /><circle cx="187.66164350494844" cy="336.37366805751924" fill="white" r="1.7517845442946307" /><circle cx="201.98972378357874" cy="336.37366805751924" fill="white" r="1.7517845442946307" /><circle cx="169.19548949963792" cy="353.8915135004655" fill="white" r="1.7517845442946307" /><circle cx="161.2124556019173" cy="320.47656815752265" fill="white" r="1.7517845442946307" /><circle cx="153.24666367805787" cy="353.8915135004655" fill="white" r="1.7517845442946307" /><circle cx="161.2124556019173" cy="320.47656815752265" fill="white" r="1.7517845442946307" /><circle cx="153.24666367805787" cy="353.8915135004655" fill="white" r="1.7517845442946307" /><circle cx="145.31535570192077" cy="320.47656815752265" fill="white" r="1.7517845442946307" /><circle cx="137.3495637780613" cy="353.8915135004655" fill="white" r="1.7517845442946307" /><circle cx="145.31535570192077" cy="320.47656815752265" fill="white" r="1.7517845442946307" /><circle cx="126.83195972274905" cy="353.8915135004655" fill="white" r="1.7517845442946307" /><circle cx="126.83195972274905" cy="320.47656815752265" fill="white" r="1.7517845442946307" /><circle cx="126.83195972274905" cy="353.8915135004655" fill="white" r="1.7517845442946307" /><circle cx="114.09014103934618" cy="320.47656815752265" fill="white" r="1.7517845442946307" /><circle cx="101.34832235594331" cy="353.8915135004655" fill="white" r="1.7517845442946307" /><circle cx="114.09014103934618" cy="320.47656815752265" fill="white" r="1.7517845442946307" /><circle cx="101.34832235594331" cy="353.8915135004655" fill="white" r="1.7517845442946307" /><circle cx="101.34832235594331" cy="320.47656815752265" fill="white" r="1.7517845442946307" /><circle cx="87.64095313631505" cy="353.8915135004655" fill="white" r="1.7517845442946307" /><circle cx="70.12310769336874" cy="353.8915135004655" fill="white" r="1.7517845442946307" /><circle cx="79.6751612124556" cy="341.13245284320146" fill="white" r="1.7517845442946307" /><circle cx="74.89913445291218" cy="341.13245284320146" fill="white" r="1.7517845442946307" /><circle cx="71.74385323631849" cy="339.5634332218352" fill="white" r="1.7517845442946307" /><circle cx="70.12310769336874" cy="337.994413600469" fill="white" r="1.7517845442946307" /><circle cx="68.55408807200249" cy="333.16666091934206" fill="white" r="1.7517845442946307" /><circle cx="68.55408807200249" cy="330.01137970274834" fill="white" r="1.7517845442946307" /><circle cx="70.12310769336874" cy="325.23535294320493" fill="white" r="1.7517845442946307" /><circle cx="73.31287285768474" cy="322.04558777888894" fill="white" r="1.7517845442946307" /><circle cx="78.08889961722818" cy="320.47656815752265" fill="white" r="1.7517845442946307" /><circle cx="82.8649263767716" cy="320.47656815752265" fill="white" r="1.7517845442946307" /><circle cx="87.64095313631505" cy="322.04558777888894" fill="white" r="1.7517845442946307" /><circle cx="89.2616986792648" cy="323.6146074002551" fill="white" r="1.7517845442946307" /><circle cx="90.83071830063105" cy="326.8216145384323" fill="white" r="1.7517845442946307" /><circle cx="201.98972378357874" cy="405.6001931101072" fill="white" r="1.7517845442946307" /><circle cx="201.98972378357874" cy="372.18524776716436" fill="white" r="1.7517845442946307" /><circle cx="201.98972378357874" cy="405.6001931101072" fill="white" r="1.7517845442946307" /><circle cx="187.66164350494844" cy="405.6001931101072" fill="white" r="1.7517845442946307" /><circle cx="182.9028587192662" cy="404.031173488741" fill="white" r="1.7517845442946307" /><circle cx="181.28211317631641" cy="402.44491189351356" fill="white" r="1.7517845442946307" /><circle cx="179.69585158108902" cy="399.2551467291975" fill="white" r="1.7517845442946307" /><circle cx="179.69585158108902" cy="394.4791199696541" fill="white" r="1.7517845442946307" /><circle cx="181.28211317631641" cy="391.28935480533806" fill="white" r="1.7517845442946307" /><circle cx="182.9028587192662" cy="389.7030932101107" fill="white" r="1.7517845442946307" /><circle cx="187.66164350494844" cy="388.0823476671609" fill="white" r="1.7517845442946307" /><circle cx="201.98972378357874" cy="388.0823476671609" fill="white" r="1.7517845442946307" /><circle cx="169.19548949963792" cy="405.6001931101072" fill="white" r="1.7517845442946307" /><circle cx="161.2124556019173" cy="372.18524776716436" fill="white" r="1.7517845442946307" /><circle cx="153.24666367805787" cy="405.6001931101072" fill="white" r="1.7517845442946307" /><circle cx="161.2124556019173" cy="372.18524776716436" fill="white" r="1.7517845442946307" /><circle cx="153.24666367805787" cy="405.6001931101072" fill="white" r="1.7517845442946307" /><circle cx="145.31535570192077" cy="372.18524776716436" fill="white" r="1.7517845442946307" /><circle cx="137.3495637780613" cy="405.6001931101072" fill="white" r="1.7517845442946307" /><circle cx="145.31535570192077" cy="372.18524776716436" fill="white" r="1.7517845442946307" /><circle cx="126.83195972274905" cy="405.6001931101072" fill="white" r="1.7517845442946307" /><circle cx="126.83195972274905" cy="372.18524776716436" fill="white" r="1.7517845442946307" /><circle cx="126.83195972274905" cy="405.6001931101072" fill="white" r="1.7517845442946307" /><circle cx="114.09014103934618" cy="372.18524776716436" fill="white" r="1.7517845442946307" /><circle cx="101.34832235594331" cy="405.6001931101072" fill="white" r="1.7517845442946307" /><circle cx="114.09014103934618" cy="372.18524776716436" fill="white" r="1.7517845442946307" /><circle cx="101.34832235594331" cy="405.6001931101072" fill="white" r="1.7517845442946307" /><circle cx="101.34832235594331" cy="372.18524776716436" fill="white" r="1.7517845442946307" /><circle cx="89.2616986792648" cy="397.68612710783134" fill="white" r="1.7517845442946307" /><circle cx="89.2616986792648" cy="399.2551467291975" fill="white" r="1.7517845442946307" /><circle cx="87.64095313631505" cy="402.44491189351356" fill="white" r="1.7517845442946307" /><circle cx="86.07193351494878" cy="404.031173488741" fill="white" r="1.7517845442946307" /><circle cx="82.8649263767716" cy="405.6001931101072" fill="white" r="1.7517845442946307" /><circle cx="76.51987999586191" cy="405.6001931101072" fill="white" r="1.7517845442946307" /><circle cx="73.31287285768474" cy="404.031173488741" fill="white" r="1.7517845442946307" /><circle cx="71.74385323631849" cy="402.44491189351356" fill="white" r="1.7517845442946307" /><circle cx="70.12310769336874" cy="399.2551467291975" fill="white" r="1.7517845442946307" /><circle cx="70.12310769336874" cy="396.06538156488153" fill="white" r="1.7517845442946307" /><circle cx="71.74385323631849" cy="392.85837442670436" fill="white" r="1.7517845442946307" /><circle cx="74.89913445291218" cy="388.0823476671609" fill="white" r="1.7517845442946307" /><circle cx="90.83071830063105" cy="372.18524776716436" fill="white" r="1.7517845442946307" /><circle cx="68.55408807200249" cy="372.18524776716436" fill="white" r="1.7517845442946307" /><circle cx="201.98972378357874" cy="457.3261146936101" fill="white" r="1.7517845442946307" /><circle cx="201.98972378357874" cy="423.91116935066725" fill="white" r="1.7517845442946307" /><circle cx="201.98972378357874" cy="457.3261146936101" fill="white" r="1.7517845442946307" /><circle cx="187.66164350494844" cy="457.3261146936101" fill="white" r="1.7517845442946307" /><circle cx="182.9028587192662" cy="455.7570950722438" fill="white" r="1.7517845442946307" /><circle cx="181.28211317631641" cy="454.17083347701646" fill="white" r="1.7517845442946307" /><circle cx="179.69585158108902" cy="450.9810683127004" fill="white" r="1.7517845442946307" /><circle cx="179.69585158108902" cy="446.205041553157" fill="white" r="1.7517845442946307" /><circle cx="181.28211317631641" cy="442.9980344149798" fill="white" r="1.7517845442946307" /><circle cx="182.9028587192662" cy="441.4290147936136" fill="white" r="1.7517845442946307" /><circle cx="187.66164350494844" cy="439.8082692506638" fill="white" r="1.7517845442946307" /><circle cx="201.98972378357874" cy="439.8082692506638" fill="white" r="1.7517845442946307" /><circle cx="169.19548949963792" cy="457.3261146936101" fill="white" r="1.7517845442946307" /><circle cx="161.2124556019173" cy="423.91116935066725" fill="white" r="1.7517845442946307" /><circle cx="153.24666367805787" cy="457.3261146936101" fill="white" r="1.7517845442946307" /><circle cx="161.2124556019173" cy="423.91116935066725" fill="white" r="1.7517845442946307" /><circle cx="153.24666367805787" cy="457.3261146936101" fill="white" r="1.7517845442946307" /><circle cx="145.31535570192077" cy="423.91116935066725" fill="white" r="1.7517845442946307" /><circle cx="137.3495637780613" cy="457.3261146936101" fill="white" r="1.7517845442946307" /><circle cx="145.31535570192077" cy="423.91116935066725" fill="white" r="1.7517845442946307" /><circle cx="126.83195972274905" cy="457.3261146936101" fill="white" r="1.7517845442946307" /><circle cx="126.83195972274905" cy="423.91116935066725" fill="white" r="1.7517845442946307" /><circle cx="126.83195972274905" cy="457.3261146936101" fill="white" r="1.7517845442946307" /><circle cx="114.09014103934618" cy="423.91116935066725" fill="white" r="1.7517845442946307" /><circle cx="101.34832235594331" cy="457.3261146936101" fill="white" r="1.7517845442946307" /><circle cx="114.09014103934618" cy="423.91116935066725" fill="white" r="1.7517845442946307" /><circle cx="101.34832235594331" cy="457.3261146936101" fill="white" r="1.7517845442946307" /><circle cx="101.34832235594331" cy="423.91116935066725" fill="white" r="1.7517845442946307" /><circle cx="90.83071830063105" cy="450.9810683127004" fill="white" r="1.7517845442946307" /><circle cx="87.64095313631505" cy="452.55008793406665" fill="white" r="1.7517845442946307" /><circle cx="82.8649263767716" cy="457.3261146936101" fill="white" r="1.7517845442946307" /><circle cx="82.8649263767716" cy="423.91116935066725" fill="white" r="1.7517845442946307" /><path d="M143.64288423738748,242.47387840960033L145.21190385875374,245.66364357391632L148.41891099693092,248.8706507120935L151.60867616124693,250.43967033345976L157.9537225421566,250.43967033345976L161.1607296803338,248.8706507120935L164.31601089692745,245.66364357391632L165.93675643987723,242.47387840960033L167.5057760612435,237.6978516500569L167.5057760612435,229.73205972619743L165.93675643987723,224.95603296665402L164.31601089692745,221.74902582847685L161.1607296803338,218.59374461188318L157.9537225421566,216.9729990689334L151.60867616124693,216.9729990689334L148.41891099693092,218.59374461188318L145.21190385875374,221.74902582847685L143.64288423738748,224.95603296665402L143.64288423738748,229.73205972619743M151.60867616124693,229.73205972619743L143.64288423738748,229.73205972619743M133.12528018207524,250.43967033345976L133.12528018207524,216.9729990689334M133.12528018207524,250.43967033345976L110.83140797958549,216.9729990689334M110.83140797958549,250.43967033345976L110.83140797958549,216.9729990689334M100.33104589813442,250.43967033345976L100.33104589813442,216.9729990689334M100.33104589813442,250.43967033345976L89.1582468360978,250.43967033345976L84.38222007655436,248.8706507120935L81.19245491223835,245.66364357391632L79.60619331701093,242.47387840960033L78.03717369564467,237.6978516500569L78.03717369564467,229.73205972619743L79.60619331701093,224.95603296665402L81.19245491223835,221.74902582847685L84.38222007655436,218.59374461188318L89.1582468360978,216.9729990689334L100.33104589813442,216.9729990689334M113.93496327459566,302.1655919169626L129.83206317459224,302.1655919169626L131.45280871754198,287.83751163833233L129.83206317459224,289.4237732335598L125.0560364150488,291.0445187765095L120.28000965550535,291.0445187765095L115.50398289596193,289.4237732335598L112.31421773164593,286.21676609538264L110.72795613641848,281.44073933583917L110.72795613641848,278.2854581192455L112.31421773164593,273.5266733335632L115.50398289596193,270.31966619538605L120.28000965550535,268.6989206524363L125.0560364150488,268.6989206524363L129.83206317459224,270.31966619538605L131.45280871754198,271.9059277906135L133.02182833890822,275.09569295492946M100.2275940549674,302.1655919169626L87.46853339770337,268.6989206524363M74.72671471430048,302.1655919169626L87.46853339770337,268.6989206524363M201.98972378357874,353.8915135004655L201.98972378357874,320.47656815752265M201.98972378357874,353.8915135004655L187.66164350494844,353.8915135004655L182.9028587192662,352.3052519052381L181.28211317631641,350.68450636228835L179.69585158108902,347.5292251456946L179.69585158108902,342.75319838615127L181.28211317631641,339.5634332218352L182.9028587192662,337.994413600469L187.66164350494844,336.37366805751924L201.98972378357874,336.37366805751924M169.19548949963792,353.8915135004655L161.2124556019173,320.47656815752265M153.24666367805787,353.8915135004655L161.2124556019173,320.47656815752265M153.24666367805787,353.8915135004655L145.31535570192077,320.47656815752265M137.3495637780613,353.8915135004655L145.31535570192077,320.47656815752265M126.83195972274905,353.8915135004655L126.83195972274905,320.47656815752265M126.83195972274905,353.8915135004655L114.09014103934618,320.47656815752265M101.34832235594331,353.8915135004655L114.09014103934618,320.47656815752265M101.34832235594331,353.8915135004655L101.34832235594331,320.47656815752265M87.64095313631505,353.8915135004655L70.12310769336874,353.8915135004655L79.6751612124556,341.13245284320146L74.89913445291218,341.13245284320146L71.74385323631849,339.5634332218352L70.12310769336874,337.994413600469L68.55408807200249,333.16666091934206L68.55408807200249,330.01137970274834L70.12310769336874,325.23535294320493L73.31287285768474,322.04558777888894L78.08889961722818,320.47656815752265L82.8649263767716,320.47656815752265L87.64095313631505,322.04558777888894L89.2616986792648,323.6146074002551L90.83071830063105,326.8216145384323M201.98972378357874,405.6001931101072L201.98972378357874,372.18524776716436M201.98972378357874,405.6001931101072L187.66164350494844,405.6001931101072L182.9028587192662,404.031173488741L181.28211317631641,402.44491189351356L179.69585158108902,399.2551467291975L179.69585158108902,394.4791199696541L181.28211317631641,391.28935480533806L182.9028587192662,389.7030932101107L187.66164350494844,388.0823476671609L201.98972378357874,388.0823476671609M169.19548949963792,405.6001931101072L161.2124556019173,372.18524776716436M153.24666367805787,405.6001931101072L161.2124556019173,372.18524776716436M153.24666367805787,405.6001931101072L145.31535570192077,372.18524776716436M137.3495637780613,405.6001931101072L145.31535570192077,372.18524776716436M126.83195972274905,405.6001931101072L126.83195972274905,372.18524776716436M126.83195972274905,405.6001931101072L114.09014103934618,372.18524776716436M101.34832235594331,405.6001931101072L114.09014103934618,372.18524776716436M101.34832235594331,405.6001931101072L101.34832235594331,372.18524776716436M89.2616986792648,397.68612710783134L89.2616986792648,399.2551467291975L87.64095313631505,402.44491189351356L86.07193351494878,404.031173488741L82.8649263767716,405.6001931101072L76.51987999586191,405.6001931101072L73.31287285768474,404.031173488741L71.74385323631849,402.44491189351356L70.12310769336874,399.2551467291975L70.12310769336874,396.06538156488153L71.74385323631849,392.85837442670436L74.89913445291218,388.0823476671609L90.83071830063105,372.18524776716436L68.55408807200249,372.18524776716436M201.98972378357874,457.3261146936101L201.98972378357874,423.91116935066725M201.98972378357874,457.3261146936101L187.66164350494844,457.3261146936101L182.9028587192662,455.7570950722438L181.28211317631641,454.17083347701646L179.69585158108902,450.9810683127004L179.69585158108902,446.205041553157L181.28211317631641,442.9980344149798L182.9028587192662,441.4290147936136L187.66164350494844,439.8082692506638L201.98972378357874,439.8082692506638M169.19548949963792,457.3261146936101L161.2124556019173,423.91116935066725M153.24666367805787,457.3261146936101L161.2124556019173,423.91116935066725M153.24666367805787,457.3261146936101L145.31535570192077,423.91116935066725M137.3495637780613,457.3261146936101L145.31535570192077,423.91116935066725M126.83195972274905,457.3261146936101L126.83195972274905,423.91116935066725M126.83195972274905,457.3261146936101L114.09014103934618,423.91116935066725M101.34832235594331,457.3261146936101L114.09014103934618,423.91116935066725M101.34832235594331,457.3261146936101L101.34832235594331,423.91116935066725M90.83071830063105,450.9810683127004L87.64095313631505,452.55008793406665L82.8649263767716,457.3261146936101L82.8649263767716,423.91116935066725" fill="none" stroke="white" stroke-width="3.5035690885892614" /><circle cx="33.897720611055554" cy="439.35997793027343" fill="grey" r="18.993723921514537" /><circle cx="51.139694472223184" cy="439.35997793027343" fill="grey" r="18.993723921514537" /><circle cx="33.897720611055554" cy="386.8064416014345" fill="grey" r="18.993723921514537" /><circle cx="51.139694472223184" cy="386.8064416014345" fill="grey" r="18.993723921514537" /><circle cx="33.897720611055554" cy="334.25290527259557" fill="grey" r="18.993723921514537" /><circle cx="51.139694472223184" cy="334.25290527259557" fill="grey" r="18.993723921514537" /><circle cx="33.897720611055554" cy="283.889099624125" fill="grey" r="18.993723921514537" /><circle cx="51.139694472223184" cy="283.889099624125" fill="grey" r="18.993723921514537" /><circle cx="33.897720611055554" cy="231.33556329528602" fill="grey" r="18.993723921514537" /><circle cx="51.139694472223184" cy="231.33556329528602" fill="grey" r="18.993723921514537" /><path d="M33.897720611055554,439.35997793027343L51.139694472223184,439.35997793027343M33.897720611055554,386.8064416014345L51.139694472223184,386.8064416014345M33.897720611055554,334.25290527259557L51.139694472223184,334.25290527259557M33.897720611055554,283.889099624125L51.139694472223184,283.889099624125M33.897720611055554,231.33556329528602L51.139694472223184,231.33556329528602" fill="none" stroke="grey" stroke-width="37.987447843029074" /><circle cx="219.24893961860752" cy="51.27763026311252" fill="grey" r="27.614693610124483" /><circle cx="219.24893961860752" cy="34.03565640194489" fill="grey" r="27.614693610124483" /><circle cx="288.19959308941685" cy="51.27763026311252" fill="grey" r="27.614693610124483" /><circle cx="288.19959308941685" cy="34.03565640194489" fill="grey" r="27.614693610124483" /><circle cx="512.345253284596" cy="137.48749956895065" fill="grey" r="27.614693610124483" /><circle cx="512.345253284596" cy="120.24552570778303" fill="grey" r="27.614693610124483" /><circle cx="443.3773578399255" cy="137.48749956895065" fill="grey" r="27.614693610124483" /><circle cx="443.3773578399255" cy="120.24552570778303" fill="grey" r="27.614693610124483" /><circle cx="374.409462395255" cy="137.48749956895065" fill="grey" r="27.614693610124483" /><circle cx="374.409462395255" cy="120.24552570778303" fill="grey" r="27.614693610124483" /><path d="M219.24893961860752,51.27763026311252L219.24893961860752,34.03565640194489M288.19959308941685,51.27763026311252L288.19959308941685,34.03565640194489M512.345253284596,137.48749956895065L512.345253284596,120.24552570778303M443.3773578399255,137.48749956895065L443.3773578399255,120.24552570778303M374.409462395255,137.48749956895065L374.409462395255,120.24552570778303" fill="none" stroke="grey" stroke-width="55.22938722024897" /><circle cx="320.614503948412" cy="303.5966757474396" fill="black" r="2.629401013828063" /><circle cx="96.34814993620469" cy="368.6161591779027" fill="black" r="2.629401013828063" /><circle cx="320.614503948412" cy="281.69936894375667" fill="black" r="2.629401013828063" /><circle cx="391.65143625642264" cy="318.5282251112107" fill="black" r="2.629401013828063" /><circle cx="462.0331735577089" cy="289.7858546846443" fill="black" r="2.629401013828063" /><circle cx="379.30618297182656" cy="413.80737266802305" fill="black" r="2.629401013828063" /><circle cx="81.31314872926653" cy="215.09362391806613" fill="black" r="2.629401013828063" /><circle cx="92.88251319010999" cy="257.6123314597055" fill="black" r="2.629401013828063" /><circle cx="42.518707541639365" cy="439.3772199041346" fill="black" r="10.336563329769993" /><circle cx="42.518707541639365" cy="386.82368357529566" fill="black" r="10.336563329769993" /><circle cx="42.518707541639365" cy="334.27014724645676" fill="black" r="10.336563329769993" /><circle cx="42.518707541639365" cy="283.90634159798617" fill="black" r="10.336563329769993" /><circle cx="42.518707541639365" cy="231.35280526914718" fill="black" r="10.336563329769993" /><circle cx="219.24893961860752" cy="42.65664333252871" fill="black" r="14.138418566157453" /><circle cx="288.21683506327804" cy="42.65664333252871" fill="black" r="14.138418566157453" /><circle cx="512.3624952584572" cy="128.86651263836683" fill="black" r="14.138418566157453" /><circle cx="443.39459981378667" cy="128.86651263836683" fill="black" r="14.138418566157453" /><circle cx="374.4267043691162" cy="128.86651263836683" fill="black" r="14.138418566157453" /></svg>