<?xml version="1.0" encoding="utf-8" ?>
<svg baseProfile="full" height="500.0" version="1.1" width="428.57142857142804" xmlns="http://www.w3.org/2000/svg" xmlns:ev="http://www.w3.org/2001/xml-events" xmlns:xlink="http://www.w3.org/1999/xlink"><defs /><rect fill="green" height="500.0" width="428.57142857142804" x="0" y="0" /><ellipse cx="61.22448979591837" cy="45.91836734693878" fill="darkgreen" rx="32.13883978788365" ry="32.13883978788365" /><ellipse cx="367.34693877550967" cy="454.0816326530612" fill="darkgreen" rx="32.13883978788365" ry="32.13883978788365" /><ellipse cx="163.26530612244892" cy="45.91836734693878" fill="darkgreen" rx="32.13883978788365" ry="32.13883978788365" /><ellipse cx="265.30612244897947" cy="454.0816326530612" fill="darkgreen" rx="32.13883978788365" ry="32.13883978788365" /><ellipse cx="265.30612244897947" cy="45.91836734693878" fill="darkgreen" rx="32.13883978788365" ry="32.13883978788365" /><ellipse cx="163.26530612244892" cy="454.0816326530612" fill="darkgreen" rx="32.13883978788365" ry="32.13883978788365" /><ellipse cx="367.34693877550967" cy="45.91836734693878" fill="darkgreen" rx="32.13883978788365" ry="32.13883978788365" /><rect fill="darkgreen" height="64.2776795757673" width="64.2776795757673" x="29.085650008034726" y="421.9427928651776" /><path d="M330.5978225936043,90.69729230274794L340.0398923348862,97.00626707375876L350.53133536879295,101.35196046922721L361.6690101237341,103.56741121645516L373.02486742728587,103.56741121645516L384.16254218222696,101.35196046922721L394.65398521613315,97.00626707375876L401.0525470030532,92.73087739032636L401.0525871766028,407.2691226096736L394.65398521613315,402.9937329262412L384.16254218222696,398.6480395307728L373.02486742728587,396.4325887835448L361.6690101237341,396.4325887835448L350.53133536879295,398.6480395307728L340.0398923348862,402.9937329262412L330.5978225936043,409.30270769725206L322.5680138197011,417.33251647115526L316.32653061224454,426.6735899084044L310.0850474047886,417.33251647115526L302.0552386308854,409.30270769725206L292.6131688896029,402.9937329262412L282.1217258556961,398.6480395307728L270.98405110075504,396.4325887835448L259.62819379720383,396.4325887835448L248.49051904226215,398.6480395307728L237.99907600835596,402.9937329262412L228.5570062670735,409.30270769725206L220.5271974931703,417.33251647115526L214.2857142857143,426.6735899084044L208.04423107825778,417.33251647115526L200.01442230435458,409.30270769725206L190.57235256307237,402.9937329262412L180.0809095291659,398.6480395307728L168.9432347742245,396.4325887835448L157.58737747067303,396.4325887835448L146.44970271573192,398.6480395307728L135.95825968182544,402.9937329262412L126.51618994054294,409.30270769725206L118.53780331030042,417.2810943274948L118.50441909047083,416.9419090470832L117.04571749959825,412.1332154909206L114.67688413948254,407.70151052547004L111.48903262092236,403.8170898280572L107.60461192350954,400.62923830949705L103.17290695805869,398.2604049493813L98.36421340189608,396.80170335850875L93.3633295838019,396.3091756387595L29.085650008034563,396.3091756387595L27.518881568375175,396.46348224329085L27.518881568375175,92.73087739032636L33.91744335529491,97.00626707375876L44.408886389201385,101.35196046922721L55.5465611441425,103.56741121645516L66.90241844769396,103.56741121645516L78.04009320263536,101.35196046922721L88.53153623654185,97.00626707375876L97.97360597782405,90.69729230274794L106.00341475172723,82.66748352884474L112.2448979591835,73.32641009159587L118.48638116663976,82.66748352884474L126.51618994054294,90.69729230274794L135.95825968182544,97.00626707375876L146.44970271573192,101.35196046922721L157.58737747067303,103.56741121645516L168.9432347742245,103.56741121645516L180.0809095291659,101.35196046922721L190.57235256307237,97.00626707375876L200.01442230435458,90.69729230274794L208.04423107825778,82.66748352884474L214.2857142857143,73.32641009159587L220.5271974931703,82.66748352884474L228.5570062670735,90.69729230274794L237.99907600835596,97.00626707375876L248.49051904226215,101.35196046922721L259.62819379720383,103.56741121645516L270.98405110075504,103.56741121645516L282.1217258556961,101.35196046922721L292.6131688896029,97.00626707375876L302.0552386308854,90.69729230274794L310.0850474047886,82.66748352884474L316.32653061224454,73.32641009159587L322.5680138197011,82.66748352884474 Z" fill="darkgreen" stroke="none" /><circle cx="322.5680138197011" cy="82.66748352884474" fill="darkgreen" r="5.102040816326529" /><circle cx="330.5978225936043" cy="90.69729230274794" fill="darkgreen" r="5.102040816326529" /><circle cx="340.0398923348862" cy="97.00626707375876" fill="darkgreen" r="5.102040816326529" /><circle cx="350.53133536879295" cy="101.35196046922721" fill="darkgreen" r="5.102040816326529" /><circle cx="361.6690101237341" cy="103.56741121645516" fill="darkgreen" r="5.102040816326529" /><circle cx="373.02486742728587" cy="103.56741121645516" fill="darkgreen" r="5.102040816326529" /><circle cx="384.16254218222696" cy="101.35196046922721" fill="darkgreen" r="5.102040816326529" /><circle cx="394.65398521613315" cy="97.00626707375876" fill="darkgreen" r="5.102040816326529" /><circle cx="401.0525470030532" cy="92.73087739032636" fill="darkgreen" r="5.102040816326529" /><circle cx="401.0525871766028" cy="407.2691226096736" fill="darkgreen" r="5.102040816326529" /><circle cx="394.65398521613315" cy="402.9937329262412" fill="darkgreen" r="5.102040816326529" /><circle cx="384.16254218222696" cy="398.6480395307728" fill="darkgreen" r="5.102040816326529" /><circle cx="373.02486742728587" cy="396.4325887835448" fill="darkgreen" r="5.102040816326529" /><circle cx="361.6690101237341" cy="396.4325887835448" fill="darkgreen" r="5.102040816326529" /><circle cx="350.53133536879295" cy="398.6480395307728" fill="darkgreen" r="5.102040816326529" /><circle cx="340.0398923348862" cy="402.9937329262412" fill="darkgreen" r="5.102040816326529" /><circle cx="330.5978225936043" cy="409.30270769725206" fill="darkgreen" r="5.102040816326529" /><circle cx="322.5680138197011" cy="417.33251647115526" fill="darkgreen" r="5.102040816326529" /><circle cx="316.32653061224454" cy="426.6735899084044" fill="darkgreen" r="5.102040816326529" /><circle cx="310.0850474047886" cy="417.33251647115526" fill="darkgreen" r="5.102040816326529" /><circle cx="302.0552386308854" cy="409.30270769725206" fill="darkgreen" r="5.102040816326529" /><circle cx="292.6131688896029" cy="402.9937329262412" fill="darkgreen" r="5.102040816326529" /><circle cx="282.1217258556961" cy="398.6480395307728" fill="darkgreen" r="5.102040816326529" /><circle cx="270.98405110075504" cy="396.4325887835448" fill="darkgreen" r="5.102040816326529" /><circle cx="259.62819379720383" cy="396.4325887835448" fill="darkgreen" r="5.102040816326529" /><circle cx="248.49051904226215" cy="398.6480395307728" fill="darkgreen" r="5.102040816326529" /><circle cx="237.99907600835596" cy="402.9937329262412" fill="darkgreen" r="5.102040816326529" /><circle cx="228.5570062670735" cy="409.30270769725206" fill="darkgreen" r="5.102040816326529" /><circle cx="220.5271974931703" cy="417.33251647115526" fill="darkgreen" r="5.102040816326529" /><circle cx="214.2857142857143" cy="426.6735899084044" fill="darkgreen" r="5.102040816326529" /><circle cx="208.04423107825778" cy="417.33251647115526" fill="darkgreen" r="5.102040816326529" /><circle cx="200.01442230435458" cy="409.30270769725206" fill="darkgreen" r="5.102040816326529" /><circle cx="190.57235256307237" cy="402.9937329262412" fill="darkgreen" r="5.102040816326529" /><circle cx="180.0809095291659" cy="398.6480395307728" fill="darkgreen" r="5.102040816326529" /><circle cx="168.9432347742245" cy="396.4325887835448" fill="darkgreen" r="5.102040816326529" /><circle cx="157.58737747067303" cy="396.4325887835448" fill="darkgreen" r="5.102040816326529" /><circle cx="146.44970271573192" cy="398.6480395307728" fill="darkgreen" r="5.102040816326529" /><circle cx="135.95825968182544" cy="402.9937329262412" fill="darkgreen" r="5.102040816326529" /><circle cx="126.51618994054294" cy="409.30270769725206" fill="darkgreen" r="5.102040816326529" /><circle cx="118.53780331030042" cy="417.2810943274948" fill="darkgreen" r="5.102040816326529" /><circle cx="118.50441909047083" cy="416.9419090470832" fill="darkgreen" r="5.102040816326529" /><circle cx="117.04571749959825" cy="412.1332154909206" fill="darkgreen" r="5.102040816326529" /><circle cx="114.67688413948254" cy="407.70151052547004" fill="darkgreen" r="5.102040816326529" /><circle cx="111.48903262092236" cy="403.8170898280572" fill="darkgreen" r="5.102040816326529" /><circle cx="107.60461192350954" cy="400.62923830949705" fill="darkgreen" r="5.102040816326529" /><circle cx="103.17290695805869" cy="398.2604049493813" fill="darkgreen" r="5.102040816326529" /><circle cx="98.36421340189608" cy="396.80170335850875" fill="darkgreen" r="5.102040816326529" /><circle cx="93.3633295838019" cy="396.3091756387595" fill="darkgreen" r="5.102040816326529" /><circle cx="29.085650008034563" cy="396.3091756387595" fill="darkgreen" r="5.102040816326529" /><circle cx="27.518881568375175" cy="396.46348224329085" fill="darkgreen" r="5.102040816326529" /><circle cx="27.518881568375175" cy="92.73087739032636" fill="darkgreen" r="5.102040816326529" /><circle cx="33.91744335529491" cy="97.00626707375876" fill="darkgreen" r="5.102040816326529" /><circle cx="44.408886389201385" cy="101.35196046922721" fill="darkgreen" r="5.102040816326529" /><circle cx="55.5465611441425" cy="103.56741121645516" fill="darkgreen" r="5.102040816326529" /><circle cx="66.90241844769396" cy="103.56741121645516" fill="darkgreen" r="5.102040816326529" /><circle cx="78.04009320263536" cy="101.35196046922721" fill="darkgreen" r="5.102040816326529" /><circle cx="88.53153623654185" cy="97.00626707375876" fill="darkgreen" r="5.102040816326529" /><circle cx="97.97360597782405" cy="90.69729230274794" fill="darkgreen" r="5.102040816326529" /><circle cx="106.00341475172723" cy="82.66748352884474" fill="darkgreen" r="5.102040816326529" /><circle cx="112.2448979591835" cy="73.32641009159587" fill="darkgreen" r="5.102040816326529" /><circle cx="118.48638116663976" cy="82.66748352884474" fill="darkgreen" r="5.102040816326529" /><circle cx="126.51618994054294" cy="90.69729230274794" fill="darkgreen" r="5.102040816326529" /><circle cx="135.95825968182544" cy="97.00626707375876" fill="darkgreen" r="5.102040816326529" /><circle cx="146.44970271573192" cy="101.35196046922721" fill="darkgreen" r="5.102040816326529" /><circle cx="157.58737747067303" cy="103.56741121645516" fill="darkgreen" r="5.102040816326529" /><circle cx="168.9432347742245" cy="103.56741121645516" fill="darkgreen" r="5.102040816326529" /><circle cx="180.0809095291659" cy="101.35196046922721" fill="darkgreen" r="5.102040816326529" /><circle cx="190.57235256307237" cy="97.00626707375876" fill="darkgreen" r="5.102040816326529" /><circle cx="200.01442230435458" cy="90.69729230274794" fill="darkgreen" r="5.102040816326529" /><circle cx="208.04423107825778" cy="82.66748352884474" fill="darkgreen" r="5.102040816326529" /><circle cx="214.2857142857143" cy="73.32641009159587" fill="darkgreen" r="5.102040816326529" /><circle cx="220.5271974931703" cy="82.66748352884474" fill="darkgreen" r="5.102040816326529" /><circle cx="228.5570062670735" cy="90.69729230274794" fill="darkgreen" r="5.102040816326529" /><circle cx="237.99907600835596" cy="97.00626707375876" fill="darkgreen" r="5.102040816326529" /><circle cx="248.49051904226215" cy="101.35196046922721" fill="darkgreen" r="5.102040816326529" /><circle cx="259.62819379720383" cy="103.56741121645516" fill="darkgreen" r="5.102040816326529" /><circle cx="270.98405110075504" cy="103.56741121645516" fill="darkgreen" r="5.102040816326529" /><circle cx="282.1217258556961" cy="101.35196046922721" fill="darkgreen" r="5.102040816326529" /><circle cx="292.6131688896029" cy="97.00626707375876" fill="darkgreen" r="5.102040816326529" /><circle cx="302.0552386308854" cy="90.69729230274794" fill="darkgreen" r="5.102040816326529" /><circle cx="310.0850474047886" cy="82.66748352884474" fill="darkgreen" r="5.102040816326529" /><circle cx="316.32653061224454" cy="73.32641009159587" fill="darkgreen" r="5.102040816326529" /><circle cx="322.5680138197011" cy="82.66748352884474" fill="darkgreen" r="5.102040816326529" /><circle cx="322.5680138197011" cy="82.66748352884474" fill="darkgreen" r="5.102040816326529" /><circle cx="330.5978225936043" cy="90.69729230274794" fill="darkgreen" r="5.102040816326529" /><circle cx="340.0398923348862" cy="97.00626707375876" fill="darkgreen" r="5.102040816326529" /><circle cx="350.53133536879295" cy="101.35196046922721" fill="darkgreen" r="5.102040816326529" /><circle cx="361.6690101237341" cy="103.56741121645516" fill="darkgreen" r="5.102040816326529" /><circle cx="373.02486742728587" cy="103.56741121645516" fill="darkgreen" r="5.102040816326529" /><circle cx="384.16254218222696" cy="101.35196046922721" fill="darkgreen" r="5.102040816326529" /><circle cx="394.65398521613315" cy="97.00626707375876" fill="darkgreen" r="5.102040816326529" /><circle cx="401.0525470030532" cy="92.73087739032636" fill="darkgreen" r="5.102040816326529" /><circle cx="401.0525871766028" cy="407.2691226096736" fill="darkgreen" r="5.102040816326529" /><circle cx="394.65398521613315" cy="402.9937329262412" fill="darkgreen" r="5.102040816326529" /><circle cx="384.16254218222696" cy="398.6480395307728" fill="darkgreen" r="5.102040816326529" /><circle cx="373.02486742728587" cy="396.4325887835448" fill="darkgreen" r="5.102040816326529" /><circle cx="361.6690101237341" cy="396.4325887835448" fill="darkgreen" r="5.102040816326529" /><circle cx="350.53133536879295" cy="398.6480395307728" fill="darkgreen" r="5.102040816326529" /><circle cx="340.0398923348862" cy="402.9937329262412" fill="darkgreen" r="5.102040816326529" /><circle cx="330.5978225936043" cy="409.30270769725206" fill="darkgreen" r="5.102040816326529" /><circle cx="322.5680138197011" cy="417.33251647115526" fill="darkgreen" r="5.102040816326529" /><circle cx="316.32653061224454" cy="426.6735899084044" fill="darkgreen" r="5.102040816326529" /><circle cx="310.0850474047886" cy="417.33251647115526" fill="darkgreen" r="5.102040816326529" /><circle cx="302.0552386308854" cy="409.30270769725206" fill="darkgreen" r="5.102040816326529" /><circle cx="292.6131688896029" cy="402.9937329262412" fill="darkgreen" r="5.102040816326529" /><circle cx="282.1217258556961" cy="398.6480395307728" fill="darkgreen" r="5.102040816326529" /><circle cx="270.98405110075504" cy="396.4325887835448" fill="darkgreen" r="5.102040816326529" /><circle cx="259.62819379720383" cy="396.4325887835448" fill="darkgreen" r="5.102040816326529" /><circle cx="248.49051904226215" cy="398.6480395307728" fill="darkgreen" r="5.102040816326529" /><circle cx="237.99907600835596" cy="402.9937329262412" fill="darkgreen" r="5.102040816326529" /><circle cx="228.5570062670735" cy="409.30270769725206" fill="darkgreen" r="5.102040816326529" /><circle cx="220.5271974931703" cy="417.33251647115526" fill="darkgreen" r="5.102040816326529" /><circle cx="214.2857142857143" cy="426.6735899084044" fill="darkgreen" r="5.102040816326529" /><circle cx="208.04423107825778" cy="417.33251647115526" fill="darkgreen" r="5.102040816326529" /><circle cx="200.01442230435458" cy="409.30270769725206" fill="darkgreen" r="5.102040816326529" /><circle cx="190.57235256307237" cy="402.9937329262412" fill="darkgreen" r="5.102040816326529" /><circle cx="180.0809095291659" cy="398.6480395307728" fill="darkgreen" r="5.102040816326529" /><circle cx="168.9432347742245" cy="396.4325887835448" fill="darkgreen" r="5.102040816326529" /><circle cx="157.58737747067303" cy="396.4325887835448" fill="darkgreen" r="5.102040816326529" /><circle cx="146.44970271573192" cy="398.6480395307728" fill="darkgreen" r="5.102040816326529" /><circle cx="135.95825968182544" cy="402.9937329262412" fill="darkgreen" r="5.102040816326529" /><circle cx="126.51618994054294" cy="409.30270769725206" fill="darkgreen" r="5.102040816326529" /><circle cx="118.53780331030042" cy="417.2810943274948" fill="darkgreen" r="5.102040816326529" /><circle cx="118.50441909047083" cy="416.9419090470832" fill="darkgreen" r="5.102040816326529" /><circle cx="117.04571749959825" cy="412.1332154909206" fill="darkgreen" r="5.102040816326529" /><circle cx="114.67688413948254" cy="407.70151052547004" fill="darkgreen" r="5.102040816326529" /><circle cx="111.48903262092236" cy="403.8170898280572" fill="darkgreen" r="5.102040816326529" /><circle cx="107.60461192350954" cy="400.62923830949705" fill="darkgreen" r="5.102040816326529" /><circle cx="103.17290695805869" cy="398.2604049493813" fill="darkgreen" r="5.102040816326529" /><circle cx="98.36421340189608" cy="396.80170335850875" fill="darkgreen" r="5.102040816326529" /><circle cx="93.3633295838019" cy="396.3091756387595" fill="darkgreen" r="5.102040816326529" /><circle cx="29.085650008034563" cy="396.3091756387595" fill="darkgreen" r="5.102040816326529" /><circle cx="27.518881568375175" cy="396.46348224329085" fill="darkgreen" r="5.102040816326529" /><circle cx="27.518881568375175" cy="92.73087739032636" fill="darkgreen" r="5.102040816326529" /><circle cx="33.91744335529491" cy="97.00626707375876" fill="darkgreen" r="5.102040816326529" /><circle cx="44.408886389201385" cy="101.35196046922721" fill="darkgreen" r="5.102040816326529" /><circle cx="55.5465611441425" cy="103.56741121645516" fill="darkgreen" r="5.102040816326529" /><circle cx="66.90241844769396" cy="103.56741121645516" fill="darkgreen" r="5.102040816326529" /><circle cx="78.04009320263536" cy="101.35196046922721" fill="darkgreen" r="5.102040816326529" /><circle cx="88.53153623654185" cy="97.00626707375876" fill="darkgreen" r="5.102040816326529" /><circle cx="97.97360597782405" cy="90.69729230274794" fill="darkgreen" r="5.102040816326529" /><circle cx="106.00341475172723" cy="82.66748352884474" fill="darkgreen" r="5.102040816326529" /><circle cx="112.2448979591835" cy="73.32641009159587" fill="darkgreen" r="5.102040816326529" /><circle cx="118.48638116663976" cy="82.66748352884474" fill="darkgreen" r="5.102040816326529" /><circle cx="126.51618994054294" cy="90.69729230274794" fill="darkgreen" r="5.102040816326529" /><circle cx="135.95825968182544" cy="97.00626707375876" fill="darkgreen" r="5.102040816326529" /><circle cx="146.44970271573192" cy="101.35196046922721" fill="darkgreen" r="5.102040816326529" /><circle cx="157.58737747067303" cy="103.56741121645516" fill="darkgreen" r="5.102040816326529" /><circle cx="168.9432347742245" cy="103.56741121645516" fill="darkgreen" r="5.102040816326529" /><circle cx="180.0809095291659" cy="101.35196046922721" fill="darkgreen" r="5.102040816326529" /><circle cx="190.57235256307237" cy="97.00626707375876" fill="darkgreen" r="5.102040816326529" /><circle cx="200.01442230435458" cy="90.69729230274794" fill="darkgreen" r="5.102040816326529" /><circle cx="208.04423107825778" cy="82.66748352884474" fill="darkgreen" r="5.102040816326529" /><circle cx="214.2857142857143" cy="73.32641009159587" fill="darkgreen" r="5.102040816326529" /><circle cx="220.5271974931703" cy="82.66748352884474" fill="darkgreen" r="5.102040816326529" /><circle cx="228.5570062670735" cy="90.69729230274794" fill="darkgreen" r="5.102040816326529" /><circle cx="237.99907600835596" cy="97.00626707375876" fill="darkgreen" r="5.102040816326529" /><circle cx="248.49051904226215" cy="101.35196046922721" fill="darkgreen" r="5.102040816326529" /><circle cx="259.62819379720383" cy="103.56741121645516" fill="darkgreen" r="5.102040816326529" /><circle cx="270.98405110075504" cy="103.56741121645516" fill="darkgreen" r="5.102040816326529" /><circle cx="282.1217258556961" cy="101.35196046922721" fill="darkgreen" r="5.102040816326529" /><circle cx="292.6131688896029" cy="97.00626707375876" fill="darkgreen" r="5.102040816326529" /><circle cx="302.0552386308854" cy="90.69729230274794" fill="darkgreen" r="5.102040816326529" /><circle cx="310.0850474047886" cy="82.66748352884474" fill="darkgreen" r="5.102040816326529" /><circle cx="316.32653061224454" cy="73.32641009159587" fill="darkgreen" r="5.102040816326529" /><circle cx="322.5680138197011" cy="82.66748352884474" fill="darkgreen" r="5.102040816326529" /><path d="M322.5680138197011,82.66748352884474L330.5978225936043,90.69729230274794L340.0398923348862,97.00626707375876L350.53133536879295,101.35196046922721L361.6690101237341,103.56741121645516L373.02486742728587,103.56741121645516L384.16254218222696,101.35196046922721L394.65398521613315,97.00626707375876L401.0525470030532,92.73087739032636L401.0525871766028,407.2691226096736L394.65398521613315,402.9937329262412L384.16254218222696,398.6480395307728L373.02486742728587,396.4325887835448L361.6690101237341,396.4325887835448L350.53133536879295,398.6480395307728L340.0398923348862,402.9937329262412L330.5978225936043,409.30270769725206L322.5680138197011,417.33251647115526L316.32653061224454,426.6735899084044L310.0850474047886,417.33251647115526L302.0552386308854,409.30270769725206L292.6131688896029,402.9937329262412L282.1217258556961,398.6480395307728L270.98405110075504,396.4325887835448L259.62819379720383,396.4325887835448L248.49051904226215,398.6480395307728L237.99907600835596,402.9937329262412L228.5570062670735,409.30270769725206L220.5271974931703,417.33251647115526L214.2857142857143,426.6735899084044L208.04423107825778,417.33251647115526L200.01442230435458,409.30270769725206L190.57235256307237,402.9937329262412L180.0809095291659,398.6480395307728L168.9432347742245,396.4325887835448L157.58737747067303,396.4325887835448L146.44970271573192,398.6480395307728L135.95825968182544,402.9937329262412L126.51618994054294,409.30270769725206L118.53780331030042,417.2810943274948L118.50441909047083,416.9419090470832L117.04571749959825,412.1332154909206L114.67688413948254,407.70151052547004L111.48903262092236,403.8170898280572L107.60461192350954,400.62923830949705L103.17290695805869,398.2604049493813L98.36421340189608,396.80170335850875L93.3633295838019,396.3091756387595L29.085650008034563,396.3091756387595L27.518881568375175,396.46348224329085L27.518881568375175,92.73087739032636L33.91744335529491,97.00626707375876L44.408886389201385,101.35196046922721L55.5465611441425,103.56741121645516L66.90241844769396,103.56741121645516L78.04009320263536,101.35196046922721L88.53153623654185,97.00626707375876L97.97360597782405,90.69729230274794L106.00341475172723,82.66748352884474L112.2448979591835,73.32641009159587L118.48638116663976,82.66748352884474L126.51618994054294,90.69729230274794L135.95825968182544,97.00626707375876L146.44970271573192,101.35196046922721L157.58737747067303,103.56741121645516L168.9432347742245,103.56741121645516L180.0809095291659,101.35196046922721L190.57235256307237,97.00626707375876L200.01442230435458,90.69729230274794L208.04423107825778,82.66748352884474L214.2857142857143,73.32641009159587L220.5271974931703,82.66748352884474L228.5570062670735,90.69729230274794L237.99907600835596,97.00626707375876L248.49051904226215,101.35196046922721L259.62819379720383,103.56741121645516L270.98405110075504,103.56741121645516L282.1217258556961,101.35196046922721L292.6131688896029,97.00626707375876L302.0552386308854,90.69729230274794L310.0850474047886,82.66748352884474L316.32653061224454,73.32641009159587L322.5680138197011,82.66748352884474M322.5680138197011,82.66748352884474L330.5978225936043,90.69729230274794L340.0398923348862,97.00626707375876L350.53133536879295,101.35196046922721L361.6690101237341,103.56741121645516L373.02486742728587,103.56741121645516L384.16254218222696,101.35196046922721L394.65398521613315,97.00626707375876L401.0525470030532,92.73087739032636L401.0525871766028,407.2691226096736L394.65398521613315,402.9937329262412L384.16254218222696,398.6480395307728L373.02486742728587,396.4325887835448L361.6690101237341,396.4325887835448L350.53133536879295,398.6480395307728L340.0398923348862,402.9937329262412L330.5978225936043,409.30270769725206L322.5680138197011,417.33251647115526L316.32653061224454,426.6735899084044L310.0850474047886,417.33251647115526L302.0552386308854,409.30270769725206L292.6131688896029,402.9937329262412L282.1217258556961,398.6480395307728L270.98405110075504,396.4325887835448L259.62819379720383,396.4325887835448L248.49051904226215,398.6480395307728L237.99907600835596,402.9937329262412L228.5570062670735,409.30270769725206L220.5271974931703,417.33251647115526L214.2857142857143,426.6735899084044L208.04423107825778,417.33251647115526L200.01442230435458,409.30270769725206L190.57235256307237,402.9937329262412L180.0809095291659,398.6480395307728L168.9432347742245,396.4325887835448L157.58737747067303,396.4325887835448L146.44970271573192,398.6480395307728L135.95825968182544,402.9937329262412L126.51618994054294,409.30270769725206L118.53780331030042,417.2810943274948L118.50441909047083,416.9419090470832L117.04571749959825,412.1332154909206L114.67688413948254,407.70151052547004L111.48903262092236,403.8170898280572L107.60461192350954,400.62923830949705L103.17290695805869,398.2604049493813L98.36421340189608,396.80170335850875L93.3633295838019,396.3091756387595L29.085650008034563,396.3091756387595L27.518881568375175,396.46348224329085L27.518881568375175,92.73087739032636L33.91744335529491,97.00626707375876L44.408886389201385,101.35196046922721L55.5465611441425,103.56741121645516L66.90241844769396,103.56741121645516L78.04009320263536,101.35196046922721L88.53153623654185,97.00626707375876L97.97360597782405,90.69729230274794L106.00341475172723,82.66748352884474L112.2448979591835,73.32641009159587L118.48638116663976,82.66748352884474L126.51618994054294,90.69729230274794L135.95825968182544,97.00626707375876L146.44970271573192,101.35196046922721L157.58737747067303,103.56741121645516L168.9432347742245,103.56741121645516L180.0809095291659,101.35196046922721L190.57235256307237,97.00626707375876L200.01442230435458,90.69729230274794L208.04423107825778,82.66748352884474L214.2857142857143,73.32641009159587L220.5271974931703,82.66748352884474L228.5570062670735,90.69729230274794L237.99907600835596,97.00626707375876L248.49051904226215,101.35196046922721L259.62819379720383,103.56741121645516L270.98405110075504,103.56741121645516L282.1217258556961,101.35196046922721L292.6131688896029,97.00626707375876L302.0552386308854,90.69729230274794L310.0850474047886,82.66748352884474L316.32653061224454,73.32641009159587L322.5680138197011,82.66748352884474" fill="none" stroke="darkgreen" stroke-width="10.204081632653057" /><ellipse cx="61.22448979591837" cy="45.91836734693878" fill="grey" rx="34.14751727462637" ry="34.14751727462637" /><ellipse cx="367.34693877550967" cy="454.0816326530612" fill="grey" rx="34.14751727462637" ry="34.14751727462637" /><ellipse cx="163.26530612244892" cy="45.91836734693878" fill="grey" rx="34.14751727462637" ry="34.14751727462637" /><ellipse cx="265.30612244897947" cy="454.0816326530612" fill="grey" rx="34.14751727462637" ry="34.14751727462637" /><ellipse cx="265.30612244897947" cy="45.91836734693878" fill="grey" rx="34.14751727462637" ry="34.14751727462637" /><ellipse cx="163.26530612244892" cy="454.0816326530612" fill="grey" rx="34.14751727462637" ry="34.14751727462637" /><ellipse cx="367.34693877550967" cy="45.91836734693878" fill="grey" rx="34.14751727462637" ry="34.14751727462637" /><rect fill="grey" height="68.29503454925273" width="68.29503454925273" x="27.076972521292006" y="419.93411537843485" /><circle cx="61.22448979591837" cy="45.91836734693878" fill="black" r="16.069419893941824" /><circle cx="61.22448979591837" cy="454.0816326530612" fill="black" r="16.069419893941824" /><circle cx="163.26530612244892" cy="45.91836734693878" fill="black" r="16.069419893941824" /><circle cx="163.26530612244892" cy="454.0816326530612" fill="black" r="16.069419893941824" /><circle cx="265.30612244897947" cy="45.91836734693878" fill="black" r="16.069419893941824" /><circle cx="265.30612244897947" cy="454.0816326530612" fill="black" r="16.069419893941824" /><circle cx="367.34693877550967" cy="45.91836734693878" fill="black" r="16.069419893941824" /><circle cx="367.34693877550967" cy="454.0816326530612" fill="black" r="16.069419893941824" /></svg>