<?xml version="1.0" encoding="utf-8" ?>
<svg baseProfile="full" height="500.0" version="1.1" width="428.57142857142804" xmlns="http://www.w3.org/2000/svg" xmlns:ev="http://www.w3.org/2001/xml-events" xmlns:xlink="http://www.w3.org/1999/xlink"><defs /><rect fill="green" height="500.0" width="428.57142857142804" x="0" y="0" /><path d="M274.54603888799613,179.49542021533028L274.54603888799613,167.44335529487404A 6.0260324602281825 6.0260324602281825 0 0 1 280.572071348224 161.41732283464563L346.85842841073423,161.41732283464563A 6.0260324602281825 6.0260324602281825 0 0 1 352.8844608709621 167.44335529487404L352.8844608709621,179.49542021533028A 6.0260324602281825 6.0260324602281825 0 0 1 346.85842841073423 185.5214526755584L280.572071348224,185.5214526755584A 6.0260324602281825 6.0260324602281825 0 0 1 274.54603888799613 179.49542021533028 Z" fill="darkgreen" stroke="none" /><path d="M274.54603888799613,230.5158283785957L274.54603888799613,218.46376345813917A 6.0260324602281825 6.0260324602281825 0 0 1 280.572071348224 212.43773099791105L346.85842841073423,212.43773099791105A 6.0260324602281825 6.0260324602281825 0 0 1 352.8844608709621 218.46376345813917L352.8844608709621,230.5158283785957A 6.0260324602281825 6.0260324602281825 0 0 1 346.85842841073423 236.54186083882382L280.572071348224,236.54186083882382A 6.0260324602281825 6.0260324602281825 0 0 1 274.54603888799613 230.5158283785957 Z" fill="darkgreen" stroke="none" /><path d="M274.54603888799613,281.53623654186083L274.54603888799613,269.4841716214046A 6.0260324602281825 6.0260324602281825 0 0 1 280.572071348224 263.4581391611762L346.85842841073423,263.4581391611762A 6.0260324602281825 6.0260324602281825 0 0 1 352.8844608709621 269.4841716214046L352.8844608709621,281.53623654186083A 6.0260324602281825 6.0260324602281825 0 0 1 346.85842841073423 287.56226900208895L280.572071348224,287.56226900208895A 6.0260324602281825 6.0260324602281825 0 0 1 274.54603888799613 281.53623654186083 Z" fill="darkgreen" stroke="none" /><path d="M274.54603888799613,332.55664470512625L274.54603888799613,320.5045797846697A 6.0260324602281825 6.0260324602281825 0 0 1 280.572071348224 314.4785473244416L346.85842841073423,314.4785473244416A 6.0260324602281825 6.0260324602281825 0 0 1 352.8844608709621 320.5045797846697L352.8844608709621,332.55664470512625A 6.0260324602281825 6.0260324602281825 0 0 1 346.85842841073423 338.58267716535437L280.572071348224,338.58267716535437A 6.0260324602281825 6.0260324602281825 0 0 1 274.54603888799613 332.55664470512625 Z" fill="darkgreen" stroke="none" /><path d="M75.686967700466,332.55664470512625L75.686967700466,320.5045797846697A 6.0260324602281825 6.0260324602281825 0 0 1 81.71300016069412 314.4785473244416L147.99935722320407,314.4785473244416A 6.0260324602281825 6.0260324602281825 0 0 1 154.0253896834322 320.5045797846697L154.0253896834322,332.55664470512625A 6.0260324602281825 6.0260324602281825 0 0 1 147.99935722320407 338.58267716535437L81.71300016069412,338.58267716535437A 6.0260324602281825 6.0260324602281825 0 0 1 75.686967700466 332.55664470512625 Z" fill="darkgreen" stroke="none" /><path d="M75.686967700466,281.53623654186083L75.686967700466,269.4841716214046A 6.0260324602281825 6.0260324602281825 0 0 1 81.71300016069412 263.4581391611762L147.99935722320407,263.4581391611762A 6.0260324602281825 6.0260324602281825 0 0 1 154.0253896834322 269.4841716214046L154.0253896834322,281.53623654186083A 6.0260324602281825 6.0260324602281825 0 0 1 147.99935722320407 287.56226900208895L81.71300016069412,287.56226900208895A 6.0260324602281825 6.0260324602281825 0 0 1 75.686967700466 281.53623654186083 Z" fill="darkgreen" stroke="none" /><path d="M75.686967700466,230.5158283785957L75.686967700466,218.46376345813917A 6.0260324602281825 6.0260324602281825 0 0 1 81.71300016069412 212.43773099791105L147.99935722320407,212.43773099791105A 6.0260324602281825 6.0260324602281825 0 0 1 154.0253896834322 218.46376345813917L154.0253896834322,230.5158283785957A 6.0260324602281825 6.0260324602281825 0 0 1 147.99935722320407 236.54186083882382L81.71300016069412,236.54186083882382A 6.0260324602281825 6.0260324602281825 0 0 1 75.686967700466 230.5158283785957 Z" fill="darkgreen" stroke="none" /><path d="M75.686967700466,179.49542021533028L75.686967700466,167.44335529487404A 6.0260324602281825 6.0260324602281825 0 0 1 81.71300016069412 161.41732283464563L147.99935722320407,161.41732283464563A 6.0260324602281825 6.0260324602281825 0 0 1 154.0253896834322 167.44335529487404L154.0253896834322,179.49542021533028A 6.0260324602281825 6.0260324602281825 0 0 1 147.99935722320407 185.5214526755584L81.71300016069412,185.5214526755584A 6.0260324602281825 6.0260324602281825 0 0 1 75.686967700466 179.49542021533028 Z" fill="darkgreen" stroke="none" /><rect fill="darkgreen" height="120.52064920456365" width="91.99742889281693" x="168.28699983930585" y="189.73967539771832" /><ellipse cx="61.22448979591837" cy="45.91836734693878" fill="darkgreen" rx="32.13883978788365" ry="32.13883978788365" /><ellipse cx="367.34693877550967" cy="454.0816326530612" fill="darkgreen" rx="32.13883978788365" ry="32.13883978788365" /><ellipse cx="163.26530612244892" cy="45.91836734693878" fill="darkgreen" rx="32.13883978788365" ry="32.13883978788365" /><ellipse cx="265.30612244897947" cy="454.0816326530612" fill="darkgreen" rx="32.13883978788365" ry="32.13883978788365" /><ellipse cx="265.30612244897947" cy="45.91836734693878" fill="darkgreen" rx="32.13883978788365" ry="32.13883978788365" /><ellipse cx="163.26530612244892" cy="454.0816326530612" fill="darkgreen" rx="32.13883978788365" ry="32.13883978788365" /><ellipse cx="367.34693877550967" cy="45.91836734693878" fill="darkgreen" rx="32.13883978788365" ry="32.13883978788365" /><rect fill="darkgreen" height="64.2776795757673" width="64.2776795757673" x="29.085650008034726" y="421.9427928651776" /><circle cx="114.85617869194895" cy="173.46938775510216" fill="darkgreen" r="5.021693716856819" /><circle cx="35.71428571428553" cy="173.46938775510216" fill="darkgreen" r="5.021693716856819" /><circle cx="35.71428571428553" cy="173.46938775510216" fill="darkgreen" r="5.021693716856819" /><circle cx="10.204081632652967" cy="198.97959183673473" fill="darkgreen" r="5.021693716856819" /><circle cx="10.204081632652967" cy="403.0612244897958" fill="darkgreen" r="5.021693716856819" /><circle cx="61.22448979591837" cy="454.0816326530612" fill="darkgreen" r="5.021693716856819" /><circle cx="10.204081632652967" cy="198.97959183673473" fill="darkgreen" r="5.021693716856819" /><circle cx="10.204081632652967" cy="403.0612244897958" fill="darkgreen" r="5.021693716856819" /><circle cx="114.85617869194895" cy="224.4897959183673" fill="darkgreen" r="5.021693716856819" /><circle cx="61.22448979591837" cy="224.4897959183673" fill="darkgreen" r="5.021693716856819" /><circle cx="61.22448979591837" cy="224.4897959183673" fill="darkgreen" r="5.021693716856819" /><circle cx="35.71428571428553" cy="250.00000000000014" fill="darkgreen" r="5.021693716856819" /><circle cx="35.71428571428553" cy="250.00000000000014" fill="darkgreen" r="5.021693716856819" /><circle cx="35.71428571428553" cy="377.5510204081632" fill="darkgreen" r="5.021693716856819" /><circle cx="35.71428571428553" cy="377.5510204081632" fill="darkgreen" r="5.021693716856819" /><circle cx="61.22448979591837" cy="403.0612244897958" fill="darkgreen" r="5.021693716856819" /><circle cx="112.2448979591835" cy="403.0612244897958" fill="darkgreen" r="5.021693716856819" /><circle cx="163.26530612244892" cy="454.0816326530612" fill="darkgreen" r="5.021693716856819" /><circle cx="61.22448979591837" cy="403.0612244897958" fill="darkgreen" r="5.021693716856819" /><circle cx="112.2448979591835" cy="403.0612244897958" fill="darkgreen" r="5.021693716856819" /><circle cx="188.77551020408146" cy="377.5510204081632" fill="darkgreen" r="5.021693716856819" /><circle cx="265.30612244897947" cy="454.0816326530612" fill="darkgreen" r="5.021693716856819" /><circle cx="114.85617869194895" cy="275.5102040816327" fill="darkgreen" r="5.021693716856819" /><circle cx="86.73469387755094" cy="275.5102040816327" fill="darkgreen" r="5.021693716856819" /><circle cx="61.22448979591837" cy="301.02040816326524" fill="darkgreen" r="5.021693716856819" /><circle cx="61.22448979591837" cy="352.04081632653066" fill="darkgreen" r="5.021693716856819" /><circle cx="86.73469387755094" cy="275.5102040816327" fill="darkgreen" r="5.021693716856819" /><circle cx="61.22448979591837" cy="301.02040816326524" fill="darkgreen" r="5.021693716856819" /><circle cx="61.22448979591837" cy="352.04081632653066" fill="darkgreen" r="5.021693716856819" /><circle cx="86.73469387755094" cy="377.5510204081632" fill="darkgreen" r="5.021693716856819" /><circle cx="86.73469387755094" cy="377.5510204081632" fill="darkgreen" r="5.021693716856819" /><circle cx="188.77551020408146" cy="377.5510204081632" fill="darkgreen" r="5.021693716856819" /><circle cx="114.85617869194895" cy="326.53061224489784" fill="darkgreen" r="5.021693716856819" /><circle cx="188.77551020408146" cy="326.53061224489784" fill="darkgreen" r="5.021693716856819" /><circle cx="188.77551020408146" cy="326.53061224489784" fill="darkgreen" r="5.021693716856819" /><circle cx="239.7959183673466" cy="377.5510204081632" fill="darkgreen" r="5.021693716856819" /><circle cx="290.8163265306123" cy="377.5510204081632" fill="darkgreen" r="5.021693716856819" /><circle cx="367.34693877550967" cy="454.0816326530612" fill="darkgreen" r="5.021693716856819" /><circle cx="239.7959183673466" cy="377.5510204081632" fill="darkgreen" r="5.021693716856819" /><circle cx="290.8163265306123" cy="377.5510204081632" fill="darkgreen" r="5.021693716856819" /><circle cx="313.71524987947913" cy="326.53061224489784" fill="darkgreen" r="5.021693716856819" /><circle cx="392.85714285714255" cy="326.53061224489784" fill="darkgreen" r="5.021693716856819" /><circle cx="392.85714285714255" cy="326.53061224489784" fill="darkgreen" r="5.021693716856819" /><circle cx="418.36734693877537" cy="301.02040816326524" fill="darkgreen" r="5.021693716856819" /><circle cx="418.36734693877537" cy="96.9387755102042" fill="darkgreen" r="5.021693716856819" /><circle cx="367.34693877550967" cy="45.91836734693878" fill="darkgreen" r="5.021693716856819" /><circle cx="418.36734693877537" cy="301.02040816326524" fill="darkgreen" r="5.021693716856819" /><circle cx="418.36734693877537" cy="96.9387755102042" fill="darkgreen" r="5.021693716856819" /><circle cx="367.34693877550967" cy="275.5102040816327" fill="darkgreen" r="5.021693716856819" /><circle cx="392.85714285714255" cy="250.00000000000014" fill="darkgreen" r="5.021693716856819" /><circle cx="313.71524987947913" cy="275.5102040816327" fill="darkgreen" r="5.021693716856819" /><circle cx="367.34693877550967" cy="275.5102040816327" fill="darkgreen" r="5.021693716856819" /><circle cx="392.85714285714255" cy="250.00000000000014" fill="darkgreen" r="5.021693716856819" /><circle cx="392.85714285714255" cy="122.44897959183675" fill="darkgreen" r="5.021693716856819" /><circle cx="367.34693877550967" cy="96.9387755102042" fill="darkgreen" r="5.021693716856819" /><circle cx="316.32653061224454" cy="96.9387755102042" fill="darkgreen" r="5.021693716856819" /><circle cx="316.32653061224454" cy="96.9387755102042" fill="darkgreen" r="5.021693716856819" /><circle cx="265.30612244897947" cy="45.91836734693878" fill="darkgreen" r="5.021693716856819" /><circle cx="392.85714285714255" cy="122.44897959183675" fill="darkgreen" r="5.021693716856819" /><circle cx="367.34693877550967" cy="96.9387755102042" fill="darkgreen" r="5.021693716856819" /><circle cx="313.71524987947913" cy="224.4897959183673" fill="darkgreen" r="5.021693716856819" /><circle cx="341.8367346938774" cy="224.4897959183673" fill="darkgreen" r="5.021693716856819" /><circle cx="341.8367346938774" cy="224.4897959183673" fill="darkgreen" r="5.021693716856819" /><circle cx="367.34693877550967" cy="198.97959183673473" fill="darkgreen" r="5.021693716856819" /><circle cx="367.34693877550967" cy="198.97959183673473" fill="darkgreen" r="5.021693716856819" /><circle cx="367.34693877550967" cy="147.9591836734693" fill="darkgreen" r="5.021693716856819" /><circle cx="367.34693877550967" cy="147.9591836734693" fill="darkgreen" r="5.021693716856819" /><circle cx="341.8367346938774" cy="122.44897959183675" fill="darkgreen" r="5.021693716856819" /><circle cx="341.8367346938774" cy="122.44897959183675" fill="darkgreen" r="5.021693716856819" /><circle cx="239.7959183673466" cy="122.44897959183675" fill="darkgreen" r="5.021693716856819" /><circle cx="239.7959183673466" cy="122.44897959183675" fill="darkgreen" r="5.021693716856819" /><circle cx="163.26530612244892" cy="45.91836734693878" fill="darkgreen" r="5.021693716856819" /><circle cx="313.71524987947913" cy="173.46938775510216" fill="darkgreen" r="5.021693716856819" /><circle cx="214.2857142857143" cy="173.46938775510216" fill="darkgreen" r="5.021693716856819" /><circle cx="214.2857142857143" cy="173.46938775510216" fill="darkgreen" r="5.021693716856819" /><circle cx="163.26530612244892" cy="122.44897959183675" fill="darkgreen" r="5.021693716856819" /><circle cx="137.75510204081607" cy="122.44897959183675" fill="darkgreen" r="5.021693716856819" /><circle cx="61.22448979591837" cy="45.91836734693878" fill="darkgreen" r="5.021693716856819" /><circle cx="163.26530612244892" cy="122.44897959183675" fill="darkgreen" r="5.021693716856819" /><circle cx="137.75510204081607" cy="122.44897959183675" fill="darkgreen" r="5.021693716856819" /><path d="M114.85617869194895,173.46938775510216L35.71428571428553,173.46938775510216M35.71428571428553,173.46938775510216L10.204081632652967,198.97959183673473M10.204081632652967,403.0612244897958L61.22448979591837,454.0816326530612M10.204081632652967,198.97959183673473L10.204081632652967,403.0612244897958M114.85617869194895,224.4897959183673L61.22448979591837,224.4897959183673M61.22448979591837,224.4897959183673L35.71428571428553,250.00000000000014M35.71428571428553,250.00000000000014L35.71428571428553,377.5510204081632M35.71428571428553,377.5510204081632L61.22448979591837,403.0612244897958M112.2448979591835,403.0612244897958L163.26530612244892,454.0816326530612M61.22448979591837,403.0612244897958L112.2448979591835,403.0612244897958M188.77551020408146,377.5510204081632L265.30612244897947,454.0816326530612M114.85617869194895,275.5102040816327L86.73469387755094,275.5102040816327M61.22448979591837,301.02040816326524L61.22448979591837,352.04081632653066M86.73469387755094,275.5102040816327L61.22448979591837,301.02040816326524M61.22448979591837,352.04081632653066L86.73469387755094,377.5510204081632M86.73469387755094,377.5510204081632L188.77551020408146,377.5510204081632M114.85617869194895,326.53061224489784L188.77551020408146,326.53061224489784M188.77551020408146,326.53061224489784L239.7959183673466,377.5510204081632M290.8163265306123,377.5510204081632L367.34693877550967,454.0816326530612M239.7959183673466,377.5510204081632L290.8163265306123,377.5510204081632M313.71524987947913,326.53061224489784L392.85714285714255,326.53061224489784M392.85714285714255,326.53061224489784L418.36734693877537,301.02040816326524M418.36734693877537,96.9387755102042L367.34693877550967,45.91836734693878M418.36734693877537,301.02040816326524L418.36734693877537,96.9387755102042M367.34693877550967,275.5102040816327L392.85714285714255,250.00000000000014M313.71524987947913,275.5102040816327L367.34693877550967,275.5102040816327M392.85714285714255,250.00000000000014L392.85714285714255,122.44897959183675M367.34693877550967,96.9387755102042L316.32653061224454,96.9387755102042M316.32653061224454,96.9387755102042L265.30612244897947,45.91836734693878M392.85714285714255,122.44897959183675L367.34693877550967,96.9387755102042M313.71524987947913,224.4897959183673L341.8367346938774,224.4897959183673M341.8367346938774,224.4897959183673L367.34693877550967,198.97959183673473M367.34693877550967,198.97959183673473L367.34693877550967,147.9591836734693M367.34693877550967,147.9591836734693L341.8367346938774,122.44897959183675M341.8367346938774,122.44897959183675L239.7959183673466,122.44897959183675M239.7959183673466,122.44897959183675L163.26530612244892,45.91836734693878M313.71524987947913,173.46938775510216L214.2857142857143,173.46938775510216M214.2857142857143,173.46938775510216L163.26530612244892,122.44897959183675M137.75510204081607,122.44897959183675L61.22448979591837,45.91836734693878M163.26530612244892,122.44897959183675L137.75510204081607,122.44897959183675" fill="none" stroke="darkgreen" stroke-width="10.043387433713638" /><path d="M272.53736140125295,180.4997589587016L272.53736140125295,166.43901655150245A 7.030371203599547 7.030371203599547 0 0 1 279.56773260485295 159.40864534790302L347.86276715410526,159.40864534790302A 7.030371203599547 7.030371203599547 0 0 1 354.89313835770525 166.43901655150245L354.89313835770525,180.4997589587016A 7.030371203599547 7.030371203599547 0 0 1 347.86276715410526 187.5301301623013L279.56773260485295,187.5301301623013A 7.030371203599547 7.030371203599547 0 0 1 272.53736140125295 180.4997589587016 Z" fill="grey" stroke="none" /><path d="M272.53736140125295,231.520167121967L272.53736140125295,217.45942471476786A 7.030371203599547 7.030371203599547 0 0 1 279.56773260485295 210.4290535111684L347.86276715410526,210.4290535111684A 7.030371203599547 7.030371203599547 0 0 1 354.89313835770525 217.45942471476786L354.89313835770525,231.520167121967A 7.030371203599547 7.030371203599547 0 0 1 347.86276715410526 238.55053832556644L279.56773260485295,238.55053832556644A 7.030371203599547 7.030371203599547 0 0 1 272.53736140125295 231.520167121967 Z" fill="grey" stroke="none" /><path d="M272.53736140125295,282.54057528523214L272.53736140125295,268.479832878033A 7.030371203599547 7.030371203599547 0 0 1 279.56773260485295 261.44946167443356L347.86276715410526,261.44946167443356A 7.030371203599547 7.030371203599547 0 0 1 354.89313835770525 268.479832878033L354.89313835770525,282.54057528523214A 7.030371203599547 7.030371203599547 0 0 1 347.86276715410526 289.57094648883185L279.56773260485295,289.57094648883185A 7.030371203599547 7.030371203599547 0 0 1 272.53736140125295 282.54057528523214 Z" fill="grey" stroke="none" /><path d="M272.53736140125295,333.56098344849755L272.53736140125295,319.5002410412984A 7.030371203599547 7.030371203599547 0 0 1 279.56773260485295 312.4698698376989L347.86276715410526,312.4698698376989A 7.030371203599547 7.030371203599547 0 0 1 354.89313835770525 319.5002410412984L354.89313835770525,333.56098344849755A 7.030371203599547 7.030371203599547 0 0 1 347.86276715410526 340.591354652097L279.56773260485295,340.591354652097A 7.030371203599547 7.030371203599547 0 0 1 272.53736140125295 333.56098344849755 Z" fill="grey" stroke="none" /><path d="M73.67829021372309,333.56098344849755L73.67829021372309,319.5002410412984A 7.030371203599547 7.030371203599547 0 0 1 80.70866141732282 312.4698698376989L149.00369596657538,312.4698698376989A 7.030371203599547 7.030371203599547 0 0 1 156.0340671701751 319.5002410412984L156.0340671701751,333.56098344849755A 7.030371203599547 7.030371203599547 0 0 1 149.00369596657538 340.591354652097L80.70866141732282,340.591354652097A 7.030371203599547 7.030371203599547 0 0 1 73.67829021372309 333.56098344849755 Z" fill="grey" stroke="none" /><path d="M73.67829021372309,282.54057528523214L73.67829021372309,268.479832878033A 7.030371203599547 7.030371203599547 0 0 1 80.70866141732282 261.44946167443356L149.00369596657538,261.44946167443356A 7.030371203599547 7.030371203599547 0 0 1 156.0340671701751 268.479832878033L156.0340671701751,282.54057528523214A 7.030371203599547 7.030371203599547 0 0 1 149.00369596657538 289.57094648883185L80.70866141732282,289.57094648883185A 7.030371203599547 7.030371203599547 0 0 1 73.67829021372309 282.54057528523214 Z" fill="grey" stroke="none" /><path d="M73.67829021372309,231.520167121967L73.67829021372309,217.45942471476786A 7.030371203599547 7.030371203599547 0 0 1 80.70866141732282 210.4290535111684L149.00369596657538,210.4290535111684A 7.030371203599547 7.030371203599547 0 0 1 156.0340671701751 217.45942471476786L156.0340671701751,231.520167121967A 7.030371203599547 7.030371203599547 0 0 1 149.00369596657538 238.55053832556644L80.70866141732282,238.55053832556644A 7.030371203599547 7.030371203599547 0 0 1 73.67829021372309 231.520167121967 Z" fill="grey" stroke="none" /><path d="M73.67829021372309,180.4997589587016L73.67829021372309,166.43901655150245A 7.030371203599547 7.030371203599547 0 0 1 80.70866141732282 159.40864534790302L149.00369596657538,159.40864534790302A 7.030371203599547 7.030371203599547 0 0 1 156.0340671701751 166.43901655150245L156.0340671701751,180.4997589587016A 7.030371203599547 7.030371203599547 0 0 1 149.00369596657538 187.5301301623013L80.70866141732282,187.5301301623013A 7.030371203599547 7.030371203599547 0 0 1 73.67829021372309 180.4997589587016 Z" fill="grey" stroke="none" /><rect fill="grey" height="124.53800417804912" width="96.0147838663024" x="166.27832235256312" y="187.7309979109756" /><ellipse cx="61.22448979591837" cy="45.91836734693878" fill="grey" rx="34.14751727462637" ry="34.14751727462637" /><ellipse cx="367.34693877550967" cy="454.0816326530612" fill="grey" rx="34.14751727462637" ry="34.14751727462637" /><ellipse cx="163.26530612244892" cy="45.91836734693878" fill="grey" rx="34.14751727462637" ry="34.14751727462637" /><ellipse cx="265.30612244897947" cy="454.0816326530612" fill="grey" rx="34.14751727462637" ry="34.14751727462637" /><ellipse cx="265.30612244897947" cy="45.91836734693878" fill="grey" rx="34.14751727462637" ry="34.14751727462637" /><ellipse cx="163.26530612244892" cy="454.0816326530612" fill="grey" rx="34.14751727462637" ry="34.14751727462637" /><ellipse cx="367.34693877550967" cy="45.91836734693878" fill="grey" rx="34.14751727462637" ry="34.14751727462637" /><rect fill="grey" height="68.29503454925273" width="68.29503454925273" x="27.076972521292006" y="419.93411537843485" /><circle cx="96.6500080347098" cy="137.75510204081635" fill="white" r="2.410412984091273" /><circle cx="135.71428571428564" cy="147.67037602442556" fill="white" r="2.410412984091273" /><circle cx="132.65306122448973" cy="352.04081632653066" fill="white" r="2.410412984091273" /><circle cx="132.65306122448973" cy="352.04081632653066" fill="white" r="2.410412984091273" /><circle cx="295.9183673469386" cy="352.04081632653066" fill="white" r="2.410412984091273" /><circle cx="295.9183673469386" cy="352.04081632653066" fill="white" r="2.410412984091273" /><circle cx="295.9183673469386" cy="147.9591836734693" fill="white" r="2.410412984091273" /><circle cx="295.9183673469386" cy="147.9591836734693" fill="white" r="2.410412984091273" /><circle cx="135.71428571428564" cy="147.67037602442556" fill="white" r="2.410412984091273" /><path d="M96.6500080347098,137.75510204081635M135.71428571428564,147.67037602442556L132.65306122448973,352.04081632653066M132.65306122448973,352.04081632653066L295.9183673469386,352.04081632653066M295.9183673469386,352.04081632653066L295.9183673469386,147.9591836734693M295.9183673469386,147.9591836734693L135.71428571428564,147.67037602442556" fill="none" stroke="white" stroke-width="4.820825968182546" /><circle cx="61.22448979591837" cy="45.91836734693878" fill="black" r="16.069419893941824" /><circle cx="61.22448979591837" cy="454.0816326530612" fill="black" r="16.069419893941824" /><circle cx="163.26530612244892" cy="45.91836734693878" fill="black" r="16.069419893941824" /><circle cx="163.26530612244892" cy="454.0816326530612" fill="black" r="16.069419893941824" /><circle cx="265.30612244897947" cy="45.91836734693878" fill="black" r="16.069419893941824" /><circle cx="265.30612244897947" cy="454.0816326530612" fill="black" r="16.069419893941824" /><circle cx="367.34693877550967" cy="45.91836734693878" fill="black" r="16.069419893941824" /><circle cx="367.34693877550967" cy="454.0816326530612" fill="black" r="16.069419893941824" /></svg>