M48
;GenerationSoftware,Autodesk,EAGLE,9.6.2*%
;CreationDate,2020-10-27T17:34:18Z*%
FMAT,2
ICI,OFF
METRIC,TZ,000.000
T1C0.381
%
G90
M71
T1
X11735Y14453
X24371Y19050
X10414Y14478
X22860Y19050
X4826Y14224
X21336Y19050
X23622Y10668
X14732Y17272
X1524Y11174
X20828Y11783
X1524Y9853
X19939Y10589
X1524Y8532
X19050Y9649
X1524Y7211
X18034Y8709
X17221Y7857
X34417Y10143
X16459Y6917
X34417Y8653
X15443Y5977
X34417Y7162
X14681Y5037
X34417Y5672
X28617Y14287
X25400Y32004
X30861Y14287
X28194Y32258
X26162Y14224
X23114Y31001
X23368Y14224
X20574Y30226
X3302Y14224
X19558Y21082
M30