G04 Layer: BottomLayer*
G04 EasyEDA v6.3.53, 2020-06-26T16:53:54--4:00*
G04 395d111042f2402990e7a52cfaf045f1,10*
G04 Gerber Generator version 0.2*
G04 Scale: 100 percent, Rotated: No, Reflected: No *
G04 Dimensions in millimeters *
G04 leading zeros omitted , absolute positions ,3 integer and 3 decimal *
%FSLAX33Y33*%
%MOMM*%
G90*
G71D02*

%ADD10C,0.254000*%
%ADD11C,0.599999*%
%ADD12C,0.610006*%
%ADD13C,0.609600*%
%ADD21C,1.999996*%
%ADD22C,2.999994*%

%LPD*%
G54D11*
G01X26797Y16807D02*
G01X26797Y19203D01*
G01X22000Y24000D01*
G01X22716Y18474D02*
G01X22716Y17474D01*
G01X29716Y10474D01*
G01X29715Y7474D01*
G54D10*
G01X18595Y17608D02*
G01X16639Y19386D01*
G01X2466Y19386D01*
G01X5588Y21379D02*
G01X4533Y22434D01*
G01X2466Y22434D01*
G01X18595Y16338D02*
G01X18555Y16299D01*
G01X5120Y16299D01*
G01X4954Y16465D01*
G01X2466Y16465D01*
G54D11*
G01X5387Y14941D02*
G01X5387Y13146D01*
G01X4716Y12475D01*
G54D12*
G01X18595Y17608D03*
G54D13*
G01X5588Y21379D03*
G01X18595Y16338D03*
G01X22715Y18474D03*
G01X26797Y16807D03*
G01X21999Y24000D03*
G01X4716Y12475D03*
G01X5387Y14941D03*
G54D21*
G01X1966Y25482D02*
G01X2966Y25482D01*
G01X1966Y22434D02*
G01X2966Y22434D01*
G01X1966Y19386D02*
G01X2966Y19386D01*
G01X1966Y16465D02*
G01X2966Y16465D01*
G01X1966Y13417D02*
G01X2966Y13417D01*
G54D22*
G01X12716Y2974D02*
G01X12716Y1974D01*
G01X16715Y2974D02*
G01X16715Y1974D01*
G01X29715Y7974D02*
G01X29715Y6974D01*
G01X25715Y7974D02*
G01X25715Y6974D01*
G01X21715Y7974D02*
G01X21715Y6974D01*
M00*
M02*
